<?xml version="1.0" standalone="no"?>
<!DOCTYPE svg PUBLIC "-//W3C//DTD SVG 20010904//EN"
 "http://www.w3.org/TR/2001/REC-SVG-20010904/DTD/svg10.dtd">
<svg version="1.0" xmlns="http://www.w3.org/2000/svg"
 width="260.000000pt" height="260.000000pt" viewBox="0 0 260.000000 260.000000"
 preserveAspectRatio="xMidYMid meet">
<metadata>
Created by potrace 1.14, written by Peter Selinger 2001-2017
</metadata>
<g transform="translate(0.000000,260.000000) scale(0.100000,-0.100000)"
fill="#000000" stroke="none">
<path d="M304 2195 l0 -405 206 -212 206 -211 -1 76 -1 77 58 0 c67 0 60 18
59 -163 l0 -107 40 -40 c22 -22 42 -40 43 -40 1 0 2 78 2 173 l-1 172 46 3 46
3 94 -113 c119 -143 129 -154 130 -142 1 5 2 63 3 129 l1 120 54 3 c30 2 57
-1 60 -6 5 -8 6 -421 2 -467 -1 -14 -71 -13 -91 0 -15 10 -47 46 -130 144 -25
30 -56 67 -70 83 l-25 29 0 -132 c0 -72 -3 -133 -7 -135 -7 -4 -79 69 -509
510 l-175 178 0 -566 0 -566 962 0 963 0 0 1005 0 1005 -982 0 -982 0 -1 -405z
m1414 -67 c86 -43 134 -123 135 -223 1 -101 -45 -178 -138 -228 -52 -28 -163
-30 -216 -4 -49 24 -107 83 -125 127 -39 92 -16 212 54 282 74 75 196 94 290
46z m-887 8 c0 -15 0 -414 0 -448 -1 -27 -3 -28 -59 -28 l-57 0 1 243 c1 133
2 242 3 242 0 1 26 1 56 2 34 0 55 -4 56 -11z m394 -20 c61 -36 90 -95 82
-168 -11 -102 -80 -157 -205 -162 l-66 -3 -1 -59 0 -59 -60 0 -59 0 -1 235 c0
129 4 238 9 241 5 4 64 6 131 5 114 -2 126 -5 170 -30z m600 -643 c-1 -27 -3
-51 -4 -55 0 -4 -34 -8 -73 -10 l-73 -3 0 -185 0 -185 -58 0 c-50 0 -57 2 -58
20 0 11 -1 95 -1 188 l-1 167 -74 0 c-41 0 -73 4 -74 10 -1 6 -1 26 -1 45 0
19 0 40 1 45 1 6 78 10 210 10 l209 0 -3 -47z"/>
<path d="M1577 2042 c-15 -2 -43 -19 -62 -37 -87 -88 -33 -236 87 -238 56 -2
94 22 118 74 47 108 -29 215 -143 201z"/>
<path d="M1035 1968 l1 -73 52 -3 c44 -3 56 1 77 22 58 58 15 126 -79 126
l-52 0 1 -72z"/>
<path d="M334 206 l1 -181 110 -2 c61 -1 127 2 148 7 45 10 83 42 89 75 6 32
-16 81 -42 95 -22 12 -22 12 -2 26 25 17 33 71 16 106 -19 38 -70 51 -204 53
l-116 1 0 -180z m205 80 c17 -21 -10 -43 -51 -41 -28 1 -33 6 -36 28 -3 25 -1
27 36 27 22 0 45 -6 51 -14z m9 -125 c8 -1 12 -10 10 -23 -3 -20 -10 -23 -55
-26 -50 -3 -53 -2 -53 21 0 13 2 26 5 29 4 4 39 3 93 -1z"/>
<path d="M754 383 c-5 -2 -8 -27 -7 -55 1 -29 2 -87 2 -129 1 -86 21 -128 78
-162 60 -35 164 -27 212 16 47 43 58 107 51 318 0 12 -11 15 -47 15 -27 -1
-53 -4 -58 -8 -7 -4 -10 -46 -10 -105 2 -115 -7 -149 -40 -157 -58 -15 -69 11
-69 164 l-1 104 -51 1 c-28 0 -55 0 -60 -2z"/>
<path d="M1183 383 c-10 -4 -13 -49 -13 -183 l0 -178 60 0 60 1 -2 180 -3 181
-45 1 c-25 1 -51 0 -57 -2z"/>
<path d="M1374 205 l1 -180 138 -1 137 -2 0 48 0 47 -47 1 c-27 0 -63 0 -81 1
l-33 1 1 78 c1 42 1 102 1 133 l-1 55 -58 0 -58 -1 0 -180z"/>
<path d="M1710 204 l0 -183 123 2 c106 3 127 6 163 26 73 41 103 123 78 209
-27 93 -86 123 -250 126 l-114 3 0 -183z m222 66 c33 -25 41 -66 21 -108 -16
-34 -58 -52 -100 -44 -22 4 -23 9 -23 88 l0 84 39 0 c23 0 48 -8 63 -20z"/>
<path d="M2163 142 c-6 -4 -17 -21 -23 -37 -9 -24 -8 -33 8 -54 11 -15 27 -28
36 -29 70 -14 110 62 60 113 -16 16 -61 20 -81 7z"/>
</g>
</svg>
