<svg width="81" height="90" viewBox="0 0 81 90" fill="none" xmlns="http://www.w3.org/2000/svg">
<g id="Frame 1000004631">
<g id="Group">
<g id="Group 400">
<path id="Vector" d="M30.9363 50.9462C30.9363 52.4112 32.124 53.6054 33.5934 53.6054C35.0573 53.6054 36.2506 52.4167 36.2506 50.9462C36.2506 49.4811 35.0629 48.2869 33.5934 48.2869C32.124 48.2869 30.9363 49.4811 30.9363 50.9462Z" fill="#FF135A"/>
<path id="Vector_2" d="M42.8344 48.287C41.3705 48.287 40.1772 49.4812 40.1772 50.9462C40.1772 52.4113 41.365 53.6054 42.8344 53.6054C44.2983 53.6054 45.4915 52.4168 45.4915 50.9462C45.486 49.4812 44.2983 48.287 42.8344 48.287Z" fill="#FF135A"/>
<path id="Vector_3" d="M52.0751 53.6054C53.5446 53.6054 54.7323 52.4168 54.7323 50.9462C54.7323 49.4812 53.5446 48.287 52.0751 48.287C50.6112 48.287 49.418 49.4812 49.418 50.9462C49.418 52.4168 50.6057 53.6054 52.0751 53.6054Z" fill="#FF135A"/>
</g>
<g id="Group_2">
<path id="Vector 1" d="M59.4828 71.4613V56.024C59.4828 53.5437 61.4935 51.5331 63.9737 51.5331H68.1736C70.6538 51.5331 72.6645 53.5437 72.6645 56.024V64.725C72.6645 67.2053 70.6538 69.2159 68.1736 69.2159H26.6725C24.1923 69.2159 22.1816 67.2053 22.1816 64.725V50.27V31.3242V27.114V27.114C22.1816 24.7888 24.0666 22.9038 26.3918 22.9038H35.9207C38.4009 22.9038 40.4115 24.9144 40.4115 27.3947V31.3242C40.4115 33.8044 38.4009 35.8151 35.9207 35.8151H20.2184M14.8897 35.8151H13.4909C11.0106 35.8151 9 37.8257 9 40.3059V76.5168C9 78.8402 10.8835 80.7237 13.2069 80.7237V80.7237C15.5303 80.7237 17.4138 82.6072 17.4138 84.9306V85.9182C17.4138 87.4189 19.2284 88.1701 20.2892 87.1085L25.3534 82.0403C26.1957 81.1974 27.3385 80.7237 28.5302 80.7237H55.2726C57.5979 80.7237 59.4828 78.8388 59.4828 76.5136V76.5136" stroke="black" stroke-width="2.24543" stroke-linecap="round"/>
</g>
</g>
</g>
</svg>
