<svg width="81" height="90" viewBox="0 0 81 90" fill="none" xmlns="http://www.w3.org/2000/svg">
<g id="Frame 1000004632">
<g id="Group 574">
<g id="Group">
<path id="Vector" d="M44.7965 41.7426C45.4301 41.6556 46.1133 41.7612 46.6101 42.159C47.0884 42.5444 47.3554 43.1847 47.2871 43.7938C47.2188 44.4029 46.8151 44.9686 46.2623 45.2359C45.8897 45.4099 45.4735 45.4596 45.0636 45.4907C44.2624 45.5591 43.4301 45.5839 42.6973 45.2607C42.542 45.1923 42.3867 45.1053 42.2811 44.9686C42.1942 44.8567 42.1445 44.7137 42.1134 44.5708C41.7221 42.8987 43.3742 41.9415 44.7965 41.7426Z" fill="white"/>
</g>
<g id="Group_2">
<path id="Vector_2" d="M65.8143 43.4458C66.3174 43.6944 66.8453 44.0176 67.0378 44.546C66.9882 44.6641 66.8329 44.6951 66.7024 44.7076C65.2864 44.7884 63.92 44.2538 62.6032 43.7193C62.038 43.4893 61.417 43.2096 61.1871 42.6377C60.8704 41.8483 62.7523 42.2648 63.0691 42.3642C64.0193 42.6439 64.9385 43.0045 65.8143 43.4458Z" fill="white"/>
</g>
<g id="Group 398">
<path id="Ellipse 50" d="M67.7632 45.2571C74.4447 49.2831 78.9133 56.6086 78.9133 64.9779C78.9133 77.6846 68.6125 87.9855 55.9057 87.9855C51.6228 87.9855 47.6131 86.8152 44.1791 84.7769" stroke="black" stroke-width="2.1912" stroke-linecap="round"/>
</g>
<path id="Ellipse 51" d="M13.1501 45.2575C6.46855 49.2835 1.99988 56.6091 1.99988 64.9783C1.99988 77.6851 12.3007 87.9859 25.0075 87.9859C29.2905 87.9859 33.3001 86.8156 36.7341 84.7773" stroke="black" stroke-width="2.1912" stroke-linecap="round"/>
<path id="Ellipse 52" d="M18.3577 38.41C20.5105 27.9356 29.7823 20.0587 40.8938 20.0587C52.0053 20.0587 61.2771 27.9356 63.43 38.41" stroke="#191B1D" stroke-width="2.1912" stroke-linecap="round"/>
<g id="Group 404">
<path id="Ellipse 58" d="M49.6586 64.7045C49.6586 71.3473 45.6572 77.1532 42.9791 80.2952C41.7112 81.7827 39.5286 81.7827 38.2607 80.2952C35.5826 77.1532 31.5812 71.3473 31.5812 64.7045C31.5812 54.7206 40.6199 46.6271 40.6199 46.6271C40.6199 46.6271 49.6586 54.7206 49.6586 64.7045Z" stroke="#FF135A" stroke-width="2.1912"/>
<path id="Ellipse 59" d="M43.4249 44.6958C49.3448 41.278 56.5055 41.7241 60.665 42.4147C62.6408 42.7427 63.763 44.6864 63.0592 46.5615C61.5775 50.509 58.3835 56.9335 52.4636 60.3513C43.5275 65.5106 31.764 61.8653 31.764 61.8653C31.764 61.8653 34.4888 49.8551 43.4249 44.6958Z" stroke="#FF135A" stroke-width="2.1912"/>
<path id="Ellipse 61" d="M37.6272 44.6958C31.7073 41.278 24.5466 41.7241 20.3871 42.4147C18.4113 42.7427 17.2892 44.6864 17.993 46.5615C19.4747 50.509 22.6686 56.9335 28.5885 60.3513C37.5246 65.5106 49.2881 61.8653 49.2881 61.8653C49.2881 61.8653 46.5633 49.8551 37.6272 44.6958Z" stroke="#FF135A" stroke-width="2.1912"/>
</g>
</g>
</g>
</svg>
