<svg width="182" height="37" viewBox="0 0 182 37" fill="none" xmlns="http://www.w3.org/2000/svg">
<path d="M22.0555 0.631822C22.7084 0.653588 23.3775 0.772713 24.0785 0.975479C24.9835 1.23781 25.8553 1.5918 26.5175 2.37423C26.2677 2.85308 26.0455 3.32621 25.7809 3.77413C25.31 4.57259 24.9732 4.66994 24.1404 4.30909C23.1655 3.88752 21.8665 3.26662 20.7919 3.76609C19.8399 4.20713 19.612 5.41114 20.5422 6.04464C20.9385 6.315 21.4151 6.47765 21.8699 6.64948C22.5549 6.90953 23.2686 7.09971 23.9445 7.38266C26.8692 8.60613 27.6997 11.8687 25.7534 14.3981C25.0889 15.2619 24.2309 15.8622 23.1861 16.1176C20.4941 16.7786 18.0872 16.1841 15.8809 14.3603C16.1879 13.87 16.4525 13.4267 16.7366 12.9959C17.3185 12.1139 17.7264 12.0405 18.6612 12.5034C19.9362 13.1357 22.9891 14.4955 23.2881 12.0577C23.5264 10.1206 20.3772 9.81012 19.124 9.31295C17.6382 8.72412 16.7332 7.65416 16.559 6.02975C16.2073 2.77748 18.9132 0.528721 22.0555 0.631822Z" fill="white"/>
<path d="M77.1902 0.631822C77.8432 0.653588 78.5122 0.772713 79.2133 0.975479C80.1183 1.23781 80.9901 1.5918 81.6522 2.37423C81.4025 2.85308 81.1803 3.32621 80.9156 3.77413C80.4448 4.57259 80.108 4.66994 79.2752 4.30909C78.3003 3.88752 77.0012 3.26662 75.9267 3.76609C74.9747 4.20713 74.7467 5.41114 75.6769 6.04464C76.0733 6.315 76.5499 6.47765 77.0047 6.64948C77.6897 6.90953 78.4034 7.09971 79.0793 7.38266C82.0039 8.60613 82.8345 11.8687 80.8881 14.3981C80.2237 15.2619 79.3657 15.8622 78.3209 16.1176C75.6288 16.7786 73.222 16.1841 71.0156 14.3603C71.3226 13.87 71.5873 13.4267 71.8714 12.9959C72.4533 12.1139 72.8611 12.0405 73.7959 12.5034C75.0709 13.1357 78.1239 14.4955 78.4229 12.0577C78.6612 10.1206 75.512 9.81012 74.2587 9.31295C72.7729 8.72412 71.8679 7.65416 71.6938 6.02975C71.3421 2.77748 74.0479 0.528721 77.1902 0.631822Z" fill="white"/>
<path d="M51.2555 0.673046C51.9382 0.686793 52.6221 0.780705 53.2877 0.955977C54.4505 1.26299 55.4975 1.78769 56.3498 2.77173C56.0038 3.23683 55.6854 3.69047 55.3406 4.12349C54.7311 4.89102 54.4138 4.96432 53.5626 4.44652C52.7974 3.98142 52.0001 3.6916 51.0951 3.6916C49.1774 3.6916 47.7271 4.66189 47.0799 6.47189C46.5403 7.97832 46.5735 9.4985 47.2173 10.9671C48.2552 13.3327 51.047 14.1266 53.1972 12.6946C54.2912 11.966 54.36 11.9752 55.2833 12.9615C55.5662 13.264 55.8549 13.5618 56.1608 13.8837C55.1596 15.31 53.7769 16.0386 52.1822 16.2471C47.7638 16.8256 43.469 14.5699 43.083 9.77344C42.9948 8.6737 43.0234 7.51895 43.2605 6.44784C44.0899 2.71214 47.6572 0.598584 51.2555 0.673046Z" fill="white"/>
<path d="M162.225 25.4654C162.724 25.4757 163.222 25.5433 163.709 25.6716C164.557 25.895 165.322 26.2776 165.943 26.9959C165.691 27.335 165.458 27.666 165.206 27.9822C164.762 28.5424 164.53 28.5962 163.908 28.2182C163.349 27.8791 162.768 27.6683 162.109 27.6683C160.71 27.6683 159.651 28.3763 159.179 29.6971C158.785 30.7957 158.809 31.9046 159.28 32.9769C160.037 34.7032 162.074 35.2818 163.644 34.237C164.442 33.7055 164.492 33.7124 165.165 34.4318C165.371 34.6529 165.582 34.8705 165.805 35.1042C165.074 36.1444 164.066 36.6759 162.902 36.8283C159.679 37.251 156.546 35.6048 156.264 32.1051C156.2 31.3032 156.22 30.4601 156.393 29.6788C156.997 26.9535 159.6 25.4104 162.225 25.4654Z" fill="white"/>
<path d="M71.6415 36.8501C68.6779 36.448 66.4291 33.4122 66.8369 30.4269C67.2402 27.4759 69.4568 25.6212 72.4422 25.5112C77.1562 25.3394 79.6043 29.9813 77.7771 33.8143C76.6728 36.1295 74.03 37.1743 71.6415 36.8501ZM75.6475 31.1635C75.6647 29.4864 74.7173 27.8104 72.7435 27.7142C68.6996 27.5171 68.2941 34.5028 72.4915 34.6174C74.5535 34.6746 75.6292 32.9185 75.6475 31.1635Z" fill="white"/>
<path d="M0 25.5604H2.69781C2.69781 25.5604 2.69781 31.5529 2.69781 34.5807C4.09426 34.5807 5.36813 34.5807 6.71074 34.5807C6.71074 35.3379 6.71074 35.9771 6.71074 36.6828C4.44595 36.6828 2.22355 36.6828 0 36.6828C0 33.0422 0 25.5604 0 25.5604Z" fill="white"/>
<path d="M120.249 0.823077C120.249 6.00678 120.249 11.0324 120.249 16.1519C119.193 16.1519 118.173 16.1519 117.041 16.1519C117.041 13.0211 117.041 6.276 117.041 6.276C117.041 6.276 113.774 12.7485 113.232 13.7268C112.493 15.0591 110.766 15.0717 110.034 13.7222C108.852 11.541 106.2 6.43524 106.2 6.43524C106.2 6.43524 106.2 12.9673 106.2 16.1726C105.105 16.1726 104.11 16.1726 103.029 16.1726C103.029 11.0851 103.029 6.03542 103.029 0.863177C104.114 0.863177 104.971 0.900968 105.824 0.900968C106.49 0.900968 106.946 1.36378 107.12 1.70057C108.546 4.46483 109.932 7.24972 111.331 10.0277C111.408 10.1812 111.485 10.3359 111.615 10.5959C112.181 9.48129 112.706 8.45258 113.227 7.42272C114.158 5.58293 115.112 3.75345 116.005 1.89534C116.368 1.14041 116.844 0.811646 117.711 0.811646C118.359 0.811646 119.312 0.823077 120.249 0.823077Z" fill="white"/>
<path d="M112.222 25.698C112.222 29.3994 112.222 32.9873 112.222 36.6416C111.468 36.6416 110.738 36.6416 109.931 36.6416C109.931 34.4066 109.931 29.5907 109.931 29.5907C109.931 29.5907 107.598 34.2119 107.211 34.9095C106.684 35.8615 105.452 35.8695 104.928 34.9061C104.084 33.3493 102.191 29.7041 102.191 29.7041C102.191 29.7041 102.191 34.3677 102.191 36.6565C101.409 36.6565 100.699 36.6565 99.9277 36.6565C99.9277 33.0251 99.9277 29.4188 99.9277 25.7255C100.702 25.7255 101.314 25.753 101.923 25.753C102.399 25.753 102.724 26.0829 102.848 26.3235C103.866 28.2973 104.856 30.2849 105.854 32.269C105.909 32.379 105.964 32.489 106.057 32.6745C106.461 31.8795 106.836 31.1441 107.208 30.4086C107.872 29.0946 108.554 27.7887 109.191 26.4621C109.45 25.9237 109.789 25.6888 110.409 25.6888C110.872 25.69 111.553 25.698 112.222 25.698Z" fill="white"/>
<path d="M142.06 0.823077C142.06 6.00678 142.06 11.0324 142.06 16.1519C141.004 16.1519 139.983 16.1519 138.851 16.1519C138.851 13.0211 138.851 6.276 138.851 6.276C138.851 6.276 135.584 12.7485 135.042 13.7268C134.303 15.0591 132.577 15.0717 131.845 13.7222C130.663 11.541 128.011 6.43524 128.011 6.43524C128.011 6.43524 128.011 12.9673 128.011 16.1726C126.916 16.1726 125.92 16.1726 124.84 16.1726C124.84 11.0851 124.84 6.03542 124.84 0.863177C125.925 0.863177 126.782 0.900968 127.635 0.900968C128.301 0.900968 128.757 1.36378 128.931 1.70057C130.357 4.46483 131.743 7.24972 133.142 10.0277C133.219 10.1812 133.295 10.3359 133.426 10.5959C133.992 9.48129 134.516 8.45258 135.038 7.42272C135.969 5.58293 136.922 3.75345 137.816 1.89534C138.179 1.14041 138.654 0.811646 139.521 0.811646C140.17 0.811646 141.123 0.823077 142.06 0.823077Z" fill="white"/>
<path d="M38.5578 8.21548C38.6953 8.29338 38.7525 8.33692 38.8167 8.36098C40.1284 8.84441 41.0551 9.67035 41.18 11.1436C41.3244 12.8504 40.7035 14.2286 39.2841 15.2115C36.7719 16.9504 32.6936 16.2448 29.8206 16.2356C29.6533 16.2356 29.4872 16.1749 29.2695 16.1325C29.2695 11.0714 29.2695 6.04461 29.2695 0.984635C29.3955 0.936521 29.5216 0.844908 29.6476 0.846053C33.3363 0.885003 41.833 -0.352239 40.7332 5.84414C40.5247 7.01148 39.6197 7.65415 38.5578 8.21548ZM33.0041 9.79637C33.0041 11.0565 33.0041 12.1895 33.0041 13.4255C33.8129 13.4255 34.5391 13.4313 35.2666 13.4221C35.545 13.4187 35.8291 13.4095 36.1006 13.3568C37.1006 13.1621 37.631 12.4472 37.5829 11.3898C37.5394 10.4356 37.0296 9.8777 35.9837 9.81011C35.0191 9.7471 34.0477 9.79637 33.0041 9.79637ZM32.9732 7.33683C34.1176 7.23831 35.1326 7.23372 36.1097 7.04012C36.9047 6.88203 37.2015 6.26917 37.182 5.34355C37.1625 4.46261 36.8372 3.9196 36.1109 3.74319C35.0913 3.49574 34.0546 3.47053 32.9732 3.65268C32.9732 4.84407 32.9732 5.98506 32.9732 7.33683Z" fill="white"/>
<path d="M95.0166 0.894043C96.3271 0.894043 97.4761 0.894043 98.6309 0.894043C98.6652 1.19418 98.7053 7.26224 98.6664 10.0609C98.6217 13.2662 96.8392 15.5951 93.8401 16.1931C91.3829 16.6822 89.0241 16.4268 87.1191 14.5171C86.1923 13.5892 85.5634 12.4494 85.5302 11.1778C85.4408 7.7915 85.4992 4.40177 85.4992 0.918095C86.6459 0.918095 87.835 0.918095 89.0723 0.918095C89.0906 1.29728 89.0562 7.00449 89.0734 9.48808C89.0768 10.0425 89.1066 10.613 89.2418 11.1469C89.6164 12.6258 90.8078 13.454 92.2707 13.3257C93.7611 13.1951 94.7703 12.2168 94.941 10.7013C94.9994 10.1812 95.012 9.65421 95.0132 9.13068C95.0201 6.78456 95.0166 1.34769 95.0166 0.894043Z" fill="white"/>
<path d="M162.373 3.70645C162.373 7.93589 162.373 11.9889 162.373 16.1428C161.155 16.1428 159.996 16.1428 158.685 16.1428C158.685 12.0279 158.685 7.92559 158.685 3.7225C157.192 3.7225 155.844 3.7225 154.443 3.7225C154.443 2.72929 154.443 1.84032 154.443 0.887207C158.5 0.887207 162.505 0.887207 166.581 0.887207C166.581 1.82657 166.581 2.71324 166.581 3.70645C165.203 3.70645 163.855 3.70645 162.373 3.70645Z" fill="white"/>
<path d="M53.4468 36.6818C52.6678 36.6818 51.9529 36.6818 51.1797 36.6818C51.1797 32.9976 51.1797 29.3776 51.1797 25.7176C52.2955 25.4862 53.1501 25.5675 53.8844 26.5756C55.2602 28.4669 56.7678 30.2632 58.3888 32.3126C58.5216 31.0433 58.4483 29.9916 58.4609 28.948C58.4747 27.9021 58.4644 26.8562 58.4644 25.7118C59.2571 25.7118 59.9651 25.7118 60.7704 25.7118C60.7704 29.3272 60.7704 32.9449 60.7704 36.5626C59.4541 36.9624 58.9283 36.8204 58.1402 35.8283C56.7895 34.1295 55.4469 32.426 54.0975 30.7271C53.9302 30.5175 53.7423 30.3239 53.4468 29.9905C53.4468 32.3194 53.4468 34.4697 53.4468 36.6818Z" fill="white"/>
<path d="M134.93 32.7891C134.93 34.0549 134.93 35.3345 134.93 36.6783C134.033 36.6783 133.245 36.6783 132.371 36.6783C132.371 33.0526 132.371 25.7839 132.371 25.7839C132.371 25.7839 135.772 25.627 137.22 25.7358C138.668 25.8446 139.9 26.4621 140.286 28.0029C140.592 29.2206 140.502 30.8141 138.716 31.8795C138.632 31.9299 138.567 32.0135 138.557 32.0238C139.503 33.5566 140.429 35.0561 141.454 36.7149C140.462 36.7149 139.663 36.7871 138.886 36.6817C138.543 36.6347 138.16 36.2888 137.951 35.9749C137.393 35.1306 136.932 34.2233 136.41 33.3538C136.005 32.6745 135.989 32.6825 134.93 32.7891ZM134.99 27.6867C134.99 28.7636 134.99 29.7235 134.99 30.7671C135.93 30.7442 136.863 31.0146 137.506 30.0878C137.884 29.5425 137.933 28.8174 137.564 28.3225C136.91 27.4473 135.97 27.6523 134.99 27.6867Z" fill="white"/>
<path d="M82.957 36.7413L87.2598 25.6166L89.9645 25.6121L94.2374 36.7264C94.2374 36.7264 92.7952 36.7355 92.1456 36.7241C91.5969 36.7149 91.3655 36.3163 91.1983 35.8787C91.0138 35.3941 90.8557 34.8992 90.6736 34.3688C89.292 34.3688 87.9425 34.3688 86.5484 34.3688C86.3479 34.9244 86.1566 35.4445 85.9733 35.9669C85.7889 36.4927 85.4292 36.7527 84.8678 36.7447C84.2825 36.7344 82.957 36.7413 82.957 36.7413ZM87.2208 32.3457C88.1705 32.3457 89.0102 32.3457 90.0023 32.3457C89.5429 30.9745 88.5967 28.2274 88.5967 28.2274C88.5967 28.2274 87.6699 31.0203 87.2208 32.3457Z" fill="white"/>
<path d="M170.719 36.7413L175.022 25.6166L177.726 25.6121L181.999 36.7264C181.999 36.7264 180.557 36.7355 179.907 36.7241C179.359 36.7149 179.127 36.3163 178.96 35.8787C178.776 35.3941 178.617 34.8992 178.435 34.3688C177.054 34.3688 175.704 34.3688 174.31 34.3688C174.11 34.9244 173.918 35.4445 173.735 35.9669C173.551 36.4927 173.191 36.7527 172.63 36.7447C172.043 36.7344 170.719 36.7413 170.719 36.7413ZM174.983 32.3457C175.932 32.3457 176.772 32.3457 177.764 32.3457C177.305 30.9745 176.358 28.2274 176.358 28.2274C176.358 28.2274 175.43 31.0203 174.983 32.3457Z" fill="white"/>
<path d="M11.8594 36.7413L16.1621 25.6166L18.8668 25.6121L23.1398 36.7264C23.1398 36.7264 21.6975 36.7355 21.048 36.7241C20.4993 36.7149 20.2678 36.3163 20.1006 35.8787C19.9162 35.3941 19.7581 34.8992 19.5759 34.3688C18.1944 34.3688 16.8449 34.3688 15.4507 34.3688C15.2503 34.9244 15.0589 35.4445 14.8757 35.9669C14.6912 36.4927 14.3315 36.7527 13.7702 36.7447C13.1848 36.7344 11.8594 36.7413 11.8594 36.7413ZM16.1243 32.3457C17.074 32.3457 17.9137 32.3457 18.9058 32.3457C18.4464 30.9745 17.5002 28.2274 17.5002 28.2274C17.5002 28.2274 16.5722 31.0203 16.1243 32.3457Z" fill="white"/>
<path d="M146.986 0.900879C148.241 0.900879 149.378 0.900879 150.565 0.900879C150.565 6.0021 150.565 11.0254 150.565 16.1461C149.386 16.1461 148.226 16.1461 146.986 16.1461C146.986 11.0747 146.986 6.02959 146.986 0.900879Z" fill="white"/>
<path d="M121.69 34.662C123.18 34.662 124.57 34.662 126.033 34.662C126.033 35.3642 126.033 35.9737 126.033 36.6656C123.705 36.6656 121.383 36.6656 118.986 36.6656C118.986 33.0261 118.986 29.405 118.986 25.6968C121.321 25.6968 123.644 25.6968 126.037 25.6968C126.037 26.336 126.037 26.9432 126.037 27.6568C124.587 27.6568 123.169 27.6568 121.691 27.6568C121.691 28.5126 121.691 29.2641 121.691 30.1313C122.769 30.1313 123.834 30.1313 124.956 30.1313C124.956 30.8209 124.956 31.3971 124.956 32.1039C123.876 32.1039 122.813 32.1039 121.69 32.1039C121.69 32.9849 121.69 33.7352 121.69 34.662Z" fill="white"/>
<path d="M26.8086 27.7188C26.8086 26.9822 26.8086 26.3739 26.8086 25.6877C29.7435 25.6877 32.6189 25.6877 35.5722 25.6877C35.5722 26.3419 35.5722 26.9479 35.5722 27.6879C34.5916 27.6879 33.6339 27.6879 32.5754 27.6879C32.5754 30.734 32.5754 33.6506 32.5754 36.6543C31.6555 36.6543 30.8398 36.6543 29.881 36.6543C29.881 33.7308 29.881 30.7867 29.881 27.7177C28.7893 27.7188 27.8304 27.7188 26.8086 27.7188Z" fill="white"/>
<path d="M44.2758 36.684C43.4223 36.684 42.6067 36.684 41.7246 36.684C41.7246 33.0125 41.7246 29.4016 41.7246 25.7003C42.5758 25.7003 43.388 25.7003 44.2758 25.7003C44.2758 29.3512 44.2758 32.9884 44.2758 36.684Z" fill="white"/>
<path d="M147.477 25.6763C148.36 25.6763 149.147 25.6763 149.995 25.6763C149.995 29.3547 149.995 32.9701 149.995 36.6646C149.163 36.6646 148.352 36.6646 147.477 36.6646C147.477 33.0148 147.477 29.4017 147.477 25.6763Z" fill="white"/>
<path d="M64.8787 0.812866C64.8787 6.01489 64.8787 11.1344 64.8787 16.3033C64.3552 16.3033 63.8878 16.3033 63.3574 16.3033C63.3574 11.1218 63.3574 6.00344 63.3574 0.812866C63.8615 0.812866 64.33 0.812866 64.8787 0.812866Z" fill="white"/>
<path d="M123.674 25.0416H121.582L122.633 22.999H125.494L123.674 25.0416Z" fill="white"/>
</svg>
