<svg width="155" height="48" viewBox="0 0 155 48" fill="none" xmlns="http://www.w3.org/2000/svg">
<path d="M36.6579 7.20273V0.643188H28.8555L32.8638 7.20273H36.6579Z" fill="#E3032E"/>
<path d="M126.934 25.6589L154.367 25.6153V0.675171L112.605 0.686638L122.975 18.8874L126.934 25.6589Z" fill="#E3032E"/>
<path d="M56.4643 31.0993C47.2585 31.0993 40.3164 24.4515 40.3164 15.6375C40.3164 6.87165 47.4796 0.261719 56.9787 0.261719C61.4739 0.261719 66.2005 1.98121 69.3153 4.7489C69.3634 4.79129 69.3692 4.86465 69.3279 4.91391L65.0424 10.0999C65.0217 10.1251 64.9908 10.1411 64.9587 10.1434C64.9564 10.1434 64.953 10.1434 64.9507 10.1434C64.9209 10.1434 64.8923 10.1319 64.8705 10.1125C62.7123 8.12261 59.6719 6.88657 56.9375 6.88657C52.0459 6.88657 48.356 10.6486 48.356 15.6387C48.356 20.6769 52.0814 24.4768 57.0234 24.4768C58.4897 24.4768 60.4269 23.9498 62.2185 23.0643V15.3798C62.2185 15.3145 62.2724 15.2607 62.3377 15.2607H68.9373C69.0026 15.2607 69.0564 15.3134 69.0564 15.3798V27.0806C69.0564 27.1196 69.037 27.1551 69.006 27.178C65.6839 29.523 60.6445 31.0993 56.4643 31.0993Z" fill="white"/>
<path d="M56.9771 0.379639C61.4345 0.379639 66.1485 2.09454 69.2335 4.83704L64.948 10.023C62.7622 8.00795 59.7196 6.7662 56.9336 6.7662C52.0053 6.7662 48.233 10.6233 48.233 15.6374C48.233 20.7375 52.0477 24.5947 57.0183 24.5947C58.5614 24.5947 60.5329 24.0367 62.3326 23.1375V15.3797H68.9322V27.0794C65.7178 29.3511 60.6612 30.9789 56.4604 30.9789C47.3325 30.9789 40.4316 24.3782 40.4316 15.6363C40.4339 6.93687 47.5055 0.379639 56.9771 0.379639Z" fill="white"/>
<path d="M32.8638 7.20264L36.6579 13.7977V30.7177L28.8555 30.6536V7.20264H32.8638Z" fill="white"/>
<path d="M12.8793 30.9262C3.64599 30.9262 0.81414 26.5295 0.0649381 22.8419L0.0317163 22.6793C0.019115 22.6174 0.0569186 22.5567 0.117634 22.5406L6.64967 20.7845C6.65998 20.7822 6.67029 20.7799 6.6806 20.7799C6.70351 20.7799 6.72528 20.7868 6.74475 20.7982C6.77339 20.8166 6.79286 20.8452 6.79859 20.8784L6.83181 21.0686C7.16747 22.9852 8.93279 25.0334 12.8816 25.0334C14.9046 25.0334 17.3149 24.4893 17.3149 21.8991C17.3149 19.3823 14.9997 18.9058 11.1655 18.1165L11.0452 18.0913C10.3338 17.9447 9.59951 17.7923 8.81365 17.6136C4.53495 16.6192 0.578153 14.9066 0.578153 9.16614C0.578153 3.31114 4.70678 0.0875244 12.2034 0.0875244C18.921 0.0875244 23.2066 2.65935 24.5973 7.52687L24.6466 7.69866C24.6557 7.72959 24.6511 7.76169 24.6351 7.79033C24.6191 7.81782 24.5927 7.83845 24.5629 7.84647L18.2463 9.54874C18.236 9.55104 18.2256 9.55336 18.2153 9.55336C18.1638 9.55336 18.1168 9.52012 18.1008 9.46743L18.0527 9.3013C17.426 7.15908 15.4969 5.97919 12.6192 5.97919C9.83435 5.97919 8.23743 7.0274 8.23743 8.85458C8.23743 11.0277 10.4071 11.4596 14.7305 12.3222L15.1716 12.4104C19.9921 13.3876 24.9203 15.2617 24.9203 21.7445C24.9203 27.6648 20.6439 30.9262 12.8793 30.9262Z" fill="white"/>
<path d="M12.2024 0.206787C18.8616 0.206787 23.1083 2.74877 24.4818 7.55901L24.5311 7.73087L18.2144 9.43322L18.1663 9.26709C17.5236 7.06989 15.5532 5.85898 12.6183 5.85898C9.75781 5.85898 8.11735 6.95072 8.11735 8.85351C8.11735 11.1252 10.3203 11.5628 14.7101 12.438L15.1477 12.5262C19.9213 13.4942 24.8003 15.3455 24.8003 21.7435C24.8003 27.5882 20.5662 30.8061 12.8783 30.8061C3.72524 30.8061 0.920889 26.4609 0.179706 22.8169L0.146484 22.6554L6.67852 20.8992L6.71174 21.0894C7.05541 23.054 8.85624 25.1527 12.8783 25.1527C14.9553 25.1527 17.4308 24.5879 17.4308 21.8992C17.4308 19.2851 15.0801 18.8016 11.1863 17.9997C10.452 17.8485 9.66616 17.687 8.83677 17.498C4.60848 16.5128 0.696358 14.8231 0.696358 9.16514C0.696358 3.38804 4.7826 0.206787 12.2024 0.206787Z" fill="white"/>
<path d="M99.9633 30.8357C99.898 30.8357 99.8442 30.783 99.8442 30.7166L99.8029 11.7643L92.8287 27.1195C92.8092 27.1619 92.7669 27.1894 92.7199 27.1894H87.7481C87.7011 27.1894 87.6588 27.1619 87.6393 27.1195L80.6674 11.7677V30.7177C80.6674 30.783 80.6135 30.8369 80.5482 30.8369H73.7344C73.6691 30.8369 73.6152 30.7842 73.6152 30.7177V0.675194C73.6152 0.609897 73.6691 0.55605 73.7344 0.55605H81.7683C81.8141 0.55605 81.8565 0.582422 81.8759 0.623663L90.2351 18.27L98.7547 0.622474C98.7742 0.581234 98.8166 0.554932 98.8624 0.554932H106.691C106.714 0.554932 106.735 0.561752 106.753 0.572062C106.771 0.581227 106.787 0.596174 106.798 0.614503L110.592 7.18544C110.613 7.2221 110.613 7.26793 110.592 7.30459C110.571 7.34124 110.524 7.37563 110.482 7.37563H106.81V30.7155C106.81 30.7808 106.757 30.8345 106.691 30.8345L99.9633 30.8357Z" fill="white"/>
<path d="M106.695 0.675171L110.49 7.24611L110.483 7.25758H106.692V30.7166H99.9641L99.9206 11.2178L92.7207 27.0714H87.7489L80.5502 11.2178V30.7177H73.7363V0.675171H81.7702L90.236 18.546L98.8644 0.675171H106.693V0.680904L106.695 0.675171Z" fill="white"/>
<path d="M135.728 30.8357C135.686 30.8357 135.647 30.8128 135.625 30.7762L125.971 14.0543L116.318 30.7762C116.296 30.8128 116.257 30.8357 116.215 30.8357H108.626C108.584 30.8357 108.545 30.8128 108.523 30.7762C108.503 30.7395 108.503 30.6937 108.523 30.657L118.273 13.769C118.282 13.753 118.295 13.7404 118.309 13.7301L122.066 7.19691L125.853 0.614503C125.874 0.577845 125.914 0.554932 125.957 0.554932C125.999 0.554932 126.038 0.577845 126.06 0.614503L143.418 30.657C143.44 30.6937 143.44 30.7395 143.418 30.7762C143.397 30.8128 143.358 30.8357 143.315 30.8357H135.728Z" fill="white"/>
<path d="M125.956 0.675171L143.315 30.7177H135.727L125.97 13.8171L116.213 30.7177H108.625L118.375 13.8297L118.382 13.8412L122.168 7.25758L125.956 0.675171Z" fill="white"/>
<path d="M56.9771 0.379639C61.4345 0.379639 66.1485 2.09454 69.2335 4.83704L64.948 10.023C62.7622 8.00795 59.7196 6.7662 56.9336 6.7662C52.0053 6.7662 48.233 10.6233 48.233 15.6374C48.233 20.7375 52.0477 24.5947 57.0183 24.5947C58.5614 24.5947 60.5329 24.0367 62.3326 23.1375V15.3797H68.9322V27.0794C65.7178 29.3511 60.6612 30.9789 56.4604 30.9789C47.3325 30.9789 40.4316 24.3782 40.4316 15.6363C40.4339 6.93687 47.5055 0.379639 56.9771 0.379639Z" fill="white"/>
<path d="M12.2024 0.206909C18.8616 0.206909 23.1083 2.74889 24.4818 7.55913L24.5311 7.731L18.2144 9.43334L18.1663 9.26721C17.5236 7.07001 15.5532 5.8591 12.6183 5.8591C9.75781 5.8591 8.11735 6.95084 8.11735 8.85363C8.11735 11.1253 10.3203 11.5629 14.7101 12.4381L15.1477 12.5263C19.9213 13.4943 24.8003 15.3456 24.8003 21.7436C24.8003 27.5883 20.5662 30.8062 12.8783 30.8062C3.72524 30.8062 0.920889 26.4611 0.179706 22.817L0.146484 22.6555L6.67852 20.8993L6.71174 21.0895C7.05541 23.0541 8.85624 25.1528 12.8783 25.1528C14.9553 25.1528 17.4308 24.588 17.4308 21.8994C17.4308 19.2852 15.0801 18.8018 11.1863 17.9999C10.452 17.8486 9.66616 17.6871 8.83677 17.4981C4.60848 16.5129 0.696358 14.8232 0.696358 9.16527C0.696358 3.38816 4.7826 0.206909 12.2024 0.206909Z" fill="white"/>
<path d="M106.695 0.675293L110.49 7.24623L110.483 7.2577H106.692V30.7167H99.9641L99.9206 11.218L92.7207 27.0715H87.7489L80.5502 11.218V30.7178H73.7363V0.675293H81.7702L90.236 18.5461L98.8644 0.675293H106.693V0.681026L106.695 0.675293Z" fill="white"/>
<path d="M125.96 0.675293L143.319 30.7178H135.731L125.974 13.8172L116.217 30.7178H108.629L118.379 13.8298L118.386 13.8413L122.172 7.2577L125.96 0.675293Z" fill="white"/>
<path d="M34.5908 39.2775V41.2628H39.361V43.2618H34.5908V45.2757H40.0323V47.2747H32.0488V37.2773H39.8754V39.2764H34.5908V39.2775Z" fill="white"/>
<path d="M54.3789 43.0762C54.3789 45.7191 52.6228 47.3893 49.823 47.3893C47.0095 47.3893 45.2109 45.7191 45.2109 43.0762V37.2773H47.753V43.0762C47.753 44.4337 48.6247 45.2608 49.8379 45.2608C51.0373 45.2608 51.8518 44.4326 51.8518 43.0762V37.2773H54.3801L54.3789 43.0762Z" fill="white"/>
<path d="M64.4571 44.4612H64.386H62.458V47.2747H59.916V37.2773H64.386C67.0289 37.2773 68.5421 38.534 68.5421 40.7622C68.5421 42.2903 67.8995 43.3901 66.7287 43.9755L68.8285 47.2747H65.9429L64.4571 44.4612ZM64.386 42.4622C65.4858 42.4622 66.1284 41.9054 66.1284 40.8481C66.1284 39.8068 65.4858 39.2775 64.386 39.2775H62.458V42.4622H64.386Z" fill="white"/>
<path d="M76.2322 45.4327L75.5037 47.2747H72.8906L77.2037 37.2773H79.8167L84.0301 47.2747H81.3163L80.6026 45.4327H76.2322ZM78.4306 39.8068L76.9746 43.5058H79.8591L78.4306 39.8068Z" fill="white"/>
<path d="M96.4094 38.2786L95.4517 40.2627C94.3955 39.6487 93.0666 39.2202 92.2532 39.2202C91.5968 39.2202 91.1535 39.4631 91.1535 39.9488C91.1535 41.6775 96.4369 40.6911 96.4369 44.3054C96.4369 46.3044 94.6658 47.3617 92.4388 47.3617C90.7674 47.3617 89.0537 46.7328 87.8691 45.7625L88.8543 43.8059C89.8819 44.7052 91.4238 45.3055 92.4663 45.3055C93.2659 45.3055 93.7665 45.0053 93.7665 44.4348C93.7665 42.6638 88.4832 43.72 88.4832 40.1779C88.4832 38.337 90.0686 37.165 92.4675 37.165C93.9097 37.1639 95.3795 37.6073 96.4094 38.2786Z" fill="white"/>
<path d="M101.527 47.2747V37.2773H104.071V47.2747H101.527Z" fill="white"/>
<path d="M112.053 45.4327L111.324 47.2747H108.711L113.024 37.2773H115.637L119.85 47.2747H117.138L116.423 45.4327H112.053ZM114.252 39.8068L112.796 43.5058H115.682L114.252 39.8068Z" fill="white"/>
</svg>
