<svg width="101" height="48" viewBox="0 0 101 48" fill="none" xmlns="http://www.w3.org/2000/svg">
<path d="M0.126953 17.8371C0.266713 17.5244 0.507282 17.4408 0.842934 17.4419C3.28872 17.4534 5.73451 17.4488 8.18145 17.4488C8.83557 17.4488 8.94211 17.553 8.94211 18.2186C8.94325 23.589 8.94211 28.9606 8.94211 34.331C8.94211 38.0976 8.94211 41.8631 8.94211 45.6297C8.94211 46.4454 8.8791 46.5072 8.05658 46.5072C5.64974 46.5072 3.24175 46.5015 0.834915 46.5129C0.496972 46.5141 0.260985 46.4202 0.126953 46.1052C0.126953 36.6817 0.126953 27.2594 0.126953 17.8371Z" fill="white"/>
<path d="M0.126953 6.80865C0.302225 6.51195 0.561125 6.42488 0.90365 6.42717C3.33569 6.43977 5.76888 6.43294 8.20207 6.43409C8.80464 6.43409 8.94096 6.56466 8.94211 7.15692C8.9444 9.15021 8.9444 11.1423 8.94211 13.1356C8.94096 13.6901 8.80006 13.8368 8.2582 13.8379C5.78721 13.8414 3.31508 13.8367 0.844083 13.8425C0.534779 13.8436 0.299938 13.7416 0.128102 13.4885C0.126957 11.2615 0.126953 9.03564 0.126953 6.80865Z" fill="white"/>
<path d="M77.4183 25.4803C78.1469 25.7495 78.9396 25.9947 79.6923 26.3292C81.4874 27.1265 82.9491 28.3236 83.9252 30.0592C84.7259 31.482 85.0387 33.0205 85.0238 34.6415C85.0054 36.7092 84.5781 38.6704 83.5116 40.4621C82.3042 42.4897 80.5377 43.8782 78.4196 44.8508C76.7848 45.6011 75.0653 46.0742 73.2817 46.2552C71.9849 46.387 70.6767 46.4649 69.3741 46.4706C64.0289 46.4935 58.6837 46.4809 53.3385 46.4797C53.2216 46.4797 53.1048 46.4855 52.9891 46.4763C52.6225 46.4465 52.4552 46.2758 52.4335 45.9104C52.4266 45.8073 52.4312 45.703 52.4312 45.5999C52.4312 33.0205 52.4312 20.4399 52.4312 7.86036C52.4312 7.76986 52.4289 7.67936 52.4323 7.58886C52.4495 7.17417 52.6156 7.00231 53.0234 6.97825C53.1265 6.97252 53.2308 6.97713 53.3339 6.97713C58.8601 6.97713 64.3863 6.96678 69.9126 6.98168C72.0502 6.9874 74.1741 7.17301 76.2487 7.73548C78.0278 8.21777 79.69 8.93602 81.1002 10.1526C82.5448 11.3967 83.4371 12.9604 83.7808 14.8368C84.0615 16.373 84.0225 17.9036 83.6502 19.4169C83.0671 21.7848 81.6375 23.4905 79.4769 24.5833C78.7999 24.927 78.0839 25.1928 77.4183 25.4803ZM60.8843 40.2158C61.0768 40.2158 61.2303 40.2158 61.3838 40.2158C64.4631 40.2158 67.5412 40.2296 70.6205 40.2044C71.2334 40.1998 71.8635 40.1127 72.4523 39.9443C74.1042 39.4712 75.3311 38.4802 75.8352 36.7814C76.2441 35.4032 76.2384 33.9953 75.8535 32.6104C75.1868 30.2138 73.4982 28.8964 71.0089 28.8724C67.7234 28.8403 64.4379 28.8575 61.1513 28.8552C61.0665 28.8552 60.9806 28.877 60.8843 28.8896C60.8843 32.6596 60.8843 36.4068 60.8843 40.2158ZM60.8946 23.156C61.0585 23.156 61.1982 23.156 61.338 23.156C64.4047 23.156 67.4714 23.1606 70.538 23.1502C70.9104 23.1491 71.2907 23.1113 71.6527 23.0288C73.253 22.6611 74.4536 21.7997 74.8694 20.1386C75.1879 18.8659 75.1673 17.5702 74.7469 16.3124C74.3642 15.1668 73.646 14.303 72.5027 13.8391C71.8451 13.571 71.1498 13.5057 70.4487 13.5046C67.4084 13.5011 64.3669 13.5034 61.3265 13.5034C61.1879 13.5034 61.0504 13.5034 60.8946 13.5034C60.8946 16.7362 60.8946 19.9232 60.8946 23.156Z" fill="white"/>
<path d="M40.2819 31.3627C40.078 31.3627 39.9257 31.3627 39.7722 31.3627C36.8086 31.3627 33.845 31.3627 30.8814 31.3627C30.7519 31.3627 30.6213 31.3684 30.493 31.3558C30.1906 31.3283 30.0279 31.168 29.9924 30.8633C29.9821 30.7739 29.9856 30.6823 29.9856 30.5918C29.9856 28.9868 29.9844 27.3819 29.9856 25.7769C29.9856 25.1698 30.131 25.0197 30.7428 25.0197C36.7478 25.0174 42.7529 25.0185 48.758 25.0197C49.3663 25.0197 49.5175 25.1732 49.5175 25.7757C49.5152 28.839 49.254 31.8713 48.4269 34.8349C47.7235 37.3529 46.6433 39.683 44.9444 41.6957C42.8377 44.1931 40.141 45.7419 37.009 46.5644C34.1245 47.3216 31.1873 47.4912 28.234 47.1704C24.0515 46.7168 20.3353 45.1668 17.2468 42.2582C15.0393 40.1801 13.4905 37.6679 12.4824 34.8166C11.6908 32.5804 11.2876 30.271 11.1925 27.9054C11.0424 24.1754 11.5133 20.5393 13.0403 17.1072C15.5915 11.3713 19.971 7.84301 26.1193 6.58403C29.9351 5.80275 33.743 5.98491 37.4718 7.1236C42.6624 8.70907 46.1518 12.1205 48.0271 17.1966C48.2597 17.8255 48.4395 18.475 48.624 19.12C48.766 19.616 48.624 19.789 48.105 19.789C45.5939 19.7901 43.084 19.7901 40.5729 19.789C40.0746 19.789 39.9176 19.6756 39.7653 19.1853C39.5029 18.3433 39.1661 17.5334 38.7079 16.7784C37.6964 15.1128 36.285 13.9306 34.4327 13.3085C32.2183 12.5639 29.9626 12.4791 27.7059 13.0645C24.8442 13.808 22.9197 15.6776 21.6676 18.2929C20.7981 20.1098 20.3742 22.0492 20.1715 24.0414C19.9893 25.8342 19.9733 27.6293 20.1623 29.4233C20.4281 31.9458 21.0341 34.3618 22.4706 36.4994C24.1489 38.9979 26.5156 40.3543 29.4918 40.6739C31.1437 40.8514 32.7762 40.7517 34.3616 40.2362C37.3023 39.2808 39.0905 37.228 39.8695 34.2816C40.0895 33.4499 40.1502 32.577 40.2796 31.7224C40.2957 31.6239 40.2819 31.5196 40.2819 31.3627Z" fill="white"/>
<path d="M92.3366 8.01944C91.8933 8.52005 91.9563 9.16156 92.4741 9.58313C93.0893 10.0849 94.1982 10.0265 94.7984 9.44112C94.181 8.80533 93.5647 8.16836 92.9071 7.49133C92.694 7.68723 92.4981 7.83729 92.3366 8.01944Z" fill="white"/>
<path d="M93.4505 5.97812C93.7254 5.71121 93.9957 5.50501 94.1939 5.24383C94.4906 4.85204 94.3486 4.33194 93.9316 4.12573C93.6097 3.9665 93.1687 4.04096 92.9315 4.29298C92.6921 4.54845 92.6566 4.97921 92.8788 5.29424C93.0335 5.51533 93.2236 5.70892 93.4505 5.97812Z" fill="white"/>
<path d="M93.9222 0.234253C90.1808 0.234253 87.1484 3.26768 87.1484 7.00796C87.1484 10.7482 90.1808 13.7817 93.9222 13.7817C97.6636 13.7817 100.696 10.7494 100.696 7.00796C100.696 3.26653 97.6636 0.234253 93.9222 0.234253ZM96.5135 11.0713C96.4161 11.069 96.3096 10.9797 96.2282 10.9063C96.0862 10.7769 95.9602 10.6291 95.8697 10.534C95.3381 10.7654 94.8661 11.0404 94.3564 11.1778C93.4445 11.423 92.5338 11.3279 91.6734 10.9166C90.049 10.1399 89.9528 8.08367 91.0709 7.12941C91.3447 6.89571 91.6253 6.67235 91.9186 6.43063C91.6036 6.05488 91.3114 5.66653 91.2106 5.16592C91.0491 4.36058 91.2931 3.70986 91.9426 3.21956C92.8133 2.562 94.2212 2.53108 95.125 3.13251C95.9418 3.67665 96.1812 4.63552 95.6921 5.55656C95.5386 5.84639 95.298 6.0961 95.0712 6.33897C94.9062 6.51653 94.6977 6.65397 94.4732 6.8384C94.9108 7.3035 95.337 7.75602 95.786 8.23373C96.1091 7.67469 96.1767 7.08929 96.2305 6.48328C96.754 6.48328 97.2535 6.48328 97.7518 6.48328C97.8973 7.11334 97.5445 8.35857 96.9144 9.40104C97.4242 9.93488 97.9443 10.4779 98.5182 11.0781C97.7954 11.0793 97.1538 11.0862 96.5135 11.0713Z" fill="white"/>
</svg>
