<svg width="55" height="55" viewBox="0 0 55 55" fill="none" xmlns="http://www.w3.org/2000/svg">
<path opacity="0.12" d="M21.5181 9.88626C16.9984 10.7963 13.8215 14.2964 11.9874 20.3867C11.0703 23.3968 10.6118 26.3719 10.6118 29.312C10.6118 29.662 10.6118 29.9771 10.6118 30.2571C10.6773 30.4671 10.7428 30.9921 10.8083 31.8321H21.5181V54.723H0.589844V33.6172C0.589844 23.2568 2.52218 15.2765 6.38686 9.67625C10.2515 4.07603 15.2953 0.855902 21.5181 0.0158691V9.88626ZM54.6298 9.88626C51.0272 10.5163 48.2761 12.6864 46.3765 16.3965C44.5424 20.1067 43.6253 24.3768 43.6253 29.207C43.6253 29.627 43.6253 30.0471 43.6253 30.4671C43.6908 30.8871 43.7891 31.3421 43.9201 31.8321H54.6298V54.723H33.6034V33.6172C33.6034 25.2869 35.2409 17.8666 38.5161 11.3563C41.7913 4.77606 47.1625 0.995908 54.6298 0.0158691V9.88626Z" fill="white"/>
</svg>
