<svg width="99" height="34" viewBox="0 0 99 34" fill="none" xmlns="http://www.w3.org/2000/svg">
<path d="M94.194 27.196L98.315 25.164L94.18 23.0611L94.194 24.642H46.923H46.909H46.88H46.749L46.633 24.6131L46.517 24.5701L46.415 24.526L46.314 24.454L46.198 24.381L46.096 24.2941L46.009 24.192L45.907 24.076L45.806 23.946L45.719 23.83L45.617 23.6991L45.53 23.554L45.443 23.423L45.356 23.293L45.269 23.148L45.182 23.017L45.095 22.887L44.993 22.7701L44.892 22.6541L44.761 22.553L44.631 22.466L44.456 22.3931L44.268 22.379L44.079 22.437L43.905 22.524L43.76 22.6541L43.629 22.814L43.513 22.9881L43.397 23.206L43.281 23.438L43.18 23.6991L42.86 24.468L42.57 25.092L42.295 25.6001L42.048 25.9921L41.83 26.267L41.642 26.427L41.511 26.5141L41.424 26.528H41.351L41.264 26.485L41.163 26.383L41.032 26.2381L40.902 26.021L40.757 25.745L40.611 25.44L40.481 25.092L40.35 24.715L40.22 24.323L40.089 23.9171L39.973 23.51L39.842 23.119L39.712 22.7121L39.596 22.3501L39.465 21.987L39.32 21.653L39.175 21.3631L39.015 21.0871L38.812 20.855L38.551 20.681L38.217 20.638L37.898 20.754L37.739 20.899L37.71 20.913L37.695 20.928L37.681 20.942L37.666 20.957L37.637 20.971L37.492 21.174L37.347 21.392L37.216 21.6391L37.086 21.9L36.955 22.19L36.839 22.495L36.708 22.814L36.592 23.162L36.462 23.51L36.346 23.859L36.215 24.221L36.099 24.599L35.969 24.961L35.852 25.3241L35.722 25.687L35.591 26.05L35.475 26.383L35.345 26.717L35.214 27.022L35.083 27.312L34.967 27.588L34.837 27.8201L34.721 28.023L34.605 28.1971L34.489 28.327L34.402 28.415L34.329 28.458L34.271 28.487H34.227L34.184 28.4731L34.126 28.444L34.024 28.357L33.792 28.095L33.574 27.776L33.371 27.399L33.168 26.993L32.98 26.5571L32.805 26.093L32.631 25.6001L32.472 25.092L32.312 24.584L32.182 24.062L32.036 23.554L31.906 23.0461L31.775 22.567L31.645 22.103L31.529 21.668L31.398 21.261L31.268 20.884L31.137 20.551L30.977 20.246L30.789 19.985L30.542 19.782L30.208 19.694L29.875 19.782L29.599 19.985L29.381 20.275L29.178 20.638L28.961 21.0871L28.743 21.6391L28.525 22.306L28.279 23.075L28.017 23.989L27.756 24.9901V25.019L27.292 26.673L26.857 28.11L26.436 29.329L26.044 30.344L25.681 31.142L25.348 31.752L25.043 32.172L24.811 32.39L24.651 32.4771L24.55 32.463L24.419 32.39L24.231 32.172L24.027 31.81L23.81 31.316L23.607 30.678L23.403 29.924L23.215 29.067L23.026 28.11L22.852 27.065L22.678 25.948L22.518 24.758L22.373 23.51L22.228 22.205L22.098 20.855L21.967 19.4621L21.836 18.055L21.72 16.619L21.604 15.168L21.488 13.702L21.387 12.2511L21.271 10.815L21.169 9.39305L21.053 8.02905L20.951 6.81004L20.835 5.70804L20.705 4.72104L20.589 3.83604L20.458 3.06705L20.328 2.41405L20.197 1.83405L20.052 1.35504L19.892 0.963043L19.718 0.629044L19.5 0.368042L19.21 0.194046L18.877 0.165039L18.572 0.296051L18.34 0.513046L18.151 0.789047L17.992 1.09404L17.832 1.45604L17.687 1.84805L17.527 2.29805L17.397 2.79105L17.252 3.31305L17.106 3.87904L16.961 4.48904L16.831 5.11305L16.7 5.76605L16.57 6.43304L16.439 7.11505L16.308 7.82605L16.178 8.53705L16.062 9.24805L15.946 9.97305L15.83 10.6991L15.714 11.41L15.583 12.135L15.467 12.846L15.351 13.5721L15.22 14.2681L15.09 14.9641L14.945 15.661L14.814 16.343L14.654 16.996L14.495 17.649L14.335 18.273L14.161 18.882L13.972 19.4771L13.784 20.043L13.581 20.594L13.363 21.116L13.131 21.61L12.884 22.0591L12.638 22.495L12.362 22.887L12.086 23.249L11.796 23.583L11.477 23.873L11.158 24.134L10.809 24.366L10.447 24.541L10.055 24.6861L9.649 24.802L9.213 24.86L8.749 24.8891H0V25.933H8.749H8.778L9.286 25.9041L9.794 25.832L10.287 25.701L10.751 25.527L11.201 25.31L11.607 25.034L12.014 24.729L12.376 24.381L12.725 23.989L13.044 23.568L13.349 23.119L13.639 22.64L13.9 22.132L14.161 21.595L14.393 21.0441L14.611 20.463L14.814 19.854L15.003 19.23L15.191 18.592L15.351 17.939L15.525 17.271L15.67 16.5891L15.815 15.9081L15.96 15.1971L16.091 14.5L16.221 13.775L16.337 13.064L16.468 12.338L16.584 11.6131L16.7 10.887L16.816 10.176L16.947 9.45105L17.063 8.74005L17.179 8.04405L17.31 7.34705L17.44 6.66504L17.571 5.99805L17.701 5.35904L17.832 4.75005L17.962 4.17004L18.093 3.61804L18.238 3.12505L18.369 2.66104L18.514 2.25404L18.644 1.90605L18.761 1.61604L18.891 1.39804L18.978 1.25305L18.993 1.23904L19.007 1.26805L19.109 1.45604L19.21 1.74605L19.341 2.15305L19.457 2.66104L19.588 3.28404L19.704 4.02405L19.82 4.86604L19.95 5.83804L20.052 6.92604L20.168 8.13104L20.269 9.48004L20.386 10.902L20.487 12.338L20.603 13.789L20.719 15.2551L20.835 16.706L20.951 18.1561L21.082 19.578L21.213 20.971L21.343 22.3351L21.488 23.6561L21.633 24.918L21.807 26.122L21.967 27.2681L22.156 28.327L22.344 29.314L22.547 30.2141L22.765 31.026L22.997 31.737L23.258 32.347L23.549 32.84L23.897 33.232L24.318 33.478L24.811 33.507L25.261 33.304L25.681 32.912L26.073 32.3761L26.45 31.679L26.857 30.7941L27.263 29.735L27.684 28.4731L28.134 27.007L28.598 25.3241L28.612 25.295L28.873 24.308L29.12 23.423L29.352 22.683L29.57 22.0591L29.759 21.552L29.933 21.174L30.092 20.913L30.194 20.7831L30.252 20.855L30.339 21.0441L30.455 21.305L30.571 21.6391L30.687 22.0011L30.803 22.422L30.919 22.887L31.05 23.3651L31.18 23.859L31.326 24.381L31.471 24.918L31.63 25.44L31.804 25.9771L31.978 26.499L32.167 27.007L32.385 27.5L32.617 27.965L32.864 28.4L33.139 28.7921L33.444 29.155L33.662 29.343L33.908 29.474L34.169 29.5461L34.431 29.517L34.677 29.43L34.895 29.285L35.083 29.111L35.272 28.8931L35.432 28.661L35.591 28.4L35.736 28.11L35.881 27.8201L36.012 27.5L36.157 27.1671L36.288 26.819L36.418 26.456L36.549 26.093L36.679 25.716L36.796 25.353L36.926 24.976L37.057 24.6131L37.173 24.25L37.289 23.902L37.405 23.568L37.536 23.249L37.652 22.9451L37.768 22.6541L37.869 22.4081L37.985 22.176L38.087 21.987L38.174 21.842L38.261 21.726L38.29 21.711L38.334 21.769L38.435 21.929L38.537 22.147L38.653 22.422L38.769 22.741L38.885 23.104L39.001 23.481L39.132 23.873L39.262 24.2791L39.393 24.7L39.523 25.106L39.668 25.513L39.813 25.89L39.973 26.267L40.147 26.601L40.35 26.9061L40.568 27.181L40.815 27.399L41.134 27.5441L41.468 27.588L41.801 27.5L42.12 27.312L42.44 27.036L42.73 26.659L43.035 26.1951L43.339 25.629L43.658 24.9471L43.992 24.149L44.079 23.9171L44.166 23.728L44.239 23.597L44.297 23.496L44.326 23.467L44.369 23.51L44.427 23.597L44.485 23.685L44.573 23.801L44.645 23.9171L44.732 24.062L44.834 24.207L44.921 24.3521L45.037 24.497L45.138 24.657L45.269 24.816L45.4 24.961L45.545 25.106L45.69 25.237L45.864 25.368L46.038 25.484L46.227 25.571L46.444 25.6431L46.662 25.687L46.88 25.701H46.909H46.923H94.194V27.196Z" fill="white"/>
<path d="M30.9767 14.9211C30.8027 15.0081 30.5557 15.0951 30.2077 15.1681C29.8597 15.2411 29.3077 15.3281 28.5387 15.4441C27.5087 15.5891 26.8697 15.7491 26.5947 15.9231C26.3187 16.0971 26.1887 16.3581 26.1887 16.7071C26.1887 17.0551 26.3487 17.3451 26.6817 17.5631C27.0157 17.7811 27.4507 17.8821 28.0167 17.8821C28.8877 17.8821 29.5987 17.6931 30.1497 17.3161C30.7007 16.9391 30.9767 16.4451 30.9767 15.8361V14.9211ZM32.7037 17.6631V18.4171C32.5587 18.4611 32.4277 18.4901 32.2977 18.5041C32.1667 18.5191 32.0507 18.5331 31.9347 18.5331C31.6157 18.5331 31.3977 18.4601 31.2527 18.3011C31.1077 18.1411 31.0207 17.8801 30.9917 17.4881C30.5997 17.8941 30.1647 18.1991 29.6857 18.3881C29.2067 18.5771 28.6267 18.6641 27.9447 18.6641C27.0887 18.6641 26.4217 18.4901 25.9567 18.1421C25.4927 17.7941 25.2607 17.3001 25.2607 16.6771C25.2607 16.3871 25.3187 16.1261 25.4497 15.8791C25.5807 15.6471 25.7547 15.4441 26.0157 15.2701C26.2187 15.1391 26.4797 15.0231 26.8137 14.9361C27.1477 14.8491 27.7277 14.7471 28.5257 14.6461C28.6997 14.6311 28.9467 14.6021 29.2507 14.5591C30.3967 14.4281 30.9777 14.1241 30.9777 13.6161C30.9777 13.2531 30.8037 12.9781 30.4847 12.7891C30.1507 12.6001 29.6577 12.5131 29.0197 12.5131C28.2067 12.5131 27.5977 12.6441 27.1767 12.8901C26.7557 13.1511 26.5237 13.5281 26.4947 14.0361H25.5797C25.6377 13.2671 25.9427 12.6871 26.4937 12.2951C27.0447 11.9181 27.8577 11.7151 28.9167 11.7151C29.5987 11.7151 30.1357 11.7731 30.5567 11.9041C30.9777 12.0351 31.2967 12.2381 31.5437 12.5131C31.6887 12.6871 31.7907 12.8761 31.8487 13.0931C31.9067 13.3111 31.9357 13.6591 31.9357 14.1091V17.0401C31.9357 17.3301 31.9647 17.5191 32.0227 17.5911C32.0807 17.6641 32.1827 17.7071 32.3277 17.7071C32.3857 17.7071 32.4587 17.7071 32.5307 17.6921C32.5727 17.7071 32.6307 17.6921 32.7037 17.6631Z" fill="white"/>
<path d="M40.8005 9.50903V18.505H39.8865V17.33C39.5385 17.78 39.1325 18.099 38.6675 18.317C38.2035 18.535 37.6665 18.636 37.0565 18.636C35.9395 18.636 35.0395 18.317 34.3435 17.678C33.6615 17.04 33.3135 16.198 33.3135 15.168C33.3135 14.138 33.6615 13.296 34.3435 12.658C35.0395 12.02 35.9395 11.7 37.0565 11.7C37.6515 11.7 38.1885 11.802 38.6385 12.019C39.0885 12.222 39.5095 12.556 39.8865 13.006V9.50903H40.8005ZM39.8865 15.168C39.8865 14.355 39.6255 13.717 39.1175 13.238C38.6095 12.759 37.9275 12.513 37.0715 12.513C36.2155 12.513 35.5485 12.76 35.0255 13.238C34.5175 13.717 34.2565 14.37 34.2565 15.168C34.2565 15.966 34.5175 16.619 35.0255 17.083C35.5335 17.562 36.2155 17.794 37.0715 17.794C37.9275 17.794 38.6095 17.562 39.1175 17.083C39.6255 16.619 39.8865 15.98 39.8865 15.168Z" fill="white"/>
<path d="M44.4847 18.5051L41.2637 11.9031H42.3237L44.9787 17.6201L47.6477 11.9031H48.6787L45.4427 18.5051H44.4847Z" fill="white"/>
<path d="M56.0783 16.4011C55.8893 17.1121 55.4833 17.6921 54.8453 18.1131C54.2213 18.5341 53.4523 18.7511 52.5673 18.7511C51.4353 18.7511 50.5213 18.4321 49.8253 17.7791C49.1293 17.1261 48.7803 16.2701 48.7803 15.2111C48.7803 14.1521 49.1283 13.3101 49.8253 12.6571C50.5213 12.0041 51.4363 11.6851 52.5673 11.6851C53.6993 11.6851 54.6133 12.0041 55.3093 12.6431C55.9913 13.2811 56.3393 14.1371 56.3393 15.1971V15.4001H49.7953C49.8533 16.1981 50.1143 16.8221 50.5933 17.2571C51.0723 17.6921 51.7393 17.9101 52.5663 17.9101C53.1753 17.9101 53.6833 17.7791 54.1183 17.5181C54.5393 17.2571 54.8433 16.8941 55.0183 16.4151H56.0773L56.0783 16.4011ZM49.8253 14.6601H55.2953C55.2373 14.0071 54.9763 13.4701 54.4683 13.0781C53.9753 12.6861 53.3363 12.4831 52.5823 12.4831C51.8283 12.4831 51.1753 12.6861 50.6673 13.0781C50.1733 13.4841 49.8833 14.0071 49.8253 14.6601Z" fill="white"/>
<path d="M57.457 18.5051V11.9031H58.357V13.1221C58.705 12.6721 59.126 12.3391 59.619 12.1061C60.127 11.8741 60.693 11.7581 61.317 11.7581C62.26 11.7581 62.942 11.9611 63.392 12.3531C63.827 12.7451 64.059 13.3691 64.059 14.2251V18.4911H63.145V14.7911C63.145 13.9491 63 13.3691 62.695 13.0351C62.405 12.7011 61.897 12.5421 61.172 12.5421C60.359 12.5421 59.692 12.7451 59.17 13.1511C58.648 13.5571 58.386 14.0941 58.386 14.7331V18.4911H57.457V18.5051Z" fill="white"/>
<path d="M71.1096 14.9211C70.9356 15.0081 70.6886 15.0951 70.3406 15.1681C70.0066 15.2411 69.4406 15.3281 68.6716 15.4441C67.6416 15.5891 67.0026 15.7491 66.7276 15.9231C66.4516 16.0971 66.3216 16.3581 66.3216 16.7071C66.3216 17.0551 66.4816 17.3451 66.8146 17.5631C67.1486 17.7811 67.5836 17.8821 68.1496 17.8821C69.0206 17.8821 69.7316 17.6931 70.2826 17.3161C70.8336 16.9391 71.1096 16.4451 71.1096 15.8361V14.9211ZM72.8366 17.6631V18.4171C72.6916 18.4611 72.5606 18.4901 72.4306 18.5041C72.3006 18.5181 72.1836 18.5331 72.0676 18.5331C71.7486 18.5331 71.5306 18.4601 71.3856 18.3011C71.2406 18.1411 71.1536 17.8801 71.1246 17.4881C70.7326 17.8941 70.2976 18.1991 69.8186 18.3881C69.3396 18.5771 68.7596 18.6641 68.0776 18.6641C67.2216 18.6641 66.5546 18.4901 66.0896 18.1421C65.6256 17.7941 65.3936 17.3001 65.3936 16.6771C65.3936 16.3871 65.4516 16.1261 65.5826 15.8791C65.7136 15.6471 65.8876 15.4441 66.1486 15.2701C66.3516 15.1391 66.6126 15.0231 66.9466 14.9361C67.2806 14.8491 67.8606 14.7471 68.6586 14.6461C68.8326 14.6311 69.0796 14.6021 69.3836 14.5591C70.5296 14.4281 71.1106 14.1241 71.1106 13.6161C71.1106 13.2531 70.9366 12.9781 70.6176 12.7891C70.2836 12.6001 69.7906 12.5131 69.1526 12.5131C68.3396 12.5131 67.7306 12.6441 67.3096 12.8901C66.8886 13.1511 66.6566 13.5281 66.6276 14.0361H65.7136C65.7716 13.2671 66.0766 12.6871 66.6276 12.2951C67.1786 11.9181 67.9916 11.7151 69.0506 11.7151C69.7326 11.7151 70.2696 11.7731 70.6906 11.9041C71.1116 12.0351 71.4306 12.2381 71.6776 12.5131C71.8226 12.6871 71.9246 12.8761 71.9966 13.0931C72.0546 13.3111 72.0836 13.6591 72.0836 14.1091V17.0401C72.0836 17.3301 72.1126 17.5191 72.1706 17.5911C72.2286 17.6641 72.3306 17.7071 72.4756 17.7071C72.5336 17.7071 72.6066 17.7071 72.6786 17.6921C72.7056 17.7071 72.7786 17.6921 72.8366 17.6631Z" fill="white"/>
<path d="M95.0362 8.42102C95.9502 8.42102 96.6612 9.13201 96.6612 10.017C96.6612 10.902 95.9502 11.628 95.0212 11.628C94.0922 11.628 93.3672 10.932 93.3672 10.017C93.3822 9.13201 94.1072 8.42102 95.0362 8.42102ZM95.0072 8.74002C94.3112 8.74002 93.7742 9.32001 93.7742 10.017C93.7742 10.714 94.2962 11.294 95.0222 11.294C95.7182 11.309 96.2412 10.728 96.2412 10.017C96.2552 9.30601 95.7322 8.74002 95.0072 8.74002ZM94.7752 10.844H94.3982V9.26201C94.5432 9.23301 94.7462 9.20401 95.0072 9.20401C95.3122 9.20401 95.4422 9.24802 95.5582 9.33502C95.6452 9.40802 95.7182 9.52401 95.7182 9.68301C95.7182 9.87201 95.5872 10.002 95.3842 10.06V10.075C95.5442 10.119 95.6312 10.249 95.6742 10.467C95.7182 10.714 95.7472 10.815 95.7902 10.859H95.3842C95.3402 10.801 95.3112 10.67 95.2532 10.482C95.2242 10.308 95.1222 10.235 94.9192 10.235H94.7452V10.844H94.7752ZM94.7752 9.94402H94.9492C95.1522 9.94402 95.3262 9.87102 95.3262 9.71202C95.3262 9.56702 95.2242 9.46501 94.9782 9.46501C94.8762 9.46501 94.8182 9.48001 94.7752 9.48001V9.94402Z" fill="white"/>
<path d="M73.9971 17.199H75.1001V18.606H73.9971V17.199Z" fill="white"/>
<path d="M87.4912 14.3841C87.4912 13.1651 86.8822 12.5411 85.5032 12.5411C84.0382 12.5411 83.2252 13.3831 83.2252 14.6881V18.6351H82.2822V14.1231C82.2822 13.2811 81.6732 12.5561 80.3812 12.5561C79.0172 12.5561 78.0162 13.3391 78.0162 14.8771V18.6351H77.0732V11.9611H78.0162V13.1941H78.0452C78.4372 12.4831 79.1622 11.7581 80.6862 11.7581C82.2102 11.7581 82.8772 12.5561 83.0802 13.2231C83.3992 12.5561 84.3572 11.7581 85.6922 11.7581C87.5642 11.7581 88.4342 12.7011 88.4342 14.0791V18.6351H87.4912V14.3841Z" fill="white"/>
<path d="M90.5383 9.828H91.4813V11.932H93.3673V12.657H91.4813V17.068C91.4813 17.648 91.6553 17.91 92.4243 17.91C92.8883 17.91 93.1783 17.866 93.3673 17.837V18.635C93.0043 18.693 92.6423 18.708 92.3223 18.708C90.8423 18.708 90.5233 18.128 90.5233 17.054V12.658H89.0723V11.933H90.5233V9.82899L90.5383 9.828Z" fill="white"/>
</svg>
