<svg width="71" height="23" viewBox="0 0 71 23" fill="none" xmlns="http://www.w3.org/2000/svg">
<path d="M38.7093 18.642C38.8343 18.537 38.8973 18.395 38.8973 18.216C38.8973 18.016 38.8393 17.871 38.7233 17.781C38.6073 17.69 38.4303 17.645 38.1933 17.645H37.4863V18.8H38.2083C38.4173 18.799 38.5843 18.747 38.7093 18.642Z" fill="white"/>
<path d="M16.1094 19.5391H17.3414L16.7244 17.8441L16.1094 19.5391Z" fill="white"/>
<path d="M38.2823 19.183H37.4863V20.487H38.2753C38.4973 20.487 38.6733 20.429 38.8013 20.314C38.9303 20.199 38.9943 20.04 38.9943 19.838C38.9943 19.401 38.7573 19.183 38.2823 19.183Z" fill="white"/>
<path d="M5.44345 19.183H4.64746V20.487H5.43646C5.65846 20.487 5.83446 20.429 5.96246 20.314C6.09146 20.199 6.15546 20.04 6.15546 19.838C6.15546 19.401 5.91845 19.183 5.44345 19.183Z" fill="white"/>
<path d="M5.87045 18.642C5.99545 18.537 6.05846 18.395 6.05846 18.216C6.05846 18.016 6.00046 17.871 5.88446 17.781C5.76846 17.69 5.59146 17.645 5.35446 17.645H4.64746V18.8H5.36845C5.57845 18.799 5.74545 18.747 5.87045 18.642Z" fill="white"/>
<path d="M0.357422 15.277V22.782H70.1344V15.277H0.357422ZM6.32043 20.599C6.10943 20.784 5.81242 20.878 5.42642 20.878H4.16943V17.254H5.35443C5.74743 17.254 6.04342 17.335 6.24142 17.498C6.43942 17.66 6.53842 17.901 6.53842 18.22C6.53842 18.389 6.49042 18.539 6.39442 18.669C6.29842 18.799 6.16743 18.9 6.00143 18.971C6.19743 19.026 6.35142 19.13 6.46542 19.283C6.57942 19.437 6.63542 19.62 6.63542 19.832C6.63642 20.158 6.53043 20.413 6.32043 20.599ZM9.77243 20.877H7.47043V17.253H9.74742V17.644H7.94843V18.812H9.51843V19.203H7.94843V20.487H9.77243V20.877ZM12.5254 20.177C12.7114 20.417 12.9624 20.537 13.2794 20.537C13.4584 20.537 13.6154 20.517 13.7494 20.477C13.8834 20.438 13.9944 20.371 14.0834 20.276V19.464H13.2444V19.073H14.5584V20.402C14.4354 20.578 14.2644 20.71 14.0444 20.797C13.8244 20.884 13.5684 20.928 13.2764 20.928C12.9814 20.928 12.7194 20.859 12.4894 20.72C12.2604 20.581 12.0834 20.385 11.9584 20.129C11.8334 19.873 11.7684 19.577 11.7654 19.24V18.924C11.7654 18.378 11.8924 17.955 12.1474 17.655C12.4024 17.355 12.7604 17.204 13.2214 17.204C13.5994 17.204 13.9044 17.301 14.1354 17.494C14.3664 17.688 14.5064 17.962 14.5584 18.317H14.0804C13.9904 17.836 13.7054 17.595 13.2244 17.595C12.9044 17.595 12.6614 17.708 12.4964 17.933C12.3314 18.158 12.2474 18.484 12.2464 18.911V19.207C12.2464 19.613 12.3394 19.937 12.5254 20.177ZM17.8294 20.878L17.4834 19.93H15.9654L15.6244 20.878H15.1314L16.5144 17.254H16.9324L18.3184 20.878H17.8294ZM22.5414 20.878H22.0634V19.467L22.1084 17.944L20.9184 20.878H20.5524L19.3654 17.951L19.4124 19.466V20.877H18.9344V17.253H19.5514L20.7364 20.209L21.9214 17.253H22.5414V20.878ZM24.0244 20.877H23.5464V17.253H24.0244V20.877ZM27.8104 20.878H27.3304L25.5064 18.086V20.878H25.0264V17.254H25.5064L27.3364 20.059V17.254H27.8114V20.878H27.8104ZM29.4284 20.177C29.6144 20.417 29.8654 20.537 30.1824 20.537C30.3614 20.537 30.5184 20.517 30.6524 20.477C30.7864 20.438 30.8974 20.371 30.9854 20.276V19.464H30.1464V19.073H31.4604V20.402C31.3374 20.578 31.1664 20.71 30.9464 20.797C30.7264 20.884 30.4704 20.928 30.1784 20.928C29.8834 20.928 29.6214 20.859 29.3914 20.72C29.1624 20.581 28.9854 20.385 28.8604 20.129C28.7354 19.873 28.6704 19.577 28.6674 19.24V18.924C28.6674 18.378 28.7944 17.955 29.0494 17.655C29.3044 17.355 29.6614 17.204 30.1234 17.204C30.5014 17.204 30.8064 17.301 31.0374 17.494C31.2674 17.688 31.4084 17.962 31.4604 18.317H30.9824C30.8924 17.836 30.6074 17.595 30.1264 17.595C29.8064 17.595 29.5634 17.708 29.3984 17.933C29.2334 18.158 29.1494 18.484 29.1484 18.911V19.207C29.1494 19.613 29.2424 19.937 29.4284 20.177ZM34.7134 19.056C34.7134 19.2 34.6674 19.318 34.5764 19.409C34.4854 19.5 34.3614 19.546 34.2054 19.546C34.0514 19.546 33.9274 19.5 33.8354 19.408C33.7434 19.316 33.6974 19.197 33.6974 19.051V18.957C33.6974 18.813 33.7434 18.694 33.8354 18.601C33.9274 18.508 34.0494 18.461 34.2024 18.461C34.3534 18.461 34.4764 18.507 34.5704 18.597C34.6654 18.688 34.7124 18.81 34.7124 18.964L34.7134 19.056ZM39.1584 20.599C38.9474 20.784 38.6504 20.878 38.2654 20.878H37.0084V17.254H38.1934C38.5864 17.254 38.8824 17.335 39.0804 17.498C39.2794 17.66 39.3784 17.901 39.3784 18.22C39.3784 18.389 39.3304 18.539 39.2344 18.669C39.1384 18.799 39.0074 18.9 38.8414 18.971C39.0374 19.026 39.1924 19.13 39.3054 19.283C39.4184 19.437 39.4754 19.62 39.4754 19.832C39.4744 20.158 39.3694 20.413 39.1584 20.599ZM42.6104 20.877H40.3084V17.253H42.5854V17.644H40.7854V18.812H42.3554V19.203H40.7854V20.487H42.6094V20.877H42.6104ZM47.8354 20.877H47.4004L46.6544 18.237L46.5964 17.96L46.5394 18.237L45.7654 20.877H45.3304L44.4544 17.254H44.9324L45.5044 19.735L45.5744 20.213L45.6764 19.783L46.3934 17.254H46.7964L47.4964 19.783L47.5964 20.221L47.6734 19.733L48.2364 17.255H48.7164L47.8354 20.877ZM49.8844 20.877H49.4064V17.253H49.8844V20.877ZM53.6694 20.878H53.1894L51.3654 18.086V20.878H50.8854V17.254H51.3654L53.1944 20.059V17.254H53.6694V20.878ZM57.4304 20.878H56.9504L55.1264 18.086V20.878H54.6464V17.254H55.1264L56.9554 20.059V17.254H57.4304V20.878ZM58.9194 20.877H58.4414V17.253H58.9194V20.877ZM62.7054 20.878H62.2254L60.4014 18.086V20.878H59.9214V17.254H60.4014L62.2314 20.059V17.254H62.7064L62.7054 20.878ZM64.3224 20.177C64.5084 20.417 64.7594 20.537 65.0764 20.537C65.2554 20.537 65.4124 20.517 65.5464 20.477C65.6814 20.438 65.7924 20.371 65.8804 20.276V19.464H65.0414V19.073H66.3554V20.402C66.2324 20.578 66.0614 20.71 65.8414 20.797C65.6214 20.884 65.3654 20.928 65.0734 20.928C64.7784 20.928 64.5164 20.859 64.2874 20.72C64.0584 20.581 63.8814 20.385 63.7564 20.129C63.6314 19.873 63.5664 19.577 63.5634 19.24V18.924C63.5634 18.378 63.6904 17.955 63.9454 17.655C64.1994 17.355 64.5574 17.204 65.0194 17.204C65.3974 17.204 65.7024 17.301 65.9324 17.494C66.1624 17.688 66.3044 17.962 66.3554 18.317H65.8774C65.7874 17.836 65.5024 17.595 65.0214 17.595C64.7014 17.595 64.4584 17.708 64.2934 17.933C64.1284 18.158 64.0444 18.484 64.0434 18.911V19.207C64.0444 19.613 64.1374 19.937 64.3224 20.177Z" fill="white"/>
<path d="M30.4321 0.936035H29.873V12.978H30.4321V0.936035Z" fill="white"/>
<path d="M20.8031 0.936035H20.2441V12.978H20.8031V0.936035Z" fill="white"/>
<path d="M1.45508 12.979H11.0461V0.936035H1.45508V12.979ZM3.63908 2.94104H5.99507C6.82807 2.94104 7.47008 3.11904 7.93408 3.48804C8.39808 3.85704 8.63608 4.40404 8.63608 5.13004C8.63608 5.51104 8.55308 5.85604 8.38608 6.15304C8.20808 6.45104 7.95808 6.66504 7.61208 6.82004C8.04108 6.91504 8.35008 7.12904 8.55208 7.46304C8.75408 7.79604 8.86107 8.17704 8.86107 8.62904C8.86107 9.39004 8.63508 9.97404 8.19508 10.378C7.75508 10.77 7.13608 10.973 6.31508 10.973H3.63808V2.94104H3.63908Z" fill="white"/>
<path d="M6.69682 6.04701C6.86282 5.86901 6.94682 5.61902 6.94682 5.27402C6.94682 4.90502 6.86381 4.63102 6.68481 4.45302C6.50681 4.27502 6.24482 4.19202 5.88782 4.19202H5.09082V6.33401H5.95982C6.27982 6.32101 6.52982 6.22501 6.69682 6.04701Z" fill="white"/>
<path d="M7.18484 8.61706C7.18484 8.23606 7.11384 7.93906 6.98184 7.73606C6.83884 7.52206 6.61285 7.42706 6.30385 7.42706H5.08984V9.71206H6.19585C6.52885 9.71206 6.77885 9.61706 6.94585 9.43806C7.10085 9.24806 7.18484 8.98606 7.18484 8.61706Z" fill="white"/>
<path d="M69.0356 0.936035H68.4766V12.978H69.0356V0.936035Z" fill="white"/>
<path d="M59.4174 0.936035H58.8584V12.978H59.4174V0.936035Z" fill="white"/>
<path d="M40.0861 0.936035H39.5391V12.978H40.0861V0.936035Z" fill="white"/>
<path d="M49.7338 0.936035H49.1738V12.978H49.7338V0.936035Z" fill="white"/>
<path d="M18.2283 9.82502C18.0493 10.146 17.7523 10.444 17.3353 10.694C16.9193 10.956 16.3953 11.086 15.7523 11.086C14.9073 11.086 14.2293 10.824 13.7173 10.313C13.2053 9.81303 12.9443 9.07603 12.9443 8.13503V5.75502C12.9443 4.82702 13.1943 4.10102 13.6823 3.60102C14.1703 3.08902 14.8123 2.82703 15.6223 2.82703C16.4433 2.82703 17.0743 3.04102 17.5023 3.44602C17.9423 3.86202 18.1683 4.44602 18.2043 5.18302L18.1923 5.21902H17.1333C17.1093 4.71902 16.9783 4.33903 16.7283 4.07703C16.4903 3.80303 16.1213 3.67202 15.6333 3.67202C15.1453 3.67202 14.7643 3.85102 14.4793 4.20802C14.1933 4.55302 14.0633 5.06502 14.0633 5.74302V8.13503C14.0633 8.81302 14.2063 9.33702 14.5153 9.69402C14.8133 10.063 15.2293 10.241 15.7523 10.241C16.1333 10.241 16.4303 10.17 16.6453 10.039C16.8473 9.90802 17.0143 9.74102 17.1093 9.53902V7.71803H15.7413V6.90902H18.2283V9.82502ZM25.8973 2.94702H24.8263L22.3513 10.967H23.4933L24.0763 8.94402H26.6343L27.2173 10.967H28.3473L25.8973 2.94702ZM24.3263 8.06403L25.3373 4.55402H25.3733L26.3733 8.06403H24.3263ZM31.6623 2.94702V10.967H32.7683V7.88503L32.6733 4.80302H32.6973L34.6253 10.967H35.3633L37.2913 4.79102L37.3273 4.80302L37.2323 7.88503V10.967H38.3393V2.94702H36.8993L35.0193 9.49202H34.9833L33.1033 2.94702H31.6623ZM46.4863 4.05402V2.94702H42.7163V4.05402H44.0483V9.86102H42.7163V10.967H44.0483H45.1553H46.4873V9.86102H45.1553V4.05402H46.4863ZM56.9363 2.94702H55.8293V8.88503L55.7933 8.89703L52.7473 2.94702H51.6283V10.967H52.7473V5.00502H52.7823L55.8283 10.967H56.9353V2.94702H56.9363ZM66.5363 9.83102V6.90402H64.0373V7.72502H65.4173V9.54602C65.3103 9.74802 65.1553 9.91502 64.9413 10.046C64.7273 10.177 64.4293 10.236 64.0493 10.236C63.5253 10.236 63.1213 10.058 62.8113 9.70102C62.5133 9.34402 62.3593 8.82102 62.3593 8.13002V5.73802C62.3593 5.07102 62.5023 4.56003 62.7873 4.20303C63.0733 3.85803 63.4533 3.67902 63.9413 3.67902C64.4293 3.67902 64.7863 3.81002 65.0363 4.07202C65.2743 4.33402 65.4173 4.71502 65.4293 5.22702H66.4883L66.5003 5.19102C66.4643 4.44102 66.2383 3.87003 65.8103 3.45403C65.3693 3.03803 64.7393 2.83502 63.9303 2.83502C63.1213 2.83502 62.4663 3.08502 61.9783 3.59702C61.4903 4.10802 61.2403 4.83402 61.2403 5.76302V8.14302C61.2403 9.08302 61.5023 9.80902 62.0143 10.321C62.5263 10.833 63.2163 11.082 64.0493 11.082C64.6923 11.082 65.2273 10.963 65.6313 10.701C66.0483 10.438 66.3463 10.152 66.5363 9.83102Z" fill="white"/>
</svg>
