<svg width="92" height="16" viewBox="0 0 92 16" fill="none" xmlns="http://www.w3.org/2000/svg">
<path d="M22.9659 2.90298C23.0539 2.70598 23.1739 2.53398 23.3239 2.38698C23.4739 2.24098 23.6489 2.12398 23.8479 2.03898C24.0469 1.95398 24.2569 1.90998 24.4799 1.90998C24.6489 1.90998 24.8099 1.93598 24.9609 1.98698C25.1119 2.03798 25.2549 2.10898 25.3899 2.19998C25.5349 2.29898 25.6959 2.34898 25.8729 2.34898C26.0049 2.34898 26.1219 2.32498 26.2279 2.27798C26.3319 2.23098 26.4249 2.16698 26.5059 2.08698L26.8479 1.74498C26.6819 1.56798 26.5049 1.40798 26.3179 1.26598C26.1309 1.12398 25.9379 1.00298 25.7379 0.90298C25.5379 0.80398 25.3319 0.72698 25.1199 0.67298C24.9079 0.61898 24.6949 0.59298 24.4799 0.59298C24.2089 0.59298 23.9469 0.62698 23.6949 0.69698C23.4429 0.76698 23.2069 0.86598 22.9869 0.99298C22.7669 1.11998 22.5669 1.27298 22.3869 1.45198C22.2069 1.63098 22.0529 1.82898 21.9239 2.04598C21.7949 2.26298 21.6949 2.49798 21.6239 2.74898C21.5529 2.99998 21.5169 3.26098 21.5169 3.53298C21.5169 3.80498 21.5519 4.06498 21.6239 4.31698C21.6949 4.56798 21.7959 4.80298 21.9239 5.01998C22.0529 5.23798 22.2069 5.43598 22.3869 5.61398C22.5669 5.79298 22.7659 5.94598 22.9869 6.07298C23.2069 6.19998 23.4429 6.29898 23.6949 6.36898C23.9469 6.43898 24.2089 6.47298 24.4799 6.47298C24.6949 6.47298 24.9079 6.44598 25.1199 6.39298C25.3319 6.33898 25.5379 6.26298 25.7379 6.16298C25.9379 6.06398 26.1319 5.94298 26.3179 5.79998C26.5039 5.65698 26.6809 5.49798 26.8479 5.32098L26.5059 4.97898C26.4229 4.89598 26.3319 4.83198 26.2319 4.78798C26.1329 4.74398 26.0139 4.72198 25.8739 4.72198C25.6939 4.72198 25.5329 4.77098 25.3909 4.86698C25.2589 4.95498 25.1179 5.02598 24.9659 5.07798C24.8139 5.12998 24.6529 5.15698 24.4799 5.15698C24.2569 5.15698 24.0469 5.11498 23.8479 5.03098C23.6489 4.94598 23.4749 4.82998 23.3239 4.68298C23.1739 4.53498 23.0539 4.36298 22.9659 4.16598C22.8779 3.96898 22.8329 3.75798 22.8329 3.53498C22.8329 3.30998 22.8769 3.09998 22.9659 2.90298ZM27.4619 4.31598C27.5329 4.56698 27.6339 4.80198 27.7619 5.01898C27.8909 5.23698 28.0449 5.43498 28.2249 5.61298C28.4049 5.79198 28.6039 5.94498 28.8249 6.07198C29.0449 6.19898 29.2799 6.29798 29.5319 6.36798C29.7829 6.43798 30.0459 6.47198 30.3189 6.47198C30.5909 6.47198 30.8519 6.43798 31.1039 6.36798C31.3559 6.29798 31.5919 6.19998 31.8119 6.07198C32.0319 5.94498 32.2319 5.79198 32.4119 5.61298C32.5919 5.43398 32.7459 5.23598 32.8749 5.01898C33.0039 4.80098 33.1039 4.56698 33.1749 4.31598C33.2459 4.06498 33.2819 3.80398 33.2819 3.53198C33.2819 3.25998 33.2469 2.99998 33.1749 2.74798C33.1039 2.49698 33.0029 2.26198 32.8749 2.04498C32.7459 1.82698 32.5919 1.62898 32.4119 1.45098C32.2319 1.27198 32.0319 1.11898 31.8119 0.99198C31.5919 0.86498 31.3559 0.76598 31.1039 0.69598C30.8519 0.62598 30.5899 0.59198 30.3189 0.59198C30.0479 0.59198 29.7859 0.62598 29.5339 0.69598C29.2819 0.76598 29.0449 0.86498 28.8259 0.99198C28.6059 1.11898 28.4059 1.27198 28.2259 1.45098C28.0459 1.62998 27.8919 1.82798 27.7629 2.04498C27.6339 2.26298 27.5339 2.49698 27.4629 2.74798C27.3919 2.99898 27.3559 3.25998 27.3559 3.53198C27.3549 3.80398 27.3909 4.06498 27.4619 4.31598ZM28.8049 2.90298C28.8929 2.70598 29.0129 2.53398 29.1629 2.38698C29.3129 2.24098 29.4879 2.12398 29.6869 2.03898C29.8859 1.95298 30.0959 1.90998 30.3189 1.90998C30.5389 1.90998 30.7489 1.95298 30.9499 2.03898C31.1499 2.12498 31.3249 2.24098 31.4749 2.38698C31.6249 2.53298 31.7449 2.70498 31.8329 2.90298C31.9209 3.10098 31.9659 3.31098 31.9659 3.53398C31.9659 3.75698 31.9219 3.96598 31.8329 4.16498C31.7439 4.36398 31.6249 4.53498 31.4749 4.68198C31.3249 4.82898 31.1499 4.94598 30.9499 5.02998C30.7499 5.11398 30.5399 5.15598 30.3189 5.15598C30.0959 5.15598 29.8859 5.11398 29.6869 5.02998C29.4879 4.94498 29.3139 4.82898 29.1629 4.68198C29.0129 4.53398 28.8929 4.36198 28.8049 4.16498C28.7169 3.96798 28.6719 3.75698 28.6719 3.53398C28.6719 3.30998 28.7159 3.09998 28.8049 2.90298ZM39.7419 0.64998H38.4299V4.29498C38.4299 4.28698 38.4259 4.26698 38.4179 4.23498C38.4099 4.20298 38.3979 4.16398 38.3819 4.11998C38.3659 4.07598 38.3479 4.02798 38.3249 3.97698C38.3039 3.92598 38.2779 3.87898 38.2479 3.83598L36.2309 0.87998C36.1769 0.80198 36.1009 0.74498 36.0009 0.70698C35.9019 0.66998 35.7879 0.64998 35.6589 0.64998H34.3629V6.42098H35.6749V2.42998L38.4329 6.41998H39.7419V0.64998ZM66.8809 6.41998H67.7339C67.8169 6.41998 67.8999 6.40798 67.9829 6.38198C68.0659 6.35598 68.1439 6.31998 68.2159 6.27298C68.2889 6.22598 68.3539 6.17098 68.4109 6.10998C68.4679 6.04798 68.5139 5.98098 68.5459 5.90798L68.8199 5.26798H71.1149L71.3969 5.90798C71.4309 5.98798 71.4769 6.05998 71.5339 6.12398C71.5909 6.18698 71.6529 6.24098 71.7229 6.28498C71.7929 6.32898 71.8689 6.36298 71.9499 6.38598C72.0319 6.40898 72.1169 6.41998 72.2059 6.41998H73.0559L70.5349 0.64898H69.3989L66.8809 6.41998ZM69.8569 2.86398C69.8779 2.80998 69.8969 2.75998 69.9109 2.71098C69.9259 2.66198 69.9379 2.61998 69.9449 2.58198C69.9559 2.53598 69.9639 2.49398 69.9689 2.45698C69.9719 2.49498 69.9789 2.53498 69.9889 2.57798C69.9969 2.61598 70.0079 2.65798 70.0209 2.70698C70.0339 2.75598 70.0529 2.80798 70.0779 2.86398L70.5809 4.07198H69.3489L69.8569 2.86398ZM76.0059 6.41998C76.2719 6.41998 76.5289 6.38598 76.7769 6.31698C77.0259 6.24898 77.2569 6.15198 77.4709 6.02698C77.6859 5.90198 77.8819 5.75198 78.0609 5.57598C78.2399 5.39998 78.3919 5.20498 78.5179 4.99198C78.6439 4.77898 78.7419 4.54898 78.8119 4.30298C78.8819 4.05698 78.9159 3.80198 78.9159 3.53598C78.9159 3.26998 78.8809 3.01398 78.8119 2.76898C78.7419 2.52298 78.6439 2.29398 78.5179 2.07998C78.3919 1.86698 78.2389 1.67198 78.0609 1.49598C77.8829 1.31998 77.6859 1.16998 77.4709 1.04298C77.2559 0.91698 77.0239 0.81898 76.7769 0.75098C76.5279 0.68298 76.2719 0.64798 76.0059 0.64798H73.6179V6.41898L76.0059 6.41998ZM74.9349 5.09898V1.97098H76.0059C76.2179 1.97098 76.4199 2.01198 76.6119 2.09398C76.8039 2.17598 76.9729 2.28798 77.1199 2.42998C77.2659 2.57198 77.3829 2.73898 77.4679 2.92998C77.5529 3.12098 77.5969 3.32398 77.5969 3.53798C77.5969 3.75298 77.5539 3.95498 77.4679 4.14598C77.3819 4.33698 77.2659 4.50198 77.1199 4.64298C76.9739 4.78398 76.8039 4.89498 76.6119 4.97698C76.4199 5.05898 76.2179 5.09998 76.0059 5.09998H74.9349V5.09898ZM79.7569 4.31598C79.8279 4.56698 79.9289 4.80198 80.0569 5.01898C80.1859 5.23698 80.3399 5.43498 80.5199 5.61298C80.6999 5.79198 80.8989 5.94498 81.1199 6.07198C81.3409 6.19898 81.5749 6.29798 81.8269 6.36798C82.0779 6.43798 82.3409 6.47198 82.6139 6.47198C82.8849 6.47198 83.1459 6.43798 83.3989 6.36798C83.6509 6.29798 83.8869 6.19998 84.1069 6.07198C84.3269 5.94498 84.5269 5.79198 84.7069 5.61298C84.8869 5.43398 85.0409 5.23598 85.1699 5.01898C85.2989 4.80098 85.3989 4.56698 85.4699 4.31598C85.5409 4.06498 85.5769 3.80398 85.5769 3.53198C85.5769 3.25998 85.5419 2.99998 85.4699 2.74898C85.3989 2.49798 85.2979 2.26298 85.1699 2.04598C85.0409 1.82798 84.8869 1.62998 84.7069 1.45198C84.5269 1.27298 84.3269 1.11998 84.1069 0.99298C83.8869 0.86598 83.6509 0.76698 83.3989 0.69698C83.1469 0.62698 82.8849 0.59298 82.6139 0.59298C82.3429 0.59298 82.0809 0.62698 81.8289 0.69698C81.5769 0.76698 81.3399 0.86598 81.1209 0.99298C80.9009 1.11998 80.7009 1.27298 80.5209 1.45198C80.3409 1.63098 80.1869 1.82898 80.0579 2.04598C79.9289 2.26398 79.8289 2.49798 79.7579 2.74898C79.6869 2.99998 79.6509 3.26098 79.6509 3.53298C79.6509 3.80498 79.6849 4.06498 79.7569 4.31598ZM81.0999 2.90298C81.1879 2.70598 81.3079 2.53398 81.4579 2.38698C81.6079 2.24098 81.7829 2.12398 81.9819 2.03898C82.1809 1.95298 82.3909 1.90998 82.6139 1.90998C82.8339 1.90998 83.0439 1.95298 83.2449 2.03898C83.4449 2.12498 83.6199 2.24098 83.7699 2.38698C83.9199 2.53298 84.0399 2.70498 84.1279 2.90298C84.2159 3.10098 84.2609 3.31098 84.2609 3.53398C84.2609 3.75698 84.2169 3.96598 84.1279 4.16498C84.0389 4.36398 83.9199 4.53498 83.7699 4.68198C83.6199 4.82898 83.4449 4.94598 83.2449 5.02998C83.0449 5.11498 82.8349 5.15598 82.6139 5.15598C82.3909 5.15598 82.1809 5.11398 81.9819 5.02998C81.7829 4.94498 81.6089 4.82898 81.4579 4.68198C81.3079 4.53398 81.1879 4.36198 81.0999 4.16498C81.0119 3.96798 80.9669 3.75698 80.9669 3.53398C80.9669 3.30998 81.0109 3.09998 81.0999 2.90298ZM88.0419 4.66498H88.7629L89.7299 5.97398C89.8029 6.07798 89.8789 6.16098 89.9599 6.21998C90.0399 6.27898 90.1169 6.32298 90.1899 6.35298C90.2629 6.38298 90.3279 6.40198 90.3849 6.40998C90.4419 6.41798 90.4839 6.42198 90.5079 6.42198H90.5319H91.6309L90.0929 4.34498C90.2569 4.22998 90.3959 4.10498 90.5119 3.97298C90.6269 3.83998 90.7219 3.70098 90.7939 3.55598C90.8669 3.41098 90.9199 3.26198 90.9529 3.11098C90.9869 2.95998 91.0029 2.80698 91.0029 2.65398C91.0029 2.49798 90.9839 2.34098 90.9449 2.18298C90.9059 2.02498 90.8489 1.87098 90.7719 1.72198C90.6949 1.57298 90.5999 1.43398 90.4859 1.30298C90.3719 1.17298 90.2399 1.05998 90.0919 0.96498C89.9429 0.86898 89.7759 0.79298 89.5919 0.73798C89.4079 0.68098 89.2069 0.65298 88.9899 0.65298H86.7269V6.42398H88.0439V4.66698H88.0419V4.66498ZM88.0419 3.33998V1.97098H89.0559C89.1359 1.97098 89.2139 1.99098 89.2889 2.03098C89.3639 2.07198 89.4299 2.12398 89.4879 2.18798C89.5449 2.25298 89.5919 2.32598 89.6269 2.40698C89.6619 2.48898 89.6789 2.57098 89.6789 2.65498C89.6789 2.73798 89.6609 2.81998 89.6269 2.90298C89.5929 2.98498 89.5459 3.05798 89.4879 3.12198C89.4309 3.18698 89.3639 3.23898 89.2889 3.27898C89.2139 3.31998 89.1359 3.33898 89.0559 3.33898C89.0559 3.33998 88.0419 3.33998 88.0419 3.33998ZM24.8999 9.57998H23.5649L21.1289 15.834H22.4679L22.9839 14.414H25.4829L26.0289 15.834H27.4019L24.8999 9.57998ZM23.3729 13.359L24.2179 11.038L25.0789 13.359H23.3729ZM29.4839 15.833V13.175H32.0949V12.117H29.4839V10.637H32.5089V9.57898H28.2219V15.833H29.4839ZM34.6229 15.833V13.175H37.2339V12.117H34.6229V10.637H37.6479V9.57898H33.3609V15.833H34.6229ZM39.8829 15.833V9.57898H38.6199V15.833H39.8829ZM45.6619 15.833V14.78H42.5219V9.63098H41.2589V15.833C41.2589 15.833 45.6619 15.833 45.6619 15.833ZM47.7569 15.833V9.57898H46.4939V15.833H47.7569ZM52.0669 9.57998H50.7319L48.2959 15.834H49.6359L50.1519 14.414H52.6509L53.1969 15.834H54.5699L52.0669 9.57998ZM50.5389 13.359L51.3839 11.038L52.2449 13.359H50.5389ZM57.2329 15.833V10.637H59.0839V9.57898H54.1149V10.637H55.9699V15.833H57.2329ZM64.6269 15.833V14.78H61.1339V13.078H64.2739V12.025H61.1339V10.638H64.5079V9.57998H59.8709V15.834L64.6269 15.833ZM66.1079 15.396C66.5319 15.761 67.1389 15.944 67.9299 15.944C68.4729 15.944 68.9269 15.868 69.2909 15.716C69.6549 15.564 69.9369 15.331 70.1359 15.018C70.3349 14.705 70.4349 14.37 70.4349 14.012C70.4349 13.617 70.3519 13.285 70.1859 13.016C70.0199 12.747 69.7889 12.536 69.4949 12.38C69.1999 12.225 68.7469 12.075 68.1319 11.93C67.5169 11.785 67.1309 11.645 66.9719 11.512C66.8459 11.407 66.7839 11.28 66.7839 11.133C66.7839 10.971 66.8499 10.841 66.9849 10.745C67.1929 10.595 67.4789 10.519 67.8459 10.519C68.2019 10.519 68.4679 10.59 68.6449 10.73C68.8219 10.87 68.9389 11.101 68.9929 11.423L70.2559 11.367C70.2359 10.793 70.0279 10.333 69.6309 9.98898C69.2339 9.64498 68.6429 9.47298 67.8589 9.47298C67.3789 9.47298 66.9679 9.54598 66.6279 9.69098C66.2879 9.83598 66.0279 10.047 65.8469 10.324C65.6669 10.602 65.5759 10.899 65.5759 11.217C65.5759 11.711 65.7679 12.131 66.1519 12.475C66.4249 12.72 66.8999 12.926 67.5769 13.093C68.1029 13.224 68.4399 13.315 68.5879 13.366C68.8039 13.443 68.9559 13.533 69.0429 13.637C69.1299 13.741 69.1729 13.867 69.1729 14.015C69.1729 14.245 69.0699 14.447 68.8629 14.618C68.6569 14.79 68.3499 14.876 67.9439 14.876C67.5599 14.876 67.2549 14.78 67.0289 14.586C66.8029 14.392 66.6529 14.09 66.5789 13.678L65.3509 13.797C65.4309 14.498 65.6839 15.031 66.1079 15.396Z" fill="white"/>
<path d="M43.7881 5.15498C43.5651 5.15498 43.3551 5.11298 43.1561 5.02598C42.9571 4.93998 42.7841 4.82298 42.6341 4.67598C42.4851 4.52798 42.3661 4.35698 42.2781 4.15998C42.1901 3.96398 42.1451 3.75498 42.1451 3.53198C42.1451 3.30898 42.1891 3.09998 42.2781 2.90098C42.3661 2.70398 42.4861 2.53198 42.6361 2.38498C42.7861 2.23898 42.9611 2.12198 43.1611 2.03698C43.3611 1.95098 43.5721 1.90798 43.7951 1.90798C44.0151 1.90798 44.2251 1.95098 44.4231 2.03698C44.6221 2.12298 44.7961 2.23898 44.9471 2.38498C45.0971 2.53098 45.2171 2.70298 45.3051 2.90098C45.3931 3.09798 45.4381 3.30898 45.4381 3.53198C45.4381 3.68498 45.4101 3.83798 45.3531 3.99098C45.2961 4.14398 45.2181 4.29098 45.1181 4.42998C45.0171 4.56998 44.8971 4.69898 44.7571 4.81598C44.6171 4.93498 44.4631 5.03198 44.2941 5.10998L45.7041 7.07098C45.8061 7.21298 45.9301 7.32298 46.0781 7.40098C46.2261 7.47898 46.4001 7.51798 46.6021 7.51798H47.6851L46.1031 5.37598C46.3071 5.12398 46.4661 4.83998 46.5821 4.52398C46.6971 4.20798 46.7551 3.87798 46.7551 3.53198C46.7551 3.25998 46.7201 2.99998 46.6481 2.74798C46.5771 2.49698 46.4771 2.26198 46.3501 2.04498C46.2231 1.82798 46.0681 1.62898 45.8871 1.45098C45.7061 1.27198 45.5061 1.11898 45.2871 0.99198C45.0691 0.86498 44.8321 0.76598 44.5801 0.69598C44.3281 0.62598 44.0661 0.59198 43.7951 0.59198C43.5231 0.59198 43.2621 0.62598 43.0081 0.69598C42.7541 0.76598 42.5181 0.86498 42.3001 0.99198C42.0821 1.11898 41.8811 1.27198 41.7001 1.45098C41.5191 1.62998 41.3641 1.82798 41.2351 2.04498C41.1061 2.26298 41.0061 2.49698 40.9351 2.74798C40.8641 2.99898 40.8281 3.25998 40.8281 3.53198C40.8281 3.80398 40.8631 4.06398 40.9351 4.31598C41.0061 4.56698 41.1071 4.80198 41.2351 5.01898C41.3641 5.23698 41.5191 5.43498 41.7001 5.61298C41.8811 5.79198 42.0811 5.94498 42.3001 6.07198C42.5191 6.19898 42.7551 6.29798 43.0071 6.36798C43.2591 6.43798 43.5231 6.47198 43.7961 6.47198C44.0241 6.47198 44.3101 6.42498 44.6541 6.33098L43.7881 5.15498ZM49.0711 0.64998H47.7511V4.09598C47.7511 4.31598 47.7801 4.52798 47.8381 4.72998C47.8951 4.93298 47.9771 5.12198 48.0811 5.29798C48.1851 5.47398 48.3121 5.63398 48.4601 5.77898C48.6081 5.92398 48.7701 6.04798 48.9471 6.15098C49.1241 6.25398 49.3151 6.33398 49.5191 6.39098C49.7231 6.44798 49.9351 6.47598 50.1551 6.47598C50.4881 6.47598 50.8001 6.41298 51.0921 6.28898C51.3831 6.16398 51.6381 5.99398 51.8551 5.77998C52.0721 5.56598 52.2441 5.31398 52.3711 5.02498C52.4971 4.73698 52.5601 4.42698 52.5601 4.09698V0.64998H51.2431V4.09598C51.2431 4.24098 51.2141 4.37798 51.1551 4.50598C51.0961 4.63498 51.0161 4.74698 50.9151 4.84398C50.8141 4.93998 50.6991 5.01698 50.5681 5.07398C50.4381 5.13098 50.3001 5.15898 50.1551 5.15898C50.0101 5.15898 49.8731 5.13098 49.7421 5.07398C49.6121 5.01698 49.4971 4.94098 49.3981 4.84398C49.2991 4.74798 49.2191 4.63398 49.1601 4.50598C49.1011 4.37698 49.0721 4.23998 49.0721 4.09598L49.0711 0.64998ZM57.6841 5.18798H55.1591V4.12498H57.2131V2.89198H55.1591V1.88098H57.6841V0.64998H53.8421V6.42098H57.6841V5.18798ZM60.7211 1.94598C60.7781 1.96698 60.8331 1.99098 60.8901 2.01698C60.9471 2.04298 61.0071 2.06598 61.0711 2.08798C61.1361 2.10898 61.2111 2.11998 61.2971 2.11998C61.4041 2.11998 61.5011 2.10498 61.5891 2.07598C61.6771 2.04698 61.7611 1.99598 61.8411 1.92698L62.2481 1.58498C62.1461 1.46098 62.0321 1.34098 61.9061 1.22198C61.7801 1.10298 61.6441 0.99798 61.4991 0.90598C61.3541 0.81298 61.2001 0.73798 61.0381 0.67998C60.8751 0.62298 60.7081 0.59298 60.5371 0.59298C60.3011 0.59298 60.0711 0.62998 59.8461 0.70398C59.6221 0.77798 59.4221 0.88398 59.2481 1.02398C59.0741 1.16398 58.9331 1.33398 58.8271 1.53798C58.7211 1.74098 58.6681 1.97198 58.6681 2.23198C58.6681 2.50898 58.7161 2.73998 58.8111 2.92598C58.9071 3.11298 59.0301 3.27098 59.1831 3.40098C59.3361 3.53098 59.5091 3.64098 59.7021 3.72898C59.8961 3.81698 60.0911 3.89998 60.2901 3.97498C60.4111 4.02398 60.5261 4.06498 60.6371 4.09998C60.7471 4.13398 60.8441 4.17298 60.9291 4.21498C61.0141 4.25698 61.0801 4.30498 61.1311 4.36198C61.1811 4.41898 61.2051 4.49098 61.2051 4.57998C61.2051 4.67398 61.1781 4.75698 61.1251 4.82798C61.0711 4.89898 61.0041 4.95898 60.9221 5.00798C60.8401 5.05698 60.7511 5.09298 60.6561 5.11898C60.5611 5.14498 60.4731 5.15698 60.3921 5.15698C60.2711 5.15698 60.1641 5.13298 60.0701 5.08398C59.9761 5.03498 59.8851 4.98298 59.7961 4.92698C59.7081 4.86998 59.6161 4.81798 59.5241 4.76998C59.4311 4.72098 59.3281 4.69698 59.2121 4.69698C59.1341 4.69698 59.0571 4.70798 58.9801 4.73098C58.9031 4.75398 58.8311 4.78398 58.7641 4.82098L58.3451 5.06198C58.4201 5.26598 58.5251 5.45498 58.6591 5.62798C58.7931 5.80098 58.9501 5.94998 59.1281 6.07498C59.3071 6.19998 59.5021 6.29698 59.7161 6.36698C59.9301 6.43698 60.1551 6.47098 60.3911 6.47098C60.6681 6.47098 60.9351 6.42498 61.1921 6.33198C61.4491 6.23898 61.6781 6.10998 61.8751 5.94398C62.0721 5.77798 62.2301 5.57798 62.3481 5.34598C62.4671 5.11398 62.5251 4.85798 62.5251 4.57898C62.5251 4.35298 62.4891 4.14898 62.4161 3.96698C62.3431 3.78498 62.2421 3.61998 62.1121 3.47398C61.9821 3.32798 61.8251 3.19998 61.6411 3.09098C61.4571 2.98198 61.2541 2.88998 61.0311 2.81498C60.8571 2.75598 60.7041 2.70798 60.5741 2.67198C60.4441 2.63598 60.3351 2.59898 60.2481 2.56298C60.1611 2.52698 60.0961 2.48398 60.0531 2.43698C60.0101 2.38798 59.9881 2.32198 59.9881 2.23498C59.9881 2.17798 60.0031 2.13098 60.0341 2.08998C60.0651 2.04898 60.1061 2.01698 60.1571 1.98898C60.2081 1.96198 60.2671 1.94298 60.3321 1.93098C60.3971 1.91898 60.4661 1.91298 60.5351 1.91298C60.6021 1.91398 60.6641 1.92498 60.7211 1.94598ZM64.5261 1.87798V6.41998H65.8431V1.87798H67.4461V0.64598H62.9201V1.87798H64.5261Z" fill="white"/>
<path d="M8.01479 15.239L7.02679 13.099C6.17779 12.962 5.3928 12.635 4.7158 12.162H3.52679V11.042C2.96779 10.337 2.57479 9.49397 2.40679 8.57397L0.466797 7.69197L2.36179 6.83397C2.49579 5.80097 2.90879 4.85597 3.52579 4.07897V3.06297H4.5698C5.3168 2.50497 6.2078 2.12997 7.1768 2.00197L8.0138 0.146973L8.86579 2.03197C9.75979 2.18297 10.5828 2.54397 11.2788 3.06497H12.3798V4.15397C12.9458 4.89197 13.3318 5.77397 13.4748 6.73597L15.5608 7.69497L13.4228 8.68197C13.2508 9.53097 12.8878 10.309 12.3798 10.972V12.165H11.1358C11.1328 12.167 11.1308 12.169 11.1278 12.171L10.8818 11.855C10.8778 11.854 10.8738 11.853 10.8698 11.853L9.7828 10.456L9.77979 10.458L8.87179 9.29097L8.8838 9.28397C9.4838 8.94497 9.88979 8.30097 9.88979 7.56497C9.88979 7.02097 9.66879 6.52797 9.31179 6.16997C8.95479 5.81297 8.4608 5.59197 7.9168 5.59197C7.3728 5.59197 6.8798 5.81297 6.5218 6.16997C6.1638 6.52697 5.94379 7.02097 5.94379 7.56497C5.94379 8.63697 6.8038 9.51197 7.8688 9.53697H7.87379L8.9038 10.862L8.88679 10.867C8.57879 10.957 8.25279 11.006 7.91579 11.006C6.01479 11.006 4.4748 9.46497 4.4748 7.56497C4.4748 5.66497 6.01579 4.12197 7.91579 4.12197C9.81579 4.12197 11.3568 5.66297 11.3568 7.56297C11.3568 8.24097 11.1608 8.87497 10.8208 9.40797L11.5228 10.311C12.1248 9.52597 12.4528 8.57097 12.4528 7.56397C12.4528 6.35397 11.9818 5.21797 11.1258 4.36197C10.2708 3.50697 9.1328 3.03497 7.9248 3.03497C6.7398 3.03497 5.62479 3.48797 4.77579 4.31097V4.31897H4.76679C4.75279 4.33297 4.7378 4.34597 4.7228 4.36097C3.8678 5.21597 3.39579 6.35397 3.39579 7.56297C3.39579 8.77297 3.8668 9.90897 4.7228 10.765C5.5788 11.621 6.7158 12.092 7.9248 12.092C8.5078 12.092 9.07279 11.982 9.59879 11.774L10.2848 12.656C9.8868 12.841 9.46279 12.979 9.02079 13.066L8.01479 15.239Z" fill="white"/>
</svg>
