<svg width="86" height="41" viewBox="0 0 86 41" fill="none" xmlns="http://www.w3.org/2000/svg">
<path d="M5.87099 31.6742V32.6592C5.35999 32.9662 4.72398 33.1202 3.96398 33.1202C2.93498 33.1202 2.15799 32.7292 1.63299 31.9472C1.18399 31.2772 0.958984 30.3792 0.958984 29.2552C0.958984 28.2422 1.15599 27.4252 1.54999 26.8042C2.03399 26.0422 2.77598 25.6622 3.77798 25.6622C4.55198 25.6622 5.14898 25.8612 5.57098 26.2592C5.96398 26.6292 6.16099 27.1212 6.16099 27.7362H4.83498C4.83498 27.3592 4.76198 27.0452 4.61698 26.7932C4.41698 26.4582 4.10598 26.2912 3.68398 26.2912C3.11098 26.2912 2.69699 26.6262 2.44099 27.2962C2.26199 27.7722 2.17098 28.3612 2.17098 29.0672C2.17098 31.2672 2.83099 32.3672 4.14999 32.3672C4.69699 32.3662 5.26999 32.1362 5.87099 31.6742Z" fill="white"/>
<path d="M8.83418 33.1203C7.38418 33.1203 6.65918 32.2513 6.65918 30.5113C6.65918 28.7723 7.38418 27.9033 8.83418 27.9033C10.2912 27.9033 11.0192 28.7723 11.0192 30.5113C11.0192 32.2513 10.2902 33.1203 8.83418 33.1203ZM7.79819 30.5123C7.79819 31.9583 8.14318 32.6813 8.83418 32.6813C9.53118 32.6813 9.88019 31.9583 9.88019 30.5123C9.88019 29.0663 9.53218 28.3443 8.83418 28.3443C8.14218 28.3443 7.79819 29.0663 7.79819 30.5123Z" fill="white"/>
<path d="M12.2002 33.0053V28.0193H13.2462V29.2873C13.4552 28.8613 13.6522 28.5573 13.8342 28.3753C14.1072 28.0963 14.4492 27.9383 14.8622 27.9043V29.0043C14.3172 29.0173 13.9232 29.1403 13.6812 29.3713C13.3912 29.6363 13.2462 30.0863 13.2462 30.7223V33.0063L12.2002 33.0053Z" fill="white"/>
<path d="M15.8467 35.2473V28.0183H16.8927V28.8353C17.1637 28.2133 17.5917 27.9033 18.1757 27.9033C19.4277 27.9033 20.0527 28.7723 20.0527 30.5113C20.0527 31.3073 19.9067 31.9293 19.6147 32.3763C19.2877 32.8723 18.8077 33.1203 18.1747 33.1203C17.6047 33.1203 17.1777 32.8513 16.8917 32.3133V35.2463L15.8467 35.2473ZM16.9347 30.5123C16.9347 31.8463 17.2627 32.5133 17.9187 32.5133C18.5817 32.5133 18.9127 31.8463 18.9127 30.5123C18.9127 29.2203 18.5817 28.5743 17.9187 28.5743C17.2627 28.5743 16.9347 29.2203 16.9347 30.5123Z" fill="white"/>
<path d="M23.0471 33.1203C21.5961 33.1203 20.8711 32.2513 20.8711 30.5113C20.8711 28.7723 21.5961 27.9033 23.0471 27.9033C24.5041 27.9033 25.2321 28.7723 25.2321 30.5113C25.2331 32.2513 24.5041 33.1203 23.0471 33.1203ZM22.0121 30.5123C22.0121 31.9583 22.3561 32.6813 23.0481 32.6813C23.7451 32.6813 24.0941 31.9583 24.0941 30.5123C24.0941 29.0663 23.7461 28.3443 23.0481 28.3443C22.3561 28.3443 22.0121 29.0663 22.0121 30.5123Z" fill="white"/>
<path d="M26.4141 33.0053V28.0193H27.4601V29.2873C27.6691 28.8613 27.8651 28.5573 28.0481 28.3753C28.3211 28.0963 28.6631 27.9383 29.0761 27.9043V29.0043C28.5301 29.0173 28.1371 29.1403 27.8951 29.3713C27.6041 29.6363 27.4601 30.0863 27.4601 30.7223V33.0063L26.4141 33.0053Z" fill="white"/>
<path d="M32.505 33.0053V32.3143C32.199 32.8513 31.732 33.1203 31.106 33.1203C30.717 33.1203 30.393 33.0003 30.136 32.7593C29.878 32.5183 29.75 32.2233 29.75 31.8733C29.75 30.8673 30.668 30.3193 32.505 30.2293V29.7893C32.505 29.3633 32.477 29.0533 32.422 28.8573C32.319 28.5153 32.115 28.3433 31.811 28.3433C31.521 28.3433 31.313 28.4513 31.189 28.6683C31.098 28.8293 31.04 29.0843 31.012 29.4333H29.914C29.983 28.4133 30.615 27.9043 31.81 27.9043C32.535 27.9043 33.025 28.0963 33.281 28.4803C33.46 28.7463 33.55 29.1833 33.55 29.7903V33.0073H32.505V33.0053ZM32.505 31.2563V30.6693C31.428 30.7463 30.889 31.0953 30.889 31.7173C30.889 31.9413 30.946 32.1203 31.059 32.2573C31.174 32.3933 31.316 32.4613 31.49 32.4613C31.717 32.4613 31.931 32.3663 32.132 32.1783C32.381 31.9473 32.505 31.6403 32.505 31.2563Z" fill="white"/>
<path d="M37.6441 32.4393V33.0473C37.4511 33.0963 37.2092 33.1203 36.9192 33.1203C36.4012 33.1203 36.0192 33.0283 35.7682 32.8473C35.4992 32.6453 35.3652 32.3133 35.3652 31.8523V28.5633H34.5771V28.0183H35.3652V26.8453L36.4111 26.2063V28.0183H37.7581V28.5633H36.4111V31.4333C36.4111 31.8383 36.4522 32.1103 36.5352 32.2503C36.6322 32.4323 36.8392 32.5223 37.1572 32.5223C37.3502 32.5233 37.5131 32.4953 37.6441 32.4393Z" fill="white"/>
<path d="M42.2341 32.3563V32.8373C41.7711 33.0253 41.2911 33.1203 40.7931 33.1203C40.0611 33.1203 39.4811 32.9003 39.0531 32.4603C38.5701 31.9713 38.3281 31.2483 38.3281 30.2913C38.3281 28.6993 39.0281 27.9033 40.4311 27.9033C41.6961 27.9033 42.3271 28.5833 42.3271 29.9453H39.3751C39.3751 30.5813 39.5091 31.1393 39.7791 31.6223C40.1241 32.2503 40.6291 32.5643 41.2911 32.5643C41.6221 32.5653 41.9371 32.4953 42.2341 32.3563ZM39.4051 29.4643H41.3011C41.3011 29.1853 41.2471 28.9503 41.1351 28.7623C40.9831 28.4833 40.7351 28.3423 40.3891 28.3423C40.0431 28.3423 39.7801 28.4933 39.6011 28.7933C39.4921 28.9903 39.4251 29.2133 39.4051 29.4643Z" fill="white"/>
<path d="M48.449 28.8673V32.4293C47.703 32.8903 46.96 33.1203 46.222 33.1203C45.186 33.1203 44.409 32.7363 43.891 31.9683C43.435 31.2983 43.208 30.3793 43.208 29.2133C43.208 26.8453 44.133 25.6613 45.985 25.6613C47.524 25.6613 48.347 26.3423 48.45 27.7043H47.124C47.124 26.7613 46.744 26.2893 45.985 26.2893C44.942 26.2893 44.421 27.2633 44.421 29.2123C44.421 31.3973 45.062 32.4913 46.347 32.4913C46.747 32.4913 47.069 32.3683 47.311 32.1243V29.5573H45.891V28.8663H48.449V28.8673Z" fill="white"/>
<path d="M49.8379 25.7772H50.9669V26.8252H49.8379V25.7772ZM49.8789 28.0182H50.9259V33.0052H49.8789V28.0182Z" fill="white"/>
<path d="M52.8834 33.0053V28.5633H52.0234V28.0183H52.8834V27.5463C52.8834 26.9743 52.9904 26.5453 53.2044 26.2583C53.4944 25.8603 54.0124 25.6613 54.7584 25.6613C55.0904 25.6613 55.4384 25.6993 55.8044 25.7763V26.4993C55.4524 26.3463 55.1444 26.2683 54.8824 26.2683C54.2474 26.2683 53.9294 26.6533 53.9294 27.4213V28.0183H55.3274V28.5633H53.9294V33.0053H52.8834Z" fill="white"/>
<path d="M58.7877 32.4393V33.0473C58.5937 33.0963 58.3527 33.1203 58.0627 33.1203C57.5447 33.1203 57.1617 33.0283 56.9127 32.8473C56.6437 32.6453 56.5087 32.3133 56.5087 31.8523V28.5633H55.7217V28.0183H56.5087V26.8453L57.5547 26.2063V28.0183H58.9017V28.5633H57.5547V31.4333C57.5547 31.8383 57.5957 32.1103 57.6797 32.2503C57.7767 32.4323 57.9837 32.5223 58.3017 32.5223C58.4947 32.5233 58.6567 32.4953 58.7877 32.4393Z" fill="white"/>
<path d="M62.5082 28.1022V29.0033C62.0312 28.6743 61.6162 28.5102 61.2642 28.5102C60.7942 28.5102 60.5592 28.6852 60.5592 29.0342C60.5592 29.2722 60.7562 29.5092 61.1502 29.7462C61.8142 30.1512 62.1722 30.3812 62.2282 30.4372C62.6222 30.7652 62.8192 31.1562 62.8192 31.6102C62.8192 32.1202 62.6352 32.5042 62.2682 32.7632C61.9422 33.0002 61.4992 33.1192 60.9382 33.1192C60.4952 33.1192 60.0552 33.0462 59.6182 32.8992V31.9252C60.1252 32.2742 60.5822 32.4482 60.9922 32.4482C61.2772 32.4482 61.4952 32.3822 61.6482 32.2492C61.7792 32.1382 61.8452 31.9943 61.8452 31.8203C61.8452 31.5823 61.6522 31.3412 61.2652 31.0972C60.5602 30.6502 60.2042 30.4232 60.1982 30.4162C59.8122 30.1022 59.6172 29.7422 59.6172 29.3372C59.6172 28.9252 59.7522 28.5892 60.0212 28.3312C60.3252 28.0442 60.7672 27.9012 61.3472 27.9012C61.6722 27.9032 62.0592 27.9702 62.5082 28.1022Z" fill="white"/>
<path d="M69.2308 25.7772H70.2258V33.0052H69.5838V26.3322H69.5618L67.4598 33.0052H66.8378L64.7348 26.3322H64.7148V33.0052H64.1748V25.7772H65.1278L67.1588 32.2192H67.1798L69.2308 25.7772Z" fill="white"/>
<path d="M74.3165 32.2303H74.2965C74.1925 32.4713 73.7055 33.1203 72.8765 33.1203C72.0785 33.1203 71.5615 32.5123 71.5615 31.8523C71.5615 30.8983 72.4005 30.2293 74.3165 30.2293V29.8943C74.3165 29.1183 74.3165 28.3123 73.3125 28.3123C72.5145 28.3123 72.4115 28.8253 72.3895 29.2343H71.6745C71.7465 28.6893 72.0165 27.9043 73.3735 27.9043C74.7095 27.9043 74.8855 28.7843 74.8855 29.6223V33.0063H74.3155V32.2303H74.3165ZM74.3165 30.6373C73.8405 30.6373 72.1935 30.6483 72.1935 31.7793C72.1935 32.2823 72.5765 32.5973 73.0525 32.5973C73.9955 32.5973 74.3165 31.6233 74.3165 30.9213V30.6373Z" fill="white"/>
<path d="M77.1872 25.7772H76.6182V33.0052H77.1872V25.7772Z" fill="white"/>
<path d="M81.1447 33.0892C80.9797 33.0992 80.8137 33.1202 80.6367 33.1202C79.9847 33.1202 79.2387 33.0052 79.2387 31.9582V28.4492H78.4297V28.0192H79.2387V26.8562L79.8077 26.5002V28.0192H81.1027V28.4492H79.8077V31.5602C79.8077 32.0422 79.8077 32.7122 80.6997 32.7122C80.8547 32.7122 80.9997 32.6913 81.1447 32.6393V33.0892Z" fill="white"/>
<path d="M84.5626 32.2303H84.5426C84.4386 32.4713 83.9516 33.1203 83.1236 33.1203C82.3256 33.1203 81.8076 32.5123 81.8076 31.8523C81.8076 30.8983 82.6476 30.2293 84.5626 30.2293V29.8943C84.5626 29.1183 84.5626 28.3123 83.5576 28.3123C82.7596 28.3123 82.6566 28.8253 82.6356 29.2343H81.9206C81.9926 28.6893 82.2626 27.9043 83.6206 27.9043C84.9566 27.9043 85.1326 28.7843 85.1326 29.6223V33.0063H84.5626V32.2303ZM84.5626 30.6373C84.0866 30.6373 82.4396 30.6483 82.4396 31.7793C82.4396 32.2823 82.8226 32.5973 83.2996 32.5973C84.2426 32.5973 84.5636 31.6233 84.5636 30.9213L84.5626 30.6373Z" fill="white"/>
<path d="M14.1173 39.4562C13.8473 39.4562 13.6643 39.2902 13.6643 38.9732V37.7212H13.4463V37.5262H13.6643V37.0862L13.9733 36.9902V37.5252H14.3023V37.7202H13.9733V38.9722C13.9733 39.1392 14.0533 39.2382 14.2083 39.2382L14.3033 39.2242V39.4232C14.2553 39.4452 14.1913 39.4562 14.1173 39.4562Z" fill="white"/>
<path d="M15.7516 39.4383V38.0903C15.7516 37.8883 15.6636 37.7083 15.3656 37.7083C15.2316 37.7083 15.1026 37.7473 14.9936 37.8113V39.4393H14.6846V36.6553H14.9936V37.6273C15.1096 37.5563 15.2606 37.5103 15.4286 37.5103C15.9066 37.5103 16.0606 37.8053 16.0606 38.0813V39.4393L15.7516 39.4383Z" fill="white"/>
<path d="M16.7843 38.6042C16.8133 38.9982 17.0093 39.2502 17.3673 39.2502C17.5383 39.2502 17.7223 39.2002 17.8263 39.1362L17.9073 39.3392C17.7733 39.4162 17.5563 39.4732 17.3353 39.4732C16.7953 39.4732 16.4873 39.0972 16.4873 38.4762C16.4873 37.8772 16.7713 37.4902 17.2523 37.4902C17.7043 37.4902 17.9753 37.7882 17.9753 38.3912V38.4262L16.7843 38.6042ZM17.2443 37.6862C16.9323 37.6862 16.7703 37.9842 16.7703 38.4172V38.4342L17.6763 38.2922C17.6693 37.9062 17.5383 37.6862 17.2443 37.6862Z" fill="white"/>
<path d="M21.4637 39.4382V38.1222C21.4637 37.9022 21.3617 37.7602 21.1237 37.7602C20.9977 37.7602 20.8957 37.8172 20.8217 37.9022V39.4382H20.4037V38.0832C20.4037 37.8882 20.2987 37.7602 20.0577 37.7602C19.9377 37.7602 19.8507 37.7742 19.7617 37.8102V39.4382H19.3447V37.6292C19.5447 37.5442 19.7617 37.4912 20.0357 37.4912C20.3197 37.4912 20.4857 37.5652 20.6147 37.6972C20.7547 37.5692 20.9517 37.4912 21.1827 37.4912C21.6707 37.4912 21.8807 37.7542 21.8807 38.1262V39.4382H21.4637Z" fill="white"/>
<path d="M22.5671 37.1993C22.4371 37.1993 22.3291 37.1033 22.3291 36.9833C22.3291 36.8623 22.4371 36.7633 22.5671 36.7633C22.6961 36.7633 22.8051 36.8633 22.8051 36.9833C22.8051 37.1043 22.6971 37.1993 22.5671 37.1993ZM22.3531 37.5263H22.7811V39.4383H22.3531V37.5263Z" fill="white"/>
<path d="M23.6925 39.4773C23.4925 39.4773 23.2745 39.4203 23.1455 39.3383L23.2645 39.0693C23.3835 39.1433 23.5195 39.1793 23.6435 39.1793C23.8325 39.1793 23.9515 39.0623 23.9515 38.9103C23.9515 38.5123 23.1905 38.6613 23.1905 38.0443C23.1905 37.7183 23.4575 37.4873 23.8115 37.4873C24.0215 37.4873 24.1945 37.5333 24.3375 37.6253L24.2285 37.8703C24.1265 37.8063 24.0035 37.7643 23.8905 37.7643C23.7055 37.7643 23.6105 37.8743 23.6105 38.0163C23.6105 38.3923 24.3895 38.2533 24.3895 38.8813C24.3915 39.2113 24.1175 39.4773 23.6925 39.4773Z" fill="white"/>
<path d="M25.174 39.4773C24.974 39.4773 24.756 39.4203 24.627 39.3383L24.746 39.0693C24.865 39.1433 25.001 39.1793 25.125 39.1793C25.314 39.1793 25.433 39.0623 25.433 38.9103C25.433 38.5123 24.672 38.6613 24.672 38.0443C24.672 37.7183 24.939 37.4873 25.293 37.4873C25.504 37.4873 25.675 37.5333 25.82 37.6253L25.71 37.8703C25.609 37.8063 25.486 37.7643 25.373 37.7643C25.188 37.7643 25.093 37.8743 25.093 38.0163C25.093 38.3923 25.8719 38.2533 25.8719 38.8813C25.8729 39.2113 25.599 39.4773 25.174 39.4773Z" fill="white"/>
<path d="M26.4753 37.1993C26.3463 37.1993 26.2373 37.1033 26.2373 36.9833C26.2373 36.8623 26.3473 36.7633 26.4753 36.7633C26.6053 36.7633 26.7143 36.8633 26.7143 36.9833C26.7143 37.1043 26.6053 37.1993 26.4753 37.1993ZM26.2623 37.5263H26.6903V39.4383H26.2623V37.5263Z" fill="white"/>
<path d="M28.2272 39.4382V38.1292C28.2272 37.8802 28.1282 37.7602 27.8652 37.7602C27.7602 37.7602 27.6692 37.7742 27.5882 37.8102V39.4382H27.1602V37.6292C27.3562 37.5442 27.6022 37.4912 27.8642 37.4912C28.4142 37.4912 28.6542 37.7252 28.6542 38.1332V39.4382H28.2272Z" fill="white"/>
<path d="M29.796 40.2363C29.546 40.2363 29.3 40.1793 29.154 40.0973L29.266 39.8143C29.383 39.8773 29.554 39.9233 29.722 39.9233C30.038 39.9233 30.158 39.7433 30.158 39.4833V39.3773C30.084 39.4193 29.965 39.4483 29.804 39.4483C29.341 39.4483 29.043 39.0903 29.043 38.5123C29.043 37.8803 29.369 37.4873 29.969 37.4873C30.2 37.4873 30.436 37.5433 30.583 37.6253V39.4413C30.581 39.9563 30.283 40.2363 29.796 40.2363ZM30.157 37.7853C30.101 37.7563 30.02 37.7433 29.936 37.7433C29.61 37.7433 29.467 38.0273 29.467 38.4923C29.467 38.9463 29.604 39.1903 29.916 39.1903C30.011 39.1903 30.098 39.1653 30.158 39.1303V37.7853H30.157Z" fill="white"/>
<path d="M32.4378 36.6533H32.0098V39.4373H32.4378V36.6533Z" fill="white"/>
<path d="M33.1394 37.1993C33.0094 37.1993 32.9004 37.1033 32.9004 36.9833C32.9004 36.8623 33.0094 36.7633 33.1394 36.7633C33.2694 36.7633 33.3784 36.8633 33.3784 36.9833C33.3784 37.1043 33.2694 37.1993 33.1394 37.1993ZM32.9254 37.5263H33.3534V39.4383H32.9254V37.5263Z" fill="white"/>
<path d="M34.8902 39.4382V38.1292C34.8902 37.8802 34.7923 37.7602 34.5293 37.7602C34.4233 37.7602 34.3323 37.7742 34.2513 37.8102V39.4382H33.8232V37.6292C34.0202 37.5442 34.2653 37.4912 34.5293 37.4912C35.0793 37.4912 35.3172 37.7252 35.3172 38.1332V39.4382H34.8902Z" fill="white"/>
<path d="M36.8661 39.4383L36.2171 38.4843H36.2091V39.4383H35.7891V36.6533H36.2091V38.4133H36.2171L36.8371 37.5263H37.2971L36.5991 38.4273L37.3631 39.4383H36.8661Z" fill="white"/>
<path d="M38.7788 37.1612C38.6768 37.1612 38.5928 37.0832 38.5928 36.9872C38.5928 36.8912 38.6778 36.8142 38.7788 36.8142C38.8808 36.8142 38.9638 36.8922 38.9638 36.9872C38.9638 37.0832 38.8798 37.1612 38.7788 37.1612ZM38.6238 37.5262H38.9318V39.4382H38.6238V37.5262Z" fill="white"/>
<path d="M40.5182 39.4382V38.1192C40.5182 37.8312 40.4022 37.6892 40.0932 37.6892C39.9632 37.6892 39.8591 37.7102 39.7601 37.7532V39.4372H39.4521V37.6252C39.6271 37.5432 39.8592 37.4902 40.0932 37.4902C40.6022 37.4902 40.8262 37.7132 40.8262 38.1182V39.4372H40.5182V39.4382Z" fill="white"/>
<path d="M42.9527 39.4742C42.4967 39.4742 42.2197 39.0662 42.2197 38.4812C42.2197 37.8952 42.4997 37.4912 42.9527 37.4912C43.1277 37.4912 43.2757 37.5382 43.3777 37.6152L43.3047 37.7992C43.2307 37.7432 43.1187 37.7042 43.0067 37.7042C42.7047 37.7042 42.5367 38.0342 42.5367 38.4742C42.5367 38.9072 42.7077 39.2472 43.0067 39.2472C43.1187 39.2472 43.2277 39.2122 43.3007 39.1552L43.3787 39.3502C43.2757 39.4282 43.1277 39.4742 42.9527 39.4742Z" fill="white"/>
<path d="M44.3681 39.4742C43.8561 39.4742 43.6201 39.0552 43.6201 38.4812C43.6201 37.9102 43.8561 37.4912 44.3681 37.4912C44.8801 37.4912 45.1161 37.9102 45.1161 38.4812C45.1151 39.0552 44.8801 39.4742 44.3681 39.4742ZM44.3681 37.6902C44.0381 37.6902 43.9291 38.0472 43.9291 38.4742C43.9291 38.9002 44.0381 39.2652 44.3681 39.2652C44.6981 39.2652 44.8061 38.9002 44.8061 38.4742C44.8061 38.0472 44.6971 37.6902 44.3681 37.6902Z" fill="white"/>
<path d="M46.28 37.7352C46.224 37.7142 46.1571 37.7032 46.0871 37.7032C46.0031 37.7032 45.915 37.7172 45.849 37.7522V39.4372H45.54V37.6242C45.701 37.5432 45.9141 37.4902 46.1861 37.4902C46.2551 37.4902 46.3331 37.4972 46.3501 37.5002L46.28 37.7352Z" fill="white"/>
<path d="M47.2699 39.4673C47.1609 39.4673 47.0459 39.4463 46.9749 39.4213V40.2023H46.6699V37.6233C46.8309 37.5383 47.0379 37.4923 47.2559 37.4923C47.7959 37.4923 48.0939 37.8683 48.0939 38.4493C48.0939 39.0873 47.7669 39.4673 47.2699 39.4673ZM47.2449 37.6823C47.1499 37.6823 47.0479 37.6963 46.9749 37.7313V39.2283C47.0309 39.2493 47.1109 39.2673 47.2029 39.2673C47.5889 39.2673 47.7859 38.9723 47.7859 38.4653C47.7859 37.9873 47.6419 37.6823 47.2449 37.6823Z" fill="white"/>
<path d="M49.1923 39.4742C48.6803 39.4742 48.4453 39.0552 48.4453 38.4812C48.4453 37.9102 48.6803 37.4912 49.1923 37.4912C49.7043 37.4912 49.9393 37.9102 49.9393 38.4812C49.9393 39.0552 49.7043 39.4742 49.1923 39.4742ZM49.1923 37.6902C48.8623 37.6902 48.7543 38.0472 48.7543 38.4742C48.7543 38.9002 48.8633 39.2652 49.1923 39.2652C49.5223 39.2652 49.6303 38.9002 49.6303 38.4742C49.6313 38.0472 49.5223 37.6902 49.1923 37.6902Z" fill="white"/>
<path d="M51.1052 37.7352C51.0502 37.7142 50.9822 37.7032 50.9122 37.7032C50.8282 37.7032 50.7402 37.7172 50.6742 37.7522V39.4372H50.3662V37.6242C50.5272 37.5432 50.7412 37.4902 51.0122 37.4902C51.0822 37.4902 51.1592 37.4972 51.1762 37.5002L51.1052 37.7352Z" fill="white"/>
<path d="M52.094 39.4732C51.641 39.4732 51.375 39.2762 51.375 38.8952C51.375 38.4342 51.824 38.2562 52.435 38.1962V38.0792C52.435 37.8172 52.295 37.7002 52.031 37.7002C51.866 37.7002 51.687 37.7492 51.557 37.8202L51.483 37.6282C51.641 37.5472 51.855 37.4902 52.059 37.4902C52.469 37.4902 52.723 37.6852 52.723 38.1102V39.3382C52.572 39.4202 52.346 39.4732 52.094 39.4732ZM52.435 38.3602C51.954 38.4172 51.67 38.5512 51.67 38.8882C51.67 39.1472 51.827 39.2922 52.122 39.2922C52.241 39.2922 52.36 39.2672 52.434 39.2282L52.435 38.3602Z" fill="white"/>
<path d="M53.754 39.4562C53.484 39.4562 53.301 39.2902 53.301 38.9732V37.7212H53.083V37.5262H53.301V37.0862L53.61 36.9902V37.5252H53.94V37.7202H53.61V38.9722C53.61 39.1392 53.691 39.2382 53.844 39.2382L53.939 39.2242V39.4232C53.891 39.4452 53.828 39.4562 53.754 39.4562Z" fill="white"/>
<path d="M54.5226 38.6042C54.5506 38.9982 54.7476 39.2502 55.1056 39.2502C55.2766 39.2502 55.4596 39.2002 55.5646 39.1362L55.6456 39.3392C55.5126 39.4162 55.2956 39.4732 55.0736 39.4732C54.5336 39.4732 54.2246 39.0972 54.2246 38.4762C54.2246 37.8772 54.5086 37.4902 54.9896 37.4902C55.4436 37.4902 55.7126 37.7882 55.7126 38.3912V38.4262L54.5226 38.6042ZM54.9816 37.6862C54.6696 37.6862 54.5076 37.9842 54.5076 38.4172V38.4342L55.4126 38.2922C55.4066 37.9062 55.2766 37.6862 54.9816 37.6862Z" fill="white"/>
<path d="M57.7297 39.4732C57.2767 39.4732 57.0107 39.2762 57.0107 38.8952C57.0107 38.4342 57.4597 38.2562 58.0707 38.1962V38.0792C58.0707 37.8172 57.9307 37.7002 57.6677 37.7002C57.5027 37.7002 57.3237 37.7492 57.1937 37.8202L57.1207 37.6282C57.2777 37.5472 57.4917 37.4902 57.6957 37.4902C58.1057 37.4902 58.3587 37.6852 58.3587 38.1102V39.3382C58.2067 39.4202 57.9817 39.4732 57.7297 39.4732ZM58.0697 38.3602C57.5897 38.4172 57.3057 38.5512 57.3057 38.8882C57.3057 39.1472 57.4637 39.2922 57.7577 39.2922C57.8777 39.2922 57.9957 39.2672 58.0697 39.2282V38.3602Z" fill="white"/>
<path d="M59.6112 39.4743C59.0672 39.4743 58.7832 39.0903 58.7832 38.5193C58.7832 37.9563 59.0642 37.5053 59.6112 37.5053C59.7052 37.5053 59.8002 37.5153 59.9022 37.5443V36.6533H60.2082V39.3393C60.0812 39.4173 59.8592 39.4743 59.6112 39.4743ZM59.9012 37.7253C59.8282 37.7043 59.7442 37.6903 59.6632 37.6903C59.2352 37.6903 59.0912 38.0693 59.0912 38.4883C59.0912 38.9393 59.2422 39.2693 59.6282 39.2693C59.7542 39.2693 59.8382 39.2503 59.9012 39.2153V37.7253Z" fill="white"/>
<path d="M61.4626 39.4382H61.1816L60.5576 37.5262H60.8876L61.2796 38.8952C61.2976 38.9552 61.3126 39.0162 61.3286 39.1432H61.3356C61.3526 39.0152 61.3666 38.9552 61.3836 38.8952L61.7946 37.5262H62.0856L61.4626 39.4382Z" fill="white"/>
<path d="M62.6183 38.6042C62.6463 38.9982 62.8433 39.2502 63.2013 39.2502C63.3733 39.2502 63.5553 39.2002 63.6603 39.1362L63.7413 39.3392C63.6083 39.4162 63.3903 39.4732 63.1693 39.4732C62.6283 39.4732 62.3203 39.0972 62.3203 38.4762C62.3203 37.8772 62.6043 37.4902 63.0843 37.4902C63.5373 37.4902 63.8073 37.7882 63.8073 38.3912V38.4262L62.6183 38.6042ZM63.0773 37.6862C62.7643 37.6862 62.6033 37.9842 62.6033 38.4172V38.4342L63.5083 38.2922C63.5023 37.9062 63.3723 37.6862 63.0773 37.6862Z" fill="white"/>
<path d="M64.9734 37.7352C64.9174 37.7142 64.8494 37.7032 64.7804 37.7032C64.6954 37.7032 64.6084 37.7172 64.5414 37.7522V39.4372H64.2324V37.6242C64.3944 37.5432 64.6074 37.4902 64.8784 37.4902C64.9484 37.4902 65.0264 37.4972 65.0424 37.5002L64.9734 37.7352Z" fill="white"/>
<path d="M65.9581 39.4562C65.6881 39.4562 65.5051 39.2902 65.5051 38.9732V37.7212H65.2871V37.5262H65.5051V37.0862L65.8141 36.9902V37.5252H66.1441V37.7202H65.8141V38.9722C65.8141 39.1392 65.8941 39.2382 66.0491 39.2382L66.1441 39.2242V39.4232C66.0961 39.4452 66.0321 39.4562 65.9581 39.4562Z" fill="white"/>
<path d="M66.7016 37.1612C66.5996 37.1612 66.5156 37.0832 66.5156 36.9872C66.5156 36.8912 66.6006 36.8142 66.7016 36.8142C66.8036 36.8142 66.8876 36.8922 66.8876 36.9872C66.8876 37.0832 66.8036 37.1612 66.7016 37.1612ZM66.5476 37.5262H66.8566V39.4382H66.5476V37.5262Z" fill="white"/>
<path d="M67.7785 39.4742C67.5925 39.4742 67.3885 39.4242 67.2695 39.3432L67.3575 39.1442C67.4705 39.2152 67.6135 39.2542 67.7475 39.2542C67.9685 39.2542 68.1115 39.1132 68.1115 38.9242C68.1115 38.4562 67.3125 38.6442 67.3125 38.0132C67.3125 37.7182 67.5465 37.4912 67.8945 37.4912C68.0765 37.4912 68.2405 37.5382 68.3685 37.6222L68.2875 37.8062C68.1895 37.7432 68.0595 37.6972 67.9365 37.6972C67.7185 37.6972 67.6165 37.8312 67.6165 37.9982C67.6165 38.4352 68.4245 38.2572 68.4245 38.9102C68.4245 39.2182 68.1645 39.4742 67.7785 39.4742Z" fill="white"/>
<path d="M69.018 37.1612C68.916 37.1612 68.832 37.0832 68.832 36.9872C68.832 36.8912 68.916 36.8142 69.018 36.8142C69.12 36.8142 69.204 36.8922 69.204 36.9872C69.205 37.0832 69.12 37.1612 69.018 37.1612ZM68.864 37.5262H69.173V39.4382H68.864V37.5262Z" fill="white"/>
<path d="M70.7584 39.4382V38.1192C70.7584 37.8312 70.6434 37.6892 70.3334 37.6892C70.2044 37.6892 70.0984 37.7102 70.0004 37.7532V39.4372H69.6914V37.6252C69.8674 37.5432 70.0984 37.4902 70.3334 37.4902C70.8424 37.4902 71.0664 37.7132 71.0664 38.1182V39.4372H70.7584V39.4382Z" fill="white"/>
<path d="M72.9172 39.4672C72.9172 39.9492 72.6502 40.2362 72.1872 40.2362C71.9632 40.2362 71.7422 40.1792 71.6052 40.1022L71.6962 39.8962C71.8052 39.9562 71.9732 40.0062 72.1352 40.0062C72.4782 40.0062 72.6122 39.7932 72.6122 39.5022V39.3752C72.5282 39.4242 72.4012 39.4602 72.2362 39.4602C71.7802 39.4602 71.4922 39.0952 71.4922 38.5132C71.4922 37.8992 71.7942 37.4912 72.3582 37.4912C72.5752 37.4912 72.7852 37.5442 72.9162 37.6222V39.4672H72.9172ZM72.6112 37.7322C72.5412 37.6972 72.4422 37.6782 72.3412 37.6782C71.9612 37.6782 71.8012 38.0022 71.8012 38.5022C71.8012 38.9872 71.9552 39.2652 72.3172 39.2652C72.4372 39.2652 72.5412 39.2302 72.6112 39.1872V37.7322Z" fill="white"/>
<path d="M36.168 5.29625C36.393 5.07825 36.721 4.92625 37.123 4.87625L37.171 4.87024C37.264 4.86124 37.358 4.85723 37.452 4.85923C37.615 4.86223 37.78 4.88123 37.939 4.91523C38.081 4.94523 38.221 4.98624 38.355 5.03824L38.572 4.39525C38.438 4.34425 38.298 4.30224 38.156 4.27224C37.996 4.23824 37.832 4.21924 37.668 4.21624C37.574 4.21524 37.481 4.21825 37.387 4.22925L37.339 4.23423C36.936 4.28323 36.609 4.43524 36.382 4.65524C36.289 4.74524 36.214 4.84624 36.156 4.95724C36.13 5.00624 36.109 5.05724 36.09 5.11024L35.874 5.75325C35.892 5.70125 35.913 5.65025 35.939 5.60025C35.997 5.48825 36.074 5.38625 36.168 5.29625Z" fill="white"/>
<path d="M36.7892 11.8632L36.5732 12.5062L42.2822 11.8022L42.4982 11.1602L36.7892 11.8632Z" fill="#757575"/>
<path d="M37.0922 15.3742L37.0443 15.3802C36.9483 15.3892 36.8523 15.3923 36.7553 15.3913H36.7463L36.6543 15.3872H36.6512C36.5222 15.3792 36.3932 15.3612 36.2672 15.3332L36.2533 15.3302L36.2172 15.3223L36.2112 15.3212C36.1662 15.3112 36.1222 15.2992 36.0792 15.2862L36.0743 15.2852L36.0362 15.2742L36.0252 15.2712L35.9903 15.2592L35.9762 15.2542L35.9442 15.2432L35.9253 15.2362L35.9002 15.2272L35.8722 15.2172L35.8543 15.2103L35.8122 15.1932L35.8032 15.1902L35.7013 15.1462L35.6892 15.1402L35.6502 15.1232L35.6352 15.1162L35.6003 15.0983L35.5873 15.0912L35.5483 15.0712L35.5382 15.0652L35.4923 15.0402L35.4773 15.0312L35.4473 15.0143C35.0373 14.7713 34.7063 14.4283 34.5463 14.0312C34.4273 13.7382 34.4163 13.4532 34.4963 13.2022C34.5053 13.2862 34.5052 13.3692 34.4992 13.4522L34.7143 12.8092C34.7283 12.6512 34.7183 12.4922 34.6603 12.3312C34.6363 12.2652 34.6052 12.2033 34.5692 12.1393L32.0102 12.4552C31.2342 10.6812 31.1572 8.95324 31.6652 7.44324C31.5932 7.65724 31.5203 7.87124 31.4493 8.08624C30.9413 9.59524 31.0172 11.3232 31.7952 13.0972L34.3512 12.7822C34.3892 12.8442 34.4202 12.9073 34.4432 12.9733C34.4712 13.0483 34.4873 13.1233 34.4963 13.1973C34.4263 13.4063 34.3553 13.6152 34.2853 13.8252C34.2003 14.0812 34.2083 14.3732 34.3303 14.6742C34.4903 15.0682 34.8183 15.4092 35.2253 15.6522L35.2313 15.6572L35.2593 15.6732L35.2782 15.6842L35.3223 15.7092L35.3422 15.7192L35.3693 15.7332L35.3922 15.7452L35.4173 15.7572L35.4403 15.7682L35.4663 15.7812L35.4892 15.7923L35.5203 15.8062L35.5393 15.8132L35.5862 15.8332L35.6052 15.8412L35.6372 15.8542L35.6462 15.8572L35.6603 15.8622L35.6852 15.8712L35.7103 15.8792L35.7342 15.8893L35.7582 15.8962L35.7853 15.9062L35.8062 15.9122L35.8382 15.9222L35.8563 15.9272L35.8962 15.9392L35.9052 15.9412L35.9572 15.9542L35.9663 15.9572L36.0062 15.9662L36.0373 15.9733L36.0542 15.9772L36.0633 15.9792C36.1393 15.9952 36.2153 16.0073 36.2923 16.0163L36.2952 16.0172L36.3893 16.0262H36.3913L36.4372 16.0302H36.4423L36.4872 16.0322H36.4892L36.5322 16.0332H36.5412H36.5503C36.6443 16.0352 36.7372 16.0322 36.8292 16.0222L36.8783 16.0163C37.5223 15.9373 37.9733 15.5973 38.1263 15.1413C38.1983 14.9273 38.2692 14.7122 38.3422 14.4982C38.1872 14.9532 37.7352 15.2952 37.0922 15.3742Z" fill="#757575"/>
<path d="M38.7051 2.50421L39.6481 4.65921C39.4251 4.67621 39.2221 4.65321 39.0121 4.60921C38.5391 4.32221 37.9521 4.17021 37.3891 4.22821L37.3421 4.23322C36.3361 4.35722 35.7981 5.12121 36.1381 5.95721C36.4841 6.80821 37.6051 7.41222 38.6411 7.30722L38.6881 7.30222C39.2281 7.23622 39.6321 6.98622 39.8381 6.63922C39.9961 6.55922 40.1671 6.49822 40.3601 6.47322L40.4411 6.46422L42.4991 11.1602L36.7901 11.8632C36.8041 11.9442 36.8281 12.0252 36.8641 12.1042C36.9351 12.2642 37.0491 12.4132 37.1861 12.5562C37.6921 12.7972 38.1081 13.1872 38.2961 13.6492C38.6361 14.4862 38.0991 15.2512 37.0921 15.3742L37.0441 15.3792C36.0081 15.4842 34.8871 14.8802 34.5431 14.0292C34.3551 13.5672 34.4341 13.1292 34.7111 12.8062C34.7261 12.6492 34.7151 12.4902 34.6571 12.3282C34.6331 12.2632 34.6021 12.2002 34.5661 12.1372L32.0071 12.4532C29.9111 7.67222 32.9101 3.21721 38.7051 2.50421Z" fill="white"/>
<path d="M41.7065 4.94824L41.4265 5.56624H41.3535C41.1495 5.57224 40.9755 5.61524 40.8105 5.67824L41.0896 5.06125C41.2546 4.99825 41.4295 4.95424 41.6335 4.94824H41.7065Z" fill="white"/>
<path d="M41.6306 4.94727C41.4266 4.95327 41.2526 4.99726 41.0876 5.06026L40.8086 5.67825C40.9736 5.61525 41.1476 5.57126 41.3526 5.56526L41.4256 5.56625L41.7056 4.94826L41.6486 4.94727H41.6306Z" fill="white"/>
<mask id="mask0_2343_6107" style="mask-type:luminance" maskUnits="userSpaceOnUse" x="40" y="4" width="2" height="2">
<path d="M41.6306 4.94727C41.4266 4.95327 41.2526 4.99726 41.0876 5.06026L40.8086 5.67825C40.9736 5.61525 41.1476 5.57126 41.3526 5.56526L41.4256 5.56625L41.7056 4.94826L41.6486 4.94727H41.6306Z" fill="white"/>
</mask>
<g mask="url(#mask0_2343_6107)">
<path d="M41.7056 4.94824L41.4256 5.56624H41.3526C41.1486 5.57224 40.9746 5.61524 40.8096 5.67824L41.0886 5.06125C41.2536 4.99825 41.4286 4.95424 41.6326 4.94824H41.7056Z" fill="#757575"/>
</g>
<path d="M41.0727 3.07021L40.7937 3.6882L40.0947 1.4472L40.3747 0.8302L41.0727 3.07021Z" fill="#757575"/>
<path d="M51.2171 8.40221C51.1231 8.60821 51.0311 8.81322 50.9371 9.02022C51.0481 8.77322 51.0681 8.48221 50.9781 8.17021C50.7191 7.28821 49.6651 6.57322 48.6231 6.57022L48.5731 6.57121C47.9261 6.58421 47.4431 6.87822 47.2451 7.31522C47.3381 7.10922 47.4311 6.90322 47.5241 6.69722C47.7211 6.26022 48.2051 5.96622 48.8531 5.95322L48.9021 5.95221C49.9441 5.95421 50.9981 6.67021 51.2571 7.55121C51.3481 7.86521 51.3281 8.15621 51.2171 8.40221Z" fill="white"/>
<path d="M48.8531 5.95424C48.2061 5.96724 47.7221 6.26025 47.5241 6.69725C47.4301 6.90325 47.3391 7.11024 47.2451 7.31624C47.4431 6.87924 47.9261 6.58625 48.5731 6.57225L48.6231 6.57124C49.6641 6.57324 50.7191 7.28824 50.9771 8.17024C51.0681 8.48324 51.0481 8.77325 50.9371 9.02025C51.0311 8.81325 51.1231 8.60824 51.2171 8.40224C51.3291 8.15524 51.3491 7.86425 51.2581 7.55225C50.9991 6.67025 49.9451 5.95425 48.9031 5.95325L48.8531 5.95424Z" fill="white"/>
<mask id="mask1_2343_6107" style="mask-type:luminance" maskUnits="userSpaceOnUse" x="47" y="5" width="5" height="5">
<path d="M48.8531 5.95424C48.2061 5.96724 47.7221 6.26025 47.5241 6.69725C47.4301 6.90325 47.3391 7.11024 47.2451 7.31624C47.4431 6.87924 47.9261 6.58625 48.5731 6.57225L48.6231 6.57124C49.6641 6.57324 50.7191 7.28824 50.9771 8.17024C51.0681 8.48324 51.0481 8.77325 50.9371 9.02025C51.0311 8.81325 51.1231 8.60824 51.2171 8.40224C51.3291 8.15524 51.3491 7.86425 51.2581 7.55225C50.9991 6.67025 49.9451 5.95425 48.9031 5.95325L48.8531 5.95424Z" fill="white"/>
</mask>
<g mask="url(#mask1_2343_6107)">
<path d="M51.2571 7.55225C51.1361 7.14425 50.8451 6.77124 50.4651 6.48924C50.3391 6.39624 50.2061 6.31224 50.0641 6.24124C49.9341 6.17624 49.8001 6.12125 49.6621 6.07625C49.5051 6.02625 49.3441 5.99025 49.1801 5.97025C49.0881 5.95925 48.9951 5.95325 48.9011 5.95325L48.8521 5.95424C48.4471 5.96224 48.1061 6.08025 47.8591 6.27425L47.5791 6.89325C47.8251 6.69825 48.1671 6.58025 48.5721 6.57225H48.6221C48.7141 6.57225 48.8081 6.57825 48.8991 6.58925C49.0631 6.60825 49.2241 6.64425 49.3811 6.69525C49.5211 6.73925 49.6551 6.79524 49.7841 6.86024C49.9271 6.93224 50.0601 7.01524 50.1841 7.10724C50.5651 7.38924 50.8551 7.76324 50.9761 8.17224C51.0671 8.48524 51.0461 8.77525 50.9361 9.02225L51.2151 8.40425C51.3271 8.15725 51.3481 7.86525 51.2571 7.55225Z" fill="#757575"/>
</g>
<mask id="mask2_2343_6107" style="mask-type:luminance" maskUnits="userSpaceOnUse" x="47" y="5" width="5" height="5">
<path d="M48.8531 5.95424C48.2061 5.96724 47.7221 6.26025 47.5241 6.69725C47.4301 6.90325 47.3391 7.11024 47.2451 7.31624C47.4431 6.87924 47.9261 6.58625 48.5731 6.57225L48.6231 6.57124C49.6641 6.57324 50.7191 7.28824 50.9771 8.17024C51.0681 8.48324 51.0481 8.77325 50.9371 9.02025C51.0311 8.81325 51.1231 8.60824 51.2171 8.40224C51.3291 8.15524 51.3491 7.86425 51.2581 7.55225C50.9991 6.67025 49.9451 5.95425 48.9031 5.95325L48.8531 5.95424Z" fill="white"/>
</mask>
<g mask="url(#mask2_2343_6107)">
<path d="M47.8612 6.27527L47.5812 6.89427C47.4802 6.97327 47.3932 7.06728 47.3252 7.17128L47.6052 6.55327C47.6722 6.44827 47.7582 6.35427 47.8612 6.27527Z" fill="#757575"/>
</g>
<mask id="mask3_2343_6107" style="mask-type:luminance" maskUnits="userSpaceOnUse" x="47" y="5" width="5" height="5">
<path d="M48.8531 5.95424C48.2061 5.96724 47.7221 6.26025 47.5241 6.69725C47.4301 6.90325 47.3391 7.11024 47.2451 7.31624C47.4431 6.87924 47.9261 6.58625 48.5731 6.57225L48.6231 6.57124C49.6641 6.57324 50.7191 7.28824 50.9771 8.17024C51.0681 8.48324 51.0481 8.77325 50.9371 9.02025C51.0311 8.81325 51.1231 8.60824 51.2171 8.40224C51.3291 8.15524 51.3491 7.86425 51.2581 7.55225C50.9991 6.67025 49.9451 5.95425 48.9031 5.95325L48.8531 5.95424Z" fill="white"/>
</mask>
<g mask="url(#mask3_2343_6107)">
<path d="M47.6051 6.55225L47.3251 7.16925C47.2951 7.21625 47.2681 7.26525 47.2461 7.31525L47.5251 6.69624C47.5471 6.64824 47.5741 6.59925 47.6051 6.55225Z" fill="white"/>
</g>
<path d="M51.1832 9.67023L50.9032 10.2872C50.8052 10.1452 50.7312 10.0002 50.6942 9.85123C50.6522 9.68423 50.6582 9.52522 50.6872 9.37022L50.9672 8.75323C50.9382 8.90723 50.9332 9.06723 50.9742 9.23323C51.0102 9.38223 51.0852 9.52723 51.1832 9.67023Z" fill="white"/>
<path d="M50.687 9.37022C50.657 9.52622 50.651 9.68523 50.694 9.85123C50.731 10.0002 50.805 10.1452 50.903 10.2882L51.183 9.67023C51.085 9.52723 51.01 9.38223 50.973 9.23323C50.932 9.06723 50.937 8.90923 50.966 8.75323L50.687 9.37022Z" fill="white"/>
<mask id="mask4_2343_6107" style="mask-type:luminance" maskUnits="userSpaceOnUse" x="50" y="8" width="2" height="3">
<path d="M50.687 9.37022C50.657 9.52622 50.651 9.68523 50.694 9.85123C50.731 10.0002 50.805 10.1452 50.903 10.2882L51.183 9.67023C51.085 9.52723 51.01 9.38223 50.973 9.23323C50.932 9.06723 50.937 8.90923 50.966 8.75323L50.687 9.37022Z" fill="white"/>
</mask>
<g mask="url(#mask4_2343_6107)">
<path d="M51.1832 9.67023L50.9032 10.2872C50.8052 10.1452 50.7312 10.0002 50.6942 9.85123C50.6522 9.68423 50.6582 9.52522 50.6872 9.37022L50.9672 8.75323C50.9382 8.90723 50.9332 9.06723 50.9742 9.23323C51.0102 9.38223 51.0852 9.52723 51.1832 9.67023Z" fill="white"/>
</g>
<path d="M53.8523 9.61621L53.5713 10.2342L50.9033 10.2882L51.1833 9.67021L53.8523 9.61621Z" fill="#757575"/>
<path d="M37.2363 3.77119C37.3293 3.56519 37.4223 3.3592 37.5153 3.1532C37.4043 3.3992 37.3843 3.6902 37.4753 4.0022C37.7343 4.8842 38.7883 5.6002 39.8293 5.6012L39.8783 5.6002C40.4203 5.5902 40.8483 5.3832 41.0883 5.0592L40.8093 5.67619C40.5683 6.00019 40.1413 6.2072 39.5983 6.2182L39.5503 6.21919C38.5093 6.21819 37.4543 5.50119 37.1963 4.62019C37.1033 4.30819 37.1243 4.01719 37.2363 3.77119Z" fill="#757575"/>
<path d="M37.2358 3.7722C37.1228 4.0172 37.1028 4.3082 37.1948 4.6212C37.4538 5.5022 38.5088 6.2192 39.5488 6.2202L39.5968 6.21919C40.1398 6.20919 40.5678 6.00219 40.8088 5.67819L41.0878 5.0602C40.8478 5.3832 40.4198 5.5902 39.8778 5.6012L39.8288 5.6022C38.7878 5.6002 37.7328 4.8842 37.4748 4.0022C37.3828 3.6902 37.4038 3.3982 37.5148 3.1532C37.4208 3.3592 37.3288 3.5662 37.2358 3.7722Z" fill="#757575"/>
<mask id="mask5_2343_6107" style="mask-type:luminance" maskUnits="userSpaceOnUse" x="37" y="3" width="5" height="4">
<path d="M37.2358 3.7722C37.1228 4.0172 37.1028 4.3082 37.1948 4.6212C37.4538 5.5022 38.5088 6.2192 39.5488 6.2202L39.5968 6.21919C40.1398 6.20919 40.5678 6.00219 40.8088 5.67819L41.0878 5.0602C40.8478 5.3832 40.4198 5.5902 39.8778 5.6012L39.8288 5.6022C38.7878 5.6002 37.7328 4.8842 37.4748 4.0022C37.3828 3.6902 37.4038 3.3982 37.5148 3.1532C37.4208 3.3592 37.3288 3.5662 37.2358 3.7722Z" fill="white"/>
</mask>
<g mask="url(#mask5_2343_6107)">
<path d="M41.0878 5.06018L40.8078 5.67818C40.7468 5.76018 40.6748 5.83419 40.5908 5.89919L40.8708 5.28119C40.9548 5.21619 41.0268 5.14218 41.0878 5.06018Z" fill="#757575"/>
</g>
<mask id="mask6_2343_6107" style="mask-type:luminance" maskUnits="userSpaceOnUse" x="37" y="3" width="5" height="4">
<path d="M37.2358 3.7722C37.1228 4.0172 37.1028 4.3082 37.1948 4.6212C37.4538 5.5022 38.5088 6.2192 39.5488 6.2202L39.5968 6.21919C40.1398 6.20919 40.5678 6.00219 40.8088 5.67819L41.0878 5.0602C40.8478 5.3832 40.4198 5.5902 39.8778 5.6012L39.8288 5.6022C38.7878 5.6002 37.7328 4.8842 37.4748 4.0022C37.3828 3.6902 37.4038 3.3982 37.5148 3.1532C37.4208 3.3592 37.3288 3.5662 37.2358 3.7722Z" fill="white"/>
</mask>
<g mask="url(#mask6_2343_6107)">
<path d="M40.8715 5.28223L40.5915 5.90022C40.3445 6.09422 40.0025 6.21223 39.5975 6.22023H39.5495C39.4565 6.22023 39.3645 6.21523 39.2705 6.20323L39.5505 5.58623C39.6425 5.59623 39.7355 5.60223 39.8285 5.60223L39.8775 5.60123C40.2835 5.59323 40.6245 5.47523 40.8715 5.28223Z" fill="#757575"/>
</g>
<mask id="mask7_2343_6107" style="mask-type:luminance" maskUnits="userSpaceOnUse" x="37" y="3" width="5" height="4">
<path d="M37.2358 3.7722C37.1228 4.0172 37.1028 4.3082 37.1948 4.6212C37.4538 5.5022 38.5088 6.2192 39.5488 6.2202L39.5968 6.21919C40.1398 6.20919 40.5678 6.00219 40.8088 5.67819L41.0878 5.0602C40.8478 5.3832 40.4198 5.5902 39.8778 5.6012L39.8288 5.6022C38.7878 5.6002 37.7328 4.8842 37.4748 4.0022C37.3828 3.6902 37.4038 3.3982 37.5148 3.1532C37.4208 3.3592 37.3288 3.5662 37.2358 3.7722Z" fill="white"/>
</mask>
<g mask="url(#mask7_2343_6107)">
<path d="M39.5511 5.58623L39.2711 6.20323C39.1101 6.18323 38.9471 6.14824 38.7891 6.09824L39.0691 5.48022C39.2261 5.53022 39.3881 5.56623 39.5511 5.58623Z" fill="#757575"/>
</g>
<mask id="mask8_2343_6107" style="mask-type:luminance" maskUnits="userSpaceOnUse" x="37" y="3" width="5" height="4">
<path d="M37.2358 3.7722C37.1228 4.0172 37.1028 4.3082 37.1948 4.6212C37.4538 5.5022 38.5088 6.2192 39.5488 6.2202L39.5968 6.21919C40.1398 6.20919 40.5678 6.00219 40.8088 5.67819L41.0878 5.0602C40.8478 5.3832 40.4198 5.5902 39.8778 5.6012L39.8288 5.6022C38.7878 5.6002 37.7328 4.8842 37.4748 4.0022C37.3828 3.6902 37.4038 3.3982 37.5148 3.1532C37.4208 3.3592 37.3288 3.5662 37.2358 3.7722Z" fill="white"/>
</mask>
<g mask="url(#mask8_2343_6107)">
<path d="M39.0697 5.47923L38.7887 6.09723C38.6507 6.05223 38.5167 5.99723 38.3877 5.93123L38.6667 5.31323C38.7957 5.38023 38.9317 5.43523 39.0697 5.47923Z" fill="#757575"/>
</g>
<mask id="mask9_2343_6107" style="mask-type:luminance" maskUnits="userSpaceOnUse" x="37" y="3" width="5" height="4">
<path d="M37.2358 3.7722C37.1228 4.0172 37.1028 4.3082 37.1948 4.6212C37.4538 5.5022 38.5088 6.2192 39.5488 6.2202L39.5968 6.21919C40.1398 6.20919 40.5678 6.00219 40.8088 5.67819L41.0878 5.0602C40.8478 5.3832 40.4198 5.5902 39.8778 5.6012L39.8288 5.6022C38.7878 5.6002 37.7328 4.8842 37.4748 4.0022C37.3828 3.6902 37.4038 3.3982 37.5148 3.1532C37.4208 3.3592 37.3288 3.5662 37.2358 3.7722Z" fill="white"/>
</mask>
<g mask="url(#mask9_2343_6107)">
<path d="M38.6683 5.31419L38.3883 5.93221C38.2473 5.86021 38.1113 5.7772 37.9883 5.6852L38.2673 5.0672C38.3923 5.1602 38.5263 5.24319 38.6683 5.31419Z" fill="#757575"/>
</g>
<mask id="mask10_2343_6107" style="mask-type:luminance" maskUnits="userSpaceOnUse" x="37" y="3" width="5" height="4">
<path d="M37.2358 3.7722C37.1228 4.0172 37.1028 4.3082 37.1948 4.6212C37.4538 5.5022 38.5088 6.2192 39.5488 6.2202L39.5968 6.21919C40.1398 6.20919 40.5678 6.00219 40.8088 5.67819L41.0878 5.0602C40.8478 5.3832 40.4198 5.5902 39.8778 5.6012L39.8288 5.6022C38.7878 5.6002 37.7328 4.8842 37.4748 4.0022C37.3828 3.6902 37.4038 3.3982 37.5148 3.1532C37.4208 3.3592 37.3288 3.5662 37.2358 3.7722Z" fill="white"/>
</mask>
<g mask="url(#mask10_2343_6107)">
<path d="M38.2665 5.06821L37.9865 5.68622C37.6045 5.40222 37.3135 5.03021 37.1945 4.62221C37.1025 4.30921 37.1235 4.01822 37.2355 3.77222L37.5145 3.15521C37.4035 3.40121 37.3825 3.69221 37.4745 4.00421C37.5945 4.41221 37.8855 4.78521 38.2665 5.06821Z" fill="#757575"/>
</g>
<path d="M43.2828 9.82924L43.0038 10.4473L41.4258 5.56624L41.7058 4.94824L43.2828 9.82924Z" fill="#757575"/>
<path d="M48.7959 9.71826L48.5159 10.3363L43.0039 10.4473L43.2839 9.82925L48.7959 9.71826Z" fill="#757575"/>
<path d="M40.3745 0.830223C46.2105 0.712223 52.2445 4.64623 53.8505 9.61723L51.1825 9.67022C51.0845 9.52722 51.0085 9.38222 50.9715 9.23322C50.9315 9.06722 50.9345 8.90722 50.9655 8.75222C51.2725 8.46022 51.3975 8.03222 51.2565 7.55322C50.9965 6.67222 49.9425 5.95622 48.9015 5.95422L48.8525 5.95522C47.8405 5.97622 47.2295 6.68123 47.4835 7.54823C47.6245 8.02723 47.9975 8.45621 48.4785 8.74921C48.5995 8.90421 48.6975 9.06422 48.7535 9.23122C48.8095 9.39722 48.8155 9.55922 48.7955 9.71922L43.2825 9.83022L41.7045 4.94822H41.6305C41.4265 4.95422 41.2515 4.99723 41.0875 5.06123C40.8475 5.38523 40.4195 5.59223 39.8765 5.60223L39.8285 5.60322C38.7865 5.60122 37.7326 4.88622 37.4746 4.00422C37.2206 3.13622 37.8305 2.43122 38.8445 2.41122H38.8915C39.4565 2.41222 40.0265 2.62322 40.4695 2.95622C40.6725 3.02022 40.8735 3.06422 41.0725 3.07122L40.3745 0.830223Z" fill="#B2B2B2"/>
<path d="M51.4094 8.69427L51.2754 9.35927C51.2474 9.50027 51.1924 9.63427 51.1104 9.75627L51.2444 9.09128C51.3254 8.96828 51.3824 8.83427 51.4094 8.69427Z" fill="white"/>
<path d="M48.5936 9.57028C48.1576 9.38228 47.7916 9.08528 47.5836 8.71428C47.4236 8.43028 47.3786 8.14128 47.4336 7.87628L47.2986 8.54228C47.2456 8.80828 47.2906 9.09527 47.4486 9.37927C47.6566 9.75027 48.0246 10.0483 48.4596 10.2353C48.5336 10.2673 48.6096 10.2953 48.6866 10.3213L48.8206 9.65628C48.7426 9.63128 48.6686 9.60228 48.5936 9.57028Z" fill="#757575"/>
<path d="M49.3485 10.5592L49.2145 11.2252C49.2025 11.0532 49.1605 10.8872 49.0625 10.7282C48.9715 10.5782 48.8405 10.4462 48.6875 10.3222L48.8215 9.65723C48.9735 9.78123 49.1055 9.91322 49.1975 10.0642C49.2945 10.2202 49.3365 10.3872 49.3485 10.5592Z" fill="#757575"/>
<path d="M51.7843 17.4223L51.6483 18.0873C51.7033 17.8223 51.6573 17.5343 51.4983 17.2503C51.2903 16.8793 50.9243 16.5823 50.4883 16.3943L50.6233 15.7283C51.0583 15.9163 51.4243 16.2133 51.6333 16.5843C51.7913 16.8683 51.8373 17.1573 51.7843 17.4223Z" fill="white"/>
<path d="M50.623 15.7282L50.488 16.3932C50.345 16.3312 50.197 16.2812 50.043 16.2442L50.178 15.5792C50.331 15.6162 50.481 15.6662 50.623 15.7282Z" fill="white"/>
<path d="M46.8538 16.6683L46.7198 17.3333L43.8828 12.5893L44.0178 11.9243L46.8538 16.6683Z" fill="#757575"/>
<path d="M51.6876 9.96126L54.2636 9.30126C56.9396 13.7763 54.5206 18.5783 48.8626 20.0263L47.9276 18.4633C48.0326 18.4093 48.1426 18.3643 48.2626 18.3333L48.3356 18.3153C48.5306 18.2773 48.7346 18.2733 48.9476 18.2903C49.4556 18.5143 50.0556 18.5893 50.6066 18.4613L50.6546 18.4493C51.6366 18.1983 52.0736 17.3713 51.6326 16.5853C51.1846 15.7853 49.9966 15.3283 48.9816 15.5663L48.9346 15.5773C48.4086 15.7113 48.0396 16.0113 47.8766 16.3813C47.7296 16.4803 47.5686 16.5633 47.3796 16.6143C47.2076 16.6583 47.0346 16.6713 46.8546 16.6693L44.0176 11.9243L49.3486 10.5613C49.3356 10.3883 49.2946 10.2223 49.1966 10.0643C49.1046 9.91426 48.9736 9.78126 48.8206 9.65726C48.2876 9.48126 47.8266 9.14826 47.5826 8.71526C47.1406 7.92826 47.5786 7.10127 48.5616 6.85027L48.6076 6.83927C49.6226 6.60227 50.8096 7.05827 51.2596 7.85827C51.5016 8.29227 51.4776 8.73726 51.2446 9.09226C51.2496 9.25126 51.2806 9.40726 51.3576 9.56026C51.4326 9.70426 51.5476 9.83626 51.6876 9.96126Z" fill="white"/>
<path d="M55.2325 14.2292C55.1875 14.4502 55.1435 14.6732 55.0985 14.8942C54.5645 17.5422 52.2875 19.7802 48.7275 20.6912L48.8625 20.0262C52.4215 19.1152 54.6985 16.8772 55.2325 14.2292Z" fill="white"/>
<path d="M48.8625 20.0262L48.7275 20.6912C52.2865 19.7802 54.5645 17.5432 55.0985 14.8952C55.1415 14.6842 55.1835 14.4732 55.2265 14.2632C54.6785 16.8962 52.4065 19.1182 48.8625 20.0262ZM55.2265 14.2632C55.2285 14.2522 55.2315 14.2402 55.2335 14.2292C55.2305 14.2402 55.2285 14.2512 55.2265 14.2632Z" fill="#757575"/>
<mask id="mask11_2343_6107" style="mask-type:luminance" maskUnits="userSpaceOnUse" x="48" y="14" width="8" height="7">
<path d="M48.8625 20.0262L48.7275 20.6912C52.2865 19.7802 54.5645 17.5432 55.0985 14.8952C55.1415 14.6842 55.1835 14.4732 55.2265 14.2632C54.6785 16.8962 52.4065 19.1182 48.8625 20.0262ZM55.2265 14.2632C55.2285 14.2522 55.2315 14.2402 55.2335 14.2292C55.2305 14.2402 55.2285 14.2512 55.2265 14.2632Z" fill="white"/>
</mask>
<g mask="url(#mask11_2343_6107)">
<path d="M53.9186 16.9893L53.7846 17.6543C52.6736 19.0353 50.9506 20.1223 48.7266 20.6913L48.8616 20.0263C51.0846 19.4573 52.8086 18.3693 53.9186 16.9893Z" fill="#757575"/>
</g>
<path d="M48.863 20.0263L48.728 20.6913L47.793 19.1283L47.928 18.4633L48.863 20.0263Z" fill="#757575"/>
<path d="M34.8574 15.5772C34.8904 15.3532 34.9224 15.1292 34.9554 14.9052C34.9754 14.7632 35.0234 14.6262 35.0974 14.4992L35.0004 15.1702C34.9254 15.2982 34.8774 15.4352 34.8574 15.5772Z" fill="white"/>
<path d="M34.9544 14.9062C34.9224 15.1302 34.8894 15.3532 34.8564 15.5772C34.8774 15.4352 34.9254 15.2982 35.0004 15.1702L35.0974 14.4992C35.0234 14.6262 34.9754 14.7622 34.9544 14.9062Z" fill="#757575"/>
<mask id="mask12_2343_6107" style="mask-type:luminance" maskUnits="userSpaceOnUse" x="34" y="14" width="2" height="2">
<path d="M34.9544 14.9062C34.9224 15.1302 34.8894 15.3532 34.8564 15.5772C34.8774 15.4352 34.9254 15.2982 35.0004 15.1702L35.0974 14.4992C35.0234 14.6262 34.9754 14.7622 34.9544 14.9062Z" fill="white"/>
</mask>
<g mask="url(#mask12_2343_6107)">
<path d="M35.0975 14.4982L35.0005 15.1702C34.9555 15.2482 34.9196 15.3292 34.8936 15.4142L34.9906 14.7422C35.0166 14.6582 35.0525 14.5772 35.0975 14.4982Z" fill="#757575"/>
</g>
<mask id="mask13_2343_6107" style="mask-type:luminance" maskUnits="userSpaceOnUse" x="34" y="14" width="2" height="2">
<path d="M34.9544 14.9062C34.9224 15.1302 34.8894 15.3532 34.8564 15.5772C34.8774 15.4352 34.9254 15.2982 35.0004 15.1702L35.0974 14.4992C35.0234 14.6262 34.9754 14.7622 34.9544 14.9062Z" fill="white"/>
</mask>
<g mask="url(#mask13_2343_6107)">
<path d="M34.9904 14.7432L34.8934 15.4152C34.8774 15.4682 34.8654 15.5222 34.8574 15.5772L34.9554 14.9052C34.9624 14.8502 34.9744 14.7962 34.9904 14.7432Z" fill="white"/>
</g>
<path d="M50.5029 16.5262C50.4759 16.7042 50.4079 16.8742 50.2969 17.0282L50.2949 17.0312L50.2449 17.0952L50.2339 17.1092L50.1769 17.1722L50.1669 17.1812L50.1099 17.2372L50.1009 17.2462L50.0319 17.3042L50.0179 17.3152C49.9689 17.3532 49.9169 17.3892 49.8619 17.4232L49.8439 17.4332L49.7609 17.4812L49.7469 17.4883L49.6639 17.5272L49.6499 17.5342L49.5559 17.5732L49.5349 17.5812C49.5019 17.5932 49.4699 17.6052 49.4339 17.6162L49.3879 17.6302C49.3479 17.6422 49.3059 17.6532 49.2639 17.6622L49.2289 17.6702L49.1379 17.6882L49.0969 17.6953L49.0239 17.7062L48.9819 17.7112L48.8929 17.7202L48.8669 17.7222C48.8289 17.7252 48.7909 17.7272 48.7519 17.7282H48.7139H48.6379L48.5859 17.7262L48.5299 17.7242L48.4829 17.7212L48.4209 17.7162L48.3759 17.7112L48.3159 17.7042L48.2669 17.6982L48.2109 17.6882L48.1629 17.6792L48.1009 17.6673L48.0539 17.6562L47.9919 17.6402L47.9449 17.6283L47.8839 17.6102L47.8379 17.5962L47.7789 17.5752L47.7249 17.5562L47.6279 18.2292L47.6469 18.2362L47.6819 18.2482L47.7419 18.2692L47.7869 18.2832L47.8489 18.3012L47.8949 18.3142L47.9579 18.3292L48.0049 18.3392L48.0699 18.3532L48.0989 18.3582L48.1159 18.3612L48.1739 18.3702L48.2199 18.3772L48.2799 18.3842L48.3279 18.3893L48.3869 18.3942L48.4349 18.3972L48.4939 18.4002L48.5289 18.4012H48.5399H48.6259H48.6569C48.6959 18.4012 48.7349 18.3992 48.7729 18.3962L48.7919 18.3942L48.8879 18.3852L48.9249 18.3802L49.0019 18.3692L49.0189 18.3662L49.0399 18.3633L49.1329 18.3442L49.1689 18.3362C49.2099 18.3272 49.2519 18.3162 49.2919 18.3052L49.3389 18.2912L49.4399 18.2552L49.4619 18.2472L49.5549 18.2092L49.5699 18.2022L49.6509 18.1632L49.6659 18.1562L49.7489 18.1102L49.7669 18.0992L49.8449 18.0492L49.8469 18.0482L49.9209 17.9932L49.9369 17.9812L50.0059 17.9242L50.0159 17.9152L50.0709 17.8612L50.0819 17.8492L50.1379 17.7872L50.1499 17.7722L50.1999 17.7082L50.2009 17.7062L50.2019 17.7052C50.3109 17.5522 50.3809 17.3822 50.4059 17.2042C50.4379 16.9752 50.4709 16.7502 50.5029 16.5262Z" fill="#757575"/>
<path d="M47.7212 17.5543L47.6242 18.2273C47.4112 18.2233 47.2062 18.2383 47.0142 18.2883L46.9412 18.3093C46.8232 18.3473 46.7162 18.3983 46.6152 18.4583L46.7112 17.7863C46.8122 17.7263 46.9202 17.6743 47.0382 17.6363L47.1112 17.6163C47.3032 17.5663 47.5082 17.5513 47.7212 17.5543Z" fill="#757575"/>
<path d="M47.1112 17.6162L47.0382 17.6362C46.9202 17.6732 46.8122 17.7252 46.7112 17.7852L46.6152 18.4572C46.7162 18.3972 46.8222 18.3453 46.9402 18.3073L47.0132 18.2862C47.2052 18.2362 47.4092 18.2223 47.6232 18.2253L47.7212 17.5532L47.6582 17.5522C47.4682 17.5542 47.2832 17.5712 47.1112 17.6162Z" fill="white"/>
<mask id="mask14_2343_6107" style="mask-type:luminance" maskUnits="userSpaceOnUse" x="46" y="17" width="2" height="2">
<path d="M47.1112 17.6162L47.0382 17.6362C46.9202 17.6732 46.8122 17.7252 46.7112 17.7852L46.6152 18.4572C46.7162 18.3972 46.8222 18.3453 46.9402 18.3073L47.0132 18.2862C47.2052 18.2362 47.4092 18.2223 47.6232 18.2253L47.7212 17.5532L47.6582 17.5522C47.4682 17.5542 47.2832 17.5712 47.1112 17.6162Z" fill="white"/>
</mask>
<g mask="url(#mask14_2343_6107)">
<path d="M47.2582 17.5853C47.2072 17.5943 47.1592 17.6033 47.1112 17.6173L47.0382 17.6382C46.9202 17.6752 46.8112 17.7262 46.7122 17.7872L46.6162 18.4592C46.7162 18.3992 46.8232 18.3473 46.9412 18.3093L47.0142 18.2892C47.0632 18.2762 47.1122 18.2662 47.1612 18.2582C47.3112 18.2332 47.4652 18.2253 47.6252 18.2293L47.7222 17.5562C47.5622 17.5532 47.4062 17.5593 47.2582 17.5853Z" fill="#757575"/>
</g>
<path d="M47.7317 19.2943L47.6347 19.9662C42.0657 21.7352 35.1827 19.6712 32.2607 15.3582L32.3587 14.6852C35.2797 18.9992 42.1627 21.0633 47.7317 19.2943Z" fill="white"/>
<path d="M32.2617 15.3572C35.1837 19.6702 42.0667 21.7352 47.6357 19.9652L47.7327 19.2932C42.1627 21.0632 35.2807 18.9992 32.3597 14.6842L32.2617 15.3572Z" fill="#757575"/>
<mask id="mask15_2343_6107" style="mask-type:luminance" maskUnits="userSpaceOnUse" x="32" y="14" width="16" height="7">
<path d="M32.2617 15.3572C35.1837 19.6702 42.0667 21.7352 47.6357 19.9652L47.7327 19.2932C42.1627 21.0632 35.2807 18.9992 32.3597 14.6842L32.2617 15.3572Z" fill="white"/>
</mask>
<g mask="url(#mask15_2343_6107)">
<path d="M47.7319 19.2942L47.6349 19.9662C47.0489 20.1512 46.4489 20.2952 45.8389 20.3982L45.9359 19.7272C46.5449 19.6242 47.1459 19.4802 47.7319 19.2942Z" fill="#757575"/>
</g>
<mask id="mask16_2343_6107" style="mask-type:luminance" maskUnits="userSpaceOnUse" x="32" y="14" width="16" height="7">
<path d="M32.2617 15.3572C35.1837 19.6702 42.0667 21.7352 47.6357 19.9652L47.7327 19.2932C42.1627 21.0632 35.2807 18.9992 32.3597 14.6842L32.2617 15.3572Z" fill="white"/>
</mask>
<g mask="url(#mask16_2343_6107)">
<path d="M45.9371 19.7272L45.8391 20.3992C44.9311 20.5532 44.0031 20.6172 43.0781 20.5962L43.1761 19.9232C44.1001 19.9442 45.0281 19.8792 45.9371 19.7272Z" fill="#757575"/>
</g>
<mask id="mask17_2343_6107" style="mask-type:luminance" maskUnits="userSpaceOnUse" x="32" y="14" width="16" height="7">
<path d="M32.2617 15.3572C35.1837 19.6702 42.0667 21.7352 47.6357 19.9652L47.7327 19.2932C42.1627 21.0632 35.2807 18.9992 32.3597 14.6842L32.2617 15.3572Z" fill="white"/>
</mask>
<g mask="url(#mask17_2343_6107)">
<path d="M43.1756 19.9222L43.0786 20.5962C42.2586 20.5772 41.4406 20.4922 40.6396 20.3462L40.7356 19.6742C41.5376 19.8202 42.3546 19.9042 43.1756 19.9222Z" fill="#757575"/>
</g>
<mask id="mask18_2343_6107" style="mask-type:luminance" maskUnits="userSpaceOnUse" x="32" y="14" width="16" height="7">
<path d="M32.2617 15.3572C35.1837 19.6702 42.0667 21.7352 47.6357 19.9652L47.7327 19.2932C42.1627 21.0632 35.2807 18.9992 32.3597 14.6842L32.2617 15.3572Z" fill="white"/>
</mask>
<g mask="url(#mask18_2343_6107)">
<path d="M40.7349 19.6742L40.6389 20.3462C39.7639 20.1862 38.9079 19.9542 38.0889 19.6552L38.1849 18.9822C39.0049 19.2822 39.8609 19.5152 40.7349 19.6742Z" fill="#757575"/>
</g>
<mask id="mask19_2343_6107" style="mask-type:luminance" maskUnits="userSpaceOnUse" x="32" y="14" width="16" height="7">
<path d="M32.2617 15.3572C35.1837 19.6702 42.0667 21.7352 47.6357 19.9652L47.7327 19.2932C42.1627 21.0632 35.2807 18.9992 32.3597 14.6842L32.2617 15.3572Z" fill="white"/>
</mask>
<g mask="url(#mask19_2343_6107)">
<path d="M38.1857 18.9822L38.0887 19.6552C35.6687 18.7682 33.5687 17.2882 32.2617 15.3582L32.3597 14.6852C33.6657 16.6152 35.7647 18.0952 38.1857 18.9822Z" fill="#757575"/>
</g>
<path d="M42.4424 11.4812L45.5414 16.0562C45.7214 16.0482 45.8914 16.0242 46.0494 15.9752C46.2474 15.9102 46.4034 15.8192 46.5444 15.7102C46.6854 15.3322 47.0384 15.0112 47.5564 14.8472L47.6024 14.8342C48.6014 14.5392 49.8124 14.9272 50.3044 15.6992C50.7914 16.4602 50.3994 17.3102 49.4334 17.6172L49.3874 17.6312C48.8444 17.7912 48.2404 17.7492 47.7224 17.5542C47.5094 17.5502 47.3044 17.5652 47.1124 17.6162L47.0394 17.6362C46.9214 17.6732 46.8134 17.7252 46.7124 17.7852L47.7324 19.2932C42.1624 21.0622 35.2804 18.9992 32.3594 14.6842L34.8534 13.8922C34.8924 13.9372 34.9274 13.9872 34.9574 14.0372C35.0444 14.1862 35.0824 14.3392 35.0974 14.4982C34.8834 14.8662 34.8854 15.3132 35.1524 15.7322C35.6454 16.5052 36.8554 16.8922 37.8554 16.5982L37.9024 16.5842C38.8684 16.2762 39.2604 15.4272 38.7764 14.6662C38.5074 14.2472 38.0284 13.9412 37.4874 13.7962C37.3284 13.6812 37.1904 13.5552 37.0884 13.4122C37.0454 13.3502 37.0124 13.2832 36.9834 13.2162L42.4424 11.4812Z" fill="#B2B2B2"/>
</svg>
