<svg width="81" height="21" viewBox="0 0 81 21" fill="none" xmlns="http://www.w3.org/2000/svg">
<path d="M2.74186 2.11683C3.88086 1.20483 5.32185 0.670814 6.78385 0.651814C8.85486 0.601814 10.9659 1.53482 12.2339 3.18882C11.8599 3.54982 11.4909 3.91582 11.0969 4.25382C10.5429 3.58782 9.88386 2.99681 9.08786 2.63681C8.09086 2.15881 6.93485 2.02582 5.85885 2.28182C4.69685 2.53182 3.64087 3.21683 2.91687 4.15583C1.80487 5.58183 1.48386 7.60982 2.17186 9.29082C2.88686 8.63182 3.68985 8.05082 4.61085 7.71782C5.46085 7.38482 6.37985 7.27382 7.28985 7.28482C9.16385 7.29482 11.0369 7.26882 12.9109 7.29682C12.9939 8.55782 12.7669 9.84982 12.1779 10.9738C11.5559 12.1728 10.5029 13.1428 9.25186 13.6558C7.34586 14.4368 5.06186 14.2598 3.32186 13.1458C2.89786 12.8918 2.54085 12.5488 2.14585 12.2558C1.80285 13.2298 1.70686 14.2998 1.94686 15.3088C2.26986 16.6988 3.14886 17.9548 4.35586 18.7188C5.09886 19.1918 5.97585 19.4618 6.85885 19.4578C7.90985 19.4638 8.93686 19.0438 9.74386 18.3818C10.5229 17.7398 11.0849 16.7928 11.1209 15.7688C10.0089 15.7408 8.89686 15.7658 7.78486 15.7588C7.74586 15.2608 7.75486 14.7618 7.77586 14.2638C9.14486 14.2378 10.5159 14.2628 11.8859 14.2528C12.2379 14.2478 12.5899 14.2508 12.9409 14.2748C12.9689 15.4688 12.7689 16.6878 12.2059 17.7508C11.5929 18.9548 10.5499 19.9328 9.30485 20.4598C8.33585 20.8718 7.25986 21.0208 6.21286 20.9398C4.54186 20.8008 2.96385 19.9528 1.86985 18.6918C0.808853 17.4798 0.181865 15.8888 0.168865 14.2748C0.149865 13.1458 0.433864 12.0218 0.946864 11.0188C1.06886 10.8418 0.990861 10.6398 0.896861 10.4708C0.232861 9.20881 0.0238625 7.72382 0.269863 6.32282C0.541863 4.68182 1.43686 3.15083 2.74186 2.11683ZM6.10986 8.86582C4.89786 9.08382 3.75386 9.75082 3.01586 10.7428C4.06586 12.0448 5.78886 12.8508 7.46786 12.5858C8.77486 12.3628 9.96887 11.5358 10.6389 10.3928C9.51287 9.17083 7.74786 8.56482 6.10986 8.86582Z" fill="white"/>
<path d="M6.59659 9.5638C7.25559 9.4228 7.94859 9.9518 7.98659 10.6238C8.06659 11.2708 7.51159 11.9048 6.85959 11.9098C6.21859 11.9628 5.61558 11.4008 5.61958 10.7588C5.58958 10.1878 6.03959 9.6558 6.59659 9.5638Z" fill="white"/>
<path d="M22.2053 11.3998H26.4353C26.4353 11.4728 26.4373 11.5748 26.4423 11.7058C26.4573 12.0508 26.4643 12.2848 26.4643 12.4058C26.4643 13.9078 26.0343 15.0748 25.1733 15.9068C24.3123 16.7388 23.0993 17.1538 21.5333 17.1538C20.6583 17.1538 19.8773 17.0248 19.1923 16.7668C18.5063 16.5088 17.9063 16.1198 17.3903 15.5998C16.8843 15.0848 16.4963 14.4788 16.2273 13.7838C15.9573 13.0888 15.8223 12.3448 15.8223 11.5518C15.8223 10.7448 15.9593 10.0008 16.2343 9.31984C16.5093 8.63884 16.9163 8.03884 17.4563 7.51784C17.9763 7.00684 18.5863 6.61783 19.2873 6.35083C19.9873 6.08383 20.7363 5.94983 21.5333 5.94983C22.3743 5.94983 23.1273 6.10283 23.7903 6.40883C24.4543 6.71483 25.0463 7.18483 25.5663 7.81683L24.2973 8.77184C23.9373 8.35384 23.5313 8.04283 23.0793 7.83783C22.6273 7.63383 22.1213 7.53183 21.5623 7.53183C20.4053 7.53183 19.4603 7.90283 18.7283 8.64383C17.9963 9.38583 17.6303 10.3498 17.6303 11.5358C17.6303 12.7418 17.9963 13.7198 18.7283 14.4718C19.4603 15.2228 20.4093 15.5988 21.5763 15.5988C22.5683 15.5988 23.3483 15.3678 23.9173 14.9058C24.4863 14.4438 24.7703 13.8138 24.7703 13.0168V12.8638H22.2033V11.3998H22.2053Z" fill="white"/>
<path d="M34.6615 16.8698H33.0785V15.9728C32.7965 16.3718 32.4665 16.6678 32.0905 16.8628C31.7135 17.0568 31.2825 17.1548 30.7955 17.1548C29.8185 17.1548 29.0485 16.8208 28.4875 16.1518C27.9255 15.4838 27.6455 14.5678 27.6455 13.4058C27.6455 12.3018 27.9325 11.4108 28.5065 10.7328C29.0805 10.0548 29.8295 9.71582 30.7525 9.71582C31.3165 9.71582 31.7995 9.83382 32.2005 10.0698C32.6015 10.3058 32.8945 10.6448 33.0795 11.0868V9.95682H34.6625L34.6615 16.8698ZM33.1225 13.3908C33.1225 12.6758 32.9555 12.1198 32.6225 11.7208C32.2895 11.3218 31.8235 11.1228 31.2255 11.1228C30.6275 11.1228 30.1565 11.3278 29.8145 11.7388C29.4715 12.1498 29.3005 12.7198 29.3005 13.4488C29.3005 14.1828 29.4655 14.7498 29.7965 15.1478C30.1275 15.5468 30.5935 15.7458 31.1965 15.7458C31.7655 15.7458 32.2285 15.5298 32.5855 15.0968C32.9435 14.6648 33.1225 14.0958 33.1225 13.3908Z" fill="white"/>
<path d="M38.4326 16.8698H36.8496V9.95583H38.3376V11.0858C38.6536 10.6048 39.0126 10.2528 39.4136 10.0318C39.8146 9.81083 40.2876 9.69983 40.8326 9.69983C41.3726 9.69983 41.8196 9.81283 42.1746 10.0388C42.5296 10.2648 42.7996 10.6088 42.9846 11.0708C43.3496 10.5948 43.7366 10.2468 44.1476 10.0278C44.5586 9.80883 45.0266 9.69983 45.5516 9.69983C46.0086 9.69983 46.4076 9.78383 46.7476 9.95183C47.0876 10.1198 47.3526 10.3638 47.5426 10.6848C47.6296 10.8358 47.6946 11.0158 47.7356 11.2248C47.7766 11.4338 47.7976 11.7328 47.7976 12.1218V12.6758V16.8698H46.2146V13.3178C46.2146 12.3888 46.1166 11.7778 45.9196 11.4838C45.7226 11.1898 45.3716 11.0428 44.8656 11.0428C44.2436 11.0428 43.7996 11.2408 43.5346 11.6368C43.2696 12.0328 43.1376 12.7268 43.1376 13.7188V16.8698H41.5406V13.3178C41.5406 12.4618 41.4376 11.8688 41.2306 11.5378C41.0236 11.2068 40.6676 11.0418 40.1616 11.0418C39.8506 11.0418 39.5656 11.1128 39.3086 11.2528C39.0506 11.3938 38.8466 11.5888 38.6956 11.8358C38.5986 11.9958 38.5306 12.1928 38.4916 12.4268C38.4526 12.6598 38.4336 13.0908 38.4336 13.7178V16.8698H38.4326Z" fill="white"/>
<path d="M56.4261 16.8698H54.8432V15.9728C54.5612 16.3718 54.2311 16.6678 53.8551 16.8628C53.4781 17.0568 53.0472 17.1548 52.5602 17.1548C51.5832 17.1548 50.8132 16.8208 50.2522 16.1518C49.6902 15.4838 49.4102 14.5678 49.4102 13.4058C49.4102 12.3018 49.6971 11.4108 50.2711 10.7328C50.8451 10.0548 51.5942 9.71582 52.5172 9.71582C53.0812 9.71582 53.5641 9.83382 53.9651 10.0698C54.3661 10.3058 54.6591 10.6448 54.8441 11.0868V9.95682H56.4272V16.8698H56.4261ZM54.8871 13.3908C54.8871 12.6758 54.7201 12.1198 54.3871 11.7208C54.0541 11.3218 53.5882 11.1228 52.9902 11.1228C52.3922 11.1228 51.9211 11.3278 51.5791 11.7388C51.2361 12.1498 51.0652 12.7198 51.0652 13.4488C51.0652 14.1828 51.2302 14.7498 51.5612 15.1478C51.8922 15.5468 52.3582 15.7458 52.9612 15.7458C53.5302 15.7458 53.9932 15.5298 54.3502 15.0968C54.7082 14.6648 54.8871 14.0958 54.8871 13.3908Z" fill="white"/>
<path d="M58.6143 16.8698V9.95584H60.1023V11.0858C60.4183 10.6098 60.7903 10.2618 61.2183 10.0428C61.6463 9.82385 62.1663 9.71484 62.7793 9.71484C63.2943 9.71484 63.7333 9.79685 64.0953 9.95885C64.4573 10.1218 64.7413 10.3638 64.9453 10.6848C65.0673 10.8748 65.1543 11.0958 65.2083 11.3488C65.2613 11.6018 65.2883 12.0438 65.2883 12.6758V16.8698H63.6913V13.3178C63.6913 12.4088 63.5803 11.8048 63.3593 11.5058C63.1383 11.2068 62.7453 11.0569 62.1813 11.0569C61.8113 11.0569 61.4823 11.1248 61.1933 11.2608C60.9043 11.3968 60.6763 11.5889 60.5113 11.8369C60.3943 12.0019 60.3133 12.2149 60.2673 12.4749C60.2213 12.7349 60.1983 13.1498 60.1983 13.7188V16.8698H58.6143Z" fill="white"/>
<path d="M72.7131 16.8698H66.2871L70.1381 11.3418H66.6731V9.95581H72.7131L68.9421 15.4848H72.7131V16.8698Z" fill="white"/>
<path d="M80.6107 16.8698H79.0277V15.9728C78.7457 16.3718 78.4157 16.6678 78.0397 16.8628C77.6627 17.0568 77.2317 17.1548 76.7447 17.1548C75.7677 17.1548 74.9977 16.8208 74.4367 16.1518C73.8747 15.4838 73.5947 14.5678 73.5947 13.4058C73.5947 12.3018 73.8817 11.4108 74.4557 10.7328C75.0297 10.0548 75.7787 9.71582 76.7017 9.71582C77.2657 9.71582 77.7487 9.83382 78.1497 10.0698C78.5507 10.3058 78.8437 10.6448 79.0287 11.0868V9.95682H80.6117V16.8698H80.6107ZM79.0717 13.3908C79.0717 12.6758 78.9047 12.1198 78.5717 11.7208C78.2387 11.3218 77.7727 11.1228 77.1747 11.1228C76.5767 11.1228 76.1057 11.3278 75.7637 11.7388C75.4207 12.1498 75.2497 12.7198 75.2497 13.4488C75.2497 14.1828 75.4147 14.7498 75.7457 15.1478C76.0767 15.5468 76.5427 15.7458 77.1457 15.7458C77.7147 15.7458 78.1777 15.5298 78.5347 15.0968C78.8937 14.6648 79.0717 14.0958 79.0717 13.3908Z" fill="white"/>
</svg>
