<svg width="64" height="15" viewBox="0 0 64 15" fill="none" xmlns="http://www.w3.org/2000/svg">
<path d="M11.2098 0.0517578C11.6198 0.412758 11.7308 0.824759 11.6128 1.38376C11.3368 2.68776 11.1468 4.01076 10.9018 5.32176C10.7698 6.03076 10.5598 6.19176 9.85379 6.19776C9.13579 6.20476 8.4178 6.19076 7.6998 6.20276C6.9718 6.21476 6.68378 6.44976 6.54678 7.14976C6.39378 7.93176 6.25277 8.71576 6.11877 9.50076C6.04877 9.90876 6.23178 10.1558 6.64478 10.1998C6.92078 10.2288 7.20278 10.2098 7.48178 10.2098C9.27678 10.2098 11.0718 10.2078 12.8678 10.2108C13.7308 10.2118 14.0418 10.5968 13.8888 11.4578C13.7638 12.1638 13.6528 12.8728 13.5128 13.5758C13.4028 14.1278 13.1638 14.3338 12.6128 14.3368C10.4988 14.3458 8.38378 14.3488 6.26978 14.3358C5.60478 14.3318 5.27778 13.8878 5.39178 13.2178C5.51178 12.5108 5.6328 11.8038 5.7558 11.0978C5.8578 10.5138 5.68279 10.2868 5.07379 10.2758C4.31579 10.2618 3.55777 10.2758 2.79977 10.2708C2.06677 10.2658 1.88678 10.0418 2.01678 9.30576C2.14778 8.56076 2.28277 7.81576 2.41577 7.07076C2.52977 6.43476 2.36179 6.24176 1.71579 6.19676C1.36679 6.17276 1.02278 6.09376 0.675781 6.03876C0.675781 5.75976 0.675781 5.47976 0.675781 5.20076C1.04778 3.86176 0.818784 4.13976 2.12878 4.10976C3.01978 4.08976 3.0198 4.10676 2.8638 5.01876C2.8508 5.09676 2.84578 5.17676 2.83478 5.25576C2.74278 5.95176 2.88578 6.13076 3.56778 6.13876C4.22578 6.14676 4.88378 6.14676 5.54178 6.13876C6.37178 6.12876 6.6548 5.90476 6.8028 5.09576C7.0438 3.78376 7.26678 2.46976 7.49078 1.15476C7.56578 0.713758 7.65777 0.289761 8.09677 0.0527611C9.13477 0.0517611 10.1728 0.0517578 11.2098 0.0517578Z" fill="white"/>
<path d="M32.9258 5.02973C34.8808 3.83073 36.6608 3.98273 37.8958 5.43373C39.0568 6.79873 39.0628 8.96773 37.9088 10.3367C36.6828 11.7907 34.8968 11.9517 32.9118 10.7507C32.8908 10.9167 32.8588 11.0607 32.8568 11.2047C32.8498 11.6827 32.8548 12.1607 32.8538 12.6387C32.8528 13.5257 32.5128 13.7827 31.6388 13.5317C31.5308 13.5007 31.4228 13.3757 31.3708 13.2677C31.3228 13.1687 31.3458 13.0337 31.3458 12.9147C31.3448 10.2847 31.3398 7.65573 31.3538 5.02573C31.3548 4.81373 31.4598 4.43473 31.5588 4.41973C31.9388 4.36273 32.3428 4.38873 32.7208 4.46473C32.8188 4.48673 32.8518 4.81073 32.9258 5.02973ZM35.0758 5.56473C33.7588 5.54273 32.7588 6.51273 32.7368 7.83273C32.7138 9.17673 33.6558 10.1817 34.9658 10.2097C36.2568 10.2377 37.2638 9.24273 37.2878 7.91473C37.3108 6.64173 36.3168 5.58573 35.0758 5.56473Z" fill="white"/>
<path d="M27.1448 2.16278C28.0678 2.17678 28.8548 2.48778 29.4858 3.18078C29.7488 3.46878 29.7419 3.66678 29.4069 3.89978C28.8209 4.30878 28.8378 4.31578 28.2018 3.90178C27.7308 3.59478 27.2128 3.49878 26.6598 3.64578C26.2438 3.75678 25.9278 3.98578 25.8478 4.42678C25.7618 4.89678 25.9788 5.25778 26.3828 5.46778C26.8588 5.71578 27.3669 5.89978 27.8509 6.13178C28.3169 6.35478 28.7879 6.57578 29.2249 6.84878C30.1319 7.41478 30.3618 8.29678 30.2478 9.29278C30.1378 10.2448 29.6168 10.9058 28.7308 11.2778C27.1398 11.9468 25.0408 11.4568 24.1148 10.1788C23.9758 9.98678 23.7979 9.59878 23.8719 9.51878C24.1179 9.25378 24.4628 9.07078 24.7928 8.90278C24.8478 8.87478 25.0449 9.05679 25.1349 9.17379C25.7619 9.98879 26.6038 10.2258 27.5798 10.0948C28.1588 10.0168 28.5708 9.66978 28.6708 9.21378C28.7938 8.64878 28.6299 8.24178 28.0709 7.90578C27.7149 7.69178 27.3188 7.54378 26.9398 7.36878C26.4708 7.15178 25.9788 6.97378 25.5338 6.71478C24.4888 6.10578 24.1038 5.18478 24.3568 4.03078C24.5668 3.07278 25.4708 2.31378 26.5498 2.19778C26.7458 2.17678 26.9458 2.17478 27.1448 2.16278Z" fill="white"/>
<path d="M39.565 7.91673C39.56 5.79273 41.2059 4.16173 43.3699 4.14773C45.5109 4.13373 47.2169 5.79273 47.2189 7.89073C47.2209 9.98173 45.5029 11.6497 43.3649 11.6317C41.2229 11.6137 39.57 9.99873 39.565 7.91673ZM43.3489 10.2507C44.6989 10.2637 45.6849 9.30173 45.7099 7.94873C45.7339 6.58873 44.736 5.52373 43.407 5.49473C42.108 5.46573 41.0389 6.54573 41.0379 7.88973C41.0349 9.23473 42.0179 10.2377 43.3489 10.2507Z" fill="white"/>
<path d="M60.3257 11.5878C59.4237 11.5888 58.5807 11.4038 57.8997 10.7638C57.6837 10.5608 57.4407 10.3428 57.7277 10.0058C58.1757 9.47977 58.4457 9.39878 58.8447 9.69478C59.4737 10.1608 60.1657 10.3258 60.9307 10.1328C61.2777 10.0458 61.5697 9.89077 61.6027 9.47877C61.6337 9.08577 61.3737 8.89978 61.0657 8.77778C60.6407 8.60878 60.1997 8.48078 59.7767 8.30978C59.4457 8.17578 59.1057 8.03978 58.8137 7.84078C57.7007 7.08178 57.7337 5.44978 58.8607 4.71278C59.8247 4.08178 61.3047 4.11678 62.1857 4.80078C62.4127 4.97778 62.7087 5.13678 62.4257 5.51778C62.0357 6.04178 61.8487 6.09678 61.4357 5.94578C61.0387 5.79978 60.5977 5.70278 60.1797 5.71278C59.9747 5.71778 59.6987 5.97878 59.5967 6.19078C59.4547 6.48578 59.6827 6.72378 59.9567 6.84878C60.2627 6.98878 60.5877 7.09078 60.8997 7.21878C61.3587 7.40778 61.8467 7.55077 62.2637 7.80877C63.4677 8.55077 63.4817 10.2638 62.3197 11.0788C61.8207 11.4288 61.1897 11.5888 60.3257 11.5878Z" fill="white"/>
<path d="M19.3678 9.98477C20.4838 9.98477 21.4998 9.98177 22.5168 9.98577C23.1298 9.98877 23.1578 10.0258 23.1578 10.6988C23.1578 11.3758 23.1238 11.4238 22.5238 11.4258C21.1678 11.4318 19.8108 11.4308 18.4548 11.4268C17.8348 11.4248 17.7938 11.3868 17.7928 10.7918C17.7898 8.17877 17.7898 5.56577 17.7928 2.95177C17.7938 2.35077 17.8238 2.32977 18.4498 2.32277C18.5098 2.32177 18.5698 2.32277 18.6298 2.32277C19.3658 2.32577 19.3688 2.32577 19.3688 3.04577C19.3698 5.12077 19.3688 7.19477 19.3688 9.26977C19.3678 9.48377 19.3678 9.69877 19.3678 9.98477Z" fill="white"/>
<path d="M54.8807 4.35876C55.3767 4.35876 55.7907 4.34775 56.2037 4.36175C56.6867 4.37775 56.7117 4.43675 56.7227 5.07575C56.7287 5.45175 56.7097 5.75676 56.2027 5.72576C55.7907 5.70076 55.3757 5.72076 54.9517 5.72076C54.9207 5.88276 54.8877 5.97775 54.8877 6.07175C54.8837 7.12775 54.8707 8.18375 54.8897 9.23875C54.9017 9.95875 55.2047 10.2328 55.9277 10.2498C56.5597 10.2648 56.8437 10.6898 56.5857 11.2858C56.5297 11.4148 56.3257 11.5498 56.1827 11.5588C55.7477 11.5848 55.3007 11.6028 54.8737 11.5298C54.1427 11.4038 53.6667 10.9378 53.4767 10.2198C53.3957 9.91476 53.3537 9.59176 53.3517 9.27576C53.3407 7.16376 53.3397 5.05276 53.3577 2.94076C53.3597 2.74076 53.4987 2.38275 53.6067 2.37075C53.9867 2.32575 54.3837 2.37976 54.7657 2.44876C54.8277 2.45976 54.8717 2.72975 54.8767 2.88175C54.8907 3.33775 54.8807 3.79576 54.8807 4.35876Z" fill="white"/>
<path d="M49.682 5.15776C50.307 4.50876 51.024 4.27376 51.822 4.22876C52.179 4.20876 52.344 4.34576 52.317 4.70976C52.305 4.86776 52.307 5.02876 52.317 5.18776C52.337 5.53976 52.196 5.66876 51.827 5.67676C50.353 5.70776 49.666 6.42876 49.658 7.91476C49.653 8.90976 49.644 9.90576 49.663 10.9008C49.671 11.2938 49.513 11.4498 49.137 11.4288C49.018 11.4218 48.897 11.4198 48.779 11.4298C48.352 11.4648 48.16 11.2968 48.179 10.8448C48.206 10.2088 48.186 9.57076 48.186 8.93376C48.186 7.61976 48.184 6.30576 48.187 4.99176C48.189 4.37876 48.207 4.36576 48.833 4.35876C48.873 4.35876 48.913 4.35876 48.952 4.35876C49.631 4.36076 49.631 4.36076 49.682 5.15776Z" fill="white"/>
</svg>
