<?xml version="1.0" encoding="utf-8"?>
<!-- Generator: Adobe Illustrator 17.0.0, SVG Export Plug-In . SVG Version: 6.00 Build 0)  -->
<!DOCTYPE svg PUBLIC "-//W3C//DTD SVG 1.1//EN" "http://www.w3.org/Graphics/SVG/1.1/DTD/svg11.dtd">
<svg version="1.1" id="Layer_1" xmlns="http://www.w3.org/2000/svg" xmlns:xlink="http://www.w3.org/1999/xlink" x="0px" y="0px"
	 width="57.059px" height="11.51px" viewBox="-26.506 -19.874 57.059 11.51" enable-background="new -26.506 -19.874 57.059 11.51"
	 xml:space="preserve">
<g>
	<path fill="#FFFFFF" d="M-17.151-19.874l-5.044,3.527l2.043,1.427l0.665-0.465v2.522l-7.019-4.904v9.403h2.489v-4.797l6.866,4.797
		V-19.874z"/>
	<path fill="#FFFFFF" d="M-19.487-12.231v-0.631l-3.847-2.688L-19.487-12.231z"/>
	<path fill="#FFFFFF" d="M-11.702-12.998v1.365h-1.283v-4.095h3.071c1.475,0,1.91,0.583,1.91,1.332v0.055
		c0,0.732-0.446,1.343-1.91,1.343H-11.702z M-11.702-13.917h1.767c0.402,0,0.594-0.149,0.594-0.429v-0.017
		c0-0.281-0.182-0.435-0.594-0.435h-1.767V-13.917z"/>
	<path fill="#FFFFFF" d="M-4.35-12.381h-2.482l-0.369,0.749h-1.304l2.069-4.095h1.662l2.191,4.095h-1.381L-4.35-12.381z
		 M-5.616-14.842l-0.76,1.536h1.552L-5.616-14.842z"/>
	<path fill="#FFFFFF" d="M-0.938-11.633H-2.22v-4.095h3.302c1.365,0,1.778,0.473,1.778,1.062v0.066c0,0.589-0.49,0.809-0.76,0.897
		c0.418,0.121,0.776,0.413,0.776,0.941v0.6c0,0.33,0.038,0.435,0.077,0.501v0.027H1.649c-0.051-0.076-0.072-0.168-0.061-0.259
		v-0.473c0-0.501-0.22-0.721-0.853-0.721h-1.673V-11.633z M-0.938-13.994h1.943c0.369,0,0.517-0.176,0.517-0.402v-0.006
		c0-0.215-0.143-0.396-0.517-0.396h-1.943V-13.994z"/>
	<path fill="#FFFFFF" d="M5.066-14.759H3.305v-0.969h4.822v0.969H6.36v3.126H5.066V-14.759z"/>
	<path fill="#FFFFFF" d="M10.162-15.728l2.614,2.576v-2.576h1.266v4.095h-1.266l-2.779-2.713v2.713H8.731v-4.095H10.162z"/>
	<path fill="#FFFFFF" d="M19.122-15.728v0.93h-3.049v0.605h2.978v0.936h-2.978v0.671h3.104v0.952h-4.37v-4.095H19.122z"/>
	<path fill="#FFFFFF" d="M21.13-11.633h-1.282v-4.095h3.302c1.365,0,1.778,0.473,1.778,1.062v0.066c0,0.589-0.49,0.809-0.76,0.897
		c0.418,0.121,0.776,0.413,0.776,0.941v0.6c0,0.33,0.039,0.435,0.077,0.501v0.027h-1.304c-0.051-0.076-0.072-0.168-0.061-0.259
		v-0.473c0-0.501-0.22-0.721-0.853-0.721H21.13V-11.633z M21.13-13.994h1.943c0.369,0,0.517-0.176,0.517-0.402v-0.006
		c0-0.215-0.143-0.396-0.517-0.396H21.13V-13.994z"/>
	<path fill="#FFFFFF" d="M27.773-11.561c-2.147,0-2.394-0.925-2.394-1.464v-0.061h1.338c0.016,0.248,0.16,0.649,1.216,0.649h0.077
		c1.079,0,1.2-0.215,1.2-0.435c0-0.237-0.127-0.385-1.073-0.413l-0.705-0.017c-1.53-0.044-1.998-0.561-1.998-1.2v-0.049
		c0-0.611,0.363-1.249,2.229-1.249h0.38c1.937,0,2.378,0.677,2.378,1.293v0.055h-1.332c-0.028-0.154-0.11-0.49-1.183-0.49h-0.088
		c-0.991,0-1.062,0.176-1.062,0.352c0,0.176,0.11,0.336,0.947,0.352l0.688,0.011c1.541,0.027,2.163,0.402,2.163,1.216v0.077
		c0,0.677-0.341,1.37-2.4,1.37H27.773z"/>
</g>
</svg>
