<svg width="54" height="38" viewBox="0 0 54 38" fill="none" xmlns="http://www.w3.org/2000/svg">
<path d="M22.7839 0.0268555C23.3979 0.886855 24.0359 1.73083 24.6219 2.60983C26.0729 4.78383 27.2879 7.08884 28.3289 9.48584C28.3409 9.51384 28.3549 9.54084 28.3779 9.58884C28.4949 9.36184 28.6019 9.15086 28.7109 8.94086C30.2169 6.03286 32.0239 3.32685 34.1529 0.836853C34.2099 0.769853 34.2569 0.750839 34.3419 0.778839C34.8959 0.964839 35.4529 1.14586 36.0079 1.32886C36.0449 1.34086 36.0789 1.35885 36.1269 1.37885C36.0489 1.46785 35.9779 1.55084 35.9059 1.63184C33.2059 4.70384 31.0349 8.11386 29.3579 11.8419C29.3329 11.8979 29.3289 11.9818 29.3509 12.0388C30.3489 14.7488 31.1109 17.5238 31.6589 20.3578C31.6659 20.3958 31.6759 20.4338 31.6919 20.5028C31.7169 20.4128 31.7359 20.3489 31.7519 20.2849C32.4459 17.5959 33.4019 15.0039 34.6489 12.5219C36.2249 9.38385 38.1999 6.52184 40.5999 3.95584C40.6669 3.88384 40.7329 3.81085 40.8069 3.74585C40.8299 3.72585 40.8879 3.71384 40.9109 3.72784C41.1549 3.87884 41.3969 4.03183 41.6349 4.19183C41.8929 4.36383 42.1459 4.54284 42.4119 4.72684C42.2599 4.88684 42.1149 5.03883 41.9709 5.19183C40.0789 7.20183 38.4669 9.41884 37.1109 11.8218C35.4239 14.8128 34.2029 17.9859 33.3959 21.3209C33.0269 22.8459 32.7529 24.3878 32.5559 25.9428C32.5409 26.0628 32.5269 26.1838 32.5119 26.3138C32.4569 26.3138 32.4099 26.3138 32.3639 26.3138C31.1799 26.3138 29.9969 26.3138 28.8129 26.3138C28.6469 26.3138 28.6509 26.3129 28.6299 26.1479C28.4929 25.0689 28.3689 23.9879 28.2119 22.9109C27.9879 21.3749 27.6639 19.8588 27.2889 18.3528C27.2519 18.2048 27.2119 18.0579 27.1639 17.9109C26.3789 20.6589 25.8739 23.4578 25.5949 26.3138C25.5429 26.3138 25.4979 26.3138 25.4519 26.3138C24.2169 26.3138 22.9819 26.3118 21.7479 26.3168C21.6249 26.3168 21.5869 26.2899 21.5719 26.1609C21.4229 24.8449 21.2149 23.5388 20.9499 22.2408C20.4749 19.9168 19.8209 17.6448 18.9609 15.4338C17.8019 12.4528 16.3129 9.65383 14.3869 7.09283C13.6659 6.13383 12.8889 5.22086 12.0479 4.36386C12.0209 4.33586 11.9969 4.30584 11.9619 4.26584C12.0879 4.18084 12.2059 4.09984 12.3269 4.02084C13.2729 3.40584 14.2529 2.84984 15.2679 2.35684C15.3449 2.31884 15.3859 2.32684 15.4449 2.39084C17.0489 4.14784 18.4389 6.06184 19.6519 8.10583C21.1549 10.6378 22.3449 13.3118 23.2759 16.1028C23.7719 17.5898 24.1859 19.0999 24.5279 20.6299C24.5349 20.6599 24.5439 20.6899 24.5709 20.7209C24.5979 20.5949 24.6239 20.4698 24.6509 20.3438C24.6799 20.2138 24.7099 20.0839 24.7389 19.9529C25.1239 18.2149 25.6109 16.5058 26.1889 14.8228C26.2089 14.7648 26.2159 14.6899 26.1969 14.6339C25.0469 11.2229 23.5439 7.97785 21.5899 4.94885C20.7189 3.59985 19.7659 2.31183 18.7199 1.09283C18.6979 1.06683 18.6769 1.03883 18.6449 0.997833C19.0289 0.884833 19.3999 0.76984 19.7729 0.66684C20.7079 0.40684 21.6549 0.200859 22.6139 0.0488586C22.6319 0.0458586 22.6479 0.0348555 22.6649 0.0268555C22.7049 0.0268555 22.7449 0.0268555 22.7839 0.0268555Z" fill="white"/>
<path d="M0.250977 30.1798C0.745977 30.1788 1.24197 30.1798 1.73697 30.1738C1.83397 30.1728 1.83098 30.2368 1.84598 30.2938C2.18798 31.6608 2.52897 33.0278 2.87097 34.3958C2.96197 34.7618 3.05798 35.1258 3.14398 35.4928C3.16598 35.5888 3.19998 35.6348 3.31998 35.5988C3.64998 33.8648 3.98096 32.1188 4.31396 30.3658C4.84296 30.3658 5.36798 30.3658 5.90698 30.3658C5.96398 30.6338 6.02196 30.9048 6.07996 31.1758C6.38696 32.6238 6.69397 34.0718 7.00397 35.5188C7.01097 35.5528 7.05497 35.5798 7.08197 35.6098C7.10597 35.5758 7.14297 35.5458 7.15097 35.5088C7.39297 34.3998 7.63197 33.2908 7.87097 32.1818C8.01397 31.5178 8.15798 30.8548 8.30298 30.1838C8.82598 30.1838 9.34697 30.1838 9.87497 30.1838C9.76997 30.6648 9.66696 31.1408 9.56296 31.6158C9.18796 33.3258 8.81296 35.0368 8.43796 36.7468C8.39196 36.9548 8.39396 36.9558 8.17996 36.9558C7.49196 36.9558 6.80397 36.9548 6.11597 36.9578C6.02997 36.9578 5.99596 36.9348 5.97696 36.8468C5.69896 35.5618 5.41597 34.2768 5.13397 32.9918C5.12697 32.9578 5.11597 32.9248 5.09897 32.8578C4.81697 34.2428 4.54198 35.5948 4.26498 36.9558C4.21898 36.9558 4.18097 36.9558 4.14197 36.9558C3.44197 36.9558 2.74196 36.9538 2.04196 36.9578C1.95096 36.9578 1.91497 36.9338 1.89297 36.8428C1.36297 34.6808 0.829959 32.5198 0.295959 30.3588C0.284959 30.3138 0.265977 30.2718 0.250977 30.2278C0.250977 30.2118 0.250977 30.1958 0.250977 30.1798Z" fill="white"/>
<path d="M0.250977 25.3429C0.265977 25.1409 0.282983 24.9389 0.294983 24.7369C0.402983 22.8399 0.716968 20.9779 1.22397 19.1469C1.23097 19.1209 1.24097 19.0969 1.25797 19.0459C2.66697 21.2999 3.58696 23.7239 4.13696 26.3039C4.10096 26.3079 4.07397 26.3129 4.04797 26.3129C2.80197 26.3129 1.55597 26.3129 0.309967 26.3129C0.289967 26.3129 0.270977 26.3109 0.250977 26.3089C0.250977 25.9879 0.250977 25.6659 0.250977 25.3429Z" fill="white"/>
<path d="M18.3819 26.3148C18.3189 26.3148 18.2729 26.3148 18.2269 26.3148C17.0429 26.3148 15.8599 26.3128 14.6759 26.3178C14.5569 26.3178 14.5129 26.2969 14.4949 26.1649C14.2739 24.5839 13.9549 23.0228 13.5269 21.4848C12.9509 19.4098 12.1939 17.4048 11.2199 15.4828C10.1069 13.2868 8.74994 11.2589 7.05994 9.46286C6.92294 9.31786 6.76193 9.19486 6.60693 9.05786C7.46693 8.05286 8.35794 7.15184 9.28894 6.33484C9.47894 6.50984 9.67495 6.66785 9.84595 6.84985C11.6939 8.82085 13.208 11.0268 14.459 13.4178C15.814 16.0078 16.8109 18.7328 17.5109 21.5688C17.8779 23.0568 18.1589 24.5619 18.3519 26.0829C18.3609 26.1529 18.3699 26.2228 18.3819 26.3148Z" fill="white"/>
<path d="M7.40505 26.3058C7.15605 24.9068 6.81403 23.5409 6.36003 22.2039C5.58103 19.9099 4.52106 17.7599 3.07506 15.8079C2.95306 15.6439 2.82306 15.4859 2.70406 15.3199C2.68006 15.2869 2.66804 15.2218 2.68404 15.1878C3.23204 13.9898 3.87105 12.8408 4.59505 11.7398C4.60105 11.7308 4.61106 11.7238 4.63106 11.7048C4.86106 11.9698 5.09303 12.2288 5.31703 12.4958C6.52303 13.9358 7.53704 15.5028 8.38704 17.1758C9.65304 19.6668 10.5221 22.2929 11.0581 25.0319C11.1401 25.4519 11.212 25.8728 11.291 26.3048C9.98903 26.3058 8.70205 26.3058 7.40505 26.3058Z" fill="white"/>
<path d="M39.446 26.3069C38.827 26.3069 38.215 26.3069 37.584 26.3069C38.565 19.3249 41.266 13.1689 46.191 8.0249C46.608 8.4969 47.015 8.95791 47.424 9.42191C42.917 14.1859 40.389 19.8729 39.446 26.3069Z" fill="white"/>
<path d="M17.1698 33.5308C17.1618 34.3318 16.9328 35.0598 16.4638 35.7058C15.8498 36.5518 15.0198 37.0248 13.9758 37.1198C13.3548 37.1758 12.7378 37.1478 12.1538 36.9148C10.9178 36.4208 10.1918 35.4868 9.9568 34.1938C9.7798 33.2168 9.9378 32.2788 10.5178 31.4498C11.1358 30.5658 11.9978 30.0918 13.0688 29.9908C13.6818 29.9328 14.2898 29.9648 14.8698 30.1818C16.1158 30.6478 16.8448 31.5568 17.0958 32.8538C17.1388 33.0758 17.1458 33.3048 17.1698 33.5308ZM13.4628 31.3718C13.4358 31.3718 13.4078 31.3698 13.3808 31.3718C12.5138 31.4308 11.9048 31.8878 11.6358 32.6848C11.4968 33.0978 11.4668 33.5228 11.5298 33.9528C11.6638 34.8648 12.2678 35.6278 13.2868 35.7358C14.1468 35.8268 14.9198 35.4568 15.3038 34.6698C15.6498 33.9588 15.6568 33.2258 15.3488 32.5028C14.9998 31.6888 14.2428 31.3508 13.4628 31.3718Z" fill="white"/>
<path d="M29.2681 36.9949C29.2681 34.6969 29.2681 32.4109 29.2681 30.1129C29.3141 30.1129 29.3521 30.1129 29.3911 30.1129C30.2091 30.1129 31.0271 30.1069 31.8451 30.1149C32.6491 30.1229 33.4141 30.2839 34.0901 30.7479C34.9431 31.3319 35.3751 32.1579 35.4531 33.1759C35.4981 33.7579 35.4561 34.3319 35.2321 34.8789C34.7901 35.9559 33.978 36.6069 32.86 36.8739C32.527 36.9529 32.1761 36.9829 31.8331 36.9899C31.0271 37.0059 30.2211 36.9949 29.4151 36.9949C29.3681 36.9949 29.3221 36.9949 29.2681 36.9949ZM30.804 31.4499C30.804 32.8609 30.804 34.2539 30.804 35.6659C31.281 35.6539 31.7501 35.6689 32.2141 35.6229C33.0141 35.5439 33.6231 34.9909 33.7961 34.2339C33.8931 33.8109 33.9021 33.3839 33.8201 32.9589C33.6791 32.2249 33.257 31.7389 32.524 31.5429C31.961 31.3909 31.385 31.4799 30.804 31.4499Z" fill="white"/>
<path d="M19.4551 34.8558C19.4551 35.5628 19.4551 36.2538 19.4551 36.9498C18.9441 36.9498 18.4421 36.9498 17.9321 36.9498C17.9321 34.6758 17.9321 32.4018 17.9321 30.1138C17.9751 30.1138 18.0171 30.1138 18.0591 30.1138C18.9041 30.1138 19.7491 30.1088 20.5941 30.1158C21.1151 30.1198 21.6301 30.1758 22.1131 30.3928C22.9041 30.7478 23.3101 31.3658 23.3491 32.2268C23.3641 32.5448 23.3591 32.8618 23.2841 33.1758C23.1471 33.7478 22.8061 34.1548 22.2951 34.4298C22.2301 34.4648 22.1621 34.4958 22.0851 34.5348C22.6581 35.3378 23.2271 36.1368 23.8071 36.9498C23.7571 36.9528 23.7241 36.9568 23.6911 36.9568C23.1761 36.9568 22.6611 36.9558 22.1461 36.9588C22.0661 36.9598 22.0201 36.9348 21.9751 36.8678C21.5381 36.2238 21.0971 35.5838 20.6601 34.9408C20.6171 34.8778 20.5721 34.8548 20.4971 34.8558C20.1561 34.8578 19.8151 34.8558 19.4551 34.8558ZM19.4621 33.5738C19.9221 33.5738 20.3731 33.5848 20.8241 33.5698C21.0871 33.5608 21.3201 33.4478 21.4951 33.2448C21.7781 32.9148 21.8251 32.5338 21.7071 32.1278C21.5871 31.7168 21.2681 31.4688 20.8421 31.4578C20.4531 31.4478 20.0641 31.4548 19.6751 31.4538C19.6051 31.4538 19.5361 31.4538 19.4621 31.4538C19.4621 32.1648 19.4621 32.8628 19.4621 33.5738Z" fill="white"/>
<path d="M46.4188 26.3078C45.7978 26.3078 45.1818 26.3078 44.5518 26.3078C45.3738 21.6148 47.2118 17.3998 50.3118 13.7378C50.4628 14.0348 50.6088 14.3118 50.7468 14.5938C50.8878 14.8828 51.0188 15.1768 51.1588 15.4668C51.1938 15.5398 51.1898 15.5898 51.1388 15.6558C49.5138 17.7218 48.2898 20.0068 47.4268 22.4868C47.0058 23.6968 46.6807 24.9338 46.4467 26.1938C46.4387 26.2318 46.4278 26.2688 46.4188 26.3078Z" fill="white"/>
<path d="M24.4629 30.1809C24.9699 30.1809 25.4679 30.1809 25.9779 30.1809C25.9779 31.9879 25.9779 33.7909 25.9779 35.6049C26.8649 35.6049 27.7399 35.6049 28.6249 35.6049C28.6249 36.0569 28.6249 36.4989 28.6249 36.9479C27.2409 36.9479 25.8559 36.9479 24.4629 36.9479C24.4629 34.6949 24.4629 32.4439 24.4629 30.1809Z" fill="white"/>
<path d="M43.3738 36.9489C43.1768 36.9489 43.0018 36.9489 42.8208 36.9489C42.8208 34.6919 42.8208 32.4409 42.8208 30.1759C43.1418 30.1759 43.4588 30.1739 43.7758 30.1799C43.8068 30.1809 43.8448 30.2239 43.8658 30.2569C44.4608 31.2049 45.0538 32.1549 45.6468 33.1039C46.3248 34.1899 47.0038 35.2759 47.6818 36.3619C47.7178 36.4189 47.7468 36.4839 47.8458 36.4409C47.8458 34.3609 47.8458 32.2749 47.8458 30.1819C48.0338 30.1819 48.2088 30.1819 48.3938 30.1819C48.3938 32.4329 48.3938 34.6838 48.3938 36.9548C48.3318 36.9548 48.2668 36.9548 48.2018 36.9548C47.9778 36.9548 47.7538 36.9519 47.5298 36.9569C47.4538 36.9589 47.4108 36.9349 47.3698 36.8699C46.5288 35.5199 45.6858 34.1709 44.8428 32.8219C44.4138 32.1359 43.9838 31.4509 43.5578 30.7629C43.5148 30.6929 43.4708 30.6549 43.3738 30.6889C43.3738 32.7669 43.3738 34.8529 43.3738 36.9489Z" fill="white"/>
<path d="M50.2478 33.7188C50.2478 34.6398 50.2478 35.5388 50.2478 36.4508C51.3518 36.4508 52.4548 36.4508 53.5658 36.4508C53.5658 36.6208 53.5658 36.7798 53.5658 36.9468C52.2798 36.9468 50.9928 36.9468 49.6948 36.9468C49.6948 34.6948 49.6948 32.4419 49.6948 30.1829C50.9508 30.1829 52.2028 30.1829 53.4608 30.1829C53.4608 30.3489 53.4608 30.5078 53.4608 30.6748C52.3898 30.6748 51.3248 30.6748 50.2518 30.6748C50.2518 31.5288 50.2518 32.3748 50.2518 33.2348C51.2488 33.2348 52.2408 33.2348 53.2388 33.2348C53.2388 33.4008 53.2388 33.5528 53.2388 33.7188C52.2458 33.7188 51.2538 33.7188 50.2478 33.7188Z" fill="white"/>
<path d="M36.5107 36.9468C36.5107 34.6948 36.5107 32.4448 36.5107 30.1848C36.6917 30.1848 36.8688 30.1848 37.0578 30.1848C37.0578 32.2738 37.0578 34.3598 37.0578 36.4528C38.0898 36.4528 39.1098 36.4528 40.1398 36.4528C40.1398 36.6198 40.1398 36.7788 40.1398 36.9468C38.9348 36.9468 37.7257 36.9468 36.5107 36.9468Z" fill="white"/>
<path d="M53.461 26.3079C52.827 26.3079 52.212 26.3079 51.584 26.3079C51.933 24.8249 52.431 23.4049 53.107 22.0459C53.346 23.4549 53.465 24.8719 53.461 26.3079Z" fill="white"/>
<path d="M40.79 30.1809C40.971 30.1809 41.143 30.1809 41.324 30.1809C41.324 32.4359 41.324 34.6889 41.324 36.9489C41.147 36.9489 40.972 36.9489 40.79 36.9489C40.79 34.6939 40.79 32.4439 40.79 30.1809Z" fill="white"/>
</svg>
