<svg width="78" height="103" viewBox="0 0 78 103" fill="none" xmlns="http://www.w3.org/2000/svg">
<g clip-path="url(#clip0_319_1061)">
<mask id="mask0_319_1061" style="mask-type:luminance" maskUnits="userSpaceOnUse" x="0" y="0" width="78" height="102">
<path d="M77.1656 0H0V101.586H77.1656V0Z" fill="white"/>
</mask>
<g mask="url(#mask0_319_1061)">
<path d="M51.0921 21.8364C48.0791 21.8364 45.9102 24.358 45.9102 27.3578C45.9102 30.3581 48.0791 32.8765 51.0921 32.8765C54.1104 32.8765 56.2735 30.3581 56.2735 27.3578C56.2735 24.358 54.1104 21.8364 51.0921 21.8364Z" fill="#191B1D"/>
<path d="M0 0V31.7938L16.1764 48.3528V42.4168H20.8085V53.0981L24.0988 56.4656V42.4168H27.6338L36.6231 53.1512V42.4168H41.2552V61.4775H37.6628L28.7282 51.0215V61.2079H28.7304V61.4501L27.9036 61.4553L1.57538 34.4016L1.57847 78.9108H77.1656V0H0ZM20.8085 36.8865H16.1764V17.8258H20.8085V36.8865ZM31.2236 32.036H28.7282V36.8865H24.0988V17.8258H31.6074C36.4597 17.8258 39.4997 20.5197 39.4997 24.8085C39.4997 29.2611 36.3238 32.036 31.2236 32.036ZM59.8104 46.6498H53.8856V61.4775H49.2593V46.6498H43.3151V42.4168H59.8104V46.6498ZM51.0935 37.279C45.4735 37.279 41.2279 32.9072 41.2279 27.3575C41.2279 21.8081 45.4735 17.4333 51.0935 17.4333C56.7404 17.4333 60.9887 21.8081 60.9887 27.3575C60.9887 32.9072 56.7404 37.279 51.0935 37.279Z" fill="#191B1D"/>
<path d="M31.4969 22.0029H28.729V27.889H31.4969C33.5572 27.889 34.8689 26.6841 34.8689 24.8083C34.8689 23.0968 33.5572 22.0029 31.4969 22.0029Z" fill="#191B1D"/>
<path d="M14.9303 97.3391C14.9303 99.8183 12.8828 101.261 9.04749 101.261H1.21875V87.0361H8.65044C12.4858 87.0361 14.2749 88.6003 14.2749 90.7547C14.2749 92.0753 13.6191 93.1727 12.3471 93.8229C13.9763 94.4329 14.9303 95.6519 14.9303 97.3391ZM5.82828 90.3886V92.5023H8.01446C9.06736 92.5023 9.54479 92.1368 9.54479 91.446C9.54479 90.7547 9.06736 90.3886 8.01446 90.3886H5.82828ZM10.2006 96.7906C10.2006 96.0586 9.68347 95.6727 8.65044 95.6727H5.82828V97.9075H8.65044C9.68347 97.9075 10.2006 97.5216 10.2006 96.7906Z" fill="#FF135A"/>
<path d="M17.4336 94.8599V87.0361H22.1239V94.7176C22.1239 96.8917 22.9379 97.7045 24.2505 97.7045C25.5617 97.7045 26.3762 96.8917 26.3762 94.7176V87.0361H30.987V94.8599C30.987 99.1274 28.4828 101.586 24.2094 101.586C19.9377 101.586 17.4336 99.1274 17.4336 94.8599Z" fill="#FF135A"/>
<path d="M38.795 87.0366H34.106V101.262H38.795V87.0366Z" fill="#FF135A"/>
<path d="M42.0361 87.0361H46.7252V97.5419H53.005V101.261H42.0361V87.0361Z" fill="#FF135A"/>
<path d="M55.2676 87.0366H62.1229C66.7735 87.0366 69.9728 89.7391 69.9728 94.1485C69.9728 98.5583 66.7735 101.262 62.1229 101.262H55.2676V87.0366ZM61.925 97.5222C63.8922 97.5222 65.2433 96.3235 65.2433 94.1485C65.2433 91.9747 63.8922 90.7751 61.925 90.7751H59.9566V97.5222H61.925Z" fill="#FF135A"/>
<path d="M71.9175 98.8223C71.9175 97.2573 73.0507 96.2212 74.5418 96.2212C76.031 96.2212 77.1643 97.2573 77.1643 98.8223C77.1643 100.367 76.031 101.464 74.5418 101.464C73.0507 101.464 71.9175 100.367 71.9175 98.8223Z" fill="#FF135A"/>
</g>
</g>
<defs>
<clipPath id="clip0_319_1061">
<rect width="77.1656" height="102.211" fill="white"/>
</clipPath>
</defs>
</svg>
