<svg width="797" height="846" viewBox="0 0 797 846" fill="none" xmlns="http://www.w3.org/2000/svg">
<path d="M264.093 412.472C263.185 412.714 261.981 412.446 261.405 411.87C260.83 411.295 261.099 410.63 262.007 410.387C262.915 410.145 264.119 410.413 264.694 410.988C265.269 411.564 265.001 412.228 264.093 412.472Z" fill="white"/>
<path d="M278.266 398.722C277.358 398.965 276.154 398.696 275.579 398.121C275.003 397.546 275.272 396.88 276.18 396.638C277.088 396.395 278.292 396.664 278.867 397.239C279.444 397.814 279.174 398.478 278.266 398.722Z" fill="white"/>
<path d="M292.26 384.904C291.352 385.147 290.148 384.878 289.573 384.303C288.998 383.727 289.266 383.062 290.174 382.819C291.082 382.577 292.286 382.845 292.861 383.421C293.437 383.996 293.168 384.661 292.26 384.904Z" fill="white"/>
<path d="M279.155 425.123C278.247 425.365 277.043 425.097 276.467 424.521C275.892 423.946 276.161 423.281 277.069 423.038C277.977 422.795 279.181 423.064 279.756 423.639C280.331 424.215 280.063 424.878 279.155 425.123Z" fill="white"/>
<path d="M293.321 411.373C292.413 411.616 291.209 411.347 290.634 410.772C290.059 410.197 290.327 409.531 291.235 409.289C292.143 409.046 293.347 409.314 293.922 409.89C294.499 410.465 294.229 411.129 293.321 411.373Z" fill="white"/>
<path d="M307.316 397.556C306.408 397.799 305.204 397.53 304.628 396.955C304.053 396.38 304.322 395.714 305.23 395.472C306.138 395.229 307.342 395.498 307.917 396.073C308.492 396.648 308.224 397.312 307.316 397.556Z" fill="white"/>
<path d="M321.31 383.866C320.402 384.109 319.198 383.84 318.623 383.265C318.047 382.69 318.316 382.024 319.224 381.782C320.132 381.539 321.336 381.808 321.911 382.383C322.488 382.96 322.218 383.624 321.31 383.866Z" fill="white"/>
<path d="M294.21 434.885C293.302 435.127 292.098 434.859 291.523 434.284C290.947 433.708 291.216 433.043 292.124 432.8C293.032 432.558 294.236 432.826 294.811 433.402C295.388 433.978 295.118 434.642 294.21 434.885Z" fill="white"/>
<path d="M308.377 421.137C307.469 421.379 306.265 421.111 305.69 420.536C305.114 419.96 305.383 419.295 306.291 419.052C307.199 418.81 308.403 419.078 308.978 419.653C309.555 420.229 309.286 420.893 308.377 421.137Z" fill="white"/>
<path d="M322.377 407.318C321.469 407.561 320.265 407.292 319.69 406.717C319.115 406.142 319.383 405.476 320.291 405.234C321.199 404.991 322.403 405.26 322.979 405.835C323.555 406.412 323.285 407.076 322.377 407.318Z" fill="white"/>
<path d="M335.266 392.579C334.358 392.821 333.154 392.553 332.578 391.977C332.003 391.402 332.271 390.737 333.179 390.494C334.087 390.251 335.291 390.52 335.867 391.095C336.442 391.671 336.174 392.336 335.266 392.579Z" fill="white"/>
<path d="M350.539 401.753C349.631 401.996 348.426 401.727 347.851 401.152C347.276 400.576 347.544 399.911 348.452 399.668C349.36 399.426 350.564 399.694 351.14 400.27C351.717 400.847 351.447 401.51 350.539 401.753Z" fill="white"/>
<path d="M538.748 433.501C538.278 434.315 537.237 434.975 536.422 434.975C535.607 434.975 535.33 434.314 535.8 433.501C536.27 432.687 537.31 432.026 538.125 432.026C538.94 432.026 539.218 432.686 538.748 433.501Z" fill="white"/>
<path d="M533.403 450.801C532.933 451.616 531.893 452.275 531.078 452.275C530.263 452.275 529.985 451.615 530.455 450.801C530.925 449.986 531.966 449.327 532.781 449.327C533.596 449.327 533.874 449.988 533.403 450.801Z" fill="white"/>
<path d="M539.675 466.988C539.205 467.803 538.164 468.462 537.349 468.462C536.534 468.462 536.257 467.801 536.727 466.988C537.197 466.173 538.237 465.514 539.052 465.514C539.867 465.514 540.145 466.173 539.675 466.988Z" fill="white"/>
<path d="M524.268 475.757C523.798 476.572 522.757 477.231 521.942 477.231C521.127 477.231 520.85 476.57 521.32 475.757C521.79 474.942 522.83 474.283 523.645 474.283C524.46 474.281 524.738 474.942 524.268 475.757Z" fill="white"/>
<path d="M349.439 378.83C348.531 379.073 347.327 378.804 346.752 378.229C346.176 377.654 346.445 376.988 347.353 376.746C348.261 376.503 349.465 376.772 350.04 377.347C350.615 377.922 350.347 378.586 349.439 378.83Z" fill="white"/>
<path d="M363.433 365.012C362.525 365.255 361.321 364.986 360.746 364.411C360.17 363.836 360.439 363.17 361.347 362.928C362.255 362.685 363.459 362.954 364.034 363.529C364.611 364.104 364.341 364.77 363.433 365.012Z" fill="white"/>
<path d="M380.211 441.015C375.154 443.934 371.055 450.402 371.055 455.459C371.055 460.516 375.154 462.248 380.211 459.329C385.269 456.41 389.368 449.942 389.368 444.885C389.368 439.828 385.269 438.094 380.211 441.015Z" stroke="white" stroke-linecap="round" stroke-linejoin="round"/>
<path d="M385.074 439.596C381.886 438.48 380.429 437.102 378.983 436.318C377.306 435.407 374.866 435.634 372.15 437.201C367.093 440.121 362.994 446.588 362.994 451.645C362.994 453.977 363.865 455.601 365.3 456.39C366.977 457.311 370.328 457.347 373.149 460.078" stroke="white" stroke-linecap="round" stroke-linejoin="round"/>
<path d="M327.912 458.382C325.368 459.851 323.306 463.104 323.306 465.648C323.306 468.192 325.368 469.063 327.912 467.595C330.456 466.127 332.517 462.874 332.517 460.33C332.517 457.786 330.454 456.914 327.912 458.382Z" stroke="white" stroke-linecap="round" stroke-linejoin="round"/>
<path d="M330.358 457.67C328.754 457.109 328.022 456.416 327.295 456.02C326.451 455.563 325.225 455.676 323.859 456.465C322.101 457.479 320.572 459.349 319.796 461.246" stroke="white" stroke-linecap="round" stroke-linejoin="round"/>
<path d="M608.644 305.733C603.587 308.653 599.488 315.12 599.488 320.177C599.488 325.235 603.587 326.967 608.644 324.047C613.701 321.128 617.8 314.661 617.8 309.603C617.8 304.546 613.701 302.812 608.644 305.733Z" stroke="white" stroke-linecap="round" stroke-linejoin="round"/>
<path d="M613.507 304.314C610.319 303.198 608.861 301.82 607.416 301.036C605.739 300.125 603.299 300.352 600.583 301.92C595.525 304.839 591.426 311.306 591.426 316.364C591.426 318.695 592.298 320.319 593.732 321.108C595.409 322.03 598.76 322.065 601.582 324.796" stroke="white" stroke-linecap="round" stroke-linejoin="round"/>
<path d="M289.092 645.454L234.885 614.86V410.296L289.092 440.891V645.454Z" stroke="white" stroke-linecap="round" stroke-linejoin="round"/>
<path d="M396.973 583.294L289.091 645.152V440.588L396.973 378.729V583.294Z" stroke="white" stroke-linecap="round" stroke-linejoin="round"/>
<path d="M234.885 410.296L343.033 347.546L347.55 350.47" stroke="white" stroke-linecap="round" stroke-linejoin="round"/>
<path d="M356.319 355.519L385.017 371.994" stroke="white" stroke-linecap="round" stroke-linejoin="round"/>
<path d="M393.788 376.776L396.976 378.729" stroke="white" stroke-linecap="round" stroke-linejoin="round"/>
<path d="M341.174 361.896L375.985 341.437L408.934 361.232L374.125 381.692L341.174 361.896Z" stroke="white" stroke-linecap="round" stroke-linejoin="round"/>
<path d="M380.74 338.639L415.549 318.178L448.5 337.974L413.691 358.435L380.74 338.639Z" stroke="white" stroke-linecap="round" stroke-linejoin="round"/>
<path d="M420.313 315.381L455.122 294.921L488.072 314.717L453.261 335.178L420.313 315.381Z" stroke="white" stroke-linecap="round" stroke-linejoin="round"/>
<path d="M459.885 292.124L494.694 271.664L527.643 291.46L492.834 311.919L459.885 292.124Z" stroke="white" stroke-linecap="round" stroke-linejoin="round"/>
<path d="M519.469 252.419L523.316 254.84L499.452 268.867L532.4 288.663L557.379 273.981L562.25 276.601L361.366 393.783L356.318 391.126L368.009 384.216L336.123 365.084L324.836 371.606L320.18 369.07L519.469 252.419Z" stroke="white" stroke-linecap="round" stroke-linejoin="round"/>
<path d="M477.753 274.385V245.334L502.199 259.86" stroke="white" stroke-linecap="round" stroke-linejoin="round"/>
<path d="M493.761 308.124V279.073L519.071 294.138" stroke="white" stroke-linecap="round" stroke-linejoin="round"/>
<path d="M510.882 264.289L539.934 281.295" stroke="white" stroke-linecap="round" stroke-linejoin="round"/>
<path d="M548.963 286.786L572.878 301.666L573.586 489.264L542.94 469.424V413.799L500.956 390.239L491.036 396.793V413.622L483.241 418.892V437.36L474.384 442.674V462.692L515.636 484.855L542.94 469.424" stroke="white" stroke-linecap="round" stroke-linejoin="round"/>
<path d="M477.753 284.483V300.071" stroke="white" stroke-linecap="round" stroke-linejoin="round"/>
<path d="M477.753 310.877V318.178" stroke="white" stroke-linecap="round" stroke-linejoin="round"/>
<path d="M477.753 328.415V431.337L483.244 434.975" stroke="white" stroke-linecap="round" stroke-linejoin="round"/>
<path d="M542.942 413.8L532.623 420.354V437.211L524.495 442.466V460.449L515.638 466.318V484.855" stroke="white" stroke-linecap="round" stroke-linejoin="round"/>
<path d="M491.37 397.115L532.621 420.354" stroke="white" stroke-linecap="round" stroke-linejoin="round"/>
<path d="M491.37 413.972L532.621 437.21" stroke="white" stroke-linecap="round" stroke-linejoin="round"/>
<path d="M483.245 419.228L524.497 442.466" stroke="white" stroke-linecap="round" stroke-linejoin="round"/>
<path d="M483.245 437.21L524.497 460.449" stroke="white" stroke-linecap="round" stroke-linejoin="round"/>
<path d="M474.384 443.08L515.636 466.318" stroke="white" stroke-linecap="round" stroke-linejoin="round"/>
<path d="M527.639 299.186L555.165 315.049V402.462L493.761 366.678V319.557" stroke="white" stroke-linecap="round" stroke-linejoin="round"/>
<path d="M572.615 301.135L627.485 269.425L532.623 212.562L477.753 245.334L572.615 301.135Z" stroke="white" stroke-linecap="round" stroke-linejoin="round"/>
<path d="M627.482 320.957L702.348 364.157L627.482 407.422V269.425" stroke="white" stroke-linecap="round" stroke-linejoin="round"/>
<path d="M702.353 364.157V413.799L573.59 489.263" stroke="white" stroke-linecap="round" stroke-linejoin="round"/>
<path d="M607.501 306.467L383.662 439.533" stroke="white" stroke-linecap="round" stroke-linejoin="round"/>
<path d="M605.629 325.275L381.508 458.477" stroke="white" stroke-linecap="round" stroke-linejoin="round"/>
<path d="M325.277 588.034C320.22 590.953 316.121 597.421 316.121 602.478C316.121 607.535 320.22 609.267 325.277 606.348C330.334 603.429 334.433 596.961 334.433 591.904C334.433 586.847 330.334 585.113 325.277 588.034Z" stroke="white" stroke-linecap="round" stroke-linejoin="round"/>
<path d="M330.139 586.615C326.951 585.499 325.494 584.121 324.049 583.337C322.372 582.426 319.932 582.653 317.215 584.22C312.158 587.14 308.059 593.607 308.059 598.664C308.059 600.996 308.93 602.62 310.365 603.409C312.042 604.331 315.393 604.366 318.215 607.097" stroke="white" stroke-linecap="round" stroke-linejoin="round"/>
<path d="M608.644 420.267C603.587 423.186 599.488 429.654 599.488 434.711C599.488 439.768 603.587 441.5 608.644 438.581C613.701 435.662 617.8 429.194 617.8 424.137C617.8 419.08 613.701 417.346 608.644 420.267Z" stroke="white" stroke-linecap="round" stroke-linejoin="round"/>
<path d="M613.507 418.848C610.319 417.732 608.861 416.354 607.416 415.57C605.739 414.659 603.299 414.886 600.583 416.453C595.525 419.373 591.426 425.84 591.426 430.897C591.426 433.229 592.298 434.853 593.732 435.642C595.409 436.563 598.76 436.599 601.582 439.33" stroke="white" stroke-linecap="round" stroke-linejoin="round"/>
<path d="M607.498 421.001L328.721 586.553" stroke="white" stroke-linecap="round" stroke-linejoin="round"/>
<path d="M605.632 439.808L326.573 605.496" stroke="white" stroke-linecap="round" stroke-linejoin="round"/>
<path d="M328.725 454.632L327.912 449.051L334.533 453.17L337.456 468.307L324.805 479.741L320.848 464.396C320.848 464.396 316.14 470.839 316.198 478.811C316.247 485.618 319.196 490.901 328.725 488.643C331.211 499.404 339.847 535.144 339.847 535.144C339.847 535.144 333.735 543.647 333.735 550.821C333.735 557.995 337.323 563.443 344.497 562.38C342.371 554.142 340.643 547.101 340.643 547.101L354.062 535.808L357.65 550.954L346.552 542.128" stroke="white" stroke-linecap="round" stroke-linejoin="round"/>
<path d="M320.845 464.397L314.164 459.547C308.583 465.391 305.731 481.275 320.711 488.377" stroke="white" stroke-linecap="round" stroke-linejoin="round"/>
<path d="M332.519 465.394L337.457 468.308" stroke="white" stroke-linecap="round" stroke-linejoin="round"/>
<path d="M334.532 453.17C338.784 452.772 344.364 455.752 344.763 464.463C345.182 473.63 339.449 479.078 338.385 480.538C340.91 491.034 349.811 527.305 349.811 527.305C349.811 527.305 357.752 523.937 361.104 531.557C364.026 538.199 359.642 548.164 357.649 550.954" stroke="white" stroke-linecap="round" stroke-linejoin="round"/>
<path d="M327.909 449.051C334.984 446.925 344.638 452.239 344.638 462.988" stroke="white" stroke-linecap="round" stroke-linejoin="round"/>
<path d="M348.405 521.593L357.645 527.518" stroke="white" stroke-linecap="round" stroke-linejoin="round"/>
<path d="M321.574 488.725L331.604 529.032L339.842 535.144" stroke="white" stroke-linecap="round" stroke-linejoin="round"/>
<path d="M331.604 529.032C325.891 538.73 325.625 549.023 328.72 554.94C332.402 561.981 338.736 562.514 343.828 562.514" stroke="white" stroke-linecap="round" stroke-linejoin="round"/>
<path d="M333.279 491.499L336.611 488.91L345.19 523.679L341.781 526.125L333.279 491.499Z" stroke="white" stroke-linecap="round" stroke-linejoin="round"/>
<path d="M660.947 220.115L673.228 227.788L659.067 236.636L644.903 227.788L657.144 220.141" stroke="white" stroke-linecap="round" stroke-linejoin="round"/>
<path d="M660.946 226.215C661.427 226.553 661.724 227.017 661.724 227.531C661.724 228.558 660.534 229.391 659.067 229.391C657.599 229.391 656.411 228.558 656.411 227.531C656.411 227.017 656.708 226.553 657.189 226.215" stroke="white" stroke-linecap="round" stroke-linejoin="round"/>
<path d="M660.947 357.266L673.228 364.939L659.067 373.787L644.903 364.939L657.144 357.292" stroke="white" stroke-linecap="round" stroke-linejoin="round"/>
<path d="M660.946 363.369C661.427 363.706 661.724 364.17 661.724 364.684C661.724 365.711 660.534 366.544 659.067 366.544C657.599 366.544 656.411 365.711 656.411 364.684C656.411 364.17 656.708 363.706 657.189 363.369" stroke="white" stroke-linecap="round" stroke-linejoin="round"/>
<path d="M661.982 282.05L681.024 293.947L659.067 307.665L637.11 293.947L656.087 282.091" stroke="white" stroke-linecap="round" stroke-linejoin="round"/>
<path d="M661.98 291.51C662.726 292.032 663.187 292.752 663.187 293.549C663.187 295.142 661.342 296.433 659.067 296.433C656.791 296.433 654.947 295.142 654.947 293.549C654.947 292.752 655.407 292.032 656.154 291.51" stroke="white" stroke-linecap="round" stroke-linejoin="round"/>
<path d="M659.064 141.729V227.443" stroke="white" stroke-linecap="round" stroke-linejoin="round"/>
<path d="M659.064 238.761V293.972" stroke="white" stroke-linecap="round" stroke-linejoin="round"/>
<path d="M659.067 256.671C660.241 256.671 661.193 255.719 661.193 254.545C661.193 253.371 660.241 252.419 659.067 252.419C657.893 252.419 656.941 253.371 656.941 254.545C656.941 255.719 657.893 256.671 659.067 256.671Z" fill="white"/>
<path d="M659.064 309.576V364.786" stroke="white" stroke-linecap="round" stroke-linejoin="round"/>
<path d="M659.064 375.487V411.054" stroke="white" stroke-linecap="round" stroke-linejoin="round"/>
<path d="M659.067 328.549C660.241 328.549 661.193 327.597 661.193 326.423C661.193 325.249 660.241 324.297 659.067 324.297C657.893 324.297 656.941 325.249 656.941 326.423C656.941 327.597 657.893 328.549 659.067 328.549Z" fill="white"/>
<path d="M659.067 423.809C662.589 423.809 665.445 420.954 665.445 417.432C665.445 413.909 662.589 411.054 659.067 411.054C655.545 411.054 652.69 413.909 652.69 417.432C652.69 420.954 655.545 423.809 659.067 423.809Z" stroke="white" stroke-linecap="round" stroke-linejoin="round"/>
<path d="M725.154 421.886L792.898 460.998C811.786 471.903 828.465 484.983 842.917 500.188C857.379 515.398 868.606 531.7 876.601 549.072C884.596 566.444 888.588 583.773 888.588 601.044C888.588 618.336 884.596 631.054 876.601 639.194C868.606 647.334 857.378 650.67 842.917 649.182C828.465 647.698 811.786 641.5 792.898 630.595L725.154 591.482V421.886ZM790.473 584.615C802.745 591.7 812.555 593.855 819.909 591.063C827.254 588.284 830.93 580.51 830.93 567.754C830.93 554.998 827.252 542.977 819.909 531.718C812.555 520.453 802.745 511.261 790.473 504.174L782.33 499.473V579.913L790.473 584.615Z" stroke="white" stroke-linecap="round" stroke-linejoin="round"/>
<path d="M691.955 441.729L759.699 480.841C778.587 491.746 795.267 504.826 809.718 520.032C824.181 535.242 835.408 551.543 843.403 568.915C851.398 586.288 855.39 603.616 855.39 620.888C855.39 638.179 851.398 650.897 843.403 659.037C835.408 667.177 824.179 670.513 809.718 669.025C795.267 667.542 778.587 661.343 759.699 650.438L691.955 611.325V441.729ZM757.273 604.46C769.545 611.545 779.355 613.7 786.709 610.907C794.054 608.128 797.73 600.355 797.73 587.599C797.73 574.842 794.052 562.822 786.709 551.563C779.355 540.297 769.545 531.106 757.273 524.019L749.13 519.317V599.758L757.273 604.46Z" stroke="white" stroke-linecap="round" stroke-linejoin="round" stroke-dasharray="1 3"/>
<path d="M662.458 459.689L730.202 498.801C749.09 509.706 765.77 522.786 780.221 537.992C794.684 553.202 805.911 569.503 813.906 586.875C821.9 604.248 825.893 621.576 825.893 638.848C825.893 656.139 821.9 668.857 813.906 676.997C805.911 685.137 794.682 688.473 780.221 686.985C765.77 685.502 749.09 679.303 730.202 668.398L662.458 629.285V459.689ZM727.777 622.418C740.05 629.504 749.859 631.658 757.213 628.866C764.558 626.087 768.234 618.313 768.234 605.557C768.234 592.801 764.558 580.78 757.213 569.521C749.859 558.256 740.05 549.065 727.777 541.978L719.634 537.276V617.717L727.777 622.418Z" stroke="white" stroke-linecap="round" stroke-linejoin="round"/>
<path d="M632.795 477.554L700.539 516.667C719.427 527.572 736.106 540.651 750.558 555.857C765.02 571.067 776.247 587.368 784.242 604.74C792.237 622.113 796.229 639.441 796.229 656.713C796.229 674.004 792.237 686.722 784.242 694.862C776.247 703.002 765.019 706.338 750.558 704.85C736.106 703.367 719.427 697.168 700.539 686.263L632.795 647.151V477.554ZM698.112 640.285C710.385 647.37 720.194 649.525 727.548 646.733C734.893 643.954 738.569 636.18 738.569 623.424C738.569 610.668 734.892 598.647 727.548 587.388C720.194 576.123 710.385 566.931 698.112 559.844L689.97 555.143V635.583L698.112 640.285Z" stroke="white" stroke-linecap="round" stroke-linejoin="round" stroke-dasharray="1 3"/>
<path d="M755.409 459.123C756.224 459.593 756.883 460.634 756.883 461.448C756.883 462.263 756.223 462.541 755.409 462.071C754.594 461.601 753.935 460.56 753.935 459.745C753.934 458.932 754.594 458.653 755.409 459.123Z" fill="white"/>
<path d="M735.834 458.906C736.649 459.376 737.308 460.417 737.308 461.232C737.308 462.047 736.647 462.325 735.834 461.855C735.019 461.385 734.36 460.344 734.36 459.529C734.36 458.714 735.021 458.436 735.834 458.906Z" fill="white"/>
<path d="M751.669 441.573C752.484 442.043 753.143 443.084 753.143 443.899C753.143 444.714 752.483 444.992 751.669 444.522C750.854 444.052 750.195 443.011 750.195 442.196C750.195 441.381 750.854 441.103 751.669 441.573Z" fill="white"/>
<path d="M732.133 442.881C732.948 443.351 733.607 444.392 733.607 445.207C733.607 446.022 732.946 446.299 732.133 445.829C731.318 445.359 730.658 444.318 730.658 443.504C730.658 442.689 731.318 442.411 732.133 442.881Z" fill="white"/>
<path d="M763.304 491.69C764.119 492.16 764.779 493.201 764.779 494.016C764.779 494.831 764.118 495.108 763.304 494.638C762.49 494.168 761.83 493.128 761.83 492.313C761.83 491.499 762.491 491.22 763.304 491.69Z" fill="white"/>
<path d="M743.729 491.475C744.544 491.945 745.203 492.986 745.203 493.801C745.203 494.615 744.543 494.893 743.729 494.423C742.914 493.953 742.255 492.912 742.255 492.098C742.255 491.283 742.914 491.003 743.729 491.475Z" fill="white"/>
<path d="M759.564 474.14C760.379 474.61 761.039 475.651 761.039 476.466C761.039 477.281 760.378 477.559 759.564 477.089C758.75 476.619 758.09 475.578 758.09 474.763C758.09 473.95 758.75 473.67 759.564 474.14Z" fill="white"/>
<path d="M740.028 475.448C740.843 475.918 741.502 476.959 741.502 477.774C741.502 478.589 740.841 478.867 740.028 478.397C739.213 477.927 738.553 476.886 738.553 476.071C738.552 475.258 739.213 474.978 740.028 475.448Z" fill="white"/>
<path d="M774.946 526.722C775.761 527.192 776.42 528.233 776.42 529.048C776.42 529.863 775.759 530.14 774.946 529.67C774.131 529.2 773.472 528.159 773.472 527.345C773.472 526.531 774.131 526.252 774.946 526.722Z" fill="white"/>
<path d="M771.206 509.171C772.021 509.641 772.68 510.681 772.68 511.496C772.68 512.311 772.019 512.589 771.206 512.119C770.391 511.649 769.732 510.608 769.732 509.793C769.732 508.98 770.393 508.701 771.206 509.171Z" fill="white"/>
<path d="M734.772 514.816C735.587 515.286 736.247 516.326 736.247 517.141C736.247 517.956 735.586 518.234 734.772 517.764C733.958 517.294 733.298 516.253 733.298 515.438C733.298 514.625 733.958 514.346 734.772 514.816Z" fill="white"/>
<path d="M742.157 534.23C742.971 534.7 743.631 535.741 743.631 536.555C743.631 537.37 742.97 537.648 742.157 537.178C741.343 536.708 740.682 535.667 740.682 534.852C740.681 534.039 741.342 533.76 742.157 534.23Z" fill="white"/>
<path d="M732.133 555.777C732.948 556.247 733.607 557.288 733.607 558.103C733.607 558.918 732.946 559.196 732.133 558.726C731.318 558.256 730.658 557.215 730.658 556.4C730.658 555.585 731.318 555.307 732.133 555.777Z" fill="white"/>
<path d="M738.372 578.189C739.187 578.659 739.846 579.7 739.846 580.514C739.846 581.329 739.185 581.607 738.372 581.137C737.557 580.667 736.898 579.626 736.898 578.811C736.898 577.996 737.557 577.717 738.372 578.189Z" fill="white"/>
<path d="M781.333 476.057C782.147 476.527 782.807 477.568 782.807 478.383C782.807 479.198 782.146 479.476 781.333 479.006C780.518 478.536 779.858 477.495 779.858 476.68C779.858 475.865 780.519 475.587 781.333 476.057Z" fill="white"/>
<path d="M777.625 460.032C778.439 460.502 779.099 461.543 779.099 462.358C779.099 463.173 778.438 463.45 777.625 462.98C776.81 462.51 776.15 461.47 776.15 460.655C776.15 459.841 776.81 459.562 777.625 460.032Z" fill="white"/>
<path d="M785.526 492.599C786.341 493.069 787.001 494.11 787.001 494.925C787.001 495.74 786.34 496.018 785.526 495.548C784.712 495.078 784.052 494.037 784.052 493.222C784.051 492.409 784.712 492.129 785.526 492.599Z" fill="white"/>
<path d="M772.836 564.387C773.651 564.857 774.311 565.898 774.311 566.713C774.311 567.528 773.65 567.806 772.836 567.336C772.023 566.866 771.362 565.825 771.362 565.01C771.362 564.195 772.022 563.917 772.836 564.387Z" fill="white"/>
<path d="M762.755 543.047C763.57 543.517 764.229 544.558 764.229 545.373C764.229 546.188 763.568 546.466 762.755 545.996C761.941 545.526 761.281 544.485 761.281 543.67C761.281 542.855 761.941 542.577 762.755 543.047Z" fill="white"/>
<path d="M777.58 582.686C778.395 583.156 779.054 584.197 779.054 585.012C779.054 585.827 778.393 586.105 777.58 585.635C776.765 585.165 776.106 584.124 776.106 583.309C776.106 582.494 776.766 582.215 777.58 582.686Z" fill="white"/>
<path d="M758.088 589.899C758.903 590.37 759.562 591.41 759.562 592.225C759.562 593.04 758.901 593.318 758.088 592.848C757.273 592.378 756.614 591.337 756.614 590.522C756.614 589.707 757.273 589.429 758.088 589.899Z" fill="white"/>
<path d="M785.475 615.253C786.29 615.723 786.949 616.764 786.949 617.579C786.949 618.394 786.289 618.671 785.475 618.201C784.66 617.731 784.001 616.691 784.001 615.876C784.001 615.061 784.66 614.783 785.475 615.253Z" fill="white"/>
<path d="M725.151 421.886L516.923 545.736V561.816" stroke="white" stroke-linecap="round" stroke-linejoin="round"/>
<path d="M518.806 555.548L531.087 563.221L516.924 572.069L502.762 563.221L515.003 555.574" stroke="white" stroke-linecap="round" stroke-linejoin="round"/>
<path d="M519.199 610.229L534.059 619.514L516.924 630.219L499.79 619.514L514.598 610.262" stroke="white" stroke-linecap="round" stroke-linejoin="round"/>
<path d="M518.805 561.649C519.286 561.987 519.583 562.451 519.583 562.965C519.583 563.992 518.393 564.825 516.927 564.825C515.459 564.825 514.27 563.992 514.27 562.965C514.27 562.451 514.567 561.987 515.048 561.649" stroke="white" stroke-linecap="round" stroke-linejoin="round"/>
<path d="M518.805 617.05C519.286 617.387 519.583 617.851 519.583 618.365C519.583 619.392 518.393 620.225 516.927 620.225C515.459 620.225 514.27 619.392 514.27 618.365C514.27 617.851 514.567 617.387 515.048 617.05" stroke="white" stroke-linecap="round" stroke-linejoin="round"/>
<path d="M516.923 574.57V617.794" stroke="white" stroke-linecap="round" stroke-linejoin="round"/>
<path d="M610.357 512.923L624.705 522.49L610.357 544.633L595.831 535.776L610.357 512.923Z" stroke="white" stroke-linecap="round" stroke-linejoin="round"/>
<path d="M610.315 520.542L617.77 525.512L610.315 537.017L602.767 532.414L610.315 520.542Z" stroke="white" stroke-linecap="round" stroke-linejoin="round"/>
<path d="M610.266 490.217V512.923" stroke="white" stroke-linecap="round" stroke-linejoin="round"/>
<path d="M99.5091 352.771C87.2352 333.812 81.0898 313.61 81.0898 292.194V194.811L129.386 222.695V318.643C129.386 329.151 131.26 337.877 135.016 344.825C138.771 351.757 144.192 357.284 151.286 361.38C158.381 365.476 163.801 366.207 167.557 363.612C171.303 360.997 173.186 354.439 173.186 343.93V247.983L220.657 275.391V365.331C220.657 414.039 191.036 424.132 150.879 400.231C129.081 387.258 111.791 371.719 99.5091 352.771Z" stroke="white" stroke-linecap="round" stroke-linejoin="round"/>
<path d="M86.9336 204.937V292.192C86.9336 312.364 92.815 331.676 104.414 349.593C115.904 367.321 132.08 382.241 153.864 395.208C166.601 402.788 178.321 406.795 187.756 406.795C210.114 406.795 214.808 384.248 214.808 365.331V278.765L179.029 258.107V343.931C179.029 356.758 176.445 364.534 170.899 368.406C168.426 370.115 165.578 370.974 162.412 370.974C158.238 370.974 153.641 369.493 148.36 366.443C140.362 361.826 134.142 355.49 129.873 347.611C125.669 339.831 123.539 330.087 123.539 318.643V226.071L86.9336 204.937Z" stroke="white" stroke-linecap="round" stroke-linejoin="round" stroke-dasharray="1 3"/>
<path d="M81.0898 194.811L171.573 142.889L219.869 170.773V221.654M263.668 250.351V196.059L311.139 223.467V312.345C311.139 345.479 295.704 353.606 274.879 366.965C247.898 384.272 203.049 408.872 203.049 408.872" stroke="white" stroke-linecap="round" stroke-linejoin="round"/>
<path d="M129.382 222.694L219.866 170.772" stroke="white" stroke-linecap="round" stroke-linejoin="round"/>
<path d="M173.18 247.983L263.664 196.059" stroke="white" stroke-linecap="round" stroke-linejoin="round"/>
<path d="M220.654 275.389L311.139 223.467" stroke="white" stroke-linecap="round" stroke-linejoin="round"/>
<path d="M256.397 254.877C256.397 254.877 256.397 320.679 256.397 338.393C256.397 356.107 256.397 378.357 235.69 390.489" stroke="white" stroke-linecap="round" stroke-linejoin="round"/>
<path d="M287.578 236.988C287.578 236.988 287.578 301.887 287.578 319.601C287.578 337.316 284.355 362.265 267.726 371.449" stroke="white" stroke-linecap="round" stroke-linejoin="round"/>
<path d="M195.046 277.497C202.56 281.835 208.652 291.443 208.652 298.957C208.652 306.471 202.56 309.046 195.046 304.707C187.532 300.369 181.44 290.761 181.44 283.247C181.44 275.732 187.532 273.16 195.046 277.497Z" stroke="white" stroke-linecap="round" stroke-linejoin="round"/>
<path d="M198.179 275.43C205.693 279.769 211.785 289.377 211.785 296.891C211.785 304.405 205.693 306.98 198.179 302.641C190.665 298.303 184.573 288.695 184.573 281.18C184.573 273.666 190.665 271.092 198.179 275.43Z" stroke="white" stroke-linecap="round" stroke-linejoin="round"/>
<path d="M103.57 224.415C111.084 228.753 117.176 238.361 117.176 245.875C117.176 253.39 111.084 255.964 103.57 251.626C96.0553 247.287 89.9634 237.679 89.9634 230.165C89.9634 222.651 96.0553 220.076 103.57 224.415Z" stroke="white" stroke-linecap="round" stroke-linejoin="round"/>
<path d="M106.696 222.347C114.21 226.685 120.302 236.293 120.302 243.808C120.302 251.322 114.21 253.896 106.696 249.558C99.1813 245.219 93.0894 235.611 93.0894 228.097C93.0894 220.583 99.1813 218.008 106.696 222.347Z" stroke="white" stroke-linecap="round" stroke-linejoin="round"/>
<path d="M61.4529 257.91C68.9671 262.248 75.059 271.856 75.059 279.371C75.059 286.885 68.9671 289.459 61.4529 285.121C53.9386 280.782 47.8467 271.174 47.8467 263.66C47.8467 256.146 53.9371 253.571 61.4529 257.91Z" stroke="white" stroke-linecap="round" stroke-linejoin="round"/>
<path d="M64.5788 255.842C72.0931 260.181 78.185 269.788 78.185 277.303C78.185 284.817 72.0931 287.391 64.5788 283.053C57.0646 278.714 50.9727 269.106 50.9727 261.592C50.9727 254.078 57.0646 251.503 64.5788 255.842Z" stroke="white" stroke-linecap="round" stroke-linejoin="round"/>
<path d="M152.993 309.946C160.508 314.285 166.6 323.893 166.6 331.407C166.6 338.921 160.508 341.496 152.993 337.157C145.479 332.819 139.387 323.211 139.387 315.697C139.387 308.182 145.479 305.608 152.993 309.946Z" stroke="white" stroke-linecap="round" stroke-linejoin="round"/>
<path d="M156.119 307.879C163.634 312.217 169.726 321.825 169.726 329.339C169.726 336.854 163.634 339.428 156.119 335.089C148.605 330.751 142.513 321.143 142.513 313.629C142.513 306.114 148.605 303.54 156.119 307.879Z" stroke="white" stroke-linecap="round" stroke-linejoin="round"/>
<path d="M115.351 337.786C120.408 340.705 124.507 347.172 124.507 352.23C124.507 357.287 120.407 359.019 115.351 356.1C110.294 353.18 106.195 346.713 106.195 341.656C106.193 336.598 110.294 334.865 115.351 337.786Z" stroke="white" stroke-linecap="round" stroke-linejoin="round"/>
<path d="M117.461 336.394C122.518 339.313 126.617 345.781 126.617 350.838C126.617 355.895 122.517 357.627 117.461 354.708C112.404 351.789 108.305 345.321 108.305 340.264C108.305 335.207 112.404 333.473 117.461 336.394Z" stroke="white" stroke-linecap="round" stroke-linejoin="round"/>
<path d="M27.5185 286.039C32.5758 288.959 36.6748 295.426 36.6748 300.483C36.6748 305.541 32.5743 307.273 27.5185 304.353C22.4628 301.434 18.3623 294.967 18.3623 289.909C18.3608 284.852 22.4612 283.12 27.5185 286.039Z" stroke="white" stroke-linecap="round" stroke-linejoin="round"/>
<path d="M29.6221 284.648C34.6794 287.567 38.7783 294.034 38.7783 299.092C38.7783 304.149 34.6778 305.881 29.6221 302.962C24.5648 300.042 20.4658 293.575 20.4658 288.518C20.4658 283.46 24.5648 281.728 29.6221 284.648Z" stroke="white" stroke-linecap="round" stroke-linejoin="round"/>
<path d="M171.569 142.889V198.486" stroke="white" stroke-linecap="round" stroke-linejoin="round"/>
<path d="M-50.9307 423.897C-50.9307 423.897 -19.0441 440.904 23.4699 466.767C65.9838 492.63 71.6531 521.328 69.8813 534.436C68.1096 547.545 62.4419 552.505 53.9388 554.63C71.2105 573.408 85.3203 608.129 70.1606 622.655C55.0009 637.181 24.532 616.278 10.0072 607.775C-4.51921 599.272 -50.9307 572.345 -50.9307 572.345V423.897Z" stroke="white" stroke-linecap="round" stroke-linejoin="round"/>
<path d="M69.1929 548.438C69.3577 548.631 69.521 548.825 69.6843 549.02" stroke="white" stroke-linecap="round" stroke-linejoin="round"/>
<path d="M72.4917 552.575C86.2917 570.963 95.8584 598.032 85.3913 611.909" stroke="white" stroke-linecap="round" stroke-linejoin="round" stroke-dasharray="0.99 2.97"/>
<path d="M83.9224 613.63C83.7469 613.811 83.5684 613.99 83.3853 614.166" stroke="white" stroke-linecap="round" stroke-linejoin="round"/>
<path d="M-33.0493 418.99C-22.7272 424.621 3.80607 439.33 36.6999 459.341C79.2153 485.205 84.8831 513.902 83.1113 527.01C82.4399 531.982 81.2068 535.782 79.4717 538.7" stroke="white" stroke-linecap="round" stroke-linejoin="round" stroke-dasharray="0.99 2.97"/>
<path d="M78.1857 540.584C78.03 540.786 77.8698 540.981 77.708 541.172" stroke="white" stroke-linecap="round" stroke-linejoin="round"/>
<path d="M-50.9307 423.897L31.8891 375.011C31.8891 375.011 63.7757 392.017 106.29 417.88C144.985 441.421 153.157 467.309 152.977 481.653" stroke="white" stroke-linecap="round" stroke-linejoin="round"/>
<path d="M136.842 508.307C147.205 518.67 158.466 537.976 158.631 556.934C158.776 573.675 151.457 575.801 142.155 581.114C132.856 586.428 67.23 624.921 67.23 624.921" stroke="white" stroke-linecap="round" stroke-linejoin="round"/>
<path d="M141.36 505.118L60.5562 551.958" stroke="white" stroke-linecap="round" stroke-linejoin="round"/>
<path d="M76.6084 542.654L112.003 598.693" stroke="white" stroke-linecap="round" stroke-linejoin="round"/>
<path d="M114.583 520.711L149.976 576.75" stroke="white" stroke-linecap="round" stroke-linejoin="round"/>
<path d="M105.281 588.055L143.572 566.614" stroke="white" stroke-linecap="round" stroke-linejoin="round"/>
<path d="M90.002 564.095L128.293 542.654" stroke="white" stroke-linecap="round" stroke-linejoin="round"/>
<path d="M156.081 575.893L162.352 579.785L68.5521 634.258L56.3301 627.654" stroke="white" stroke-linecap="round" stroke-linejoin="round"/>
<path d="M162.353 579.785V586.959L68.5537 640.369V634.257" stroke="white" stroke-linecap="round" stroke-linejoin="round"/>
<path d="M29.6206 619.127L68.5514 640.369" stroke="white" stroke-linecap="round" stroke-linejoin="round"/>
<path d="M-8.23828 483.595C-8.23828 483.595 1.06141 488.908 11.6903 495.553C22.3191 502.197 27.3673 510.433 25.7741 516.012C24.1809 521.592 18.3347 521.326 6.37661 514.418C-5.58144 507.509 -8.23828 505.118 -8.23828 505.118V483.595Z" stroke="white" stroke-linecap="round" stroke-linejoin="round"/>
<path d="M-8.23828 505.118L10.1841 494.614" stroke="white" stroke-linecap="round" stroke-linejoin="round"/>
<path d="M-8.23828 538.415C-8.23828 538.415 4.759 546.115 16.3767 553.374C27.993 560.635 33.6286 569.794 31.8859 575.893C30.1432 581.991 23.2531 581.031 10.1841 573.48C-2.88493 565.929 -8.23828 561.938 -8.23828 561.938V538.415Z" stroke="white" stroke-linecap="round" stroke-linejoin="round"/>
<path d="M-8.23828 561.938L11.8963 550.458" stroke="white" stroke-linecap="round" stroke-linejoin="round"/>
<path d="M138.173 486.518L128.292 481.652C128.292 481.652 126.127 480.761 125.33 482.532C124.843 483.616 125.348 485.156 126.415 485.676C127.482 486.196 136.844 490.77 136.844 490.77" stroke="white" stroke-linecap="round" stroke-linejoin="round"/>
<path d="M149.974 488.91L142.865 484.658V502.727L149.42 506.624" stroke="white" stroke-linecap="round" stroke-linejoin="round"/>
<path d="M142.866 499.096C138.703 496.439 137.372 494.048 137.374 489.619C137.375 485.72 140.119 483.861 142.866 485.545" stroke="white" stroke-linecap="round" stroke-linejoin="round"/>
<path d="M142.865 484.658L146.419 482.16L151.925 485.095" stroke="white" stroke-linecap="round" stroke-linejoin="round"/>
<path d="M155.532 512.47L149.974 508.75V486.43L156.24 490.237L155.532 512.47Z" stroke="white" stroke-linecap="round" stroke-linejoin="round"/>
<path d="M149.974 486.43L154.38 483.417L160.463 487.114L156.24 490.237L149.974 486.43Z" stroke="white" stroke-linecap="round" stroke-linejoin="round"/>
<path d="M143.666 480.672C144.463 474.914 142.693 464.907 132.949 461.806C123.205 458.706 110.452 463.932 107.44 477.66C104.429 491.388 111.514 499.183 119.575 501.132C127.635 503.081 134.898 498.298 136.846 495.64" stroke="white" stroke-linecap="round" stroke-linejoin="round"/>
<path d="M115.906 497.314C122.723 497.668 128.496 493.715 130.202 491.39" stroke="white" stroke-linecap="round" stroke-linejoin="round"/>
<path d="M136.318 481.536C138.428 476.634 138.116 470.745 135.756 465.944" stroke="white" stroke-linecap="round" stroke-linejoin="round"/>
<path d="M156.239 490.238C164.385 494.932 184.671 507.687 189.631 511.053C194.59 514.419 200.26 520.618 201.677 538.334C203.095 556.048 203.095 581.381 202.562 584.037C202.031 586.694 200.26 586.871 197.426 586.694C194.592 586.517 187.328 582.443 187.151 574.648C186.974 566.853 186.62 550.872 183.607 542.654C180.597 534.436 178.298 532.479 173.687 529.831C170.657 528.091 164.952 524.829 159.693 522.036C156.754 520.476 155.553 517.262 155.53 512.471" stroke="white" stroke-linecap="round" stroke-linejoin="round"/>
<path d="M165.541 527.476C165.541 530.362 168.021 533.197 171.21 535.146C174.398 537.095 176.879 540.46 177.588 544.534C178.296 548.609 179.713 553.214 184.319 555.694" stroke="white" stroke-linecap="round" stroke-linejoin="round"/>
<path d="M159.698 498.033V503.258L187.331 520.711V515.835L159.698 498.033Z" stroke="white" stroke-linecap="round" stroke-linejoin="round"/>
<path d="M162.351 488.2C169.613 492.452 182.014 499.36 191.402 505.118C200.79 510.876 205.928 519.91 206.636 532.487C207.344 545.065 208.408 570.881 207.877 576.75C207.346 582.619 206.212 585.23 200.668 586.494" stroke="white" stroke-linecap="round" stroke-linejoin="round"/>
<path d="M205.919 526.512C205.391 522.704 201.071 522.79 197.783 524.517C195.384 525.778 191.582 527.351 193 533.728C194.418 540.106 197.685 549.848 198.176 560.123C198.668 570.397 196.444 573.289 198.176 577.335C199.908 581.38 201.628 581.826 204.691 580.848C208.024 579.784 207.879 576.75 207.879 576.75" stroke="white" stroke-linecap="round" stroke-linejoin="round"/>
<path d="M62.8081 530.767C64.0518 531.486 65.0605 533.076 65.0605 534.32C65.0605 535.564 64.0518 535.99 62.8081 535.272C61.5644 534.554 60.5557 532.963 60.5557 531.72C60.5557 530.476 61.5644 530.049 62.8081 530.767Z" stroke="white" stroke-linecap="round" stroke-linejoin="round"/>
<path d="M69.1885 607.825C70.4322 608.544 71.4409 610.134 71.4409 611.378C71.4409 612.621 70.4322 613.047 69.1885 612.33C67.9447 611.611 66.936 610.021 66.936 608.777C66.936 607.533 67.9447 607.108 69.1885 607.825Z" stroke="white" stroke-linecap="round" stroke-linejoin="round"/>
<path d="M123.735 479.005C122.035 479.118 121.093 481.467 121.734 483.577" stroke="white" stroke-linecap="round" stroke-linejoin="round"/>
<path d="M120.679 477.433C118.979 477.546 118.037 479.894 118.678 482.005" stroke="white" stroke-linecap="round" stroke-linejoin="round"/>
<path d="M117.623 475.857C115.923 475.97 114.982 478.319 115.623 480.429" stroke="white" stroke-linecap="round" stroke-linejoin="round"/>
<path d="M114.567 474.284C112.867 474.397 111.925 476.746 112.566 478.856" stroke="white" stroke-linecap="round" stroke-linejoin="round"/>
<path d="M397.539 107.33C398.593 107.33 399.446 106.477 399.446 105.424C399.446 104.37 398.593 103.517 397.539 103.517C396.486 103.517 395.633 104.37 395.633 105.424C395.633 106.477 396.486 107.33 397.539 107.33Z" fill="white"/>
<path d="M375.32 107.33C376.373 107.33 377.227 106.477 377.227 105.424C377.227 104.37 376.373 103.517 375.32 103.517C374.267 103.517 373.413 104.37 373.413 105.424C373.413 106.477 374.267 107.33 375.32 107.33Z" fill="white"/>
<path d="M441.978 107.33C443.031 107.33 443.885 106.477 443.885 105.424C443.885 104.37 443.031 103.517 441.978 103.517C440.925 103.517 440.071 104.37 440.071 105.424C440.071 106.477 440.925 107.33 441.978 107.33Z" fill="white"/>
<path d="M419.759 107.33C420.812 107.33 421.666 106.477 421.666 105.424C421.666 104.37 420.812 103.517 419.759 103.517C418.706 103.517 417.852 104.37 417.852 105.424C417.852 106.477 418.706 107.33 419.759 107.33Z" fill="white"/>
<path d="M353.108 86.6273C354.161 86.6273 355.015 85.7736 355.015 84.7204C355.015 83.6672 354.161 82.8135 353.108 82.8135C352.055 82.8135 351.201 83.6672 351.201 84.7204C351.201 85.7736 352.055 86.6273 353.108 86.6273Z" fill="white"/>
<path d="M330.889 86.6273C331.942 86.6273 332.796 85.7736 332.796 84.7204C332.796 83.6672 331.942 82.8135 330.889 82.8135C329.836 82.8135 328.982 83.6672 328.982 84.7204C328.982 85.7736 329.836 86.6273 330.889 86.6273Z" fill="white"/>
<path d="M375.327 86.6273C376.38 86.6273 377.234 85.7736 377.234 84.7204C377.234 83.6672 376.38 82.8135 375.327 82.8135C374.274 82.8135 373.42 83.6672 373.42 84.7204C373.42 85.7736 374.274 86.6273 375.327 86.6273Z" fill="white"/>
<path d="M397.547 86.6273C398.6 86.6273 399.454 85.7736 399.454 84.7204C399.454 83.6672 398.6 82.8135 397.547 82.8135C396.494 82.8135 395.64 83.6672 395.64 84.7204C395.64 85.7736 396.494 86.6273 397.547 86.6273Z" fill="white"/>
<path d="M419.753 86.6273C420.806 86.6273 421.66 85.7736 421.66 84.7204C421.66 83.6672 420.806 82.8135 419.753 82.8135C418.699 82.8135 417.846 83.6672 417.846 84.7204C417.846 85.7736 418.699 86.6273 419.753 86.6273Z" fill="white"/>
<path d="M441.978 86.6273C443.032 86.6273 443.885 85.7736 443.885 84.7204C443.885 83.6672 443.032 82.8135 441.978 82.8135C440.925 82.8135 440.072 83.6672 440.072 84.7204C440.072 85.7736 440.925 86.6273 441.978 86.6273Z" fill="white"/>
<path d="M464.191 86.6273C465.244 86.6273 466.098 85.7736 466.098 84.7204C466.098 83.6672 465.244 82.8135 464.191 82.8135C463.138 82.8135 462.284 83.6672 462.284 84.7204C462.284 85.7736 463.138 86.6273 464.191 86.6273Z" fill="white"/>
<path d="M486.417 86.6273C487.47 86.6273 488.324 85.7736 488.324 84.7204C488.324 83.6672 487.47 82.8135 486.417 82.8135C485.364 82.8135 484.51 83.6672 484.51 84.7204C484.51 85.7736 485.364 86.6273 486.417 86.6273Z" fill="white"/>
<path d="M330.875 65.9227C331.928 65.9227 332.782 65.069 332.782 64.0158C332.782 62.9626 331.928 62.1089 330.875 62.1089C329.822 62.1089 328.968 62.9626 328.968 64.0158C328.968 65.069 329.822 65.9227 330.875 65.9227Z" fill="white"/>
<path d="M308.656 65.9227C309.709 65.9227 310.563 65.069 310.563 64.0158C310.563 62.9626 309.709 62.1089 308.656 62.1089C307.603 62.1089 306.749 62.9626 306.749 64.0158C306.749 65.069 307.603 65.9227 308.656 65.9227Z" fill="white"/>
<path d="M353.095 65.9227C354.148 65.9227 355.002 65.069 355.002 64.0158C355.002 62.9626 354.148 62.1089 353.095 62.1089C352.042 62.1089 351.188 62.9626 351.188 64.0158C351.188 65.069 352.042 65.9227 353.095 65.9227Z" fill="white"/>
<path d="M375.314 65.9227C376.367 65.9227 377.221 65.069 377.221 64.0158C377.221 62.9626 376.367 62.1089 375.314 62.1089C374.261 62.1089 373.407 62.9626 373.407 64.0158C373.407 65.069 374.261 65.9227 375.314 65.9227Z" fill="white"/>
<path d="M397.533 65.9227C398.586 65.9227 399.44 65.069 399.44 64.0158C399.44 62.9626 398.586 62.1089 397.533 62.1089C396.48 62.1089 395.626 62.9626 395.626 64.0158C395.626 65.069 396.48 65.9227 397.533 65.9227Z" fill="white"/>
<path d="M419.746 65.9227C420.799 65.9227 421.652 65.069 421.652 64.0158C421.652 62.9626 420.799 62.1089 419.746 62.1089C418.692 62.1089 417.839 62.9626 417.839 64.0158C417.839 65.069 418.692 65.9227 419.746 65.9227Z" fill="white"/>
<path d="M441.958 65.9227C443.011 65.9227 443.865 65.069 443.865 64.0158C443.865 62.9626 443.011 62.1089 441.958 62.1089C440.905 62.1089 440.051 62.9626 440.051 64.0158C440.051 65.069 440.905 65.9227 441.958 65.9227Z" fill="white"/>
<path d="M464.184 65.9227C465.237 65.9227 466.091 65.069 466.091 64.0158C466.091 62.9626 465.237 62.1089 464.184 62.1089C463.131 62.1089 462.277 62.9626 462.277 64.0158C462.277 65.069 463.131 65.9227 464.184 65.9227Z" fill="white"/>
<path d="M486.397 65.9227C487.45 65.9227 488.304 65.069 488.304 64.0158C488.304 62.9626 487.45 62.1089 486.397 62.1089C485.344 62.1089 484.49 62.9626 484.49 64.0158C484.49 65.069 485.344 65.9227 486.397 65.9227Z" fill="white"/>
<path d="M508.616 65.9227C509.669 65.9227 510.523 65.069 510.523 64.0158C510.523 62.9626 509.669 62.1089 508.616 62.1089C507.563 62.1089 506.709 62.9626 506.709 64.0158C506.709 65.069 507.563 65.9227 508.616 65.9227Z" fill="white"/>
<path d="M308.656 45.2191C309.709 45.2191 310.563 44.3654 310.563 43.3122C310.563 42.259 309.709 41.4053 308.656 41.4053C307.603 41.4053 306.749 42.259 306.749 43.3122C306.749 44.3654 307.603 45.2191 308.656 45.2191Z" fill="white"/>
<path d="M330.875 45.2191C331.928 45.2191 332.782 44.3654 332.782 43.3122C332.782 42.259 331.928 41.4053 330.875 41.4053C329.822 41.4053 328.968 42.259 328.968 43.3122C328.968 44.3654 329.822 45.2191 330.875 45.2191Z" fill="white"/>
<path d="M353.095 45.2191C354.148 45.2191 355.002 44.3654 355.002 43.3122C355.002 42.259 354.148 41.4053 353.095 41.4053C352.042 41.4053 351.188 42.259 351.188 43.3122C351.188 44.3654 352.042 45.2191 353.095 45.2191Z" fill="white"/>
<path d="M375.314 45.2191C376.367 45.2191 377.221 44.3654 377.221 43.3122C377.221 42.259 376.367 41.4053 375.314 41.4053C374.261 41.4053 373.407 42.259 373.407 43.3122C373.407 44.3654 374.261 45.2191 375.314 45.2191Z" fill="white"/>
<path d="M397.533 45.2191C398.586 45.2191 399.44 44.3654 399.44 43.3122C399.44 42.259 398.586 41.4053 397.533 41.4053C396.48 41.4053 395.626 42.259 395.626 43.3122C395.626 44.3654 396.48 45.2191 397.533 45.2191Z" fill="white"/>
<path d="M419.746 45.2191C420.799 45.2191 421.652 44.3654 421.652 43.3122C421.652 42.259 420.799 41.4053 419.746 41.4053C418.692 41.4053 417.839 42.259 417.839 43.3122C417.839 44.3654 418.692 45.2191 419.746 45.2191Z" fill="white"/>
<path d="M441.958 45.2191C443.011 45.2191 443.865 44.3654 443.865 43.3122C443.865 42.259 443.011 41.4053 441.958 41.4053C440.905 41.4053 440.051 42.259 440.051 43.3122C440.051 44.3654 440.905 45.2191 441.958 45.2191Z" fill="white"/>
<path d="M464.184 45.2191C465.237 45.2191 466.091 44.3654 466.091 43.3122C466.091 42.259 465.237 41.4053 464.184 41.4053C463.131 41.4053 462.277 42.259 462.277 43.3122C462.277 44.3654 463.131 45.2191 464.184 45.2191Z" fill="white"/>
<path d="M486.397 45.2191C487.45 45.2191 488.304 44.3654 488.304 43.3122C488.304 42.259 487.45 41.4053 486.397 41.4053C485.344 41.4053 484.49 42.259 484.49 43.3122C484.49 44.3654 485.344 45.2191 486.397 45.2191Z" fill="white"/>
<path d="M508.616 45.2191C509.669 45.2191 510.523 44.3654 510.523 43.3122C510.523 42.259 509.669 41.4053 508.616 41.4053C507.563 41.4053 506.709 42.259 506.709 43.3122C506.709 44.3654 507.563 45.2191 508.616 45.2191Z" fill="white"/>
<path d="M286.45 24.5175C287.503 24.5175 288.357 23.6637 288.357 22.6105C288.357 21.5574 287.503 20.7036 286.45 20.7036C285.397 20.7036 284.543 21.5574 284.543 22.6105C284.543 23.6637 285.397 24.5175 286.45 24.5175Z" fill="white"/>
<path d="M308.669 24.5175C309.722 24.5175 310.576 23.6637 310.576 22.6105C310.576 21.5574 309.722 20.7036 308.669 20.7036C307.616 20.7036 306.762 21.5574 306.762 22.6105C306.762 23.6637 307.616 24.5175 308.669 24.5175Z" fill="white"/>
<path d="M330.889 24.5175C331.942 24.5175 332.796 23.6637 332.796 22.6105C332.796 21.5574 331.942 20.7036 330.889 20.7036C329.836 20.7036 328.982 21.5574 328.982 22.6105C328.982 23.6637 329.836 24.5175 330.889 24.5175Z" fill="white"/>
<path d="M353.108 24.5175C354.161 24.5175 355.015 23.6637 355.015 22.6105C355.015 21.5574 354.161 20.7036 353.108 20.7036C352.054 20.7036 351.201 21.5574 351.201 22.6105C351.201 23.6637 352.054 24.5175 353.108 24.5175Z" fill="white"/>
<path d="M375.327 24.5175C376.38 24.5175 377.234 23.6637 377.234 22.6105C377.234 21.5574 376.38 20.7036 375.327 20.7036C374.274 20.7036 373.42 21.5574 373.42 22.6105C373.42 23.6637 374.274 24.5175 375.327 24.5175Z" fill="white"/>
<path d="M397.539 24.5175C398.593 24.5175 399.446 23.6637 399.446 22.6105C399.446 21.5574 398.593 20.7036 397.539 20.7036C396.486 20.7036 395.633 21.5574 395.633 22.6105C395.633 23.6637 396.486 24.5175 397.539 24.5175Z" fill="white"/>
<path d="M419.752 24.5175C420.805 24.5175 421.659 23.6637 421.659 22.6105C421.659 21.5574 420.805 20.7036 419.752 20.7036C418.699 20.7036 417.845 21.5574 417.845 22.6105C417.845 23.6637 418.699 24.5175 419.752 24.5175Z" fill="white"/>
<path d="M441.978 24.5175C443.031 24.5175 443.885 23.6637 443.885 22.6105C443.885 21.5574 443.031 20.7036 441.978 20.7036C440.925 20.7036 440.071 21.5574 440.071 22.6105C440.071 23.6637 440.925 24.5175 441.978 24.5175Z" fill="white"/>
<path d="M464.191 24.5175C465.244 24.5175 466.098 23.6637 466.098 22.6105C466.098 21.5574 465.244 20.7036 464.191 20.7036C463.138 20.7036 462.284 21.5574 462.284 22.6105C462.284 23.6637 463.138 24.5175 464.191 24.5175Z" fill="white"/>
<path d="M486.41 24.5175C487.463 24.5175 488.317 23.6637 488.317 22.6105C488.317 21.5574 487.463 20.7036 486.41 20.7036C485.357 20.7036 484.503 21.5574 484.503 22.6105C484.503 23.6637 485.357 24.5175 486.41 24.5175Z" fill="white"/>
<path d="M508.636 24.5175C509.689 24.5175 510.543 23.6637 510.543 22.6105C510.543 21.5574 509.689 20.7036 508.636 20.7036C507.583 20.7036 506.729 21.5574 506.729 22.6105C506.729 23.6637 507.583 24.5175 508.636 24.5175Z" fill="white"/>
<path d="M530.842 24.5175C531.895 24.5175 532.749 23.6637 532.749 22.6105C532.749 21.5574 531.895 20.7036 530.842 20.7036C529.789 20.7036 528.935 21.5574 528.935 22.6105C528.935 23.6637 529.789 24.5175 530.842 24.5175Z" fill="white"/>
<path d="M286.45 3.81385C287.503 3.81385 288.357 2.96009 288.357 1.90693C288.357 0.85376 287.503 0 286.45 0C285.397 0 284.543 0.85376 284.543 1.90693C284.543 2.96009 285.397 3.81385 286.45 3.81385Z" fill="white"/>
<path d="M308.669 3.81385C309.722 3.81385 310.576 2.96009 310.576 1.90693C310.576 0.85376 309.722 0 308.669 0C307.616 0 306.762 0.85376 306.762 1.90693C306.762 2.96009 307.616 3.81385 308.669 3.81385Z" fill="white"/>
<path d="M330.889 3.81385C331.942 3.81385 332.796 2.96009 332.796 1.90693C332.796 0.85376 331.942 0 330.889 0C329.836 0 328.982 0.85376 328.982 1.90693C328.982 2.96009 329.836 3.81385 330.889 3.81385Z" fill="white"/>
<path d="M353.108 3.81385C354.161 3.81385 355.015 2.96009 355.015 1.90693C355.015 0.85376 354.161 0 353.108 0C352.054 0 351.201 0.85376 351.201 1.90693C351.201 2.96009 352.054 3.81385 353.108 3.81385Z" fill="white"/>
<path d="M375.327 3.81385C376.38 3.81385 377.234 2.96009 377.234 1.90693C377.234 0.85376 376.38 0 375.327 0C374.274 0 373.42 0.85376 373.42 1.90693C373.42 2.96009 374.274 3.81385 375.327 3.81385Z" fill="white"/>
<path d="M397.539 3.81385C398.593 3.81385 399.446 2.96009 399.446 1.90693C399.446 0.85376 398.593 0 397.539 0C396.486 0 395.633 0.85376 395.633 1.90693C395.633 2.96009 396.486 3.81385 397.539 3.81385Z" fill="white"/>
<path d="M419.752 3.81385C420.805 3.81385 421.659 2.96009 421.659 1.90693C421.659 0.85376 420.805 0 419.752 0C418.699 0 417.845 0.85376 417.845 1.90693C417.845 2.96009 418.699 3.81385 419.752 3.81385Z" fill="white"/>
<path d="M441.978 3.81385C443.031 3.81385 443.885 2.96009 443.885 1.90693C443.885 0.85376 443.031 0 441.978 0C440.925 0 440.071 0.85376 440.071 1.90693C440.071 2.96009 440.925 3.81385 441.978 3.81385Z" fill="white"/>
<path d="M464.191 3.81385C465.244 3.81385 466.098 2.96009 466.098 1.90693C466.098 0.85376 465.244 0 464.191 0C463.137 0 462.284 0.85376 462.284 1.90693C462.284 2.96009 463.137 3.81385 464.191 3.81385Z" fill="white"/>
<path d="M486.41 3.81385C487.463 3.81385 488.317 2.96009 488.317 1.90693C488.317 0.85376 487.463 0 486.41 0C485.357 0 484.503 0.85376 484.503 1.90693C484.503 2.96009 485.357 3.81385 486.41 3.81385Z" fill="white"/>
<path d="M508.636 3.81385C509.689 3.81385 510.543 2.96009 510.543 1.90693C510.543 0.85376 509.689 0 508.636 0C507.583 0 506.729 0.85376 506.729 1.90693C506.729 2.96009 507.583 3.81385 508.636 3.81385Z" fill="white"/>
<path d="M530.842 3.81385C531.895 3.81385 532.749 2.96009 532.749 1.90693C532.749 0.85376 531.895 0 530.842 0C529.789 0 528.935 0.85376 528.935 1.90693C528.935 2.96009 529.789 3.81385 530.842 3.81385Z" fill="white"/>
<path d="M431.822 738.578C430.768 738.578 429.915 739.432 429.915 740.485C429.915 741.538 430.768 742.392 431.822 742.392C432.875 742.392 433.729 741.538 433.729 740.485C433.729 739.432 432.875 738.578 431.822 738.578Z" fill="white"/>
<path d="M454.041 738.578C452.988 738.578 452.134 739.432 452.134 740.485C452.134 741.538 452.988 742.392 454.041 742.392C455.094 742.392 455.948 741.538 455.948 740.485C455.948 739.432 455.094 738.578 454.041 738.578Z" fill="white"/>
<path d="M387.383 738.578C386.33 738.578 385.476 739.432 385.476 740.485C385.476 741.538 386.33 742.392 387.383 742.392C388.436 742.392 389.29 741.538 389.29 740.485C389.29 739.432 388.436 738.578 387.383 738.578Z" fill="white"/>
<path d="M409.602 738.578C408.549 738.578 407.695 739.432 407.695 740.485C407.695 741.538 408.549 742.392 409.602 742.392C410.655 742.392 411.509 741.538 411.509 740.485C411.509 739.432 410.655 738.578 409.602 738.578Z" fill="white"/>
<path d="M476.253 759.281C475.2 759.281 474.346 760.135 474.346 761.188C474.346 762.241 475.2 763.095 476.253 763.095C477.306 763.095 478.16 762.241 478.16 761.188C478.16 760.135 477.306 759.281 476.253 759.281Z" fill="white"/>
<path d="M498.472 759.281C497.419 759.281 496.565 760.135 496.565 761.188C496.565 762.241 497.419 763.095 498.472 763.095C499.525 763.095 500.379 762.241 500.379 761.188C500.379 760.135 499.525 759.281 498.472 759.281Z" fill="white"/>
<path d="M454.034 759.281C452.981 759.281 452.127 760.135 452.127 761.188C452.127 762.241 452.981 763.095 454.034 763.095C455.087 763.095 455.941 762.241 455.941 761.188C455.941 760.135 455.087 759.281 454.034 759.281Z" fill="white"/>
<path d="M431.814 759.281C430.761 759.281 429.907 760.135 429.907 761.188C429.907 762.241 430.761 763.095 431.814 763.095C432.867 763.095 433.721 762.241 433.721 761.188C433.721 760.135 432.867 759.281 431.814 759.281Z" fill="white"/>
<path d="M409.609 759.281C408.556 759.281 407.702 760.135 407.702 761.188C407.702 762.241 408.556 763.095 409.609 763.095C410.662 763.095 411.516 762.241 411.516 761.188C411.516 760.135 410.662 759.281 409.609 759.281Z" fill="white"/>
<path d="M387.383 759.281C386.329 759.281 385.476 760.135 385.476 761.188C385.476 762.241 386.329 763.095 387.383 763.095C388.436 763.095 389.29 762.241 389.29 761.188C389.29 760.135 388.436 759.281 387.383 759.281Z" fill="white"/>
<path d="M365.17 759.281C364.117 759.281 363.263 760.135 363.263 761.188C363.263 762.241 364.117 763.095 365.17 763.095C366.223 763.095 367.077 762.241 367.077 761.188C367.077 760.135 366.223 759.281 365.17 759.281Z" fill="white"/>
<path d="M342.944 759.281C341.891 759.281 341.037 760.135 341.037 761.188C341.037 762.241 341.891 763.095 342.944 763.095C343.997 763.095 344.851 762.241 344.851 761.188C344.851 760.135 343.997 759.281 342.944 759.281Z" fill="white"/>
<path d="M498.486 779.985C497.433 779.985 496.579 780.839 496.579 781.892C496.579 782.946 497.433 783.799 498.486 783.799C499.539 783.799 500.393 782.946 500.393 781.892C500.393 780.839 499.539 779.985 498.486 779.985Z" fill="white"/>
<path d="M520.705 779.985C519.652 779.985 518.798 780.839 518.798 781.892C518.798 782.946 519.652 783.799 520.705 783.799C521.759 783.799 522.612 782.946 522.612 781.892C522.612 780.839 521.759 779.985 520.705 779.985Z" fill="white"/>
<path d="M476.266 779.985C475.213 779.985 474.359 780.839 474.359 781.892C474.359 782.946 475.213 783.799 476.266 783.799C477.32 783.799 478.173 782.946 478.173 781.892C478.173 780.839 477.32 779.985 476.266 779.985Z" fill="white"/>
<path d="M454.047 779.985C452.994 779.985 452.14 780.839 452.14 781.892C452.14 782.946 452.994 783.799 454.047 783.799C455.101 783.799 455.954 782.946 455.954 781.892C455.954 780.839 455.101 779.985 454.047 779.985Z" fill="white"/>
<path d="M431.828 779.985C430.775 779.985 429.921 780.839 429.921 781.892C429.921 782.946 430.775 783.799 431.828 783.799C432.881 783.799 433.735 782.946 433.735 781.892C433.735 780.839 432.881 779.985 431.828 779.985Z" fill="white"/>
<path d="M409.616 779.985C408.563 779.985 407.709 780.839 407.709 781.892C407.709 782.946 408.563 783.799 409.616 783.799C410.669 783.799 411.523 782.946 411.523 781.892C411.523 780.839 410.669 779.985 409.616 779.985Z" fill="white"/>
<path d="M387.403 779.985C386.35 779.985 385.496 780.839 385.496 781.892C385.496 782.946 386.35 783.799 387.403 783.799C388.456 783.799 389.31 782.946 389.31 781.892C389.31 780.839 388.456 779.985 387.403 779.985Z" fill="white"/>
<path d="M365.177 779.985C364.124 779.985 363.27 780.839 363.27 781.892C363.27 782.946 364.124 783.799 365.177 783.799C366.23 783.799 367.084 782.946 367.084 781.892C367.084 780.839 366.23 779.985 365.177 779.985Z" fill="white"/>
<path d="M342.965 779.985C341.911 779.985 341.058 780.839 341.058 781.892C341.058 782.946 341.911 783.799 342.965 783.799C344.018 783.799 344.872 782.946 344.872 781.892C344.872 780.839 344.018 779.985 342.965 779.985Z" fill="white"/>
<path d="M320.745 779.985C319.692 779.985 318.838 780.839 318.838 781.892C318.838 782.946 319.692 783.799 320.745 783.799C321.799 783.799 322.652 782.946 322.652 781.892C322.652 780.839 321.799 779.985 320.745 779.985Z" fill="white"/>
<path d="M520.705 800.689C519.652 800.689 518.798 801.543 518.798 802.596C518.798 803.649 519.652 804.503 520.705 804.503C521.759 804.503 522.612 803.649 522.612 802.596C522.612 801.543 521.759 800.689 520.705 800.689Z" fill="white"/>
<path d="M498.486 800.689C497.433 800.689 496.579 801.543 496.579 802.596C496.579 803.649 497.433 804.503 498.486 804.503C499.539 804.503 500.393 803.649 500.393 802.596C500.393 801.543 499.539 800.689 498.486 800.689Z" fill="white"/>
<path d="M476.266 800.689C475.213 800.689 474.359 801.543 474.359 802.596C474.359 803.649 475.213 804.503 476.266 804.503C477.32 804.503 478.173 803.649 478.173 802.596C478.173 801.543 477.32 800.689 476.266 800.689Z" fill="white"/>
<path d="M454.047 800.689C452.994 800.689 452.14 801.543 452.14 802.596C452.14 803.649 452.994 804.503 454.047 804.503C455.101 804.503 455.954 803.649 455.954 802.596C455.954 801.543 455.101 800.689 454.047 800.689Z" fill="white"/>
<path d="M431.828 800.689C430.775 800.689 429.921 801.543 429.921 802.596C429.921 803.649 430.775 804.503 431.828 804.503C432.881 804.503 433.735 803.649 433.735 802.596C433.735 801.543 432.881 800.689 431.828 800.689Z" fill="white"/>
<path d="M409.616 800.689C408.563 800.689 407.709 801.543 407.709 802.596C407.709 803.649 408.563 804.503 409.616 804.503C410.669 804.503 411.523 803.649 411.523 802.596C411.523 801.543 410.669 800.689 409.616 800.689Z" fill="white"/>
<path d="M387.403 800.689C386.35 800.689 385.496 801.543 385.496 802.596C385.496 803.649 386.35 804.503 387.403 804.503C388.456 804.503 389.31 803.649 389.31 802.596C389.31 801.543 388.456 800.689 387.403 800.689Z" fill="white"/>
<path d="M365.177 800.689C364.124 800.689 363.27 801.543 363.27 802.596C363.27 803.649 364.124 804.503 365.177 804.503C366.23 804.503 367.084 803.649 367.084 802.596C367.084 801.543 366.23 800.689 365.177 800.689Z" fill="white"/>
<path d="M342.965 800.689C341.911 800.689 341.058 801.543 341.058 802.596C341.058 803.649 341.911 804.503 342.965 804.503C344.018 804.503 344.872 803.649 344.872 802.596C344.872 801.543 344.018 800.689 342.965 800.689Z" fill="white"/>
<path d="M320.745 800.689C319.692 800.689 318.838 801.543 318.838 802.596C318.838 803.649 319.692 804.503 320.745 804.503C321.799 804.503 322.652 803.649 322.652 802.596C322.652 801.543 321.799 800.689 320.745 800.689Z" fill="white"/>
<path d="M542.911 821.391C541.858 821.391 541.004 822.244 541.004 823.298C541.004 824.351 541.858 825.205 542.911 825.205C543.964 825.205 544.818 824.351 544.818 823.298C544.818 822.244 543.964 821.391 542.911 821.391Z" fill="white"/>
<path d="M520.692 821.391C519.639 821.391 518.785 822.244 518.785 823.298C518.785 824.351 519.639 825.205 520.692 825.205C521.745 825.205 522.599 824.351 522.599 823.298C522.599 822.244 521.745 821.391 520.692 821.391Z" fill="white"/>
<path d="M498.472 821.391C497.419 821.391 496.565 822.244 496.565 823.298C496.565 824.351 497.419 825.205 498.472 825.205C499.525 825.205 500.379 824.351 500.379 823.298C500.379 822.244 499.525 821.391 498.472 821.391Z" fill="white"/>
<path d="M476.253 821.391C475.2 821.391 474.346 822.244 474.346 823.298C474.346 824.351 475.2 825.205 476.253 825.205C477.306 825.205 478.16 824.351 478.16 823.298C478.16 822.244 477.306 821.391 476.253 821.391Z" fill="white"/>
<path d="M454.034 821.391C452.981 821.391 452.127 822.244 452.127 823.298C452.127 824.351 452.981 825.205 454.034 825.205C455.087 825.205 455.941 824.351 455.941 823.298C455.941 822.244 455.087 821.391 454.034 821.391Z" fill="white"/>
<path d="M431.822 821.391C430.768 821.391 429.915 822.244 429.915 823.298C429.915 824.351 430.768 825.205 431.822 825.205C432.875 825.205 433.729 824.351 433.729 823.298C433.729 822.244 432.875 821.391 431.822 821.391Z" fill="white"/>
<path d="M409.609 821.391C408.556 821.391 407.702 822.244 407.702 823.298C407.702 824.351 408.556 825.205 409.609 825.205C410.662 825.205 411.516 824.351 411.516 823.298C411.516 822.244 410.662 821.391 409.609 821.391Z" fill="white"/>
<path d="M387.383 821.391C386.33 821.391 385.476 822.244 385.476 823.298C385.476 824.351 386.33 825.205 387.383 825.205C388.436 825.205 389.29 824.351 389.29 823.298C389.29 822.244 388.436 821.391 387.383 821.391Z" fill="white"/>
<path d="M365.17 821.391C364.117 821.391 363.264 822.244 363.264 823.298C363.264 824.351 364.117 825.205 365.17 825.205C366.224 825.205 367.077 824.351 367.077 823.298C367.077 822.244 366.224 821.391 365.17 821.391Z" fill="white"/>
<path d="M342.951 821.391C341.898 821.391 341.044 822.244 341.044 823.298C341.044 824.351 341.898 825.205 342.951 825.205C344.004 825.205 344.858 824.351 344.858 823.298C344.858 822.244 344.004 821.391 342.951 821.391Z" fill="white"/>
<path d="M320.725 821.391C319.672 821.391 318.818 822.244 318.818 823.298C318.818 824.351 319.672 825.205 320.725 825.205C321.778 825.205 322.632 824.351 322.632 823.298C322.632 822.244 321.778 821.391 320.725 821.391Z" fill="white"/>
<path d="M298.519 821.391C297.466 821.391 296.612 822.244 296.612 823.298C296.612 824.351 297.466 825.205 298.519 825.205C299.573 825.205 300.426 824.351 300.426 823.298C300.426 822.244 299.573 821.391 298.519 821.391Z" fill="white"/>
<path d="M542.911 842.094C541.858 842.094 541.004 842.948 541.004 844.001C541.004 845.054 541.858 845.908 542.911 845.908C543.964 845.908 544.818 845.054 544.818 844.001C544.818 842.948 543.964 842.094 542.911 842.094Z" fill="white"/>
<path d="M520.692 842.094C519.639 842.094 518.785 842.948 518.785 844.001C518.785 845.054 519.639 845.908 520.692 845.908C521.745 845.908 522.599 845.054 522.599 844.001C522.599 842.948 521.745 842.094 520.692 842.094Z" fill="white"/>
<path d="M498.472 842.094C497.419 842.094 496.565 842.948 496.565 844.001C496.565 845.054 497.419 845.908 498.472 845.908C499.525 845.908 500.379 845.054 500.379 844.001C500.379 842.948 499.525 842.094 498.472 842.094Z" fill="white"/>
<path d="M476.253 842.094C475.2 842.094 474.346 842.948 474.346 844.001C474.346 845.054 475.2 845.908 476.253 845.908C477.306 845.908 478.16 845.054 478.16 844.001C478.16 842.948 477.306 842.094 476.253 842.094Z" fill="white"/>
<path d="M454.034 842.094C452.981 842.094 452.127 842.948 452.127 844.001C452.127 845.054 452.981 845.908 454.034 845.908C455.087 845.908 455.941 845.054 455.941 844.001C455.941 842.948 455.087 842.094 454.034 842.094Z" fill="white"/>
<path d="M431.822 842.094C430.768 842.094 429.915 842.948 429.915 844.001C429.915 845.054 430.768 845.908 431.822 845.908C432.875 845.908 433.729 845.054 433.729 844.001C433.729 842.948 432.875 842.094 431.822 842.094Z" fill="white"/>
<path d="M409.609 842.094C408.556 842.094 407.702 842.948 407.702 844.001C407.702 845.054 408.556 845.908 409.609 845.908C410.662 845.908 411.516 845.054 411.516 844.001C411.516 842.948 410.662 842.094 409.609 842.094Z" fill="white"/>
<path d="M387.383 842.094C386.33 842.094 385.476 842.948 385.476 844.001C385.476 845.054 386.33 845.908 387.383 845.908C388.436 845.908 389.29 845.054 389.29 844.001C389.29 842.948 388.436 842.094 387.383 842.094Z" fill="white"/>
<path d="M365.17 842.094C364.117 842.094 363.264 842.948 363.264 844.001C363.264 845.054 364.117 845.908 365.17 845.908C366.224 845.908 367.077 845.054 367.077 844.001C367.077 842.948 366.224 842.094 365.17 842.094Z" fill="white"/>
<path d="M342.951 842.094C341.898 842.094 341.044 842.948 341.044 844.001C341.044 845.054 341.898 845.908 342.951 845.908C344.004 845.908 344.858 845.054 344.858 844.001C344.858 842.948 344.004 842.094 342.951 842.094Z" fill="white"/>
<path d="M320.725 842.094C319.672 842.094 318.818 842.948 318.818 844.001C318.818 845.054 319.672 845.908 320.725 845.908C321.778 845.908 322.632 845.054 322.632 844.001C322.632 842.948 321.778 842.094 320.725 842.094Z" fill="white"/>
<path d="M298.519 842.094C297.466 842.094 296.612 842.948 296.612 844.001C296.612 845.054 297.466 845.908 298.519 845.908C299.573 845.908 300.426 845.054 300.426 844.001C300.426 842.948 299.573 842.094 298.519 842.094Z" fill="white"/>
</svg>
