<svg width="159" height="33" viewBox="0 0 159 33" fill="none" xmlns="http://www.w3.org/2000/svg">
<path d="M78.8217 0.25293C79.0198 0.301044 79.2146 0.368659 79.4151 0.395007C81.3087 0.636722 82.9491 1.43517 84.3845 2.66894C85.6951 3.79504 86.6058 5.19722 87.1236 6.84226C87.5761 8.27651 87.6689 9.73827 87.4043 11.2287C87.0697 13.1143 86.2117 14.7306 84.8794 16.0732C83.6285 17.3322 82.1266 18.1983 80.3819 18.6221C79.1138 18.9303 77.8491 18.9864 76.5546 18.7883C74.3425 18.4503 72.4993 17.4296 70.9848 15.8235C69.924 14.6986 69.2126 13.3617 68.8277 11.8484C68.4852 10.5012 68.4623 9.14829 68.7246 7.79995C69.0236 6.26374 69.7006 4.8925 70.7087 3.68736C71.8291 2.34819 73.2256 1.39738 74.866 0.834909C75.574 0.592048 76.3323 0.498098 77.0666 0.334282C77.1491 0.315952 77.2293 0.280431 77.3095 0.254083C77.8136 0.252938 78.3176 0.25293 78.8217 0.25293ZM78.0163 15.9071C78.0163 15.8774 78.0163 15.8476 78.0163 15.8178C78.0163 15.237 78.0198 15.2542 78.5857 15.1625C79.2787 15.0503 79.2157 15.103 79.3543 15.7204C79.3578 15.7353 79.3589 15.7502 79.3612 15.7639C79.4735 16.4249 79.4735 16.4249 80.123 16.2485C80.7027 16.0904 80.7073 16.0836 80.4759 15.5532C80.4518 15.4993 80.422 15.4466 80.4037 15.3905C80.178 14.7249 80.0314 14.875 80.7176 14.5107C80.7955 14.4695 80.8722 14.4225 80.9513 14.3824C81.2113 14.2472 81.2445 14.2541 81.4209 14.5004C81.5584 14.6928 81.6844 14.8944 81.8219 15.0869C81.996 15.3286 82.0327 15.3355 82.2755 15.1465C82.4508 15.0102 82.6101 14.8544 82.7842 14.7169C82.9251 14.6058 82.9205 14.513 82.7933 14.3939C82.5986 14.2117 82.4107 14.0227 82.2251 13.8302C82.0052 13.6011 82.0063 13.5965 82.1965 13.356C82.3248 13.1933 82.4726 13.0444 82.5871 12.8725C82.7097 12.6892 82.8334 12.6961 82.995 12.8084C83.2138 12.9607 83.4417 13.0982 83.6594 13.2529C83.8163 13.364 83.9389 13.3399 84.0294 13.1818C84.1543 12.9642 84.2734 12.7419 84.38 12.514C84.4453 12.3731 84.4086 12.262 84.2425 12.2012C83.9928 12.1096 83.7522 11.9927 83.5013 11.9045C83.2859 11.8289 83.231 11.7006 83.3043 11.4933C83.3593 11.3409 83.4039 11.184 83.4498 11.0282C83.5563 10.6616 83.5861 10.6421 83.9847 10.704C84.0283 10.7108 84.0729 10.7246 84.1165 10.7246C84.3719 10.7235 84.6721 11.0041 84.8599 10.7612C85.0031 10.5757 84.986 10.2549 85.01 9.99257C85.0352 9.72107 84.9585 9.64201 84.6916 9.62941C84.4854 9.6191 84.2769 9.63287 84.0695 9.63745C83.6972 9.64661 83.6617 9.61797 83.6285 9.25712C83.6147 9.10934 83.6056 8.96157 83.5907 8.81379C83.554 8.44148 83.5517 8.43344 83.9149 8.33606C84.1428 8.27535 84.38 8.2513 84.6102 8.1986C84.7523 8.16538 84.8542 8.09322 84.7946 7.91336C84.7156 7.67508 84.6423 7.43451 84.577 7.19165C84.5232 6.99461 84.412 6.97284 84.2436 7.04845C84.0008 7.15728 83.7476 7.24549 83.5105 7.36463C83.318 7.462 83.2035 7.4013 83.1118 7.2329C83.0133 7.05075 82.9136 6.86973 82.8174 6.68644C82.6845 6.43556 82.6925 6.39432 82.94 6.21791C83.145 6.07242 83.3512 5.92811 83.5666 5.79751C83.7419 5.69098 83.7396 5.58328 83.6181 5.44008C83.4555 5.24763 83.2917 5.05632 83.1427 4.85356C83.0247 4.69318 82.9308 4.74244 82.8231 4.85356C82.6467 5.03341 82.4703 5.21324 82.2893 5.38852C82.0419 5.62794 82.0281 5.62796 81.7761 5.43092C81.6134 5.30262 81.4599 5.16057 81.2881 5.04601C81.1231 4.93718 81.1185 4.82378 81.2205 4.676C81.3717 4.45605 81.5103 4.22691 81.6718 4.01613C81.8104 3.83627 81.76 3.71942 81.5848 3.62548C81.3499 3.50062 81.1151 3.37348 80.8722 3.26809C80.8264 3.24747 80.7038 3.30243 80.6775 3.35399C80.5583 3.59112 80.461 3.83973 80.3556 4.08259C80.225 4.38273 80.162 4.41021 79.8492 4.30825C79.8068 4.29451 79.7668 4.27388 79.7255 4.25784C79.5239 4.17994 79.2329 4.15703 79.1459 4.01155C79.0554 3.86148 79.1539 3.58998 79.1859 3.37461C79.2799 2.74913 79.2833 2.74914 78.667 2.72394C77.9189 2.69301 78.0656 2.74686 78.061 3.30361C78.0541 3.96804 78.0599 3.96802 77.4264 4.04133C77.3966 4.04477 77.3668 4.04706 77.3381 4.05049C76.8914 4.10204 76.8891 4.09976 76.7665 3.65642C76.7505 3.59915 76.7367 3.54187 76.7253 3.48344C76.597 2.80985 76.597 2.80984 75.944 3.01833C75.4228 3.18559 75.425 3.18447 75.6278 3.69883C75.7137 3.91649 75.8924 4.1731 75.8363 4.35066C75.7825 4.5202 75.4766 4.60955 75.2818 4.73441C75.2566 4.75045 75.2349 4.76993 75.2085 4.78483C74.8763 4.97499 74.8683 4.97269 74.6426 4.66453C74.6163 4.62902 74.5911 4.59236 74.5659 4.5557C74.0469 3.80192 74.0194 3.80192 73.3607 4.4526C73.2187 4.59351 73.1832 4.71034 73.3436 4.86041C73.5383 5.04256 73.7193 5.23961 73.9106 5.42519C74.0401 5.5512 74.0504 5.67261 73.9312 5.81237C73.7869 5.98077 73.6402 6.14918 73.5154 6.33247C73.3939 6.50889 73.2679 6.5192 73.1064 6.40236C73.0468 6.35882 72.9838 6.31758 72.9197 6.28321C72.6711 6.15033 72.4385 5.7929 72.1774 5.93609C71.9563 6.05638 71.8646 6.41841 71.7214 6.67616C71.6424 6.81821 71.671 6.92473 71.8371 6.98888C72.0995 7.08969 72.3584 7.19852 72.6161 7.30964C72.7627 7.37264 72.8739 7.46544 72.8154 7.65102C72.7398 7.89045 72.6688 8.13218 72.584 8.36931C72.5256 8.53083 72.4133 8.58809 72.2323 8.54341C71.9895 8.48269 71.7397 8.44947 71.4923 8.40479C71.2151 8.35439 71.2151 8.35554 71.1658 8.64193C71.1532 8.71524 71.1441 8.78858 71.1326 8.8619C71.018 9.57444 71.018 9.58246 71.7375 9.5733C72.6184 9.56184 72.4718 9.63628 72.5004 10.2812C72.5027 10.3408 72.4993 10.4015 72.5107 10.4588C72.5588 10.7039 72.4408 10.8151 72.2129 10.8575C71.9505 10.9067 71.6905 10.9651 71.4304 11.0224C71.2861 11.0534 71.2346 11.1416 71.2792 11.2848C71.3457 11.4967 71.4007 11.7121 71.4797 11.9183C71.5943 12.2161 71.6298 12.2264 71.9368 12.1038C72.1567 12.0168 72.3732 11.9206 72.5932 11.8312C72.7719 11.7591 72.9048 11.7968 72.9907 11.9858C73.0698 12.1611 73.1683 12.3272 73.2611 12.4956C73.4088 12.766 73.4123 12.7889 73.1694 12.9642C72.9426 13.1291 72.7009 13.2746 72.4683 13.4339C72.3549 13.5118 72.3148 13.6045 72.4214 13.7283C72.576 13.907 72.7135 14.1017 72.875 14.2747C73.0766 14.4924 73.0858 14.4878 73.2943 14.2896C73.4867 14.1052 73.6781 13.9184 73.8602 13.7237C73.9828 13.5931 74.0996 13.5622 74.2428 13.6847C74.4341 13.8474 74.6277 14.0078 74.8202 14.1693C74.945 14.2747 74.9473 14.3893 74.8568 14.5199C74.7641 14.6539 74.6781 14.7925 74.5876 14.9277C74.2256 15.4707 74.2256 15.4707 74.8225 15.7719C75.354 16.04 75.354 16.04 75.5671 15.4924C75.8478 14.7719 75.8478 14.7719 76.5912 14.9953C77.0002 15.1179 77.0071 15.1282 76.9429 15.5429C76.9246 15.6597 76.912 15.7788 76.8891 15.8946C76.7745 16.4559 76.7734 16.4559 77.3599 16.5234C77.9968 16.5968 78.014 16.5819 78.014 15.953C78.0163 15.9369 78.0163 15.922 78.0163 15.9071Z" fill="white"/>
<path d="M158.165 14.8406C158.112 14.9425 158.042 15.0387 158.01 15.1464C157.483 16.8762 156.334 18.0012 154.645 18.59C153.264 19.0712 151.853 19.0494 150.437 18.7928C148.95 18.5224 147.634 17.8798 146.468 16.9209C146.387 16.8556 146.306 16.7903 146.232 16.7182C146.021 16.5097 146.011 16.4661 146.181 16.229C146.656 15.5669 147.134 14.9081 147.618 14.2517C147.816 13.9825 147.87 13.9779 148.147 14.2116C148.833 14.7901 149.6 15.2347 150.445 15.5245C151.261 15.804 152.096 15.9861 152.969 15.7971C153.454 15.6917 153.901 15.5233 154.266 15.1647C155.018 14.4201 155.079 13.2219 154.22 12.444C153.709 11.9812 153.096 11.6822 152.478 11.3947C151.407 10.8964 150.318 10.4336 149.267 9.89515C148.321 9.41058 147.51 8.74615 146.964 7.80221C146.428 6.87659 146.279 5.87879 146.464 4.84435C146.859 2.64829 148.232 1.28961 150.317 0.701937C152.865 -0.0151887 155.269 0.382328 157.442 1.95176C157.454 1.96092 157.465 1.97126 157.477 1.98042C157.888 2.29775 157.891 2.31263 157.64 2.77887C157.367 3.28751 157.089 3.79383 156.814 4.30131C156.737 4.44451 156.668 4.5923 156.586 4.73321C156.42 5.02418 156.391 5.01731 156.117 4.84662C155.641 4.54877 155.172 4.23374 154.668 3.99202C153.741 3.54754 152.756 3.35508 151.732 3.55212C150.925 3.70677 150.249 4.09284 149.928 4.89703C149.68 5.52022 149.758 6.10559 150.229 6.62797C150.71 7.16295 151.326 7.47342 151.963 7.75637C152.733 8.09775 153.515 8.41277 154.284 8.75644C155.124 9.13218 155.927 9.56638 156.629 10.177C157.296 10.7566 157.772 11.4497 158.023 12.2985C158.056 12.4097 158.118 12.5116 158.166 12.6182C158.165 13.3582 158.165 14.0994 158.165 14.8406Z" fill="white"/>
<path d="M0.373047 8.16891C0.464692 7.82868 0.563211 7.48959 0.645692 7.14706C1.02373 5.56733 1.78782 4.19266 2.91735 3.04136C4.04459 1.89121 5.40095 1.10533 6.97038 0.688347C7.87996 0.446632 8.801 0.320617 9.73349 0.342383C11.7428 0.388206 13.6193 0.897981 15.2838 2.06532C15.514 2.22684 15.7305 2.40786 15.9425 2.59115C16.1739 2.79048 16.1819 2.84776 16.0146 3.11468C15.7798 3.49157 15.5335 3.86157 15.2929 4.23388C15.1245 4.49507 14.9596 4.75854 14.7866 5.01744C14.6136 5.27634 14.554 5.28895 14.2986 5.09306C13.5654 4.52944 12.7681 4.08384 11.8883 3.79286C10.5766 3.35869 9.2535 3.29108 7.91547 3.67141C5.86605 4.25451 4.58874 5.62919 4.04918 7.6408C3.50618 9.66388 3.77309 11.6159 4.98396 13.3675C5.97488 14.8029 7.37476 15.5819 9.10915 15.7515C11.0635 15.9428 12.7383 15.2611 14.2505 14.0846C14.4017 13.9666 14.5506 13.8475 14.7041 13.7329C14.7224 13.7192 14.7591 13.7307 14.8439 13.7307C14.7499 14.0216 14.6663 14.2977 14.5712 14.5704C14.2046 15.6163 13.8266 16.6587 13.468 17.7081C13.3546 18.038 13.1817 18.2477 12.8254 18.3542C11.4335 18.7735 10.0279 18.9407 8.57417 18.8009C7.51452 18.699 6.50069 18.4516 5.543 18.0071C3.37444 17.0013 1.85541 15.3665 1.00769 13.1327C0.788888 12.5564 0.678914 11.939 0.513952 11.341C0.475003 11.2001 0.420015 11.0649 0.373047 10.9263C0.373047 10.0076 0.373047 9.0888 0.373047 8.16891Z" fill="white"/>
<path d="M59.256 32.1845C58.8906 32.0768 58.5194 31.9829 58.1586 31.8603C56.8274 31.4089 55.8984 30.1855 55.8926 28.6355C55.8858 26.7992 55.8892 24.9628 55.8926 23.1265C55.8938 22.6763 55.9178 22.6568 56.3749 22.6545C56.8492 22.6522 57.3223 22.6511 57.7966 22.6545C58.2434 22.6579 58.2651 22.6774 58.2651 23.1402C58.2674 24.8139 58.2663 26.4876 58.2663 28.1612C58.2663 28.2792 58.2731 28.3984 58.2651 28.5164C58.2193 29.1602 58.5641 29.7765 59.437 29.946C59.8414 30.0251 60.2401 29.9839 60.6089 29.8086C61.0076 29.6196 61.2585 29.2965 61.3158 28.8509C61.349 28.5874 61.365 28.3193 61.365 28.0547C61.3696 26.4704 61.3673 24.8849 61.3673 23.3006C61.3673 23.1826 61.3708 23.0635 61.3685 22.9455C61.3639 22.7381 61.4704 22.6545 61.6697 22.6556C62.2471 22.6579 62.8245 22.6614 63.403 22.6534C63.6378 22.6499 63.7226 22.761 63.7134 22.9787C63.7111 23.0383 63.7134 23.0967 63.7134 23.1563C63.7134 24.9479 63.7089 26.7407 63.7157 28.5324C63.7192 29.4592 63.4511 30.2806 62.8233 30.9702C62.3193 31.5224 61.6881 31.8568 60.9618 32.0184C60.7476 32.0665 60.5356 32.1295 60.3237 32.1856C59.9674 32.1845 59.6112 32.1845 59.256 32.1845Z" fill="white"/>
<path d="M46.891 32.1846C46.4969 32.0677 46.0982 31.9623 45.7087 31.8329C45.1829 31.6576 44.7178 31.3689 44.2928 31.0161C44.0786 30.8373 44.0694 30.7629 44.2275 30.5304C44.5105 30.1145 44.7992 29.7021 45.0901 29.292C45.2929 29.0067 45.3284 28.9964 45.6114 29.2118C46.0535 29.5486 46.537 29.8063 47.0823 29.906C47.3366 29.953 47.6115 29.945 47.8693 29.906C48.1442 29.8648 48.363 29.7078 48.4146 29.3985C48.4695 29.0697 48.2462 28.8956 48.0136 28.7719C47.6356 28.5714 47.2381 28.4076 46.844 28.2403C46.175 27.9539 45.538 27.624 44.9905 27.128C44.0843 26.3078 44.1038 24.6329 44.7991 23.7428C45.4292 22.9364 46.2941 22.5847 47.2644 22.5011C48.3229 22.4106 49.3253 22.6431 50.2211 23.2468C50.2944 23.2961 50.3643 23.3522 50.4353 23.4038C50.5877 23.5149 50.6335 23.6329 50.5293 23.8185C50.2704 24.2836 50.0344 24.7613 49.7835 25.2309C49.6541 25.4738 49.6117 25.4887 49.378 25.3329C48.9427 25.0408 48.4833 24.7979 47.9598 24.7349C47.702 24.704 47.4294 24.72 47.1728 24.7704C46.9173 24.8197 46.7077 24.9812 46.6573 25.2619C46.6011 25.5689 46.8234 25.7384 47.041 25.853C47.4328 26.0592 47.8509 26.2127 48.2519 26.4006C48.6792 26.5999 49.1168 26.7878 49.5223 27.0272C50.4674 27.5851 50.8936 28.4305 50.7893 29.5245C50.6862 30.6094 50.0951 31.3632 49.1305 31.8214C48.788 31.9841 48.4077 32.0665 48.0457 32.1868C47.6619 32.1845 47.277 32.1846 46.891 32.1846Z" fill="white"/>
<path d="M62.8774 13.1543C62.8602 12.9699 62.835 12.7843 62.8292 12.5999C62.8098 12.0087 62.7857 11.4165 62.7857 10.8242C62.7811 7.66816 62.7834 4.51213 62.7834 1.35494C62.7834 1.28048 62.7823 1.20716 62.7834 1.1327C62.7892 0.699672 62.7995 0.685927 63.2359 0.683636C64.0218 0.680199 64.8065 0.681345 65.5924 0.683636C66.109 0.684781 66.1102 0.685941 66.1102 1.19916C66.1102 5.89599 66.1102 10.594 66.1102 15.2908C66.1102 16.2244 66.1124 17.1581 66.109 18.0917C66.1079 18.5499 66.0872 18.5694 65.6347 18.5717C64.8489 18.5751 64.063 18.5522 63.2795 18.582C62.9175 18.5957 62.7112 18.4583 62.5222 18.1673C61.6058 16.7502 60.6721 15.3446 59.7454 13.9344C58.4532 11.9675 57.1518 10.0063 55.8756 8.02904C55.532 7.49635 55.2639 6.91555 54.9615 6.35537C54.8927 6.22821 54.8263 6.10103 54.714 5.88795C54.6842 6.03802 54.6556 6.10216 54.6613 6.16288C54.7725 7.26835 54.8034 8.37613 54.8 9.48733C54.7885 12.318 54.7965 15.1476 54.7965 17.9783C54.7965 18.5729 54.7954 18.5728 54.2088 18.5728C53.4825 18.5728 52.7563 18.5728 52.0311 18.5728C51.4297 18.5728 51.4297 18.5728 51.4297 17.9474C51.4297 16.599 51.4297 15.2507 51.4297 13.9024C51.4297 9.73821 51.4297 5.57408 51.4297 1.41108C51.4297 1.35151 51.4297 1.29309 51.4297 1.23352C51.432 0.693958 51.4377 0.685935 51.975 0.684789C52.7608 0.683644 53.5467 0.703124 54.3303 0.67563C54.6762 0.663029 54.8721 0.794762 55.0497 1.0697C55.7302 2.1282 56.4267 3.17527 57.1163 4.2269C58.2367 5.93494 59.3582 7.64182 60.4774 9.34987C61.2713 10.563 62.0926 11.7613 62.7021 13.0844C62.7193 13.1211 62.7559 13.1474 62.7834 13.1784C62.8132 13.1704 62.8453 13.1623 62.8774 13.1543Z" fill="white"/>
<path d="M100.594 9.16663C100.726 9.23651 100.811 9.2915 100.904 9.33045C102.095 9.83106 102.82 10.7441 103.181 11.9538C103.54 13.1578 103.472 14.3584 102.994 15.52C102.482 16.7675 101.533 17.5797 100.312 18.0929C99.3149 18.5122 98.2621 18.6703 97.1898 18.6783C95.1736 18.6932 93.1586 18.6829 91.1424 18.6829C91.0977 18.6829 91.053 18.684 91.0095 18.6817C90.6842 18.6668 90.6509 18.6359 90.6338 18.3266C90.6292 18.2384 90.6326 18.149 90.6326 18.0597C90.6326 12.4716 90.6326 6.8835 90.6326 1.29542C90.6326 1.19117 90.6372 1.08807 90.6315 0.983822C90.6223 0.778765 90.7174 0.681399 90.9213 0.683691C90.9958 0.684836 91.0691 0.682537 91.1435 0.682537C93.2044 0.682537 95.2641 0.680246 97.325 0.682537C98.3767 0.683682 99.3848 0.884156 100.32 1.38362C101.606 2.06982 102.396 3.11116 102.593 4.57634C102.765 5.86053 102.563 7.06109 101.753 8.10241C101.502 8.42546 101.166 8.68321 100.866 8.96616C100.796 9.0349 100.708 9.08529 100.594 9.16663ZM93.9605 13.23C93.9605 13.9402 93.9582 14.6505 93.9616 15.3607C93.9628 15.7388 93.9674 15.7479 94.3202 15.7491C95.4303 15.7536 96.5403 15.772 97.6492 15.7433C98.5611 15.7204 99.2587 15.2966 99.6872 14.474C99.8819 14.0994 99.9472 13.687 99.9541 13.2712C99.9793 11.8106 99.0308 10.7842 97.7191 10.7384C96.5816 10.6983 95.4406 10.7257 94.3007 10.7315C93.9777 10.7326 93.9628 10.7544 93.9616 11.0981C93.9582 11.8095 93.9605 12.5197 93.9605 13.23ZM93.9605 5.74939C93.9605 6.34165 93.9582 6.93391 93.9616 7.52732C93.9639 7.96722 93.9731 7.97755 94.4084 7.97984C95.2676 7.98328 96.1268 7.99243 96.9859 7.97411C97.2918 7.96723 97.6149 7.93513 97.899 7.83203C98.9116 7.46315 99.308 6.54902 99.2507 5.56498C99.206 4.79286 98.8899 4.11125 98.1143 3.79737C97.7649 3.65646 97.3708 3.5751 96.994 3.56135C96.0912 3.52813 95.1874 3.54646 94.2835 3.55219C93.9742 3.55448 93.9639 3.56939 93.9616 3.88442C93.957 4.50531 93.9605 5.12735 93.9605 5.74939Z" fill="white"/>
<path d="M124.943 0.683662C125.402 0.683662 125.862 0.679087 126.321 0.684815C126.671 0.689398 126.681 0.710031 126.793 1.02735C127.261 2.35049 127.734 3.67246 128.201 4.99559C128.762 6.58449 129.323 8.17454 129.882 9.76459C130.347 11.0889 130.812 12.4132 131.276 13.7374C131.808 15.2576 132.341 16.7778 132.868 18.2991C132.986 18.6393 132.957 18.6782 132.592 18.6805C131.688 18.6874 130.784 18.6851 129.88 18.6817C129.577 18.6805 129.506 18.6267 129.406 18.3231C129.226 17.7756 129.06 17.2234 128.88 16.6769C128.621 15.8922 128.345 15.1121 128.095 14.3251C128.028 14.1189 127.928 14.0456 127.716 14.0456C125.864 14.0513 124.012 14.0467 122.16 14.0513C121.853 14.0525 121.828 14.0891 121.714 14.4351C121.292 15.7135 120.869 16.992 120.444 18.2693C120.309 18.6748 120.301 18.6805 119.882 18.6817C119.023 18.684 118.164 18.6863 117.303 18.6805C116.906 18.6782 116.861 18.6084 116.997 18.2258C117.775 16.0251 118.558 13.8256 119.332 11.6239C119.96 9.84021 120.574 8.05196 121.202 6.26831C121.663 4.95778 122.138 3.65184 122.604 2.3436C122.757 1.91172 122.906 1.47868 123.048 1.04336C123.132 0.785612 123.279 0.664181 123.567 0.677928C124.023 0.699694 124.484 0.683662 124.943 0.683662ZM124.973 4.22693C124.945 4.22693 124.917 4.22804 124.888 4.22804C124.866 4.2922 124.841 4.3552 124.824 4.4205C124.684 4.94861 124.571 5.48476 124.404 6.00485C123.859 7.69227 123.296 9.37395 122.741 11.0579C122.66 11.3031 122.682 11.3466 122.946 11.3478C124.264 11.3535 125.581 11.3535 126.899 11.3478C127.167 11.3466 127.176 11.3271 127.088 11.0591C126.734 9.97767 126.366 8.89969 126.021 7.81483C125.744 6.94306 125.488 6.06555 125.229 5.18805C125.134 4.87072 125.058 4.54769 124.973 4.22693Z" fill="white"/>
<path d="M29.7191 18.5728C29.2746 18.5728 28.829 18.5625 28.3856 18.5774C28.1393 18.5854 28.0133 18.4984 27.9366 18.2578C27.6353 17.3138 27.3157 16.3756 27.0029 15.434C26.8815 15.0685 26.7658 14.7019 26.6409 14.3377C26.5298 14.01 26.5046 13.986 26.1701 13.9848C24.3612 13.9814 22.5535 13.9814 20.7447 13.9848C20.3884 13.986 20.3804 13.9917 20.2578 14.3617C19.8466 15.5966 19.4399 16.8338 19.0309 18.0699C18.9988 18.1684 18.9622 18.2658 18.9255 18.362C18.8728 18.4995 18.7835 18.5774 18.6254 18.5763C17.662 18.5728 16.6985 18.5786 15.7351 18.5694C15.498 18.5671 15.4499 18.4961 15.5301 18.2544C15.7741 17.5246 16.0341 16.8018 16.2873 16.0755C16.9173 14.2758 17.5463 12.4761 18.1786 10.6776C18.6345 9.38077 19.0996 8.0863 19.5567 6.78952C20.0276 5.45035 20.4915 4.10888 20.9623 2.76971C21.1685 2.18433 21.3988 1.60696 21.5878 1.01699C21.6657 0.775279 21.7837 0.680197 22.0289 0.681343C22.9774 0.688216 23.9259 0.695066 24.8745 0.677882C25.1689 0.672154 25.2548 0.83368 25.3327 1.05821C25.6821 2.06402 26.0349 3.06755 26.3889 4.07222C26.8609 5.41139 27.3397 6.74713 27.8094 8.08744C28.3765 9.70498 28.9355 11.326 29.5048 12.9424C29.9665 14.254 30.4396 15.5611 30.9059 16.8705C31.0686 17.3299 31.2266 17.7915 31.3813 18.2532C31.4649 18.5029 31.4214 18.5648 31.1407 18.5694C30.6676 18.5786 30.1933 18.5728 29.7191 18.5728ZM23.4826 4.11116C23.4058 4.29216 23.352 4.38037 23.3302 4.4766C23.0129 5.89481 22.5031 7.25459 22.0552 8.63271C21.8272 9.33609 21.581 10.0349 21.3507 10.7371C21.1811 11.2549 21.1857 11.2572 21.7115 11.2584C22.1262 11.2595 22.5421 11.2584 22.9568 11.2584C23.7575 11.2584 24.5571 11.2618 25.3579 11.2561C25.65 11.2538 25.6615 11.2343 25.5733 10.9456C25.4301 10.4805 25.2766 10.0177 25.1265 9.55492C24.7576 8.41737 24.3761 7.28324 24.0233 6.13996C23.8274 5.50875 23.6796 4.86151 23.4826 4.11116Z" fill="white"/>
<path d="M105.508 9.66265C105.508 6.87663 105.508 4.09058 105.508 1.30456C105.508 1.2301 105.507 1.15678 105.508 1.08232C105.516 0.706572 105.53 0.684824 105.921 0.684824C109.255 0.682533 112.589 0.682533 115.924 0.684824C116.319 0.684824 116.337 0.706585 116.34 1.12357C116.343 1.79029 116.343 2.45702 116.34 3.12374C116.337 3.53958 116.332 3.54644 115.915 3.54644C113.825 3.54873 111.736 3.54759 109.646 3.54759C109.513 3.54759 109.379 3.54645 109.246 3.54759C108.858 3.55332 108.861 3.55449 108.863 3.93596C108.865 5.1663 108.874 6.39547 108.859 7.62581C108.852 8.13101 108.82 8.15049 109.4 8.14934C111.03 8.1459 112.66 8.14819 114.29 8.14819C114.38 8.14819 114.468 8.14476 114.557 8.14934C114.833 8.16423 114.902 8.21122 114.907 8.49303C114.919 9.26285 114.911 10.0338 114.913 10.8048C114.913 10.9938 114.809 11.0694 114.636 11.0751C114.518 11.0786 114.399 11.0809 114.281 11.0809C112.666 11.0809 111.051 11.0809 109.435 11.0809C109.317 11.0809 109.198 11.0831 109.08 11.082C108.92 11.0808 108.848 11.1358 108.849 11.3191C108.857 12.7121 108.858 14.104 108.85 15.497C108.849 15.6677 108.893 15.749 109.065 15.7479C109.183 15.7467 109.302 15.749 109.42 15.749C111.08 15.749 112.74 15.749 114.399 15.749C114.488 15.749 114.577 15.7479 114.666 15.749C115.114 15.7571 115.146 15.7983 115.001 16.2015C114.745 16.9106 114.485 17.6175 114.225 18.3243C114.097 18.6714 114.091 18.6794 113.712 18.6805C111.133 18.6828 108.554 18.6828 105.977 18.6805C105.524 18.6805 105.512 18.6645 105.512 18.196C105.507 15.3538 105.508 12.5082 105.508 9.66265Z" fill="white"/>
<path d="M36.3855 18.8559C35.5057 18.8605 34.7622 18.739 34.0221 18.5832C33.7804 18.5328 33.6659 18.3747 33.5948 18.1777C33.305 17.3712 33.0266 16.5602 32.7425 15.7514C32.6005 15.3482 32.4516 14.9461 32.3141 14.5417C32.2889 14.4672 32.3027 14.3802 32.2992 14.2977C32.3783 14.316 32.4745 14.3114 32.5341 14.3561C33.0816 14.7685 33.6682 15.1122 34.3097 15.3516C35.296 15.7193 36.303 15.9244 37.3489 15.6139C37.7819 15.4856 38.1577 15.2668 38.4566 14.9117C39.0088 14.253 39.0649 13.1429 38.3478 12.4556C37.7544 11.8863 37.0338 11.5598 36.311 11.2218C35.3739 10.7842 34.4197 10.381 33.4963 9.91586C32.6314 9.48055 31.8628 8.90891 31.2819 8.1093C30.5889 7.15505 30.3827 6.08166 30.5442 4.9464C30.8592 2.72973 32.2122 1.35504 34.281 0.70894C36.744 -0.059737 39.0741 0.357265 41.2369 1.74799C41.2862 1.78006 41.332 1.819 41.379 1.85451C41.9999 2.3219 41.8945 2.33222 41.6035 2.84772C41.2621 3.45373 40.9494 4.07461 40.6206 4.68749C40.4522 5.00023 40.4247 5.00711 40.1338 4.78143C39.3983 4.20979 38.5689 3.81343 37.6765 3.58775C36.8494 3.37812 36.0109 3.36552 35.1895 3.69658C34.3761 4.02536 33.8778 4.72874 33.8824 5.57303C33.8858 6.09082 34.1115 6.50321 34.5021 6.79533C34.9134 7.10235 35.3579 7.38187 35.8218 7.60067C36.7841 8.05432 37.7739 8.44842 38.7419 8.88832C39.4579 9.21366 40.1315 9.61688 40.7169 10.1496C41.9976 11.3123 42.4249 12.7683 42.1683 14.45C42.0549 15.1912 41.7834 15.8751 41.3607 16.4949C40.7489 17.3919 39.9184 18.0173 38.9137 18.4045C38.066 18.7287 37.1782 18.8719 36.3855 18.8559Z" fill="white"/>
<path d="M139.206 11.0659C139.206 13.3777 139.206 15.6894 139.206 18.0012C139.206 18.1054 139.211 18.2085 139.205 18.3128C139.189 18.6255 139.149 18.6725 138.84 18.6817C138.515 18.6908 138.188 18.684 137.862 18.684C137.357 18.684 136.853 18.6851 136.349 18.684C135.82 18.6828 135.816 18.6771 135.813 18.1283C135.813 18.0986 135.813 18.0688 135.813 18.039C135.813 13.4453 135.813 8.85041 135.813 4.25668C135.813 4.15243 135.814 4.04933 135.813 3.94508C135.805 3.55673 135.805 3.54985 135.409 3.5487C133.912 3.54527 132.416 3.54755 130.918 3.54755C130.814 3.54755 130.711 3.54297 130.607 3.54755C130.403 3.55901 130.279 3.47882 130.209 3.27605C129.947 2.52341 129.671 1.77536 129.404 1.02501C129.313 0.770696 129.359 0.703111 129.621 0.684782C129.71 0.677909 129.799 0.683628 129.888 0.683628C135.001 0.683628 140.114 0.683628 145.226 0.683628C145.837 0.683628 145.845 0.688232 145.591 1.24956C145.297 1.89566 144.964 2.52458 144.695 3.17984C144.567 3.49144 144.383 3.55671 144.085 3.55213C143.314 3.53838 142.545 3.54755 141.774 3.54755C141.047 3.54755 140.321 3.54527 139.595 3.5487C139.212 3.551 139.208 3.55556 139.206 3.95078C139.205 6.32325 139.206 8.69461 139.206 11.0659Z" fill="white"/>
<path d="M89.5622 27.7535C89.8589 26.8748 90.1556 25.995 90.4546 25.1164C90.6883 24.4302 90.9185 23.744 91.1614 23.0612C91.3057 22.6557 91.3149 22.6568 91.7285 22.6557C92.2921 22.6534 92.8546 22.6523 93.4182 22.6557C93.8226 22.658 93.8753 22.6993 93.9096 23.1082C93.9807 23.9777 94.0333 24.8495 94.1044 25.719C94.1834 26.6927 94.2785 27.6641 94.3575 28.6379C94.4377 29.6265 94.5122 30.6151 94.5775 31.6037C94.6027 31.9829 94.5752 31.999 94.1823 32.0024C93.6633 32.007 93.1444 32.0001 92.6266 32.0047C92.2841 32.007 92.244 31.9566 92.2256 31.6313C92.1775 30.7744 92.1054 29.9186 92.0538 29.0617C92.0126 28.3698 91.9885 27.6756 91.9541 26.9825C91.9519 26.9298 91.9232 26.8783 91.8808 26.7408C91.6723 27.3434 91.4948 27.8658 91.3092 28.3847C91.0961 28.9838 90.8681 29.5773 90.6631 30.1798C90.5829 30.4158 90.4431 30.5097 90.2026 30.5063C89.7879 30.4994 89.372 30.5052 88.9573 30.504C88.5243 30.5029 88.5174 30.504 88.3731 30.1157C88.1268 29.4501 87.8897 28.7811 87.6491 28.1144C87.4887 27.671 87.3306 27.2277 87.1164 26.7924C87.1015 27.2529 87.0969 27.7146 87.0717 28.1751C87.0144 29.2393 86.9469 30.3024 86.8816 31.3655C86.8747 31.4686 86.8415 31.5717 86.8426 31.6736C86.8449 31.9268 86.712 32.0058 86.4783 32.0035C85.9147 31.9967 85.3522 32.0058 84.7886 32.0001C84.4266 31.9955 84.4129 31.9784 84.4449 31.6118C84.5251 30.6976 84.6122 29.7846 84.6912 28.8704C84.8024 27.6034 84.9112 26.3353 85.0166 25.0671C85.0704 24.4176 85.1071 23.7681 85.1632 23.1185C85.2022 22.6672 85.2239 22.6546 85.6741 22.6534C86.2378 22.6523 86.8002 22.65 87.3639 22.6534C87.7155 22.6557 87.7671 22.6935 87.8794 23.0189C88.349 24.3901 88.8187 25.7614 89.285 27.1326C89.3548 27.3388 89.4144 27.5484 89.4786 27.7569C89.5061 27.7569 89.5336 27.7558 89.5622 27.7535Z" fill="white"/>
<path d="M74.1777 27.8097C74.314 27.3847 74.4297 27.0089 74.5557 26.6355C74.9589 25.4452 75.3633 24.255 75.7711 23.067C75.9132 22.6535 75.9201 22.6558 76.3794 22.6546C76.9431 22.6546 77.5055 22.6512 78.0692 22.6557C78.4415 22.6592 78.4552 22.6752 78.5159 23.0521C78.5251 23.1105 78.5331 23.169 78.5377 23.2285C78.6099 24.232 78.6717 25.2367 78.7542 26.2391C78.8802 27.7719 79.0223 29.3035 79.154 30.8363C79.1792 31.1318 79.1838 31.4285 79.2033 31.7241C79.2159 31.9097 79.1403 32.0025 78.9512 32.0025C78.3441 32.0013 77.7358 31.999 77.1286 32.0047C76.9064 32.007 76.8583 31.8741 76.8457 31.692C76.7896 30.866 76.7254 30.0401 76.675 29.213C76.628 28.4466 76.5948 27.6791 76.5536 26.9116C76.5513 26.8692 76.5272 26.8279 76.4986 26.742C76.2511 27.4454 76.0186 28.111 75.7826 28.7765C75.6142 29.2485 75.4309 29.7159 75.2751 30.1925C75.1961 30.4319 75.0552 30.5155 74.8134 30.5086C74.3839 30.4972 73.9543 30.5075 73.5247 30.5052C73.1535 30.5029 73.1283 30.4938 73.0034 30.1547C72.7102 29.3631 72.4284 28.5692 72.1408 27.7753C72.0206 27.4443 71.8968 27.1143 71.6952 26.7901C71.6952 27.238 71.717 27.6859 71.6906 28.1316C71.623 29.3275 71.5302 30.5224 71.4592 31.7184C71.4466 31.936 71.3458 32.0013 71.1534 32.0013C70.5462 32.0002 69.9379 32.0082 69.3308 31.9967C69.0719 31.9922 69.0363 31.9269 69.0581 31.6599C69.1681 30.3483 69.2735 29.0366 69.3869 27.7249C69.5221 26.1624 69.6584 24.6009 69.805 23.0395C69.8405 22.6592 69.8612 22.6569 70.2403 22.6557C70.8326 22.6523 71.426 22.6615 72.0183 22.6512C72.2623 22.6466 72.4043 22.7371 72.4822 22.9697C72.8144 23.9652 73.157 24.9583 73.4915 25.9538C73.6748 26.4991 73.8512 27.0479 74.0345 27.5943C74.0574 27.6562 74.1101 27.7089 74.1777 27.8097Z" fill="white"/>
<path d="M44.9419 9.6375C44.9419 6.86637 44.9419 4.09637 44.9419 1.32524C44.9419 1.22099 44.9465 1.11789 44.9419 1.01364C44.9339 0.795982 45.0244 0.681423 45.2535 0.682569C46.1573 0.68486 47.0612 0.678011 47.965 0.68603C48.2446 0.688321 48.2789 0.739852 48.2938 1.03885C48.2984 1.12705 48.295 1.21641 48.295 1.30577C48.295 6.84688 48.295 12.388 48.295 17.9291C48.295 18.5718 48.295 18.5718 47.6729 18.5718C46.9615 18.5718 46.2501 18.5718 45.5399 18.5718C44.9442 18.5718 44.943 18.5718 44.943 17.9933C44.9419 16.378 44.943 14.7639 44.943 13.1487C44.9419 11.979 44.9419 10.8083 44.9419 9.6375Z" fill="white"/>
<path d="M111.247 22.6546C112.417 22.6546 113.586 22.6534 114.756 22.6557C115.169 22.6568 115.183 22.6717 115.189 23.0773C115.195 23.4771 115.194 23.8769 115.189 24.2767C115.185 24.6742 115.166 24.6925 114.752 24.6948C114.1 24.6982 113.449 24.6959 112.797 24.6948C112.423 24.6937 112.421 24.6925 112.418 25.0843C112.416 25.4097 112.418 25.7362 112.418 26.0615C112.418 27.8532 112.418 29.6448 112.418 31.4365C112.418 31.5396 112.418 31.6438 112.417 31.7469C112.416 31.9039 112.349 32.0001 112.18 32.0001C111.543 32.0001 110.906 32.0001 110.27 31.999C110.105 31.999 110.028 31.9108 110.031 31.7481C110.032 31.645 110.031 31.5407 110.031 31.4376C110.031 29.4088 110.031 27.38 110.031 25.3512C110.031 25.2916 110.031 25.2332 110.031 25.1736C110.027 24.6959 110.027 24.6948 109.527 24.6948C108.919 24.6937 108.312 24.6983 107.705 24.6937C107.287 24.6902 107.26 24.6593 107.257 24.232C107.254 23.8322 107.251 23.4324 107.258 23.0326C107.265 22.6878 107.295 22.6568 107.648 22.6557C108.848 22.6523 110.048 22.6546 111.247 22.6546Z" fill="white"/>
<path d="M140.92 26.3227C140.912 27.1211 140.615 27.7993 140.08 28.3721C139.339 29.1671 138.463 29.7995 137.56 30.3963C137.369 30.5212 137.21 30.5005 137.03 30.3803C136.133 29.7754 135.256 29.1453 134.52 28.3446C133.809 27.569 133.548 26.6423 133.807 25.6307C134.174 24.1908 135.987 23.6775 137.053 24.5459C137.314 24.759 137.309 24.7544 137.567 24.547C138.688 23.6489 140.532 24.2515 140.837 25.7098C140.879 25.9091 140.893 26.1176 140.92 26.3227Z" fill="white"/>
<path d="M24.8039 27.8589C24.8417 28.922 24.1314 29.6952 23.113 29.8201C22.8598 29.851 22.5906 29.7789 22.3317 29.7342C22.1587 29.7044 22.1164 29.764 22.1427 29.9209C22.1713 30.0904 22.1931 30.26 22.2172 30.4307C22.0167 30.4559 21.8151 30.4811 21.6146 30.504C21.5711 30.5086 21.5252 30.5052 21.4817 30.5052C20.9112 30.5052 20.9055 30.504 20.9857 29.9358C21.0155 29.7216 20.9261 29.7032 20.7612 29.7628C20.2479 29.9484 19.7599 29.8304 19.3074 29.5898C18.5949 29.2106 18.2455 28.3618 18.3738 27.5473C18.5181 26.6331 19.0634 25.9905 19.7347 25.4337C20.2124 25.0373 20.7279 24.6868 21.2217 24.3099C21.4657 24.1232 21.6822 24.1083 21.9354 24.3134C22.5093 24.7785 23.1142 25.2069 23.6812 25.6812C24.1039 26.0351 24.4545 26.4636 24.6229 27.0031C24.7088 27.2792 24.7454 27.5725 24.8039 27.8589Z" fill="white"/>
<path d="M125.181 29.4569C125.261 29.7513 125.318 29.993 125.392 30.2301C125.445 30.3974 125.406 30.4959 125.225 30.4993C124.84 30.5051 124.455 30.5039 124.07 30.5005C123.892 30.4994 123.841 30.4077 123.894 30.237C123.966 30.001 124.026 29.7604 124.089 29.5302C123.742 29.592 123.417 29.6952 123.092 29.6997C122.295 29.71 121.591 29.0834 121.485 28.3182C121.33 27.2024 122.025 26.5597 122.666 26.3879C122.961 26.3089 122.96 26.3042 122.955 25.9537C122.943 25.0762 123.423 24.4484 124.234 24.2067C125.124 23.9409 126.29 24.6226 126.335 25.7361C126.34 25.8392 126.341 25.9446 126.326 26.0465C126.295 26.2447 126.367 26.3329 126.568 26.3868C127.349 26.5975 127.835 27.2184 127.852 27.9929C127.869 28.734 127.357 29.426 126.619 29.6608C126.271 29.7708 125.79 29.7089 125.181 29.4569Z" fill="white"/>
<path d="M100.105 27.357C100.105 25.9949 100.105 24.6329 100.105 23.2708C100.105 23.1528 100.105 23.0337 100.11 22.9157C100.116 22.7599 100.19 22.6613 100.354 22.6602C100.991 22.6568 101.627 22.6568 102.264 22.6579C102.421 22.6579 102.515 22.7427 102.531 22.8973C102.544 23.0291 102.548 23.1631 102.548 23.296C102.549 26.0202 102.549 28.7432 102.549 31.4673C102.549 31.5418 102.546 31.6151 102.549 31.6896C102.557 31.8878 102.473 31.9989 102.266 31.9989C101.629 31.9989 100.993 31.9989 100.356 31.9977C100.196 31.9977 100.109 31.9164 100.108 31.7526C100.107 31.6495 100.107 31.5452 100.107 31.4421C100.105 30.0801 100.105 28.7191 100.105 27.357Z" fill="white"/>
<path d="M36.8491 27.317C36.7815 27.4156 36.7299 27.5049 36.6635 27.5817C36.1468 28.1923 35.6279 28.7994 35.1101 29.4089C34.8604 29.7021 34.6175 30.0011 34.3609 30.2875C34.1558 30.5155 34.1226 30.5178 33.9153 30.2784C33.2955 29.5624 32.6849 28.8384 32.072 28.1155C31.8991 27.9128 31.7387 27.6985 31.56 27.5015C31.4374 27.3675 31.4305 27.2689 31.5554 27.1246C32.3298 26.2288 33.095 25.3261 33.8637 24.4256C33.9118 24.3695 33.9645 24.3168 34.0138 24.2618C34.0997 24.1667 34.1868 24.1599 34.2773 24.2561C34.338 24.3214 34.4021 24.3833 34.4594 24.4508C35.1857 25.31 35.9108 26.1692 36.6337 27.0307C36.7093 27.12 36.7746 27.2162 36.8491 27.317Z" fill="white"/>
<path d="M77.0086 6.63379C77.421 6.63609 77.7154 6.96028 77.5813 7.38414C77.4496 7.80342 77.6673 8.0944 77.7978 8.42661C77.8265 8.49993 77.9124 8.56524 77.988 8.60075C78.24 8.7176 78.4978 8.81953 78.7544 8.92378C78.7934 8.93982 78.8495 8.95929 78.8816 8.94325C79.2229 8.77256 79.664 8.76686 79.8312 8.30978C79.9401 8.01307 80.2345 7.87215 80.506 7.92256C80.7821 7.97526 81.0009 8.22842 81.0192 8.51366C81.0375 8.81953 80.8852 9.06239 80.5804 9.1506C80.4636 9.18497 80.3147 9.17809 80.2001 9.13571C79.7522 8.97189 79.4417 9.26058 79.1004 9.4473C79.0522 9.47365 79.0454 9.57562 79.0213 9.64207C78.956 9.82077 78.9182 10.0166 78.8186 10.1724C78.7063 10.3477 78.7051 10.4955 78.7922 10.6685C78.8655 10.814 78.932 10.9617 78.995 11.1118C79.0477 11.2401 79.1084 11.3306 79.2688 11.3604C79.6193 11.4257 79.8072 11.782 79.6926 12.1531C79.5941 12.4682 79.2355 12.6446 78.9033 12.5461C78.5585 12.4453 78.3775 12.1073 78.523 11.7293C78.7006 11.2711 78.3615 10.9881 78.2137 10.6399C78.1977 10.6009 78.1129 10.5894 78.059 10.5688C77.8425 10.4863 77.6237 10.4062 77.4072 10.3237C77.3534 10.3031 77.303 10.2595 77.248 10.2549C77.0269 10.2332 76.3899 10.6421 76.2857 10.8644C76.0978 11.2676 75.6671 11.4039 75.3406 11.1657C75.0977 10.9881 75.0084 10.6845 75.1195 10.4165C75.2432 10.1186 75.556 9.94105 75.8859 10.0648C76.1219 10.1541 76.2983 10.1175 76.5091 10.0327C76.8493 9.89524 77.1724 9.75776 77.1483 9.30526C77.146 9.26517 77.1689 9.21477 77.1953 9.18269C77.3992 8.94098 77.429 8.70384 77.2594 8.41745C77.1174 8.17917 77.0544 7.91341 76.7336 7.80688C76.4369 7.70836 76.3201 7.37385 76.4048 7.07027C76.4759 6.81939 76.7359 6.63265 77.0086 6.63379Z" fill="white"/>
</svg>
