<svg width="155" height="48" viewBox="0 0 155 48" fill="none" xmlns="http://www.w3.org/2000/svg">
<path d="M37.2185 7.56882V1.00928H29.416L33.4244 7.56882H37.2185Z" fill="#E3032E"/>
<path d="M127.497 26.0251L154.93 25.9816V1.04138L113.168 1.05285L123.538 19.2536L127.497 26.0251Z" fill="#E3032E"/>
<path d="M57.0249 31.4655C47.8191 31.4655 40.877 24.8178 40.877 16.0038C40.877 7.23793 48.0402 0.62793 57.5393 0.62793C62.0345 0.62793 66.7611 2.34749 69.8759 5.11518C69.924 5.15757 69.9297 5.23087 69.8885 5.28012L65.6029 10.4661C65.5823 10.4913 65.5514 10.5074 65.5193 10.5096C65.517 10.5096 65.5136 10.5096 65.5113 10.5096C65.4815 10.5096 65.4528 10.4982 65.4311 10.4787C63.2728 8.48889 60.2325 7.25278 57.498 7.25278C52.6064 7.25278 48.9166 11.0148 48.9166 16.0049C48.9166 21.0431 52.6419 24.843 57.5839 24.843C59.0503 24.843 60.9874 24.316 62.7791 23.4305V15.746C62.7791 15.6807 62.8329 15.6269 62.8982 15.6269H69.4978C69.5631 15.6269 69.617 15.6796 69.617 15.746V27.4469C69.617 27.4858 69.5975 27.5213 69.5666 27.5443C66.2444 29.8892 61.2051 31.4655 57.0249 31.4655Z" fill="white"/>
<path d="M57.5376 0.745972C61.995 0.745972 66.7091 2.46088 69.7941 5.20337L65.5085 10.3894C63.3228 8.37435 60.2801 7.13253 57.4941 7.13253C52.5659 7.13253 48.7935 10.9897 48.7935 16.0038C48.7935 21.1039 52.6083 24.961 57.5789 24.961C59.122 24.961 61.0935 24.4031 62.8932 23.5039V15.746H69.4928V27.4457C66.2783 29.7174 61.2218 31.3453 57.021 31.3453C47.8931 31.3453 40.9922 24.7445 40.9922 16.0026C40.9945 7.3032 48.0661 0.745972 57.5376 0.745972Z" fill="white"/>
<path d="M33.4244 7.56885L37.2185 14.1639V31.084L29.416 31.0198V7.56885H33.4244Z" fill="white"/>
<path d="M13.4398 31.2924C4.20653 31.2924 1.37469 26.8958 0.625484 23.2082L0.592263 23.0455C0.579662 22.9836 0.617465 22.923 0.678181 22.9069L7.21021 21.1507C7.22052 21.1485 7.23083 21.1461 7.24114 21.1461C7.26406 21.1461 7.28582 21.153 7.3053 21.1644C7.33394 21.1828 7.35341 21.2114 7.35914 21.2446L7.39236 21.4348C7.72801 23.3514 9.49333 25.3996 13.4421 25.3996C15.4652 25.3996 17.8755 24.8555 17.8755 22.2653C17.8755 19.7485 15.5603 19.272 11.726 18.4827L11.6058 18.4575C10.8944 18.3109 10.1601 18.1585 9.37419 17.9798C5.09549 16.9855 1.1387 15.2728 1.1387 9.53235C1.1387 3.67735 5.26733 0.453735 12.7639 0.453735C19.4815 0.453735 23.7671 3.02556 25.1578 7.89308L25.2071 8.06487C25.2163 8.0958 25.2117 8.1279 25.1956 8.15654C25.1796 8.18403 25.1533 8.20467 25.1235 8.21268L18.8068 9.91503C18.7965 9.91732 18.7862 9.91957 18.7759 9.91957C18.7243 9.91957 18.6774 9.88633 18.6613 9.83364L18.6132 9.66758C17.9866 7.52537 16.0574 6.3454 13.1798 6.3454C10.3949 6.3454 8.79797 7.39361 8.79797 9.22079C8.79797 11.3939 10.9677 11.8258 15.2911 12.6884L15.7321 12.7766C20.5527 13.7538 25.4809 15.628 25.4809 22.1107C25.4809 28.031 21.2045 31.2924 13.4398 31.2924Z" fill="white"/>
<path d="M12.763 0.572998C19.4222 0.572998 23.6688 3.11505 25.0423 7.92529L25.0916 8.09709L18.7749 9.79943L18.7268 9.6333C18.0842 7.4361 16.1138 6.22526 13.1788 6.22526C10.3184 6.22526 8.6779 7.31693 8.6779 9.21972C8.6779 11.4914 10.8808 11.929 15.2706 12.8042L15.7083 12.8925C20.4818 13.8605 25.3608 15.7117 25.3608 22.1097C25.3608 27.9544 21.1268 31.1723 13.4389 31.1723C4.28579 31.1723 1.48144 26.8271 0.740253 23.1831L0.707031 23.0216L7.23906 21.2654L7.27229 21.4556C7.61596 23.4202 9.41679 25.5189 13.4389 25.5189C15.5158 25.5189 17.9914 24.9541 17.9914 22.2655C17.9914 19.6513 15.6407 19.1678 11.7469 18.366C11.0126 18.2147 10.2267 18.0532 9.39732 17.8642C5.16902 16.879 1.2569 15.1893 1.2569 9.53135C1.2569 3.75425 5.34315 0.572998 12.763 0.572998Z" fill="white"/>
<path d="M100.524 31.2019C100.459 31.2019 100.405 31.1492 100.405 31.0828L100.363 12.1305L93.3893 27.4857C93.3698 27.5281 93.3274 27.5556 93.2804 27.5556H88.3087C88.2617 27.5556 88.2193 27.5281 88.1998 27.4857L81.2279 12.1339V31.084C81.2279 31.1493 81.1741 31.2031 81.1088 31.2031H74.2949C74.2296 31.2031 74.1758 31.1504 74.1758 31.084V1.0414C74.1758 0.976108 74.2296 0.922261 74.2949 0.922261H82.3288C82.3746 0.922261 82.417 0.948633 82.4365 0.989874L90.7957 18.6362L99.3153 0.988685C99.3348 0.947445 99.3771 0.921143 99.423 0.921143H107.252C107.275 0.921143 107.295 0.928033 107.314 0.938343C107.332 0.947507 107.348 0.962385 107.358 0.980714L111.152 7.55165C111.173 7.58831 111.173 7.63414 111.152 7.6708C111.132 7.70746 111.085 7.74184 111.042 7.74184H107.371V31.0817C107.371 31.147 107.317 31.2008 107.252 31.2008L100.524 31.2019Z" fill="white"/>
<path d="M107.256 1.04138L111.05 7.61239L111.043 7.62386H107.253V31.0828H100.525L100.481 11.5841L93.2812 27.4376H88.3095L81.1107 11.5841V31.084H74.2969V1.04138H82.3307L90.7965 18.9123L99.4249 1.04138H107.254V1.04712L107.256 1.04138Z" fill="white"/>
<path d="M136.289 31.2019C136.246 31.2019 136.207 31.179 136.186 31.1424L126.532 14.4205L116.878 31.1424C116.857 31.179 116.818 31.2019 116.775 31.2019H109.187C109.145 31.2019 109.106 31.179 109.084 31.1424C109.063 31.1057 109.063 31.0599 109.084 31.0232L118.834 14.1352C118.843 14.1192 118.856 14.1066 118.869 14.0963L122.627 7.56312L126.414 0.980714C126.435 0.944056 126.475 0.921143 126.517 0.921143C126.559 0.921143 126.598 0.944056 126.62 0.980714L143.979 31.0232C144.001 31.0599 144.001 31.1057 143.979 31.1424C143.957 31.179 143.918 31.2019 143.876 31.2019H136.289Z" fill="white"/>
<path d="M126.517 1.04138L143.876 31.084H136.287L126.531 14.1833L116.774 31.084H109.186L118.935 14.196L118.942 14.2074L122.728 7.62386L126.517 1.04138Z" fill="white"/>
<path d="M57.5376 0.746094C61.995 0.746094 66.7091 2.461 69.7941 5.20349L65.5085 10.3895C63.3228 8.37447 60.2801 7.13265 57.4941 7.13265C52.5659 7.13265 48.7935 10.9898 48.7935 16.004C48.7935 21.104 52.6083 24.9611 57.5789 24.9611C59.122 24.9611 61.0935 24.4033 62.8932 23.504V15.7462H69.4928V27.4459C66.2783 29.7175 61.2218 31.3454 57.021 31.3454C47.8931 31.3454 40.9922 24.7446 40.9922 16.0028C40.9945 7.30332 48.0661 0.746094 57.5376 0.746094Z" fill="white"/>
<path d="M12.763 0.57312C19.4222 0.57312 23.6688 3.11517 25.0423 7.92541L25.0916 8.09721L18.7749 9.79955L18.7268 9.63342C18.0842 7.43622 16.1138 6.22538 13.1788 6.22538C10.3184 6.22538 8.6779 7.31705 8.6779 9.21984C8.6779 11.4915 10.8808 11.9291 15.2706 12.8044L15.7083 12.8926C20.4818 13.8606 25.3608 15.7118 25.3608 22.1098C25.3608 27.9545 21.1268 31.1724 13.4389 31.1724C4.28579 31.1724 1.48144 26.8273 0.740253 23.1832L0.707031 23.0217L7.23906 21.2655L7.27229 21.4557C7.61596 23.4203 9.41679 25.519 13.4389 25.519C15.5158 25.519 17.9914 24.9542 17.9914 22.2656C17.9914 19.6514 15.6407 19.168 11.7469 18.3661C11.0126 18.2149 10.2267 18.0533 9.39732 17.8643C5.16902 16.8791 1.2569 15.1894 1.2569 9.53148C1.2569 3.75437 5.34315 0.57312 12.763 0.57312Z" fill="white"/>
<path d="M107.256 1.0415L111.05 7.61251L111.043 7.62398H107.253V31.0829H100.525L100.481 11.5842L93.2812 27.4377H88.3095L81.1107 11.5842V31.0841H74.2969V1.0415H82.3307L90.7965 18.9124L99.4249 1.0415H107.254V1.04724L107.256 1.0415Z" fill="white"/>
<path d="M126.521 1.0415L143.88 31.0841H136.291L126.535 14.1835L116.778 31.0841H109.189L118.939 14.1961L118.946 14.2075L122.732 7.62398L126.521 1.0415Z" fill="white"/>
<path d="M42.331 45.7978L41.6025 47.6398H38.9883L43.3013 37.6425H45.9144L50.1278 47.6398H47.4151L46.7002 45.7978H42.331ZM44.5294 40.1719L43.0734 43.8709H45.9591L44.5294 40.1719Z" fill="white"/>
<path d="M57.3057 39.6426V41.9566H61.7906V43.9556H57.3057V47.6409H54.7637V37.6436H62.1755V39.6426H57.3057Z" fill="white"/>
<path d="M71.6387 44.8274H71.5677H69.6397V47.6409H67.0977V37.6436H71.5677C74.2105 37.6436 75.7238 38.9002 75.7238 41.1284C75.7238 42.6566 75.0811 43.7564 73.9104 44.3417L76.0102 47.6409H73.1245L71.6387 44.8274ZM71.5677 42.8284C72.6674 42.8284 73.3101 42.2717 73.3101 41.2143C73.3101 40.173 72.6674 39.6438 71.5677 39.6438H69.6397V42.8284H71.5677Z" fill="white"/>
<path d="M81.1465 47.6409V37.6436H83.6885V47.6409H81.1465Z" fill="white"/>
<path d="M98.1087 39.244L96.6378 40.9864C95.9814 40.1868 95.0099 39.6873 94.1244 39.6873C92.5389 39.6873 91.3395 40.944 91.3395 42.5856C91.3395 44.257 92.5389 45.5274 94.1244 45.5274C94.9664 45.5274 95.939 45.0704 96.6378 44.3567L98.1236 45.9272C97.0513 47.027 95.467 47.7555 93.995 47.7555C90.9821 47.7555 88.7402 45.5412 88.7402 42.6154C88.7402 39.7297 91.0394 37.5588 94.0809 37.5588C95.5667 37.5577 97.1086 38.2153 98.1087 39.244Z" fill="white"/>
<path d="M105.16 45.7978L104.431 47.6398H101.818L106.131 37.6425H108.744L112.958 47.6398H110.245L109.53 45.7978H105.16ZM107.359 40.1719L105.903 43.8709H108.789L107.359 40.1719Z" fill="white"/>
</svg>
