<svg width="155" height="48" viewBox="0 0 155 48" fill="none" xmlns="http://www.w3.org/2000/svg">
<path d="M36.9724 7.68453V1.125H29.1699L33.1783 7.68453H36.9724Z" fill="#E3032E"/>
<path d="M127.251 26.1407L154.684 26.0972V1.15698L112.922 1.16844L123.292 19.3692L127.251 26.1407Z" fill="#E3032E"/>
<path d="M56.7827 31.5812C47.5769 31.5812 40.6348 24.9335 40.6348 16.1195C40.6348 7.35358 47.798 0.743652 57.2971 0.743652C61.7923 0.743652 66.5189 2.46315 69.6337 5.23084C69.6818 5.27323 69.6875 5.34655 69.6463 5.39581L65.3607 10.5818C65.3401 10.607 65.3092 10.623 65.2771 10.6253C65.2748 10.6253 65.2714 10.6253 65.2691 10.6253C65.2393 10.6253 65.2107 10.6139 65.1889 10.5944C63.0306 8.60454 59.9903 7.36848 57.2558 7.36848C52.3642 7.36848 48.6744 11.1305 48.6744 16.1206C48.6744 21.1588 52.3998 24.9587 57.3417 24.9587C58.8081 24.9587 60.7452 24.4317 62.5369 23.5462V15.8617C62.5369 15.7964 62.5907 15.7426 62.656 15.7426H69.2557C69.3209 15.7426 69.3748 15.7953 69.3748 15.8617V27.5626C69.3748 27.6015 69.3553 27.637 69.3244 27.6599C66.0022 30.0049 60.9629 31.5812 56.7827 31.5812Z" fill="white"/>
<path d="M57.2955 0.861572C61.7529 0.861572 66.4669 2.57649 69.5519 5.31898L65.2663 10.505C63.0806 8.48991 60.0379 7.24812 57.2519 7.24812C52.3237 7.24812 48.5513 11.1052 48.5513 16.1194C48.5513 21.2195 52.3661 25.0766 57.3367 25.0766C58.8798 25.0766 60.8513 24.5187 62.651 23.6194V15.8616H69.2506V27.5613C66.0361 29.833 60.9796 31.4609 56.7788 31.4609C47.6509 31.4609 40.75 24.8601 40.75 16.1183C40.7523 7.41881 47.8239 0.861572 57.2955 0.861572Z" fill="white"/>
<path d="M33.1783 7.68457L36.9724 14.2796V31.1997L29.1699 31.1355V7.68457H33.1783Z" fill="white"/>
<path d="M13.1976 31.4082C3.96435 31.4082 1.1325 27.0115 0.383297 23.3239L0.350076 23.1612C0.337474 23.0994 0.375278 23.0386 0.435993 23.0226L6.96803 21.2664C6.97834 21.2642 6.98865 21.2619 6.99896 21.2619C7.02187 21.2619 7.04364 21.2687 7.06311 21.2802C7.09175 21.2985 7.11122 21.3272 7.11695 21.3604L7.15017 21.5505C7.48582 23.4671 9.25114 25.5154 13.1999 25.5154C15.223 25.5154 17.6333 24.9712 17.6333 22.3811C17.6333 19.8643 15.3181 19.3877 11.4839 18.5984L11.3636 18.5732C10.6522 18.4266 9.91787 18.2742 9.13201 18.0955C4.85331 17.1012 0.896512 15.3885 0.896512 9.64809C0.896512 3.79309 5.02514 0.569458 12.5217 0.569458C19.2394 0.569458 23.5249 3.14126 24.9157 8.00878L24.9649 8.18062C24.9741 8.21155 24.9695 8.24362 24.9535 8.27226C24.9374 8.29976 24.9111 8.32038 24.8813 8.32839L18.5646 10.0307C18.5543 10.033 18.544 10.0353 18.5337 10.0353C18.4821 10.0353 18.4352 10.0021 18.4191 9.94937L18.371 9.78327C17.7444 7.64105 15.8153 6.46112 12.9376 6.46112C10.1527 6.46112 8.55579 7.50931 8.55579 9.3365C8.55579 11.5096 10.7255 11.9415 15.0489 12.8041L15.4899 12.8923C20.3105 13.8695 25.2387 15.7437 25.2387 22.2264C25.2387 28.1467 20.9623 31.4082 13.1976 31.4082Z" fill="white"/>
<path d="M12.5208 0.688599C19.18 0.688599 23.4266 3.23062 24.8002 8.04086L24.8494 8.21269L18.5328 9.91501L18.4846 9.7489C17.842 7.5517 15.8716 6.34083 12.9367 6.34083C10.0762 6.34083 8.43571 7.43256 8.43571 9.33535C8.43571 11.607 10.6386 12.0446 15.0285 12.9198L15.4661 13.008C20.2397 13.9761 25.1186 15.8273 25.1186 22.2253C25.1186 28.07 20.8846 31.2879 13.1967 31.2879C4.0436 31.2879 1.23925 26.9427 0.498066 23.2987L0.464844 23.1372L6.99688 21.381L7.0301 21.5712C7.37377 23.5358 9.1746 25.6345 13.1967 25.6345C15.2736 25.6345 17.7492 25.0697 17.7492 22.3811C17.7492 19.7669 15.3985 19.2835 11.5047 18.4816C10.7704 18.3304 9.98452 18.1688 9.15513 17.9798C4.92683 16.9946 1.01472 15.3049 1.01472 9.64695C1.01472 3.86984 5.10096 0.688599 12.5208 0.688599Z" fill="white"/>
<path d="M100.278 31.3174C100.212 31.3174 100.159 31.2647 100.159 31.1983L100.117 12.246L93.1432 27.6012C93.1237 27.6436 93.0813 27.6711 93.0343 27.6711H88.0626C88.0156 27.6711 87.9732 27.6436 87.9537 27.6012L80.9818 12.2494V31.1995C80.9818 31.2647 80.928 31.3186 80.8627 31.3186H74.0488C73.9835 31.3186 73.9297 31.2659 73.9297 31.1995V1.15691C73.9297 1.09161 73.9835 1.03777 74.0488 1.03777H82.0827C82.1285 1.03777 82.1709 1.06411 82.1904 1.10536L90.5496 18.7517L99.0692 1.10421C99.0887 1.06297 99.1311 1.03662 99.1769 1.03662H107.006C107.029 1.03662 107.049 1.04349 107.068 1.0538C107.086 1.06297 107.102 1.07786 107.112 1.09619L110.906 7.66717C110.927 7.70383 110.927 7.74965 110.906 7.78631C110.886 7.82297 110.839 7.85734 110.796 7.85734H107.125V31.1972C107.125 31.2625 107.071 31.3163 107.006 31.3163L100.278 31.3174Z" fill="white"/>
<path d="M107.01 1.15686L110.804 7.72784L110.797 7.7393H107.007V31.1983H100.279L100.235 11.6995L93.0351 27.5531H88.0634L80.8646 11.6995V31.1994H74.0508V1.15686H82.0847L90.5504 19.0277L99.1788 1.15686H107.008V1.16259L107.01 1.15686Z" fill="white"/>
<path d="M136.047 31.3176C136.004 31.3176 135.965 31.2947 135.944 31.258L126.29 14.5361L116.636 31.258C116.614 31.2947 116.575 31.3176 116.533 31.3176H108.945C108.902 31.3176 108.863 31.2947 108.842 31.258C108.821 31.2213 108.821 31.1755 108.842 31.1389L118.592 14.2509C118.601 14.2348 118.613 14.2222 118.627 14.2119L122.385 7.67875L126.172 1.09631C126.192 1.05965 126.233 1.03674 126.275 1.03674C126.317 1.03674 126.356 1.05965 126.378 1.09631L143.737 31.1389C143.759 31.1755 143.759 31.2213 143.737 31.258C143.715 31.2947 143.676 31.3176 143.634 31.3176H136.047Z" fill="white"/>
<path d="M126.273 1.15698L143.632 31.1995H136.043L126.286 14.2989L116.53 31.1995H108.941L118.691 14.3115L118.698 14.323L122.484 7.73942L126.273 1.15698Z" fill="white"/>
<path d="M57.2955 0.86145C61.7529 0.86145 66.4669 2.57637 69.5519 5.31886L65.2663 10.5048C63.0806 8.48979 60.0379 7.248 57.2519 7.248C52.3237 7.248 48.5513 11.1051 48.5513 16.1193C48.5513 21.2194 52.3661 25.0765 57.3367 25.0765C58.8798 25.0765 60.8513 24.5186 62.651 23.6193V15.8615H69.2506V27.5612C66.0361 29.8329 60.9796 31.4607 56.7788 31.4607C47.6509 31.4607 40.75 24.86 40.75 16.1181C40.7523 7.41869 47.8239 0.86145 57.2955 0.86145Z" fill="white"/>
<path d="M12.5208 0.688477C19.18 0.688477 23.4266 3.23049 24.8002 8.04074L24.8494 8.21257L18.5328 9.91489L18.4846 9.74878C17.842 7.55158 15.8716 6.34071 12.9367 6.34071C10.0762 6.34071 8.43571 7.43244 8.43571 9.33523C8.43571 11.6069 10.6386 12.0445 15.0285 12.9197L15.4661 13.0079C20.2397 13.9759 25.1186 15.8272 25.1186 22.2252C25.1186 28.0699 20.8846 31.2878 13.1967 31.2878C4.0436 31.2878 1.23925 26.9426 0.498066 23.2986L0.464844 23.137L6.99688 21.3809L7.0301 21.571C7.37377 23.5357 9.1746 25.6344 13.1967 25.6344C15.2736 25.6344 17.7492 25.0696 17.7492 22.381C17.7492 19.7668 15.3985 19.2833 11.5047 18.4814C10.7704 18.3302 9.98452 18.1687 9.15513 17.9797C4.92683 16.9945 1.01472 15.3048 1.01472 9.64682C1.01472 3.86972 5.10096 0.688477 12.5208 0.688477Z" fill="white"/>
<path d="M107.01 1.1571L110.804 7.72809L110.797 7.73954H107.007V31.1985H100.279L100.235 11.6998L93.0351 27.5533H88.0634L80.8646 11.6998V31.1996H74.0508V1.1571H82.0847L90.5504 19.028L99.1788 1.1571H107.008V1.16283L107.01 1.1571Z" fill="white"/>
<path d="M126.275 1.1571L143.633 31.1996H136.045L126.288 14.2991L116.532 31.1996H108.943L118.693 14.3117L118.7 14.3231L122.486 7.73954L126.275 1.1571Z" fill="white"/>
<path d="M52.7345 47.7565L52.7207 41.2588L50.3219 46.7564H48.6654L46.2666 41.2588V47.7565H43.9961V37.7454H46.781L49.4948 43.7012L52.2087 37.7454H54.9787V47.7565H52.7345Z" fill="white"/>
<path d="M62.9678 45.9143L62.2392 47.7564H59.625L63.9381 37.759H66.5511L70.7645 47.7564H68.0507L67.3358 45.9143H62.9678ZM65.1661 40.2884L63.7101 43.9863H66.5958L65.1661 40.2884Z" fill="white"/>
<path d="M82.1844 45.6291V47.7564H75.4004V37.759H77.9424V45.6279L82.1844 45.6291Z" fill="white"/>
<path d="M91.7333 39.8028V47.7565H89.1912V39.8028H86.207V37.7454H94.7461V39.8028H91.7333Z" fill="white"/>
<path d="M100.742 45.9143L100.013 47.7564H97.4004L101.713 37.759H104.327L108.54 47.7564H105.827L105.112 45.9143H100.742ZM102.94 40.2884L101.484 43.9875H104.37L102.94 40.2884Z" fill="white"/>
</svg>
