<svg width="78" height="15" viewBox="0 0 78 15" fill="none" xmlns="http://www.w3.org/2000/svg">
<path d="M11.209 9.49579C11.209 12.3328 9.056 14.4518 6.493 14.4518C5.576 14.4638 4.675 14.2148 3.895 13.7338C2.872 14.0268 1.815 14.1888 0.75 14.2128V1.36179C1.814 1.33779 2.872 1.17679 3.895 0.883789V5.29279C4.665 4.78579 5.57 4.52379 6.493 4.54079C9.055 4.54079 11.209 6.65879 11.209 9.49579ZM8.098 9.49579C8.155 8.25179 7.191 7.19679 5.948 7.13979C5.924 7.13879 5.9 7.13879 5.877 7.13779C5.116 7.12079 4.388 7.44779 3.895 8.02679V10.9658C4.388 11.5458 5.116 11.8728 5.877 11.8558C7.176 11.8538 8.098 10.8288 8.098 9.49579Z" fill="white"/>
<path d="M49.3828 9.49579C49.3828 12.3328 47.2298 14.4518 44.6668 14.4518C43.7498 14.4638 42.8488 14.2148 42.0688 13.7338C41.0458 14.0268 39.9888 14.1878 38.9248 14.2118V1.36179C39.9888 1.33779 41.0468 1.17679 42.0688 0.883789V5.29279C42.8398 4.78579 43.7448 4.52379 44.6668 4.54079C47.2298 4.54079 49.3828 6.65879 49.3828 9.49579ZM46.2728 9.49579C46.3298 8.25179 45.3658 7.19679 44.1228 7.13979C44.0988 7.13879 44.0748 7.13879 44.0518 7.13779C43.2898 7.11579 42.5588 7.44379 42.0688 8.02679V10.9658C42.5588 11.5498 43.2898 11.8768 44.0518 11.8558C45.3498 11.8538 46.2728 10.8288 46.2728 9.49579Z" fill="white"/>
<path d="M59.9433 9.4618C59.9433 12.3658 57.7902 14.5188 54.7822 14.5188C51.7752 14.5188 49.6562 12.3658 49.6562 9.4618C49.6562 6.5568 51.8092 4.5058 54.7822 4.5058C57.7562 4.5068 59.9433 6.6248 59.9433 9.4618ZM56.9362 9.4958C56.9362 8.2648 56.0813 7.2398 54.8173 7.2398C53.6283 7.2388 52.6633 8.2018 52.6613 9.3898C52.6613 9.4258 52.6623 9.4598 52.6653 9.4948C52.6653 10.7598 53.5193 11.7848 54.8183 11.7848C56.1163 11.7858 56.9362 10.7608 56.9362 9.4958Z" fill="white"/>
<path d="M63.4975 4.74577V5.73776C64.4105 4.95776 65.5785 4.54376 66.7785 4.57576V7.58277C65.2405 7.65077 64.2495 8.06077 63.4975 8.81377V14.2138H60.3525V5.22376C61.4175 5.19976 62.4745 5.03977 63.4975 4.74577Z" fill="white"/>
<path d="M25.7669 5.29176C24.6919 5.26576 23.6239 5.10477 22.5879 4.81377V14.2118H25.7669V8.16276C26.2449 7.54776 26.7239 7.30876 27.2019 7.30876C28.2269 7.30876 28.9109 7.95776 28.9109 9.29076V14.2128H32.0549V8.81277C32.0609 8.57377 32.0489 8.33276 32.0209 8.09476C32.3579 7.61376 32.9029 7.32176 33.4899 7.30876C34.5149 7.30876 35.1649 7.95776 35.1649 9.29076V14.2128H38.3779V8.81277C38.3779 6.11177 36.6689 4.43877 34.4129 4.43877C33.1699 4.38377 31.9599 4.84177 31.0639 5.70277C30.3189 4.86877 29.2419 4.40677 28.1249 4.43877C27.2589 4.40277 26.4119 4.70976 25.7669 5.29176Z" fill="white"/>
<path d="M21.9744 14.2128C20.8954 14.1888 19.8264 14.0168 18.7954 13.6998C18.0154 14.1818 17.1154 14.4308 16.1974 14.4178C13.6344 14.4178 11.4814 12.2648 11.4814 9.46176C11.4814 6.65876 13.6344 4.50677 16.1974 4.50677C17.1144 4.49377 18.0144 4.74376 18.7954 5.22476C19.8704 5.19876 20.9384 5.03777 21.9744 4.74677V14.2128ZM18.7954 10.9318V7.99276C18.3114 7.40076 17.5774 7.07076 16.8134 7.10376C15.5684 7.12176 14.5724 8.14576 14.5904 9.39076C14.5904 9.41476 14.5914 9.43876 14.5914 9.46176C14.5354 10.7068 15.4984 11.7618 16.7424 11.8178C16.7654 11.8188 16.7904 11.8198 16.8134 11.8198C17.5784 11.8518 18.3124 11.5228 18.7954 10.9318Z" fill="white"/>
<path d="M77.1678 14.2128C76.0888 14.1888 75.0198 14.0168 73.9888 13.6998C73.2098 14.1858 72.3088 14.4348 71.3908 14.4178C68.8278 14.4178 66.6748 12.2648 66.6748 9.46179C66.6748 6.65879 68.8278 4.5068 71.3908 4.5068C72.3078 4.4898 73.2098 4.73879 73.9888 5.22479C75.0638 5.19879 76.1318 5.0378 77.1678 4.7468V14.2128ZM73.9888 10.9318V7.99279C73.5048 7.40079 72.7708 7.07079 72.0068 7.10379C70.7038 7.10379 69.6498 8.15979 69.6498 9.46379C69.6498 10.7648 70.7048 11.8198 72.0068 11.8208C72.7708 11.8518 73.5058 11.5228 73.9888 10.9318Z" fill="white"/>
</svg>
