<svg width="84" height="11" viewBox="0 0 84 11" fill="none" xmlns="http://www.w3.org/2000/svg">
<path fill-rule="evenodd" clip-rule="evenodd" d="M0.772949 0.890137H12.2119H13.1799C14.9799 0.890137 16.3289 1.72514 16.3289 3.26714C16.3289 4.19914 15.6669 5.02714 14.7869 5.21714V5.41214C16.1359 5.57114 16.7149 6.46014 16.7149 7.50714C16.7149 9.17714 15.6869 10.0131 12.9229 10.0131H10.674H0.773926L0.772949 0.890137ZM9.38593 3.33114H6.81494V4.35914H9.38593C9.66993 4.35914 9.89993 4.12914 9.89993 3.84514C9.89993 3.56114 9.66993 3.33114 9.38593 3.33114ZM9.64294 6.41514H6.81494V7.44314H9.64294C9.92694 7.44314 10.157 7.21314 10.157 6.92914C10.157 6.64614 9.92694 6.41514 9.64294 6.41514Z" fill="white"/>
<path d="M49.1002 0.890137H33.8062V5.13013H38.4332V10.0141H44.4731V5.13013H49.1002V0.890137Z" fill="white"/>
<path d="M83.804 0.890137H76.588L75.257 3.16514L73.926 0.890137H66.71L72.237 8.08614V10.0141H78.277V8.08614L83.804 0.890137Z" fill="white"/>
<path d="M24.2979 7.44414H32.2658V10.0141H18.2568V0.890137H32.2658V3.33214H24.2979V4.36014H32.2658V6.41614H24.2979V7.44414Z" fill="white"/>
<path fill-rule="evenodd" clip-rule="evenodd" d="M60.5469 0.890137H63.0529C64.8519 0.890137 66.2019 1.72514 66.2019 3.26714C66.2019 4.20014 65.5399 5.02714 64.6599 5.21814V5.41314C66.0089 5.57214 66.588 6.46114 66.588 7.50714C66.588 9.17814 65.5599 10.0131 62.7959 10.0131H62.088V10.0141H50.6489V0.890137H60.5469ZM58.2599 2.48414C58.2949 2.43714 58.3579 2.41914 58.4119 2.44314C58.4659 2.46714 58.4959 2.52514 58.4829 2.58214L58.0989 4.64914H59.9019C59.9479 4.64914 59.9909 4.67514 60.0119 4.71614C60.0339 4.75714 60.0299 4.80614 60.0029 4.84314L57.5519 8.29214C57.5179 8.33914 57.4539 8.35814 57.3999 8.33314C57.3459 8.30914 57.3169 8.25014 57.3289 8.19314L57.6989 6.13814L55.9099 6.12714C55.8629 6.12714 55.82 6.10113 55.799 6.06013C55.778 6.01913 55.7819 5.97014 55.8089 5.93214L58.2599 2.48414Z" fill="white"/>
</svg>
