<svg width="88" height="23" viewBox="0 0 88 23" fill="none" xmlns="http://www.w3.org/2000/svg">
<path d="M21.909 9.93108L21.874 10.1321C21.72 11.0081 21.104 11.5881 20.666 11.8131C20.938 11.9911 21.341 12.5231 21.341 13.2341C21.341 13.3291 21.329 13.4231 21.317 13.5301L21.293 13.6841C20.95 15.9221 19.28 16.4191 16.984 16.4191C16.38 16.4191 15.256 16.3721 14.711 16.2771C14.273 16.1941 14.084 16.0761 14.084 15.6971C14.084 15.6021 14.096 15.4961 14.12 15.3771L15.339 8.42807C15.446 7.78907 15.671 7.62307 16.239 7.54007C16.748 7.45707 17.944 7.39807 18.536 7.39807C20.537 7.39807 21.958 7.93108 21.958 9.43408C21.956 9.58708 21.944 9.75308 21.909 9.93108ZM18.108 12.6541H16.96L16.652 14.4651H17.623C18.546 14.4651 18.878 14.1101 18.984 13.6131L19.008 13.5061C19.02 13.4351 19.032 13.3641 19.032 13.2931C19.032 12.9261 18.771 12.6541 18.108 12.6541ZM18.487 9.35107C18.392 9.35107 17.635 9.36308 17.552 9.36308L17.244 11.0441H18.392C19.173 11.0441 19.481 10.7131 19.528 10.2981L19.552 10.1091C19.564 10.0621 19.564 10.0141 19.564 9.96707C19.564 9.57607 19.316 9.35107 18.487 9.35107Z" fill="white"/>
<path d="M29.2486 12.5351L29.1306 13.2451C29.1066 13.3991 28.9766 13.5051 28.8346 13.5051H25.1526C25.1286 13.6471 25.1176 13.7651 25.1176 13.8721C25.1176 14.4641 25.4966 14.5471 26.0886 14.5471C26.7156 14.5471 27.9116 14.5001 28.3616 14.4521H28.4086C28.5156 14.4521 28.5856 14.4991 28.5856 14.6061V14.6531L28.3966 15.7181C28.3616 15.9081 28.3016 15.9901 28.1006 16.0501C27.3076 16.2991 26.5026 16.4171 25.5076 16.4171C24.1936 16.4171 22.8916 15.6001 22.8916 13.9191C22.8916 13.7301 22.9036 13.5281 22.9386 13.3151L23.0686 12.5331C23.4596 10.1891 24.8086 9.31311 26.7856 9.31311C28.5026 9.31311 29.3076 10.4491 29.3076 11.8581C29.3076 12.0861 29.2836 12.3101 29.2486 12.5351ZM26.4546 11.0791C25.7916 11.0791 25.5076 11.5761 25.3656 12.2511H27.1176C27.1536 12.0851 27.1766 11.9191 27.1766 11.7771C27.1766 11.3631 26.9876 11.0791 26.4546 11.0791Z" fill="white"/>
<path d="M35.5466 9.65907L35.3336 10.8671C35.3096 10.9971 35.1916 11.1041 35.0616 11.1041H34.1616L33.5936 14.2891C33.5696 14.3961 33.5586 14.4781 33.5586 14.5381C33.5586 14.6921 33.6296 14.7391 33.8426 14.7391H34.3876C34.5056 14.7391 34.6006 14.8101 34.6006 14.9281V14.9631L34.4116 16.0761C34.3876 16.2061 34.2576 16.2891 34.1156 16.3131C33.6896 16.3841 33.4766 16.4201 33.0386 16.4201C32.0086 16.4201 31.2746 16.0291 31.2746 14.8811C31.2746 14.6911 31.2986 14.4901 31.3336 14.2651L31.8906 11.1041L31.1326 10.9271C31.0146 10.9031 30.9316 10.8201 30.9316 10.7021V10.6671L31.1096 9.67308C31.1336 9.54308 31.2636 9.42407 31.4056 9.42407H32.1866L32.3526 8.46507C32.3766 8.33507 32.5066 8.24008 32.6486 8.21608L34.4596 7.90808H34.4956C34.6016 7.90808 34.6846 7.99108 34.6846 8.09708V8.13208L34.4596 9.42308H35.3596C35.4776 9.42308 35.5496 9.50608 35.5496 9.61208V9.65907H35.5466Z" fill="white"/>
<path d="M43.3008 7.91805L43.0408 9.39804C43.0168 9.52804 42.9228 9.62305 42.7918 9.62305H42.7678C42.2948 9.58805 40.9568 9.46904 40.1038 9.46904C39.7718 9.46904 39.4288 9.57605 39.4288 9.96605C39.4288 10.132 39.5468 10.2381 39.9498 10.4751L41.3938 11.327C42.2458 11.824 42.5778 12.475 42.5778 13.304C42.5778 15.518 40.7188 16.418 38.7068 16.418C37.7358 16.418 36.9788 16.288 36.3748 16.11C36.2678 16.074 36.1738 16.015 36.1738 15.909V15.874L36.4228 14.418C36.4468 14.288 36.5528 14.181 36.6948 14.181H36.7188C37.2038 14.228 38.4588 14.359 39.0868 14.359C39.5598 14.359 39.9508 14.193 39.9508 13.661C39.9508 13.483 39.8328 13.3531 39.4888 13.1281L37.9618 12.122C37.2748 11.672 36.9438 10.9031 36.9438 10.1691C36.9438 8.03805 38.6128 7.39905 40.4958 7.39905C41.4308 7.39905 42.6628 7.55305 43.1238 7.69505C43.2188 7.73105 43.3018 7.77804 43.3018 7.88504L43.3008 7.91805Z" fill="white"/>
<path d="M49.0184 9.65907L48.8054 10.8671C48.7814 10.9971 48.6634 11.1041 48.5334 11.1041H47.6334L47.0654 14.2891C47.0414 14.3961 47.0294 14.4781 47.0294 14.5381C47.0294 14.6921 47.1004 14.7391 47.3134 14.7391H47.8584C47.9764 14.7391 48.0714 14.8101 48.0714 14.9281V14.9631L47.8824 16.0761C47.8584 16.2061 47.7284 16.2891 47.5864 16.3131C47.1604 16.3841 46.9474 16.4201 46.5094 16.4201C45.4794 16.4201 44.7454 16.0291 44.7454 14.8811C44.7454 14.6911 44.7694 14.4901 44.8044 14.2651L45.3604 11.1041L44.6024 10.9271C44.4844 10.9031 44.4014 10.8201 44.4014 10.7021V10.6671L44.5794 9.67308C44.6034 9.54308 44.7334 9.42407 44.8754 9.42407H45.6564L45.8224 8.46507C45.8464 8.33507 45.9764 8.24008 46.1184 8.21608L47.9294 7.90808H47.9644C48.0714 7.90808 48.1534 7.99108 48.1534 8.09708V8.13208L47.9284 9.42308H48.8284C48.9464 9.42308 49.0184 9.50608 49.0184 9.61208V9.65907Z" fill="white"/>
<path d="M56.5715 9.9901L55.5065 16.0751C55.4825 16.2051 55.3885 16.3121 55.2575 16.3121H53.7775C53.6475 16.3121 53.5645 16.2291 53.5645 16.1111V16.0751L53.6125 15.7081C52.9845 16.1931 52.4525 16.4181 51.7895 16.4181C50.6415 16.4181 49.7295 15.5891 49.7295 14.1091C49.7295 13.8961 49.7655 13.6241 49.8005 13.4221L50.0015 12.2261C50.3805 9.96509 51.8125 9.31409 53.6245 9.31409C54.4655 9.31409 55.3765 9.44409 56.2175 9.61009C56.4425 9.65709 56.5845 9.69309 56.5845 9.89409C56.5835 9.91909 56.5835 9.9541 56.5715 9.9901ZM53.3635 11.1981C52.7005 11.1981 52.4045 11.4581 52.2385 12.4051L52.0135 13.6721C51.9895 13.7791 51.9895 13.8851 51.9895 13.9681C51.9895 14.3941 52.2025 14.5131 52.5335 14.5131C52.8885 14.5131 53.3145 14.3351 53.5515 14.1931L54.0725 11.2451C53.8725 11.2211 53.6005 11.1981 53.3635 11.1981Z" fill="white"/>
<path d="M62.5153 9.56409L62.2663 10.9491C62.2423 11.0671 62.1363 11.1861 62.0173 11.1861H61.8513C61.3423 11.1861 60.8453 11.2571 60.4423 11.4581L59.6373 16.0511C59.6133 16.1811 59.4953 16.3111 59.3533 16.3111H57.5773C57.4593 16.3111 57.3643 16.2041 57.3643 16.0861V16.0501L58.4893 9.65709C58.5133 9.52709 58.6433 9.42009 58.7733 9.42009H60.4303C60.5483 9.42009 60.6193 9.50309 60.6193 9.62109V9.6561L60.5843 9.94009C61.1403 9.38409 61.7683 9.3241 62.1823 9.3241H62.3123C62.4303 9.3241 62.5133 9.40709 62.5133 9.52509V9.56409H62.5153Z" fill="white"/>
<path d="M68.0916 9.65907L67.8786 10.8671C67.8546 10.9971 67.7366 11.1041 67.6066 11.1041H66.7066L66.1386 14.2891C66.1146 14.3961 66.1026 14.4781 66.1026 14.5381C66.1026 14.6921 66.1736 14.7391 66.3866 14.7391H66.9316C67.0496 14.7391 67.1446 14.8101 67.1446 14.9281V14.9631L66.9556 16.0761C66.9316 16.2061 66.8016 16.2891 66.6596 16.3131C66.2336 16.3841 66.0206 16.4201 65.5826 16.4201C64.5526 16.4201 63.8186 16.0291 63.8186 14.8811C63.8186 14.6911 63.8426 14.4901 63.8776 14.2651L64.4336 11.1041L63.6756 10.9271C63.5576 10.9031 63.4746 10.8201 63.4746 10.7021V10.6671L63.6526 9.67308C63.6766 9.54308 63.8066 9.42407 63.9486 9.42407H64.7296L64.8956 8.46507C64.9196 8.33507 65.0496 8.24008 65.1916 8.21608L67.0026 7.90808H67.0376C67.1446 7.90808 67.2266 7.99108 67.2266 8.09708V8.13208L67.0016 9.42308H67.9016C68.0196 9.42308 68.0916 9.50608 68.0916 9.61208V9.65907Z" fill="white"/>
<path d="M75.2183 12.5351L75.1003 13.2451C75.0763 13.3991 74.9463 13.5051 74.8043 13.5051H71.1223C71.0983 13.6471 71.0873 13.7651 71.0873 13.8721C71.0873 14.4641 71.4663 14.5471 72.0583 14.5471C72.6853 14.5471 73.8813 14.5001 74.3313 14.4521H74.3783C74.4853 14.4521 74.5563 14.4991 74.5563 14.6061V14.6531L74.3673 15.7181C74.3313 15.9081 74.2723 15.9901 74.0713 16.0501C73.2783 16.2991 72.4733 16.4171 71.4783 16.4171C70.1643 16.4171 68.8623 15.6001 68.8623 13.9191C68.8623 13.7301 68.8743 13.5281 68.9093 13.3151L69.0393 12.5331C69.4303 10.1891 70.7793 9.31311 72.7563 9.31311C74.4733 9.31311 75.2783 10.4491 75.2783 11.8581C75.2773 12.0861 75.2533 12.3101 75.2183 12.5351ZM72.4243 11.0791C71.7613 11.0791 71.4773 11.5761 71.3353 12.2511H73.0873C73.1223 12.0851 73.1463 11.9191 73.1463 11.7771C73.1463 11.3631 72.9563 11.0791 72.4243 11.0791Z" fill="white"/>
<path d="M81.4684 9.56409L81.2194 10.9491C81.1954 11.0671 81.0894 11.1861 80.9704 11.1861H80.8044C80.2954 11.1861 79.7984 11.2571 79.3954 11.4581L78.5904 16.0511C78.5664 16.1811 78.4484 16.3111 78.3064 16.3111H76.5304C76.4124 16.3111 76.3174 16.2041 76.3174 16.0861V16.0501L77.4424 9.65709C77.4664 9.52709 77.5964 9.42009 77.7264 9.42009H79.3834C79.5014 9.42009 79.5724 9.50309 79.5724 9.62109V9.6561L79.5374 9.94009C80.0934 9.38409 80.7214 9.3241 81.1354 9.3241H81.2654C81.3834 9.3241 81.4664 9.40709 81.4664 9.52509V9.56409H81.4684Z" fill="white"/>
<path d="M87.7675 9.87207L87.5425 11.1271C87.5185 11.2571 87.4355 11.3641 87.3055 11.3641H87.2705C86.9275 11.3171 85.8025 11.1751 85.2695 11.1751C85.0805 11.1751 84.7845 11.1991 84.7845 11.4591C84.7845 11.5421 84.8555 11.6251 84.9975 11.7081L86.2405 12.4541C86.9625 12.8801 87.1995 13.4371 87.1995 13.9691C87.1995 15.8161 85.7555 16.4201 84.1095 16.4201C83.2685 16.4201 82.4165 16.2901 81.9075 16.1361C81.7895 16.1001 81.7295 16.0291 81.7295 15.9231V15.8761L81.9425 14.6571C81.9665 14.5031 82.0725 14.4081 82.2265 14.4081H82.2735C82.9605 14.5031 83.8955 14.5971 84.2865 14.5971C84.5705 14.5971 84.9025 14.5501 84.9025 14.1951C84.9025 14.0881 84.8435 13.9941 84.6185 13.8631L83.3045 13.0821C82.7835 12.7741 82.4755 12.1471 82.4755 11.5311C82.4755 9.76708 83.9075 9.31708 85.4235 9.31708C86.3355 9.31708 87.0455 9.45908 87.5785 9.61308C87.6965 9.64908 87.7685 9.72008 87.7685 9.82608L87.7675 9.87207Z" fill="white"/>
<path d="M8.80553 0.628079C9.19653 0.569079 9.46953 0.994074 9.66453 1.37307L12.6225 7.12407C12.7295 7.33207 12.8405 7.57508 12.7725 7.82208C12.6995 8.08708 12.4545 8.23307 12.2365 8.34607C8.38753 10.3471 4.53553 12.3351 0.678531 14.3121C0.507531 14.3991 0.27553 14.4701 0.18253 14.2981C0.12653 14.1961 0.15253 14.0561 0.18053 13.9311C0.74253 11.4221 1.30353 8.91308 1.86553 6.40408C1.95253 6.01508 2.04553 5.61207 2.26153 5.28807C2.46053 4.99007 2.74253 4.79007 3.01753 4.59707C4.80153 3.34707 6.58453 2.09607 8.36853 0.846066C8.50753 0.750066 8.65053 0.651079 8.80553 0.628079Z" fill="white"/>
<path d="M7.92818 12.2331C9.24818 11.6161 10.5672 11.0001 11.8872 10.3831C12.0832 10.2921 12.3452 10.2071 12.5102 10.3461C12.6352 10.4511 12.6242 10.6261 12.6032 10.7751C12.3702 12.4231 12.1202 14.0681 11.8542 15.7101C11.8272 15.8781 11.7692 16.0781 11.5852 16.1221C11.4172 16.1621 11.2522 16.0431 11.1232 15.9341C10.0562 15.0281 8.99018 14.1221 7.92318 13.2151C7.69618 13.0221 7.44818 12.7501 7.57218 12.5021C7.63718 12.3731 7.78718 12.2991 7.92818 12.2331Z" fill="white"/>
<path d="M38.0968 19.4791L38.0608 19.6891C38.0538 19.7251 38.0178 19.7551 37.9818 19.7551H37.3138C37.1238 19.7551 37.0448 19.8211 37.0058 20.0371L36.9438 20.3911H37.8318C37.8648 20.3911 37.8878 20.4171 37.8878 20.4471V20.4541V20.4571L37.8448 20.6931C37.8388 20.7291 37.8028 20.7591 37.7658 20.7591H36.8778L36.8058 21.1821C36.7988 21.2251 36.7958 21.2611 36.7958 21.2901C36.7958 21.4211 36.8618 21.4641 37.0158 21.4641H37.6838C37.7168 21.4641 37.7358 21.4871 37.7358 21.5161V21.5261V21.5291L37.6998 21.7391C37.6928 21.7851 37.6698 21.8011 37.6208 21.8081C37.5128 21.8241 37.3818 21.8541 36.9918 21.8541C36.6218 21.8541 36.3398 21.7101 36.3398 21.3361C36.3398 21.2871 36.3428 21.2381 36.3528 21.1821L36.5528 20.0391C36.6578 19.4491 36.9788 19.3671 37.4278 19.3671C37.8178 19.3671 37.9418 19.3971 38.0438 19.4131C38.0828 19.4201 38.0998 19.4291 38.0998 19.4591C38.0998 19.4621 38.0968 19.4691 38.0968 19.4791Z" fill="white"/>
<path d="M40.8185 20.6421L40.6215 21.7561C40.6145 21.7921 40.5785 21.8251 40.5425 21.8251H40.2415C40.2085 21.8251 40.1895 21.7991 40.1895 21.7691V21.7561L40.3865 20.6421C40.3965 20.5801 40.4025 20.5311 40.4025 20.4911C40.4025 20.3631 40.3465 20.3241 40.2055 20.3241C40.1435 20.3241 40.0055 20.3441 39.8745 20.4061C39.8715 20.4781 39.8715 20.5601 39.8585 20.6421L39.6615 21.7561C39.6545 21.7921 39.6185 21.8251 39.5825 21.8251H39.2815C39.2485 21.8251 39.2295 21.7991 39.2295 21.7691V21.7561L39.4265 20.6421C39.4395 20.5761 39.4425 20.5241 39.4425 20.4811C39.4425 20.3601 39.3905 20.3241 39.2555 20.3241C39.1865 20.3241 39.0815 20.3601 38.9345 20.4321L38.7025 21.7561C38.6955 21.7921 38.6595 21.8251 38.6235 21.8251H38.3225C38.2895 21.8251 38.2705 21.7991 38.2705 21.7691V21.7561L38.5715 20.0431C38.5785 20.0071 38.6105 19.9771 38.6465 19.9771H38.9315C38.9645 19.9771 38.9875 20.0001 38.9875 20.0331V20.0431L38.9745 20.1121C39.1255 20.0241 39.2665 19.9551 39.4595 19.9551C39.6465 19.9551 39.7545 20.0301 39.8105 20.1151C39.9775 20.0071 40.1615 19.9551 40.3875 19.9551C40.6985 19.9551 40.8395 20.1381 40.8395 20.4331C40.8385 20.4971 40.8315 20.5661 40.8185 20.6421Z" fill="white"/>
<path d="M42.9117 20.7761L42.8687 21.0281C42.7737 21.5981 42.4687 21.8501 41.9417 21.8501C41.8627 21.8501 41.7487 21.8431 41.6307 21.8271L41.5297 22.4071C41.5227 22.4431 41.4867 22.4721 41.4507 22.4721H41.1497C41.1167 22.4721 41.0977 22.4491 41.0977 22.4201V22.4101V22.4071L41.4977 20.1271C41.5077 20.0781 41.5237 20.0581 41.6027 20.0391C41.8157 19.9861 42.0677 19.9541 42.2777 19.9541C42.7167 19.9541 42.9297 20.2131 42.9297 20.5861C42.9287 20.6451 42.9217 20.7101 42.9117 20.7761ZM42.2137 20.3071C42.0957 20.3071 41.9577 20.3171 41.8927 20.3301L41.6927 21.4731C41.7807 21.4861 41.9257 21.4961 42.0037 21.4961C42.2857 21.4961 42.3937 21.2801 42.4357 21.0281L42.4787 20.7761C42.4917 20.7041 42.4987 20.6381 42.4987 20.5831C42.4987 20.4061 42.4267 20.3071 42.2137 20.3071Z" fill="white"/>
<path d="M44.9493 20.7691L44.9003 21.0341C44.7983 21.5751 44.4903 21.8501 43.9763 21.8501C43.5303 21.8501 43.3213 21.5351 43.3213 21.1911C43.3213 21.1391 43.3243 21.0861 43.3343 21.0341L43.3833 20.7691C43.4813 20.2321 43.7963 19.9531 44.3103 19.9531C44.7593 19.9531 44.9653 20.2541 44.9653 20.5981C44.9653 20.6551 44.9593 20.7141 44.9493 20.7691ZM44.2443 20.3271C44.0443 20.3271 43.8743 20.4451 43.8153 20.7691L43.7663 21.0341C43.7563 21.0861 43.7533 21.1361 43.7533 21.1781C43.7533 21.3711 43.8483 21.4761 44.0413 21.4761C44.2703 21.4761 44.4113 21.3381 44.4673 21.0341L44.5163 20.7691C44.5263 20.7171 44.5293 20.6681 44.5293 20.6251C44.5293 20.4321 44.4383 20.3271 44.2443 20.3271Z" fill="white"/>
<path d="M47.9866 20.052L47.4296 21.5591C47.3576 21.7561 47.2886 21.834 47.0886 21.834H46.9996C46.8226 21.834 46.7476 21.749 46.7346 21.578L46.6526 20.575C46.6526 20.562 46.6526 20.5591 46.6456 20.5591C46.6386 20.5591 46.6386 20.562 46.6326 20.575L46.1966 21.578C46.1216 21.748 46.0166 21.834 45.8396 21.834H45.7506C45.5506 21.834 45.5116 21.7551 45.5086 21.5591L45.4756 20.052C45.4756 20.013 45.5146 19.9771 45.5546 19.9771H45.8596C45.8926 19.9771 45.9086 20.003 45.9086 20.036L45.8796 21.422V21.429C45.8796 21.455 45.8826 21.468 45.8896 21.468C45.8966 21.468 45.9056 21.455 45.9196 21.422L46.3846 20.321C46.4366 20.193 46.4826 20.18 46.5946 20.18H46.8236C46.9346 20.18 46.9706 20.193 46.9806 20.321L47.0596 21.422C47.0626 21.455 47.0666 21.468 47.0726 21.468C47.0786 21.468 47.0886 21.452 47.0986 21.422L47.5506 20.036C47.5606 20.007 47.5866 19.9771 47.6196 19.9771H47.9346C47.9676 19.9771 47.9906 20.0001 47.9906 20.0331C47.9896 20.0391 47.9896 20.045 47.9866 20.052Z" fill="white"/>
<path d="M49.8307 20.812L49.8047 20.969C49.7947 21.021 49.7717 21.051 49.7257 21.051H48.6577C48.6507 21.097 48.6417 21.139 48.6417 21.185C48.6417 21.362 48.7337 21.48 48.9757 21.48C49.2147 21.48 49.4407 21.457 49.5817 21.444H49.5947C49.6207 21.444 49.6437 21.451 49.6437 21.48V21.493L49.6047 21.709C49.5947 21.761 49.5847 21.784 49.5227 21.794C49.3037 21.833 49.1587 21.85 48.8647 21.85C48.5727 21.85 48.2197 21.686 48.2197 21.191C48.2197 21.132 48.2227 21.063 48.2357 20.994L48.2717 20.791C48.3797 20.178 48.7047 19.952 49.2057 19.952C49.6417 19.952 49.8477 20.24 49.8477 20.624C49.8467 20.684 49.8407 20.75 49.8307 20.812ZM49.1387 20.327C48.8767 20.327 48.7557 20.504 48.7127 20.743H49.4077C49.4147 20.7 49.4207 20.661 49.4207 20.619C49.4207 20.429 49.3187 20.327 49.1387 20.327Z" fill="white"/>
<path d="M51.4542 20.0191L51.4112 20.2551C51.4042 20.2911 51.3722 20.3211 51.3362 20.3211C51.2312 20.3211 51.0872 20.3281 50.8642 20.4391L50.6312 21.7561C50.6242 21.7921 50.5882 21.8251 50.5522 21.8251H50.2512C50.2182 21.8251 50.1992 21.7991 50.1992 21.7691V21.7561L50.5002 20.0421C50.5072 20.0061 50.5392 19.9761 50.5752 19.9761H50.8602C50.8932 19.9761 50.9162 19.9991 50.9162 20.0321V20.0421L50.9032 20.1111C51.0902 19.9671 51.2642 19.9541 51.4012 19.9541C51.4342 19.9541 51.4532 19.9771 51.4532 20.0071V20.0191H51.4542Z" fill="white"/>
<path d="M53.2663 20.812L53.2403 20.969C53.2303 21.021 53.2073 21.051 53.1613 21.051H52.0933C52.0863 21.097 52.0773 21.139 52.0773 21.185C52.0773 21.362 52.1693 21.48 52.4113 21.48C52.6503 21.48 52.8763 21.457 53.0173 21.444H53.0303C53.0563 21.444 53.0793 21.451 53.0793 21.48V21.493L53.0403 21.709C53.0303 21.761 53.0203 21.784 52.9583 21.794C52.7393 21.833 52.5943 21.85 52.3003 21.85C52.0083 21.85 51.6553 21.686 51.6553 21.191C51.6553 21.132 51.6583 21.063 51.6713 20.994L51.7073 20.791C51.8153 20.178 52.1393 19.952 52.6413 19.952C53.0773 19.952 53.2833 20.24 53.2833 20.624C53.2823 20.684 53.2763 20.75 53.2663 20.812ZM52.5753 20.327C52.3133 20.327 52.1923 20.504 52.1493 20.743H52.8443C52.8513 20.7 52.8573 20.661 52.8573 20.619C52.8563 20.429 52.7553 20.327 52.5753 20.327Z" fill="white"/>
<path d="M55.5166 19.3971L55.1136 21.6771C55.1036 21.7261 55.0876 21.7461 55.0086 21.7651C54.7956 21.8171 54.5466 21.8501 54.3366 21.8501C53.8816 21.8501 53.6816 21.5681 53.6816 21.2081C53.6816 21.1491 53.6886 21.0901 53.6976 21.0281L53.7406 20.7761C53.8386 20.1831 54.1436 19.9541 54.6706 19.9541C54.7496 19.9541 54.8606 19.9611 54.9786 19.9771L55.0836 19.3971C55.0896 19.3611 55.1226 19.3311 55.1586 19.3311H55.4606C55.4936 19.3311 55.5166 19.3541 55.5166 19.3871V19.3971ZM54.6096 20.3071C54.3276 20.3071 54.2266 20.4581 54.1736 20.7761L54.1316 21.0281C54.1186 21.1071 54.1116 21.1721 54.1116 21.2311C54.1116 21.4111 54.1866 21.4961 54.3996 21.4961C54.5176 21.4961 54.6516 21.4861 54.7176 21.4731L54.9176 20.3301C54.8286 20.3171 54.6886 20.3071 54.6096 20.3071Z" fill="white"/>
<path d="M58.4322 20.7761L58.3892 21.0281C58.2972 21.5751 58.0022 21.8501 57.4622 21.8501C57.2522 21.8501 57.0102 21.8171 56.8172 21.7651C56.7582 21.7491 56.7422 21.7321 56.7422 21.7031C56.7422 21.6961 56.7422 21.6871 56.7452 21.6771L57.1482 19.3971C57.1552 19.3611 57.1872 19.3311 57.2232 19.3311H57.5252C57.5582 19.3311 57.5812 19.3541 57.5812 19.3871V19.3971L57.4762 19.9771C57.6002 19.9611 57.7182 19.9541 57.7972 19.9541C58.2462 19.9541 58.4492 20.2061 58.4492 20.5761C58.4482 20.6381 58.4452 20.7071 58.4322 20.7761ZM57.7342 20.3071C57.6552 20.3071 57.5082 20.3171 57.4132 20.3301L57.2132 21.4731C57.2722 21.4861 57.4062 21.4961 57.5242 21.4961C57.8062 21.4961 57.9142 21.2731 57.9562 21.0281L57.9992 20.7761C58.0122 20.7041 58.0192 20.6381 58.0192 20.5831C58.0192 20.4061 57.9472 20.3071 57.7342 20.3071Z" fill="white"/>
<path d="M60.6201 20.0521L59.7351 21.9651C59.5711 22.3221 59.4241 22.4791 58.9781 22.4791C58.8701 22.4791 58.7091 22.4591 58.6371 22.4361C58.6041 22.4261 58.5781 22.4161 58.5781 22.3901V22.3801L58.6141 22.1701C58.6211 22.1341 58.6531 22.1111 58.6891 22.1111H58.6961C58.7881 22.1141 58.9711 22.1311 59.0631 22.1311C59.2041 22.1311 59.2731 22.0921 59.3481 21.9211L59.3911 21.8231H59.3551C59.2601 21.8231 59.1491 21.8031 59.1191 21.5511L58.9521 20.0501V20.0401C58.9521 20.0011 58.9751 19.9741 59.0241 19.9741H59.3421C59.3711 19.9741 59.3911 20.0041 59.3941 20.0331L59.4921 21.3671C59.4951 21.4231 59.5051 21.4391 59.5251 21.4391H59.5281H59.5441H59.5541L60.1541 20.0301C60.1671 20.0011 60.1971 19.9741 60.2291 19.9741H60.5761C60.6051 19.9741 60.6251 19.9941 60.6251 20.0201C60.6271 20.0321 60.6231 20.0421 60.6201 20.0521Z" fill="white"/>
<path d="M62.7165 19.4521L62.3105 21.7591C62.3035 21.7951 62.2675 21.8251 62.2315 21.8251H61.9075C61.8745 21.8251 61.8555 21.8021 61.8555 21.7731V21.7601L62.2615 19.4531C62.2685 19.4171 62.3005 19.3911 62.3365 19.3911H62.6605C62.6935 19.3911 62.7165 19.4111 62.7165 19.4431V19.4521Z" fill="white"/>
<path d="M64.6337 20.6871L64.4467 21.7551C64.4397 21.7911 64.4037 21.8241 64.3677 21.8241H64.0667C64.0337 21.8241 64.0107 21.8011 64.0107 21.7681C64.0107 21.7651 64.0137 21.7581 64.0137 21.7551L64.2007 20.6871C64.2137 20.6051 64.2237 20.5431 64.2237 20.4901C64.2237 20.3621 64.1677 20.3201 63.9877 20.3201C63.8767 20.3201 63.7487 20.3661 63.5977 20.4381L63.3647 21.7551C63.3587 21.7911 63.3227 21.8241 63.2857 21.8241H62.9847C62.9517 21.8241 62.9287 21.8011 62.9287 21.7681C62.9287 21.7651 62.9317 21.7581 62.9317 21.7551L63.2327 20.0421C63.2397 20.0061 63.2717 19.9761 63.3077 19.9761H63.5927C63.6257 19.9761 63.6487 20.0021 63.6487 20.0321V20.0391V20.0421L63.6357 20.1111C63.8457 19.9901 63.9867 19.9541 64.1797 19.9541C64.5367 19.9541 64.6547 20.1671 64.6547 20.4451C64.6567 20.5201 64.6497 20.6021 64.6337 20.6871Z" fill="white"/>
<path d="M66.7363 20.6871L66.5493 21.7551C66.5423 21.7911 66.5063 21.8241 66.4703 21.8241H66.1693C66.1363 21.8241 66.1133 21.8011 66.1133 21.7681C66.1133 21.7651 66.1162 21.7581 66.1162 21.7551L66.3033 20.6871C66.3163 20.6051 66.3263 20.5431 66.3263 20.4901C66.3263 20.3621 66.2703 20.3201 66.0903 20.3201C65.9793 20.3201 65.8512 20.3661 65.7002 20.4381L65.4673 21.7551C65.4613 21.7911 65.4253 21.8241 65.3883 21.8241H65.0872C65.0542 21.8241 65.0312 21.8011 65.0312 21.7681C65.0312 21.7651 65.0343 21.7581 65.0343 21.7551L65.3353 20.0421C65.3423 20.0061 65.3743 19.9761 65.4103 19.9761H65.6953C65.7283 19.9761 65.7513 20.0021 65.7513 20.0321V20.0391V20.0421L65.7383 20.1111C65.9483 19.9901 66.0892 19.9541 66.2822 19.9541C66.6392 19.9541 66.7573 20.1671 66.7573 20.4451C66.7593 20.5201 66.7523 20.6021 66.7363 20.6871Z" fill="white"/>
<path d="M68.8233 20.7691L68.7743 21.0341C68.6723 21.5751 68.3643 21.8501 67.8503 21.8501C67.4043 21.8501 67.1953 21.5351 67.1953 21.1911C67.1953 21.1391 67.1983 21.0861 67.2083 21.0341L67.2573 20.7691C67.3553 20.2321 67.6703 19.9531 68.1843 19.9531C68.6333 19.9531 68.8393 20.2541 68.8393 20.5981C68.8393 20.6551 68.8323 20.7141 68.8233 20.7691ZM68.1183 20.3271C67.9183 20.3271 67.7483 20.4451 67.6893 20.7691L67.6403 21.0341C67.6303 21.0861 67.6273 21.1361 67.6273 21.1781C67.6273 21.3711 67.7223 21.4761 67.9153 21.4761C68.1443 21.4761 68.2853 21.3381 68.3413 21.0341L68.3903 20.7691C68.4003 20.7171 68.4033 20.6681 68.4033 20.6251C68.4033 20.4321 68.3113 20.3271 68.1183 20.3271Z" fill="white"/>
<path d="M70.9916 20.0521L70.3166 21.5431C70.2086 21.7861 70.0216 21.8511 69.8546 21.8511C69.6876 21.8511 69.5236 21.7861 69.5006 21.5431L69.3496 20.0521V20.0451C69.3496 20.0061 69.3786 19.9761 69.4116 19.9761H69.7266C69.7556 19.9761 69.7786 19.9991 69.7826 20.0421L69.8546 21.4151C69.8576 21.4771 69.8776 21.4971 69.9036 21.4971C69.9296 21.4971 69.9526 21.4771 69.9786 21.4151L70.5356 20.0421C70.5516 19.9991 70.5846 19.9761 70.6146 19.9761H70.9556C70.9816 19.9761 70.9986 19.9921 70.9986 20.0191C70.9986 20.0291 70.9986 20.0391 70.9916 20.0521Z" fill="white"/>
<path d="M72.8819 20.1271L72.5969 21.7581C72.5899 21.7941 72.5539 21.8241 72.5179 21.8241H72.2559C72.2199 21.8241 72.2039 21.8011 72.2039 21.7681V21.7581L72.2169 21.6631C72.0339 21.8041 71.8699 21.8501 71.7089 21.8501C71.4079 21.8501 71.1719 21.6471 71.1719 21.2571C71.1719 21.1981 71.1749 21.1261 71.1879 21.0601C71.1879 21.0601 71.2139 20.8961 71.2369 20.7751C71.3289 20.2641 71.6399 19.9531 72.1669 19.9531C72.3769 19.9531 72.6159 19.9861 72.8089 20.0381C72.8579 20.0511 72.8839 20.0611 72.8839 20.1001C72.8859 20.1111 72.8859 20.1171 72.8819 20.1271ZM72.1059 20.3071C71.8239 20.3071 71.7159 20.5071 71.6699 20.7761L71.6109 21.1131C71.6009 21.1621 71.5979 21.2081 71.5979 21.2471C71.5979 21.4341 71.6959 21.4961 71.8239 21.4961C71.9489 21.4961 72.0859 21.4431 72.2339 21.3581L72.4139 20.3291C72.3549 20.3171 72.2239 20.3071 72.1059 20.3071Z" fill="white"/>
<path d="M74.4763 20.0421L74.4433 20.2351C74.4363 20.2711 74.4003 20.3011 74.3643 20.3011H74.0693L73.8893 21.3301C73.8793 21.3791 73.8733 21.4191 73.8733 21.4451C73.8733 21.5041 73.9033 21.5141 73.9853 21.5141H74.1593C74.1893 21.5141 74.2183 21.5211 74.2183 21.5531V21.5631L74.1823 21.7701C74.1753 21.8031 74.1523 21.8221 74.1103 21.8291C74.0283 21.8421 73.9563 21.8521 73.8843 21.8521C73.5963 21.8521 73.4383 21.7541 73.4383 21.4921C73.4383 21.4431 73.4453 21.3901 73.4543 21.3311L73.6343 20.3021L73.3323 20.2561C73.3033 20.2531 73.2803 20.2331 73.2803 20.2001V20.1901L73.3063 20.0431C73.3133 20.0071 73.3453 19.9771 73.3813 19.9771H73.6893L73.7383 19.7081C73.7453 19.6721 73.7773 19.6491 73.8133 19.6421L74.1283 19.5901H74.1413C74.1673 19.5901 74.1873 19.6031 74.1873 19.6291V19.6391L74.1253 19.9761H74.4203C74.4533 19.9761 74.4763 19.9991 74.4763 20.0321V20.0421Z" fill="white"/>
<path d="M75.3873 20.042L75.0863 21.755C75.0793 21.791 75.0433 21.824 75.0073 21.824H74.7063C74.6733 21.824 74.6543 21.798 74.6543 21.768V21.755L74.9553 20.042C74.9623 20.006 74.9943 19.976 75.0303 19.976H75.3323C75.3653 19.976 75.3883 19.999 75.3883 20.032L75.3873 20.042ZM75.5153 19.377L75.4633 19.665C75.4563 19.701 75.4243 19.731 75.3883 19.731H75.0693C75.0363 19.731 75.0103 19.708 75.0103 19.675V19.665L75.0623 19.377C75.0693 19.341 75.1053 19.311 75.1413 19.311H75.4593C75.4923 19.311 75.5153 19.334 75.5153 19.367V19.377Z" fill="white"/>
<path d="M77.3692 20.7691L77.3202 21.0341C77.2182 21.5751 76.9102 21.8501 76.3962 21.8501C75.9502 21.8501 75.7412 21.5351 75.7412 21.1911C75.7412 21.1391 75.7442 21.0861 75.7542 21.0341L75.8032 20.7691C75.9012 20.2321 76.2162 19.9531 76.7302 19.9531C77.1792 19.9531 77.3852 20.2541 77.3852 20.5981C77.3852 20.6551 77.3792 20.7141 77.3692 20.7691ZM76.6652 20.3271C76.4652 20.3271 76.2952 20.4451 76.2362 20.7691L76.1872 21.0341C76.1772 21.0861 76.1742 21.1361 76.1742 21.1781C76.1742 21.3711 76.2692 21.4761 76.4622 21.4761C76.6912 21.4761 76.8322 21.3381 76.8882 21.0341L76.9372 20.7691C76.9472 20.7171 76.9502 20.6681 76.9502 20.6251C76.9502 20.4321 76.8582 20.3271 76.6652 20.3271Z" fill="white"/>
<path d="M79.4306 20.6871L79.2436 21.7551C79.2366 21.7911 79.2006 21.8241 79.1646 21.8241H78.8636C78.8306 21.8241 78.8076 21.8011 78.8076 21.7681C78.8076 21.7651 78.8106 21.7581 78.8106 21.7551L78.9976 20.6871C79.0106 20.6051 79.0206 20.5431 79.0206 20.4901C79.0206 20.3621 78.9646 20.3201 78.7846 20.3201C78.6736 20.3201 78.5456 20.3661 78.3946 20.4381L78.1616 21.7551C78.1556 21.7911 78.1196 21.8241 78.0826 21.8241H77.7816C77.7486 21.8241 77.7256 21.8011 77.7256 21.7681C77.7256 21.7651 77.7286 21.7581 77.7286 21.7551L78.0296 20.0421C78.0366 20.0061 78.0686 19.9761 78.1046 19.9761H78.3896C78.4226 19.9761 78.4456 20.0021 78.4456 20.0321V20.0391V20.0421L78.4326 20.1111C78.6426 19.9901 78.7836 19.9541 78.9766 19.9541C79.3336 19.9541 79.4516 20.1671 79.4516 20.4451C79.4526 20.5201 79.4466 20.6021 79.4306 20.6871Z" fill="white"/>
<path d="M5.81192 13.7461C6.11192 13.8031 6.31092 14.1301 6.48792 14.4381C6.85192 15.0731 7.21492 15.7081 7.57892 16.3421C7.68792 16.5321 7.80092 16.7461 7.77592 17.0101C7.74292 17.3621 7.48292 17.6291 7.25292 17.8371C6.49892 18.5191 5.74392 19.2011 4.98992 19.8831C4.71992 20.1281 4.38592 20.3841 4.13192 20.2201C3.99892 20.1341 3.92392 19.9481 3.85492 19.7701C3.45792 18.7451 3.05992 17.7191 2.66292 16.6941C2.56692 16.4471 2.46992 16.1601 2.55292 15.8641C2.64192 15.5461 2.89792 15.3621 3.12692 15.2181C3.75092 14.8241 4.37492 14.4291 4.99792 14.0351C5.26292 13.8681 5.54792 13.6961 5.81192 13.7461Z" fill="white"/>
</svg>
