<svg width="71" height="25" viewBox="0 0 71 25" fill="none" xmlns="http://www.w3.org/2000/svg">
<path d="M15.3619 24.2678C15.3209 24.2618 15.2789 24.2508 15.2379 24.2488C14.9869 24.2388 14.7369 24.2308 14.4859 24.2208C14.3469 24.2148 14.2179 24.1748 14.0999 24.1018C13.9699 24.0218 13.8829 23.9118 13.8749 23.7518C13.8749 23.7478 13.8739 23.7438 13.8739 23.7388C13.8459 23.5298 13.8229 23.5068 13.6159 23.4758C13.5989 23.4728 13.5819 23.4718 13.5659 23.4678C13.2229 23.3858 12.8799 23.3038 12.5359 23.2228C12.2519 23.1548 11.9839 23.0538 11.7399 22.8888C11.6919 22.8558 11.6339 22.8338 11.5769 22.8208C11.4619 22.7948 11.3299 22.8738 11.2879 22.9828C11.2689 23.0318 11.2779 23.0748 11.3129 23.1128C11.3389 23.1408 11.3699 23.1648 11.3949 23.1938C11.4169 23.2188 11.4409 23.2458 11.4509 23.2768C11.4829 23.3748 11.4279 23.4388 11.3279 23.4158C11.2209 23.3918 11.1119 23.3648 11.0109 23.3228C10.8249 23.2448 10.7319 23.0938 10.7169 22.8948C10.7119 22.8358 10.7189 22.7758 10.7139 22.7158C10.7089 22.6618 10.7029 22.6048 10.6819 22.5548C10.6409 22.4568 10.5629 22.4008 10.4529 22.4018C10.4059 22.4028 10.3599 22.4088 10.3139 22.4148C10.1239 22.4358 9.9339 22.4598 9.7439 22.4788C9.6849 22.4848 9.6249 22.4798 9.5659 22.4738C9.3809 22.4538 9.2459 22.3618 9.1759 22.1878C9.1399 22.0978 9.1089 22.0038 9.0869 21.9088C9.0549 21.7718 9.0339 21.6328 9.0079 21.4958C9.0019 21.4638 8.9919 21.4318 8.9819 21.3918C8.9509 21.4078 8.9279 21.4178 8.9069 21.4298C8.8629 21.4558 8.8199 21.4838 8.7749 21.5078C8.5159 21.6438 8.2579 21.6408 8.0109 21.4858C7.8969 21.4138 7.7879 21.3278 7.6939 21.2308C7.3299 20.8548 6.9489 20.4968 6.5639 20.1418C6.5109 20.0928 6.4509 20.0528 6.3919 20.0108C6.3399 19.9738 6.2829 19.9428 6.2339 19.9038C6.1169 19.8108 6.1019 19.7168 6.1769 19.5908C6.1789 19.5868 6.1809 19.5838 6.1839 19.5798C6.2739 19.4508 6.3629 19.3208 6.4529 19.1928C6.5569 19.0448 6.7009 18.9908 6.8759 19.0238C6.9669 19.0408 7.0589 19.0648 7.1459 19.0968C7.4619 19.2138 7.7839 19.3058 8.1179 19.3548C8.5009 19.4108 8.8799 19.4008 9.2549 19.2938C9.4329 19.2428 9.5679 19.1488 9.6619 18.9898C9.7399 18.8578 9.8189 18.7268 9.9009 18.5968C9.9559 18.5108 10.0109 18.4248 10.0749 18.3448C10.1889 18.2038 10.3369 18.1438 10.5169 18.1878C10.6069 18.2098 10.6959 18.2408 10.7829 18.2758C10.8659 18.3098 10.9419 18.3578 11.0239 18.3928C11.1339 18.4398 11.2169 18.5158 11.2789 18.6158C11.3239 18.6878 11.3639 18.7638 11.4119 18.8338C11.4569 18.9008 11.5039 18.9668 11.5579 19.0258C11.6579 19.1358 11.7819 19.1608 11.9169 19.0988C11.9819 19.0688 12.0449 19.0318 12.1049 18.9928C12.2189 18.9188 12.2719 18.9168 12.3849 18.9908C12.4029 19.0028 12.4199 19.0148 12.4359 19.0288C12.9499 19.4588 13.5279 19.7828 14.1449 20.0358C14.6839 20.2568 15.2299 20.4608 15.7729 20.6718C15.9279 20.7318 16.0819 20.7918 16.2369 20.8508C16.2679 20.8628 16.2999 20.8708 16.3479 20.8848C16.3389 20.8448 16.3359 20.8178 16.3259 20.7928C16.2069 20.5008 15.9939 20.3018 15.7079 20.1808C15.5359 20.1078 15.3589 20.0458 15.1839 19.9788C15.0559 19.9298 14.9319 19.8718 14.8309 19.7778C14.7629 19.7148 14.7079 19.6388 14.6499 19.5658C14.6159 19.5228 14.6259 19.4818 14.6629 19.4408C14.8139 19.2708 15.0649 19.2248 15.2389 19.3658C15.5889 19.6498 15.9989 19.7718 16.4299 19.8528C16.6679 19.8978 16.9049 19.9468 17.1409 20.0018C17.3449 20.0498 17.5349 20.1338 17.7149 20.2428C17.7759 20.2798 17.8449 20.3088 17.9139 20.3228C18.0639 20.3538 18.2139 20.1978 18.1829 20.0478C18.1759 20.0128 18.1519 19.9778 18.1259 19.9518C18.0999 19.9248 18.0649 19.9058 18.0299 19.8898C17.6469 19.7078 17.3059 19.4598 16.9589 19.2218C16.6809 19.0308 16.5059 18.7648 16.4509 18.4268C16.4439 18.3828 16.4439 18.3368 16.4409 18.2868C16.5029 18.2748 16.5529 18.2668 16.6009 18.2538C16.7089 18.2238 16.8029 18.1658 16.8939 18.1018C16.9919 18.0338 17.0879 17.9628 17.1879 17.8998C17.4229 17.7518 17.6599 17.7578 17.8769 17.9288C18.1719 18.1618 18.4949 18.3508 18.8129 18.5468C19.1109 18.7308 19.3909 18.9368 19.6209 19.2048C19.7019 19.2998 19.8079 19.3638 19.9179 19.4218C20.1679 19.5528 20.4349 19.6388 20.7089 19.7038C21.0909 19.7958 21.4779 19.8498 21.8709 19.8438C22.0269 19.8408 22.1839 19.8148 22.3389 19.7918C22.3999 19.7828 22.4579 19.7548 22.5379 19.7288C22.4979 19.6988 22.4789 19.6788 22.4549 19.6678C22.3049 19.5978 22.1529 19.5298 22.0029 19.4598C21.8139 19.3718 21.6219 19.2898 21.4369 19.1938C21.1539 19.0468 20.9079 18.8518 20.7369 18.5768C20.6899 18.5008 20.6519 18.4198 20.6129 18.3398C20.5969 18.3068 20.5909 18.2688 20.5769 18.2238C20.6199 18.2178 20.6529 18.2108 20.6849 18.2088C21.1069 18.1868 21.4569 18.3438 21.7479 18.6438C21.7919 18.6898 21.8349 18.7378 21.8729 18.7888C22.0349 19.0088 22.2499 19.1558 22.4999 19.2538C22.6499 19.3128 22.8029 19.3668 22.9569 19.4158C23.2179 19.4998 23.4649 19.6088 23.6869 19.7738C23.7749 19.8398 23.8709 19.8958 23.9629 19.9578C23.9859 19.9738 24.0059 19.9938 24.0299 20.0148C24.0149 20.0288 24.0079 20.0408 23.9969 20.0448C23.8549 20.1048 23.7839 20.2218 23.7429 20.3618C23.7219 20.4348 23.7049 20.5098 23.6859 20.5838C23.6749 20.6248 23.6659 20.6668 23.6539 20.7068C23.5729 20.9798 23.3529 21.0188 23.1519 20.9428C23.1159 20.9288 23.0819 20.9108 23.0459 20.8998C22.9839 20.8818 22.9459 20.8978 22.9249 20.9598C22.9069 21.0158 22.8969 21.0748 22.8909 21.1338C22.8829 21.2058 22.8879 21.2788 22.8789 21.3498C22.8529 21.5828 22.7299 21.7628 22.5569 21.9118C22.3299 22.1068 22.0649 22.2298 21.7819 22.3168C21.4779 22.4098 21.1659 22.4468 20.8489 22.4228C20.6169 22.4058 20.3959 22.3498 20.2029 22.2098C20.1899 22.1998 20.1739 22.1938 20.1609 22.1868C20.0549 22.2648 20.0219 22.3498 20.0599 22.4608C20.0759 22.5088 20.1049 22.5518 20.1279 22.5978C20.2049 22.7488 20.1949 22.8938 20.0899 23.0278C19.9999 23.1438 19.8859 23.2338 19.7659 23.3138C19.6729 23.3748 19.6009 23.3558 19.5359 23.2638C19.5069 23.2228 19.4829 23.1768 19.4569 23.1328C19.3649 22.9698 19.2199 22.8888 19.0379 22.8858C18.9329 22.8838 18.8269 22.9038 18.7219 22.9208C18.5669 22.9468 18.4129 22.9778 18.2579 23.0078C18.2329 23.0128 18.2069 23.0158 18.1829 23.0238C18.0929 23.0548 18.0509 23.1168 18.0669 23.2108C18.0779 23.2778 18.1019 23.3418 18.1239 23.4068C18.1669 23.5308 18.1719 23.6558 18.1419 23.7838C18.1089 23.9258 18.0289 24.0338 17.8929 24.0868C17.8029 24.1218 17.7059 24.1498 17.6109 24.1588C17.2509 24.1928 16.8909 24.2168 16.5309 24.2458C16.4979 24.2488 16.4649 24.2578 16.4319 24.2648C16.0759 24.2678 15.7189 24.2678 15.3619 24.2678Z" fill="white"/>
<path d="M17.0468 0.424805C17.0668 0.431805 17.0858 0.444805 17.1058 0.445805C17.7118 0.450805 18.2928 0.592807 18.8718 0.754807C19.6548 0.973807 20.4278 1.2238 21.1728 1.5508C22.0188 1.9228 22.8058 2.38881 23.5118 2.98981C24.0638 3.45981 24.5328 3.9978 24.9098 4.6188C25.1328 4.9858 25.3598 5.35081 25.6068 5.70181C25.8898 6.10381 26.1428 6.52081 26.3338 6.97281C26.5078 7.38381 26.6638 7.8028 26.8268 8.2178C26.9308 8.4828 27.0288 8.75081 27.1378 9.01381C27.2568 9.29981 27.3218 9.59681 27.3568 9.90181C27.3888 10.1758 27.4218 10.4508 27.4538 10.7248C27.4538 10.7288 27.4548 10.7328 27.4558 10.7378C27.4578 10.7748 27.4748 10.8168 27.4348 10.8428C27.3928 10.8708 27.3518 10.8508 27.3158 10.8268C27.2918 10.8108 27.2708 10.7888 27.2488 10.7678C27.2178 10.7388 27.1898 10.7068 27.1578 10.6778C27.0538 10.5828 26.9868 10.5898 26.9068 10.7018C26.8578 10.7708 26.8078 10.8388 26.7538 10.9138C26.7528 10.9598 26.7948 10.9868 26.8328 11.0098C26.9458 11.0758 27.0108 11.1728 27.0518 11.2958C27.0898 11.4088 27.1458 11.5148 27.1838 11.6278C27.2248 11.7478 27.2628 11.8708 27.2878 11.9948C27.3368 12.2368 27.2698 12.4508 27.1018 12.6298C27.0468 12.6888 26.9808 12.7368 26.9198 12.7898C26.8908 12.8148 26.8578 12.8358 26.8338 12.8648C26.7548 12.9578 26.7588 13.0628 26.8438 13.1508C26.8678 13.1748 26.8958 13.1948 26.9218 13.2168C27.2548 13.4938 27.2978 14.0088 27.0148 14.3408C26.8868 14.4898 26.7418 14.5058 26.5928 14.3758C26.5198 14.3118 26.4548 14.2378 26.3928 14.1618C26.2848 14.0288 26.1628 13.9138 26.0238 13.8128C25.0608 13.1158 24.0578 12.4828 23.0158 11.9118C22.6128 11.6908 22.2058 11.4788 21.7968 11.2688C21.5358 11.1348 21.2718 11.0068 21.0048 10.8848C20.6468 10.7218 20.3228 10.5028 19.9978 10.2838C19.9378 10.2438 19.8808 10.1988 19.8178 10.1628C19.6118 10.0418 19.4548 10.0688 19.2998 10.2528C19.2668 10.2918 19.2398 10.3358 19.2118 10.3778C19.1298 10.4978 19.0468 10.5308 18.9058 10.4978C18.7968 10.4718 18.6998 10.4178 18.6108 10.3508C18.5088 10.2738 18.4088 10.1948 18.3068 10.1178C17.5718 9.55781 16.8028 9.04781 16.0218 8.55481C15.4748 8.20981 14.9248 7.86981 14.3778 7.52581C14.3238 7.49181 14.2708 7.4548 14.2248 7.4118C14.1518 7.3418 14.1458 7.26081 14.1948 7.18081C14.2418 7.10481 14.3068 7.0798 14.4038 7.1068C14.4448 7.1178 14.4848 7.1338 14.5218 7.1538C15.0688 7.4518 15.6498 7.67081 16.2328 7.88781C16.7028 8.06281 17.1758 8.23381 17.6238 8.46181C17.8508 8.57781 18.0798 8.69481 18.2908 8.83681C18.6998 9.11181 19.1408 9.31981 19.5988 9.49281C19.9248 9.61681 20.2528 9.73581 20.5758 9.86681C21.1198 10.0888 21.6418 10.3578 22.1578 10.6378C22.9878 11.0878 23.8138 11.5458 24.6408 12.0008C24.6968 12.0318 24.7548 12.0578 24.8098 12.0848C25.0418 11.8878 25.0728 11.5678 24.8848 11.3408C24.7668 11.1978 24.6148 11.0948 24.4598 10.9968C24.1578 10.8058 23.8538 10.6178 23.5538 10.4238C22.7638 9.91381 21.9758 9.4018 21.1878 8.8898C20.7168 8.5838 20.2478 8.27581 19.7778 7.96881C19.7438 7.94681 19.7118 7.92081 19.6688 7.88881C19.7628 7.82481 19.8568 7.81581 19.9478 7.80581C20.1528 7.78281 20.3468 7.82581 20.5238 7.93081C20.6368 7.99781 20.7438 8.0768 20.8498 8.1538C20.9638 8.2358 21.0728 8.3238 21.1868 8.4058C21.2978 8.4858 21.4228 8.5408 21.5548 8.5788C21.6938 8.6188 21.8338 8.65681 21.9708 8.70181C22.1428 8.75781 22.3038 8.83581 22.4278 8.97081C22.4818 9.02981 22.5388 9.0438 22.6108 9.0238C22.6918 9.0018 22.7458 8.95081 22.7618 8.86781C22.7848 8.74481 22.7498 8.64181 22.6518 8.55981C22.4588 8.39881 22.2708 8.23281 22.0748 8.07681C21.4888 7.60781 20.8688 7.1898 20.2018 6.8428C19.9308 6.7018 19.6498 6.5788 19.3738 6.4458C19.1088 6.3178 18.8528 6.1748 18.6248 5.9868C18.5628 5.9358 18.5068 5.8788 18.4508 5.8278C18.5708 5.4668 18.9338 5.28581 19.2708 5.42181C19.3998 5.47381 19.5248 5.54381 19.6378 5.62481C20.1258 5.96981 20.6508 6.24881 21.1828 6.51781C21.5538 6.70681 21.9228 6.9018 22.2858 7.1058C22.5828 7.2728 22.8578 7.4738 23.1118 7.7028C23.1148 7.7058 23.1178 7.70881 23.1208 7.71181C23.2848 7.85081 23.4568 7.82581 23.5748 7.64481C23.6248 7.56881 23.6218 7.4878 23.5708 7.4178C23.5338 7.3678 23.4828 7.3268 23.4338 7.2868C23.3678 7.2338 23.2928 7.19081 23.2288 7.13581C23.0488 6.98281 22.9328 6.78781 22.8698 6.55981C22.8188 6.37381 22.8048 6.18281 22.7938 5.99181C22.7868 5.87281 22.7878 5.7538 22.7868 5.6348C22.7868 5.6098 22.7868 5.5838 22.7918 5.5588C22.7998 5.5218 22.8298 5.49581 22.8638 5.49981C22.8868 5.50281 22.9168 5.5278 22.9268 5.5498C22.9468 5.5958 22.9508 5.6488 22.9688 5.6968C22.9948 5.7678 23.0188 5.84281 23.0588 5.90681C23.1108 5.99081 23.1828 6.0058 23.2678 5.9598C23.3548 5.9128 23.4268 5.8458 23.4778 5.7598C23.5318 5.6688 23.5058 5.60181 23.4038 5.57681C23.3598 5.56581 23.3118 5.56881 23.2648 5.56781C23.2318 5.56781 23.1988 5.57181 23.1528 5.57481C23.1508 5.52481 23.1478 5.48381 23.1488 5.44281C23.1528 5.24981 23.1288 5.0608 23.0668 4.8778C22.9738 4.6018 22.7988 4.38781 22.5638 4.21981C22.3888 4.09581 22.1978 4.00181 21.9918 3.94381C21.7678 3.88081 21.7078 3.74181 21.7088 3.54681C21.7088 3.44881 21.7168 3.35081 21.7158 3.25381C21.7108 3.00581 21.5928 2.92481 21.3588 3.00381C21.3108 3.01981 21.2648 3.04381 21.2168 3.06181C21.0908 3.10981 20.9988 3.0868 20.9088 2.9868C20.2418 2.2428 19.4308 1.7258 18.4718 1.4458C18.2788 1.3888 18.0968 1.3098 17.9188 1.2168C17.7718 1.1398 17.6228 1.06881 17.4578 1.03281C17.3128 1.00181 17.1708 1.00681 17.0298 1.05381C16.9488 1.07981 16.8678 1.10681 16.7848 1.12281C16.6658 1.14581 16.5988 1.1008 16.5618 0.986805C16.5018 0.804805 16.5818 0.601805 16.7548 0.507805C16.8138 0.475805 16.8788 0.454807 16.9408 0.427807C16.9778 0.424807 17.0128 0.424805 17.0468 0.424805Z" fill="white"/>
<path d="M70.8083 14.7208C70.7613 14.7228 70.7153 14.7278 70.6683 14.7278C69.4473 14.7278 68.2263 14.7278 67.0063 14.7278C66.9893 14.7278 66.9723 14.7258 66.9553 14.7278C66.8873 14.7358 66.8453 14.7098 66.8143 14.6468C66.7603 14.5358 66.6993 14.4288 66.6403 14.3198C65.3223 11.8578 64.0033 9.39479 62.6853 6.93279C62.6123 6.79579 62.6033 6.82379 62.6993 6.68479C63.8093 5.08479 64.9203 3.48379 66.0283 1.88279C66.0823 1.80479 66.1383 1.77179 66.2353 1.77179C67.4733 1.77479 68.7113 1.77379 69.9493 1.77379C69.9913 1.77379 70.0333 1.77379 70.0773 1.77379C70.0923 1.83679 70.0513 1.86879 70.0263 1.90479C69.7863 2.25079 69.5443 2.59479 69.3023 2.93979C68.4093 4.21479 67.5163 5.48979 66.6233 6.76479C66.6013 6.79579 66.5813 6.82779 66.5563 6.86579C66.5773 6.90679 66.5973 6.94879 66.6193 6.98879C67.9883 9.50079 69.3583 12.0138 70.7283 14.5258C70.7543 14.5738 70.7813 14.6218 70.8083 14.6688C70.8083 14.6868 70.8083 14.7038 70.8083 14.7208Z" fill="white"/>
<path d="M0.581101 5.5308C0.937101 5.5188 1.2601 5.6288 1.5651 5.8008C1.7061 5.8798 1.8441 5.9658 1.9761 6.0578C2.2971 6.2828 2.6301 6.4848 2.9841 6.6578C3.5391 6.9288 4.0641 7.2538 4.5841 7.5858C5.2401 8.0048 5.8951 8.4258 6.5541 8.8398C6.9761 9.1048 7.4231 9.3248 7.8631 9.5568C8.7891 10.0448 9.6901 10.5778 10.5881 11.1148C11.5081 11.6648 12.4251 12.2198 13.3651 12.7358C13.8161 12.9838 14.2671 13.2318 14.7231 13.4708C15.0641 13.6498 15.4231 13.7788 15.8061 13.8378C15.9691 13.8628 16.1161 13.9308 16.2451 14.0328C16.3921 14.1488 16.5341 14.2698 16.6751 14.3938C16.8361 14.5348 17.0111 14.6528 17.2001 14.7528C18.0371 15.1988 18.8761 15.6418 19.7071 16.0988C20.7241 16.6588 21.7341 17.2318 22.7471 17.8008C22.8141 17.8378 22.8781 17.8808 22.9421 17.9208C22.9821 17.9458 23.0191 17.9738 23.0601 17.9968C23.2331 18.0928 23.3941 18.0238 23.4461 17.8328C23.4641 17.7658 23.4511 17.7028 23.4071 17.6528C23.3631 17.6018 23.3121 17.5548 23.2571 17.5158C22.2481 16.8058 21.2391 16.0958 20.2271 15.3908C19.2321 14.6978 18.2331 14.0108 17.2361 13.3208C17.1661 13.2728 17.0931 13.2288 17.0231 13.1798C16.9541 13.1308 16.9001 13.0708 16.9171 12.9778C16.9351 12.8758 16.9911 12.7958 17.0861 12.7528C17.1171 12.7388 17.1621 12.7418 17.1961 12.7518C17.2391 12.7658 17.2811 12.7918 17.3181 12.8188C18.2631 13.5018 19.2381 14.1408 20.2291 14.7558C20.7281 15.0648 21.2321 15.3668 21.7341 15.6698C22.2341 15.9718 22.6991 16.3228 23.1551 16.6858C23.6451 17.0748 24.1311 17.4688 24.6281 17.8468C24.9941 18.1248 25.3771 18.3788 25.7491 18.6488C26.0561 18.8708 26.3471 19.1128 26.6151 19.3818C26.8261 19.5938 27.0181 19.8208 27.1771 20.0738C27.2641 20.2128 27.3801 20.2858 27.5381 20.3038C27.5681 20.3068 27.5971 20.3098 27.6271 20.3138C27.7491 20.3278 27.8571 20.3668 27.9451 20.4588C28.0031 20.5208 28.0711 20.5728 28.1311 20.6338C28.2661 20.7718 28.2711 20.9058 28.1751 21.0748C28.1281 21.1578 28.0541 21.1988 27.9621 21.1818C27.8881 21.1688 27.8141 21.1428 27.7461 21.1108C27.3371 20.9188 26.9471 20.6928 26.5651 20.4528C26.2051 20.2268 25.8461 19.9968 25.4761 19.7878C25.1651 19.6128 24.8391 19.4638 24.5181 19.3078C23.5761 18.8508 22.6461 18.3708 21.7331 17.8588C20.2701 17.0398 18.8141 16.2118 17.3541 15.3878C16.3941 14.8468 15.4231 14.3258 14.4491 13.8108C13.1211 13.1088 11.8071 12.3828 10.5011 11.6418C8.8101 10.6828 7.1181 9.7248 5.4331 8.7548C4.4451 8.1858 3.4691 7.5958 2.4891 7.0128C1.8931 6.6578 1.3001 6.2988 0.705101 5.9418C0.666101 5.9188 0.621102 5.9038 0.579102 5.8858C0.581102 5.7688 0.581101 5.6498 0.581101 5.5308Z" fill="white"/>
<path d="M70.808 22.9408C70.626 22.9398 70.444 22.9378 70.251 22.9368C70.175 22.4698 70.102 22.0148 70.029 21.5628C69.931 21.5358 69.04 21.5258 68.79 21.5498C68.737 21.7718 68.713 22.0028 68.673 22.2308C68.633 22.4608 68.599 22.6908 68.563 22.9168C68.454 22.9478 68.126 22.9488 68.012 22.9228C68.01 22.9198 68.007 22.9158 68.005 22.9128C68.003 22.9078 68 22.9038 68 22.8998C68.009 22.8368 68.016 22.7738 68.028 22.7108C68.394 20.6838 68.76 18.6578 69.125 16.6348C69.24 16.6008 69.597 16.6018 69.708 16.6348C69.736 16.7848 69.764 16.9388 69.792 17.0938C69.925 17.8378 70.059 18.5818 70.192 19.3268C70.315 20.0168 70.437 20.7068 70.56 21.3968C70.631 21.7938 70.701 22.1908 70.772 22.5888C70.784 22.6548 70.796 22.7218 70.808 22.7878C70.808 22.8388 70.808 22.8898 70.808 22.9408ZM69.935 21.0148C69.935 20.9778 69.937 20.9608 69.935 20.9448C69.764 19.8978 69.592 18.8508 69.421 17.8038C69.42 17.7998 69.417 17.7948 69.414 17.7938C69.411 17.7918 69.406 17.7948 69.392 17.7968C69.22 18.8438 69.047 19.8938 68.875 20.9438C68.872 20.9638 68.878 20.9838 68.88 21.0188C69.231 21.0168 69.577 21.0228 69.935 21.0148Z" fill="white"/>
<path d="M40.3336 11.0548C40.3716 11.0588 40.3955 11.0628 40.4205 11.0628C40.9225 11.0638 41.4245 11.0768 41.9265 11.0608C42.7935 11.0328 43.4176 10.6218 43.7786 9.82683C43.9296 9.49383 44.0086 9.14283 44.0276 8.77883C44.0366 8.60083 44.0215 8.42183 44.0365 8.24483C44.0515 8.05683 44.0416 7.87084 44.0266 7.68484C43.9846 7.18984 43.8565 6.72283 43.5725 6.30783C43.2235 5.79883 42.7326 5.52583 42.1246 5.45983C41.9646 5.44283 41.8025 5.43783 41.6405 5.43783C40.0495 5.43783 38.4586 5.43984 36.8676 5.44084C36.8086 5.44084 36.7506 5.43783 36.7016 5.43683C36.6896 5.42383 36.6865 5.42083 36.6835 5.41683C36.6815 5.41383 36.6786 5.40983 36.6786 5.40583C36.6766 5.36783 36.6726 5.32983 36.6726 5.29183C36.6726 4.14783 36.6736 3.00284 36.6746 1.85884C36.6746 1.84684 36.6806 1.83484 36.6876 1.80984C36.7256 1.80684 36.7656 1.80283 36.8066 1.80183C37.1896 1.79983 37.5725 1.79884 37.9545 1.79684C38.3715 1.79584 38.7886 1.79483 39.2056 1.79183C39.8306 1.78683 40.4556 1.77984 41.0806 1.77584C41.4846 1.77284 41.8876 1.80383 42.2896 1.84283C42.4846 1.86183 42.6796 1.87583 42.8736 1.89783C43.6996 1.98883 44.4446 2.28884 45.1116 2.78284C45.7366 3.24584 46.2265 3.82784 46.6145 4.49884C47.0515 5.25384 47.3346 6.06384 47.4856 6.92184C47.5786 7.45084 47.6276 7.98383 47.6026 8.52083C47.5396 9.86783 47.1846 11.1268 46.4556 12.2688C46.0406 12.9188 45.5216 13.4688 44.8726 13.8918C44.2786 14.2778 43.6305 14.5228 42.9255 14.6018C42.5325 14.6458 42.1385 14.6758 41.7445 14.7048C41.1375 14.7508 40.5285 14.7248 39.9205 14.7248C39.7075 14.7248 39.4956 14.7228 39.2826 14.7208C38.8876 14.7168 38.4916 14.7108 38.0966 14.7078C37.6716 14.7048 37.2456 14.7048 36.8206 14.7038C36.7786 14.7038 36.7365 14.7038 36.6895 14.7038C36.6825 14.6658 36.6746 14.6378 36.6726 14.6098C36.6696 14.5758 36.6716 14.5418 36.6716 14.5078C36.6716 11.9808 36.6716 9.45384 36.6716 6.92784C36.6716 6.86984 36.6745 6.81083 36.6765 6.75683C36.7865 6.72783 40.1646 6.72383 40.3066 6.75283C40.3096 6.79783 40.3145 6.84683 40.3145 6.89683C40.3155 7.46683 40.3135 8.03683 40.3155 8.60683C40.3185 9.38083 40.3236 10.1548 40.3276 10.9288C40.3276 10.9638 40.3306 11.0018 40.3336 11.0548Z" fill="white"/>
<path d="M62.2091 14.7088C62.0801 14.7348 58.3751 14.7348 58.2661 14.7128C58.2631 14.7098 58.2601 14.7068 58.2581 14.7028C58.2561 14.6998 58.2531 14.6958 58.2531 14.6918C58.2511 14.6748 58.2471 14.6578 58.2471 14.6418C58.2471 10.3798 58.2471 6.11782 58.2471 1.85582C58.2471 1.84282 58.2491 1.83082 58.2511 1.81782C58.2531 1.80982 58.2581 1.80282 58.2621 1.79582C58.2651 1.79282 58.2681 1.78882 58.2711 1.78682C58.2741 1.78482 58.2791 1.78282 58.2821 1.78182C58.3071 1.77982 58.3331 1.77582 58.3581 1.77582C59.6211 1.77582 60.8851 1.77682 62.1481 1.77782C62.1601 1.77782 62.1731 1.78282 62.1931 1.78782C62.1981 1.81382 62.2061 1.84082 62.2081 1.86882C62.2111 1.90282 62.2091 1.93682 62.2091 1.97082C62.2091 6.15582 62.2091 10.3418 62.2091 14.5268C62.2091 14.5858 62.2091 14.6448 62.2091 14.7088Z" fill="white"/>
<path d="M57.0754 6.73279C57.1074 6.86879 57.1204 9.26379 57.0984 9.91679C57.0974 9.94979 57.0894 9.98179 57.0834 10.0268C56.3244 10.0278 55.5724 10.0268 54.8204 10.0268C54.0674 10.0268 53.3154 10.0268 52.5674 10.0268C52.5234 10.0738 52.5384 10.1228 52.5384 10.1678C52.5384 10.4868 52.5414 10.8058 52.5414 11.1248C52.5424 11.5288 52.5394 11.9328 52.5424 12.3368C52.5464 13.0768 52.5534 13.8168 52.5584 14.5568C52.5584 14.6068 52.5554 14.6568 52.5534 14.7198C52.4954 14.7228 52.4464 14.7278 52.3964 14.7278C51.8604 14.7288 51.3244 14.7278 50.7884 14.7278C50.1034 14.7278 49.4184 14.7278 48.7334 14.7278C48.6834 14.7278 48.6334 14.7238 48.5954 14.7228C48.5814 14.7088 48.5774 14.7058 48.5754 14.7028C48.5734 14.6998 48.5714 14.6948 48.5714 14.6908C48.5694 12.0918 48.5674 9.49279 48.5654 6.89279C48.5654 6.85879 48.5664 6.82479 48.5674 6.79079C48.5684 6.77879 48.5734 6.76679 48.5784 6.74879C48.6014 6.74379 48.6254 6.73279 48.6494 6.73279C51.4574 6.73279 54.2654 6.73279 57.0754 6.73279Z" fill="white"/>
<path d="M57.0514 1.77481C57.0554 1.90581 57.0594 2.01581 57.0604 2.12481C57.0694 2.91181 57.0774 3.69781 57.0864 4.48481C57.0884 4.61181 57.0954 4.73981 57.0984 4.86681C57.0994 4.90781 57.0934 4.94981 57.0904 4.98681C56.9744 5.01181 48.7004 5.01281 48.5864 4.99081C48.5834 4.98781 48.5804 4.98481 48.5784 4.98081C48.5764 4.97781 48.5734 4.97381 48.5734 4.96981C48.5714 3.95781 48.5694 2.94481 48.5674 1.93281C48.5674 1.89881 48.5684 1.86481 48.5704 1.83081C48.5714 1.81881 48.5774 1.80681 48.5824 1.78781C48.6084 1.78381 48.6374 1.77681 48.6654 1.77481C48.6994 1.77281 48.7334 1.77381 48.7674 1.77381C51.4644 1.77381 54.1614 1.77381 56.8584 1.77381C56.9154 1.77481 56.9744 1.77481 57.0514 1.77481Z" fill="white"/>
<path d="M13.121 8.68579C13.397 8.57079 13.646 8.62478 13.878 8.78078C13.977 8.84678 14.072 8.91978 14.163 8.99578C14.358 9.15778 14.57 9.28278 14.813 9.36378C15.257 9.51278 15.693 9.68279 16.108 9.90179C16.416 10.0648 16.716 10.2438 17.022 10.4108C17.575 10.7118 18.126 11.0158 18.685 11.3038C19.63 11.7908 20.581 12.2668 21.53 12.7458C22.24 13.1038 22.951 13.4598 23.662 13.8168C24.066 14.0198 24.488 14.1768 24.91 14.3348C25.324 14.4898 25.739 14.6438 26.135 14.8428C26.364 14.9578 26.574 15.1018 26.79 15.2368C27.179 15.4808 27.575 15.7138 27.967 15.9538C28.261 16.1338 28.548 16.3248 28.807 16.5538C28.928 16.6608 29.045 16.7728 29.156 16.8898C29.302 17.0438 29.463 17.1708 29.676 17.2188C29.725 17.2298 29.773 17.2518 29.816 17.2778C29.891 17.3218 29.921 17.3898 29.9 17.4738C29.846 17.6868 29.647 17.9218 29.335 17.8338C29.258 17.8118 29.182 17.7808 29.113 17.7408C27.991 17.1058 26.874 16.4648 25.749 15.8348C25.174 15.5128 24.593 15.2008 24.005 14.9018C22.789 14.2818 21.565 13.6758 20.347 13.0588C19.691 12.7268 19.04 12.3828 18.386 12.0458C17.781 11.7348 17.172 11.4298 16.569 11.1158C15.807 10.7188 15.058 10.2978 14.346 9.81378C14.082 9.63478 13.828 9.44179 13.569 9.25579C13.486 9.19579 13.404 9.13578 13.321 9.07678C13.187 8.98478 13.111 8.85979 13.121 8.68579Z" fill="white"/>
<path d="M39.821 22.9338C39.629 22.9428 39.458 22.9408 39.275 22.9348C39.264 22.5758 39.271 22.2328 39.27 21.8888C39.269 21.5398 39.27 21.1908 39.27 20.8428C39.27 20.4978 39.27 20.1538 39.27 19.8088C39.27 19.4648 39.27 19.1208 39.27 18.7758C39.267 18.7748 39.264 18.7738 39.261 18.7728C38.944 19.9568 38.626 21.1408 38.308 22.3308C38.259 22.3308 38.219 22.3308 38.168 22.3308C37.847 21.1338 37.527 19.9408 37.208 18.7478C37.225 19.1908 37.21 19.6328 37.212 20.0738C37.215 20.5208 37.213 20.9668 37.213 21.4138C37.213 21.8558 37.213 22.2988 37.213 22.7408C37.213 22.7998 37.209 22.8578 37.207 22.9118C37.107 22.9438 36.82 22.9498 36.673 22.9228C36.667 22.8978 36.6579 22.8708 36.6559 22.8428C36.6529 22.8088 36.655 22.7748 36.655 22.7408C36.655 20.7668 36.655 18.7928 36.655 16.8198C36.655 16.7618 36.66 16.7028 36.662 16.6488C36.772 16.6228 37.072 16.6208 37.205 16.6458C37.544 17.9878 37.8849 19.3368 38.2249 20.6858C38.3409 20.3528 38.419 20.0168 38.506 19.6818C38.593 19.3448 38.677 19.0058 38.762 18.6688C38.847 18.3308 38.933 17.9928 39.018 17.6548C39.103 17.3178 39.188 16.9798 39.271 16.6488C39.381 16.6228 39.678 16.6208 39.808 16.6428C39.812 16.6688 39.819 16.6968 39.821 16.7248C39.823 16.7588 39.822 16.7928 39.822 16.8268C39.822 18.8008 39.822 20.7748 39.822 22.7478C39.821 22.8028 39.821 22.8578 39.821 22.9338Z" fill="white"/>
<path d="M13.0325 8.66778C12.9965 8.72378 12.9605 8.78178 12.9225 8.83778C12.8555 8.93578 12.7735 8.95678 12.6695 8.90078C12.6325 8.88078 12.5975 8.85478 12.5665 8.82678C11.9785 8.30478 11.2985 7.92878 10.5935 7.59278C9.98346 7.30178 9.37246 7.01278 8.76346 6.71978C8.63346 6.65678 8.51146 6.57878 8.38346 6.51078C8.31646 6.47478 8.24746 6.43878 8.17546 6.41478C8.05046 6.37378 7.94946 6.41278 7.90446 6.53278C7.86746 6.63078 7.84646 6.73678 7.83546 6.84078C7.82446 6.95478 7.88846 7.03678 7.99346 7.07678C8.05646 7.10078 8.12446 7.11278 8.19046 7.12678C8.29146 7.14878 8.37146 7.19878 8.41946 7.29278C8.45246 7.35778 8.44846 7.38078 8.38746 7.41978C8.22946 7.51878 8.06346 7.53778 7.88646 7.47578C7.75646 7.42978 7.64246 7.35678 7.53646 7.26978C7.11446 6.92578 6.68346 6.59378 6.23346 6.28578C5.56346 5.82778 4.88746 5.37578 4.21446 4.92178C3.94646 4.74078 3.68146 4.55678 3.41146 4.37878C3.21046 4.24578 3.04146 4.08078 2.88346 3.90078C2.75446 3.75378 2.62546 3.60678 2.49046 3.46578C2.28046 3.24678 2.02746 3.09478 1.73946 2.99878C1.71246 2.98978 1.68646 2.97778 1.64746 2.96278C1.67446 2.94778 1.68746 2.93678 1.70246 2.93178C2.05446 2.82178 2.41446 2.76078 2.78346 2.79978C3.09646 2.83178 3.36046 2.96978 3.56946 3.20578C3.63146 3.27578 3.69046 3.34978 3.73746 3.42978C3.90946 3.72078 4.16446 3.91078 4.46946 4.03878C4.55946 4.07678 4.64946 4.11578 4.74346 4.14378C5.13346 4.26078 5.49246 4.44178 5.84446 4.64178C6.96446 5.27878 8.09846 5.88978 9.25546 6.45978C9.60246 6.63078 9.95146 6.79978 10.3035 6.95978C10.6765 7.12978 11.0265 7.33778 11.3745 7.55078C11.6105 7.69478 11.8525 7.82878 12.0975 7.95578C12.3255 8.07278 12.5705 8.14478 12.8255 8.18278C12.8505 8.18678 12.8765 8.18878 12.9005 8.19578C13.0035 8.22478 13.0405 8.27478 13.0385 8.38078C13.0385 8.41078 13.0315 8.43978 13.0315 8.46978C13.0315 8.53278 13.0325 8.59578 13.0325 8.66778Z" fill="white"/>
<path d="M48.0115 22.9178C47.8815 22.9488 47.5395 22.9468 47.4275 22.9158C47.3545 22.4658 47.2805 22.0098 47.2075 21.5588C47.1005 21.5368 46.1205 21.5328 45.9635 21.5528C45.8905 22.0048 45.8165 22.4598 45.7435 22.9108C45.6375 22.9498 45.2925 22.9508 45.1875 22.9168C45.1855 22.8188 46.2595 16.8288 46.3135 16.6378C46.4055 16.6048 46.7565 16.6008 46.8895 16.6348C47.2625 18.7218 47.6365 20.8158 48.0115 22.9178ZM46.5955 17.7488C46.5535 17.8878 46.0435 20.9318 46.0645 21.0158C46.1785 21.0218 46.2965 21.0178 46.4145 21.0188C46.5295 21.0198 46.6445 21.0208 46.7585 21.0188C46.8755 21.0168 46.9935 21.0278 47.1105 21.0108C47.1125 20.9808 47.1165 20.9638 47.1145 20.9468C46.9435 19.8908 46.7725 18.8348 46.5955 17.7488Z" fill="white"/>
<path d="M3.49512 8.8988C3.55612 8.9258 3.59412 8.9418 3.63212 8.9598C4.84612 9.5658 6.05512 10.1798 7.24612 10.8308C8.48612 11.5078 9.70012 12.2268 10.8651 13.0268C11.5811 13.5178 12.2741 14.0388 12.9421 14.5938C12.9791 14.6248 13.0251 14.6508 13.0491 14.7098C12.9701 14.7288 12.9001 14.7178 12.8301 14.7058C12.4911 14.6458 12.1781 14.5158 11.8771 14.3538C11.5841 14.1958 11.3141 14.0038 11.0681 13.7788C10.8781 13.6048 10.6601 13.4738 10.4301 13.3608C10.1741 13.2348 9.91612 13.1148 9.66112 12.9878C9.43212 12.8738 9.21812 12.7338 9.03212 12.5568C8.93812 12.4668 8.84412 12.4608 8.73112 12.5178C8.60612 12.5808 8.47712 12.6378 8.34612 12.6868C8.27612 12.7138 8.19812 12.7278 8.12312 12.7318C8.00812 12.7378 7.93512 12.6808 7.92112 12.5638C7.90812 12.4598 7.91912 12.3528 7.92212 12.2468C7.92412 12.2008 7.93512 12.1538 7.93812 12.1078C7.94712 11.9648 7.88712 11.8548 7.75912 11.7968C7.55212 11.7018 7.33712 11.6668 7.11812 11.7668C7.02012 11.8118 6.92212 11.8498 6.81212 11.8398C6.74412 11.8338 6.67812 11.8228 6.62012 11.7808C6.61812 11.7298 6.66412 11.7208 6.68812 11.6948C6.74412 11.6378 6.80912 11.5868 6.85612 11.5228C6.92712 11.4258 6.91512 11.3468 6.83612 11.2578C6.76312 11.1768 6.67112 11.1248 6.57612 11.0758C6.33012 10.9498 6.08112 10.8298 5.83812 10.6978C5.25212 10.3788 4.66712 10.0558 4.08412 9.7308C3.90012 9.6288 3.74112 9.49481 3.62912 9.31181C3.56812 9.21281 3.52712 9.1068 3.50112 8.9938C3.49612 8.9708 3.49812 8.9458 3.49512 8.8988Z" fill="white"/>
<path d="M61.4212 17.1488C61.0942 17.1488 60.7762 17.1488 60.4642 17.1488C60.4312 17.0458 60.4272 16.7798 60.4552 16.6358C60.7312 16.6188 61.0102 16.6308 61.2892 16.6288C61.5702 16.6268 61.8502 16.6288 62.1312 16.6288C62.4112 16.6288 62.6912 16.6288 62.9672 16.6288C63.0032 16.7288 63.0082 16.9948 62.9792 17.1358C62.8792 17.1648 62.7732 17.1458 62.6692 17.1488C62.5632 17.1518 62.4562 17.1498 62.3502 17.1498C62.2442 17.1498 62.1382 17.1498 62.0262 17.1498C62.0202 17.1858 62.0132 17.2128 62.0112 17.2418C62.0092 17.2798 62.0102 17.3178 62.0102 17.3568C62.0102 19.1558 62.0102 20.9538 62.0102 22.7528C62.0102 22.8078 62.0102 22.8618 62.0102 22.9128C61.9042 22.9488 61.5632 22.9518 61.4342 22.9188C61.4332 22.8688 61.4302 22.8148 61.4302 22.7608C61.4302 20.9498 61.4302 19.1378 61.4302 17.3268C61.4282 17.2698 61.4232 17.2158 61.4212 17.1488Z" fill="white"/>
<path d="M53.9634 22.4138C54.4494 22.4268 54.9244 22.4098 55.3954 22.4228C55.4234 22.5208 55.4284 22.7528 55.4084 22.9128C55.3674 22.9538 55.3134 22.9388 55.2644 22.9388C54.8094 22.9398 54.3544 22.9398 53.8994 22.9398C53.7674 22.9398 53.6354 22.9408 53.5034 22.9398C53.4624 22.9398 53.4214 22.9338 53.3834 22.9308C53.3584 22.8048 53.3604 16.7528 53.3824 16.6478C53.4794 16.6238 53.8144 16.6208 53.9494 16.6458C53.9524 16.6958 53.9584 16.7498 53.9584 16.8038C53.9594 17.6928 53.9584 18.5818 53.9584 19.4708C53.9584 20.3938 53.9584 21.3168 53.9584 22.2398C53.9594 22.2928 53.9614 22.3468 53.9634 22.4138Z" fill="white"/>
<path d="M13.0681 6.5828C13.0271 6.5648 12.9851 6.5478 12.9441 6.5268C12.0221 6.0688 11.1221 5.5708 10.2471 5.0268C9.79214 4.7438 9.34614 4.4478 8.89314 4.1608C8.76014 4.0768 8.62514 3.9958 8.48514 3.9238C8.24414 3.7988 7.98414 3.7378 7.71314 3.7198C7.68514 3.7178 7.65714 3.7128 7.61914 3.7088C7.64614 3.6418 7.69614 3.6068 7.74014 3.5718C7.83314 3.4978 7.92714 3.4238 8.02914 3.3648C8.16314 3.2878 8.30814 3.2908 8.44514 3.3618C8.52714 3.4048 8.61014 3.4538 8.67714 3.5168C9.14514 3.9468 9.68114 4.2738 10.2391 4.5668C10.6721 4.7938 11.1081 5.0148 11.5411 5.2428C11.9031 5.4338 12.2481 5.6508 12.5791 5.8908C12.7281 5.9988 12.8631 6.1208 12.9591 6.2818C12.9871 6.3288 13.0131 6.3778 13.0361 6.4278C13.0551 6.4698 13.0681 6.5148 13.0841 6.5588C13.0801 6.5668 13.0741 6.5748 13.0681 6.5828Z" fill="white"/>
<path d="M23.9652 15.6608C24.0042 15.6738 24.0442 15.6858 24.0832 15.7008C24.7112 15.9378 25.3402 16.1738 25.9672 16.4128C26.0342 16.4378 26.1002 16.4708 26.1582 16.5128C26.2542 16.5828 26.2812 16.6828 26.2452 16.7958C26.2052 16.9198 26.1312 17.0238 26.0352 17.1108C25.9502 17.1878 25.8842 17.1808 25.8032 17.0958C25.7912 17.0838 25.7802 17.0708 25.7712 17.0568C25.6852 16.9188 25.5572 16.8278 25.4192 16.7508C25.2452 16.6528 25.0702 16.5568 24.8942 16.4628C24.5852 16.2968 24.2992 16.0998 24.0682 15.8318C24.0272 15.7838 23.9892 15.7338 23.9502 15.6838C23.9552 15.6748 23.9602 15.6678 23.9652 15.6608Z" fill="white"/>
<path d="M4.68817 15.7718C4.54117 15.8368 4.41417 15.8788 4.27917 15.8928C4.11417 15.9098 4.02817 15.8618 3.97517 15.7048C3.91417 15.5238 3.86517 15.3388 3.81817 15.1548C3.78217 15.0148 3.75417 14.8738 3.72617 14.7318C3.71517 14.6788 3.69617 14.6238 3.75117 14.5788C3.81017 14.5308 3.87317 14.5008 3.95017 14.5228C3.97817 14.5308 4.00617 14.5428 4.03317 14.5558C4.13917 14.6058 4.22417 14.6808 4.28917 14.7788C4.35117 14.8718 4.37117 14.9718 4.34717 15.0818C4.32817 15.1688 4.31317 15.2568 4.30517 15.3458C4.29217 15.5018 4.36217 15.6158 4.50217 15.6868C4.55417 15.7138 4.60917 15.7358 4.68817 15.7718Z" fill="white"/>
<path d="M11.356 2.34782C11.256 2.36282 11.183 2.34082 11.11 2.32182C10.977 2.28682 10.857 2.22482 10.742 2.15182C10.563 2.03782 10.388 1.91982 10.189 1.84082C10.07 1.79382 10.04 1.70582 10.098 1.59382C10.128 1.53582 10.173 1.47982 10.224 1.43882C10.3 1.37782 10.39 1.37582 10.473 1.43082C10.639 1.54182 10.805 1.65182 10.965 1.76982C11.106 1.87382 11.223 2.00382 11.294 2.16682C11.316 2.21982 11.331 2.27682 11.356 2.34782Z" fill="white"/>
<path d="M9.81087 3.25781C9.68687 3.24681 9.58787 3.23181 9.49887 3.17881C9.37887 3.10681 9.25787 3.03581 9.13987 2.95981C9.06887 2.91381 8.99787 2.86581 8.93387 2.81081C8.81187 2.70681 8.75087 2.56781 8.73587 2.40981C8.72587 2.29481 8.86187 2.19281 8.96787 2.23581C9.14787 2.30881 9.30487 2.41582 9.43587 2.55982C9.61387 2.75582 9.72687 2.98581 9.81087 3.25781Z" fill="white"/>
<path d="M12.381 17.9388C12.187 18.0518 12.021 18.1518 11.831 18.2018C11.725 18.2298 11.638 18.1978 11.572 18.1118C11.541 18.0718 11.512 18.0288 11.493 17.9818C11.425 17.8178 11.36 17.6518 11.295 17.4858C11.291 17.4748 11.293 17.4618 11.292 17.4388C11.424 17.4738 11.535 17.5428 11.652 17.5948C11.768 17.6458 11.882 17.7028 11.997 17.7578C12.115 17.8128 12.234 17.8688 12.381 17.9388Z" fill="white"/>
<path d="M14.3314 3.91379C14.2884 3.88079 14.2444 3.84978 14.2024 3.81478C14.0844 3.71778 13.9684 3.61779 13.8494 3.52179C13.6194 3.33879 13.3684 3.20279 13.0714 3.16679C13.0084 3.15879 12.9454 3.15578 12.8574 3.14878C12.9014 3.12878 12.9244 3.11579 12.9494 3.10779C13.1254 3.05579 13.3034 3.01979 13.4884 3.02879C13.8014 3.04379 14.0394 3.18279 14.1964 3.45479C14.2754 3.59179 14.3264 3.73779 14.3544 3.89279C14.3474 3.90079 14.3394 3.90779 14.3314 3.91379Z" fill="white"/>
<path d="M9.95348 8.3158C9.86248 8.3578 9.76648 8.37179 9.67148 8.38479C9.59648 8.39579 9.51848 8.39479 9.44248 8.39479C9.27348 8.39279 9.15348 8.30879 9.07148 8.16479C8.99748 8.03379 8.95849 7.88979 8.92949 7.74379C8.91749 7.68279 8.90948 7.62079 8.89648 7.53979C8.94148 7.56179 8.96948 7.5688 8.98948 7.5868C9.09348 7.6748 9.19848 7.76079 9.29548 7.85579C9.48248 8.03879 9.67748 8.20679 9.93148 8.29179C9.93848 8.29179 9.94248 8.3008 9.95348 8.3158Z" fill="white"/>
</svg>
