<svg width="77" height="17" viewBox="0 0 77 17" fill="none" xmlns="http://www.w3.org/2000/svg">
<path d="M2.4093 9.34106H0.737305V11.0131H2.4093V9.34106Z" fill="white"/>
<path d="M5.7563 4.9491H0.737305V6.62109H5.7563V4.9491Z" fill="white"/>
<path d="M5.75534 0.558106H0.736328V2.23209H5.75833C7.72233 2.27309 9.28034 3.89708 9.24034 5.86108C9.20134 7.76708 7.66533 9.30308 5.75833 9.34308H4.08434V11.0171H5.75833C8.64633 11.0161 10.9873 8.6741 10.9863 5.7861C10.9853 2.8981 8.64334 0.557106 5.75534 0.558106Z" fill="white"/>
<path d="M20.4469 0.978056V2.15307C20.2629 2.08907 20.0689 2.06106 19.8749 2.06906C19.4179 2.06906 18.8099 2.27905 18.8099 3.20105V4.27707H23.2559V11.0011H21.9549V5.46506H18.8099V11.0011H17.4559V5.46506H16.2109V4.27707H17.4559V3.14505C17.4559 1.64905 18.4479 0.840055 19.6659 0.840055C19.9329 0.824055 20.2009 0.871056 20.4469 0.978056ZM22.5999 0.754057C23.1219 0.750057 23.5479 1.16907 23.5529 1.69107C23.5579 2.21307 23.1379 2.63907 22.6159 2.64407C22.0939 2.64807 21.6679 2.22906 21.6629 1.70706V1.70605C21.6579 1.18605 22.0759 0.760064 22.5959 0.755064L22.5999 0.754057Z" fill="white"/>
<path d="M24.8203 7.5201V7.58511V11.0121H26.1473V7.58511C26.1473 6.48611 27.0383 5.59512 28.1373 5.59512C29.2363 5.59512 30.1273 6.48611 30.1273 7.58511V11.0121H31.4543V7.58511C31.4373 5.75311 29.9393 4.28112 28.1073 4.29812C26.3243 4.31412 24.8733 5.73713 24.8213 7.51913L24.8203 7.5201Z" fill="white"/>
<path d="M47.4535 7.76007V7.69507V4.26807H46.1266V7.69507C46.0966 8.79507 45.1805 9.66107 44.0805 9.63107C43.0235 9.60207 42.1735 8.75207 42.1445 7.69507V4.26807H40.8175V7.69507C40.7995 9.52707 42.2696 11.0271 44.1026 11.0451C45.9346 11.0631 47.4345 9.59307 47.4525 7.76007H47.4535Z" fill="white"/>
<path d="M38.062 9.98209C37.741 10.6241 37.027 11.1841 35.979 11.1841C34.001 11.1841 32.793 9.61808 32.793 7.61908C32.793 5.71808 34.079 4.0961 35.979 4.0961C37.167 4.0961 37.805 4.68309 38.033 5.22809V0.881104H39.334V9.75909C39.333 10.1741 39.356 10.5901 39.404 11.0021H38.135C38.086 10.7001 38.063 10.3951 38.065 10.0891L38.062 9.98209ZM36.105 10.0231C37.307 10.0231 38.048 8.9751 38.048 7.5881C38.048 6.2011 37.321 5.25211 36.118 5.25211C34.916 5.25211 34.132 6.2351 34.132 7.6181C34.133 9.0021 34.847 10.0231 36.105 10.0231Z" fill="white"/>
<path d="M50.1281 7.63214C50.1281 9.17014 51.0931 9.99515 52.1821 9.99515C53.4401 9.99515 53.9021 9.14114 54.0551 8.61014L55.2161 9.11417C54.8951 10.0792 53.9301 11.2092 52.1821 11.2092C50.2251 11.2092 48.7871 9.67216 48.7871 7.63116C48.7871 5.53416 50.2551 4.06714 52.1701 4.06714C53.9601 4.06714 54.8831 5.18514 55.1621 6.19714L53.9741 6.70114C53.8071 6.04414 53.3181 5.27515 52.1711 5.27515C51.1061 5.28415 50.1281 6.06614 50.1281 7.63214Z" fill="white"/>
<path d="M58.515 4.2771H59.97V5.46509H58.515V8.96509C58.515 9.57409 58.768 9.88708 59.452 9.88708C59.626 9.88608 59.799 9.86709 59.969 9.83109V10.9491C59.679 11.0381 59.3771 11.0811 59.0741 11.0751C57.9281 11.0751 57.201 10.3771 57.201 9.15909V5.46408H55.915V4.27609H56.2791C57.0051 4.27609 57.312 3.8291 57.312 3.2431V2.1521H58.5141L58.515 4.2771Z" fill="white"/>
<path d="M61.7446 0.783109C62.2656 0.779109 62.6916 1.19811 62.6956 1.71911C62.6996 2.24011 62.2806 2.66613 61.7596 2.67013C61.2386 2.67413 60.8126 2.25513 60.8086 1.73413V1.73312C60.8036 1.21412 61.2206 0.789109 61.7396 0.783109C61.7416 0.783109 61.7446 0.783109 61.7446 0.783109ZM61.1016 11.0011V4.27713H62.4016V11.0011H61.1016Z" fill="white"/>
<path d="M67.5041 11.0011H66.1801L63.4531 4.2771H64.9351L66.8511 9.46408L68.7791 4.2771H70.1911L67.5041 11.0011Z" fill="white"/>
<path d="M76.6872 9.0871C76.3082 10.2741 75.2322 11.2171 73.6662 11.2171C71.8632 11.2171 70.2832 9.90208 70.2832 7.62408C70.2832 5.51308 71.8052 4.0741 73.4982 4.0741C75.5682 4.0741 76.7272 5.50008 76.7272 7.59708C76.7282 7.73708 76.7182 7.87711 76.7002 8.01511H71.6392C71.6662 9.21711 72.5342 10.0561 73.6662 10.0561C74.7572 10.0561 75.3022 9.4471 75.5532 8.7001L76.6872 9.0871ZM75.3592 6.9491C75.3302 5.9841 74.7022 5.2291 73.5132 5.2291C72.5412 5.2181 71.7342 5.9781 71.6872 6.9491H75.3592Z" fill="white"/>
<path d="M1.93037 13.5031C2.63337 13.5371 3.17639 14.1361 3.14139 14.8391C3.10939 15.4941 2.58537 16.018 1.93037 16.05C1.22737 16.016 0.684375 15.4171 0.719375 14.7141C0.750375 14.0591 1.27437 13.5351 1.93037 13.5031ZM1.93037 15.7401C2.38737 15.7401 2.81139 15.4131 2.81139 14.7751C2.81139 14.1371 2.38537 13.813 1.93037 13.813C1.47537 13.813 1.04738 14.1371 1.04738 14.7751C1.04738 15.4131 1.47337 15.7401 1.93037 15.7401Z" fill="white"/>
<path d="M4.36417 16.0501C3.97717 16.0501 3.74316 15.7611 3.74316 15.3851V14.3401H4.06717V15.3371C4.06717 15.5651 4.17016 15.7651 4.44316 15.7651C4.71616 15.7651 4.83617 15.5931 4.83617 15.3401V14.3401H5.16017V15.6911C5.16017 15.7931 5.16616 15.8941 5.17816 15.9951H4.87416C4.86516 15.9291 4.86017 15.8621 4.86017 15.7961C4.75517 15.9661 4.56417 16.0641 4.36417 16.0501Z" fill="white"/>
<path d="M6.80775 14.667C6.76075 14.661 6.71374 14.658 6.66574 14.658C6.39374 14.658 6.20874 14.81 6.20874 15.168V15.999H5.88574V14.34H6.20274V14.631C6.28674 14.432 6.48474 14.306 6.70074 14.313C6.73674 14.314 6.77175 14.317 6.80775 14.324V14.667Z" fill="white"/>
<path d="M9.95996 13.5551H10.315L9.37596 15.9991H9.03995L8.12695 13.5551H8.48495L9.22296 15.5651L9.95996 13.5551Z" fill="white"/>
<path d="M10.9566 13.478C11.0856 13.477 11.1896 13.5811 11.1906 13.7091C11.1916 13.8381 11.0876 13.942 10.9596 13.943C10.8306 13.944 10.7266 13.84 10.7256 13.712C10.7246 13.584 10.8286 13.479 10.9566 13.478ZM10.8046 15.998V14.339H11.1256V15.998H10.8046Z" fill="white"/>
<path d="M11.9806 15.4701C12.0066 15.6591 12.1776 15.7931 12.3676 15.7741C12.5506 15.7741 12.6506 15.6711 12.6506 15.5531C12.6506 15.4351 12.5746 15.3701 12.4356 15.3381L12.1536 15.2761C11.9216 15.2481 11.7446 15.0531 11.7396 14.8191C11.7606 14.5131 12.0226 14.2801 12.3286 14.2941C12.6206 14.2641 12.8906 14.4551 12.9606 14.7401L12.6746 14.8471C12.6506 14.6781 12.4986 14.5581 12.3296 14.5721C12.1956 14.5571 12.0726 14.6511 12.0546 14.7851C12.0546 14.8841 12.1166 14.9571 12.2436 14.9841L12.5126 15.0421C12.8166 15.1071 12.9696 15.2921 12.9696 15.5351C12.9696 15.7781 12.7736 16.0491 12.3606 16.0491C11.9036 16.0491 11.7126 15.7551 11.6846 15.5671L11.9806 15.4701Z" fill="white"/>
<path d="M13.733 13.478C13.862 13.477 13.966 13.5811 13.967 13.7091C13.968 13.8381 13.864 13.942 13.736 13.943C13.607 13.944 13.503 13.84 13.502 13.712C13.501 13.584 13.605 13.479 13.733 13.478ZM13.581 15.998V14.339H13.894V15.998H13.581Z" fill="white"/>
<path d="M16.1771 15.1661C16.1591 15.6341 15.7661 15.9991 15.2981 15.9811C14.8301 15.9631 14.4651 15.5701 14.4831 15.1021C14.5001 14.6471 14.8741 14.2871 15.3291 14.2861C15.7911 14.2801 16.1711 14.6491 16.1781 15.1111C16.1791 15.1301 16.1781 15.1481 16.1771 15.1661ZM15.8471 15.1661C15.8471 14.7841 15.6051 14.5771 15.3301 14.5771C15.0551 14.5771 14.8131 14.7841 14.8131 15.1661C14.8131 15.5481 15.0551 15.7591 15.3301 15.7591C15.6051 15.7591 15.8471 15.5541 15.8471 15.1661Z" fill="white"/>
<path d="M17.0896 15.9981H16.7666V14.3391H17.0836V14.5781C17.1876 14.3961 17.3836 14.2851 17.5936 14.2921C17.9906 14.2921 18.1866 14.5781 18.1866 14.9461V15.9971H17.8626V15.0001C17.8626 14.7691 17.7656 14.5831 17.4756 14.5831C17.2216 14.5831 17.0886 14.7871 17.0886 15.0401V15.9981H17.0896Z" fill="white"/>
<path d="M21.47 15.1661C21.453 15.6351 21.06 16.0011 20.591 15.9841C20.122 15.9671 19.756 15.5741 19.773 15.1051C19.789 14.6481 20.164 14.2871 20.621 14.2861C21.083 14.2791 21.464 14.6471 21.471 15.1101C21.471 15.1291 21.471 15.1471 21.47 15.1661ZM21.138 15.1661C21.138 14.7841 20.898 14.5771 20.621 14.5771C20.344 14.5771 20.104 14.7841 20.104 15.1661C20.104 15.5481 20.346 15.7591 20.621 15.7591C20.896 15.7591 21.138 15.5541 21.138 15.1661Z" fill="white"/>
<path d="M22.4915 14.6331V16.0031H22.1585V14.6331H21.8545V14.3391H22.1585V14.0611C22.1335 13.7721 22.3485 13.5181 22.6375 13.4931C22.6595 13.4911 22.6805 13.4911 22.7025 13.4921C22.7685 13.4881 22.8355 13.5001 22.8955 13.5271V13.8161C22.8505 13.7991 22.8025 13.7921 22.7535 13.7951C22.6155 13.7871 22.4975 13.8921 22.4895 14.0301C22.4885 14.0461 22.4895 14.0621 22.4915 14.0781V14.3401H22.8915V14.6341H22.4915V14.6331Z" fill="white"/>
<path d="M26.7884 15.9981V14.1001L25.9624 15.9981H25.6584L24.8174 14.1001V16.0041H24.4824V13.5541H24.9394L25.8114 15.5431L26.6804 13.5541H27.1364V15.9981H26.7884Z" fill="white"/>
<path d="M29.4407 15.1661C29.4227 15.6341 29.0297 15.9991 28.5617 15.9811C28.0937 15.9631 27.7287 15.5701 27.7467 15.1021C27.7637 14.6471 28.1377 14.2871 28.5927 14.2861C29.0547 14.2801 29.4347 14.6491 29.4417 15.1111C29.4427 15.1301 29.4417 15.1481 29.4407 15.1661ZM29.1107 15.1661C29.1107 14.7841 28.8687 14.5771 28.5937 14.5771C28.3187 14.5771 28.0767 14.7841 28.0767 15.1661C28.0767 15.5481 28.3187 15.7591 28.5937 15.7591C28.8687 15.7591 29.1107 15.5541 29.1107 15.1661Z" fill="white"/>
<path d="M31.1906 15.7471C31.0906 15.9361 30.8906 16.0511 30.6766 16.0421C30.1916 16.0421 29.8916 15.6571 29.8916 15.1641C29.8916 14.6951 30.2086 14.2951 30.6766 14.2951C30.8866 14.2741 31.0886 14.3851 31.1836 14.5731V13.5081H31.5046V15.6901C31.5046 15.7921 31.5106 15.893 31.5216 15.994H31.2086C31.1966 15.92 31.1916 15.8451 31.1916 15.7701L31.1906 15.7471ZM30.7086 15.7561C31.0036 15.7561 31.1866 15.4971 31.1866 15.1561C31.1866 14.8151 31.0086 14.5811 30.7116 14.5811C30.4146 14.5811 30.2236 14.8211 30.2236 15.1651C30.2236 15.5091 30.3976 15.7561 30.7086 15.7561Z" fill="white"/>
<path d="M33.6741 15.5271C33.5691 15.8471 33.2651 16.0611 32.9281 16.0501C32.4401 16.0231 32.0681 15.6051 32.0951 15.1181C32.1191 14.6851 32.4551 14.3331 32.8871 14.2881C33.3981 14.2881 33.6831 14.6401 33.6831 15.1571C33.6851 15.1911 33.6851 15.2261 33.6831 15.2601H32.4351C32.4281 15.5311 32.6431 15.7571 32.9141 15.7641C32.9211 15.7641 32.9271 15.7641 32.9341 15.7641C33.1491 15.7761 33.3431 15.6371 33.4001 15.4291L33.6741 15.5271ZM33.3471 14.9991C33.3501 14.7671 33.1651 14.5761 32.9331 14.5731C32.9191 14.5731 32.9041 14.5731 32.8901 14.5751C32.6481 14.5691 32.4451 14.7571 32.4331 15.0001H33.3471V14.9991Z" fill="white"/>
<path d="M35.1915 14.667C35.1445 14.661 35.0975 14.658 35.0495 14.658C34.7775 14.658 34.5925 14.81 34.5925 15.168V15.999H34.2695V14.34H34.5875V14.6311C34.6715 14.4301 34.8735 14.302 35.0915 14.313C35.1275 14.313 35.1625 14.3171 35.1985 14.3241L35.1915 14.667Z" fill="white"/>
<path d="M36.034 15.9981H35.71V14.3391H36.0269V14.5781C36.1309 14.3961 36.327 14.2861 36.537 14.2921C36.934 14.2921 37.13 14.5781 37.13 14.9461V15.9971H36.806V15.0001C36.806 14.7691 36.71 14.5831 36.419 14.5831C36.165 14.5831 36.034 14.7871 36.034 15.0401V15.9981Z" fill="white"/>
<path d="M39.6865 13.5551C40.1525 13.5551 40.4245 13.8301 40.4245 14.2171C40.4305 14.4531 40.2825 14.6671 40.0595 14.7431C40.3265 14.8131 40.5095 15.0581 40.5005 15.3331C40.5005 15.7181 40.1965 15.9981 39.7395 15.9981H38.8965V13.5541H39.6865V13.5551ZM39.6485 14.6201C39.8615 14.6461 40.0545 14.4951 40.0805 14.2821C40.0825 14.2651 40.0835 14.2481 40.0835 14.2301C40.0835 13.9991 39.9135 13.8481 39.6275 13.8481H39.2215V14.6191H39.6485V14.6201ZM39.6975 15.6991C39.9695 15.6991 40.1545 15.5471 40.1545 15.3091C40.1545 15.0711 40.0025 14.9091 39.7105 14.9091H39.2285V15.6991H39.6975Z" fill="white"/>
<path d="M41.4698 15.0501L41.9188 14.9851C42.0178 14.9711 42.0448 14.9201 42.0448 14.8601C42.0448 14.6991 41.9378 14.5651 41.6868 14.5651C41.4938 14.5511 41.3258 14.6951 41.3118 14.8881C41.3118 14.8911 41.3118 14.8951 41.3108 14.8981L41.0068 14.8261C41.0588 14.4971 41.3538 14.2631 41.6858 14.2871C42.1818 14.2871 42.3748 14.5701 42.3748 14.8961V15.7271C42.3738 15.8181 42.3808 15.9091 42.3958 15.9991H42.0778C42.0658 15.9251 42.0598 15.8501 42.0608 15.7751C41.9438 15.9541 41.7408 16.0591 41.5268 16.0501C41.2418 16.0711 40.9938 15.8571 40.9728 15.5721C40.9728 15.5661 40.9718 15.5601 40.9718 15.5531C40.9668 15.2571 41.1798 15.0911 41.4698 15.0501ZM42.0448 15.2881V15.2121L41.5378 15.2881C41.4038 15.2921 41.2978 15.4021 41.2978 15.5361C41.3028 15.6751 41.4188 15.7831 41.5568 15.7781C41.5598 15.7781 41.5628 15.7781 41.5648 15.7781C41.8318 15.7751 42.0448 15.6501 42.0448 15.2881Z" fill="white"/>
<path d="M43.3709 15.9981H43.0469V14.3391H43.3639V14.5781C43.4689 14.3961 43.6649 14.2861 43.8749 14.2921C44.2709 14.2921 44.4669 14.5781 44.4669 14.9461V15.9971H44.1439V15.0001C44.1439 14.7691 44.0469 14.5831 43.7569 14.5831C43.5009 14.5831 43.3699 14.7871 43.3699 15.0401L43.3709 15.9981Z" fill="white"/>
<path d="M45.9352 15.0402L46.6562 15.9991H46.2502L45.7082 15.2692L45.4772 15.4991V16.0002H45.1562V13.5042H45.4772V15.0761L46.2002 14.3412H46.6572L45.9352 15.0402Z" fill="white"/>
<path d="M47.2994 13.478C47.4284 13.477 47.5324 13.5811 47.5334 13.7091C47.5344 13.8381 47.4304 13.942 47.3024 13.943C47.1734 13.944 47.0694 13.84 47.0684 13.712C47.0674 13.584 47.1704 13.479 47.2994 13.478ZM47.1474 15.998V14.339H47.4684V15.998H47.1474Z" fill="white"/>
<path d="M48.5107 15.9981H48.1787V14.3391H48.4967V14.5781C48.6007 14.3961 48.7967 14.2851 49.0067 14.2921C49.4037 14.2921 49.5997 14.5781 49.5997 14.9461V15.9971H49.2757V15.0001C49.2757 14.7691 49.1797 14.5831 48.8887 14.5831C48.6347 14.5831 48.5037 14.7871 48.5037 15.0401L48.5107 15.9981Z" fill="white"/>
<path d="M50.4905 16.0151C50.5085 16.2521 50.7095 16.4321 50.9475 16.4231C51.2945 16.4231 51.4545 16.2431 51.4545 15.8841V15.6471C51.3505 15.8261 51.1545 15.9311 50.9475 15.9191C50.5025 15.8921 50.1645 15.5091 50.1925 15.0651C50.2175 14.6591 50.5415 14.3351 50.9475 14.3101C51.1545 14.2881 51.3545 14.3911 51.4575 14.5721V14.3411H51.7785V15.8751C51.7785 16.2971 51.5715 16.7061 50.9475 16.7061C50.5755 16.7291 50.2465 16.4661 50.1865 16.0971L50.4905 16.0151ZM51.4625 15.1161C51.4625 14.7951 51.2695 14.5851 50.9895 14.5851C50.7095 14.5851 50.5105 14.7951 50.5105 15.1161C50.5105 15.4371 50.6975 15.6471 50.9895 15.6471C51.2815 15.6471 51.4625 15.4371 51.4625 15.1161Z" fill="white"/>
<path d="M53.8975 15.0501L54.3465 14.9851C54.4465 14.9711 54.4745 14.9201 54.4745 14.8601C54.4745 14.6991 54.3665 14.5651 54.1155 14.5651C53.9215 14.5511 53.7535 14.6971 53.7405 14.8911C53.7405 14.8931 53.7405 14.8961 53.7405 14.8981L53.4365 14.8261C53.4885 14.4971 53.7835 14.2631 54.1155 14.2871C54.6135 14.2871 54.8065 14.5701 54.8065 14.8961V15.7271C54.8055 15.8181 54.8125 15.9091 54.8265 15.9991H54.5095C54.4955 15.9251 54.4895 15.8501 54.4915 15.7751C54.3745 15.9541 54.1715 16.0591 53.9575 16.0501C53.6735 16.0711 53.4255 15.8581 53.4045 15.5741C53.4045 15.5671 53.4035 15.5611 53.4035 15.5541C53.3955 15.2571 53.6115 15.0911 53.8975 15.0501ZM54.4745 15.2881V15.2121L53.9675 15.2881C53.8325 15.2911 53.7255 15.4011 53.7255 15.5361C53.7305 15.6751 53.8465 15.7831 53.9845 15.7781C53.9875 15.7781 53.9915 15.7781 53.9945 15.7771C54.2655 15.7751 54.4745 15.6501 54.4745 15.2881Z" fill="white"/>
<path d="M55.7986 15.9981H55.4746V14.3391H55.7876V14.5781C55.8916 14.3961 56.0876 14.2851 56.2976 14.2921C56.6946 14.2921 56.8906 14.5781 56.8906 14.9461V15.9971H56.5666V15.0001C56.5666 14.7691 56.4696 14.5831 56.1796 14.5831C55.9236 14.5831 55.7926 14.7871 55.7926 15.0401L55.7986 15.9981Z" fill="white"/>
<path d="M58.7472 15.7471C58.6472 15.9361 58.4472 16.0511 58.2332 16.0421C57.7482 16.0421 57.4482 15.6571 57.4482 15.1641C57.4482 14.6951 57.7652 14.2951 58.2332 14.2951C58.4442 14.2741 58.6462 14.3851 58.7412 14.5731V13.5081H59.0612V15.6901C59.0602 15.7921 59.0662 15.893 59.0792 15.994H58.7643C58.7533 15.92 58.7472 15.8451 58.7472 15.7701V15.7471ZM58.2643 15.7561C58.5683 15.7561 58.7432 15.4971 58.7432 15.1561C58.7432 14.8151 58.5632 14.5811 58.2672 14.5811C57.9712 14.5811 57.7772 14.8211 57.7772 15.1641C57.7772 15.5071 57.9543 15.7561 58.2643 15.7561Z" fill="white"/>
<path d="M61.1935 14.9991V15.9991H60.8545V13.5551H61.7445C62.1435 13.5371 62.4815 13.8451 62.4995 14.2441C62.5175 14.6431 62.2095 14.9811 61.8105 14.9991C61.7885 15.0001 61.7665 15.0001 61.7445 14.9991H61.1935ZM61.6825 14.6941C61.9765 14.6941 62.1555 14.5311 62.1555 14.2801C62.1555 14.0291 61.9755 13.8551 61.6825 13.8551H61.1945V14.6931H61.6825V14.6941Z" fill="white"/>
<path d="M63.3487 15.0501L63.7977 14.9851C63.8977 14.9711 63.9257 14.9201 63.9257 14.8601C63.9257 14.6991 63.8187 14.5651 63.5667 14.5651C63.3727 14.5511 63.2047 14.6971 63.1917 14.8911C63.1917 14.8931 63.1917 14.8961 63.1917 14.8981L62.8876 14.8261C62.9396 14.4971 63.2357 14.2631 63.5677 14.2871C64.0637 14.2871 64.2567 14.5701 64.2567 14.8961V15.7271C64.2557 15.8181 64.2627 15.9091 64.2767 15.9991H63.9597C63.9467 15.9251 63.9417 15.8501 63.9427 15.7751C63.8257 15.9551 63.6217 16.0601 63.4067 16.0501C63.1227 16.0711 62.8747 15.8581 62.8537 15.5741C62.8527 15.5671 62.8527 15.5611 62.8527 15.5541C62.8467 15.2571 63.0627 15.0911 63.3487 15.0501ZM63.9257 15.2881V15.2121L63.4187 15.2881C63.2837 15.2911 63.1767 15.4011 63.1767 15.5361C63.1817 15.6751 63.2977 15.7831 63.4357 15.7781C63.4387 15.7781 63.4427 15.7781 63.4457 15.7771C63.7107 15.7751 63.9257 15.6501 63.9257 15.2881Z" fill="white"/>
<path d="M64.9494 16.6881L65.3634 15.8131L64.6494 14.3372H65.0224L65.5394 15.4811L66.0354 14.3372H66.3834L65.3044 16.6881H64.9494Z" fill="white"/>
<path d="M66.8682 15.998V14.339H67.1722V14.557C67.2802 14.384 67.4712 14.282 67.6742 14.289C67.8892 14.28 68.0872 14.405 68.1722 14.602C68.2802 14.399 68.4962 14.276 68.7262 14.289C69.0172 14.289 69.2982 14.485 69.2982 14.919V15.995H68.9782V14.957C69.0042 14.775 68.8772 14.606 68.6942 14.581C68.6722 14.578 68.6492 14.577 68.6262 14.578C68.4132 14.579 68.2402 14.753 68.2412 14.966C68.2412 14.976 68.2412 14.985 68.2422 14.995V15.998H67.9182V14.957C67.9442 14.775 67.8172 14.606 67.6342 14.581C67.6122 14.578 67.5892 14.577 67.5662 14.578C67.3532 14.576 67.1802 14.747 67.1782 14.96C67.1782 14.973 67.1782 14.985 67.1802 14.998V15.998H66.8682Z" fill="white"/>
<path d="M71.4417 15.5271C71.3397 15.8491 71.0347 16.0631 70.6977 16.0501C70.2097 16.0231 69.8377 15.6051 69.8647 15.1181C69.8887 14.6851 70.2247 14.3331 70.6567 14.2881C71.1667 14.2881 71.4527 14.6401 71.4527 15.1571C71.4537 15.1921 71.4507 15.2261 71.4447 15.2601H70.1967C70.1907 15.5321 70.4067 15.7581 70.6787 15.7641C70.6857 15.7641 70.6927 15.7641 70.7007 15.7641C70.9157 15.7761 71.1097 15.6371 71.1667 15.4291L71.4417 15.5271ZM71.1137 14.9991C71.1167 14.7671 70.9317 14.5761 70.6997 14.5731C70.6857 14.5731 70.6707 14.5731 70.6567 14.5751C70.4147 14.5701 70.2127 14.7581 70.2007 15.0001H71.1137V14.9991Z" fill="white"/>
<path d="M72.3631 15.9981H72.0391V14.3391H72.3561V14.5781C72.4601 14.3961 72.6561 14.2851 72.8661 14.2921C73.2631 14.2921 73.4591 14.5781 73.4591 14.9461V15.9971H73.1351V15.0001C73.1351 14.7691 73.0391 14.5831 72.7481 14.5831C72.4941 14.5831 72.3631 14.7871 72.3631 15.0401V15.9981Z" fill="white"/>
<path d="M74.5843 14.3401H74.9423V14.6342H74.5843V15.4951C74.5843 15.6471 74.6453 15.7231 74.8143 15.7231C74.8573 15.7221 74.9003 15.7182 74.9423 15.7092V15.9842C74.8713 16.0062 74.7963 16.0162 74.7213 16.0142C74.4853 16.0302 74.2803 15.8521 74.2633 15.6161C74.2613 15.5921 74.2623 15.5672 74.2643 15.5432V14.6302H73.9463V14.3391H74.0363C74.1633 14.3531 74.2773 14.2622 74.2923 14.1352C74.2943 14.1182 74.2943 14.1021 74.2923 14.0851V13.8162H74.5893L74.5843 14.3401Z" fill="white"/>
<path d="M75.7013 15.4701C75.7263 15.6591 75.8983 15.794 76.0883 15.774C76.2713 15.774 76.3703 15.6711 76.3703 15.5531C76.3703 15.4351 76.2953 15.3701 76.1573 15.3381L75.8743 15.2761C75.6423 15.2481 75.4653 15.0531 75.4603 14.8191C75.4823 14.5131 75.7443 14.2801 76.0503 14.2941C76.5073 14.2941 76.6473 14.598 76.6803 14.74L76.3943 14.847C76.3713 14.678 76.2203 14.557 76.0503 14.572C75.9133 14.557 75.7903 14.656 75.7753 14.793C75.7753 14.892 75.8363 14.9651 75.9643 14.9921L76.2333 15.05C76.5373 15.115 76.6903 15.3 76.6903 15.543C76.6903 15.786 76.4943 16.0571 76.0813 16.0571C75.6243 16.0571 75.4333 15.7631 75.4053 15.5751L75.7013 15.4701Z" fill="white"/>
</svg>
