<svg width="66" height="21" viewBox="0 0 66 21" fill="none" xmlns="http://www.w3.org/2000/svg">
<path d="M22.9019 20.79C22.2209 20.791 21.5409 20.791 20.8599 20.79C20.8029 20.79 20.7429 20.801 20.6879 20.758C20.6879 20.722 20.6819 20.681 20.6889 20.643C20.7539 20.265 20.8199 19.887 20.8859 19.508C21.0789 18.408 21.2719 17.308 21.4659 16.209C21.6099 15.39 21.7549 14.571 21.8989 13.752C22.0799 12.721 22.2609 11.69 22.4429 10.659C22.6119 9.70197 22.7809 8.74598 22.9499 7.78998C23.1189 6.82798 23.2869 5.86499 23.4559 4.90299C23.5619 4.30099 23.6669 3.69997 23.7739 3.09897C23.7839 3.04197 23.7999 2.98697 23.8119 2.93897C23.8849 2.88897 23.9569 2.90396 24.0259 2.90396C24.5789 2.90296 25.1309 2.90299 25.6839 2.90299C25.8879 2.90299 26.0909 2.90299 26.2949 2.90299C26.3409 2.90299 26.3879 2.90497 26.4339 2.90897C26.4729 2.91297 26.4979 2.93697 26.5069 2.97397C26.5139 3.00197 26.5159 3.03097 26.5189 3.05997C26.5309 3.21097 26.5429 3.36097 26.5529 3.51197C26.5919 4.06297 26.6299 4.61398 26.6699 5.16498C26.7159 5.80298 26.7639 6.44098 26.8109 7.07898C26.8569 7.70498 26.9029 8.33198 26.9499 8.95798C26.9909 9.49698 27.0349 10.036 27.0749 10.576C27.1039 10.959 27.1289 11.342 27.1549 11.725C27.1569 11.758 27.1549 11.793 27.1799 11.825C27.2399 11.795 27.2469 11.74 27.2669 11.695C27.4149 11.353 27.5609 11.011 27.7079 10.669C28.5669 8.66398 29.4259 6.65896 30.2859 4.65396C30.5079 4.13496 30.7309 3.61696 30.9529 3.09796C30.9599 3.08196 30.9679 3.06596 30.9729 3.04996C31.0039 2.93696 31.0769 2.90098 31.1939 2.90198C31.9789 2.90598 32.7649 2.90397 33.5499 2.90497C33.5959 2.90497 33.6409 2.91296 33.6799 2.91696C33.7299 2.97096 33.7109 3.02297 33.7029 3.07297C33.6449 3.40497 33.5849 3.73698 33.5269 4.06998C33.3209 5.23798 33.1149 6.40698 32.9089 7.57498C32.7179 8.65698 32.5249 9.73996 32.3339 10.822C32.1419 11.91 31.9509 12.999 31.7599 14.087C31.6039 14.969 31.4479 15.851 31.2919 16.733C31.1349 17.621 30.9789 18.509 30.8219 19.396C30.7499 19.803 30.6799 20.21 30.6069 20.616C30.5979 20.667 30.5809 20.716 30.5709 20.754C30.5069 20.8 30.4469 20.793 30.3899 20.793C29.7029 20.794 29.0169 20.794 28.3299 20.793C28.2729 20.793 28.2129 20.805 28.1569 20.755C28.1439 20.696 28.1649 20.634 28.1769 20.573C28.2589 20.151 28.3439 19.729 28.4279 19.306C28.7489 17.686 29.0699 16.065 29.3909 14.445C29.6399 13.19 29.8889 11.935 30.1379 10.68C30.1859 10.44 30.2329 10.201 30.2789 9.96097C30.2849 9.92897 30.2859 9.89596 30.2919 9.84296C30.2269 9.89796 30.2169 9.95798 30.1949 10.01C29.8589 10.822 29.5249 11.634 29.1899 12.446C28.6849 13.672 28.1789 14.899 27.6739 16.125C27.5969 16.312 27.5959 16.313 27.3949 16.313C26.7379 16.314 26.0799 16.314 25.4229 16.313C25.3599 16.313 25.2939 16.326 25.2379 16.285C25.1999 16.233 25.2069 16.173 25.2029 16.116C25.1689 15.565 25.1359 15.013 25.1029 14.462C25.0859 14.177 25.0739 13.893 25.0569 13.608C25.0279 13.126 24.9969 12.644 24.9669 12.163C24.9539 11.954 24.9409 11.745 24.9289 11.536C24.9129 11.251 24.8989 10.967 24.8829 10.682C24.8699 10.444 24.8569 10.206 24.8419 9.96796C24.8409 9.94696 24.8339 9.92698 24.8269 9.89698C24.8919 10.195 24.5949 11.172 24.5949 11.172L22.9019 20.79Z" fill="white"/>
<path d="M46.2186 20.768C46.1826 20.777 46.1606 20.7869 46.1386 20.7869C45.3996 20.7879 44.6606 20.788 43.9226 20.788C43.8946 20.788 43.8666 20.7779 43.8396 20.7739C43.7906 20.7179 43.7896 20.652 43.7806 20.59C43.7066 20.066 43.6346 19.542 43.5626 19.017C43.4876 18.475 43.4126 17.934 43.3376 17.392C43.2606 16.839 43.1836 16.286 43.1076 15.733C43.0326 15.192 42.9576 14.65 42.8826 14.109C42.8056 13.55 42.7286 12.991 42.6506 12.433C42.5766 11.897 42.5016 11.3619 42.4266 10.8259C42.3866 10.5379 42.3466 10.25 42.3056 9.96196C42.3026 9.93996 42.2966 9.91796 42.2916 9.89696C42.2426 9.88696 42.2416 9.92095 42.2366 9.94695C42.1776 10.2729 42.1196 10.6 42.0626 10.926C41.9066 11.808 41.7516 12.6899 41.5966 13.5719C41.4366 14.4769 41.2756 15.382 41.1156 16.286C40.8746 17.643 40.6346 19 40.3936 20.358C40.3746 20.467 40.3586 20.576 40.3366 20.685C40.3206 20.764 40.2986 20.781 40.2196 20.788C40.1846 20.791 40.1496 20.7909 40.1146 20.7909C39.4396 20.7909 38.7646 20.792 38.0896 20.79C38.0276 20.79 37.9616 20.806 37.8996 20.755C37.8876 20.689 37.9046 20.62 37.9166 20.553C38.1446 19.259 38.3726 17.964 38.6006 16.67C38.7956 15.565 38.9906 14.459 39.1856 13.354C39.4346 11.939 39.6816 10.524 39.9306 9.10897C40.1586 7.81497 40.3876 6.51997 40.6156 5.22597C40.7376 4.53297 40.8586 3.83996 40.9796 3.14696C40.9896 3.08996 41.0026 3.03297 41.0156 2.97597C41.0246 2.93797 41.0516 2.91597 41.0896 2.91097C41.1296 2.90597 41.1706 2.90495 41.2116 2.90395C41.8976 2.90395 42.5846 2.90295 43.2706 2.90395C43.4606 2.90395 43.4636 2.90894 43.4886 3.09294C43.5776 3.75594 43.6686 4.41795 43.7566 5.08095C43.8556 5.82495 43.9526 6.56897 44.0516 7.31197C44.1496 8.04397 44.2506 8.77595 44.3486 9.50795C44.4356 10.159 44.5206 10.811 44.6076 11.462C44.6946 12.113 44.7836 12.7639 44.8716 13.4159C44.8886 13.5429 44.9036 13.67 44.9206 13.797C44.9286 13.854 44.9406 13.9089 44.9556 13.9899C45.0026 13.9289 45.0006 13.8769 45.0096 13.8309C45.0846 13.4129 45.1576 12.995 45.2316 12.577C45.3776 11.746 45.5236 10.9159 45.6686 10.0849C45.8386 9.11695 46.0086 8.14896 46.1786 7.18096C46.3336 6.29896 46.4896 5.41696 46.6446 4.53496C46.7306 4.04796 46.8166 3.56097 46.9026 3.07497C46.9326 2.90597 46.9346 2.90297 47.1016 2.90297C47.7936 2.90197 48.4866 2.90197 49.1786 2.90297C49.2296 2.90297 49.2806 2.91197 49.3226 2.91497C49.3666 2.98297 49.3486 3.04094 49.3396 3.09694C49.2806 3.43494 49.2196 3.77295 49.1606 4.11095C48.9666 5.21595 48.7726 6.32196 48.5776 7.42696C48.4216 8.31496 48.2626 9.20195 48.1066 10.09C47.9276 11.104 47.7506 12.1179 47.5726 13.1319C47.3666 14.2999 47.1606 15.4689 46.9556 16.6369C46.7526 17.7879 46.5506 18.94 46.3486 20.091C46.3146 20.286 46.2796 20.4799 46.2446 20.6749C46.2406 20.7029 46.2296 20.73 46.2186 20.768Z" fill="white"/>
<path d="M15.7851 20.7561C15.7961 20.5631 15.8731 20.2001 15.8731 20.2001L16.9471 14.1261C16.9471 14.1261 16.7961 14.096 16.7281 14.095C16.1231 14.094 15.5181 14.094 14.9131 14.094C14.7271 14.094 14.5411 14.094 14.3541 14.094C14.2961 14.094 14.2381 14.088 14.1701 14.124C14.1571 14.177 14.1401 14.238 14.1291 14.3C13.9421 15.348 13.7561 16.396 13.5691 17.444C13.3811 18.498 13.1941 19.5511 13.0061 20.6051C12.9741 20.7821 12.9671 20.789 12.7771 20.789C12.3641 20.79 11.9511 20.789 11.5381 20.789C11.2761 20.789 11.0141 20.79 10.7531 20.789C10.6901 20.789 10.6251 20.798 10.5581 20.759C10.5581 20.723 10.5521 20.683 10.5591 20.645C10.6471 20.135 10.7361 19.625 10.8261 19.115C11.5281 15.135 12.2521 11.157 12.9351 7.17305C13.0081 6.76105 13.0791 6.34805 13.1541 5.93605C13.2221 5.56305 13.3271 5.20005 13.4751 4.85005C13.5981 4.55905 13.7531 4.28705 13.9501 4.03905C14.3601 3.52405 14.8911 3.19903 15.5241 3.03303C15.8701 2.94303 16.2221 2.90606 16.5781 2.90306C17.2061 2.89706 17.8351 2.89806 18.4631 2.90306C18.8071 2.90606 19.1491 2.93603 19.4811 3.03303C19.5371 3.04903 19.5931 3.06604 19.6471 3.08604C20.2851 3.31404 20.6771 3.76206 20.8291 4.42006C20.9131 4.78106 20.9191 5.14604 20.8851 5.51304C20.8441 5.96004 20.7491 6.39803 20.6721 6.83903C20.5061 7.79603 20.3361 8.75206 20.1671 9.70906C20.0231 10.5221 19.8791 11.335 19.7351 12.149C19.5761 13.048 19.4181 13.947 19.2591 14.847C19.1051 15.718 18.9521 16.5881 18.7981 17.4591C18.6391 18.3581 18.4791 19.257 18.3201 20.156C18.2951 20.299 18.2701 20.443 18.2451 20.586C18.2111 20.783 18.2061 20.786 18.0141 20.789C17.9971 20.789 17.9791 20.789 17.9621 20.789C17.3161 20.789 16.6701 20.789 16.0251 20.788C15.9501 20.79 15.8731 20.8031 15.7851 20.7561ZM14.5941 11.857C14.6501 11.883 14.7151 11.875 14.7771 11.875C15.5621 11.876 16.3471 11.875 17.1331 11.875C17.1801 11.875 17.2261 11.874 17.2721 11.871C17.3261 11.868 17.3571 11.8381 17.3681 11.7861C17.3751 11.7521 17.3811 11.7181 17.3871 11.6831C17.4421 11.3741 17.4961 11.065 17.5501 10.755C17.7081 9.85005 17.8651 8.94505 18.0221 8.04005C18.1291 7.42705 18.2381 6.81503 18.3431 6.20103C18.3701 6.04103 18.3861 5.87904 18.3581 5.71504C18.3131 5.44904 18.1661 5.27203 17.9121 5.18403C17.7961 5.14403 17.6761 5.12303 17.5521 5.12303C17.3541 5.12303 17.1561 5.12205 16.9591 5.12205C16.8601 5.12205 16.7611 5.12105 16.6621 5.12605C16.1381 5.15205 15.7781 5.42704 15.6131 5.92604C15.5891 5.99804 15.5701 6.07103 15.5571 6.14503C15.5101 6.39703 15.4661 6.64905 15.4221 6.90105C15.2631 7.81205 15.1051 8.72304 14.9461 9.63304C14.8271 10.315 14.7071 10.9961 14.5891 11.6781C14.5821 11.7351 14.5631 11.793 14.5941 11.857Z" fill="white"/>
<path d="M58.6271 7.351C58.5821 7.36 58.5542 7.36998 58.5262 7.36998C57.7812 7.36998 57.0372 7.36997 56.2922 7.36897C56.2702 7.36897 56.2481 7.35799 56.2151 7.34999C56.2151 7.30899 56.2102 7.26998 56.2162 7.23198C56.2612 6.96198 56.3111 6.694 56.3541 6.424C56.3891 6.206 56.4142 5.988 56.3752 5.765C56.3092 5.389 56.0752 5.15399 55.6952 5.13399C55.3882 5.11799 55.0782 5.11599 54.7712 5.13399C54.4142 5.15599 54.1312 5.32898 53.9312 5.62898C53.7832 5.84998 53.6982 6.09697 53.6492 6.35597C53.5762 6.74997 53.5082 7.14597 53.4392 7.54097C53.2822 8.43997 53.1242 9.34 52.9672 10.239C52.8102 11.138 52.6532 12.038 52.4962 12.937C52.3512 13.768 52.2061 14.598 52.0611 15.429C51.9531 16.048 51.8421 16.666 51.7381 17.285C51.7031 17.491 51.6842 17.698 51.7182 17.91C51.7852 18.326 52.0452 18.529 52.4382 18.567C52.4962 18.573 52.5542 18.572 52.6122 18.572C53.0832 18.572 53.5542 18.573 54.0262 18.572C54.0892 18.572 54.1542 18.583 54.2222 18.546C54.2322 18.513 54.2461 18.475 54.2531 18.436C54.4971 17.009 54.7402 15.582 54.9822 14.154C54.9852 14.139 54.9752 14.121 54.9712 14.106C54.9112 14.064 54.8451 14.079 54.7831 14.078C54.4751 14.076 54.1662 14.078 53.8582 14.077C53.7962 14.077 53.7302 14.088 53.6672 14.042C53.6702 14.004 53.6702 13.964 53.6752 13.925C53.7712 13.265 53.9992 12.027 54.0562 11.858C54.0902 11.852 54.1282 11.843 54.1672 11.839C54.2022 11.835 54.2372 11.838 54.2722 11.838C55.3832 11.838 56.4942 11.838 57.6052 11.839C57.6732 11.839 57.7451 11.824 57.8071 11.861C57.8131 11.875 57.8221 11.886 57.8211 11.896C57.3191 14.801 56.8172 17.706 56.3142 20.611C56.3052 20.662 56.2921 20.712 56.2801 20.765C56.2401 20.775 56.2082 20.788 56.1742 20.79C56.1222 20.794 56.0691 20.793 56.0171 20.793C54.5511 20.793 53.0852 20.794 51.6192 20.792C51.2932 20.791 50.9672 20.78 50.6492 20.7C50.5092 20.664 50.3682 20.623 50.2342 20.567C49.7362 20.36 49.4092 19.994 49.2502 19.48C49.1852 19.268 49.1481 19.051 49.1401 18.828C49.1251 18.431 49.1601 18.038 49.2291 17.647C49.4841 16.198 49.7351 14.749 49.9891 13.299C50.1801 12.205 50.3742 11.111 50.5652 10.017C50.7572 8.91698 50.9462 7.817 51.1402 6.717C51.2132 6.305 51.2701 5.88997 51.3801 5.48497C51.4871 5.08997 51.6322 4.711 51.8432 4.359C52.3122 3.577 53.0032 3.12198 53.8972 2.96898C54.1612 2.92398 54.4281 2.90499 54.6961 2.90499C55.2201 2.90499 55.7431 2.90399 56.2671 2.90499C56.5411 2.90599 56.8132 2.924 57.0842 2.967C57.3852 3.015 57.6732 3.09998 57.9432 3.24498C58.3332 3.45398 58.6101 3.76499 58.7701 4.17699C58.8531 4.38999 58.8981 4.60999 58.9231 4.83699C58.9751 5.29399 58.9131 5.74199 58.8381 6.18999C58.7851 6.51099 58.7271 6.83199 58.6691 7.15199C58.6591 7.21499 58.6431 7.276 58.6271 7.351Z" fill="white"/>
<path d="M8.11713 20.7789C8.01813 20.7829 7.93813 20.7899 7.85713 20.7899C6.90313 20.7909 5.94913 20.7899 4.99513 20.7899C4.55913 20.7899 4.12213 20.7929 3.68613 20.7889C3.43613 20.7869 3.18613 20.7799 2.93613 20.7649C2.69713 20.7509 2.46313 20.7029 2.23613 20.6259C1.58513 20.4059 1.18913 19.9559 1.04313 19.2869C0.969133 18.9489 0.959133 18.6079 0.990133 18.2629C1.03013 17.8159 1.12213 17.3769 1.19713 16.9359C1.38813 15.8179 1.58413 14.7009 1.77813 13.5839C1.94713 12.6159 2.11713 11.6479 2.28513 10.6789C2.45313 9.71591 2.61913 8.75391 2.78613 7.79091C2.90113 7.13191 3.01013 6.47193 3.13613 5.81493C3.23313 5.30993 3.39813 4.82593 3.66113 4.37993C4.13413 3.57593 4.83813 3.11294 5.75413 2.96294C6.01313 2.92094 6.27413 2.90193 6.53613 2.90193C7.05413 2.90193 7.57213 2.90093 8.08913 2.90193C8.36313 2.90293 8.63513 2.91994 8.90613 2.96294C9.21913 3.01194 9.51913 3.09992 9.79713 3.25392C10.1841 3.46792 10.4561 3.78292 10.6121 4.19692C10.7181 4.47792 10.7621 4.76992 10.7731 5.06792C10.7851 5.39492 10.7501 5.71893 10.6961 6.03993C10.6341 6.41293 10.5661 6.78494 10.5001 7.15694C10.4891 7.21894 10.4721 7.27993 10.4601 7.33293C10.3841 7.38193 10.3131 7.36891 10.2441 7.36891C9.77913 7.36991 9.31313 7.36992 8.84813 7.36992C8.63913 7.36992 8.42913 7.37092 8.22013 7.36992C8.16313 7.36992 8.10413 7.37793 8.05313 7.34593C8.02313 7.27793 8.05113 7.21492 8.06113 7.15392C8.09913 6.91892 8.14313 6.68393 8.18213 6.44893C8.20913 6.28793 8.23813 6.12691 8.22613 5.96391C8.21913 5.86591 8.20913 5.76592 8.18513 5.67092C8.11613 5.39092 7.94013 5.21493 7.65613 5.15193C7.59413 5.13793 7.53013 5.12693 7.46713 5.12593C7.19913 5.12293 6.93213 5.11694 6.66413 5.12694C6.27113 5.14094 5.96313 5.31491 5.74813 5.64891C5.60013 5.87791 5.51913 6.13193 5.47213 6.39693C5.37613 6.92893 5.28413 7.46192 5.19013 7.99492C4.97313 9.22592 4.75613 10.4579 4.53913 11.6889C4.26613 13.2409 3.99413 14.7939 3.72213 16.3459C3.65813 16.7129 3.59413 17.0789 3.53513 17.4469C3.50713 17.6199 3.50913 17.7939 3.54713 17.9669C3.62513 18.3259 3.85513 18.5319 4.22313 18.5669C4.29213 18.5739 4.36213 18.5739 4.43213 18.5749C4.90313 18.5759 5.37413 18.5759 5.84613 18.5749C5.90913 18.5749 5.97413 18.5869 6.04113 18.5449C6.07713 18.4839 6.08113 18.4069 6.09313 18.3339C6.32713 16.9989 6.56013 15.6639 6.79313 14.3299C6.80513 14.2619 6.81413 14.1929 6.82613 14.1169C6.78713 14.1019 6.75713 14.0839 6.72613 14.0809C6.66313 14.0749 6.59813 14.0769 6.53413 14.0769C6.28413 14.0769 6.03413 14.0769 5.78413 14.0759C5.72113 14.0759 5.65613 14.0839 5.60213 14.0509C5.57013 13.9939 5.59113 13.9429 5.59913 13.8929C5.81413 12.5919 5.92513 12.0039 5.97813 11.8919C6.13513 11.8599 8.42613 11.8469 9.50013 11.8719C9.54513 11.8729 9.59013 11.8809 9.62713 11.8849C9.66613 11.9389 9.64813 11.9849 9.64013 12.0299C9.57113 12.4309 9.50213 12.8319 9.43313 13.2339C9.26413 14.2139 9.09413 15.1939 8.92413 16.1739C8.78013 17.0049 8.63613 17.8359 8.49213 18.6669C8.38213 19.3029 8.27213 19.9389 8.16113 20.5749C8.15113 20.6349 8.13513 20.6969 8.11713 20.7789Z" fill="white"/>
<path d="M35.4432 20.756C35.3842 20.798 35.3242 20.79 35.2672 20.79C34.5802 20.791 33.8942 20.791 33.2072 20.79C33.1502 20.79 33.0902 20.801 33.0322 20.748C33.0342 20.716 33.0332 20.676 33.0402 20.638C33.1392 20.065 33.2392 19.492 33.3402 18.919C33.4882 18.077 33.6372 17.235 33.7852 16.393C34.0142 15.093 34.2442 13.793 34.4722 12.492C34.6762 11.329 34.8792 10.166 35.0832 9.00296C35.2862 7.84596 35.4922 6.68899 35.6962 5.53199C35.8382 4.72399 35.9792 3.91698 36.1222 3.10898C36.1332 3.04698 36.1502 2.98598 36.1662 2.91898C36.2212 2.91298 36.2662 2.90299 36.3112 2.90299C37.0212 2.90199 37.7312 2.90199 38.4402 2.90299C38.4852 2.90299 38.5342 2.89298 38.5742 2.93598C38.5762 2.94898 38.5842 2.96697 38.5822 2.98297C37.5462 8.88297 36.5092 14.783 35.4712 20.683C35.4652 20.71 35.4512 20.736 35.4432 20.756Z" fill="white"/>
<path d="M63.5871 14.061C63.5201 14.067 63.4681 14.076 63.4171 14.076C62.6841 14.074 61.9521 14.071 61.2191 14.067C61.2041 14.067 61.1891 14.051 61.1631 14.036C61.2161 13.636 61.2991 13.238 61.3661 12.838C61.4321 12.442 61.5041 12.048 61.5731 11.652C61.6431 11.251 61.7131 10.85 61.7841 10.449C61.8531 10.054 61.9231 9.65898 61.9921 9.26398C62.0621 8.86298 62.1321 8.46197 62.2021 8.06097C62.2711 7.66597 62.3401 7.27098 62.4101 6.87598C62.4801 6.47498 62.5501 6.07397 62.6211 5.67297C62.6901 5.27797 62.7601 4.88297 62.8281 4.48697C62.8971 4.08797 62.9721 3.68996 63.0351 3.29196C62.9591 3.26196 62.9191 3.30598 62.8761 3.32898C62.5841 3.48598 62.2941 3.64596 62.0031 3.80496C61.8911 3.86596 61.7781 3.92798 61.6651 3.98798C61.6361 4.00398 61.6031 4.01396 61.5591 4.03296C61.5591 3.98496 61.5541 3.95196 61.5601 3.92096C61.6391 3.46296 61.7191 3.00396 61.7991 2.54596C61.8411 2.30496 61.8871 2.06497 61.9231 1.82397C61.9411 1.70697 61.9861 1.62396 62.0911 1.55896C62.5201 1.29096 62.9441 1.01496 63.3691 0.73996C63.4451 0.68996 63.5241 0.667969 63.6151 0.667969C64.3191 0.669969 65.0221 0.668983 65.7261 0.669983C65.7771 0.669983 65.8281 0.677976 65.8691 0.681976C65.9091 0.744976 65.8911 0.796954 65.8821 0.846954C65.8001 1.32295 65.7181 1.79796 65.6361 2.27396C65.4671 3.25396 65.2981 4.23398 65.1291 5.21298C64.9841 6.04898 64.8391 6.88595 64.6941 7.72195C64.5131 8.76995 64.3321 9.81897 64.1511 10.867C64.0071 11.698 63.8631 12.528 63.7191 13.359C63.6891 13.531 63.6601 13.703 63.6291 13.875C63.6201 13.931 63.6041 13.986 63.5871 14.061Z" fill="white"/>
</svg>
