<svg width="91" height="26" viewBox="0 0 91 26" fill="none" xmlns="http://www.w3.org/2000/svg">
<path d="M8.63383 21.0358C8.63383 21.0358 9.73583 25.6208 11.7838 25.4618C13.8308 25.3038 16.8238 19.7708 22.4928 18.8218C27.3668 18.0058 32.8708 17.2348 34.4158 17.0338H6.67383L8.63383 21.0358Z" fill="#B2B2B2"/>
<path d="M0.511719 17.0338C1.13072 17.5428 5.90372 21.3728 9.57772 21.6688C13.5147 21.9848 21.9377 17.0438 22.7257 17.0438L0.511719 17.0338Z" fill="#B2B2B2"/>
<path d="M10.0878 21.9669C10.0038 21.9399 9.92082 21.9098 9.83582 21.8868C9.26582 21.7308 8.84782 21.3738 8.54582 20.8768C8.35082 20.5558 8.16782 20.2279 7.98882 19.8969C7.33382 18.6809 6.30482 17.9409 5.01382 17.5359C4.24982 17.2969 3.46681 17.1518 2.67081 17.0758C2.56681 17.0658 2.46182 17.0508 2.34082 17.0368H5.01282C5.51782 17.0368 6.02281 17.0379 6.52681 17.0359C6.59181 17.0359 6.66881 17.0598 6.69281 16.9578C6.69781 16.9388 6.75082 16.9218 6.78282 16.9178C7.45782 16.8428 8.02282 16.5238 8.54082 16.1078C9.31482 15.4838 9.90082 14.6978 10.4208 13.8598C11.2428 12.5348 11.8608 11.1128 12.4018 9.65485C13.0928 7.79185 13.6368 5.88285 14.1198 3.95585C14.3248 3.13785 14.5948 2.33985 15.0648 1.62885C15.2018 1.42285 15.3718 1.22985 15.5598 1.06985C15.9088 0.769848 16.3028 0.759847 16.6948 1.00185C17.0108 1.19785 17.2498 1.47485 17.4618 1.77485C18.0208 2.56685 18.4018 3.44885 18.7518 4.34485C19.3418 5.85685 19.7738 7.41785 20.2278 8.97385C20.3748 9.47885 20.6278 9.95585 20.8518 10.4348C21.5498 11.9188 22.3168 13.3668 23.2958 14.6868C23.6438 15.1548 24.0538 15.5778 24.4368 16.0188C24.4738 16.0618 24.5298 16.0888 24.5768 16.1228V16.9669C24.0478 16.9639 23.5188 16.9578 22.9898 16.9618C22.9048 16.9618 22.8128 16.9868 22.7368 17.0288C22.2068 17.3188 21.6848 17.6238 21.1538 17.9118C19.2048 18.9698 17.2248 19.9648 15.1678 20.7978C14.1458 21.2128 13.1108 21.5858 12.0318 21.8238C11.8048 21.8748 11.5768 21.9198 11.3488 21.9678C10.9288 22.0508 10.4988 22.0789 10.0878 21.9669Z" fill="white"/>
<path d="M34.415 17.0338C33.524 16.8208 29.437 13.5118 25.097 8.54582C23.883 7.15882 20.131 2.22182 15.879 8.38782C11.936 14.1058 10.16 16.5788 8.91797 17.0338H34.415Z" fill="white"/>
<path d="M24.3184 17.0338C22.4534 15.9198 19.5514 6.47482 19.1934 5.53882C17.9454 5.78582 16.3334 7.16582 15.2484 8.70482C10.9314 14.8248 7.3744 17.0238 6.1344 17.0238C5.9804 17.0238 6.37541 17.0278 7.16641 17.0338H24.3184Z" fill="#B2B2B2"/>
<path d="M36.9082 12.9878C36.9082 9.67782 37.8212 8.35883 40.4602 8.35883C41.5552 8.35883 42.3212 8.62783 42.9052 9.00583L42.1622 10.1658C41.7612 9.93282 41.2382 9.71383 40.3982 9.71383C38.9992 9.71383 38.3182 10.3488 38.3182 13.0118C38.3182 15.5518 38.8052 16.3948 40.3492 16.3948C41.6862 16.3948 41.9802 15.7958 41.9802 13.8298V13.5498H39.9732V12.3158H43.3312V13.5978C43.3312 16.6148 42.7342 17.6038 40.2292 17.6038C37.6142 17.6048 36.9082 15.9798 36.9082 12.9878Z" fill="white"/>
<path d="M46.53 17.5179C45.314 17.5179 44.875 17.1149 44.875 15.7959V8.11487H46.238V15.6249C46.238 16.1629 46.275 16.3089 47.016 16.3089V17.5059C46.943 17.5179 46.81 17.5179 46.53 17.5179Z" fill="white"/>
<path d="M48.293 14.0748C48.293 12.0238 48.768 10.5588 51.103 10.5588C53.45 10.5588 53.912 12.0488 53.912 14.0748C53.912 16.1758 53.45 17.6038 51.103 17.6038C48.792 17.6038 48.293 16.1508 48.293 14.0748ZM52.539 14.1238C52.539 12.7808 52.405 11.8398 51.104 11.8398C49.814 11.8398 49.669 12.7808 49.669 14.1238C49.669 15.4548 49.815 16.4078 51.104 16.4078C52.405 16.4068 52.539 15.4548 52.539 14.1238Z" fill="white"/>
<path d="M55.4336 8.11483H56.7826V11.2778C57.0986 10.8018 57.6576 10.5568 58.7046 10.5568C60.7236 10.5568 60.9666 12.2168 60.9666 14.0728C60.9666 15.9658 60.6866 17.5898 58.6556 17.5898C57.3416 17.5898 57.0006 17.3208 56.6366 16.8938L56.4296 17.5528L55.4316 17.4668V8.11383H55.4336V8.11483ZM59.5936 14.1358C59.5936 12.7558 59.4476 11.8398 58.2686 11.8398C56.9316 11.8398 56.7966 12.7688 56.7966 14.1358C56.7966 15.5038 56.9186 16.3948 58.2686 16.3948C59.4226 16.3948 59.5936 15.5278 59.5936 14.1358Z" fill="white"/>
<path d="M62.5244 8.44482H63.8994V9.92282H62.5244V8.44482ZM62.5244 10.6798H63.8874V17.5068H62.5244V10.6798Z" fill="white"/>
<path d="M65.4326 15.4549C65.4326 13.5009 66.5516 12.9509 68.9236 12.9509H69.1916C69.1666 12.1689 68.9596 11.7909 68.0846 11.7909C67.3536 11.7909 66.7826 11.9629 66.3936 12.1569L65.8346 11.0459C66.3816 10.7539 67.1716 10.5449 68.2306 10.5449C70.0556 10.5449 70.5166 11.2529 70.5166 12.9259V15.6869C70.5166 16.1879 70.5526 16.3089 71.0276 16.3089V17.5059C70.8936 17.5179 70.7596 17.5179 70.6386 17.5179C69.9076 17.5179 69.5436 17.4079 69.3986 16.9079C69.0086 17.4089 68.4126 17.5799 67.4886 17.5799C65.8806 17.5789 65.4326 16.7499 65.4326 15.4549ZM69.1896 14.8809V14.0509H68.9346C67.3536 14.0509 66.7326 14.2229 66.7326 15.3089C66.7326 16.1759 67.0726 16.4449 67.7786 16.4449C68.5696 16.4439 69.1896 16.1269 69.1896 14.8809Z" fill="white"/>
<path d="M72.5352 10.7659L73.6182 10.6679L73.7272 11.2909C74.0312 10.8509 74.5672 10.5579 75.7832 10.5579C77.4972 10.5579 77.7532 11.5959 77.7532 13.0609V17.5059H76.3902V13.3789C76.3902 12.3779 76.2812 11.8649 75.2832 11.8649C74.0792 11.8649 73.8962 12.5249 73.8962 13.8689V17.5079H72.5332L72.5352 10.7659Z" fill="white"/>
<path d="M79.2246 14.0749C79.2246 11.9129 79.7116 10.5579 82.0096 10.5579C82.7636 10.5579 83.2996 10.6929 83.7496 10.9119L83.1536 12.0969C82.8376 11.9259 82.4966 11.8399 82.0706 11.8399C80.9156 11.8399 80.6106 12.5729 80.6106 14.1109C80.6106 15.6499 80.8906 16.4069 82.0946 16.4069C82.5946 16.4069 82.9696 16.2599 83.3106 16.1009L83.8346 17.1519C83.2016 17.4579 82.7036 17.6029 81.9246 17.6029C79.7236 17.6049 79.2246 16.2489 79.2246 14.0749Z" fill="white"/>
<path d="M84.918 14.0748C84.918 11.9388 85.465 10.5588 87.679 10.5588C90.099 10.5588 90.111 12.0848 90.087 14.7358H86.232C86.293 15.8588 86.572 16.4218 87.716 16.4218C88.604 16.4218 89.054 16.2148 89.456 16.0188L89.979 17.0688C89.42 17.3748 88.727 17.5938 87.644 17.5938C85.356 17.5918 84.918 16.2488 84.918 14.0748ZM86.231 13.5378H88.834C88.822 12.4268 88.785 11.7678 87.642 11.7678C86.548 11.7668 86.281 12.4018 86.231 13.5378Z" fill="white"/>
</svg>
