<svg width="60" height="21" viewBox="0 0 60 21" fill="none" xmlns="http://www.w3.org/2000/svg">
<path d="M53.9951 12.8311C50.7101 12.8311 48.0352 10.1581 48.0352 6.87308C48.0352 3.58708 50.7091 0.913086 53.9951 0.913086C57.2801 0.913086 59.9552 3.58608 59.9552 6.87308C59.9542 10.1581 57.2811 12.8311 53.9951 12.8311ZM53.9951 3.54709C52.1611 3.54709 50.6702 5.0391 50.6702 6.8721C50.6702 8.7051 52.1621 10.1971 53.9951 10.1971C55.8281 10.1971 57.3202 8.7051 57.3202 6.8721C57.3212 5.0391 55.8291 3.54709 53.9951 3.54709Z" fill="white"/>
<path d="M15.8291 18.2931V18.2821C15.8291 17.2171 16.6441 16.3141 17.7921 16.3141C18.3631 16.3141 18.7431 16.4501 19.0911 16.7001C19.1561 16.7491 19.2271 16.8411 19.2271 16.9721C19.2271 17.1511 19.0791 17.3031 18.8951 17.3031C18.8081 17.3031 18.7421 17.2651 18.6881 17.2271C18.4431 17.0481 18.1761 16.9281 17.7631 16.9281C17.0621 16.9281 16.5291 17.5421 16.5291 18.2711V18.2811C16.5291 19.0641 17.0461 19.6401 17.8231 19.6401C18.1821 19.6401 18.5081 19.5261 18.7421 19.3521V18.6401H17.9921C17.8291 18.6401 17.6931 18.5151 17.6931 18.3511C17.6931 18.1881 17.8291 18.0581 17.9921 18.0581H19.0521C19.2431 18.0581 19.3891 18.2051 19.3891 18.3951V19.4111C19.3891 19.6011 19.3131 19.7371 19.1551 19.8351C18.8281 20.0521 18.3721 20.2481 17.8011 20.2481C16.6121 20.2501 15.8291 19.4011 15.8291 18.2931Z" fill="white"/>
<path d="M24.7889 19.7501L23.3749 16.5961C23.2989 16.4271 23.1679 16.3241 22.9779 16.3241H22.9449C22.7549 16.3241 22.6189 16.4281 22.5429 16.5961L21.1289 19.7501C21.1019 19.8041 21.0859 19.8531 21.0859 19.9021C21.0859 20.0761 21.2219 20.2111 21.3949 20.2111C21.5359 20.2111 21.6509 20.1351 21.7049 19.9991L22.0249 19.2651H23.8739L24.1829 19.9771C24.2429 20.1181 24.3519 20.2111 24.5099 20.2111C24.6899 20.2111 24.8249 20.0701 24.8249 19.8911C24.8269 19.8481 24.8159 19.7991 24.7889 19.7501ZM22.2819 18.6731L22.9499 17.1351L23.6189 18.6731H22.2819Z" fill="white"/>
<path d="M26.6367 16.6942C26.6367 16.5092 26.7838 16.3572 26.9738 16.3572H27.0448C27.1908 16.3572 27.2897 16.4332 27.3537 16.5372L28.5067 18.3422L29.6647 16.5312C29.7357 16.4172 29.8337 16.3572 29.9697 16.3572H30.0407C30.2307 16.3572 30.3777 16.5092 30.3777 16.6942V19.8802C30.3777 20.0642 30.2307 20.2112 30.0407 20.2112C29.8607 20.2112 29.7087 20.0592 29.7087 19.8802V17.5962L28.7787 18.9942C28.7087 19.1032 28.6207 19.1682 28.4957 19.1682C28.3767 19.1682 28.2887 19.1032 28.2177 18.9942L27.2937 17.6072V19.8852C27.2937 20.0702 27.1467 20.2112 26.9617 20.2112C26.7767 20.2112 26.6357 20.0702 26.6357 19.8852L26.6367 16.6942Z" fill="white"/>
<path d="M32.4805 16.6831C32.4805 16.4981 32.6275 16.3511 32.8175 16.3511C33.0025 16.3511 33.1495 16.4981 33.1495 16.6831V19.8801C33.1495 20.0651 33.0025 20.2121 32.8175 20.2121C32.6275 20.2121 32.4805 20.0651 32.4805 19.8801V16.6831Z" fill="white"/>
<path d="M35.2529 16.6941C35.2529 16.5091 35.3999 16.3571 35.5899 16.3571H35.6609C35.8239 16.3571 35.9159 16.4381 36.0089 16.5521L37.9119 19.0151V16.6771C37.9119 16.4981 38.0589 16.3511 38.2389 16.3511C38.4229 16.3511 38.5699 16.4981 38.5699 16.6771V19.8741C38.5699 20.0591 38.4289 20.2061 38.2439 20.2061H38.2169C38.0589 20.2061 37.9599 20.1251 37.8689 20.0051L35.9119 17.472V19.886C35.9119 20.065 35.7649 20.2121 35.5849 20.2121C35.4009 20.2121 35.2539 20.065 35.2539 19.886L35.2529 16.6941Z" fill="white"/>
<path d="M40.4678 18.2931V18.2821C40.4678 17.2171 41.2828 16.3141 42.4308 16.3141C43.0018 16.3141 43.3818 16.4501 43.7298 16.7001C43.7948 16.7491 43.8658 16.8411 43.8658 16.9721C43.8658 17.1511 43.7178 17.3031 43.5338 17.3031C43.4468 17.3031 43.3808 17.2651 43.3268 17.2271C43.0818 17.0481 42.8148 16.9281 42.4018 16.9281C41.7008 16.9281 41.1678 17.5421 41.1678 18.2711V18.2811C41.1678 19.0641 41.6848 19.6401 42.4618 19.6401C42.8208 19.6401 43.1468 19.5261 43.3808 19.3521V18.6401H42.6318C42.4688 18.6401 42.3328 18.5151 42.3328 18.3511C42.3328 18.1881 42.4688 18.0581 42.6318 18.0581H43.6918C43.8828 18.0581 44.0288 18.2051 44.0288 18.3951V19.4111C44.0288 19.6011 43.9528 19.7371 43.7948 19.8351C43.4678 20.0521 43.0118 20.2481 42.4408 20.2481C41.2498 20.2501 40.4678 19.4011 40.4678 18.2931Z" fill="white"/>
<path d="M44.5484 11.5151V2.23111C44.5484 1.50411 43.9584 0.913116 43.2314 0.913116C42.5044 0.913116 41.9144 1.50311 41.9144 2.23111V11.5151C41.9144 12.2421 42.5034 12.8321 43.2314 12.8321C43.9584 12.8311 44.5484 12.2421 44.5484 11.5151ZM10.5044 0.913116C9.77738 0.913116 9.18738 1.50311 9.18738 2.23111V5.55612H2.86739V2.23111C2.86739 1.50411 2.27838 0.913116 1.55138 0.913116C0.824376 0.913116 0.234375 1.50311 0.234375 2.23111V11.5151C0.234375 12.2421 0.823376 12.8321 1.55138 12.8321C2.27938 12.8321 2.86838 12.2431 2.86838 11.5151V8.19012H9.18839V11.5151C9.18839 12.2421 9.77839 12.8321 10.5054 12.8321C11.2324 12.8321 11.8224 12.2431 11.8224 11.5151V2.23111C11.8214 1.50311 11.2314 0.913116 10.5044 0.913116ZM26.8974 2.23013C26.8974 1.50213 26.3074 0.913116 25.5804 0.913116H16.6254C15.8984 0.913116 15.3084 1.50213 15.3084 2.23013C15.3084 2.95713 15.8984 3.54712 16.6254 3.54712H25.5804C26.3074 3.54612 26.8974 2.95713 26.8974 2.23013ZM26.8974 11.5161C26.8974 10.7891 26.3084 10.1991 25.5804 10.1991H16.6254C15.8984 10.1991 15.3084 10.7881 15.3084 11.5161C15.3084 12.2431 15.8984 12.8331 16.6254 12.8331H25.5804C26.3074 12.8341 26.8974 12.2441 26.8974 11.5161ZM24.8004 6.87311C24.8004 6.14611 24.2114 5.55612 23.4834 5.55612H16.6264C15.8994 5.55612 15.3094 6.14511 15.3094 6.87311C15.3094 7.60011 15.8994 8.19012 16.6264 8.19012H23.4834C24.2104 8.19012 24.8004 7.60111 24.8004 6.87311ZM37.1094 10.1991H33.0194V2.22913C33.0194 1.50113 32.4294 0.912109 31.7024 0.912109C30.9754 0.912109 30.3854 1.50113 30.3854 2.22913V11.5141V11.5151C30.3854 12.2421 30.9744 12.8331 31.7024 12.8331H37.1094C37.8364 12.8331 38.4264 12.2441 38.4264 11.5161C38.4254 10.7891 37.8364 10.1991 37.1094 10.1991Z" fill="white"/>
</svg>
