<svg width="74" height="19" viewBox="0 0 74 19" fill="none" xmlns="http://www.w3.org/2000/svg">
<path d="M20.734 14.0598C20.734 15.2468 21.307 15.9678 22.237 15.9678C23.167 15.9678 23.766 15.2348 23.766 14.0948C23.766 12.9548 23.231 12.3258 22.275 12.3258C21.307 12.3258 20.734 12.9658 20.734 14.0598ZM19.001 10.8828H20.759V12.0118C20.923 11.6918 21.148 11.4068 21.421 11.1738C21.876 10.8358 22.434 10.6628 23.001 10.6858C24.657 10.6858 25.6 11.8378 25.6 13.8618C25.6 16.0488 24.543 17.4448 22.887 17.4448C22.416 17.4588 21.953 17.3248 21.562 17.0608C21.307 16.8578 21.087 16.6148 20.912 16.3398V18.7598H19.001V10.8828Z" fill="white"/>
<path d="M29.2802 14.6868C28.4652 14.8958 28.1592 15.1408 28.1592 15.5828C28.1592 16.0118 28.5282 16.3158 29.0502 16.3158C29.6272 16.3328 30.1572 15.9968 30.3872 15.4668C30.5342 15.0608 30.5992 14.6298 30.5782 14.1988C30.3232 14.3968 30.1322 14.4668 29.2782 14.6868M30.6292 17.2468V16.3048C30.1942 17.0518 29.3782 17.4928 28.5142 17.4448C27.2662 17.4448 26.4122 16.7238 26.4122 15.6878C26.4052 15.0698 26.7452 14.4998 27.2912 14.2098C27.7752 13.9538 28.1822 13.8378 29.5072 13.5698C30.2332 13.4298 30.5392 13.2088 30.5392 12.8258C30.5392 12.3968 30.0292 12.0818 29.3292 12.0818C28.3362 12.0858 27.3902 12.5028 26.7182 13.2338V11.6868C27.5312 11.0198 28.5582 10.6678 29.6102 10.6968C30.5532 10.6968 31.3422 10.9758 31.7762 11.4648C32.1062 11.8368 32.2222 12.2798 32.2222 13.1988V17.2478L30.6292 17.2468Z" fill="white"/>
<path d="M36.4673 18.7708H34.5953L35.3603 16.8398L32.7363 10.8838H34.7103L35.6673 13.3388C35.9273 14.0698 36.1273 14.8208 36.2663 15.5838C36.3923 14.8248 36.5673 14.0748 36.7883 13.3388L37.6163 10.8838H39.5013L36.4673 18.7708Z" fill="white"/>
<path d="M44.4665 11.9998V12.7328H41.8425V17.2468H41.0275V12.7328H40.0215V11.9998H41.0275C41.0405 10.9998 41.0405 10.8948 41.1675 10.4988C41.4225 9.70678 42.1105 9.25378 43.0525 9.25378C43.5545 9.25378 44.0455 9.39978 44.4665 9.67278V10.5338C44.1255 10.1758 43.6495 9.97678 43.1545 9.98678C42.5935 9.98678 42.1615 10.1958 41.9955 10.5568C41.8555 10.8478 41.8425 10.9408 41.8425 11.7198V11.9988L44.4665 11.9998Z" fill="white"/>
<path d="M50.582 17.2468H49.805L49.856 16.5138L49.869 16.3048L49.895 16.0838C49.895 16.0258 49.899 15.9668 49.908 15.9098C49.782 16.2908 49.542 16.6238 49.22 16.8638C48.777 17.1888 48.24 17.3608 47.691 17.3518C47.056 17.3758 46.441 17.1308 45.997 16.6768C45.589 16.1998 45.5 15.8048 45.5 14.4198V11.2318H46.315V14.4198C46.315 15.5478 46.379 15.9558 46.608 16.2338C46.92 16.5548 47.359 16.7208 47.805 16.6878C48.469 16.7408 49.104 16.4058 49.435 15.8268C49.728 15.3038 49.765 15.0348 49.765 13.6168V11.2318H50.58L50.582 17.2468Z" fill="white"/>
<path d="M55.9079 11.3018V12.0348H53.4619C53.4619 13.2218 53.4619 13.7688 53.4369 14.6638C53.4239 14.9198 53.4239 15.1758 53.4239 15.2458C53.4239 16.2678 53.7169 16.6888 54.4049 16.6888C54.9149 16.6888 55.2959 16.4908 55.7679 15.9678V16.7468C55.4089 17.1468 54.8909 17.3678 54.3539 17.3518C53.7839 17.3768 53.2389 17.1148 52.9029 16.6538C52.6869 16.2928 52.6349 15.9558 52.6349 15.0128C52.6349 14.8848 52.6349 14.4548 52.6479 14.0818C52.6609 13.4768 52.6609 13.1508 52.6609 12.8018C52.6609 12.6858 52.6609 12.3598 52.6479 12.0338H51.6289V11.5338C52.5589 11.4288 52.9279 10.9758 53.2449 9.55481H53.6909L53.5639 11.2998L55.9079 11.3018Z" fill="white"/>
<path d="M62.0859 17.2468H61.3089L61.3599 16.5138L61.3729 16.3048L61.3979 16.0828C61.3979 16.0248 61.4019 15.9658 61.4109 15.9088C61.2849 16.2898 61.0449 16.6228 60.7229 16.8628C60.2799 17.1878 59.7439 17.3598 59.1949 17.3508C58.5599 17.3748 57.9449 17.1298 57.5009 16.6758C57.0929 16.1988 57.0039 15.8038 57.0039 14.4188V11.2308H57.8189V14.4188C57.8189 15.5468 57.8829 15.9548 58.1119 16.2328C58.4239 16.5538 58.8629 16.7198 59.3089 16.6868C59.9729 16.7398 60.6089 16.4048 60.9389 15.8258C61.2319 15.3028 61.2689 15.0338 61.2689 13.6158V11.2308H62.0839L62.0859 17.2468Z" fill="white"/>
<path d="M63.6148 11.2318H64.4808L64.3788 12.6858C64.4608 12.2638 64.6648 11.8758 64.9648 11.5688C65.2838 11.2678 65.7108 11.1088 66.1488 11.1268C66.5848 11.0968 67.0098 11.2728 67.2958 11.6038V12.3368C66.9938 12.0028 66.5618 11.8168 66.1108 11.8248C65.3938 11.8048 64.7608 12.2908 64.5938 12.9878C64.4408 13.4418 64.4408 13.4528 64.4408 16.3848L64.4278 17.2458H63.6128L63.6148 11.2318Z" fill="white"/>
<path d="M72.545 13.8148C72.533 13.4998 72.468 13.1898 72.354 12.8958C72.035 12.2308 71.345 11.8268 70.609 11.8738C69.462 11.8738 68.7871 12.5598 68.7111 13.8168L72.545 13.8148ZM68.7111 14.4308C68.7491 16.0138 69.386 16.6878 70.826 16.6878C71.743 16.6878 72.277 16.3968 72.941 15.5358V16.4668C72.378 17.0878 71.56 17.4138 70.725 17.3508C68.916 17.3508 67.9351 16.2808 67.9351 14.2908C67.9351 12.3008 68.928 11.1378 70.661 11.1378C72.266 11.1378 73.221 12.1968 73.221 13.9878C73.221 14.1508 73.221 14.2208 73.208 14.4298L68.7111 14.4308Z" fill="white"/>
<path d="M14.1793 4.43676L5.94733 9.46476V18.9158H3.95032V8.34576L10.5543 4.31176L8.60233 2.92676L0.861328 7.42076V5.11176L8.71132 0.551758L14.1793 4.43676Z" fill="white"/>
<path d="M14.1791 6.71777V9.02478L7.78906 12.7068V10.3998L14.1791 6.71777Z" fill="white"/>
<path d="M12.403 12.4847V14.7937L7.79004 17.4617V15.1547L12.403 12.4847Z" fill="white"/>
</svg>
