<svg width="67" height="15" viewBox="0 0 67 15" fill="none" xmlns="http://www.w3.org/2000/svg">
<path d="M0.154297 5.42282C0.154297 5.16082 0.328292 4.93082 0.580292 4.85782C1.28129 4.65582 2.01329 4.53882 2.74429 4.53882C4.00029 4.55182 5.25632 5.25081 5.25632 6.70081V9.3038C5.25632 10.7278 3.98729 11.4918 2.70529 11.4918C2.07029 11.4918 1.4493 11.3368 0.879303 11.0778V13.4728C0.879303 13.6728 0.717296 13.8348 0.516296 13.8348C0.316296 13.8348 0.154297 13.6728 0.154297 13.4728V5.42282ZM0.879303 10.4308C1.4493 10.6638 2.09632 10.8058 2.71732 10.8058C3.62332 10.7928 4.5173 10.3268 4.5173 9.3688V6.63681C4.5173 5.67881 3.63732 5.22583 2.74332 5.22583C2.12132 5.22583 1.4743 5.23883 0.879303 5.44583V10.4308Z" fill="white"/>
<path d="M10.5056 6.66284C10.5056 5.70484 9.5866 5.22586 8.6546 5.22586C8.0936 5.22586 7.5326 5.38786 7.1586 5.69586C7.0346 5.79886 6.85662 5.80283 6.73962 5.69183L6.70261 5.65686C6.56961 5.53086 6.5726 5.31285 6.7146 5.19785C7.2566 4.75585 8.0086 4.52686 8.7316 4.52686C10.0136 4.52686 11.2306 5.25184 11.2306 6.66284V10.5588C11.2306 10.8688 11.0206 11.1388 10.7216 11.2178C9.99462 11.4108 9.2406 11.5019 8.4856 11.4919C7.1776 11.4789 6.1416 10.8188 6.1416 9.42084C6.1546 7.90584 7.4366 7.32285 8.7186 7.32285C9.3406 7.32285 9.97462 7.45185 10.5056 7.67285V6.66284ZM10.5056 8.26785C10.0656 8.09985 9.3916 7.94385 8.7446 7.94385C7.7606 7.94385 6.87961 8.29386 6.86661 9.41986C6.86661 10.4429 7.57862 10.8308 8.52362 10.8438C9.18362 10.8568 9.86961 10.8048 10.5046 10.6498V8.26785H10.5056Z" fill="white"/>
<path d="M44.3621 6.66895C44.3621 5.71095 43.443 5.23193 42.511 5.23193C41.95 5.23193 41.3891 5.39394 41.0151 5.70294C40.8911 5.80594 40.7131 5.80994 40.5961 5.69894L40.5591 5.66394C40.4261 5.53794 40.4291 5.32093 40.5711 5.20493C41.1131 4.76293 41.8651 4.53394 42.5881 4.53394C43.8701 4.53394 45.0871 5.25895 45.0871 6.66995V10.5659C45.0871 10.8759 44.8771 11.1459 44.5781 11.2249C43.8511 11.4179 43.0971 11.5089 42.3421 11.4989C41.0341 11.4859 39.998 10.8259 39.998 9.42694C40.011 7.91194 41.2931 7.32895 42.5751 7.32895C43.1961 7.32895 43.8311 7.45792 44.3621 7.67892V6.66895ZM44.3621 8.27493C43.9221 8.10693 43.2481 7.95093 42.6011 7.95093C41.6171 7.95093 40.7361 8.30094 40.7241 9.42694C40.7241 10.4499 41.4361 10.838 42.3811 10.851C43.0411 10.864 43.7271 10.812 44.3621 10.657V8.27493Z" fill="white"/>
<path d="M13.2074 12.8698C13.3324 12.7548 13.5204 12.7499 13.6544 12.8549C14.0714 13.1829 14.6074 13.3308 15.1984 13.3308C16.1954 13.3308 17.0884 12.7869 17.0884 11.6999V11.0529C16.5184 11.4149 15.8714 11.4799 15.2244 11.4929C13.9034 11.5059 12.6094 10.7028 12.6094 9.25284V5.00085C12.6094 4.81085 12.7634 4.65686 12.9544 4.65686H13.0164C13.2064 4.65686 13.3614 4.81085 13.3614 5.00085V9.27884C13.3614 10.2628 14.2934 10.8069 15.2134 10.8199C15.8474 10.8199 16.4954 10.6779 17.0904 10.4189V5.00186C17.0904 4.81186 17.2444 4.65784 17.4354 4.65784H17.4844C17.6744 4.65784 17.8294 4.81186 17.8294 5.00186V11.7008C17.8294 13.2678 16.5994 14.0319 15.2274 14.0319C14.5014 14.0319 13.7574 13.8049 13.2224 13.3889C13.0544 13.2599 13.0544 13.0108 13.2074 12.8698Z" fill="white"/>
<path d="M52.5082 12.8698C52.6332 12.7548 52.8212 12.7499 52.9552 12.8549C53.3732 13.1829 53.9082 13.3308 54.4992 13.3308C55.4962 13.3308 56.3892 12.7869 56.3892 11.6999V11.0529C55.8192 11.4149 55.1722 11.4799 54.5252 11.4929C53.2042 11.5059 51.9092 10.7028 51.9092 9.25284V5.00085C51.9092 4.81085 52.0632 4.65686 52.2542 4.65686H52.3162C52.5062 4.65686 52.6612 4.81085 52.6612 5.00085V9.27884C52.6612 10.2628 53.5932 10.8069 54.5132 10.8199C55.1482 10.8199 55.7952 10.6779 56.3902 10.4189V5.00186C56.3902 4.81186 56.5442 4.65784 56.7352 4.65784H56.7842C56.9742 4.65784 57.1292 4.81186 57.1292 5.00186V11.7008C57.1292 13.2678 55.8992 14.0319 54.5272 14.0319C53.8012 14.0319 53.0562 13.8049 52.5222 13.3889C52.3562 13.2599 52.3552 13.0108 52.5082 12.8698Z" fill="white"/>
<path d="M23.7543 11.2189C23.6333 11.2189 23.5353 11.1209 23.5353 10.9999V6.66193C23.5353 5.57593 22.5483 5.08093 21.6303 5.08093C20.7453 5.08093 19.9473 5.38695 19.7233 5.47995L19.6353 5.51694V10.9989C19.6353 11.1199 19.5373 11.2179 19.4163 11.2179C19.2953 11.2179 19.1973 11.1199 19.1973 10.9989V5.45294C19.1973 5.27494 19.3113 5.11995 19.4813 5.06595C20.3323 4.79495 21.0153 4.66895 21.6303 4.66895C22.7943 4.69295 23.9723 5.32693 23.9723 6.68793V10.9999C23.9733 11.1209 23.8753 11.2189 23.7543 11.2189Z" fill="white"/>
<path d="M33.0094 11.3659C32.4434 11.3659 32.0064 11.1799 31.7074 10.8129C31.4244 10.4639 31.2744 9.95193 31.2744 9.33093V3.45294C31.2744 3.35394 31.3554 3.27295 31.4544 3.27295C31.5554 3.27295 31.6344 3.34693 31.6394 3.44193L31.7204 4.79993H32.9824C33.0814 4.79993 33.1624 4.88095 33.1624 4.97995C33.1624 5.07895 33.0814 5.15994 32.9824 5.15994H31.7124V9.33093C31.7124 10.4059 32.2124 10.9979 33.1204 10.9979L33.1734 10.9969C33.2854 10.9969 33.3694 11.0759 33.3694 11.1769C33.3694 11.2719 33.2954 11.3519 33.2014 11.3589C33.1364 11.3629 33.0714 11.3659 33.0094 11.3659Z" fill="white"/>
<path d="M46.3851 9.91382C46.5211 9.82782 46.7001 9.85183 46.8081 9.97083C47.3031 10.5168 47.9751 10.7938 48.6671 10.7938C49.4051 10.7938 50.1691 10.4958 50.1561 9.57681C50.1431 8.67081 49.3141 8.44983 48.6151 8.32083C47.5271 8.12683 46.2841 7.80282 46.2841 6.43082C46.2841 5.07082 47.5921 4.52783 48.6661 4.52783C49.2251 4.52783 49.8021 4.67381 50.2551 4.97281C50.4201 5.08181 50.4441 5.31683 50.3161 5.46683L50.2931 5.49283C50.1781 5.62683 49.9831 5.6408 49.8381 5.5408C49.4991 5.3088 49.0911 5.22583 48.6661 5.22583C47.9801 5.22583 46.9961 5.49781 46.9961 6.42981C47.0091 7.33581 48.0711 7.50482 48.7441 7.63382C49.7931 7.82782 50.8671 8.26781 50.8801 9.57581C50.8801 10.9088 49.7921 11.4658 48.6661 11.4918C47.7381 11.5148 46.8821 11.1428 46.2931 10.4108C46.1681 10.2548 46.2101 10.0228 46.3791 9.9158L46.3851 9.91382Z" fill="white"/>
<path d="M27.6767 11.3489C26.1407 11.3489 25.2637 10.3839 25.2637 8.70087C25.2637 8.61487 25.2667 8.54188 25.2697 8.47388V7.27289L25.2747 7.19287C25.3207 5.59087 26.1957 4.67188 27.6767 4.67188C29.2067 4.67188 30.0837 5.63689 30.0837 7.31989C30.0837 7.44789 30.0797 7.55487 30.0717 7.64487L30.0707 7.87689C30.0707 8.04989 29.9297 8.19089 29.7567 8.19089H25.7197V8.56888H25.7187L25.7147 8.73389C25.7277 10.5359 26.8257 10.8849 27.4787 10.9329C27.5447 10.9369 27.6107 10.9399 27.6757 10.9399C28.2547 10.9399 29.0707 10.7549 29.4667 10.2329C29.5087 10.1779 29.5707 10.1439 29.6327 10.1439C29.6577 10.1439 29.6827 10.1489 29.7057 10.1599L29.7457 10.1779C29.7987 10.2019 29.8347 10.2469 29.8497 10.3029C29.8637 10.3599 29.8517 10.4199 29.8157 10.4679C29.3697 11.0579 28.5117 11.3069 27.8587 11.3429L27.7227 11.3509C27.7037 11.3489 27.6867 11.3489 27.6767 11.3489ZM27.6767 5.08188C26.4347 5.08188 25.7217 5.89587 25.7207 7.31387V7.86789H29.6337V7.31387C29.6317 5.89587 28.9187 5.08188 27.6767 5.08188Z" fill="white"/>
<path d="M39.2135 7.32486C39.2135 5.59486 38.2944 4.53284 36.6624 4.53284C35.0924 4.53284 34.1635 5.54285 34.1165 7.19385L34.1125 7.19284V8.47183C34.1085 8.54283 34.1064 8.61785 34.1064 8.70685C34.1064 10.4368 35.0255 11.4988 36.6575 11.4988H36.6635H36.6645C36.7025 11.4988 36.8275 11.4979 36.8555 11.4969V11.4898C37.6355 11.4468 38.4775 11.1409 38.9195 10.5579C39.0485 10.3869 38.9895 10.1398 38.7955 10.0508L38.7555 10.0328C38.6075 9.96484 38.4395 10.0188 38.3415 10.1488C38.0055 10.5918 37.2755 10.7998 36.6655 10.7998C36.6025 10.7998 36.5405 10.7968 36.4785 10.7928C35.5545 10.7258 34.8574 10.1268 34.8474 8.73685C34.8474 8.73685 34.8515 8.73685 34.8535 8.73785V8.33984H38.7465C38.9995 8.33984 39.2035 8.13484 39.2035 7.88284V7.66385C39.2085 7.56885 39.2135 7.45786 39.2135 7.32486ZM34.8505 7.73083V7.32086C34.8515 5.82186 35.6335 5.23184 36.6635 5.23184C37.6815 5.23184 38.4745 5.82186 38.4765 7.32086V7.73083H34.8505Z" fill="white"/>
<path d="M60.8632 0.76789L64.9442 1.91187L61.2402 5.61588L60.3532 1.24189C60.2922 0.942889 60.5692 0.68589 60.8632 0.76789Z" fill="#A5A5A5"/>
<path d="M59.3433 5.13788L61.2403 5.61487L64.9433 1.91187L59.2803 4.36887C58.9233 4.52387 58.9663 5.04288 59.3433 5.13788Z" fill="white"/>
<path d="M66.0883 5.99289L64.9442 1.91187L61.2402 5.61588L65.6143 6.50287C65.9133 6.56287 66.1703 6.28689 66.0883 5.99289Z" fill="white"/>
<path d="M61.7173 7.51187L61.2402 5.61487L64.9442 1.91089L62.4872 7.57388C62.3322 7.93188 61.8123 7.88987 61.7173 7.51187Z" fill="#A5A5A5"/>
<path d="M61.2401 5.61487L60.8491 3.68787L64.9441 1.91187L61.2401 5.61487Z" fill="white"/>
<path d="M61.2402 5.61487L63.1672 6.00589L64.9442 1.91187L61.2402 5.61487Z" fill="#A5A5A5"/>
</svg>
