<svg width="74" height="16" viewBox="0 0 74 16" fill="none" xmlns="http://www.w3.org/2000/svg">
<path d="M29.4625 1.56207C30.9515 1.46707 32.4095 1.84708 33.6765 2.60808C34.6585 3.33708 35.1975 4.50907 35.1335 5.74507C35.1655 6.41007 35.0065 7.07607 34.7215 7.67807C34.4365 8.21707 34.0565 8.66008 33.5495 8.97708C32.9795 9.32608 32.3455 9.57907 31.6805 9.70607C30.8565 9.86407 30.0325 9.95907 29.2095 9.92807H27.7525V14.7761H25.9785V1.84908C26.5485 1.72208 27.1195 1.62707 27.6895 1.59607C28.3225 1.56207 28.9245 1.56207 29.4625 1.56207ZM29.5895 3.14708C28.7975 3.14708 28.2275 3.14709 27.8155 3.21009V8.34308H29.1775C29.7475 8.34308 30.3185 8.31108 30.8565 8.21608C31.3005 8.15308 31.7435 7.99408 32.1235 7.80408C32.4725 7.61408 32.7255 7.32907 32.9155 7.01207C33.1055 6.60007 33.2005 6.15708 33.2005 5.71308C33.2325 5.26908 33.1055 4.85808 32.9155 4.47708C32.7255 4.16008 32.4405 3.87508 32.1235 3.68508C31.7745 3.49508 31.3635 3.33607 30.9515 3.27307C30.5405 3.17807 30.0645 3.14708 29.5895 3.14708Z" fill="white"/>
<path d="M40.5522 4.73108H41.0592L41.6292 4.82608L42.1362 4.92108C42.2632 4.95308 42.3582 4.98408 42.4852 5.01608L42.2002 6.53708C41.9782 6.47408 41.7252 6.41007 41.4712 6.37907C41.0592 6.28407 40.6472 6.25207 40.2352 6.28407C39.9182 6.28407 39.5702 6.31607 39.2532 6.37907L38.6192 6.50607V14.7751H36.9082V5.30208C37.4152 5.14408 37.9222 5.01707 38.4292 4.92207C39.1582 4.79407 39.8552 4.73108 40.5522 4.73108Z" fill="white"/>
<path d="M46.9834 4.66711C47.5854 4.66711 48.1874 4.7301 48.7574 4.9521C49.2014 5.1101 49.6124 5.36411 49.9294 5.71211C50.2464 6.06011 50.4364 6.47211 50.5634 6.88411C50.6904 7.39111 50.7854 7.89811 50.7854 8.40511V14.5521L50.1514 14.6471C49.8984 14.6791 49.5814 14.7421 49.2324 14.7741C48.8834 14.8061 48.5034 14.8371 48.1234 14.8691C47.7434 14.9011 47.3314 14.9321 46.9514 14.9321C46.4444 14.9321 45.9374 14.8691 45.4304 14.7741C44.9864 14.6791 44.5754 14.4891 44.2264 14.2351C43.8774 13.9821 43.6244 13.6651 43.4344 13.2531C43.2444 12.8091 43.1494 12.3021 43.1494 11.7961C43.1494 11.3211 43.2444 10.8141 43.4664 10.4021C43.6884 10.0221 44.0054 9.70511 44.3534 9.45111C44.7654 9.19811 45.2084 9.00711 45.6844 8.91211C46.1914 8.78511 46.7304 8.7541 47.2374 8.7541C47.4274 8.7541 47.5864 8.7541 47.7764 8.7541L48.3154 8.81711L48.7594 8.91211L49.0124 8.97511V8.46811C49.0124 8.18311 48.9804 7.89811 48.9174 7.61311C48.8544 7.36011 48.7274 7.10611 48.5684 6.88411C48.4094 6.66211 48.1564 6.47211 47.9034 6.34511C47.5544 6.18711 47.1744 6.12311 46.7944 6.15511C46.2874 6.15511 45.7804 6.1871 45.2734 6.2821C44.9564 6.3451 44.6084 6.40911 44.2914 6.53511L44.0694 5.07811C44.4494 4.95111 44.7984 4.85611 45.2104 4.79311C45.8114 4.76211 46.4134 4.69911 46.9834 4.66711ZM47.1424 13.4751H48.2514C48.5364 13.4751 48.7904 13.4431 49.0434 13.3801V10.4971C48.8534 10.4341 48.6314 10.3701 48.4414 10.3391C47.8394 10.2441 47.2054 10.2441 46.5724 10.3391C46.2874 10.3711 46.0024 10.4661 45.7484 10.5921C45.4954 10.7191 45.3044 10.8771 45.1464 11.0671C44.9884 11.3201 44.8934 11.6061 44.8934 11.8911C44.8304 12.3981 45.0834 12.9051 45.4954 13.1901C46.0334 13.4121 46.6034 13.5071 47.1424 13.4751Z" fill="white"/>
<path d="M59.1187 14.7112C58.9917 14.4262 58.8017 14.1412 58.6117 13.7922C58.4217 13.4432 58.1997 13.0632 57.9467 12.7462C57.6937 12.4292 57.4717 12.0172 57.2177 11.6692C56.9647 11.3202 56.7107 11.0042 56.4887 10.6552C56.2357 10.9722 56.0137 11.3202 55.7597 11.6692C55.5067 12.0182 55.2527 12.3982 55.0307 12.7462C54.8087 13.0952 54.5867 13.4752 54.3657 13.7922C54.1757 14.1092 53.9857 14.4262 53.8587 14.7112H52.0527C52.5277 13.8242 53.0347 12.9372 53.6367 12.1132C54.2387 11.2262 54.8407 10.3702 55.4747 9.57817L52.2117 4.92017H54.1757L56.5207 8.34216L58.8657 4.92017H60.7347L57.5667 9.45117C58.1687 10.2752 58.8027 11.1302 59.4357 12.0492C60.0377 12.9042 60.5767 13.7922 61.0517 14.7102L59.1187 14.7112Z" fill="white"/>
<path d="M63.3646 3.14712C63.0796 3.14712 62.7946 3.05212 62.5726 2.83012C62.3506 2.60812 62.2236 2.29112 62.2236 1.97512C62.1916 1.65812 62.3186 1.34111 62.5726 1.12011C63.0166 0.676109 63.7446 0.676109 64.1886 1.12011C64.4106 1.34211 64.5376 1.62711 64.5056 1.94411C64.5056 2.26111 64.4106 2.57811 64.1566 2.79911C63.9346 3.05111 63.6496 3.17812 63.3646 3.14712ZM64.2516 14.7431H62.5086V4.92112H64.2516V14.7431Z" fill="white"/>
<path d="M69.1306 13.475C69.6696 13.507 70.2076 13.412 70.7146 13.19C71.0636 13.032 71.2536 12.651 71.2216 12.271C71.2216 11.859 71.0316 11.479 70.7146 11.257C70.1756 10.908 69.6376 10.623 69.0356 10.402C68.6556 10.244 68.3066 10.085 67.9586 9.95803C67.6416 9.80003 67.3246 9.60904 67.0716 9.38804C66.8186 9.16604 66.5966 8.91305 66.4696 8.62805C66.3116 8.27905 66.2476 7.89904 66.2476 7.51904C66.2156 6.72704 66.5646 5.93505 67.1986 5.46005C67.9586 4.92105 68.8776 4.63604 69.8286 4.70004C70.1136 4.70004 70.3676 4.73204 70.6526 4.76304C70.9376 4.76304 71.1916 4.82604 71.4126 4.85804C71.6346 4.89004 71.8566 4.95305 72.0466 5.01605L72.4586 5.14305L72.1416 6.66404C71.8566 6.53704 71.5716 6.44204 71.2546 6.34704C70.7796 6.22004 70.3036 6.18904 69.7976 6.18904C69.3536 6.18904 68.9106 6.28404 68.5306 6.47404C68.1816 6.63204 67.9606 6.98103 67.9916 7.36103C67.9916 7.55103 68.0236 7.74104 68.1186 7.93104C68.2136 8.12104 68.3406 8.24804 68.4986 8.37504C68.6886 8.53304 68.9106 8.62805 69.1326 8.75505C69.3856 8.85005 69.7026 8.97705 70.0516 9.10405C70.5266 9.29405 70.9386 9.45303 71.2876 9.61103C71.6366 9.76903 71.9526 9.96004 72.2066 10.213C72.4596 10.435 72.6506 10.72 72.8086 11.037C72.9666 11.417 73.0306 11.829 72.9986 12.209C73.0306 13.033 72.6496 13.793 71.9846 14.268C71.1296 14.807 70.1156 15.06 69.1016 14.997C68.4046 15.029 67.7396 14.934 67.0736 14.775C66.7246 14.68 66.4086 14.585 66.0596 14.426L66.3766 12.905L67.3276 13.254C67.9266 13.412 68.5286 13.475 69.1306 13.475Z" fill="white"/>
<path d="M16.5043 1.15015C13.9383 1.15015 11.8153 3.24116 11.8153 5.83916V8.46915H10.9603H10.1053V5.83916C10.0733 3.24116 7.98231 1.15015 5.38431 1.15015C2.78631 1.15015 0.695312 3.24116 0.695312 5.83916C0.695312 8.34216 2.69131 10.4332 5.19431 10.5282H8.01431V13.9501C8.01431 14.3301 8.33132 14.6792 8.74332 14.6792H9.37732C9.78932 14.6792 10.1063 14.3621 10.1063 13.9501V10.5282H10.9613H11.8163V13.9501C11.8163 14.3301 12.1333 14.6792 12.5453 14.6792H13.1793C13.5593 14.6792 13.9083 14.3621 13.9083 13.9501V10.5282H16.7283C19.2313 10.4012 21.2273 8.34216 21.2273 5.83916C21.2243 3.24216 19.1023 1.15015 16.5043 1.15015ZM8.0123 8.46915H7.53731H6.3963H5.2243C5.1923 8.46915 5.1613 8.46915 5.1293 8.46915C3.7673 8.34215 2.75331 7.20215 2.75331 5.87115C2.75331 4.41415 3.9253 3.24115 5.3833 3.24115C6.7773 3.24115 7.94931 4.35015 8.01331 5.77615V5.80815C8.01331 5.80815 8.01331 5.80815 8.01331 5.84015V8.46915H8.0123ZM16.7893 8.43816C16.7573 8.43816 16.7263 8.43816 16.6943 8.43816H15.5223H14.3813H13.9063V5.74515C13.9063 5.74515 13.9063 5.74515 13.9063 5.71315V5.68115C13.9693 4.25515 15.1103 3.14615 16.5363 3.14615C17.9933 3.14615 19.1663 4.31815 19.1663 5.77615C19.1333 7.20215 18.1193 8.31116 16.7893 8.43816Z" fill="white"/>
</svg>
