<svg width="71" height="17" viewBox="0 0 71 17" fill="none" xmlns="http://www.w3.org/2000/svg">
<path d="M21.7174 6.8692L17.2432 7.00923C17.1644 7.01245 17.0919 7.04464 17.042 7.10258C16.9921 7.16052 16.9632 7.23614 16.9696 7.315L17.0517 8.53335C17.063 8.68463 17.1885 8.80373 17.343 8.80051L18.5613 8.78602L18.835 14.5059C18.8382 14.5816 18.8752 14.654 18.9283 14.7071C18.9862 14.757 19.0619 14.786 19.1375 14.7795L20.5104 14.6862C20.6649 14.6749 20.7808 14.5462 20.7775 14.3901L20.6198 8.75545L21.8237 8.74096C21.9025 8.74096 21.9749 8.70556 22.0297 8.64762C22.0844 8.58968 22.1085 8.51081 22.1053 8.43516L22.0184 7.13475C22.0007 6.98346 21.8719 6.86437 21.7174 6.8692ZM26.9256 7.23936L25.5752 7.16372C25.4207 7.16051 25.2936 7.28282 25.2872 7.43411L25.2663 10.4164L24.6788 10.5419L24.5307 7.15889C24.5243 7.0076 24.4004 6.88851 24.2459 6.88529L22.9133 6.91748C22.8344 6.91748 22.762 6.94644 22.7073 6.99955C22.6525 7.05267 22.6204 7.12993 22.6252 7.20557L22.8698 14.7313C22.873 14.8858 23.0002 15.0129 23.1547 15.0129L24.4873 14.9807C24.5661 14.9807 24.6385 14.9518 24.6933 14.8987C24.748 14.8455 24.7802 14.7683 24.7754 14.6926L24.6273 12.1739L25.1504 12.2093L25.2437 14.4641C25.2405 14.543 25.2695 14.6154 25.3226 14.6733C25.3757 14.7313 25.4481 14.7635 25.5286 14.7635L26.9192 14.86C26.9256 14.86 26.9304 14.86 26.9368 14.86C27.0849 14.8536 27.204 14.7345 27.2105 14.5832L27.2169 7.52586C27.2201 7.45021 27.1911 7.37456 27.138 7.31662C27.0769 7.27156 27.0045 7.24258 26.9256 7.23936ZM31.9438 6.61009L30.7126 6.70343C30.5645 6.7147 30.4502 6.83702 30.4454 6.98831C30.4454 6.98831 30.4567 11.6959 30.439 12.3123C30.4277 12.676 30.4792 13.2924 30.0784 13.3101C29.8048 13.3214 29.7067 12.9174 29.7002 12.3477C29.6938 11.7071 29.7469 7.32629 29.7469 7.28283C29.7469 7.13476 29.6391 7.00923 29.491 6.99474L28.094 6.84666C28.0119 6.84022 27.9314 6.86436 27.8703 6.91908C27.8091 6.9738 27.777 7.05267 27.777 7.13475C27.777 7.13475 27.8317 12.6535 27.8349 12.8482C27.8494 13.5612 28.4046 14.8471 29.9561 14.8037C31.6959 14.757 32.0098 13.7189 32.1176 12.5119C32.161 12.0081 32.2431 7.41157 32.2479 6.89978C32.2479 6.82091 32.2158 6.74205 32.1578 6.68732C32.1015 6.63099 32.0226 6.60204 31.9438 6.61009ZM37.3515 6.90783L36.0768 6.96898C36.0011 6.9722 35.9287 7.00921 35.8756 7.06554C35.8257 7.12348 35.8 7.19913 35.8032 7.27478L36.0156 10.8091L34.6894 7.15567C34.6428 7.03335 34.5205 6.95771 34.3901 6.96898L33.1106 7.10901C32.9625 7.12349 32.8515 7.24903 32.8547 7.3971L33.0671 14.3643C33.0671 14.5156 33.183 14.6379 33.3343 14.6492L34.617 14.7425C34.6991 14.749 34.7796 14.7168 34.8375 14.6605C34.8955 14.6025 34.9277 14.5236 34.9245 14.44L34.7233 11.3885L35.8289 14.5542C35.8692 14.6621 35.9658 14.7345 36.0816 14.7409H37.4319C37.4432 14.7409 37.4529 14.7409 37.4609 14.7409C37.5301 14.7377 37.5945 14.7087 37.6444 14.6621C37.7023 14.6073 37.7345 14.5285 37.7345 14.4496L37.6524 7.17981C37.6524 7.10095 37.6202 7.02854 37.5623 6.97382C37.506 6.93358 37.4303 6.90461 37.3515 6.90783ZM39.0623 6.76137C38.9722 6.76137 38.8821 6.76137 38.7887 6.76458C38.6374 6.7678 38.5151 6.89012 38.5118 7.0414L38.2817 14.2822C38.2785 14.4335 38.3928 14.5671 38.5441 14.5784C38.5505 14.5784 38.7131 14.5929 38.969 14.5929C39.8702 14.5929 42.0124 14.4303 42.5097 12.9207C42.9233 11.6637 42.8557 9.94805 42.7511 9.13529C42.5451 7.53551 41.3429 6.76137 39.0623 6.76137ZM40.9743 11.5301C40.823 12.7549 40.4384 12.8305 40.0199 12.9754L40.2179 8.42873C40.3627 8.46897 40.5494 8.46416 40.7828 8.77799C41.1304 9.23829 41.1256 10.3375 40.9743 11.5301ZM46.9404 13.3021L45.2618 13.4325L45.183 11.8649L46.2677 11.8037C46.4077 11.7973 46.5204 11.6878 46.5349 11.5478L46.6363 10.5821C46.6475 10.5001 46.6186 10.4164 46.5606 10.3552C46.5027 10.2941 46.4206 10.2619 46.3369 10.2651L45.1588 10.3263V8.62188H46.8986C47.0612 8.6251 47.1867 8.49151 47.1867 8.33379C47.1867 8.31287 47.1835 8.29032 47.1803 8.2694L47.0837 7.25064C47.0692 7.09935 46.9437 6.98831 46.7876 6.99152L43.5993 7.07038C43.4415 7.0736 43.3176 7.20396 43.3225 7.36169L43.4238 14.5237C43.4271 14.6782 43.5542 14.8053 43.7119 14.8053H46.9356C47.0901 14.8053 47.2173 14.683 47.2237 14.5285L47.2495 13.595C47.2527 13.5129 47.2173 13.4373 47.1593 13.3793C47.103 13.3246 47.0225 13.2957 46.9404 13.3021ZM52.1566 9.10147C52.0842 8.09719 51.7382 6.76299 49.5526 6.76299C49.0842 6.76299 48.5338 6.82415 47.9174 6.94324C47.7806 6.96899 47.6824 7.09129 47.6872 7.22809L47.7886 14.234C47.7918 14.382 47.9045 14.5043 48.0509 14.5156L49.0553 14.5945C49.1341 14.6009 49.213 14.5735 49.2709 14.5188C49.3289 14.4641 49.3643 14.3885 49.3643 14.3096V12.0516L49.876 12.0226L50.4458 14.44C50.4715 14.5768 50.5907 14.6733 50.7275 14.6733C50.7339 14.6733 50.742 14.6733 50.7484 14.6733L51.7527 14.5945C51.8315 14.588 51.9072 14.5478 51.9587 14.4834C52.0086 14.419 52.0279 14.3353 52.0166 14.2565L51.3037 11.5655C51.7929 11.1873 52.2564 10.4968 52.1566 9.10147ZM50.3444 10.0897C50.0853 10.3665 49.6427 10.4502 49.3611 10.4743V8.40943C49.4512 8.38851 49.5445 8.38045 49.6346 8.38045C50.0161 8.38045 50.4876 8.55265 50.5504 9.37507C50.5745 9.67925 50.507 9.91262 50.3444 10.0897ZM55.9822 11.1551C56.3959 10.6079 57.4452 9.33966 57.3374 7.12026C57.3342 7.04461 57.2972 6.97219 57.2408 6.91908C57.1829 6.86919 57.1072 6.84022 57.0316 6.84666L55.8358 6.92554C55.6781 6.9368 55.559 7.07358 55.5686 7.23131C55.6089 7.86221 55.1936 9.20125 54.5965 10.0478L54.6834 7.31662C54.6866 7.23776 54.6545 7.16211 54.6013 7.10739C54.5466 7.05267 54.471 7.02048 54.3921 7.02048L52.8535 7.04624C52.7779 7.04624 52.7054 7.07843 52.6523 7.13315C52.5976 7.18787 52.5702 7.2635 52.5734 7.33914L52.728 14.5913C52.728 14.6733 52.7634 14.749 52.8294 14.8037C52.8905 14.8584 52.9742 14.8826 53.0531 14.8681L54.2521 14.7103C54.3921 14.6926 54.5 14.5735 54.5 14.4287L54.5177 12.3026C54.7591 12.4507 55.4721 13.4808 55.5944 14.5043C55.6121 14.6492 55.7344 14.7602 55.8792 14.757L57.1443 14.7506C57.1507 14.7506 57.1555 14.7506 57.162 14.7506C57.2344 14.7474 57.2988 14.7152 57.3486 14.6637C57.4034 14.609 57.4307 14.5333 57.4307 14.4577C57.4259 14.2002 56.9978 11.9727 55.9822 11.1551ZM59.5632 6.69538L58.1984 6.87242C58.0536 6.89012 57.9506 7.01244 57.9506 7.15729L57.9393 14.2613C57.9393 14.3402 57.9715 14.4158 58.0294 14.4705C58.0874 14.5253 58.1598 14.5494 58.2387 14.5462C58.2419 14.5462 58.2451 14.5462 58.2451 14.5462L59.7322 14.4384C59.8835 14.4271 59.9994 14.3016 59.9994 14.1471L59.8916 6.97863C59.8916 6.89655 59.8561 6.82093 59.7901 6.7662C59.7242 6.70987 59.6421 6.68572 59.5632 6.69538ZM62.4699 6.90461C62.0562 6.93036 60.6979 7.175 60.582 9.17713C60.5675 9.43303 60.553 9.67444 60.5385 9.90459C60.4564 11.2662 60.3985 12.2527 60.5707 13.1041C60.6754 13.6127 61.1035 14.7973 62.7902 14.7973C62.8948 14.7973 63.0026 14.794 63.1136 14.7828C63.8153 14.7248 64.3384 14.4979 64.6619 14.1132C65.127 13.5628 65.061 12.8563 65.0289 12.4781L65.0224 12.4024C65.0112 12.2479 64.8776 12.132 64.7231 12.1401L63.6608 12.1868C63.5787 12.19 63.5031 12.2302 63.4516 12.2914C63.4017 12.3558 63.3792 12.4394 63.3904 12.5183C63.4162 12.6631 63.4371 13.117 63.2537 13.3391C63.207 13.3971 63.1201 13.4727 62.9189 13.4759H62.9044C62.7499 13.4759 62.634 13.4293 62.5439 13.3359C62.3894 13.1734 62.2124 12.7742 62.2623 11.7973C62.2735 11.5703 62.2832 11.3032 62.2944 11.0231C62.3234 10.2925 62.3556 9.46359 62.4248 8.94536L62.428 8.92765C62.4779 8.53173 62.5535 8.36598 62.8851 8.3515C63.1233 8.34023 63.2843 8.38689 63.3744 8.4915C63.4854 8.62508 63.4709 8.85523 63.4613 8.92765C63.4436 9.00973 63.4645 9.09666 63.5192 9.16586C63.5739 9.23024 63.6528 9.27048 63.7397 9.2737L65.0224 9.2914C65.1737 9.2914 65.3073 9.16907 65.3137 9.01456C65.3137 8.98237 65.3346 8.20019 64.744 7.5886C64.2451 7.07037 63.479 6.83702 62.4699 6.90461ZM70.9934 14.1712C70.9757 14.0891 70.4204 11.9132 69.2938 10.8863C69.8443 10.3681 70.9693 9.34127 70.5943 7.00599C70.5685 6.8547 70.4317 6.7501 70.2804 6.76458L68.7997 6.93035C68.7209 6.93679 68.6517 6.98024 68.6018 7.0414C68.5551 7.10256 68.5374 7.18144 68.5471 7.26191C68.5503 7.28283 68.8528 8.97274 67.7037 9.98507L67.7327 7.10739C67.7327 7.02531 67.7005 6.94966 67.6394 6.89172C67.5782 6.837 67.4993 6.81286 67.4156 6.8193L65.9349 6.98507C65.7869 7.00277 65.6758 7.12991 65.6791 7.27637L65.8513 14.477C65.8545 14.5559 65.8867 14.6315 65.9479 14.6862C66.0026 14.7329 66.0734 14.7586 66.1458 14.7586C66.1522 14.7586 66.1603 14.7586 66.1667 14.7586L67.4205 14.6186C67.5605 14.6041 67.6683 14.4883 67.6764 14.3482L67.781 12.0966C68.1737 12.507 68.84 13.5548 68.9446 14.4303C68.9623 14.5848 69.1023 14.6975 69.2617 14.683L70.7423 14.5172C70.8244 14.5108 70.8968 14.4625 70.9435 14.3981C70.9966 14.3321 71.0111 14.2501 70.9934 14.1712Z" fill="white"/>
<path d="M13.5219 11.9172L13.993 8.47177L12.0213 4.14802L10.6821 4.62803L8.93435 2.66642L5.84694 0.905762L5.17085 3.51853L4.69368 2.14712L2.32203 4.57294L0.994042 6.99876L0.934937 9.51354L0 9.04752L0.637239 13.0764L2.08171 15.6711L5.49142 16.894L8.28416 17.0001L13.0991 15.1586L14.4849 11.5727L13.5219 11.9172ZM11.4389 10.0048L8.7087 10.0816L8.61034 13.2959L8.46278 15.1992L6.08422 15.1739V13.3487L5.88705 10.1597L3.03434 10.288L2.93684 7.20107L7.13867 7.17578L11.4881 7.04753L11.5614 7.45891L11.4389 10.0048Z" fill="white"/>
</svg>
