<svg width="35" height="47" viewBox="0 0 35 47" fill="none" xmlns="http://www.w3.org/2000/svg">
<path d="M3.4935 41.7052L0.713504 41.7922C0.664504 41.7942 0.619504 41.8142 0.588504 41.8502C0.557504 41.8862 0.539522 41.9331 0.543522 41.9821L0.594516 42.7392C0.601516 42.8332 0.679516 42.9072 0.775516 42.9052L1.5325 42.8961L1.70252 46.4501C1.70452 46.4971 1.7275 46.5421 1.7605 46.5751C1.7965 46.6061 1.84351 46.6241 1.89051 46.6201L2.7435 46.5621C2.8395 46.5551 2.91152 46.4752 2.90952 46.3782L2.81153 42.8772L3.55951 42.8681C3.60851 42.8681 3.6535 42.8461 3.6875 42.8101C3.7215 42.7741 3.7365 42.7251 3.7345 42.6781L3.68052 41.8701C3.66952 41.7761 3.5895 41.7022 3.4935 41.7052ZM6.72953 41.9351L5.89051 41.8882C5.79451 41.8862 5.71552 41.9622 5.71152 42.0562L5.69852 43.9091L5.33353 43.9872L5.24152 41.8851C5.23752 41.7911 5.16052 41.7171 5.06452 41.7151L4.23651 41.7352C4.18751 41.7352 4.14252 41.7531 4.10852 41.7861C4.07452 41.8191 4.05453 41.8672 4.05753 41.9142L4.20951 46.5901C4.21151 46.6861 4.29051 46.7652 4.38651 46.7652L5.21451 46.7451C5.26351 46.7451 5.3085 46.7272 5.3425 46.6942C5.3765 46.6612 5.39653 46.6131 5.39353 46.5661L5.30152 45.0012L5.62653 45.0231L5.68451 46.4241C5.68251 46.4731 5.70052 46.5182 5.73352 46.5542C5.76652 46.5902 5.81151 46.6102 5.86151 46.6102L6.72553 46.6702C6.72953 46.6702 6.73251 46.6702 6.73651 46.6702C6.82851 46.6662 6.90253 46.5922 6.90653 46.4982L6.91053 42.1132C6.91253 42.0662 6.89451 42.0192 6.86151 41.9832C6.82351 41.9552 6.77853 41.9371 6.72953 41.9351ZM9.84751 41.5442L9.08252 41.6022C8.99052 41.6092 8.91951 41.6852 8.91651 41.7792C8.91651 41.7792 8.92351 44.7042 8.91251 45.0872C8.90551 45.3132 8.93751 45.6962 8.68851 45.7072C8.51851 45.7142 8.45753 45.4631 8.45353 45.1091C8.44953 44.7111 8.48252 41.9892 8.48252 41.9622C8.48252 41.8702 8.41552 41.7922 8.32352 41.7832L7.45551 41.6911C7.40451 41.6871 7.3545 41.7021 7.3165 41.7361C7.2785 41.7701 7.25852 41.8191 7.25852 41.8701C7.25852 41.8701 7.29253 45.2992 7.29453 45.4202C7.30353 45.8632 7.64852 46.6621 8.61252 46.6351C9.69352 46.6061 9.88851 45.9612 9.95551 45.2112C9.98251 44.8982 10.0335 42.0422 10.0365 41.7242C10.0365 41.6752 10.0165 41.6261 9.9805 41.5921C9.9455 41.5571 9.89651 41.5392 9.84751 41.5442ZM13.2075 41.7292L12.4155 41.7672C12.3685 41.7692 12.3235 41.7921 12.2905 41.8271C12.2595 41.8631 12.2435 41.9102 12.2455 41.9572L12.3775 44.1532L11.5535 41.8831C11.5245 41.8071 11.4485 41.7602 11.3675 41.7672L10.5725 41.8542C10.4805 41.8632 10.4115 41.9412 10.4135 42.0332L10.5455 46.3622C10.5455 46.4562 10.6175 46.5322 10.7115 46.5392L11.5085 46.5972C11.5595 46.6012 11.6095 46.5812 11.6455 46.5462C11.6815 46.5102 11.7015 46.4611 11.6995 46.4091L11.5745 44.5132L12.2615 46.4801C12.2865 46.5471 12.3465 46.5921 12.4185 46.5961H13.2575C13.2645 46.5961 13.2705 46.5961 13.2755 46.5961C13.3185 46.5941 13.3585 46.5761 13.3895 46.5471C13.4255 46.5131 13.4455 46.4641 13.4455 46.4151L13.3945 41.8981C13.3945 41.8491 13.3745 41.8042 13.3385 41.7702C13.3035 41.7452 13.2565 41.7272 13.2075 41.7292ZM14.2705 41.6382C14.2145 41.6382 14.1585 41.6382 14.1005 41.6402C14.0065 41.6422 13.9305 41.7181 13.9285 41.8121L13.7855 46.3112C13.7835 46.4052 13.8545 46.4881 13.9485 46.4951C13.9525 46.4951 14.0535 46.5041 14.2125 46.5041C14.7725 46.5041 16.1035 46.4031 16.4125 45.4651C16.6695 44.6841 16.6275 43.6182 16.5625 43.1132C16.4345 42.1192 15.6875 41.6382 14.2705 41.6382ZM15.4585 44.6012C15.3645 45.3622 15.1255 45.4091 14.8655 45.4991L14.9885 42.6741C15.0785 42.6991 15.1945 42.6962 15.3395 42.8912C15.5555 43.1772 15.5525 43.8602 15.4585 44.6012ZM19.1655 45.7021L18.1225 45.7832L18.0735 44.8092L18.7475 44.7711C18.8345 44.7671 18.9045 44.6992 18.9135 44.6122L18.9765 44.0121C18.9835 43.9611 18.9655 43.9092 18.9295 43.8712C18.8935 43.8332 18.8425 43.8132 18.7905 43.8152L18.0585 43.8531V42.7942H19.1395C19.2405 42.7962 19.3185 42.7132 19.3185 42.6152C19.3185 42.6022 19.3165 42.5881 19.3145 42.5751L19.2545 41.9422C19.2455 41.8482 19.1675 41.7792 19.0705 41.7812L17.0895 41.8302C16.9915 41.8322 16.9145 41.9132 16.9175 42.0112L16.9805 46.4612C16.9825 46.5572 17.0615 46.6362 17.1595 46.6362H19.1625C19.2585 46.6362 19.3375 46.5602 19.3415 46.4642L19.3575 45.8842C19.3595 45.8332 19.3375 45.7862 19.3015 45.7502C19.2665 45.7162 19.2165 45.6981 19.1655 45.7021ZM22.4065 43.0921C22.3615 42.4681 22.1465 41.6392 20.7885 41.6392C20.4975 41.6392 20.1555 41.6772 19.7725 41.7512C19.6875 41.7672 19.6265 41.8431 19.6295 41.9281L19.6925 46.2812C19.6945 46.3732 19.7645 46.4491 19.8555 46.4561L20.4795 46.5052C20.5285 46.5092 20.5775 46.4921 20.6135 46.4581C20.6495 46.4241 20.6715 46.3772 20.6715 46.3282V44.9252L20.9895 44.9071L21.3435 46.4091C21.3595 46.4941 21.4335 46.5542 21.5185 46.5542C21.5225 46.5542 21.5275 46.5542 21.5315 46.5542L22.1555 46.5052C22.2045 46.5012 22.2515 46.4762 22.2835 46.4362C22.3145 46.3962 22.3265 46.3442 22.3195 46.2952L21.8765 44.6232C22.1805 44.3882 22.4685 43.9591 22.4065 43.0921ZM21.2805 43.7061C21.1195 43.8781 20.8445 43.9302 20.6695 43.9452V42.6622C20.7255 42.6492 20.7835 42.6441 20.8395 42.6441C21.0765 42.6441 21.3695 42.7511 21.4085 43.2621C21.4235 43.4511 21.3815 43.5961 21.2805 43.7061ZM24.7835 44.3681C25.0405 44.0281 25.6925 43.2401 25.6255 41.8611C25.6235 41.8141 25.6005 41.7691 25.5655 41.7361C25.5295 41.7051 25.4825 41.6871 25.4355 41.6911L24.6925 41.7402C24.5945 41.7472 24.5205 41.8321 24.5265 41.9301C24.5515 42.3221 24.2935 43.1541 23.9225 43.6801L23.9765 41.9832C23.9785 41.9342 23.9585 41.8871 23.9255 41.8531C23.8915 41.8191 23.8445 41.7991 23.7955 41.7991L22.8395 41.8152C22.7925 41.8152 22.7475 41.8352 22.7145 41.8692C22.6805 41.9032 22.6635 41.9501 22.6655 41.9971L22.7615 46.5032C22.7615 46.5542 22.7835 46.6011 22.8245 46.6351C22.8625 46.6691 22.9145 46.6842 22.9635 46.6752L23.7085 46.5771C23.7955 46.5661 23.8625 46.4921 23.8625 46.4021L23.8735 45.0811C24.0235 45.1731 24.4665 45.8132 24.5425 46.4492C24.5535 46.5392 24.6295 46.6082 24.7195 46.6062L25.5055 46.6022C25.5095 46.6022 25.5125 46.6022 25.5165 46.6022C25.5615 46.6002 25.6015 46.5802 25.6325 46.5482C25.6665 46.5142 25.6835 46.4672 25.6835 46.4202C25.6805 46.2602 25.4145 44.8761 24.7835 44.3681ZM27.0085 41.5972L26.1605 41.7072C26.0705 41.7182 26.0065 41.7942 26.0065 41.8842L25.9995 46.2982C25.9995 46.3472 26.0195 46.3941 26.0555 46.4281C26.0915 46.4621 26.1365 46.4772 26.1855 46.4752C26.1875 46.4752 26.1895 46.4752 26.1895 46.4752L27.1135 46.4082C27.2075 46.4012 27.2795 46.3232 27.2795 46.2272L27.2125 41.7731C27.2125 41.7221 27.1905 41.6752 27.1495 41.6412C27.1085 41.6062 27.0575 41.5912 27.0085 41.5972ZM28.8145 41.7272C28.5575 41.7432 27.7135 41.8952 27.6415 43.1392C27.6325 43.2982 27.6235 43.4482 27.6145 43.5912C27.5635 44.4372 27.5275 45.0501 27.6345 45.5791C27.6995 45.8951 27.9655 46.6311 29.0135 46.6311C29.0785 46.6311 29.1455 46.6291 29.2145 46.6221C29.6505 46.5861 29.9755 46.4451 30.1765 46.2061C30.4655 45.8641 30.4245 45.4252 30.4045 45.1902L30.4005 45.1432C30.3935 45.0472 30.3105 44.9751 30.2145 44.9801L29.5545 45.0092C29.5035 45.0112 29.4565 45.0362 29.4245 45.0742C29.3935 45.1142 29.3795 45.1661 29.3865 45.2151C29.4025 45.3051 29.4155 45.5872 29.3015 45.7252C29.2725 45.7612 29.2185 45.8081 29.0935 45.8101H29.0845C28.9885 45.8101 28.9165 45.7812 28.8605 45.7232C28.7645 45.6222 28.6545 45.3742 28.6855 44.7672C28.6925 44.6262 28.6985 44.4601 28.7055 44.2861C28.7235 43.8321 28.7435 43.3171 28.7865 42.9951L28.7885 42.9841C28.8195 42.7381 28.8665 42.6352 29.0725 42.6262C29.2205 42.6192 29.3205 42.6481 29.3765 42.7131C29.4455 42.7961 29.4365 42.9391 29.4305 42.9841C29.4195 43.0351 29.4325 43.0892 29.4665 43.1322C29.5005 43.1722 29.5495 43.1972 29.6035 43.1992L30.4005 43.2102C30.4945 43.2102 30.5775 43.1341 30.5815 43.0381C30.5815 43.0181 30.5945 42.5321 30.2275 42.1521C29.9175 41.8301 29.4415 41.6852 28.8145 41.7272ZM34.1105 46.2422C34.0995 46.1912 33.7545 44.8392 33.0545 44.2012C33.3965 43.8792 34.0955 43.2411 33.8625 41.7901C33.8465 41.6961 33.7615 41.6312 33.6675 41.6402L32.7475 41.7431C32.6985 41.7471 32.6555 41.7741 32.6245 41.8121C32.5955 41.8501 32.5845 41.8992 32.5905 41.9492C32.5925 41.9622 32.7805 43.0122 32.0665 43.6412L32.0845 41.8531C32.0845 41.8021 32.0645 41.7551 32.0265 41.7191C31.9885 41.6851 31.9395 41.6701 31.8875 41.6741L30.9675 41.7771C30.8755 41.7881 30.8065 41.8671 30.8085 41.9581L30.9155 46.4322C30.9175 46.4812 30.9375 46.5281 30.9755 46.5621C31.0095 46.5911 31.0535 46.6071 31.0985 46.6071C31.1025 46.6071 31.1075 46.6071 31.1115 46.6071L31.8905 46.5202C31.9775 46.5112 32.0445 46.4392 32.0495 46.3522L32.1145 44.9532C32.3585 45.2082 32.7725 45.8592 32.8375 46.4032C32.8485 46.4992 32.9355 46.5691 33.0345 46.5601L33.9545 46.4572C34.0055 46.4532 34.0505 46.4231 34.0795 46.3831C34.1125 46.3421 34.1215 46.2912 34.1105 46.2422Z" fill="white"/>
<path d="M31.8586 25.0032L32.9506 17.3732L28.3806 7.79817L25.2766 8.86116L21.2256 4.51717L14.0696 0.618164L12.5026 6.40417L11.3966 3.36717L5.89957 8.73917L2.82156 14.1112L2.68457 19.6802L0.517578 18.6482L1.99457 27.5702L5.34256 33.3162L13.2456 36.0242L19.7186 36.2592L30.8786 32.1812L34.0906 24.2402L31.8586 25.0032ZM27.0306 20.7682L20.7026 20.9382L20.4746 28.0562L20.1326 32.2712L14.6196 32.2152V28.1732L14.1626 21.1112L7.55057 21.3952L7.32458 14.5592L17.0636 14.5032L27.1446 14.2192L27.3146 15.1302L27.0306 20.7682Z" fill="white"/>
</svg>
