<svg width="66" height="22" viewBox="0 0 66 22" fill="none" xmlns="http://www.w3.org/2000/svg">
<path d="M5.77484 20.8649C5.77484 20.9649 5.81785 21.0219 5.88885 21.0219C5.90285 21.0219 5.91785 21.0219 5.93185 21.0219C5.97485 21.0219 5.98885 21.0219 6.01785 21.0509L6.18884 21.4649C6.20284 21.5079 6.18885 21.5359 6.15985 21.5509C6.07385 21.5799 5.97385 21.6079 5.88885 21.6079C5.41685 21.6079 5.13184 21.3369 5.13184 20.8649V17.4359C5.13184 17.3929 5.16084 17.3649 5.18884 17.3649H5.70285C5.74585 17.3649 5.75986 17.3939 5.75986 17.4359V20.8649H5.77484Z" fill="white"/>
<path d="M8.34695 21.4789C8.34695 21.5219 8.31798 21.5359 8.28998 21.5359H7.77597C7.73297 21.5359 7.71896 21.5069 7.71896 21.4789V19.2929H7.43298C7.38998 19.2929 7.37598 19.2639 7.37598 19.2219V18.7789C7.37598 18.7359 7.40498 18.7079 7.43298 18.7079H8.30496C8.34796 18.7079 8.36197 18.7369 8.36197 18.7789V21.4799L8.34695 21.4789ZM8.33298 17.7069C8.33298 17.9639 8.18996 18.1069 7.94696 18.1069C7.70396 18.1069 7.56097 17.9639 7.56097 17.7069C7.56097 17.4639 7.70396 17.3209 7.94696 17.3209C8.20396 17.3209 8.33298 17.4639 8.33298 17.7069Z" fill="white"/>
<path d="M12.677 20.7079C12.677 20.9079 12.763 21.0219 12.906 21.0219C12.963 21.0219 13.006 21.0219 13.063 20.9929C13.106 20.9789 13.134 20.9789 13.149 21.0219L13.335 21.4219C13.349 21.4509 13.335 21.4789 13.306 21.5079C13.206 21.5649 13.049 21.6079 12.906 21.6079C12.349 21.6079 12.034 21.2789 12.034 20.7079V19.2929H10.777V21.4789C10.777 21.5219 10.748 21.5359 10.706 21.5359H10.192C10.149 21.5359 10.135 21.5069 10.135 21.4789V19.2929H9.849C9.806 19.2929 9.79199 19.2639 9.79199 19.2219V18.7789C9.79199 18.7359 9.821 18.7079 9.849 18.7079H10.135V18.3079C10.135 17.6789 10.507 17.2929 11.121 17.2929C11.221 17.2929 11.335 17.3219 11.464 17.3499L11.507 17.3639C11.55 17.3779 11.564 17.4069 11.55 17.4499L11.421 17.8789C11.407 17.9219 11.378 17.9359 11.335 17.9219L11.306 17.9079C11.249 17.8939 11.192 17.8789 11.12 17.8789C10.906 17.8789 10.777 18.0359 10.777 18.3079V18.7079H12.034V18.0359C12.034 18.0069 12.048 17.9789 12.091 17.9649L12.605 17.7939C12.648 17.7799 12.676 17.7939 12.676 17.8509V18.7079H13.333C13.376 18.7079 13.39 18.7369 13.39 18.7789V19.2219C13.39 19.2649 13.361 19.2929 13.333 19.2929H12.676L12.677 20.7079Z" fill="white"/>
<path d="M15.4771 20.2929C14.9911 20.1639 14.7631 19.9209 14.7631 19.5069C14.7631 18.9779 15.1491 18.6639 15.8351 18.6639C16.0921 18.6639 16.3641 18.7069 16.5641 18.7639L16.8211 18.8209C16.8641 18.8349 16.8781 18.8639 16.8641 18.9069L16.7351 19.3499C16.7211 19.3929 16.6921 19.4069 16.6491 19.3929L16.3921 19.3219C16.2351 19.2789 16.0061 19.2509 15.8351 19.2509C15.5641 19.2509 15.4061 19.3509 15.4061 19.5079C15.4061 19.6369 15.4921 19.7219 15.6631 19.7789L16.2491 19.9359C16.7491 20.0649 16.9781 20.3219 16.9781 20.7499C16.9781 21.2929 16.5641 21.6359 15.8781 21.6359C15.5781 21.6359 15.2781 21.5929 14.9921 21.5069L14.7631 21.4499C14.7201 21.4359 14.7061 21.4069 14.7201 21.3639L14.8491 20.9209C14.8631 20.8779 14.8921 20.8639 14.9201 20.8779L15.1341 20.9349C15.3481 20.9919 15.6631 21.0349 15.8771 21.0349C16.1631 21.0349 16.3201 20.9209 16.3201 20.7489C16.3201 20.6059 16.2341 20.5199 16.0491 20.4629L15.4771 20.2929Z" fill="white"/>
<path d="M21.8498 19.5069C21.8498 19.9359 21.6208 20.1789 21.1928 20.1789C20.7928 20.1789 20.5498 19.9359 20.5498 19.5069C20.5498 19.0639 20.7928 18.8069 21.1928 18.8069C21.6218 18.8209 21.8498 19.0639 21.8498 19.5069Z" fill="white"/>
<path d="M27.409 21.5219C27.195 21.5789 26.995 21.5929 26.809 21.5929C25.923 21.5929 25.437 21.0209 25.437 20.1209C25.437 19.2069 25.937 18.6489 26.78 18.6489C27.48 18.6489 27.909 18.9919 27.909 19.5779C27.909 20.0209 27.637 20.2779 27.052 20.3639L26.138 20.5069C26.195 20.8209 26.438 21.0069 26.795 21.0069C26.952 21.0069 27.138 20.9929 27.252 20.9499L27.509 20.8929C27.552 20.8789 27.58 20.8929 27.595 20.9359L27.709 21.3789C27.723 21.4219 27.709 21.4499 27.666 21.4649L27.409 21.5219ZM26.966 19.8789C27.166 19.8499 27.28 19.7499 27.28 19.5929C27.28 19.3639 27.094 19.2359 26.78 19.2359C26.394 19.2359 26.137 19.4789 26.08 20.0079L26.966 19.8789Z" fill="white"/>
<path d="M30.0228 20.2929C29.5368 20.1639 29.3088 19.9209 29.3088 19.5069C29.3088 18.9779 29.6948 18.6639 30.3808 18.6639C30.6378 18.6639 30.9098 18.7069 31.1098 18.7639L31.3668 18.8209C31.4098 18.8349 31.4238 18.8639 31.4098 18.9069L31.2808 19.3499C31.2668 19.3929 31.2378 19.4069 31.1948 19.3929L30.9378 19.3219C30.7808 19.2789 30.5518 19.2509 30.3658 19.2509C30.0938 19.2509 29.9368 19.3509 29.9368 19.5079C29.9368 19.6369 30.0228 19.7219 30.1938 19.7789L30.7798 19.9359C31.2798 20.0649 31.5088 20.3219 31.5088 20.7499C31.5088 21.2929 31.0948 21.6359 30.4088 21.6359C30.1088 21.6359 29.8088 21.5929 29.5228 21.5069L29.2938 21.4499C29.2508 21.4359 29.2368 21.4069 29.2508 21.3639L29.3798 20.9209C29.3938 20.8779 29.4228 20.8639 29.4508 20.8779L29.6648 20.9349C29.8788 20.9919 30.1938 21.0349 30.4078 21.0349C30.6938 21.0349 30.8508 20.9209 30.8508 20.7489C30.8508 20.6059 30.7648 20.5199 30.5798 20.4629L30.0228 20.2929Z" fill="white"/>
<path d="M34.7391 21.5219C34.5681 21.5649 34.3821 21.5929 34.1961 21.5929C33.3101 21.5929 32.8101 21.0209 32.8101 20.1069C32.8101 19.2069 33.2961 18.6349 34.2101 18.6349C34.3671 18.6349 34.5241 18.6489 34.7101 18.7059L34.9671 18.7769C35.0101 18.7909 35.0241 18.8199 35.0101 18.8629L34.8811 19.3059C34.8671 19.3349 34.8381 19.3629 34.8101 19.3489L34.61 19.2919C34.467 19.2489 34.3241 19.2349 34.2241 19.2349C33.7101 19.2349 33.4671 19.5639 33.4671 20.1069C33.4671 20.6789 33.7241 21.0069 34.2101 21.0069C34.3241 21.0069 34.4961 20.9779 34.6391 20.9499L34.8251 20.8929C34.8681 20.8789 34.8961 20.8929 34.9111 20.9359L35.0401 21.3789C35.0541 21.4219 35.0401 21.4499 34.9971 21.4649L34.7391 21.5219Z" fill="white"/>
<path d="M36.839 18.7499C37.039 18.6929 37.239 18.6639 37.468 18.6639C38.254 18.6639 38.74 19.0639 38.74 19.7789V21.4789C38.74 21.5219 38.711 21.5359 38.683 21.5359H38.397C38.354 21.5359 38.34 21.5219 38.326 21.4789L38.269 21.3079C38.24 21.2219 38.198 21.2219 38.126 21.2939C37.94 21.4939 37.683 21.6079 37.326 21.6079C36.683 21.6079 36.311 21.2789 36.311 20.7219C36.311 20.1789 36.683 19.8219 37.368 19.8219H38.097V19.7929C38.097 19.4359 37.868 19.2499 37.44 19.2499C37.269 19.2499 37.126 19.2639 36.983 19.3069L36.769 19.3639C36.726 19.3779 36.698 19.3639 36.683 19.3209L36.554 18.8919C36.54 18.8489 36.554 18.8209 36.597 18.8059L36.839 18.7499ZM37.382 20.3359C37.096 20.3359 36.968 20.4649 36.968 20.6649C36.968 20.8939 37.125 21.0369 37.411 21.0369C37.868 21.0369 38.125 20.8079 38.125 20.3799V20.3369L37.382 20.3359Z" fill="white"/>
<path d="M40.9399 20.8649C40.9399 20.9649 40.9829 21.0219 41.0539 21.0219C41.0679 21.0219 41.0829 21.0219 41.0969 21.0219C41.1399 21.0219 41.1539 21.0219 41.1829 21.0509L41.3539 21.4649C41.3679 21.5079 41.3539 21.5359 41.3249 21.5509C41.2389 21.5799 41.1389 21.6079 41.0539 21.6079C40.5819 21.6079 40.2969 21.3369 40.2969 20.8649V17.4359C40.2969 17.3929 40.3259 17.3649 40.3539 17.3649H40.8679C40.9109 17.3649 40.9389 17.3939 40.9389 17.4359V20.8649H40.9399Z" fill="white"/>
<path d="M43.1118 18.7499C43.3118 18.6929 43.5118 18.6639 43.7408 18.6639C44.5268 18.6639 45.0128 19.0639 45.0128 19.7789V21.4789C45.0128 21.5219 44.9838 21.5359 44.9558 21.5359H44.6698C44.6268 21.5359 44.6128 21.5219 44.5988 21.4789L44.5558 21.2929C44.5268 21.2069 44.4848 21.2069 44.4128 21.2789C44.2268 21.4789 43.9698 21.5929 43.6128 21.5929C42.9698 21.5929 42.6128 21.2639 42.6128 20.7069C42.6128 20.1639 42.9848 19.8069 43.6698 19.8069H44.3988V19.7779C44.3988 19.4209 44.1698 19.2349 43.7418 19.2349C43.5708 19.2349 43.4278 19.2489 43.2848 19.2919L43.0708 19.3489C43.0278 19.3629 42.9998 19.3489 42.9848 19.3059L42.8558 18.8769C42.8418 18.8339 42.8558 18.8059 42.8988 18.7909L43.1118 18.7499ZM43.6548 20.3359C43.3688 20.3359 43.2408 20.4649 43.2408 20.6649C43.2408 20.8939 43.3978 21.0369 43.6838 21.0369C44.1408 21.0369 44.3978 20.8079 44.3978 20.3799V20.3369L43.6548 20.3359Z" fill="white"/>
<path d="M48.0559 18.7209C48.0989 18.7209 48.127 18.7499 48.127 18.7919V19.2349C48.127 19.2779 48.0979 19.3059 48.0559 19.3059H47.3989V20.7209C47.3989 20.9209 47.4849 21.0349 47.6279 21.0349C47.6849 21.0349 47.7279 21.0349 47.7849 21.0059C47.8279 20.9919 47.8559 20.9919 47.8709 21.0349L48.0569 21.4349C48.0709 21.4639 48.057 21.4919 48.028 21.5209C47.928 21.5779 47.7709 21.6209 47.6279 21.6209C47.0709 21.6209 46.756 21.2919 46.756 20.7209V19.3059H46.4699C46.4269 19.3059 46.3989 19.2769 46.3989 19.2349V18.7919C46.3989 18.7489 46.4279 18.7209 46.4699 18.7209H46.756V18.0499C46.756 18.0209 46.7699 17.9929 46.8129 17.9789L47.3269 17.8079C47.3699 17.7939 47.3979 17.8079 47.3979 17.8649V18.7219L48.0559 18.7209Z" fill="white"/>
<path d="M52.0571 20.1219C52.0571 21.0359 51.5431 21.6079 50.7141 21.6079C49.8851 21.6079 49.3711 21.0359 49.3711 20.1219C49.3711 19.2219 49.8851 18.6499 50.7141 18.6499C51.5431 18.6639 52.0571 19.2219 52.0571 20.1219ZM50.0141 20.1219C50.0141 20.6789 50.2711 21.0079 50.7141 21.0079C51.1431 21.0079 51.4141 20.6789 51.4141 20.1219C51.4141 19.5649 51.1431 19.2359 50.7141 19.2359C50.2851 19.2359 50.0141 19.5639 50.0141 20.1219Z" fill="white"/>
<path d="M55.1426 19.1789C55.1426 19.2219 55.1136 19.2359 55.0856 19.2359C54.4566 19.2649 54.1716 19.7079 54.1716 20.7789V21.4649C54.1716 21.5079 54.1426 21.5219 54.1006 21.5219H53.5866C53.5436 21.5219 53.5156 21.4929 53.5156 21.4649V18.7639C53.5156 18.7209 53.5446 18.6929 53.5866 18.6929H53.8726C53.9156 18.6929 53.9296 18.7069 53.9436 18.7499L54.0436 19.0789C54.0726 19.1499 54.1006 19.1499 54.1576 19.0929C54.3866 18.7929 54.6576 18.6499 55.0716 18.6359C55.1146 18.6359 55.1286 18.6649 55.1286 18.6929V19.1789H55.1426Z" fill="white"/>
<path d="M57.2439 20.2929C56.7579 20.1639 56.5299 19.9209 56.5299 19.5069C56.5299 18.9779 56.9159 18.6639 57.6019 18.6639C57.8589 18.6639 58.1309 18.7069 58.3159 18.7639L58.5729 18.8209C58.6159 18.8349 58.6299 18.8639 58.6159 18.9069L58.4869 19.3499C58.4729 19.3929 58.4439 19.4069 58.4009 19.3929L58.1439 19.3219C57.9869 19.2789 57.7579 19.2509 57.5719 19.2509C57.3009 19.2509 57.1429 19.3509 57.1429 19.5079C57.1429 19.6369 57.2289 19.7219 57.3999 19.7789L57.9859 19.9359C58.4859 20.0649 58.7149 20.3219 58.7149 20.7499C58.7149 21.2929 58.3149 21.6359 57.6149 21.6359C57.3149 21.6359 57.0149 21.5929 56.7289 21.5069L56.4999 21.4499C56.4569 21.4359 56.4429 21.4069 56.4569 21.3639L56.5859 20.9209C56.5999 20.8779 56.6289 20.8639 56.6569 20.8779L56.8709 20.9349C57.0849 20.9919 57.3999 21.0349 57.6139 21.0349C57.8999 21.0349 58.0569 20.9209 58.0569 20.7489C58.0569 20.6059 57.9709 20.5199 57.7849 20.4629L57.2439 20.2929Z" fill="white"/>
<path d="M11.8908 11.348C12.0198 12.32 12.8629 13.02 14.2339 13.02C14.9479 13.02 15.8919 12.749 16.3339 12.291L17.5768 13.52C16.7478 14.377 15.3909 14.792 14.1909 14.792C11.4759 14.792 9.86084 13.12 9.86084 10.591C9.86084 8.20495 11.4899 6.47595 14.0479 6.47595C16.6769 6.47595 18.3198 8.10495 18.0198 11.349H11.8908V11.348ZM16.1628 9.73395C16.0338 8.71895 15.2338 8.20495 14.1198 8.20495C13.0628 8.20495 12.2049 8.71895 11.9199 9.73395H16.1628Z" fill="white"/>
<path d="M21.3358 6.71894L21.4788 7.63295C22.0788 6.66095 22.8938 6.51794 23.6938 6.51794C24.5078 6.51794 25.2938 6.83194 25.7228 7.26094L24.8508 8.94694C24.4508 8.61794 24.0788 8.43294 23.4508 8.43294C22.4358 8.43294 21.4928 8.97595 21.4928 10.4329V14.5769H19.5498V6.71795L21.3358 6.71894Z" fill="white"/>
<path d="M29.6946 4.50391V6.73291H31.8666V8.40491H29.6806V11.8059C29.6806 12.5629 30.0946 12.9209 30.6956 12.9209C30.9956 12.9209 31.3526 12.8209 31.6386 12.6779L32.1816 14.3359C31.6246 14.5649 31.1676 14.6499 30.5666 14.6789C28.8516 14.7359 27.7376 13.7649 27.7376 11.8069V8.42091H26.2656V6.73491H27.7376V4.70591L29.6946 4.50391Z" fill="white"/>
<path d="M35.4387 4.50393C35.4387 6.01893 33.1377 6.01893 33.1377 4.50393C33.1527 2.98893 35.4387 2.98893 35.4387 4.50393ZM33.3237 14.5919H35.2667V6.68993H33.3237V14.5919Z" fill="white"/>
<path d="M38.9679 3.43195V7.78995C39.4249 6.97595 40.7259 6.53295 41.5539 6.53295C43.8549 6.53295 45.5549 7.93295 45.5549 10.6479C45.5549 13.2339 43.8119 14.7629 41.4969 14.7629C40.5399 14.7629 39.5679 14.4489 38.9539 13.5059L38.8399 14.5919H37.0249V3.43195H38.9679ZM39.0969 10.6479C39.0969 12.0629 40.1539 12.9629 41.3829 12.9629C42.6259 12.9629 43.6119 12.0199 43.6119 10.6479C43.6119 9.23295 42.6259 8.34695 41.3829 8.34695C40.1539 8.34795 39.0969 9.27595 39.0969 10.6479Z" fill="white"/>
<path d="M48.9987 6.71896V10.834C48.9987 12.034 49.6557 12.934 50.8987 12.934C52.0987 12.934 52.9137 11.934 52.9137 10.734V6.71896H54.8427V14.606H53.0997L52.9707 13.534C52.1567 14.334 51.4137 14.72 50.3127 14.72C48.4267 14.72 47.0547 13.305 47.0547 10.862V6.71796L48.9987 6.71896Z" fill="white"/>
<path d="M61.7015 8.80493C61.1445 8.27593 60.5015 8.10493 59.7585 8.10493C58.8295 8.10493 58.3295 8.39093 58.3295 8.89093C58.3295 9.40493 58.7865 9.69093 59.8015 9.74793C61.2875 9.84793 63.1736 10.1769 63.1736 12.2629C63.1736 13.6489 62.0445 14.8489 59.7875 14.8489C58.5445 14.8489 57.3016 14.6349 56.1436 13.4489L57.1006 12.0629C57.6576 12.6919 58.9296 13.1489 59.8156 13.1629C60.5446 13.1769 61.2305 12.7909 61.2305 12.2199C61.2305 11.6769 60.7876 11.4479 59.6736 11.3909C58.1876 11.2769 56.4155 10.7339 56.4155 8.94793C56.4155 7.13293 58.3015 6.48993 59.7305 6.48993C60.9595 6.48993 61.8885 6.73293 62.7885 7.53293L61.7015 8.80493Z" fill="white"/>
<path d="M6.01776 6.48993V7.98993H7.10376L5.24576 11.1049L3.38876 7.98993H4.54575V6.48993H0.259766L5.24576 14.8629L10.2328 6.48993H6.01776Z" fill="white"/>
<path d="M2.74561 4.98993L5.2746 0.731934L7.8176 4.98993H2.74561Z" fill="white"/>
<path d="M64.1165 3.41791C64.6455 3.41791 65.0595 3.84691 65.0595 4.37491C65.0595 4.91791 64.6305 5.33191 64.1025 5.33191C63.5735 5.33191 63.1455 4.90291 63.1455 4.37491C63.1585 3.84691 63.5875 3.41791 64.1165 3.41791ZM64.1025 3.60391C63.7025 3.60391 63.3735 3.94691 63.3735 4.37591C63.3735 4.80491 63.7025 5.14791 64.1025 5.14791C64.5025 5.14791 64.8315 4.80491 64.8315 4.37591C64.8455 3.94691 64.5165 3.60391 64.1025 3.60391ZM63.9445 4.93291H63.7155V3.86091C63.8015 3.84691 63.9015 3.83191 64.0585 3.83191C64.2445 3.83191 64.3585 3.86091 64.4305 3.91791C64.4875 3.96091 64.5305 4.03191 64.5305 4.14691C64.5305 4.27591 64.4445 4.36091 64.3305 4.38991V4.40391C64.4305 4.41791 64.4875 4.50391 64.5015 4.66091C64.5155 4.83191 64.5445 4.88991 64.5585 4.91791H64.3295C64.3005 4.87491 64.2865 4.78891 64.2725 4.64691C64.2585 4.53291 64.1865 4.48991 64.0725 4.48991H63.9725V4.93291H63.9445ZM63.9445 4.31791H64.0445C64.1735 4.31791 64.2735 4.27491 64.2735 4.16091C64.2735 4.07491 64.2165 4.00391 64.0595 4.00391C64.0025 4.00391 63.9595 4.00391 63.9305 4.00391V4.31791H63.9445Z" fill="white"/>
</svg>
