<svg width="373" height="323" viewBox="0 0 373 323" fill="none" xmlns="http://www.w3.org/2000/svg">
<g clip-path="url(#clip0_4213_12512)">
<path d="M289.813 214.91C288.986 215.131 287.89 214.887 287.366 214.363C286.842 213.839 287.086 213.233 287.913 213.012C288.74 212.791 289.837 213.036 290.361 213.56C290.884 214.083 290.64 214.688 289.813 214.91Z" fill="white"/>
<path d="M302.719 202.392C301.892 202.613 300.796 202.368 300.272 201.844C299.748 201.32 299.993 200.714 300.819 200.493C301.646 200.272 302.743 200.517 303.267 201.041C303.792 201.565 303.546 202.169 302.719 202.392Z" fill="white"/>
<path d="M315.461 189.811C314.634 190.032 313.538 189.787 313.014 189.263C312.49 188.739 312.735 188.133 313.562 187.912C314.389 187.691 315.485 187.936 316.009 188.46C316.533 188.984 316.288 189.59 315.461 189.811Z" fill="white"/>
<path d="M303.528 226.428C302.701 226.649 301.604 226.405 301.08 225.881C300.557 225.357 300.801 224.751 301.628 224.53C302.455 224.309 303.551 224.554 304.075 225.078C304.599 225.602 304.355 226.206 303.528 226.428Z" fill="white"/>
<path d="M316.43 213.91C315.603 214.131 314.507 213.886 313.983 213.362C313.459 212.838 313.703 212.232 314.53 212.012C315.357 211.791 316.454 212.035 316.978 212.559C317.503 213.083 317.257 213.688 316.43 213.91Z" fill="white"/>
<path d="M329.168 201.33C328.342 201.551 327.245 201.307 326.721 200.783C326.197 200.259 326.442 199.653 327.269 199.432C328.096 199.211 329.192 199.456 329.716 199.98C330.24 200.503 329.995 201.108 329.168 201.33Z" fill="white"/>
<path d="M341.907 188.866C341.08 189.087 339.983 188.842 339.459 188.318C338.935 187.794 339.18 187.189 340.007 186.968C340.834 186.747 341.93 186.991 342.454 187.515C342.98 188.04 342.734 188.645 341.907 188.866Z" fill="white"/>
<path d="M317.239 235.316C316.412 235.537 315.315 235.293 314.791 234.769C314.267 234.245 314.512 233.639 315.339 233.418C316.166 233.197 317.262 233.441 317.786 233.965C318.312 234.491 318.066 235.095 317.239 235.316Z" fill="white"/>
<path d="M330.137 222.799C329.31 223.02 328.214 222.775 327.69 222.252C327.166 221.728 327.41 221.122 328.237 220.901C329.064 220.68 330.161 220.924 330.685 221.448C331.21 221.972 330.965 222.577 330.137 222.799Z" fill="white"/>
<path d="M342.879 210.219C342.052 210.439 340.956 210.195 340.432 209.671C339.908 209.147 340.153 208.541 340.98 208.32C341.806 208.099 342.903 208.344 343.427 208.868C343.952 209.393 343.706 209.998 342.879 210.219Z" fill="white"/>
<path d="M354.614 196.799C353.787 197.02 352.69 196.775 352.166 196.251C351.642 195.727 351.887 195.121 352.714 194.9C353.541 194.679 354.637 194.924 355.161 195.448C355.685 195.972 355.441 196.578 354.614 196.799Z" fill="white"/>
<path d="M368.516 205.151C367.689 205.372 366.593 205.127 366.069 204.604C365.545 204.08 365.789 203.474 366.616 203.253C367.443 203.032 368.54 203.276 369.064 203.8C369.589 204.326 369.343 204.93 368.516 205.151Z" fill="white"/>
<path d="M367.524 184.281C366.697 184.502 365.6 184.257 365.077 183.733C364.553 183.21 364.797 182.604 365.624 182.383C366.451 182.162 367.548 182.406 368.071 182.93C368.595 183.454 368.351 184.059 367.524 184.281Z" fill="white"/>
<path d="M347.916 256.71C345.6 258.047 343.723 261.009 343.723 263.325C343.723 265.641 345.6 266.435 347.916 265.098C350.232 263.761 352.109 260.799 352.109 258.483C352.109 256.167 350.231 255.374 347.916 256.71Z" stroke="white" stroke-width="0.667187" stroke-linecap="round" stroke-linejoin="round"/>
<path d="M350.147 256.061C348.687 255.55 348.02 254.919 347.359 254.559C346.59 254.143 345.473 254.245 344.23 254.964C342.629 255.888 341.237 257.59 340.531 259.317" stroke="white" stroke-width="0.667187" stroke-linecap="round" stroke-linejoin="round"/>
<path d="M312.575 427.031L263.223 399.176V212.929L312.575 240.785V427.031Z" stroke="white" stroke-width="0.667187" stroke-linecap="round" stroke-linejoin="round"/>
<path d="M410.796 370.436L312.574 426.755V240.508L410.796 184.189V370.436Z" stroke="white" stroke-width="0.667187" stroke-linecap="round" stroke-linejoin="round"/>
<path d="M263.223 212.928L361.686 155.798L365.799 158.46" stroke="white" stroke-width="0.667187" stroke-linecap="round" stroke-linejoin="round"/>
<path d="M359.996 168.863L391.69 150.235L421.688 168.258L389.996 186.886L359.996 168.863Z" stroke="white" stroke-width="0.667187" stroke-linecap="round" stroke-linejoin="round"/>
<path d="M522.327 69.1885L525.83 71.3921L504.102 84.1634L534.101 102.187L556.842 88.8193L561.277 91.2049L378.381 197.894L373.785 195.475L384.429 189.184L355.398 171.765L345.122 177.703L340.883 175.394L522.327 69.1885Z" stroke="white" stroke-width="0.667187" stroke-linecap="round" stroke-linejoin="round"/>
<path d="M602.471 222.675L348.656 373.404" stroke="white" stroke-width="0.667187" stroke-linecap="round" stroke-linejoin="round"/>
<path d="M600.771 239.798L346.699 390.651" stroke="white" stroke-width="0.667187" stroke-linecap="round" stroke-linejoin="round"/>
<path d="M348.66 253.295L347.919 248.214L353.948 251.964L356.609 265.745L345.091 276.156L341.488 262.184C341.488 262.184 337.202 268.05 337.254 275.309C337.299 281.507 339.985 286.317 348.66 284.26C350.923 294.058 358.786 326.598 358.786 326.598C358.786 326.598 353.221 334.34 353.221 340.871C353.221 347.403 356.488 352.363 363.019 351.395C361.084 343.895 359.511 337.484 359.511 337.484L371.728 327.202L374.995 340.992L364.891 332.956" stroke="white" stroke-width="0.667187" stroke-linecap="round" stroke-linejoin="round"/>
<path d="M341.485 262.186L335.402 257.77C330.321 263.09 327.724 277.552 341.363 284.019" stroke="white" stroke-width="0.667187" stroke-linecap="round" stroke-linejoin="round"/>
<path d="M352.113 263.093L356.609 265.747" stroke="white" stroke-width="0.667187" stroke-linecap="round" stroke-linejoin="round"/>
<path d="M353.945 251.964C357.816 251.601 362.897 254.315 363.26 262.245C363.642 270.591 358.422 275.552 357.454 276.881C359.752 286.437 367.856 319.461 367.856 319.461C367.856 319.461 375.086 316.394 378.137 323.332C380.798 329.38 376.806 338.452 374.992 340.992" stroke="white" stroke-width="0.667187" stroke-linecap="round" stroke-linejoin="round"/>
<path d="M347.918 248.214C354.359 246.278 363.149 251.116 363.149 260.903" stroke="white" stroke-width="0.667187" stroke-linecap="round" stroke-linejoin="round"/>
<path d="M366.582 314.26L374.995 319.655" stroke="white" stroke-width="0.667187" stroke-linecap="round" stroke-linejoin="round"/>
<path d="M342.148 284.335L351.281 321.034L358.781 326.598" stroke="white" stroke-width="0.667187" stroke-linecap="round" stroke-linejoin="round"/>
<path d="M351.281 321.033C346.079 329.863 345.837 339.234 348.655 344.621C352.008 351.032 357.774 351.517 362.41 351.517" stroke="white" stroke-width="0.667187" stroke-linecap="round" stroke-linejoin="round"/>
<path d="M352.809 286.861L355.842 284.503L363.653 316.159L360.549 318.387L352.809 286.861Z" stroke="white" stroke-width="0.667187" stroke-linecap="round" stroke-linejoin="round"/>
<path d="M139.969 160.556C128.794 143.294 123.199 124.901 123.199 105.402V16.7393L167.171 42.1263V129.483C167.171 139.051 168.877 146.995 172.296 153.321C175.716 159.632 180.651 164.664 187.11 168.393C193.569 172.122 198.505 172.788 201.924 170.426C205.335 168.045 207.049 162.074 207.049 152.506V65.15L250.269 90.1036V171.99C250.269 216.337 223.301 225.527 186.739 203.766C166.893 191.955 151.151 177.806 139.969 160.556Z" stroke="white" stroke-width="0.667187" stroke-linecap="round" stroke-linejoin="round"/>
<path d="M128.516 25.958V105.401C128.516 123.766 133.87 141.349 144.431 157.662C154.892 173.802 169.62 187.386 189.453 199.192C201.049 206.093 211.72 209.742 220.31 209.742C240.666 209.742 244.94 189.214 244.94 171.991V93.1756L212.364 74.3674V152.507C212.364 164.185 210.012 171.265 204.963 174.79C202.711 176.346 200.118 177.129 197.235 177.129C193.435 177.129 189.25 175.779 184.442 173.003C177.16 168.799 171.497 163.03 167.61 155.857C163.783 148.774 161.843 139.902 161.843 129.483V45.1998L128.516 25.958Z" stroke="white" stroke-width="0.667187" stroke-linecap="round" stroke-linejoin="round" stroke-dasharray="0.67 2"/>
<path d="M123.199 16.7396L205.581 -30.5332L249.552 -5.14614V41.1791M289.429 67.3067V17.8762L332.649 42.8297V123.75C332.649 153.916 318.597 161.316 299.636 173.479C275.071 189.236 234.238 211.633 234.238 211.633" stroke="white" stroke-width="0.667187" stroke-linecap="round" stroke-linejoin="round"/>
<path d="M167.168 42.1264L249.549 -5.14648" stroke="white" stroke-width="0.667187" stroke-linecap="round" stroke-linejoin="round"/>
<path d="M207.047 65.1497L289.428 17.8755" stroke="white" stroke-width="0.667187" stroke-linecap="round" stroke-linejoin="round"/>
<path d="M250.27 90.1024L332.652 42.8296" stroke="white" stroke-width="0.667187" stroke-linecap="round" stroke-linejoin="round"/>
<path d="M282.81 71.4272C282.81 71.4272 282.81 131.337 282.81 147.465C282.81 163.593 282.81 183.85 263.957 194.896" stroke="white" stroke-width="0.667187" stroke-linecap="round" stroke-linejoin="round"/>
<path d="M311.2 55.1396C311.2 55.1396 311.2 114.228 311.2 130.356C311.2 146.484 308.265 169.199 293.125 177.561" stroke="white" stroke-width="0.667187" stroke-linecap="round" stroke-linejoin="round"/>
<path d="M226.95 92.0213C233.792 95.9714 239.338 104.719 239.338 111.56C239.338 118.402 233.792 120.746 226.95 116.796C220.109 112.846 214.562 104.098 214.562 97.2565C214.562 90.4151 220.109 88.0726 226.95 92.0213Z" stroke="white" stroke-width="0.667187" stroke-linecap="round" stroke-linejoin="round"/>
<path d="M229.806 90.1401C236.647 94.0901 242.194 102.838 242.194 109.679C242.194 116.521 236.647 118.864 229.806 114.914C222.964 110.964 217.418 102.217 217.418 95.3753C217.418 88.5339 222.964 86.19 229.806 90.1401Z" stroke="white" stroke-width="0.667187" stroke-linecap="round" stroke-linejoin="round"/>
<path d="M143.669 43.6923C150.511 47.6424 156.057 56.39 156.057 63.2314C156.057 70.0728 150.511 72.4167 143.669 68.4667C136.828 64.5166 131.281 55.769 131.281 48.9276C131.281 42.0862 136.828 39.7423 143.669 43.6923Z" stroke="white" stroke-width="0.667187" stroke-linecap="round" stroke-linejoin="round"/>
<path d="M146.517 41.81C153.358 45.7601 158.905 54.5077 158.905 61.3491C158.905 68.1905 153.358 70.5344 146.517 66.5843C139.675 62.6343 134.129 53.8866 134.129 47.0452C134.129 40.2039 139.675 37.8599 146.517 41.81Z" stroke="white" stroke-width="0.667187" stroke-linecap="round" stroke-linejoin="round"/>
<path d="M105.321 74.1879C112.163 78.138 117.709 86.8856 117.709 93.727C117.709 100.568 112.163 102.912 105.321 98.9623C98.4801 95.0122 92.9336 86.2646 92.9336 79.4232C92.9336 72.5818 98.4787 70.2379 105.321 74.1879Z" stroke="white" stroke-width="0.667187" stroke-linecap="round" stroke-linejoin="round"/>
<path d="M108.165 72.3061C115.007 76.2561 120.553 85.0038 120.553 91.8452C120.553 98.6866 115.007 101.03 108.165 97.0804C101.324 93.1304 95.7773 84.3827 95.7773 77.5413C95.7773 70.6999 101.324 68.356 108.165 72.3061Z" stroke="white" stroke-width="0.667187" stroke-linecap="round" stroke-linejoin="round"/>
<path d="M188.665 121.565C195.507 125.515 201.053 134.263 201.053 141.104C201.053 147.946 195.507 150.29 188.665 146.34C181.824 142.39 176.277 133.642 176.277 126.801C176.277 119.959 181.824 117.615 188.665 121.565Z" stroke="white" stroke-width="0.667187" stroke-linecap="round" stroke-linejoin="round"/>
<path d="M191.513 119.683C198.354 123.633 203.901 132.381 203.901 139.222C203.901 146.064 198.354 148.407 191.513 144.457C184.671 140.507 179.125 131.76 179.125 124.918C179.125 118.077 184.671 115.733 191.513 119.683Z" stroke="white" stroke-width="0.667187" stroke-linecap="round" stroke-linejoin="round"/>
<path d="M154.395 146.912C158.999 149.57 162.731 155.458 162.731 160.063C162.731 164.667 158.998 166.244 154.395 163.586C149.791 160.928 146.059 155.04 146.059 150.435C146.057 145.831 149.791 144.253 154.395 146.912Z" stroke="white" stroke-width="0.667187" stroke-linecap="round" stroke-linejoin="round"/>
<path d="M156.317 145.645C160.921 148.303 164.653 154.191 164.653 158.795C164.653 163.4 160.92 164.977 156.317 162.319C151.712 159.661 147.98 153.773 147.98 149.168C147.98 144.564 151.712 142.986 156.317 145.645Z" stroke="white" stroke-width="0.667187" stroke-linecap="round" stroke-linejoin="round"/>
<path d="M74.4262 99.799C79.0307 102.457 82.7626 108.345 82.7626 112.95C82.7626 117.554 79.0293 119.131 74.4262 116.473C69.8232 113.815 66.0898 107.927 66.0898 103.323C66.0885 98.7181 69.8218 97.1411 74.4262 99.799Z" stroke="white" stroke-width="0.667187" stroke-linecap="round" stroke-linejoin="round"/>
<path d="M76.3364 98.5319C80.9408 101.19 84.6728 107.078 84.6728 111.683C84.6728 116.287 80.9395 117.864 76.3364 115.206C71.7319 112.548 68 106.66 68 102.055C68 97.451 71.7319 95.874 76.3364 98.5319Z" stroke="white" stroke-width="0.667187" stroke-linecap="round" stroke-linejoin="round"/>
<path d="M205.582 -30.5332V20.0853" stroke="white" stroke-width="0.667187" stroke-linecap="round" stroke-linejoin="round"/>
<path d="M3 225.312C3 225.312 32.0314 240.796 70.7387 264.343C109.446 287.891 114.607 314.019 112.994 325.953C111.381 337.888 106.221 342.404 98.4793 344.339C114.205 361.436 127.051 393.047 113.249 406.273C99.4464 419.499 71.7057 400.467 58.4814 392.725C45.2557 384.983 3 360.467 3 360.467V225.312Z" stroke="white" stroke-width="0.667187" stroke-linecap="round" stroke-linejoin="round"/>
<path d="M15.0391 218.552C15.0391 218.552 15.2447 218.662 15.6464 218.877" stroke="white" stroke-width="0.667187" stroke-linecap="round" stroke-linejoin="round"/>
<path d="M19.2812 220.844C28.6791 225.971 52.8366 239.363 82.785 257.582C121.494 281.13 126.654 307.257 125.041 319.192C124.429 323.719 123.307 327.178 121.727 329.835" stroke="white" stroke-width="0.667187" stroke-linecap="round" stroke-linejoin="round" stroke-dasharray="0.66 1.98"/>
<path d="M3 225.313L78.404 180.803C78.404 180.803 107.435 196.287 146.143 219.834C181.374 241.267 188.814 264.837 188.65 277.897" stroke="white" stroke-width="0.667187" stroke-linecap="round" stroke-linejoin="round"/>
<path d="M173.957 302.165C183.392 311.6 193.645 329.177 193.795 346.438C193.927 361.679 187.263 363.615 178.795 368.453C170.328 373.291 110.578 408.337 110.578 408.337" stroke="white" stroke-width="0.667187" stroke-linecap="round" stroke-linejoin="round"/>
<path d="M178.072 299.261L104.504 341.907" stroke="white" stroke-width="0.667187" stroke-linecap="round" stroke-linejoin="round"/>
<path d="M153.695 313.457L185.92 364.479" stroke="white" stroke-width="0.667187" stroke-linecap="round" stroke-linejoin="round"/>
<path d="M41.8672 279.664C41.8672 279.664 50.3342 284.502 60.0113 290.552C69.6885 296.601 74.2846 304.1 72.8341 309.179C71.3835 314.259 66.0608 314.017 55.1734 307.727C44.2861 301.438 41.8672 299.26 41.8672 299.26V279.664Z" stroke="white" stroke-width="0.667187" stroke-linecap="round" stroke-linejoin="round"/>
<path d="M41.8672 299.26L58.64 289.697" stroke="white" stroke-width="0.667187" stroke-linecap="round" stroke-linejoin="round"/>
<path d="M175.167 282.327L166.171 277.896C166.171 277.896 164.199 277.084 163.474 278.697C163.031 279.684 163.491 281.086 164.462 281.56C165.433 282.033 173.957 286.197 173.957 286.197" stroke="white" stroke-width="0.667187" stroke-linecap="round" stroke-linejoin="round"/>
<path d="M185.917 284.504L179.445 280.633V297.083L185.413 300.632" stroke="white" stroke-width="0.667187" stroke-linecap="round" stroke-linejoin="round"/>
<path d="M179.442 293.778C175.652 291.359 174.44 289.182 174.441 285.15C174.443 281.6 176.941 279.907 179.442 281.44" stroke="white" stroke-width="0.667187" stroke-linecap="round" stroke-linejoin="round"/>
<path d="M179.445 280.633L182.681 278.358L187.694 281.03" stroke="white" stroke-width="0.667187" stroke-linecap="round" stroke-linejoin="round"/>
<path d="M190.974 305.955L185.914 302.567V282.246L191.619 285.712L190.974 305.955Z" stroke="white" stroke-width="0.667187" stroke-linecap="round" stroke-linejoin="round"/>
<path d="M185.914 282.246L189.925 279.503L195.463 282.868L191.619 285.712L185.914 282.246Z" stroke="white" stroke-width="0.667187" stroke-linecap="round" stroke-linejoin="round"/>
<path d="M180.17 277.004C180.895 271.761 179.283 262.65 170.412 259.826C161.541 257.005 149.93 261.762 147.187 274.261C144.446 286.76 150.897 293.857 158.235 295.631C165.574 297.406 172.186 293.051 173.961 290.631" stroke="white" stroke-width="0.667187" stroke-linecap="round" stroke-linejoin="round"/>
<path d="M154.898 292.155C161.105 292.477 166.361 288.879 167.914 286.761" stroke="white" stroke-width="0.667187" stroke-linecap="round" stroke-linejoin="round"/>
<path d="M173.484 277.79C175.405 273.327 175.121 267.966 172.973 263.595" stroke="white" stroke-width="0.667187" stroke-linecap="round" stroke-linejoin="round"/>
<path d="M191.623 285.713C199.039 289.986 217.508 301.599 222.024 304.664C226.54 307.729 231.701 313.373 232.992 329.502C234.283 345.63 234.283 368.694 233.798 371.113C233.314 373.532 231.701 373.693 229.121 373.532C226.541 373.371 219.927 369.661 219.766 362.564C219.605 355.467 219.283 340.918 216.54 333.436C213.799 325.954 211.706 324.171 207.508 321.761C204.75 320.177 199.555 317.206 194.767 314.664C192.091 313.244 190.997 310.317 190.977 305.955" stroke="white" stroke-width="0.667187" stroke-linecap="round" stroke-linejoin="round"/>
<path d="M200.09 319.616C200.09 322.244 202.348 324.825 205.251 326.6C208.154 328.374 210.413 331.437 211.058 335.147C211.702 338.857 212.993 343.05 217.186 345.308" stroke="white" stroke-width="0.667187" stroke-linecap="round" stroke-linejoin="round"/>
<path d="M194.77 292.81V297.567L219.929 313.458V309.019L194.77 292.81Z" stroke="white" stroke-width="0.667187" stroke-linecap="round" stroke-linejoin="round"/>
<path d="M197.188 283.858C203.8 287.729 215.09 294.018 223.637 299.261C232.185 304.503 236.863 312.728 237.508 324.179C238.152 335.631 239.121 359.135 238.637 364.479C238.154 369.822 237.122 372.2 232.074 373.35" stroke="white" stroke-width="0.667187" stroke-linecap="round" stroke-linejoin="round"/>
<path d="M236.852 318.739C236.371 315.272 232.438 315.35 229.443 316.923C227.259 318.07 223.798 319.503 225.089 325.309C226.38 331.115 229.354 339.985 229.802 349.34C230.249 358.695 228.225 361.328 229.802 365.011C231.379 368.694 232.945 369.1 235.733 368.209C238.768 367.241 238.636 364.479 238.636 364.479" stroke="white" stroke-width="0.667187" stroke-linecap="round" stroke-linejoin="round"/>
<path d="M9.98044 234.981C11.1128 235.636 12.0312 237.083 12.0312 238.216C12.0312 239.348 11.1128 239.736 9.98044 239.083C8.84808 238.428 7.92969 236.981 7.92969 235.848C7.92969 234.716 8.84808 234.327 9.98044 234.981Z" stroke="white" stroke-width="0.667187" stroke-linecap="round" stroke-linejoin="round"/>
<path d="M106.555 322.613C107.687 323.268 108.605 324.715 108.605 325.848C108.605 326.98 107.687 327.368 106.555 326.715C105.422 326.06 104.504 324.613 104.504 323.48C104.504 322.348 105.422 321.959 106.555 322.613Z" stroke="white" stroke-width="0.667187" stroke-linecap="round" stroke-linejoin="round"/>
<path d="M162.025 275.486C160.477 275.589 159.62 277.727 160.204 279.649" stroke="white" stroke-width="0.667187" stroke-linecap="round" stroke-linejoin="round"/>
<path d="M159.244 274.054C157.696 274.157 156.839 276.296 157.422 278.217" stroke="white" stroke-width="0.667187" stroke-linecap="round" stroke-linejoin="round"/>
<path d="M156.463 272.62C154.915 272.723 154.058 274.861 154.641 276.783" stroke="white" stroke-width="0.667187" stroke-linecap="round" stroke-linejoin="round"/>
<path d="M153.677 271.188C152.13 271.291 151.272 273.429 151.856 275.351" stroke="white" stroke-width="0.667187" stroke-linecap="round" stroke-linejoin="round"/>
<path d="M373.696 29.8866C374.606 29.8866 375.345 29.1484 375.345 28.2377C375.345 27.3271 374.606 26.5889 373.696 26.5889C372.785 26.5889 372.047 27.3271 372.047 28.2377C372.047 29.1484 372.785 29.8866 373.696 29.8866Z" fill="white"/>
<path d="M354.485 29.8866C355.395 29.8866 356.134 29.1484 356.134 28.2377C356.134 27.3271 355.395 26.5889 354.485 26.5889C353.574 26.5889 352.836 27.3271 352.836 28.2377C352.836 29.1484 353.574 29.8866 354.485 29.8866Z" fill="white"/>
<path d="M354.465 11.9882C355.376 11.9882 356.114 11.25 356.114 10.3393C356.114 9.42866 355.376 8.69043 354.465 8.69043C353.555 8.69043 352.816 9.42866 352.816 10.3393C352.816 11.25 353.555 11.9882 354.465 11.9882Z" fill="white"/>
<path d="M335.262 11.9882C336.173 11.9882 336.911 11.25 336.911 10.3393C336.911 9.42866 336.173 8.69043 335.262 8.69043C334.352 8.69043 333.613 9.42866 333.613 10.3393C333.613 11.25 334.352 11.9882 335.262 11.9882Z" fill="white"/>
<path d="M373.676 11.9882C374.587 11.9882 375.325 11.25 375.325 10.3393C375.325 9.42866 374.587 8.69043 373.676 8.69043C372.766 8.69043 372.027 9.42866 372.027 10.3393C372.027 11.25 372.766 11.9882 373.676 11.9882Z" fill="white"/>
</g>
<defs>
<clipPath id="clip0_4213_12512">
<rect width="373" height="323" fill="white"/>
</clipPath>
</defs>
</svg>
