<svg width="576" height="360" viewBox="0 0 576 360" fill="none" xmlns="http://www.w3.org/2000/svg">
<path d="M193.487 174.43C192.932 174.579 192.197 174.415 191.845 174.063C191.494 173.711 191.658 173.305 192.213 173.157C192.767 173.008 193.503 173.172 193.855 173.524C194.206 173.876 194.042 174.281 193.487 174.43Z" fill="#191B1D"/>
<path d="M202.146 166.029C201.591 166.177 200.855 166.013 200.504 165.662C200.152 165.31 200.316 164.904 200.871 164.755C201.426 164.607 202.162 164.771 202.513 165.123C202.866 165.474 202.701 165.88 202.146 166.029Z" fill="#191B1D"/>
<path d="M210.697 157.586C210.143 157.734 209.407 157.57 209.055 157.218C208.704 156.867 208.868 156.46 209.423 156.312C209.978 156.164 210.713 156.328 211.065 156.679C211.416 157.031 211.252 157.437 210.697 157.586Z" fill="#191B1D"/>
<path d="M202.688 182.16C202.133 182.309 201.397 182.144 201.046 181.793C200.694 181.441 200.858 181.035 201.413 180.887C201.968 180.738 202.704 180.902 203.055 181.254C203.407 181.606 203.242 182.011 202.688 182.16Z" fill="#191B1D"/>
<path d="M211.346 173.759C210.792 173.907 210.056 173.743 209.704 173.392C209.353 173.04 209.517 172.633 210.072 172.485C210.626 172.337 211.362 172.501 211.714 172.853C212.066 173.204 211.901 173.61 211.346 173.759Z" fill="#191B1D"/>
<path d="M219.898 165.317C219.343 165.465 218.607 165.301 218.256 164.949C217.904 164.598 218.068 164.191 218.623 164.043C219.178 163.895 219.914 164.059 220.265 164.41C220.617 164.762 220.453 165.167 219.898 165.317Z" fill="#191B1D"/>
<path d="M228.448 156.952C227.894 157.1 227.158 156.936 226.806 156.584C226.455 156.233 226.619 155.826 227.174 155.678C227.729 155.53 228.464 155.694 228.816 156.045C229.168 156.398 229.003 156.803 228.448 156.952Z" fill="#191B1D"/>
<path d="M211.887 188.125C211.332 188.273 210.597 188.109 210.245 187.758C209.894 187.406 210.058 187 210.612 186.851C211.167 186.703 211.903 186.867 212.255 187.219C212.607 187.571 212.442 187.977 211.887 188.125Z" fill="#191B1D"/>
<path d="M220.546 179.725C219.991 179.873 219.255 179.709 218.904 179.357C218.552 179.006 218.716 178.599 219.271 178.451C219.826 178.303 220.562 178.467 220.913 178.818C221.266 179.17 221.102 179.576 220.546 179.725Z" fill="#191B1D"/>
<path d="M229.097 171.281C228.543 171.43 227.807 171.266 227.455 170.914C227.104 170.563 227.268 170.156 227.823 170.008C228.377 169.859 229.113 170.024 229.465 170.375C229.817 170.728 229.652 171.133 229.097 171.281Z" fill="#191B1D"/>
<path d="M236.973 162.275C236.418 162.423 235.682 162.259 235.331 161.908C234.979 161.556 235.143 161.15 235.698 161.001C236.253 160.853 236.989 161.017 237.34 161.369C237.692 161.72 237.528 162.127 236.973 162.275Z" fill="#191B1D"/>
<path d="M246.308 167.881C245.753 168.029 245.017 167.865 244.665 167.513C244.314 167.162 244.478 166.755 245.033 166.607C245.588 166.459 246.323 166.623 246.675 166.974C247.027 167.327 246.862 167.733 246.308 167.881Z" fill="#191B1D"/>
<path d="M361.307 187.279C361.02 187.777 360.384 188.18 359.886 188.18C359.388 188.18 359.219 187.776 359.506 187.279C359.793 186.782 360.429 186.379 360.927 186.379C361.425 186.379 361.595 186.781 361.307 187.279Z" fill="#191B1D"/>
<path d="M358.04 197.851C357.753 198.349 357.117 198.751 356.619 198.751C356.121 198.751 355.951 198.348 356.239 197.851C356.526 197.353 357.162 196.95 357.66 196.95C358.158 196.95 358.327 197.354 358.04 197.851Z" fill="#191B1D"/>
<path d="M361.875 207.741C361.588 208.239 360.952 208.642 360.454 208.642C359.956 208.642 359.787 208.238 360.074 207.741C360.361 207.243 360.997 206.84 361.495 206.84C361.993 206.84 362.162 207.243 361.875 207.741Z" fill="#191B1D"/>
<path d="M352.459 213.099C352.171 213.597 351.535 214 351.037 214C350.54 214 350.37 213.596 350.657 213.099C350.944 212.601 351.58 212.198 352.078 212.198C352.576 212.197 352.746 212.601 352.459 213.099Z" fill="#191B1D"/>
<path d="M245.632 153.874C245.078 154.023 244.342 153.859 243.99 153.507C243.639 153.156 243.803 152.749 244.358 152.601C244.913 152.452 245.648 152.617 246 152.968C246.351 153.32 246.187 153.725 245.632 153.874Z" fill="#191B1D"/>
<path d="M254.183 145.431C253.628 145.58 252.893 145.415 252.541 145.064C252.189 144.712 252.354 144.306 252.908 144.158C253.463 144.009 254.199 144.173 254.55 144.525C254.903 144.877 254.738 145.283 254.183 145.431Z" fill="#191B1D"/>
<path d="M264.437 191.871C261.347 193.655 258.843 197.607 258.843 200.697C258.843 203.787 261.347 204.845 264.437 203.061C267.527 201.278 270.032 197.326 270.032 194.236C270.032 191.146 267.527 190.086 264.437 191.871Z" stroke="#191B1D" stroke-linecap="round" stroke-linejoin="round"/>
<path d="M267.41 191.004C265.462 190.322 264.571 189.48 263.688 189.001C262.664 188.444 261.173 188.583 259.513 189.541C256.423 191.325 253.918 195.276 253.918 198.366C253.918 199.791 254.451 200.783 255.327 201.265C256.352 201.829 258.4 201.85 260.124 203.519" stroke="#191B1D" stroke-linecap="round" stroke-linejoin="round"/>
<path d="M232.479 202.483C230.925 203.38 229.665 205.368 229.665 206.922C229.665 208.477 230.925 209.009 232.479 208.112C234.034 207.215 235.293 205.227 235.293 203.673C235.293 202.118 234.033 201.586 232.479 202.483Z" stroke="#191B1D" stroke-linecap="round" stroke-linejoin="round"/>
<path d="M233.974 202.048C232.994 201.704 232.546 201.281 232.103 201.04C231.587 200.76 230.837 200.829 230.003 201.311C228.929 201.931 227.994 203.073 227.521 204.232" stroke="#191B1D" stroke-linecap="round" stroke-linejoin="round"/>
<path d="M404.013 109.21C400.923 110.994 398.418 114.946 398.418 118.036C398.418 121.126 400.923 122.185 404.013 120.401C407.103 118.617 409.607 114.665 409.607 111.575C409.607 108.485 407.103 107.426 404.013 109.21Z" stroke="#191B1D" stroke-linecap="round" stroke-linejoin="round"/>
<path d="M406.984 108.343C405.036 107.662 404.146 106.82 403.263 106.34C402.238 105.784 400.747 105.923 399.087 106.88C395.997 108.664 393.493 112.616 393.493 115.706C393.493 117.131 394.025 118.123 394.902 118.605C395.926 119.168 397.974 119.189 399.698 120.859" stroke="#191B1D" stroke-linecap="round" stroke-linejoin="round"/>
<path d="M208.761 316.788L175.639 298.094V173.101L208.761 191.795V316.788Z" stroke="#191B1D" stroke-linecap="round" stroke-linejoin="round"/>
<path d="M274.679 278.807L208.761 316.604V191.61L274.679 153.813V278.807Z" stroke="#191B1D" stroke-linecap="round" stroke-linejoin="round"/>
<path d="M175.639 173.101L241.72 134.759L244.48 136.546" stroke="#191B1D" stroke-linecap="round" stroke-linejoin="round"/>
<path d="M249.839 139.63L267.374 149.697" stroke="#191B1D" stroke-linecap="round" stroke-linejoin="round"/>
<path d="M272.731 152.619L274.679 153.813" stroke="#191B1D" stroke-linecap="round" stroke-linejoin="round"/>
<path d="M240.583 143.527L261.853 131.026L281.986 143.122L260.717 155.623L240.583 143.527Z" stroke="#191B1D" stroke-linecap="round" stroke-linejoin="round"/>
<path d="M264.762 129.317L286.031 116.814L306.164 128.91L284.895 141.412L264.762 129.317Z" stroke="#191B1D" stroke-linecap="round" stroke-linejoin="round"/>
<path d="M288.94 115.105L310.209 102.604L330.343 114.699L309.072 127.202L288.94 115.105Z" stroke="#191B1D" stroke-linecap="round" stroke-linejoin="round"/>
<path d="M313.118 100.895L334.388 88.3933L354.52 100.489L333.251 112.99L313.118 100.895Z" stroke="#191B1D" stroke-linecap="round" stroke-linejoin="round"/>
<path d="M349.528 76.6343L351.878 78.1131L337.297 86.6842L357.429 98.7799L372.692 89.8088L375.668 91.4099L252.923 163.011L249.839 161.387L256.982 157.165L237.499 145.475L230.602 149.46L227.757 147.911L349.528 76.6343Z" stroke="#191B1D" stroke-linecap="round" stroke-linejoin="round"/>
<path d="M324.037 90.056V72.3049L338.974 81.1809" stroke="#191B1D" stroke-linecap="round" stroke-linejoin="round"/>
<path d="M333.82 110.671V92.9204L349.284 102.126" stroke="#191B1D" stroke-linecap="round" stroke-linejoin="round"/>
<path d="M344.278 83.8867L362.03 94.2779" stroke="#191B1D" stroke-linecap="round" stroke-linejoin="round"/>
<path d="M367.55 97.6331L382.163 106.725L382.595 221.352L363.87 209.229V175.242L338.216 160.846L332.155 164.85V175.134L327.392 178.353V189.638L321.98 192.885V205.116L347.186 218.658L363.87 209.229" stroke="#191B1D" stroke-linecap="round" stroke-linejoin="round"/>
<path d="M324.037 96.2258V105.751" stroke="#191B1D" stroke-linecap="round" stroke-linejoin="round"/>
<path d="M324.037 112.354V116.814" stroke="#191B1D" stroke-linecap="round" stroke-linejoin="round"/>
<path d="M324.037 123.069V185.957L327.392 188.18" stroke="#191B1D" stroke-linecap="round" stroke-linejoin="round"/>
<path d="M363.87 175.242L357.564 179.247V189.546L352.598 192.758V203.746L347.186 207.332V218.658" stroke="#191B1D" stroke-linecap="round" stroke-linejoin="round"/>
<path d="M332.36 165.047L357.565 179.246" stroke="#191B1D" stroke-linecap="round" stroke-linejoin="round"/>
<path d="M332.36 175.347L357.565 189.546" stroke="#191B1D" stroke-linecap="round" stroke-linejoin="round"/>
<path d="M327.392 178.558L352.598 192.758" stroke="#191B1D" stroke-linecap="round" stroke-linejoin="round"/>
<path d="M327.392 189.546L352.598 203.746" stroke="#191B1D" stroke-linecap="round" stroke-linejoin="round"/>
<path d="M321.98 193.133L347.186 207.332" stroke="#191B1D" stroke-linecap="round" stroke-linejoin="round"/>
<path d="M354.52 105.21L371.339 114.903V168.314L333.82 146.449V117.657" stroke="#191B1D" stroke-linecap="round" stroke-linejoin="round"/>
<path d="M382 106.401L415.527 87.0254L357.564 52.2805L324.037 72.3048L382 106.401Z" stroke="#191B1D" stroke-linecap="round" stroke-linejoin="round"/>
<path d="M415.527 118.512L461.272 144.909L415.527 171.345V87.0254" stroke="#191B1D" stroke-linecap="round" stroke-linejoin="round"/>
<path d="M461.272 144.909V175.241L382.595 221.352" stroke="#191B1D" stroke-linecap="round" stroke-linejoin="round"/>
<path d="M403.316 109.659L266.544 190.965" stroke="#191B1D" stroke-linecap="round" stroke-linejoin="round"/>
<path d="M402.174 121.151L265.23 202.541" stroke="#191B1D" stroke-linecap="round" stroke-linejoin="round"/>
<path d="M230.869 281.703C227.779 283.487 225.274 287.439 225.274 290.529C225.274 293.619 227.779 294.677 230.869 292.893C233.959 291.11 236.464 287.158 236.464 284.068C236.464 280.978 233.959 279.918 230.869 281.703Z" stroke="#191B1D" stroke-linecap="round" stroke-linejoin="round"/>
<path d="M233.841 280.836C231.893 280.154 231.002 279.312 230.119 278.833C229.095 278.276 227.604 278.415 225.944 279.373C222.854 281.157 220.349 285.108 220.349 288.198C220.349 289.623 220.882 290.615 221.758 291.097C222.783 291.661 224.83 291.682 226.555 293.351" stroke="#191B1D" stroke-linecap="round" stroke-linejoin="round"/>
<path d="M404.013 179.193C400.923 180.977 398.418 184.929 398.418 188.019C398.418 191.109 400.923 192.167 404.013 190.384C407.103 188.6 409.607 184.648 409.607 181.558C409.607 178.468 407.103 177.409 404.013 179.193Z" stroke="#191B1D" stroke-linecap="round" stroke-linejoin="round"/>
<path d="M406.984 178.326C405.036 177.644 404.146 176.802 403.263 176.323C402.238 175.767 400.747 175.905 399.087 176.863C395.997 178.647 393.493 182.599 393.493 185.689C393.493 187.113 394.025 188.106 394.902 188.588C395.926 189.151 397.974 189.172 399.698 190.841" stroke="#191B1D" stroke-linecap="round" stroke-linejoin="round"/>
<path d="M403.316 179.642L232.976 280.799" stroke="#191B1D" stroke-linecap="round" stroke-linejoin="round"/>
<path d="M402.174 191.133L231.662 292.373" stroke="#191B1D" stroke-linecap="round" stroke-linejoin="round"/>
<path d="M232.976 200.191L232.479 196.781L236.525 199.298L238.311 208.547L230.581 215.534L228.163 206.157C228.163 206.157 225.286 210.094 225.322 214.965C225.352 219.125 227.154 222.353 232.976 220.973C234.495 227.548 239.772 249.386 239.772 249.386C239.772 249.386 236.038 254.582 236.038 258.965C236.038 263.349 238.23 266.678 242.613 266.028C241.314 260.994 240.259 256.692 240.259 256.692L248.458 249.792L250.65 259.046L243.869 253.653" stroke="#191B1D" stroke-linecap="round" stroke-linejoin="round"/>
<path d="M228.163 206.158L224.081 203.195C220.671 206.765 218.928 216.471 228.081 220.81" stroke="#191B1D" stroke-linecap="round" stroke-linejoin="round"/>
<path d="M235.293 206.767L238.311 208.548" stroke="#191B1D" stroke-linecap="round" stroke-linejoin="round"/>
<path d="M236.524 199.298C239.122 199.054 242.532 200.876 242.776 206.198C243.032 211.799 239.529 215.128 238.879 216.02C240.421 222.434 245.86 244.596 245.86 244.596C245.86 244.596 250.713 242.538 252.76 247.194C254.546 251.253 251.867 257.342 250.649 259.046" stroke="#191B1D" stroke-linecap="round" stroke-linejoin="round"/>
<path d="M232.479 196.781C236.802 195.482 242.701 198.729 242.701 205.297" stroke="#191B1D" stroke-linecap="round" stroke-linejoin="round"/>
<path d="M245.004 241.106L250.65 244.727" stroke="#191B1D" stroke-linecap="round" stroke-linejoin="round"/>
<path d="M228.61 221.023L234.739 245.652L239.772 249.386" stroke="#191B1D" stroke-linecap="round" stroke-linejoin="round"/>
<path d="M234.739 245.652C231.248 251.577 231.085 257.867 232.976 261.482C235.226 265.784 239.096 266.11 242.208 266.11" stroke="#191B1D" stroke-linecap="round" stroke-linejoin="round"/>
<path d="M235.761 222.718L237.796 221.136L243.038 242.381L240.955 243.875L235.761 222.718Z" stroke="#191B1D" stroke-linecap="round" stroke-linejoin="round"/>
<path d="M435.973 56.8953L443.478 61.5836L434.824 66.99L426.17 61.5836L433.65 56.9111" stroke="#191B1D" stroke-linecap="round" stroke-linejoin="round"/>
<path d="M435.972 60.623C436.266 60.8291 436.448 61.1126 436.448 61.4268C436.448 62.0544 435.721 62.5635 434.825 62.5635C433.928 62.5635 433.201 62.0544 433.201 61.4268C433.201 61.1126 433.383 60.8291 433.677 60.623" stroke="#191B1D" stroke-linecap="round" stroke-linejoin="round"/>
<path d="M435.973 140.698L443.478 145.386L434.824 150.793L426.17 145.386L433.65 140.714" stroke="#191B1D" stroke-linecap="round" stroke-linejoin="round"/>
<path d="M435.972 144.427C436.266 144.633 436.448 144.917 436.448 145.231C436.448 145.858 435.721 146.367 434.825 146.367C433.928 146.367 433.201 145.858 433.201 145.231C433.201 144.917 433.383 144.633 433.677 144.427" stroke="#191B1D" stroke-linecap="round" stroke-linejoin="round"/>
<path d="M436.605 94.7395L448.24 102.009L434.824 110.391L421.408 102.009L433.003 94.7647" stroke="#191B1D" stroke-linecap="round" stroke-linejoin="round"/>
<path d="M436.605 100.52C437.06 100.839 437.342 101.279 437.342 101.766C437.342 102.739 436.215 103.528 434.824 103.528C433.434 103.528 432.307 102.739 432.307 101.766C432.307 101.279 432.588 100.839 433.044 100.52" stroke="#191B1D" stroke-linecap="round" stroke-linejoin="round"/>
<path d="M434.824 9V61.3728" stroke="#191B1D" stroke-linecap="round" stroke-linejoin="round"/>
<path d="M434.824 68.2888V102.024" stroke="#191B1D" stroke-linecap="round" stroke-linejoin="round"/>
<path d="M434.824 79.2321C435.542 79.2321 436.123 78.6505 436.123 77.9332C436.123 77.2158 435.542 76.6343 434.824 76.6343C434.107 76.6343 433.525 77.2158 433.525 77.9332C433.525 78.6505 434.107 79.2321 434.824 79.2321Z" fill="#191B1D"/>
<path d="M434.824 111.558V145.293" stroke="#191B1D" stroke-linecap="round" stroke-linejoin="round"/>
<path d="M434.824 151.832V173.564" stroke="#191B1D" stroke-linecap="round" stroke-linejoin="round"/>
<path d="M434.824 123.151C435.542 123.151 436.123 122.57 436.123 121.852C436.123 121.135 435.542 120.553 434.824 120.553C434.107 120.553 433.525 121.135 433.525 121.852C433.525 122.57 434.107 123.151 434.824 123.151Z" fill="#191B1D"/>
<path d="M434.824 181.358C436.977 181.358 438.721 179.613 438.721 177.461C438.721 175.309 436.977 173.564 434.824 173.564C432.672 173.564 430.928 175.309 430.928 177.461C430.928 179.613 432.672 181.358 434.824 181.358Z" stroke="#191B1D" stroke-linecap="round" stroke-linejoin="round"/>
<path d="M475.205 180.183L516.598 204.081C528.139 210.745 538.331 218.737 547.161 228.027C555.998 237.321 562.858 247.282 567.743 257.897C572.628 268.512 575.068 279.1 575.068 289.653C575.068 300.219 572.628 307.99 567.743 312.963C562.858 317.937 555.997 319.975 547.161 319.066C538.331 318.16 528.139 314.372 516.598 307.709L475.205 283.81V180.183ZM515.117 279.614C522.615 283.944 528.609 285.26 533.103 283.554C537.591 281.856 539.837 277.106 539.837 269.312C539.837 261.517 537.59 254.172 533.103 247.293C528.609 240.409 522.615 234.793 515.117 230.463L510.141 227.59V276.741L515.117 279.614Z" stroke="#191B1D" stroke-linecap="round" stroke-linejoin="round"/>
<path d="M454.922 192.307L496.316 216.206C507.857 222.869 518.048 230.861 526.878 240.152C535.715 249.446 542.575 259.406 547.46 270.021C552.346 280.636 554.785 291.224 554.785 301.778C554.785 312.343 552.346 320.114 547.46 325.088C542.575 330.062 535.714 332.1 526.878 331.191C518.048 330.285 507.857 326.497 496.316 319.834L454.922 295.935V192.307ZM494.833 291.74C502.332 296.069 508.326 297.386 512.819 295.68C517.307 293.982 519.553 289.232 519.553 281.437C519.553 273.643 517.306 266.298 512.819 259.418C508.326 252.535 502.332 246.919 494.833 242.589L489.857 239.716V288.867L494.833 291.74Z" stroke="#191B1D" stroke-linecap="round" stroke-linejoin="round" stroke-dasharray="1 3"/>
<path d="M436.898 203.281L478.291 227.18C489.832 233.843 500.024 241.835 508.854 251.126C517.691 260.42 524.551 270.38 529.436 280.995C534.321 291.61 536.761 302.198 536.761 312.752C536.761 323.317 534.321 331.088 529.436 336.062C524.551 341.036 517.69 343.074 508.854 342.165C500.024 341.258 489.832 337.471 478.291 330.808L436.898 306.909V203.281ZM476.81 302.713C484.309 307.042 490.302 308.359 494.796 306.652C499.284 304.955 501.53 300.205 501.53 292.41C501.53 284.616 499.284 277.271 494.796 270.391C490.302 263.508 484.309 257.892 476.81 253.562L471.834 250.689V299.84L476.81 302.713Z" stroke="#191B1D" stroke-linecap="round" stroke-linejoin="round"/>
<path d="M418.771 214.198L460.165 238.096C471.706 244.759 481.897 252.751 490.728 262.042C499.564 271.336 506.424 281.297 511.31 291.912C516.195 302.527 518.634 313.114 518.634 323.668C518.634 334.233 516.195 342.005 511.31 346.978C506.424 351.952 499.563 353.99 490.728 353.081C481.897 352.175 471.706 348.387 460.165 341.724L418.771 317.825V214.198ZM458.682 313.63C466.181 317.959 472.175 319.276 476.668 317.57C481.156 315.872 483.402 311.122 483.402 303.327C483.402 295.533 481.155 288.188 476.668 281.309C472.175 274.425 466.181 268.809 458.682 264.479L453.707 261.606V310.757L458.682 313.63Z" stroke="#191B1D" stroke-linecap="round" stroke-linejoin="round" stroke-dasharray="1 3"/>
<path d="M493.694 202.935C494.192 203.223 494.594 203.858 494.594 204.356C494.594 204.854 494.191 205.024 493.694 204.737C493.196 204.45 492.793 203.814 492.793 203.316C492.792 202.819 493.196 202.648 493.694 202.935Z" fill="#191B1D"/>
<path d="M481.732 202.803C482.23 203.09 482.633 203.726 482.633 204.224C482.633 204.722 482.229 204.892 481.732 204.604C481.234 204.317 480.832 203.681 480.832 203.183C480.832 202.686 481.235 202.516 481.732 202.803Z" fill="#191B1D"/>
<path d="M491.406 192.212C491.904 192.499 492.307 193.135 492.307 193.633C492.307 194.131 491.903 194.301 491.406 194.014C490.908 193.726 490.506 193.091 490.506 192.593C490.506 192.095 490.908 191.925 491.406 192.212Z" fill="#191B1D"/>
<path d="M479.469 193.011C479.967 193.298 480.37 193.934 480.37 194.432C480.37 194.93 479.966 195.1 479.469 194.813C478.971 194.526 478.568 193.89 478.568 193.392C478.568 192.894 478.971 192.724 479.469 193.011Z" fill="#191B1D"/>
<path d="M498.518 222.835C499.016 223.122 499.419 223.758 499.419 224.256C499.419 224.754 499.015 224.923 498.518 224.636C498.02 224.349 497.617 223.713 497.617 223.215C497.617 222.718 498.021 222.548 498.518 222.835Z" fill="#191B1D"/>
<path d="M486.557 222.703C487.055 222.991 487.458 223.626 487.458 224.124C487.458 224.622 487.054 224.792 486.557 224.505C486.06 224.218 485.657 223.582 485.657 223.084C485.657 222.586 486.06 222.415 486.557 222.703Z" fill="#191B1D"/>
<path d="M496.232 212.112C496.73 212.399 497.133 213.035 497.133 213.533C497.133 214.031 496.729 214.2 496.232 213.913C495.734 213.626 495.331 212.99 495.331 212.492C495.331 211.995 495.734 211.824 496.232 212.112Z" fill="#191B1D"/>
<path d="M484.295 212.911C484.792 213.198 485.195 213.834 485.195 214.332C485.195 214.83 484.792 214.999 484.295 214.712C483.797 214.425 483.394 213.789 483.394 213.291C483.393 212.794 483.797 212.624 484.295 212.911Z" fill="#191B1D"/>
<path d="M505.631 244.24C506.129 244.527 506.532 245.163 506.532 245.661C506.532 246.159 506.128 246.329 505.631 246.042C505.133 245.754 504.73 245.118 504.73 244.621C504.73 244.124 505.133 243.953 505.631 244.24Z" fill="#191B1D"/>
<path d="M503.344 233.516C503.842 233.803 504.244 234.439 504.244 234.937C504.244 235.435 503.841 235.605 503.344 235.317C502.846 235.03 502.443 234.394 502.443 233.896C502.443 233.399 502.847 233.229 503.344 233.516Z" fill="#191B1D"/>
<path d="M481.083 236.965C481.581 237.252 481.984 237.888 481.984 238.386C481.984 238.884 481.58 239.054 481.083 238.766C480.585 238.479 480.182 237.843 480.182 237.345C480.182 236.848 480.585 236.678 481.083 236.965Z" fill="#191B1D"/>
<path d="M485.593 248.828C486.091 249.115 486.494 249.751 486.494 250.249C486.494 250.747 486.09 250.916 485.593 250.629C485.096 250.342 484.693 249.706 484.693 249.208C484.692 248.711 485.095 248.541 485.593 248.828Z" fill="#191B1D"/>
<path d="M479.469 261.994C479.967 262.281 480.37 262.917 480.37 263.415C480.37 263.913 479.966 264.082 479.469 263.795C478.971 263.508 478.568 262.872 478.568 262.374C478.568 261.876 478.971 261.706 479.469 261.994Z" fill="#191B1D"/>
<path d="M483.283 275.688C483.781 275.975 484.184 276.611 484.184 277.109C484.184 277.607 483.78 277.776 483.283 277.489C482.785 277.202 482.382 276.566 482.382 276.068C482.382 275.57 482.785 275.4 483.283 275.688Z" fill="#191B1D"/>
<path d="M521.493 213.415C521.991 213.702 522.394 214.338 522.394 214.836C522.394 215.334 521.99 215.504 521.493 215.217C520.995 214.929 520.592 214.293 520.592 213.796C520.592 213.298 520.995 213.128 521.493 213.415Z" fill="#191B1D"/>
<path d="M509.531 213.283C510.029 213.57 510.432 214.206 510.432 214.704C510.432 215.202 510.028 215.371 509.531 215.084C509.033 214.797 508.631 214.161 508.631 213.663C508.631 213.165 509.034 212.996 509.531 213.283Z" fill="#191B1D"/>
<path d="M507.268 203.491C507.766 203.778 508.169 204.414 508.169 204.912C508.169 205.41 507.765 205.58 507.268 205.293C506.77 205.005 506.367 204.369 506.367 203.871C506.367 203.374 506.77 203.204 507.268 203.491Z" fill="#191B1D"/>
<path d="M526.318 233.314C526.816 233.602 527.219 234.238 527.219 234.736C527.219 235.233 526.815 235.403 526.318 235.116C525.82 234.829 525.417 234.193 525.417 233.695C525.417 233.197 525.82 233.027 526.318 233.314Z" fill="#191B1D"/>
<path d="M524.031 222.591C524.529 222.878 524.932 223.514 524.932 224.012C524.932 224.51 524.528 224.68 524.031 224.393C523.533 224.106 523.13 223.47 523.13 222.972C523.13 222.474 523.533 222.303 524.031 222.591Z" fill="#191B1D"/>
<path d="M512.094 223.39C512.592 223.678 512.994 224.314 512.994 224.812C512.994 225.309 512.591 225.479 512.094 225.192C511.596 224.905 511.193 224.269 511.193 223.771C511.192 223.274 511.596 223.103 512.094 223.39Z" fill="#191B1D"/>
<path d="M551.237 234.952C551.735 235.239 552.138 235.875 552.138 236.373C552.138 236.871 551.734 237.041 551.237 236.753C550.739 236.466 550.336 235.83 550.336 235.332C550.336 234.835 550.74 234.665 551.237 234.952Z" fill="#191B1D"/>
<path d="M539.276 234.819C539.774 235.107 540.177 235.742 540.177 236.24C540.177 236.738 539.773 236.908 539.276 236.621C538.778 236.334 538.376 235.698 538.376 235.2C538.376 234.702 538.778 234.532 539.276 234.819Z" fill="#191B1D"/>
<path d="M537.012 225.028C537.51 225.315 537.913 225.951 537.913 226.449C537.913 226.947 537.509 227.117 537.012 226.829C536.514 226.542 536.112 225.906 536.112 225.408C536.112 224.911 536.515 224.741 537.012 225.028Z" fill="#191B1D"/>
<path d="M556.712 254.851C557.21 255.138 557.613 255.774 557.613 256.272C557.613 256.77 557.209 256.94 556.712 256.653C556.214 256.365 555.812 255.73 555.812 255.232C555.811 254.735 556.214 254.564 556.712 254.851Z" fill="#191B1D"/>
<path d="M544.751 254.719C545.249 255.006 545.652 255.642 545.652 256.14C545.652 256.638 545.248 256.808 544.751 256.52C544.253 256.233 543.85 255.597 543.85 255.099C543.85 254.602 544.254 254.432 544.751 254.719Z" fill="#191B1D"/>
<path d="M553.775 244.128C554.273 244.415 554.676 245.051 554.676 245.549C554.676 246.047 554.272 246.217 553.775 245.93C553.277 245.642 552.874 245.007 552.874 244.509C552.874 244.011 553.278 243.841 553.775 244.128Z" fill="#191B1D"/>
<path d="M541.838 244.927C542.336 245.214 542.739 245.85 542.739 246.348C542.739 246.846 542.335 247.016 541.838 246.729C541.34 246.441 540.937 245.805 540.937 245.308C540.937 244.811 541.341 244.64 541.838 244.927Z" fill="#191B1D"/>
<path d="M561.537 265.533C562.035 265.82 562.437 266.456 562.437 266.954C562.437 267.452 562.034 267.621 561.537 267.334C561.04 267.047 560.636 266.411 560.636 265.913C560.636 265.416 561.04 265.245 561.537 265.533Z" fill="#191B1D"/>
<path d="M549.599 266.333C550.097 266.62 550.5 267.256 550.5 267.754C550.5 268.252 550.096 268.421 549.599 268.134C549.102 267.847 548.699 267.211 548.699 266.713C548.699 266.216 549.102 266.045 549.599 266.333Z" fill="#191B1D"/>
<path d="M569.261 288.492C569.759 288.779 570.162 289.415 570.162 289.913C570.162 290.411 569.758 290.581 569.261 290.294C568.763 290.007 568.36 289.371 568.36 288.873C568.359 288.375 568.763 288.205 569.261 288.492Z" fill="#191B1D"/>
<path d="M557.3 288.36C557.798 288.647 558.2 289.283 558.2 289.781C558.2 290.279 557.797 290.448 557.3 290.161C556.802 289.874 556.399 289.238 556.399 288.74C556.399 288.243 556.803 288.072 557.3 288.36Z" fill="#191B1D"/>
<path d="M566.974 277.768C567.472 278.055 567.874 278.691 567.874 279.189C567.874 279.687 567.471 279.857 566.974 279.57C566.476 279.282 566.073 278.646 566.073 278.149C566.073 277.652 566.476 277.481 566.974 277.768Z" fill="#191B1D"/>
<path d="M555.037 278.568C555.535 278.855 555.937 279.491 555.937 279.989C555.937 280.487 555.534 280.657 555.037 280.37C554.539 280.082 554.136 279.447 554.136 278.949C554.136 278.452 554.539 278.281 555.037 278.568Z" fill="#191B1D"/>
<path d="M562.125 308.259C562.623 308.546 563.026 309.182 563.026 309.68C563.026 310.178 562.622 310.348 562.125 310.061C561.627 309.773 561.224 309.137 561.224 308.639C561.224 308.142 561.627 307.972 562.125 308.259Z" fill="#191B1D"/>
<path d="M571.799 297.668C572.297 297.956 572.7 298.592 572.7 299.089C572.7 299.587 572.296 299.757 571.799 299.47C571.301 299.183 570.898 298.547 570.898 298.049C570.898 297.551 571.301 297.38 571.799 297.668Z" fill="#191B1D"/>
<path d="M559.862 298.467C560.36 298.755 560.763 299.39 560.763 299.888C560.763 300.386 560.359 300.556 559.862 300.269C559.364 299.982 558.961 299.346 558.961 298.848C558.96 298.351 559.364 298.18 559.862 298.467Z" fill="#191B1D"/>
<path d="M504.34 267.255C504.838 267.542 505.241 268.178 505.241 268.676C505.241 269.174 504.837 269.343 504.34 269.056C503.843 268.769 503.439 268.133 503.439 267.635C503.439 267.137 503.842 266.967 504.34 267.255Z" fill="#191B1D"/>
<path d="M498.18 254.215C498.677 254.503 499.08 255.138 499.08 255.636C499.08 256.134 498.677 256.304 498.18 256.017C497.683 255.73 497.279 255.094 497.279 254.596C497.279 254.098 497.683 253.928 498.18 254.215Z" fill="#191B1D"/>
<path d="M521.465 288.359C521.963 288.646 522.365 289.282 522.365 289.78C522.365 290.278 521.962 290.447 521.465 290.16C520.968 289.873 520.564 289.237 520.564 288.739C520.564 288.241 520.968 288.071 521.465 288.359Z" fill="#191B1D"/>
<path d="M507.24 278.436C507.738 278.723 508.141 279.359 508.141 279.857C508.141 280.355 507.737 280.524 507.24 280.237C506.742 279.95 506.339 279.314 506.339 278.816C506.339 278.318 506.743 278.148 507.24 278.436Z" fill="#191B1D"/>
<path d="M526.29 308.259C526.788 308.546 527.191 309.182 527.191 309.68C527.191 310.178 526.787 310.348 526.29 310.06C525.792 309.773 525.389 309.137 525.389 308.639C525.389 308.141 525.792 307.971 526.29 308.259Z" fill="#191B1D"/>
<path d="M495.331 282.843C495.829 283.13 496.232 283.766 496.232 284.264C496.232 284.762 495.828 284.932 495.331 284.645C494.833 284.358 494.43 283.722 494.43 283.224C494.43 282.726 494.833 282.556 495.331 282.843Z" fill="#191B1D"/>
<path d="M524.003 297.535C524.501 297.822 524.903 298.458 524.903 298.956C524.903 299.454 524.5 299.624 524.003 299.336C523.505 299.049 523.102 298.413 523.102 297.915C523.102 297.418 523.506 297.248 524.003 297.535Z" fill="#191B1D"/>
<path d="M512.066 298.335C512.564 298.622 512.967 299.258 512.967 299.756C512.967 300.254 512.563 300.424 512.066 300.136C511.568 299.849 511.165 299.213 511.165 298.715C511.165 298.218 511.568 298.048 512.066 298.335Z" fill="#191B1D"/>
<path d="M545.637 289.7C546.135 289.987 546.537 290.623 546.537 291.121C546.537 291.619 546.134 291.788 545.637 291.501C545.139 291.214 544.736 290.578 544.736 290.08C544.736 289.583 545.139 289.412 545.637 289.7Z" fill="#191B1D"/>
<path d="M533.676 289.568C534.174 289.855 534.577 290.491 534.577 290.989C534.577 291.487 534.173 291.657 533.676 291.37C533.178 291.082 532.775 290.447 532.775 289.949C532.774 289.451 533.178 289.281 533.676 289.568Z" fill="#191B1D"/>
<path d="M543.349 278.977C543.847 279.264 544.25 279.9 544.25 280.398C544.25 280.896 543.846 281.065 543.349 280.778C542.852 280.491 542.448 279.855 542.448 279.357C542.448 278.859 542.852 278.689 543.349 278.977Z" fill="#191B1D"/>
<path d="M550.462 309.599C550.96 309.886 551.363 310.522 551.363 311.02C551.363 311.518 550.959 311.688 550.462 311.4C549.964 311.113 549.561 310.477 549.561 309.979C549.561 309.482 549.964 309.312 550.462 309.599Z" fill="#191B1D"/>
<path d="M538.501 309.468C538.999 309.755 539.401 310.391 539.401 310.889C539.401 311.387 538.998 311.556 538.501 311.269C538.003 310.982 537.6 310.346 537.6 309.848C537.6 309.351 538.004 309.18 538.501 309.468Z" fill="#191B1D"/>
<path d="M548.175 298.876C548.673 299.163 549.075 299.799 549.075 300.297C549.075 300.795 548.672 300.964 548.175 300.677C547.677 300.39 547.274 299.754 547.274 299.256C547.274 298.758 547.678 298.589 548.175 298.876Z" fill="#191B1D"/>
<path d="M536.237 299.676C536.735 299.963 537.138 300.599 537.138 301.097C537.138 301.595 536.734 301.764 536.237 301.477C535.739 301.19 535.337 300.554 535.337 300.056C535.337 299.558 535.739 299.389 536.237 299.676Z" fill="#191B1D"/>
<path d="M475.205 180.183L347.972 255.858V265.683" stroke="#191B1D" stroke-linecap="round" stroke-linejoin="round"/>
<path d="M349.122 261.854L356.627 266.542L347.972 271.949L339.319 266.542L346.799 261.87" stroke="#191B1D" stroke-linecap="round" stroke-linejoin="round"/>
<path d="M349.363 295.265L358.442 300.938L347.972 307.48L337.503 300.938L346.551 295.285" stroke="#191B1D" stroke-linecap="round" stroke-linejoin="round"/>
<path d="M349.12 265.582C349.414 265.788 349.596 266.071 349.596 266.386C349.596 267.013 348.869 267.522 347.973 267.522C347.075 267.522 346.349 267.013 346.349 266.386C346.349 266.071 346.531 265.788 346.825 265.582" stroke="#191B1D" stroke-linecap="round" stroke-linejoin="round"/>
<path d="M349.12 299.433C349.414 299.639 349.596 299.922 349.596 300.236C349.596 300.864 348.869 301.373 347.973 301.373C347.075 301.373 346.349 300.864 346.349 300.236C346.349 299.922 346.531 299.639 346.825 299.433" stroke="#191B1D" stroke-linecap="round" stroke-linejoin="round"/>
<path d="M347.972 273.477V299.887" stroke="#191B1D" stroke-linecap="round" stroke-linejoin="round"/>
<path d="M405.062 235.809L413.829 241.654L405.062 255.184L396.187 249.772L405.062 235.809Z" stroke="#191B1D" stroke-linecap="round" stroke-linejoin="round"/>
<path d="M405.036 240.464L409.591 243.501L405.036 250.53L400.425 247.718L405.036 240.464Z" stroke="#191B1D" stroke-linecap="round" stroke-linejoin="round"/>
<path d="M405.008 221.935V235.809" stroke="#191B1D" stroke-linecap="round" stroke-linejoin="round"/>
<path d="M92.9199 137.952C85.4203 126.367 81.6653 114.024 81.6653 100.938V41.4343L111.175 58.472V117.099C111.175 123.52 112.32 128.851 114.615 133.097C116.91 137.332 120.222 140.709 124.557 143.212C128.892 145.715 132.204 146.161 134.499 144.576C136.788 142.978 137.939 138.971 137.939 132.549V73.9236L166.944 90.6704V145.626C166.944 175.388 148.845 181.555 124.308 166.951C110.989 159.024 100.424 149.529 92.9199 137.952Z" stroke="#191B1D" stroke-linecap="round" stroke-linejoin="round"/>
<path d="M85.2375 47.6211V100.937C85.2375 113.262 88.8312 125.062 95.9187 136.01C102.939 146.842 112.823 155.959 126.134 163.882C133.916 168.513 141.077 170.962 146.843 170.962C160.504 170.962 163.372 157.185 163.372 145.626V92.732L141.51 80.1095V132.55C141.51 140.388 139.931 145.139 136.543 147.505C135.031 148.549 133.291 149.074 131.356 149.074C128.806 149.074 125.998 148.169 122.77 146.306C117.884 143.484 114.083 139.613 111.475 134.799C108.906 130.045 107.604 124.091 107.604 117.099V60.5346L85.2375 47.6211Z" stroke="#191B1D" stroke-linecap="round" stroke-linejoin="round" stroke-dasharray="1 3"/>
<path d="M81.6653 41.4344L136.953 9.70874L166.463 26.7464V57.8361M193.225 75.3708V42.1971L222.231 58.9439V113.251C222.231 133.496 212.8 138.462 200.075 146.625C183.589 157.2 156.186 172.231 156.186 172.231" stroke="#191B1D" stroke-linecap="round" stroke-linejoin="round"/>
<path d="M111.176 58.472L166.463 26.7463" stroke="#191B1D" stroke-linecap="round" stroke-linejoin="round"/>
<path d="M137.938 73.9236L193.225 42.197" stroke="#191B1D" stroke-linecap="round" stroke-linejoin="round"/>
<path d="M166.943 90.6695L222.232 58.9438" stroke="#191B1D" stroke-linecap="round" stroke-linejoin="round"/>
<path d="M188.785 78.1365C188.785 78.1365 188.785 118.343 188.785 129.167C188.785 139.99 188.785 153.586 176.133 160.999" stroke="#191B1D" stroke-linecap="round" stroke-linejoin="round"/>
<path d="M207.836 67.2053C207.836 67.2053 207.836 106.86 207.836 117.684C207.836 128.508 205.866 143.753 195.706 149.364" stroke="#191B1D" stroke-linecap="round" stroke-linejoin="round"/>
<path d="M151.299 91.9573C155.89 94.6083 159.612 100.479 159.612 105.07C159.612 109.662 155.89 111.235 151.299 108.584C146.707 105.933 142.985 100.062 142.985 95.4708C142.985 90.8794 146.707 89.3073 151.299 91.9573Z" stroke="#191B1D" stroke-linecap="round" stroke-linejoin="round"/>
<path d="M153.209 90.6948C157.801 93.3457 161.523 99.2164 161.523 103.808C161.523 108.399 157.801 109.972 153.209 107.321C148.618 104.67 144.896 98.7996 144.896 94.2082C144.896 89.6169 148.618 88.0438 153.209 90.6948Z" stroke="#191B1D" stroke-linecap="round" stroke-linejoin="round"/>
<path d="M95.4031 59.5229C99.9944 62.1739 103.717 68.0446 103.717 72.6359C103.717 77.2273 99.9944 78.8003 95.4031 76.1494C90.8117 73.4984 87.0894 67.6277 87.0894 63.0364C87.0894 58.445 90.8117 56.872 95.4031 59.5229Z" stroke="#191B1D" stroke-linecap="round" stroke-linejoin="round"/>
<path d="M97.3137 58.2595C101.905 60.9104 105.627 66.7811 105.627 71.3725C105.627 75.9639 101.905 77.5369 97.3137 74.886C92.7223 72.235 89 66.3643 89 61.7729C89 57.1816 92.7223 55.6085 97.3137 58.2595Z" stroke="#191B1D" stroke-linecap="round" stroke-linejoin="round"/>
<path d="M69.6675 79.9892C74.2588 82.6402 77.9812 88.5109 77.9812 93.1022C77.9812 97.6936 74.2588 99.2667 69.6675 96.6157C65.0761 93.9647 61.3538 88.0941 61.3538 83.5027C61.3538 78.9113 65.0752 77.3383 69.6675 79.9892Z" stroke="#191B1D" stroke-linecap="round" stroke-linejoin="round"/>
<path d="M71.5771 78.7258C76.1685 81.3767 79.8909 87.2474 79.8909 91.8388C79.8909 96.4302 76.1685 98.0032 71.5771 95.3523C66.9858 92.7013 63.2634 86.8306 63.2634 82.2393C63.2634 77.6479 66.9858 76.0748 71.5771 78.7258Z" stroke="#191B1D" stroke-linecap="round" stroke-linejoin="round"/>
<path d="M125.602 111.785C130.194 114.436 133.916 120.307 133.916 124.898C133.916 129.489 130.194 131.062 125.602 128.411C121.011 125.76 117.289 119.89 117.289 115.298C117.289 110.707 121.011 109.134 125.602 111.785Z" stroke="#191B1D" stroke-linecap="round" stroke-linejoin="round"/>
<path d="M127.513 110.521C132.104 113.172 135.827 119.043 135.827 123.634C135.827 128.226 132.104 129.799 127.513 127.148C122.922 124.497 119.199 118.626 119.199 114.035C119.199 109.444 122.922 107.87 127.513 110.521Z" stroke="#191B1D" stroke-linecap="round" stroke-linejoin="round"/>
<path d="M102.603 128.795C105.694 130.579 108.198 134.531 108.198 137.621C108.198 140.711 105.693 141.77 102.603 139.986C99.5133 138.202 97.0088 134.25 97.0088 131.16C97.0079 128.07 99.5133 127.011 102.603 128.795Z" stroke="#191B1D" stroke-linecap="round" stroke-linejoin="round"/>
<path d="M103.889 127.945C106.98 129.729 109.484 133.681 109.484 136.771C109.484 139.861 106.979 140.919 103.889 139.135C100.799 137.352 98.2947 133.4 98.2947 130.31C98.2947 127.22 100.799 126.16 103.889 127.945Z" stroke="#191B1D" stroke-linecap="round" stroke-linejoin="round"/>
<path d="M48.9336 97.1771C52.0237 98.9609 54.5282 102.913 54.5282 106.003C54.5282 109.093 52.0228 110.151 48.9336 108.367C45.8444 106.584 43.3389 102.632 43.3389 99.5418C43.3379 96.4516 45.8434 95.3933 48.9336 97.1771Z" stroke="#191B1D" stroke-linecap="round" stroke-linejoin="round"/>
<path d="M50.2194 96.3267C53.3096 98.1105 55.8141 102.062 55.8141 105.152C55.8141 108.243 53.3086 109.301 50.2194 107.517C47.1293 105.733 44.6248 101.782 44.6248 98.6914C44.6248 95.6013 47.1293 94.543 50.2194 96.3267Z" stroke="#191B1D" stroke-linecap="round" stroke-linejoin="round"/>
<path d="M136.953 9.70874V43.6797" stroke="#191B1D" stroke-linecap="round" stroke-linejoin="round"/>
<path d="M1 181.412C1 181.412 20.4835 191.803 46.4606 207.606C72.4377 223.409 75.9017 240.944 74.8192 248.954C73.7366 256.963 70.2735 259.994 65.0779 261.293C75.6313 272.766 84.2527 293.981 74.9898 302.857C65.7268 311.733 47.1096 298.961 38.2345 293.765C29.3586 288.57 1 272.117 1 272.117V181.412Z" stroke="#191B1D" stroke-linecap="round" stroke-linejoin="round"/>
<path d="M74.3977 257.509C74.4984 257.627 74.5982 257.745 74.698 257.865" stroke="#191B1D" stroke-linecap="round" stroke-linejoin="round"/>
<path d="M76.4146 260.036C84.8467 271.272 90.6922 287.812 84.2965 296.291" stroke="#191B1D" stroke-linecap="round" stroke-linejoin="round" stroke-dasharray="0.99 2.97"/>
<path d="M83.3985 297.343C83.2913 297.454 83.1822 297.563 83.0703 297.67" stroke="#191B1D" stroke-linecap="round" stroke-linejoin="round"/>
<path d="M9.08057 176.874C9.08057 176.874 9.21857 176.948 9.48805 177.092" stroke="#191B1D" stroke-linecap="round" stroke-linejoin="round"/>
<path d="M11.9226 178.413C18.2297 181.854 34.4422 190.841 54.5411 203.069C80.5191 218.872 83.9822 236.406 82.8997 244.416C82.4894 247.454 81.736 249.776 80.6758 251.559" stroke="#191B1D" stroke-linecap="round" stroke-linejoin="round" stroke-dasharray="0.99 2.97"/>
<path d="M79.8927 252.71C79.7976 252.833 79.6997 252.953 79.6008 253.069" stroke="#191B1D" stroke-linecap="round" stroke-linejoin="round"/>
<path d="M1 181.412L51.6049 151.541C51.6049 151.541 71.0884 161.932 97.0655 177.735C120.71 192.119 125.703 207.937 125.593 216.702" stroke="#191B1D" stroke-linecap="round" stroke-linejoin="round"/>
<path d="M115.735 232.988C122.067 239.32 128.948 251.117 129.049 262.701C129.137 272.929 124.665 274.228 118.982 277.475C113.299 280.722 73.2004 304.242 73.2004 304.242" stroke="#191B1D" stroke-linecap="round" stroke-linejoin="round"/>
<path d="M118.495 231.039L69.1218 259.66" stroke="#191B1D" stroke-linecap="round" stroke-linejoin="round"/>
<path d="M78.9285 253.975L100.556 288.216" stroke="#191B1D" stroke-linecap="round" stroke-linejoin="round"/>
<path d="M102.132 240.567L123.759 274.808" stroke="#191B1D" stroke-linecap="round" stroke-linejoin="round"/>
<path d="M96.4502 281.716L119.847 268.615" stroke="#191B1D" stroke-linecap="round" stroke-linejoin="round"/>
<path d="M87.1125 267.076L110.51 253.975" stroke="#191B1D" stroke-linecap="round" stroke-linejoin="round"/>
<path d="M127.49 274.284L131.322 276.663L74.008 309.947L66.54 305.912" stroke="#191B1D" stroke-linecap="round" stroke-linejoin="round"/>
<path d="M131.322 276.663V281.047L74.0078 313.681V309.947" stroke="#191B1D" stroke-linecap="round" stroke-linejoin="round"/>
<path d="M50.2202 300.702L74.0079 313.681" stroke="#191B1D" stroke-linecap="round" stroke-linejoin="round"/>
<path d="M27.0862 217.888C27.0862 217.888 32.7685 221.135 39.263 225.195C45.7575 229.254 48.8421 234.287 47.8686 237.696C46.8951 241.105 43.3229 240.943 36.0162 236.722C28.7096 232.5 27.0862 231.039 27.0862 231.039V217.888Z" stroke="#191B1D" stroke-linecap="round" stroke-linejoin="round"/>
<path d="M27.0862 231.039L38.3427 224.621" stroke="#191B1D" stroke-linecap="round" stroke-linejoin="round"/>
<path d="M27.0862 251.384C27.0862 251.384 35.0278 256.089 42.1266 260.525C49.2244 264.962 52.6679 270.558 51.6031 274.284C50.5382 278.01 46.3282 277.424 38.3427 272.81C30.3572 268.196 27.0862 265.758 27.0862 265.758V251.384Z" stroke="#191B1D" stroke-linecap="round" stroke-linejoin="round"/>
<path d="M27.0862 265.758L39.3889 258.743" stroke="#191B1D" stroke-linecap="round" stroke-linejoin="round"/>
<path d="M116.547 219.674L110.51 216.701C110.51 216.701 109.186 216.156 108.7 217.239C108.402 217.901 108.711 218.842 109.363 219.16C110.014 219.478 115.735 222.272 115.735 222.272" stroke="#191B1D" stroke-linecap="round" stroke-linejoin="round"/>
<path d="M123.759 221.136L119.415 218.538V229.578L123.42 231.96" stroke="#191B1D" stroke-linecap="round" stroke-linejoin="round"/>
<path d="M119.415 227.36C116.872 225.736 116.059 224.275 116.06 221.569C116.061 219.187 117.737 218.051 119.415 219.08" stroke="#191B1D" stroke-linecap="round" stroke-linejoin="round"/>
<path d="M119.415 218.538L121.587 217.011L124.951 218.805" stroke="#191B1D" stroke-linecap="round" stroke-linejoin="round"/>
<path d="M127.155 235.532L123.759 233.258V219.62L127.587 221.947L127.155 235.532Z" stroke="#191B1D" stroke-linecap="round" stroke-linejoin="round"/>
<path d="M123.759 219.62L126.451 217.78L130.168 220.038L127.587 221.947L123.759 219.62Z" stroke="#191B1D" stroke-linecap="round" stroke-linejoin="round"/>
<path d="M119.902 216.102C120.389 212.584 119.307 206.469 113.353 204.575C107.4 202.681 99.6072 205.873 97.7666 214.262C95.9269 222.65 100.256 227.413 105.181 228.604C110.107 229.794 114.544 226.872 115.735 225.248" stroke="#191B1D" stroke-linecap="round" stroke-linejoin="round"/>
<path d="M102.943 226.271C107.108 226.487 110.635 224.072 111.678 222.651" stroke="#191B1D" stroke-linecap="round" stroke-linejoin="round"/>
<path d="M115.412 216.63C116.702 213.635 116.511 210.037 115.069 207.103" stroke="#191B1D" stroke-linecap="round" stroke-linejoin="round"/>
<path d="M127.587 221.947C132.565 224.815 144.96 232.609 147.99 234.666C151.021 236.723 154.485 240.51 155.351 251.335C156.217 262.159 156.217 277.638 155.892 279.261C155.567 280.884 154.485 280.992 152.753 280.884C151.022 280.776 146.583 278.287 146.475 273.524C146.367 268.761 146.151 258.996 144.31 253.975C142.47 248.954 141.066 247.757 138.248 246.139C136.397 245.076 132.911 243.083 129.698 241.376C127.902 240.423 127.168 238.46 127.154 235.532" stroke="#191B1D" stroke-linecap="round" stroke-linejoin="round"/>
<path d="M133.27 244.7C133.27 246.464 134.785 248.196 136.734 249.387C138.682 250.578 140.198 252.634 140.631 255.123C141.063 257.613 141.929 260.427 144.744 261.942" stroke="#191B1D" stroke-linecap="round" stroke-linejoin="round"/>
<path d="M129.698 226.71V229.903L146.583 240.567V237.588L129.698 226.71Z" stroke="#191B1D" stroke-linecap="round" stroke-linejoin="round"/>
<path d="M131.322 220.702C135.759 223.3 143.336 227.521 149.073 231.039C154.809 234.557 157.949 240.077 158.381 247.763C158.814 255.448 159.464 271.222 159.14 274.808C158.815 278.395 158.122 279.99 154.735 280.762" stroke="#191B1D" stroke-linecap="round" stroke-linejoin="round"/>
<path d="M157.941 244.111C157.619 241.785 154.979 241.837 152.97 242.893C151.504 243.663 149.181 244.624 150.047 248.521C150.914 252.418 152.91 258.37 153.21 264.649C153.51 270.927 152.152 272.694 153.21 275.166C154.269 277.638 155.319 277.91 157.191 277.312C159.227 276.662 159.139 274.808 159.139 274.808" stroke="#191B1D" stroke-linecap="round" stroke-linejoin="round"/>
<path d="M5.68562 187.901C6.44557 188.34 7.06191 189.311 7.06191 190.071C7.06191 190.831 6.44557 191.091 5.68562 190.653C4.92567 190.214 4.30933 189.242 4.30933 188.482C4.30933 187.722 4.92567 187.461 5.68562 187.901Z" stroke="#191B1D" stroke-linecap="round" stroke-linejoin="round"/>
<path d="M70.4971 246.712C71.2571 247.151 71.8734 248.123 71.8734 248.883C71.8734 249.642 71.2571 249.903 70.4971 249.464C69.7372 249.025 69.1208 248.054 69.1208 247.294C69.1208 246.534 69.7372 246.273 70.4971 246.712Z" stroke="#191B1D" stroke-linecap="round" stroke-linejoin="round"/>
<path d="M74.3978 293.796C75.1577 294.235 75.7741 295.207 75.7741 295.967C75.7741 296.727 75.1577 296.987 74.3978 296.548C73.6378 296.109 73.0215 295.138 73.0215 294.378C73.0215 293.618 73.6378 293.358 74.3978 293.796Z" stroke="#191B1D" stroke-linecap="round" stroke-linejoin="round"/>
<path d="M5.68562 267.889C6.44557 268.328 7.06191 269.3 7.06191 270.06C7.06191 270.819 6.44557 271.08 5.68562 270.641C4.92567 270.203 4.30933 269.231 4.30933 268.471C4.30933 267.711 4.92567 267.45 5.68562 267.889Z" stroke="#191B1D" stroke-linecap="round" stroke-linejoin="round"/>
<path d="M107.725 215.084C106.687 215.153 106.111 216.588 106.503 217.878" stroke="#191B1D" stroke-linecap="round" stroke-linejoin="round"/>
<path d="M105.858 214.123C104.82 214.192 104.244 215.627 104.636 216.916" stroke="#191B1D" stroke-linecap="round" stroke-linejoin="round"/>
<path d="M103.991 213.16C102.952 213.229 102.377 214.664 102.768 215.954" stroke="#191B1D" stroke-linecap="round" stroke-linejoin="round"/>
<path d="M102.124 212.199C101.085 212.268 100.51 213.703 100.902 214.993" stroke="#191B1D" stroke-linecap="round" stroke-linejoin="round"/>
<path d="M275.556 62.2683C276.167 62.2683 276.662 61.773 276.662 61.162C276.662 60.551 276.167 60.0557 275.556 60.0557C274.945 60.0557 274.449 60.551 274.449 61.162C274.449 61.773 274.945 62.2683 275.556 62.2683Z" fill="#191B1D"/>
<path d="M262.667 62.2683C263.278 62.2683 263.773 61.773 263.773 61.162C263.773 60.551 263.278 60.0557 262.667 60.0557C262.056 60.0557 261.561 60.551 261.561 61.162C261.561 61.773 262.056 62.2683 262.667 62.2683Z" fill="#191B1D"/>
<path d="M301.337 62.2683C301.948 62.2683 302.444 61.773 302.444 61.162C302.444 60.551 301.948 60.0557 301.337 60.0557C300.726 60.0557 300.231 60.551 300.231 61.162C300.231 61.773 300.726 62.2683 301.337 62.2683Z" fill="#191B1D"/>
<path d="M288.448 62.2683C289.059 62.2683 289.555 61.773 289.555 61.162C289.555 60.551 289.059 60.0557 288.448 60.0557C287.837 60.0557 287.342 60.551 287.342 61.162C287.342 61.773 287.837 62.2683 288.448 62.2683Z" fill="#191B1D"/>
<path d="M249.777 50.2573C250.388 50.2573 250.883 49.762 250.883 49.151C250.883 48.54 250.388 48.0447 249.777 48.0447C249.166 48.0447 248.671 48.54 248.671 49.151C248.671 49.762 249.166 50.2573 249.777 50.2573Z" fill="#191B1D"/>
<path d="M236.888 50.2573C237.499 50.2573 237.994 49.762 237.994 49.151C237.994 48.54 237.499 48.0447 236.888 48.0447C236.277 48.0447 235.781 48.54 235.781 49.151C235.781 49.762 236.277 50.2573 236.888 50.2573Z" fill="#191B1D"/>
<path d="M262.67 50.2573C263.281 50.2573 263.776 49.762 263.776 49.151C263.776 48.54 263.281 48.0447 262.67 48.0447C262.059 48.0447 261.563 48.54 261.563 49.151C261.563 49.762 262.059 50.2573 262.67 50.2573Z" fill="#191B1D"/>
<path d="M275.558 50.2573C276.169 50.2573 276.665 49.762 276.665 49.151C276.665 48.54 276.169 48.0447 275.558 48.0447C274.947 48.0447 274.452 48.54 274.452 49.151C274.452 49.762 274.947 50.2573 275.558 50.2573Z" fill="#191B1D"/>
<path d="M288.444 50.2573C289.055 50.2573 289.551 49.762 289.551 49.151C289.551 48.54 289.055 48.0447 288.444 48.0447C287.833 48.0447 287.338 48.54 287.338 49.151C287.338 49.762 287.833 50.2573 288.444 50.2573Z" fill="#191B1D"/>
<path d="M301.337 50.2573C301.948 50.2573 302.443 49.762 302.443 49.151C302.443 48.54 301.948 48.0447 301.337 48.0447C300.726 48.0447 300.23 48.54 300.23 49.151C300.23 49.762 300.726 50.2573 301.337 50.2573Z" fill="#191B1D"/>
<path d="M314.226 50.2573C314.837 50.2573 315.332 49.762 315.332 49.151C315.332 48.54 314.837 48.0447 314.226 48.0447C313.615 48.0447 313.119 48.54 313.119 49.151C313.119 49.762 313.615 50.2573 314.226 50.2573Z" fill="#191B1D"/>
<path d="M327.118 50.2573C327.729 50.2573 328.224 49.762 328.224 49.151C328.224 48.54 327.729 48.0447 327.118 48.0447C326.507 48.0447 326.012 48.54 326.012 49.151C326.012 49.762 326.507 50.2573 327.118 50.2573Z" fill="#191B1D"/>
<path d="M236.88 38.2453C237.491 38.2453 237.986 37.75 237.986 37.139C237.986 36.528 237.491 36.0327 236.88 36.0327C236.269 36.0327 235.773 36.528 235.773 37.139C235.773 37.75 236.269 38.2453 236.88 38.2453Z" fill="#191B1D"/>
<path d="M223.991 38.2453C224.602 38.2453 225.097 37.75 225.097 37.139C225.097 36.528 224.602 36.0327 223.991 36.0327C223.38 36.0327 222.885 36.528 222.885 37.139C222.885 37.75 223.38 38.2453 223.991 38.2453Z" fill="#191B1D"/>
<path d="M249.772 38.2453C250.383 38.2453 250.879 37.75 250.879 37.139C250.879 36.528 250.383 36.0327 249.772 36.0327C249.161 36.0327 248.666 36.528 248.666 37.139C248.666 37.75 249.161 38.2453 249.772 38.2453Z" fill="#191B1D"/>
<path d="M262.661 38.2453C263.272 38.2453 263.768 37.75 263.768 37.139C263.768 36.528 263.272 36.0327 262.661 36.0327C262.05 36.0327 261.555 36.528 261.555 37.139C261.555 37.75 262.05 38.2453 262.661 38.2453Z" fill="#191B1D"/>
<path d="M275.554 38.2453C276.165 38.2453 276.66 37.75 276.66 37.139C276.66 36.528 276.165 36.0327 275.554 36.0327C274.943 36.0327 274.448 36.528 274.448 37.139C274.448 37.75 274.943 38.2453 275.554 38.2453Z" fill="#191B1D"/>
<path d="M288.439 38.2453C289.05 38.2453 289.546 37.75 289.546 37.139C289.546 36.528 289.05 36.0327 288.439 36.0327C287.828 36.0327 287.333 36.528 287.333 37.139C287.333 37.75 287.828 38.2453 288.439 38.2453Z" fill="#191B1D"/>
<path d="M301.328 38.2453C301.939 38.2453 302.435 37.75 302.435 37.139C302.435 36.528 301.939 36.0327 301.328 36.0327C300.717 36.0327 300.222 36.528 300.222 37.139C300.222 37.75 300.717 38.2453 301.328 38.2453Z" fill="#191B1D"/>
<path d="M314.221 38.2453C314.832 38.2453 315.327 37.75 315.327 37.139C315.327 36.528 314.832 36.0327 314.221 36.0327C313.61 36.0327 313.115 36.528 313.115 37.139C313.115 37.75 313.61 38.2453 314.221 38.2453Z" fill="#191B1D"/>
<path d="M327.11 38.2453C327.721 38.2453 328.216 37.75 328.216 37.139C328.216 36.528 327.721 36.0327 327.11 36.0327C326.499 36.0327 326.004 36.528 326.004 37.139C326.004 37.75 326.499 38.2453 327.11 38.2453Z" fill="#191B1D"/>
<path d="M339.999 38.2453C340.61 38.2453 341.105 37.75 341.105 37.139C341.105 36.528 340.61 36.0327 339.999 36.0327C339.388 36.0327 338.893 36.528 338.893 37.139C338.893 37.75 339.388 38.2453 339.999 38.2453Z" fill="#191B1D"/>
<path d="M223.991 26.2341C224.602 26.2341 225.097 25.7388 225.097 25.1278C225.097 24.5168 224.602 24.0215 223.991 24.0215C223.38 24.0215 222.885 24.5168 222.885 25.1278C222.885 25.7388 223.38 26.2341 223.991 26.2341Z" fill="#191B1D"/>
<path d="M236.88 26.2341C237.491 26.2341 237.986 25.7388 237.986 25.1278C237.986 24.5168 237.491 24.0215 236.88 24.0215C236.269 24.0215 235.773 24.5168 235.773 25.1278C235.773 25.7388 236.269 26.2341 236.88 26.2341Z" fill="#191B1D"/>
<path d="M249.772 26.2341C250.383 26.2341 250.879 25.7388 250.879 25.1278C250.879 24.5168 250.383 24.0215 249.772 24.0215C249.161 24.0215 248.666 24.5168 248.666 25.1278C248.666 25.7388 249.161 26.2341 249.772 26.2341Z" fill="#191B1D"/>
<path d="M262.661 26.2341C263.272 26.2341 263.768 25.7388 263.768 25.1278C263.768 24.5168 263.272 24.0215 262.661 24.0215C262.05 24.0215 261.555 24.5168 261.555 25.1278C261.555 25.7388 262.05 26.2341 262.661 26.2341Z" fill="#191B1D"/>
<path d="M275.554 26.2341C276.165 26.2341 276.66 25.7388 276.66 25.1278C276.66 24.5168 276.165 24.0215 275.554 24.0215C274.943 24.0215 274.448 24.5168 274.448 25.1278C274.448 25.7388 274.943 26.2341 275.554 26.2341Z" fill="#191B1D"/>
<path d="M288.439 26.2341C289.05 26.2341 289.546 25.7388 289.546 25.1278C289.546 24.5168 289.05 24.0215 288.439 24.0215C287.828 24.0215 287.333 24.5168 287.333 25.1278C287.333 25.7388 287.828 26.2341 288.439 26.2341Z" fill="#191B1D"/>
<path d="M301.328 26.2341C301.939 26.2341 302.435 25.7388 302.435 25.1278C302.435 24.5168 301.939 24.0215 301.328 24.0215C300.717 24.0215 300.222 24.5168 300.222 25.1278C300.222 25.7388 300.717 26.2341 301.328 26.2341Z" fill="#191B1D"/>
<path d="M314.221 26.2341C314.832 26.2341 315.327 25.7388 315.327 25.1278C315.327 24.5168 314.832 24.0215 314.221 24.0215C313.61 24.0215 313.115 24.5168 313.115 25.1278C313.115 25.7388 313.61 26.2341 314.221 26.2341Z" fill="#191B1D"/>
<path d="M327.11 26.2341C327.721 26.2341 328.216 25.7388 328.216 25.1278C328.216 24.5168 327.721 24.0215 327.11 24.0215C326.499 24.0215 326.004 24.5168 326.004 25.1278C326.004 25.7388 326.499 26.2341 327.11 26.2341Z" fill="#191B1D"/>
<path d="M339.999 26.2341C340.61 26.2341 341.105 25.7388 341.105 25.1278C341.105 24.5168 340.61 24.0215 339.999 24.0215C339.388 24.0215 338.893 24.5168 338.893 25.1278C338.893 25.7388 339.388 26.2341 339.999 26.2341Z" fill="#191B1D"/>
<path d="M211.106 14.2239C211.717 14.2239 212.213 13.7285 212.213 13.1175C212.213 12.5065 211.717 12.0112 211.106 12.0112C210.495 12.0112 210 12.5065 210 13.1175C210 13.7285 210.495 14.2239 211.106 14.2239Z" fill="#191B1D"/>
<path d="M223.995 14.2239C224.606 14.2239 225.102 13.7285 225.102 13.1175C225.102 12.5065 224.606 12.0112 223.995 12.0112C223.384 12.0112 222.889 12.5065 222.889 13.1175C222.889 13.7285 223.384 14.2239 223.995 14.2239Z" fill="#191B1D"/>
<path d="M236.888 14.2239C237.499 14.2239 237.994 13.7285 237.994 13.1175C237.994 12.5065 237.499 12.0112 236.888 12.0112C236.277 12.0112 235.781 12.5065 235.781 13.1175C235.781 13.7285 236.277 14.2239 236.888 14.2239Z" fill="#191B1D"/>
<path d="M249.777 14.2239C250.388 14.2239 250.883 13.7285 250.883 13.1175C250.883 12.5065 250.388 12.0112 249.777 12.0112C249.166 12.0112 248.67 12.5065 248.67 13.1175C248.67 13.7285 249.166 14.2239 249.777 14.2239Z" fill="#191B1D"/>
<path d="M262.669 14.2239C263.28 14.2239 263.776 13.7285 263.776 13.1175C263.776 12.5065 263.28 12.0112 262.669 12.0112C262.058 12.0112 261.563 12.5065 261.563 13.1175C261.563 13.7285 262.058 14.2239 262.669 14.2239Z" fill="#191B1D"/>
<path d="M275.555 14.2239C276.166 14.2239 276.661 13.7285 276.661 13.1175C276.661 12.5065 276.166 12.0112 275.555 12.0112C274.944 12.0112 274.448 12.5065 274.448 13.1175C274.448 13.7285 274.944 14.2239 275.555 14.2239Z" fill="#191B1D"/>
<path d="M288.444 14.2239C289.055 14.2239 289.55 13.7285 289.55 13.1175C289.55 12.5065 289.055 12.0112 288.444 12.0112C287.833 12.0112 287.338 12.5065 287.338 13.1175C287.338 13.7285 287.833 14.2239 288.444 14.2239Z" fill="#191B1D"/>
<path d="M301.336 14.2239C301.947 14.2239 302.443 13.7285 302.443 13.1175C302.443 12.5065 301.947 12.0112 301.336 12.0112C300.725 12.0112 300.23 12.5065 300.23 13.1175C300.23 13.7285 300.725 14.2239 301.336 14.2239Z" fill="#191B1D"/>
<path d="M314.225 14.2239C314.836 14.2239 315.332 13.7285 315.332 13.1175C315.332 12.5065 314.836 12.0112 314.225 12.0112C313.614 12.0112 313.119 12.5065 313.119 13.1175C313.119 13.7285 313.614 14.2239 314.225 14.2239Z" fill="#191B1D"/>
<path d="M327.114 14.2239C327.725 14.2239 328.221 13.7285 328.221 13.1175C328.221 12.5065 327.725 12.0112 327.114 12.0112C326.503 12.0112 326.008 12.5065 326.008 13.1175C326.008 13.7285 326.503 14.2239 327.114 14.2239Z" fill="#191B1D"/>
<path d="M340.007 14.2239C340.618 14.2239 341.113 13.7285 341.113 13.1175C341.113 12.5065 340.618 12.0112 340.007 12.0112C339.396 12.0112 338.901 12.5065 338.901 13.1175C338.901 13.7285 339.396 14.2239 340.007 14.2239Z" fill="#191B1D"/>
<path d="M352.892 14.2239C353.503 14.2239 353.999 13.7285 353.999 13.1175C353.999 12.5065 353.503 12.0112 352.892 12.0112C352.281 12.0112 351.786 12.5065 351.786 13.1175C351.786 13.7285 352.281 14.2239 352.892 14.2239Z" fill="#191B1D"/>
<path d="M211.106 2.21262C211.717 2.21262 212.213 1.71731 212.213 1.10631C212.213 0.495313 211.717 0 211.106 0C210.495 0 210 0.495313 210 1.10631C210 1.71731 210.495 2.21262 211.106 2.21262Z" fill="#191B1D"/>
<path d="M223.995 2.21262C224.606 2.21262 225.102 1.71731 225.102 1.10631C225.102 0.495313 224.606 0 223.995 0C223.384 0 222.889 0.495313 222.889 1.10631C222.889 1.71731 223.384 2.21262 223.995 2.21262Z" fill="#191B1D"/>
<path d="M236.888 2.21262C237.499 2.21262 237.994 1.71731 237.994 1.10631C237.994 0.495313 237.499 0 236.888 0C236.277 0 235.781 0.495313 235.781 1.10631C235.781 1.71731 236.277 2.21262 236.888 2.21262Z" fill="#191B1D"/>
<path d="M249.777 2.21262C250.388 2.21262 250.883 1.71731 250.883 1.10631C250.883 0.495313 250.388 0 249.777 0C249.166 0 248.67 0.495313 248.67 1.10631C248.67 1.71731 249.166 2.21262 249.777 2.21262Z" fill="#191B1D"/>
<path d="M262.669 2.21262C263.28 2.21262 263.776 1.71731 263.776 1.10631C263.776 0.495313 263.28 0 262.669 0C262.058 0 261.563 0.495313 261.563 1.10631C261.563 1.71731 262.058 2.21262 262.669 2.21262Z" fill="#191B1D"/>
<path d="M275.555 2.21262C276.166 2.21262 276.661 1.71731 276.661 1.10631C276.661 0.495313 276.166 0 275.555 0C274.944 0 274.448 0.495313 274.448 1.10631C274.448 1.71731 274.944 2.21262 275.555 2.21262Z" fill="#191B1D"/>
<path d="M288.444 2.21262C289.055 2.21262 289.55 1.71731 289.55 1.10631C289.55 0.495313 289.055 0 288.444 0C287.833 0 287.338 0.495313 287.338 1.10631C287.338 1.71731 287.833 2.21262 288.444 2.21262Z" fill="#191B1D"/>
<path d="M301.336 2.21262C301.947 2.21262 302.443 1.71731 302.443 1.10631C302.443 0.495313 301.947 0 301.336 0C300.725 0 300.23 0.495313 300.23 1.10631C300.23 1.71731 300.725 2.21262 301.336 2.21262Z" fill="#191B1D"/>
<path d="M314.225 2.21262C314.836 2.21262 315.332 1.71731 315.332 1.10631C315.332 0.495313 314.836 0 314.225 0C313.614 0 313.119 0.495313 313.119 1.10631C313.119 1.71731 313.614 2.21262 314.225 2.21262Z" fill="#191B1D"/>
<path d="M327.114 2.21262C327.725 2.21262 328.221 1.71731 328.221 1.10631C328.221 0.495313 327.725 0 327.114 0C326.503 0 326.008 0.495313 326.008 1.10631C326.008 1.71731 326.503 2.21262 327.114 2.21262Z" fill="#191B1D"/>
<path d="M340.007 2.21262C340.618 2.21262 341.113 1.71731 341.113 1.10631C341.113 0.495313 340.618 0 340.007 0C339.396 0 338.901 0.495313 338.901 1.10631C338.901 1.71731 339.396 2.21262 340.007 2.21262Z" fill="#191B1D"/>
<path d="M352.892 2.21262C353.503 2.21262 353.999 1.71731 353.999 1.10631C353.999 0.495313 353.503 0 352.892 0C352.281 0 351.786 0.495313 351.786 1.10631C351.786 1.71731 352.281 2.21262 352.892 2.21262Z" fill="#191B1D"/>
<path d="M295.444 297.732C294.833 297.732 294.338 298.227 294.338 298.838C294.338 299.449 294.833 299.944 295.444 299.944C296.055 299.944 296.551 299.449 296.551 298.838C296.551 298.227 296.055 297.732 295.444 297.732Z" fill="#191B1D"/>
<path d="M308.333 297.732C307.722 297.732 307.227 298.227 307.227 298.838C307.227 299.449 307.722 299.944 308.333 299.944C308.944 299.944 309.439 299.449 309.439 298.838C309.439 298.227 308.944 297.732 308.333 297.732Z" fill="#191B1D"/>
<path d="M269.663 297.732C269.052 297.732 268.556 298.227 268.556 298.838C268.556 299.449 269.052 299.944 269.663 299.944C270.274 299.944 270.769 299.449 270.769 298.838C270.769 298.227 270.274 297.732 269.663 297.732Z" fill="#191B1D"/>
<path d="M282.552 297.732C281.941 297.732 281.445 298.227 281.445 298.838C281.445 299.449 281.941 299.944 282.552 299.944C283.163 299.944 283.658 299.449 283.658 298.838C283.658 298.227 283.163 297.732 282.552 297.732Z" fill="#191B1D"/>
<path d="M321.223 309.743C320.612 309.743 320.117 310.238 320.117 310.849C320.117 311.46 320.612 311.955 321.223 311.955C321.834 311.955 322.329 311.46 322.329 310.849C322.329 310.238 321.834 309.743 321.223 309.743Z" fill="#191B1D"/>
<path d="M334.112 309.743C333.501 309.743 333.006 310.238 333.006 310.849C333.006 311.46 333.501 311.955 334.112 311.955C334.723 311.955 335.219 311.46 335.219 310.849C335.219 310.238 334.723 309.743 334.112 309.743Z" fill="#191B1D"/>
<path d="M308.33 309.743C307.719 309.743 307.224 310.238 307.224 310.849C307.224 311.46 307.719 311.955 308.33 311.955C308.941 311.955 309.437 311.46 309.437 310.849C309.437 310.238 308.941 309.743 308.33 309.743Z" fill="#191B1D"/>
<path d="M295.442 309.743C294.831 309.743 294.335 310.238 294.335 310.849C294.335 311.46 294.831 311.955 295.442 311.955C296.053 311.955 296.548 311.46 296.548 310.849C296.548 310.238 296.053 309.743 295.442 309.743Z" fill="#191B1D"/>
<path d="M282.556 309.743C281.945 309.743 281.449 310.238 281.449 310.849C281.449 311.46 281.945 311.955 282.556 311.955C283.167 311.955 283.662 311.46 283.662 310.849C283.662 310.238 283.167 309.743 282.556 309.743Z" fill="#191B1D"/>
<path d="M269.663 309.743C269.052 309.743 268.557 310.238 268.557 310.849C268.557 311.46 269.052 311.955 269.663 311.955C270.274 311.955 270.77 311.46 270.77 310.849C270.77 310.238 270.274 309.743 269.663 309.743Z" fill="#191B1D"/>
<path d="M256.774 309.743C256.163 309.743 255.668 310.238 255.668 310.849C255.668 311.46 256.163 311.955 256.774 311.955C257.385 311.955 257.881 311.46 257.881 310.849C257.881 310.238 257.385 309.743 256.774 309.743Z" fill="#191B1D"/>
<path d="M243.882 309.743C243.271 309.743 242.776 310.238 242.776 310.849C242.776 311.46 243.271 311.955 243.882 311.955C244.493 311.955 244.988 311.46 244.988 310.849C244.988 310.238 244.493 309.743 243.882 309.743Z" fill="#191B1D"/>
<path d="M334.12 321.755C333.509 321.755 333.014 322.25 333.014 322.861C333.014 323.472 333.509 323.967 334.12 323.967C334.731 323.967 335.227 323.472 335.227 322.861C335.227 322.25 334.731 321.755 334.12 321.755Z" fill="#191B1D"/>
<path d="M347.009 321.755C346.398 321.755 345.903 322.25 345.903 322.861C345.903 323.472 346.398 323.967 347.009 323.967C347.62 323.967 348.115 323.472 348.115 322.861C348.115 322.25 347.62 321.755 347.009 321.755Z" fill="#191B1D"/>
<path d="M321.228 321.755C320.617 321.755 320.121 322.25 320.121 322.861C320.121 323.472 320.617 323.967 321.228 323.967C321.839 323.967 322.334 323.472 322.334 322.861C322.334 322.25 321.839 321.755 321.228 321.755Z" fill="#191B1D"/>
<path d="M308.339 321.755C307.728 321.755 307.232 322.25 307.232 322.861C307.232 323.472 307.728 323.967 308.339 323.967C308.95 323.967 309.445 323.472 309.445 322.861C309.445 322.25 308.95 321.755 308.339 321.755Z" fill="#191B1D"/>
<path d="M295.446 321.755C294.835 321.755 294.34 322.25 294.34 322.861C294.34 323.472 294.835 323.967 295.446 323.967C296.057 323.967 296.552 323.472 296.552 322.861C296.552 322.25 296.057 321.755 295.446 321.755Z" fill="#191B1D"/>
<path d="M282.561 321.755C281.95 321.755 281.454 322.25 281.454 322.861C281.454 323.472 281.95 323.967 282.561 323.967C283.172 323.967 283.667 323.472 283.667 322.861C283.667 322.25 283.172 321.755 282.561 321.755Z" fill="#191B1D"/>
<path d="M269.672 321.755C269.061 321.755 268.565 322.25 268.565 322.861C268.565 323.472 269.061 323.967 269.672 323.967C270.283 323.967 270.778 323.472 270.778 322.861C270.778 322.25 270.283 321.755 269.672 321.755Z" fill="#191B1D"/>
<path d="M256.779 321.755C256.168 321.755 255.673 322.25 255.673 322.861C255.673 323.472 256.168 323.967 256.779 323.967C257.39 323.967 257.885 323.472 257.885 322.861C257.885 322.25 257.39 321.755 256.779 321.755Z" fill="#191B1D"/>
<path d="M243.89 321.755C243.279 321.755 242.784 322.25 242.784 322.861C242.784 323.472 243.279 323.967 243.89 323.967C244.501 323.967 244.996 323.472 244.996 322.861C244.996 322.25 244.501 321.755 243.89 321.755Z" fill="#191B1D"/>
<path d="M231.001 321.755C230.39 321.755 229.895 322.25 229.895 322.861C229.895 323.472 230.39 323.967 231.001 323.967C231.612 323.967 232.107 323.472 232.107 322.861C232.107 322.25 231.612 321.755 231.001 321.755Z" fill="#191B1D"/>
<path d="M347.009 333.766C346.398 333.766 345.903 334.261 345.903 334.872C345.903 335.483 346.398 335.979 347.009 335.979C347.62 335.979 348.115 335.483 348.115 334.872C348.115 334.261 347.62 333.766 347.009 333.766Z" fill="#191B1D"/>
<path d="M334.12 333.766C333.509 333.766 333.014 334.261 333.014 334.872C333.014 335.483 333.509 335.979 334.12 335.979C334.731 335.979 335.227 335.483 335.227 334.872C335.227 334.261 334.731 333.766 334.12 333.766Z" fill="#191B1D"/>
<path d="M321.228 333.766C320.617 333.766 320.121 334.261 320.121 334.872C320.121 335.483 320.617 335.979 321.228 335.979C321.839 335.979 322.334 335.483 322.334 334.872C322.334 334.261 321.839 333.766 321.228 333.766Z" fill="#191B1D"/>
<path d="M308.339 333.766C307.728 333.766 307.232 334.261 307.232 334.872C307.232 335.483 307.728 335.979 308.339 335.979C308.95 335.979 309.445 335.483 309.445 334.872C309.445 334.261 308.95 333.766 308.339 333.766Z" fill="#191B1D"/>
<path d="M295.446 333.766C294.835 333.766 294.34 334.261 294.34 334.872C294.34 335.483 294.835 335.979 295.446 335.979C296.057 335.979 296.552 335.483 296.552 334.872C296.552 334.261 296.057 333.766 295.446 333.766Z" fill="#191B1D"/>
<path d="M282.561 333.766C281.95 333.766 281.454 334.261 281.454 334.872C281.454 335.483 281.95 335.979 282.561 335.979C283.172 335.979 283.667 335.483 283.667 334.872C283.667 334.261 283.172 333.766 282.561 333.766Z" fill="#191B1D"/>
<path d="M269.672 333.766C269.061 333.766 268.565 334.261 268.565 334.872C268.565 335.483 269.061 335.979 269.672 335.979C270.283 335.979 270.778 335.483 270.778 334.872C270.778 334.261 270.283 333.766 269.672 333.766Z" fill="#191B1D"/>
<path d="M256.779 333.766C256.168 333.766 255.673 334.261 255.673 334.872C255.673 335.483 256.168 335.979 256.779 335.979C257.39 335.979 257.885 335.483 257.885 334.872C257.885 334.261 257.39 333.766 256.779 333.766Z" fill="#191B1D"/>
<path d="M243.89 333.766C243.279 333.766 242.784 334.261 242.784 334.872C242.784 335.483 243.279 335.979 243.89 335.979C244.501 335.979 244.996 335.483 244.996 334.872C244.996 334.261 244.501 333.766 243.89 333.766Z" fill="#191B1D"/>
<path d="M231.001 333.766C230.39 333.766 229.895 334.261 229.895 334.872C229.895 335.483 230.39 335.979 231.001 335.979C231.612 335.979 232.107 335.483 232.107 334.872C232.107 334.261 231.612 333.766 231.001 333.766Z" fill="#191B1D"/>
<path d="M359.894 345.776C359.283 345.776 358.787 346.271 358.787 346.882C358.787 347.493 359.283 347.989 359.894 347.989C360.505 347.989 361 347.493 361 346.882C361 346.271 360.505 345.776 359.894 345.776Z" fill="#191B1D"/>
<path d="M347.005 345.776C346.394 345.776 345.898 346.271 345.898 346.882C345.898 347.493 346.394 347.989 347.005 347.989C347.616 347.989 348.111 347.493 348.111 346.882C348.111 346.271 347.616 345.776 347.005 345.776Z" fill="#191B1D"/>
<path d="M334.112 345.776C333.501 345.776 333.006 346.271 333.006 346.882C333.006 347.493 333.501 347.989 334.112 347.989C334.723 347.989 335.219 347.493 335.219 346.882C335.219 346.271 334.723 345.776 334.112 345.776Z" fill="#191B1D"/>
<path d="M321.223 345.776C320.612 345.776 320.117 346.271 320.117 346.882C320.117 347.493 320.612 347.989 321.223 347.989C321.834 347.989 322.33 347.493 322.33 346.882C322.33 346.271 321.834 345.776 321.223 345.776Z" fill="#191B1D"/>
<path d="M308.331 345.776C307.72 345.776 307.224 346.271 307.224 346.882C307.224 347.493 307.72 347.989 308.331 347.989C308.942 347.989 309.437 347.493 309.437 346.882C309.437 346.271 308.942 345.776 308.331 345.776Z" fill="#191B1D"/>
<path d="M295.445 345.776C294.834 345.776 294.339 346.271 294.339 346.882C294.339 347.493 294.834 347.989 295.445 347.989C296.056 347.989 296.552 347.493 296.552 346.882C296.552 346.271 296.056 345.776 295.445 345.776Z" fill="#191B1D"/>
<path d="M282.556 345.776C281.945 345.776 281.45 346.271 281.45 346.882C281.45 347.493 281.945 347.989 282.556 347.989C283.167 347.989 283.662 347.493 283.662 346.882C283.662 346.271 283.167 345.776 282.556 345.776Z" fill="#191B1D"/>
<path d="M269.664 345.776C269.053 345.776 268.557 346.271 268.557 346.882C268.557 347.493 269.053 347.989 269.664 347.989C270.275 347.989 270.77 347.493 270.77 346.882C270.77 346.271 270.275 345.776 269.664 345.776Z" fill="#191B1D"/>
<path d="M256.775 345.776C256.164 345.776 255.668 346.271 255.668 346.882C255.668 347.493 256.164 347.989 256.775 347.989C257.386 347.989 257.881 347.493 257.881 346.882C257.881 346.271 257.386 345.776 256.775 345.776Z" fill="#191B1D"/>
<path d="M243.886 345.776C243.275 345.776 242.779 346.271 242.779 346.882C242.779 347.493 243.275 347.989 243.886 347.989C244.497 347.989 244.992 347.493 244.992 346.882C244.992 346.271 244.497 345.776 243.886 345.776Z" fill="#191B1D"/>
<path d="M230.993 345.776C230.382 345.776 229.887 346.271 229.887 346.882C229.887 347.493 230.382 347.989 230.993 347.989C231.604 347.989 232.099 347.493 232.099 346.882C232.099 346.271 231.604 345.776 230.993 345.776Z" fill="#191B1D"/>
<path d="M218.108 345.776C217.497 345.776 217.001 346.271 217.001 346.882C217.001 347.493 217.497 347.989 218.108 347.989C218.719 347.989 219.214 347.493 219.214 346.882C219.214 346.271 218.719 345.776 218.108 345.776Z" fill="#191B1D"/>
<path d="M359.894 357.787C359.283 357.787 358.787 358.283 358.787 358.894C358.787 359.505 359.283 360 359.894 360C360.505 360 361 359.505 361 358.894C361 358.283 360.505 357.787 359.894 357.787Z" fill="#191B1D"/>
<path d="M347.005 357.787C346.394 357.787 345.898 358.283 345.898 358.894C345.898 359.505 346.394 360 347.005 360C347.616 360 348.111 359.505 348.111 358.894C348.111 358.283 347.616 357.787 347.005 357.787Z" fill="#191B1D"/>
<path d="M334.112 357.787C333.501 357.787 333.006 358.283 333.006 358.894C333.006 359.505 333.501 360 334.112 360C334.723 360 335.219 359.505 335.219 358.894C335.219 358.283 334.723 357.787 334.112 357.787Z" fill="#191B1D"/>
<path d="M321.223 357.787C320.612 357.787 320.117 358.283 320.117 358.894C320.117 359.505 320.612 360 321.223 360C321.834 360 322.33 359.505 322.33 358.894C322.33 358.283 321.834 357.787 321.223 357.787Z" fill="#191B1D"/>
<path d="M308.331 357.787C307.72 357.787 307.224 358.283 307.224 358.894C307.224 359.505 307.72 360 308.331 360C308.942 360 309.437 359.505 309.437 358.894C309.437 358.283 308.942 357.787 308.331 357.787Z" fill="#191B1D"/>
<path d="M295.445 357.787C294.834 357.787 294.339 358.283 294.339 358.894C294.339 359.505 294.834 360 295.445 360C296.056 360 296.552 359.505 296.552 358.894C296.552 358.283 296.056 357.787 295.445 357.787Z" fill="#191B1D"/>
<path d="M282.556 357.787C281.945 357.787 281.45 358.283 281.45 358.894C281.45 359.505 281.945 360 282.556 360C283.167 360 283.662 359.505 283.662 358.894C283.662 358.283 283.167 357.787 282.556 357.787Z" fill="#191B1D"/>
<path d="M269.664 357.787C269.053 357.787 268.557 358.283 268.557 358.894C268.557 359.505 269.053 360 269.664 360C270.275 360 270.77 359.505 270.77 358.894C270.77 358.283 270.275 357.787 269.664 357.787Z" fill="#191B1D"/>
<path d="M256.775 357.787C256.164 357.787 255.668 358.283 255.668 358.894C255.668 359.505 256.164 360 256.775 360C257.386 360 257.881 359.505 257.881 358.894C257.881 358.283 257.386 357.787 256.775 357.787Z" fill="#191B1D"/>
<path d="M243.886 357.787C243.275 357.787 242.779 358.283 242.779 358.894C242.779 359.505 243.275 360 243.886 360C244.497 360 244.992 359.505 244.992 358.894C244.992 358.283 244.497 357.787 243.886 357.787Z" fill="#191B1D"/>
<path d="M230.993 357.787C230.382 357.787 229.887 358.283 229.887 358.894C229.887 359.505 230.382 360 230.993 360C231.604 360 232.099 359.505 232.099 358.894C232.099 358.283 231.604 357.787 230.993 357.787Z" fill="#191B1D"/>
<path d="M218.108 357.787C217.497 357.787 217.001 358.283 217.001 358.894C217.001 359.505 217.497 360 218.108 360C218.719 360 219.214 359.505 219.214 358.894C219.214 358.283 218.719 357.787 218.108 357.787Z" fill="#191B1D"/>
</svg>
