<svg width="576" height="360" viewBox="0 0 576 360" fill="none" xmlns="http://www.w3.org/2000/svg">
<path d="M193.487 174.43C192.932 174.579 192.197 174.415 191.845 174.063C191.494 173.711 191.658 173.305 192.213 173.157C192.767 173.008 193.503 173.172 193.855 173.524C194.206 173.876 194.042 174.281 193.487 174.43Z" fill="white"/>
<path d="M202.147 166.029C201.593 166.177 200.857 166.013 200.505 165.662C200.154 165.31 200.318 164.904 200.873 164.755C201.428 164.607 202.163 164.771 202.515 165.123C202.867 165.474 202.702 165.88 202.147 166.029Z" fill="white"/>
<path d="M210.698 157.586C210.143 157.734 209.408 157.57 209.056 157.218C208.705 156.867 208.869 156.46 209.423 156.312C209.978 156.164 210.714 156.328 211.066 156.679C211.417 157.031 211.253 157.437 210.698 157.586Z" fill="white"/>
<path d="M202.69 182.16C202.136 182.309 201.4 182.144 201.048 181.793C200.697 181.441 200.861 181.035 201.416 180.887C201.971 180.738 202.706 180.902 203.058 181.254C203.409 181.606 203.245 182.011 202.69 182.16Z" fill="white"/>
<path d="M211.347 173.759C210.792 173.907 210.056 173.743 209.705 173.392C209.353 173.04 209.517 172.633 210.072 172.485C210.627 172.337 211.362 172.501 211.714 172.853C212.066 173.204 211.901 173.61 211.347 173.759Z" fill="white"/>
<path d="M219.897 165.317C219.343 165.465 218.607 165.301 218.255 164.949C217.904 164.598 218.068 164.191 218.623 164.043C219.178 163.895 219.913 164.059 220.265 164.41C220.616 164.762 220.452 165.167 219.897 165.317Z" fill="white"/>
<path d="M228.448 156.952C227.893 157.1 227.158 156.936 226.806 156.584C226.455 156.233 226.619 155.826 227.174 155.678C227.728 155.53 228.464 155.694 228.816 156.045C229.168 156.398 229.003 156.803 228.448 156.952Z" fill="white"/>
<path d="M211.89 188.125C211.335 188.273 210.599 188.109 210.248 187.758C209.896 187.406 210.06 187 210.615 186.851C211.17 186.703 211.905 186.867 212.257 187.219C212.609 187.571 212.444 187.977 211.89 188.125Z" fill="white"/>
<path d="M220.546 179.725C219.991 179.873 219.255 179.709 218.904 179.357C218.552 179.006 218.716 178.599 219.271 178.451C219.826 178.303 220.562 178.467 220.913 178.818C221.266 179.17 221.102 179.576 220.546 179.725Z" fill="white"/>
<path d="M229.101 171.281C228.546 171.43 227.81 171.266 227.458 170.914C227.107 170.563 227.271 170.156 227.826 170.008C228.381 169.859 229.116 170.024 229.468 170.375C229.82 170.728 229.655 171.133 229.101 171.281Z" fill="white"/>
<path d="M236.975 162.275C236.421 162.423 235.685 162.259 235.333 161.908C234.982 161.556 235.146 161.15 235.701 161.001C236.256 160.853 236.991 161.017 237.343 161.369C237.694 161.72 237.53 162.127 236.975 162.275Z" fill="white"/>
<path d="M246.308 167.881C245.753 168.029 245.017 167.865 244.665 167.513C244.314 167.162 244.478 166.755 245.033 166.607C245.588 166.459 246.323 166.623 246.675 166.974C247.027 167.327 246.862 167.733 246.308 167.881Z" fill="white"/>
<path d="M361.308 187.279C361.021 187.777 360.385 188.18 359.887 188.18C359.389 188.18 359.22 187.776 359.507 187.279C359.794 186.782 360.43 186.379 360.928 186.379C361.426 186.379 361.596 186.781 361.308 187.279Z" fill="white"/>
<path d="M358.043 197.851C357.756 198.349 357.12 198.751 356.622 198.751C356.124 198.751 355.954 198.348 356.241 197.851C356.528 197.353 357.164 196.95 357.662 196.95C358.16 196.95 358.33 197.354 358.043 197.851Z" fill="white"/>
<path d="M361.875 207.741C361.588 208.239 360.952 208.642 360.454 208.642C359.956 208.642 359.786 208.238 360.073 207.741C360.36 207.243 360.996 206.84 361.494 206.84C361.992 206.84 362.162 207.243 361.875 207.741Z" fill="white"/>
<path d="M352.461 213.099C352.174 213.597 351.538 214 351.04 214C350.542 214 350.372 213.596 350.659 213.099C350.946 212.601 351.582 212.198 352.08 212.198C352.578 212.197 352.748 212.601 352.461 213.099Z" fill="white"/>
<path d="M245.636 153.874C245.081 154.023 244.345 153.859 243.994 153.507C243.642 153.156 243.806 152.749 244.361 152.601C244.916 152.452 245.652 152.617 246.003 152.968C246.355 153.32 246.19 153.725 245.636 153.874Z" fill="white"/>
<path d="M254.186 145.431C253.632 145.58 252.896 145.415 252.544 145.064C252.193 144.712 252.357 144.306 252.912 144.158C253.467 144.009 254.202 144.173 254.554 144.525C254.906 144.877 254.741 145.283 254.186 145.431Z" fill="white"/>
<path d="M264.438 191.871C261.348 193.655 258.844 197.607 258.844 200.697C258.844 203.787 261.348 204.845 264.438 203.061C267.529 201.278 270.033 197.326 270.033 194.236C270.033 191.146 267.529 190.086 264.438 191.871Z" stroke="white" stroke-linecap="round" stroke-linejoin="round"/>
<path d="M267.41 191.004C265.462 190.322 264.571 189.48 263.688 189.001C262.663 188.444 261.172 188.583 259.513 189.541C256.423 191.325 253.918 195.276 253.918 198.366C253.918 199.791 254.45 200.783 255.327 201.265C256.352 201.829 258.399 201.85 260.123 203.519" stroke="white" stroke-linecap="round" stroke-linejoin="round"/>
<path d="M232.482 202.483C230.928 203.38 229.668 205.368 229.668 206.922C229.668 208.477 230.928 209.009 232.482 208.112C234.036 207.215 235.296 205.227 235.296 203.673C235.296 202.118 234.036 201.586 232.482 202.483Z" stroke="white" stroke-linecap="round" stroke-linejoin="round"/>
<path d="M233.977 202.048C232.997 201.704 232.549 201.281 232.105 201.04C231.59 200.76 230.84 200.829 230.006 201.311C228.931 201.931 227.997 203.073 227.523 204.232" stroke="white" stroke-linecap="round" stroke-linejoin="round"/>
<path d="M404.017 109.21C400.926 110.994 398.422 114.946 398.422 118.036C398.422 121.126 400.926 122.185 404.017 120.401C407.107 118.617 409.611 114.665 409.611 111.575C409.611 108.485 407.107 107.426 404.017 109.21Z" stroke="white" stroke-linecap="round" stroke-linejoin="round"/>
<path d="M406.988 108.343C405.04 107.662 404.149 106.82 403.266 106.34C402.242 105.784 400.751 105.923 399.091 106.88C396.001 108.664 393.496 112.616 393.496 115.706C393.496 117.131 394.029 118.123 394.905 118.605C395.93 119.168 397.977 119.189 399.702 120.859" stroke="white" stroke-linecap="round" stroke-linejoin="round"/>
<path d="M208.762 316.788L175.641 298.094V173.101L208.762 191.795V316.788Z" stroke="white" stroke-linecap="round" stroke-linejoin="round"/>
<path d="M274.68 278.807L208.762 316.604V191.61L274.68 153.813V278.807Z" stroke="white" stroke-linecap="round" stroke-linejoin="round"/>
<path d="M175.641 173.101L241.721 134.759L244.481 136.546" stroke="white" stroke-linecap="round" stroke-linejoin="round"/>
<path d="M249.84 139.63L267.375 149.697" stroke="white" stroke-linecap="round" stroke-linejoin="round"/>
<path d="M272.734 152.619L274.682 153.813" stroke="white" stroke-linecap="round" stroke-linejoin="round"/>
<path d="M240.586 143.527L261.856 131.026L281.989 143.122L260.719 155.623L240.586 143.527Z" stroke="white" stroke-linecap="round" stroke-linejoin="round"/>
<path d="M264.762 129.317L286.031 116.814L306.164 128.91L284.895 141.412L264.762 129.317Z" stroke="white" stroke-linecap="round" stroke-linejoin="round"/>
<path d="M288.941 115.105L310.211 102.604L330.344 114.699L309.074 127.202L288.941 115.105Z" stroke="white" stroke-linecap="round" stroke-linejoin="round"/>
<path d="M313.121 100.895L334.39 88.3933L354.523 100.489L333.254 112.99L313.121 100.895Z" stroke="white" stroke-linecap="round" stroke-linejoin="round"/>
<path d="M349.528 76.6343L351.879 78.1131L337.297 86.6842L357.43 98.7799L372.692 89.8088L375.668 91.4099L252.924 163.011L249.839 161.387L256.983 157.165L237.499 145.475L230.603 149.46L227.758 147.911L349.528 76.6343Z" stroke="white" stroke-linecap="round" stroke-linejoin="round"/>
<path d="M324.039 90.056V72.3049L338.976 81.1809" stroke="white" stroke-linecap="round" stroke-linejoin="round"/>
<path d="M333.82 110.671V92.9204L349.285 102.126" stroke="white" stroke-linecap="round" stroke-linejoin="round"/>
<path d="M344.281 83.8867L362.033 94.2779" stroke="white" stroke-linecap="round" stroke-linejoin="round"/>
<path d="M367.55 97.6331L382.163 106.725L382.595 221.352L363.87 209.229V175.242L338.216 160.846L332.155 164.85V175.134L327.392 178.353V189.638L321.98 192.885V205.116L347.186 218.658L363.87 209.229" stroke="white" stroke-linecap="round" stroke-linejoin="round"/>
<path d="M324.039 96.2258V105.751" stroke="white" stroke-linecap="round" stroke-linejoin="round"/>
<path d="M324.039 112.354V116.814" stroke="white" stroke-linecap="round" stroke-linejoin="round"/>
<path d="M324.039 123.069V185.957L327.394 188.18" stroke="white" stroke-linecap="round" stroke-linejoin="round"/>
<path d="M363.871 175.242L357.566 179.247V189.546L352.599 192.758V203.746L347.188 207.332V218.658" stroke="white" stroke-linecap="round" stroke-linejoin="round"/>
<path d="M332.359 165.047L357.564 179.246" stroke="white" stroke-linecap="round" stroke-linejoin="round"/>
<path d="M332.359 175.347L357.564 189.546" stroke="white" stroke-linecap="round" stroke-linejoin="round"/>
<path d="M327.395 178.558L352.6 192.758" stroke="white" stroke-linecap="round" stroke-linejoin="round"/>
<path d="M327.395 189.546L352.6 203.746" stroke="white" stroke-linecap="round" stroke-linejoin="round"/>
<path d="M321.98 193.133L347.186 207.332" stroke="white" stroke-linecap="round" stroke-linejoin="round"/>
<path d="M354.521 105.21L371.339 114.903V168.314L333.82 146.449V117.657" stroke="white" stroke-linecap="round" stroke-linejoin="round"/>
<path d="M382.002 106.401L415.529 87.0254L357.566 52.2805L324.039 72.3048L382.002 106.401Z" stroke="white" stroke-linecap="round" stroke-linejoin="round"/>
<path d="M415.527 118.512L461.272 144.909L415.527 171.345V87.0254" stroke="white" stroke-linecap="round" stroke-linejoin="round"/>
<path d="M461.275 144.909V175.241L382.598 221.352" stroke="white" stroke-linecap="round" stroke-linejoin="round"/>
<path d="M403.318 109.659L266.547 190.965" stroke="white" stroke-linecap="round" stroke-linejoin="round"/>
<path d="M402.175 121.151L265.23 202.541" stroke="white" stroke-linecap="round" stroke-linejoin="round"/>
<path d="M230.872 281.703C227.782 283.487 225.277 287.439 225.277 290.529C225.277 293.619 227.782 294.677 230.872 292.893C233.962 291.11 236.467 287.158 236.467 284.068C236.467 280.978 233.962 279.918 230.872 281.703Z" stroke="white" stroke-linecap="round" stroke-linejoin="round"/>
<path d="M233.843 280.836C231.895 280.154 231.005 279.312 230.122 278.833C229.097 278.276 227.606 278.415 225.946 279.373C222.856 281.157 220.352 285.108 220.352 288.198C220.352 289.623 220.884 290.615 221.76 291.097C222.785 291.661 224.833 291.682 226.557 293.351" stroke="white" stroke-linecap="round" stroke-linejoin="round"/>
<path d="M404.017 179.193C400.926 180.977 398.422 184.929 398.422 188.019C398.422 191.109 400.926 192.167 404.017 190.384C407.107 188.6 409.611 184.648 409.611 181.558C409.611 178.468 407.107 177.409 404.017 179.193Z" stroke="white" stroke-linecap="round" stroke-linejoin="round"/>
<path d="M406.988 178.326C405.04 177.644 404.149 176.802 403.266 176.323C402.242 175.767 400.751 175.905 399.091 176.863C396.001 178.647 393.496 182.599 393.496 185.689C393.496 187.113 394.029 188.106 394.905 188.588C395.93 189.151 397.977 189.172 399.702 190.841" stroke="white" stroke-linecap="round" stroke-linejoin="round"/>
<path d="M403.316 179.642L232.977 280.799" stroke="white" stroke-linecap="round" stroke-linejoin="round"/>
<path d="M402.176 191.133L231.664 292.373" stroke="white" stroke-linecap="round" stroke-linejoin="round"/>
<path d="M232.979 200.191L232.482 196.781L236.528 199.298L238.314 208.547L230.584 215.534L228.166 206.157C228.166 206.157 225.289 210.094 225.325 214.965C225.354 219.125 227.157 222.353 232.979 220.973C234.498 227.548 239.775 249.386 239.775 249.386C239.775 249.386 236.04 254.582 236.04 258.965C236.04 263.349 238.232 266.678 242.616 266.028C241.317 260.994 240.261 256.692 240.261 256.692L248.46 249.792L250.653 259.046L243.872 253.653" stroke="white" stroke-linecap="round" stroke-linejoin="round"/>
<path d="M228.164 206.158L224.082 203.195C220.672 206.765 218.929 216.471 228.082 220.81" stroke="white" stroke-linecap="round" stroke-linejoin="round"/>
<path d="M235.297 206.767L238.314 208.548" stroke="white" stroke-linecap="round" stroke-linejoin="round"/>
<path d="M236.527 199.298C239.125 199.054 242.535 200.876 242.778 206.198C243.035 211.799 239.532 215.128 238.882 216.02C240.424 222.434 245.863 244.596 245.863 244.596C245.863 244.596 250.715 242.538 252.763 247.194C254.549 251.253 251.87 257.342 250.652 259.046" stroke="white" stroke-linecap="round" stroke-linejoin="round"/>
<path d="M232.48 196.781C236.803 195.482 242.702 198.729 242.702 205.297" stroke="white" stroke-linecap="round" stroke-linejoin="round"/>
<path d="M245.004 241.106L250.65 244.727" stroke="white" stroke-linecap="round" stroke-linejoin="round"/>
<path d="M228.609 221.023L234.738 245.652L239.772 249.386" stroke="white" stroke-linecap="round" stroke-linejoin="round"/>
<path d="M234.738 245.652C231.247 251.577 231.085 257.867 232.976 261.482C235.226 265.784 239.096 266.11 242.207 266.11" stroke="white" stroke-linecap="round" stroke-linejoin="round"/>
<path d="M235.762 222.718L237.797 221.136L243.039 242.381L240.956 243.875L235.762 222.718Z" stroke="white" stroke-linecap="round" stroke-linejoin="round"/>
<path d="M435.975 56.8953L443.479 61.5836L434.826 66.99L426.172 61.5836L433.651 56.9111" stroke="white" stroke-linecap="round" stroke-linejoin="round"/>
<path d="M435.974 60.623C436.268 60.8291 436.45 61.1126 436.45 61.4268C436.45 62.0544 435.723 62.5635 434.827 62.5635C433.929 62.5635 433.203 62.0544 433.203 61.4268C433.203 61.1126 433.385 60.8291 433.679 60.623" stroke="white" stroke-linecap="round" stroke-linejoin="round"/>
<path d="M435.975 140.698L443.479 145.386L434.826 150.793L426.172 145.386L433.651 140.714" stroke="white" stroke-linecap="round" stroke-linejoin="round"/>
<path d="M435.974 144.427C436.268 144.633 436.45 144.917 436.45 145.231C436.45 145.858 435.723 146.367 434.827 146.367C433.929 146.367 433.203 145.858 433.203 145.231C433.203 144.917 433.385 144.633 433.679 144.427" stroke="white" stroke-linecap="round" stroke-linejoin="round"/>
<path d="M436.607 94.7395L448.242 102.009L434.826 110.391L421.41 102.009L433.005 94.7647" stroke="white" stroke-linecap="round" stroke-linejoin="round"/>
<path d="M436.606 100.52C437.062 100.839 437.344 101.279 437.344 101.766C437.344 102.739 436.216 103.528 434.826 103.528C433.436 103.528 432.309 102.739 432.309 101.766C432.309 101.279 432.59 100.839 433.046 100.52" stroke="white" stroke-linecap="round" stroke-linejoin="round"/>
<path d="M434.824 9V61.3728" stroke="white" stroke-linecap="round" stroke-linejoin="round"/>
<path d="M434.824 68.2888V102.024" stroke="white" stroke-linecap="round" stroke-linejoin="round"/>
<path d="M434.826 79.2321C435.544 79.2321 436.125 78.6505 436.125 77.9332C436.125 77.2158 435.544 76.6343 434.826 76.6343C434.109 76.6343 433.527 77.2158 433.527 77.9332C433.527 78.6505 434.109 79.2321 434.826 79.2321Z" fill="white"/>
<path d="M434.824 111.558V145.293" stroke="white" stroke-linecap="round" stroke-linejoin="round"/>
<path d="M434.824 151.832V173.564" stroke="white" stroke-linecap="round" stroke-linejoin="round"/>
<path d="M434.826 123.151C435.544 123.151 436.125 122.57 436.125 121.852C436.125 121.135 435.544 120.553 434.826 120.553C434.109 120.553 433.527 121.135 433.527 121.852C433.527 122.57 434.109 123.151 434.826 123.151Z" fill="white"/>
<path d="M434.826 181.358C436.978 181.358 438.723 179.613 438.723 177.461C438.723 175.309 436.978 173.564 434.826 173.564C432.674 173.564 430.93 175.309 430.93 177.461C430.93 179.613 432.674 181.358 434.826 181.358Z" stroke="white" stroke-linecap="round" stroke-linejoin="round"/>
<path d="M475.207 180.183L516.6 204.081C528.141 210.745 538.333 218.737 547.163 228.027C556 237.321 562.86 247.282 567.745 257.897C572.63 268.512 575.069 279.1 575.069 289.653C575.069 300.219 572.63 307.99 567.745 312.963C562.86 317.937 555.999 319.975 547.163 319.066C538.333 318.16 528.141 314.372 516.6 307.709L475.207 283.81V180.183ZM515.119 279.614C522.617 283.944 528.611 285.26 533.105 283.554C537.593 281.856 539.839 277.106 539.839 269.312C539.839 261.517 537.592 254.172 533.105 247.293C528.611 240.409 522.617 234.793 515.119 230.463L510.143 227.59V276.741L515.119 279.614Z" stroke="white" stroke-linecap="round" stroke-linejoin="round"/>
<path d="M454.922 192.307L496.315 216.206C507.856 222.869 518.048 230.861 526.878 240.152C535.715 249.446 542.575 259.406 547.46 270.021C552.345 280.636 554.784 291.224 554.784 301.778C554.784 312.343 552.345 320.114 547.46 325.088C542.575 330.062 535.714 332.1 526.878 331.191C518.048 330.285 507.856 326.497 496.315 319.834L454.922 295.935V192.307ZM494.833 291.74C502.331 296.069 508.325 297.386 512.819 295.68C517.306 293.982 519.553 289.232 519.553 281.437C519.553 273.643 517.305 266.298 512.819 259.418C508.325 252.535 502.331 246.919 494.833 242.589L489.857 239.716V288.867L494.833 291.74Z" stroke="white" stroke-linecap="round" stroke-linejoin="round" stroke-dasharray="1 3"/>
<path d="M436.898 203.281L478.292 227.18C489.833 233.843 500.024 241.835 508.855 251.126C517.691 260.42 524.551 270.38 529.436 280.995C534.322 291.61 536.761 302.198 536.761 312.752C536.761 323.317 534.322 331.088 529.436 336.062C524.551 341.036 517.69 343.074 508.855 342.165C500.024 341.258 489.833 337.471 478.292 330.808L436.898 306.909V203.281ZM476.81 302.713C484.309 307.042 490.303 308.359 494.796 306.652C499.284 304.955 501.53 300.205 501.53 292.41C501.53 284.616 499.284 277.271 494.796 270.391C490.303 263.508 484.309 257.892 476.81 253.562L471.834 250.689V299.84L476.81 302.713Z" stroke="white" stroke-linecap="round" stroke-linejoin="round"/>
<path d="M418.773 214.198L460.167 238.096C471.708 244.759 481.899 252.751 490.73 262.042C499.566 271.336 506.426 281.297 511.311 291.912C516.197 302.527 518.636 313.114 518.636 323.668C518.636 334.233 516.197 342.005 511.311 346.978C506.426 351.952 499.565 353.99 490.73 353.081C481.899 352.175 471.708 348.387 460.167 341.724L418.773 317.825V214.198ZM458.684 313.63C466.183 317.959 472.177 319.276 476.67 317.57C481.158 315.872 483.404 311.122 483.404 303.327C483.404 295.533 481.157 288.188 476.67 281.309C472.177 274.425 466.183 268.809 458.684 264.479L453.709 261.606V310.757L458.684 313.63Z" stroke="white" stroke-linecap="round" stroke-linejoin="round" stroke-dasharray="1 3"/>
<path d="M493.694 202.935C494.192 203.223 494.594 203.858 494.594 204.356C494.594 204.854 494.191 205.024 493.694 204.737C493.196 204.45 492.793 203.814 492.793 203.316C492.792 202.819 493.196 202.648 493.694 202.935Z" fill="white"/>
<path d="M481.733 202.803C482.231 203.09 482.634 203.726 482.634 204.224C482.634 204.722 482.23 204.892 481.733 204.604C481.235 204.317 480.832 203.681 480.832 203.183C480.832 202.686 481.236 202.516 481.733 202.803Z" fill="white"/>
<path d="M491.409 192.212C491.906 192.499 492.309 193.135 492.309 193.633C492.309 194.131 491.906 194.301 491.409 194.014C490.911 193.726 490.508 193.091 490.508 192.593C490.508 192.095 490.911 191.925 491.409 192.212Z" fill="white"/>
<path d="M479.471 193.011C479.969 193.298 480.372 193.934 480.372 194.432C480.372 194.93 479.968 195.1 479.471 194.813C478.973 194.526 478.57 193.89 478.57 193.392C478.57 192.894 478.973 192.724 479.471 193.011Z" fill="white"/>
<path d="M498.518 222.835C499.016 223.122 499.419 223.758 499.419 224.256C499.419 224.754 499.015 224.923 498.518 224.636C498.02 224.349 497.617 223.713 497.617 223.215C497.617 222.718 498.021 222.548 498.518 222.835Z" fill="white"/>
<path d="M486.557 222.703C487.055 222.991 487.458 223.626 487.458 224.124C487.458 224.622 487.054 224.792 486.557 224.505C486.059 224.218 485.656 223.582 485.656 223.084C485.656 222.586 486.059 222.415 486.557 222.703Z" fill="white"/>
<path d="M496.233 212.112C496.731 212.399 497.134 213.035 497.134 213.533C497.134 214.031 496.73 214.2 496.233 213.913C495.735 213.626 495.332 212.99 495.332 212.492C495.332 211.995 495.735 211.824 496.233 212.112Z" fill="white"/>
<path d="M484.295 212.911C484.793 213.198 485.196 213.834 485.196 214.332C485.196 214.83 484.792 214.999 484.295 214.712C483.797 214.425 483.395 213.789 483.395 213.291C483.394 212.794 483.797 212.624 484.295 212.911Z" fill="white"/>
<path d="M505.631 244.24C506.129 244.527 506.532 245.163 506.532 245.661C506.532 246.159 506.128 246.329 505.631 246.042C505.133 245.754 504.73 245.118 504.73 244.621C504.73 244.124 505.133 243.953 505.631 244.24Z" fill="white"/>
<path d="M503.346 233.516C503.844 233.803 504.247 234.439 504.247 234.937C504.247 235.435 503.843 235.605 503.346 235.317C502.848 235.03 502.445 234.394 502.445 233.896C502.445 233.399 502.849 233.229 503.346 233.516Z" fill="white"/>
<path d="M481.084 236.965C481.582 237.252 481.985 237.888 481.985 238.386C481.985 238.884 481.581 239.054 481.084 238.766C480.586 238.479 480.184 237.843 480.184 237.345C480.184 236.848 480.586 236.678 481.084 236.965Z" fill="white"/>
<path d="M485.596 248.828C486.094 249.115 486.497 249.751 486.497 250.249C486.497 250.747 486.093 250.916 485.596 250.629C485.099 250.342 484.695 249.706 484.695 249.208C484.694 248.711 485.098 248.541 485.596 248.828Z" fill="white"/>
<path d="M479.471 261.994C479.969 262.281 480.372 262.917 480.372 263.415C480.372 263.913 479.968 264.082 479.471 263.795C478.973 263.508 478.57 262.872 478.57 262.374C478.57 261.876 478.973 261.706 479.471 261.994Z" fill="white"/>
<path d="M483.284 275.688C483.781 275.975 484.184 276.611 484.184 277.109C484.184 277.607 483.781 277.776 483.284 277.489C482.786 277.202 482.383 276.566 482.383 276.068C482.383 275.57 482.786 275.4 483.284 275.688Z" fill="white"/>
<path d="M521.494 213.415C521.992 213.702 522.395 214.338 522.395 214.836C522.395 215.334 521.991 215.504 521.494 215.217C520.997 214.929 520.594 214.293 520.594 213.796C520.594 213.298 520.997 213.128 521.494 213.415Z" fill="white"/>
<path d="M509.534 213.283C510.031 213.57 510.434 214.206 510.434 214.704C510.434 215.202 510.031 215.371 509.534 215.084C509.036 214.797 508.633 214.161 508.633 213.663C508.633 213.165 509.037 212.996 509.534 213.283Z" fill="white"/>
<path d="M507.268 203.491C507.766 203.778 508.169 204.414 508.169 204.912C508.169 205.41 507.765 205.58 507.268 205.293C506.77 205.005 506.367 204.369 506.367 203.871C506.367 203.374 506.77 203.204 507.268 203.491Z" fill="white"/>
<path d="M526.319 233.314C526.817 233.602 527.219 234.238 527.219 234.736C527.219 235.233 526.816 235.403 526.319 235.116C525.821 234.829 525.418 234.193 525.418 233.695C525.418 233.197 525.821 233.027 526.319 233.314Z" fill="white"/>
<path d="M524.034 222.591C524.531 222.878 524.934 223.514 524.934 224.012C524.934 224.51 524.531 224.68 524.034 224.393C523.536 224.106 523.133 223.47 523.133 222.972C523.133 222.474 523.536 222.303 524.034 222.591Z" fill="white"/>
<path d="M512.096 223.39C512.594 223.678 512.997 224.314 512.997 224.812C512.997 225.309 512.593 225.479 512.096 225.192C511.598 224.905 511.195 224.269 511.195 223.771C511.194 223.274 511.598 223.103 512.096 223.39Z" fill="white"/>
<path d="M551.237 234.952C551.735 235.239 552.137 235.875 552.137 236.373C552.137 236.871 551.734 237.041 551.237 236.753C550.739 236.466 550.336 235.83 550.336 235.332C550.336 234.835 550.74 234.665 551.237 234.952Z" fill="white"/>
<path d="M539.276 234.819C539.774 235.107 540.176 235.742 540.176 236.24C540.176 236.738 539.773 236.908 539.276 236.621C538.778 236.334 538.375 235.698 538.375 235.2C538.375 234.702 538.778 234.532 539.276 234.819Z" fill="white"/>
<path d="M537.014 225.028C537.512 225.315 537.915 225.951 537.915 226.449C537.915 226.947 537.511 227.117 537.014 226.829C536.516 226.542 536.113 225.906 536.113 225.408C536.113 224.911 536.517 224.741 537.014 225.028Z" fill="white"/>
<path d="M556.713 254.851C557.211 255.138 557.614 255.774 557.614 256.272C557.614 256.77 557.21 256.94 556.713 256.653C556.215 256.365 555.813 255.73 555.813 255.232C555.812 254.735 556.215 254.564 556.713 254.851Z" fill="white"/>
<path d="M544.752 254.719C545.25 255.006 545.653 255.642 545.653 256.14C545.653 256.638 545.249 256.808 544.752 256.52C544.254 256.233 543.852 255.597 543.852 255.099C543.852 254.602 544.255 254.432 544.752 254.719Z" fill="white"/>
<path d="M553.776 244.128C554.274 244.415 554.676 245.051 554.676 245.549C554.676 246.047 554.273 246.217 553.776 245.93C553.278 245.642 552.875 245.007 552.875 244.509C552.875 244.011 553.279 243.841 553.776 244.128Z" fill="white"/>
<path d="M541.838 244.927C542.336 245.214 542.739 245.85 542.739 246.348C542.739 246.846 542.335 247.016 541.838 246.729C541.34 246.441 540.938 245.805 540.938 245.308C540.938 244.811 541.341 244.64 541.838 244.927Z" fill="white"/>
<path d="M561.537 265.533C562.035 265.82 562.438 266.456 562.438 266.954C562.438 267.452 562.034 267.621 561.537 267.334C561.04 267.047 560.637 266.411 560.637 265.913C560.637 265.416 561.04 265.245 561.537 265.533Z" fill="white"/>
<path d="M549.6 266.333C550.098 266.62 550.501 267.256 550.501 267.754C550.501 268.252 550.097 268.421 549.6 268.134C549.103 267.847 548.699 267.211 548.699 266.713C548.699 266.216 549.103 266.045 549.6 266.333Z" fill="white"/>
<path d="M569.264 288.492C569.762 288.779 570.165 289.415 570.165 289.913C570.165 290.411 569.761 290.581 569.264 290.294C568.766 290.007 568.363 289.371 568.363 288.873C568.362 288.375 568.766 288.205 569.264 288.492Z" fill="white"/>
<path d="M557.299 288.36C557.797 288.647 558.2 289.283 558.2 289.781C558.2 290.279 557.796 290.448 557.299 290.161C556.801 289.874 556.398 289.238 556.398 288.74C556.398 288.243 556.802 288.072 557.299 288.36Z" fill="white"/>
<path d="M566.975 277.768C567.473 278.055 567.876 278.691 567.876 279.189C567.876 279.687 567.472 279.857 566.975 279.57C566.477 279.282 566.074 278.646 566.074 278.149C566.074 277.652 566.477 277.481 566.975 277.768Z" fill="white"/>
<path d="M555.037 278.568C555.535 278.855 555.938 279.491 555.938 279.989C555.938 280.487 555.534 280.657 555.037 280.37C554.54 280.082 554.137 279.447 554.137 278.949C554.137 278.452 554.54 278.281 555.037 278.568Z" fill="white"/>
<path d="M562.127 308.259C562.625 308.546 563.028 309.182 563.028 309.68C563.028 310.178 562.624 310.348 562.127 310.061C561.629 309.773 561.227 309.137 561.227 308.639C561.227 308.142 561.629 307.972 562.127 308.259Z" fill="white"/>
<path d="M571.799 297.668C572.297 297.956 572.7 298.592 572.7 299.089C572.7 299.587 572.296 299.757 571.799 299.47C571.301 299.183 570.898 298.547 570.898 298.049C570.898 297.551 571.301 297.38 571.799 297.668Z" fill="white"/>
<path d="M559.862 298.467C560.36 298.755 560.762 299.39 560.762 299.888C560.762 300.386 560.359 300.556 559.862 300.269C559.364 299.982 558.961 299.346 558.961 298.848C558.96 298.351 559.364 298.18 559.862 298.467Z" fill="white"/>
<path d="M504.342 267.255C504.84 267.542 505.243 268.178 505.243 268.676C505.243 269.174 504.839 269.343 504.342 269.056C503.845 268.769 503.441 268.133 503.441 267.635C503.441 267.137 503.844 266.967 504.342 267.255Z" fill="white"/>
<path d="M498.182 254.215C498.68 254.503 499.083 255.138 499.083 255.636C499.083 256.134 498.679 256.304 498.182 256.017C497.685 255.73 497.281 255.094 497.281 254.596C497.281 254.098 497.685 253.928 498.182 254.215Z" fill="white"/>
<path d="M521.467 288.359C521.965 288.646 522.368 289.282 522.368 289.78C522.368 290.278 521.964 290.447 521.467 290.16C520.97 289.873 520.566 289.237 520.566 288.739C520.566 288.241 520.97 288.071 521.467 288.359Z" fill="white"/>
<path d="M507.241 278.436C507.739 278.723 508.141 279.359 508.141 279.857C508.141 280.355 507.738 280.524 507.241 280.237C506.743 279.95 506.34 279.314 506.34 278.816C506.34 278.318 506.744 278.148 507.241 278.436Z" fill="white"/>
<path d="M526.291 308.259C526.789 308.546 527.192 309.182 527.192 309.68C527.192 310.178 526.788 310.348 526.291 310.06C525.793 309.773 525.391 309.137 525.391 308.639C525.391 308.141 525.793 307.971 526.291 308.259Z" fill="white"/>
<path d="M495.33 282.843C495.828 283.13 496.231 283.766 496.231 284.264C496.231 284.762 495.827 284.932 495.33 284.645C494.833 284.358 494.43 283.722 494.43 283.224C494.43 282.726 494.833 282.556 495.33 282.843Z" fill="white"/>
<path d="M524.002 297.535C524.5 297.822 524.903 298.458 524.903 298.956C524.903 299.454 524.499 299.624 524.002 299.336C523.504 299.049 523.102 298.413 523.102 297.915C523.102 297.418 523.505 297.248 524.002 297.535Z" fill="white"/>
<path d="M512.065 298.335C512.563 298.622 512.966 299.258 512.966 299.756C512.966 300.254 512.562 300.424 512.065 300.136C511.567 299.849 511.164 299.213 511.164 298.715C511.164 298.218 511.567 298.048 512.065 298.335Z" fill="white"/>
<path d="M545.639 289.7C546.137 289.987 546.54 290.623 546.54 291.121C546.54 291.619 546.136 291.788 545.639 291.501C545.141 291.214 544.738 290.578 544.738 290.08C544.738 289.583 545.141 289.412 545.639 289.7Z" fill="white"/>
<path d="M533.678 289.568C534.176 289.855 534.579 290.491 534.579 290.989C534.579 291.487 534.175 291.657 533.678 291.37C533.18 291.082 532.777 290.447 532.777 289.949C532.776 289.451 533.18 289.281 533.678 289.568Z" fill="white"/>
<path d="M543.35 278.977C543.848 279.264 544.251 279.9 544.251 280.398C544.251 280.896 543.847 281.065 543.35 280.778C542.853 280.491 542.449 279.855 542.449 279.357C542.449 278.859 542.853 278.689 543.35 278.977Z" fill="white"/>
<path d="M550.463 309.599C550.961 309.886 551.364 310.522 551.364 311.02C551.364 311.518 550.96 311.688 550.463 311.4C549.965 311.113 549.562 310.477 549.562 309.979C549.562 309.482 549.965 309.312 550.463 309.599Z" fill="white"/>
<path d="M538.502 309.468C539 309.755 539.403 310.391 539.403 310.889C539.403 311.387 538.999 311.556 538.502 311.269C538.004 310.982 537.602 310.346 537.602 309.848C537.602 309.351 538.005 309.18 538.502 309.468Z" fill="white"/>
<path d="M548.174 298.876C548.672 299.163 549.075 299.799 549.075 300.297C549.075 300.795 548.671 300.964 548.174 300.677C547.676 300.39 547.273 299.754 547.273 299.256C547.273 298.758 547.677 298.589 548.174 298.876Z" fill="white"/>
<path d="M536.237 299.676C536.735 299.963 537.137 300.599 537.137 301.097C537.137 301.595 536.734 301.764 536.237 301.477C535.739 301.19 535.336 300.554 535.336 300.056C535.336 299.558 535.739 299.389 536.237 299.676Z" fill="white"/>
<path d="M475.205 180.183L347.973 255.858V265.683" stroke="white" stroke-linecap="round" stroke-linejoin="round"/>
<path d="M349.123 261.854L356.627 266.542L347.973 271.949L339.32 266.542L346.799 261.87" stroke="white" stroke-linecap="round" stroke-linejoin="round"/>
<path d="M349.364 295.265L358.443 300.938L347.973 307.48L337.504 300.938L346.552 295.285" stroke="white" stroke-linecap="round" stroke-linejoin="round"/>
<path d="M349.123 265.582C349.417 265.788 349.598 266.071 349.598 266.386C349.598 267.013 348.871 267.522 347.975 267.522C347.078 267.522 346.352 267.013 346.352 266.386C346.352 266.071 346.533 265.788 346.827 265.582" stroke="white" stroke-linecap="round" stroke-linejoin="round"/>
<path d="M349.123 299.433C349.417 299.639 349.598 299.922 349.598 300.236C349.598 300.864 348.871 301.373 347.975 301.373C347.078 301.373 346.352 300.864 346.352 300.236C346.352 299.922 346.533 299.639 346.827 299.433" stroke="white" stroke-linecap="round" stroke-linejoin="round"/>
<path d="M347.973 273.477V299.887" stroke="white" stroke-linecap="round" stroke-linejoin="round"/>
<path d="M405.063 235.809L413.83 241.654L405.063 255.184L396.188 249.772L405.063 235.809Z" stroke="white" stroke-linecap="round" stroke-linejoin="round"/>
<path d="M405.038 240.464L409.593 243.501L405.038 250.53L400.426 247.718L405.038 240.464Z" stroke="white" stroke-linecap="round" stroke-linejoin="round"/>
<path d="M405.008 221.935V235.809" stroke="white" stroke-linecap="round" stroke-linejoin="round"/>
<path d="M92.9226 137.952C85.4229 126.367 81.668 114.024 81.668 100.938V41.4343L111.178 58.472V117.099C111.178 123.52 112.323 128.851 114.618 133.097C116.913 137.332 120.225 140.709 124.56 143.212C128.895 145.715 132.207 146.161 134.501 144.576C136.791 142.978 137.941 138.971 137.941 132.549V73.9236L166.947 90.6704V145.626C166.947 175.388 148.848 181.555 124.311 166.951C110.992 159.024 100.427 149.529 92.9226 137.952Z" stroke="white" stroke-linecap="round" stroke-linejoin="round"/>
<path d="M85.2383 47.6211V100.937C85.2383 113.262 88.8319 125.062 95.9195 136.01C102.94 146.842 112.824 155.959 126.135 163.882C133.917 168.513 141.078 170.962 146.843 170.962C160.505 170.962 163.373 157.185 163.373 145.626V92.732L141.511 80.1095V132.55C141.511 140.388 139.932 145.139 136.543 147.505C135.032 148.549 133.292 149.074 131.357 149.074C128.807 149.074 125.998 148.169 122.771 146.306C117.884 143.484 114.084 139.613 111.476 134.799C108.907 130.045 107.605 124.091 107.605 117.099V60.5346L85.2383 47.6211Z" stroke="white" stroke-linecap="round" stroke-linejoin="round" stroke-dasharray="1 3"/>
<path d="M81.668 41.4344L136.956 9.70874L166.466 26.7464V57.8361M193.228 75.3708V42.1971L222.234 58.9439V113.251C222.234 133.496 212.803 138.462 200.078 146.625C183.592 157.2 156.188 172.231 156.188 172.231" stroke="white" stroke-linecap="round" stroke-linejoin="round"/>
<path d="M111.176 58.472L166.463 26.7463" stroke="white" stroke-linecap="round" stroke-linejoin="round"/>
<path d="M137.938 73.9236L193.225 42.197" stroke="white" stroke-linecap="round" stroke-linejoin="round"/>
<path d="M166.945 90.6695L222.234 58.9438" stroke="white" stroke-linecap="round" stroke-linejoin="round"/>
<path d="M188.785 78.1365C188.785 78.1365 188.785 118.343 188.785 129.167C188.785 139.99 188.785 153.586 176.133 160.999" stroke="white" stroke-linecap="round" stroke-linejoin="round"/>
<path d="M207.837 67.2053C207.837 67.2053 207.837 106.86 207.837 117.684C207.837 128.508 205.868 143.753 195.707 149.364" stroke="white" stroke-linecap="round" stroke-linejoin="round"/>
<path d="M151.298 91.9573C155.889 94.6083 159.612 100.479 159.612 105.07C159.612 109.662 155.889 111.235 151.298 108.584C146.707 105.933 142.984 100.062 142.984 95.4708C142.984 90.8794 146.707 89.3073 151.298 91.9573Z" stroke="white" stroke-linecap="round" stroke-linejoin="round"/>
<path d="M153.212 90.6948C157.804 93.3457 161.526 99.2164 161.526 103.808C161.526 108.399 157.804 109.972 153.212 107.321C148.621 104.67 144.898 98.7996 144.898 94.2082C144.898 89.6169 148.621 88.0438 153.212 90.6948Z" stroke="white" stroke-linecap="round" stroke-linejoin="round"/>
<path d="M95.4036 59.5229C99.9949 62.1739 103.717 68.0446 103.717 72.6359C103.717 77.2273 99.9949 78.8003 95.4036 76.1494C90.8122 73.4984 87.0898 67.6277 87.0898 63.0364C87.0898 58.445 90.8122 56.872 95.4036 59.5229Z" stroke="white" stroke-linecap="round" stroke-linejoin="round"/>
<path d="M97.3137 58.2595C101.905 60.9104 105.627 66.7811 105.627 71.3725C105.627 75.9639 101.905 77.5369 97.3137 74.886C92.7223 72.235 89 66.3643 89 61.7729C89 57.1816 92.7223 55.6085 97.3137 58.2595Z" stroke="white" stroke-linecap="round" stroke-linejoin="round"/>
<path d="M69.6692 79.9892C74.2606 82.6402 77.9829 88.5109 77.9829 93.1022C77.9829 97.6936 74.2606 99.2667 69.6692 96.6157C65.0778 93.9647 61.3555 88.0941 61.3555 83.5027C61.3555 78.9113 65.0769 77.3383 69.6692 79.9892Z" stroke="white" stroke-linecap="round" stroke-linejoin="round"/>
<path d="M71.5793 78.7258C76.1707 81.3767 79.893 87.2474 79.893 91.8388C79.893 96.4302 76.1707 98.0032 71.5793 95.3523C66.988 92.7013 63.2656 86.8306 63.2656 82.2393C63.2656 77.6479 66.988 76.0748 71.5793 78.7258Z" stroke="white" stroke-linecap="round" stroke-linejoin="round"/>
<path d="M125.603 111.785C130.194 114.436 133.916 120.307 133.916 124.898C133.916 129.489 130.194 131.062 125.603 128.411C121.011 125.76 117.289 119.89 117.289 115.298C117.289 110.707 121.011 109.134 125.603 111.785Z" stroke="white" stroke-linecap="round" stroke-linejoin="round"/>
<path d="M127.513 110.521C132.104 113.172 135.827 119.043 135.827 123.634C135.827 128.226 132.104 129.799 127.513 127.148C122.922 124.497 119.199 118.626 119.199 114.035C119.199 109.444 122.922 107.87 127.513 110.521Z" stroke="white" stroke-linecap="round" stroke-linejoin="round"/>
<path d="M102.603 128.795C105.693 130.579 108.197 134.531 108.197 137.621C108.197 140.711 105.692 141.77 102.603 139.986C99.5124 138.202 97.0078 134.25 97.0078 131.16C97.0069 128.07 99.5124 127.011 102.603 128.795Z" stroke="white" stroke-linecap="round" stroke-linejoin="round"/>
<path d="M103.892 127.945C106.982 129.729 109.486 133.681 109.486 136.771C109.486 139.861 106.981 140.919 103.892 139.135C100.801 137.352 98.2969 133.4 98.2969 130.31C98.2969 127.22 100.801 126.16 103.892 127.945Z" stroke="white" stroke-linecap="round" stroke-linejoin="round"/>
<path d="M48.9345 97.1771C52.0247 98.9609 54.5292 102.913 54.5292 106.003C54.5292 109.093 52.0237 110.151 48.9345 108.367C45.8453 106.584 43.3398 102.632 43.3398 99.5418C43.3389 96.4516 45.8444 95.3933 48.9345 97.1771Z" stroke="white" stroke-linecap="round" stroke-linejoin="round"/>
<path d="M50.2197 96.3267C53.3098 98.1105 55.8144 102.062 55.8144 105.152C55.8144 108.243 53.3089 109.301 50.2197 107.517C47.1296 105.733 44.625 101.782 44.625 98.6914C44.625 95.6013 47.1296 94.543 50.2197 96.3267Z" stroke="white" stroke-linecap="round" stroke-linejoin="round"/>
<path d="M136.953 9.70874V43.6797" stroke="white" stroke-linecap="round" stroke-linejoin="round"/>
<path d="M1 181.412C1 181.412 20.4835 191.803 46.4606 207.606C72.4377 223.409 75.9017 240.944 74.8192 248.954C73.7366 256.963 70.2735 259.994 65.0779 261.293C75.6313 272.766 84.2527 293.981 74.9898 302.857C65.7268 311.733 47.1096 298.961 38.2345 293.765C29.3586 288.57 1 272.117 1 272.117V181.412Z" stroke="white" stroke-linecap="round" stroke-linejoin="round"/>
<path d="M74.3984 257.509C74.4991 257.627 74.5989 257.745 74.6987 257.865" stroke="white" stroke-linecap="round" stroke-linejoin="round"/>
<path d="M76.4141 260.036C84.8462 271.272 90.6917 287.812 84.2961 296.291" stroke="white" stroke-linecap="round" stroke-linejoin="round" stroke-dasharray="0.99 2.97"/>
<path d="M83.3985 297.343C83.2913 297.454 83.1822 297.563 83.0703 297.67" stroke="white" stroke-linecap="round" stroke-linejoin="round"/>
<path d="M9.08203 176.874C9.08203 176.874 9.22003 176.948 9.48951 177.092" stroke="white" stroke-linecap="round" stroke-linejoin="round"/>
<path d="M11.9258 178.413C18.2329 181.854 34.4453 190.841 54.5443 203.069C80.5223 218.872 83.9854 236.406 82.9028 244.416C82.4926 247.454 81.7391 249.776 80.6789 251.559" stroke="white" stroke-linecap="round" stroke-linejoin="round" stroke-dasharray="0.99 2.97"/>
<path d="M79.8934 252.71C79.7983 252.833 79.7004 252.953 79.6016 253.069" stroke="white" stroke-linecap="round" stroke-linejoin="round"/>
<path d="M1 181.412L51.6049 151.541C51.6049 151.541 71.0884 161.932 97.0655 177.735C120.71 192.119 125.703 207.937 125.593 216.702" stroke="white" stroke-linecap="round" stroke-linejoin="round"/>
<path d="M115.734 232.988C122.066 239.32 128.947 251.117 129.047 262.701C129.136 272.929 124.664 274.228 118.981 277.475C113.298 280.722 73.1992 304.242 73.1992 304.242" stroke="white" stroke-linecap="round" stroke-linejoin="round"/>
<path d="M118.494 231.039L69.1211 259.66" stroke="white" stroke-linecap="round" stroke-linejoin="round"/>
<path d="M78.9297 253.975L100.557 288.216" stroke="white" stroke-linecap="round" stroke-linejoin="round"/>
<path d="M102.133 240.567L123.759 274.808" stroke="white" stroke-linecap="round" stroke-linejoin="round"/>
<path d="M96.4492 281.716L119.846 268.615" stroke="white" stroke-linecap="round" stroke-linejoin="round"/>
<path d="M87.1133 267.076L110.51 253.975" stroke="white" stroke-linecap="round" stroke-linejoin="round"/>
<path d="M127.489 274.284L131.321 276.663L74.007 309.947L66.5391 305.912" stroke="white" stroke-linecap="round" stroke-linejoin="round"/>
<path d="M131.322 276.663V281.047L74.0078 313.681V309.947" stroke="white" stroke-linecap="round" stroke-linejoin="round"/>
<path d="M50.2188 300.702L74.0064 313.681" stroke="white" stroke-linecap="round" stroke-linejoin="round"/>
<path d="M27.0859 217.888C27.0859 217.888 32.7683 221.135 39.2628 225.195C45.7573 229.254 48.8418 234.287 47.8683 237.696C46.8949 241.105 43.3227 240.943 36.016 236.722C28.7093 232.5 27.0859 231.039 27.0859 231.039V217.888Z" stroke="white" stroke-linecap="round" stroke-linejoin="round"/>
<path d="M27.0859 231.039L38.3425 224.621" stroke="white" stroke-linecap="round" stroke-linejoin="round"/>
<path d="M27.0859 251.384C27.0859 251.384 35.0276 256.089 42.1263 260.525C49.2241 264.962 52.6677 270.558 51.6028 274.284C50.538 278.01 46.3279 277.424 38.3425 272.81C30.357 268.196 27.0859 265.758 27.0859 265.758V251.384Z" stroke="white" stroke-linecap="round" stroke-linejoin="round"/>
<path d="M27.0859 265.758L39.3887 258.743" stroke="white" stroke-linecap="round" stroke-linejoin="round"/>
<path d="M116.547 219.674L110.51 216.701C110.51 216.701 109.186 216.156 108.7 217.239C108.402 217.901 108.711 218.842 109.363 219.16C110.014 219.478 115.735 222.272 115.735 222.272" stroke="white" stroke-linecap="round" stroke-linejoin="round"/>
<path d="M123.757 221.136L119.414 218.538V229.578L123.419 231.96" stroke="white" stroke-linecap="round" stroke-linejoin="round"/>
<path d="M119.414 227.36C116.871 225.736 116.058 224.275 116.059 221.569C116.06 219.187 117.736 218.051 119.414 219.08" stroke="white" stroke-linecap="round" stroke-linejoin="round"/>
<path d="M119.414 218.538L121.586 217.011L124.95 218.805" stroke="white" stroke-linecap="round" stroke-linejoin="round"/>
<path d="M127.154 235.532L123.758 233.258V219.62L127.586 221.947L127.154 235.532Z" stroke="white" stroke-linecap="round" stroke-linejoin="round"/>
<path d="M123.758 219.62L126.45 217.78L130.167 220.038L127.586 221.947L123.758 219.62Z" stroke="white" stroke-linecap="round" stroke-linejoin="round"/>
<path d="M119.903 216.102C120.39 212.584 119.309 206.469 113.355 204.575C107.401 202.681 99.6087 205.873 97.7681 214.262C95.9283 222.65 100.258 227.413 105.183 228.604C110.108 229.794 114.546 226.872 115.736 225.248" stroke="white" stroke-linecap="round" stroke-linejoin="round"/>
<path d="M102.941 226.271C107.107 226.487 110.634 224.072 111.677 222.651" stroke="white" stroke-linecap="round" stroke-linejoin="round"/>
<path d="M115.413 216.63C116.703 213.635 116.512 210.037 115.07 207.103" stroke="white" stroke-linecap="round" stroke-linejoin="round"/>
<path d="M127.586 221.947C132.563 224.815 144.958 232.609 147.989 234.666C151.019 236.723 154.483 240.51 155.35 251.335C156.216 262.159 156.216 277.638 155.89 279.261C155.566 280.884 154.483 280.992 152.752 280.884C151.02 280.776 146.582 278.287 146.474 273.524C146.365 268.761 146.149 258.996 144.308 253.975C142.469 248.954 141.064 247.757 138.247 246.139C136.396 245.076 132.909 243.083 129.696 241.376C127.9 240.423 127.166 238.46 127.152 235.532" stroke="white" stroke-linecap="round" stroke-linejoin="round"/>
<path d="M133.27 244.7C133.27 246.464 134.785 248.196 136.734 249.387C138.681 250.578 140.198 252.634 140.63 255.123C141.063 257.613 141.929 260.427 144.743 261.942" stroke="white" stroke-linecap="round" stroke-linejoin="round"/>
<path d="M129.699 226.71V229.903L146.584 240.567V237.588L129.699 226.71Z" stroke="white" stroke-linecap="round" stroke-linejoin="round"/>
<path d="M131.32 220.702C135.758 223.3 143.335 227.521 149.071 231.039C154.808 234.557 157.947 240.077 158.38 247.763C158.813 255.448 159.463 271.222 159.138 274.808C158.814 278.395 158.121 279.99 154.733 280.762" stroke="white" stroke-linecap="round" stroke-linejoin="round"/>
<path d="M157.942 244.111C157.619 241.785 154.979 241.837 152.97 242.893C151.504 243.663 149.181 244.624 150.048 248.521C150.914 252.418 152.91 258.37 153.21 264.649C153.511 270.927 152.152 272.694 153.21 275.166C154.269 277.638 155.32 277.91 157.191 277.312C159.228 276.662 159.139 274.808 159.139 274.808" stroke="white" stroke-linecap="round" stroke-linejoin="round"/>
<path d="M5.68489 187.901C6.44483 188.34 7.06118 189.311 7.06118 190.071C7.06118 190.831 6.44483 191.091 5.68489 190.653C4.92494 190.214 4.30859 189.242 4.30859 188.482C4.30859 187.722 4.92494 187.461 5.68489 187.901Z" stroke="white" stroke-linecap="round" stroke-linejoin="round"/>
<path d="M70.4974 246.712C71.2573 247.151 71.8737 248.123 71.8737 248.883C71.8737 249.642 71.2573 249.903 70.4974 249.464C69.7374 249.025 69.1211 248.054 69.1211 247.294C69.1211 246.534 69.7374 246.273 70.4974 246.712Z" stroke="white" stroke-linecap="round" stroke-linejoin="round"/>
<path d="M74.3958 293.796C75.1558 294.235 75.7721 295.207 75.7721 295.967C75.7721 296.727 75.1558 296.987 74.3958 296.548C73.6359 296.109 73.0195 295.138 73.0195 294.378C73.0195 293.618 73.6359 293.358 74.3958 293.796Z" stroke="white" stroke-linecap="round" stroke-linejoin="round"/>
<path d="M5.68489 267.889C6.44483 268.328 7.06118 269.3 7.06118 270.06C7.06118 270.819 6.44483 271.08 5.68489 270.641C4.92494 270.203 4.30859 269.231 4.30859 268.471C4.30859 267.711 4.92494 267.45 5.68489 267.889Z" stroke="white" stroke-linecap="round" stroke-linejoin="round"/>
<path d="M107.725 215.084C106.686 215.153 106.111 216.588 106.502 217.878" stroke="white" stroke-linecap="round" stroke-linejoin="round"/>
<path d="M105.858 214.123C104.819 214.192 104.244 215.627 104.635 216.916" stroke="white" stroke-linecap="round" stroke-linejoin="round"/>
<path d="M103.99 213.16C102.952 213.229 102.376 214.664 102.768 215.954" stroke="white" stroke-linecap="round" stroke-linejoin="round"/>
<path d="M102.123 212.199C101.085 212.268 100.509 213.703 100.901 214.993" stroke="white" stroke-linecap="round" stroke-linejoin="round"/>
<path d="M275.556 62.2683C276.167 62.2683 276.662 61.773 276.662 61.162C276.662 60.551 276.167 60.0557 275.556 60.0557C274.945 60.0557 274.449 60.551 274.449 61.162C274.449 61.773 274.945 62.2683 275.556 62.2683Z" fill="white"/>
<path d="M262.665 62.2683C263.276 62.2683 263.771 61.773 263.771 61.162C263.771 60.551 263.276 60.0557 262.665 60.0557C262.054 60.0557 261.559 60.551 261.559 61.162C261.559 61.773 262.054 62.2683 262.665 62.2683Z" fill="white"/>
<path d="M301.337 62.2683C301.948 62.2683 302.443 61.773 302.443 61.162C302.443 60.551 301.948 60.0557 301.337 60.0557C300.726 60.0557 300.23 60.551 300.23 61.162C300.23 61.773 300.726 62.2683 301.337 62.2683Z" fill="white"/>
<path d="M288.446 62.2683C289.057 62.2683 289.552 61.773 289.552 61.162C289.552 60.551 289.057 60.0557 288.446 60.0557C287.835 60.0557 287.34 60.551 287.34 61.162C287.34 61.773 287.835 62.2683 288.446 62.2683Z" fill="white"/>
<path d="M249.778 50.2573C250.389 50.2573 250.884 49.762 250.884 49.151C250.884 48.54 250.389 48.0447 249.778 48.0447C249.167 48.0447 248.672 48.54 248.672 49.151C248.672 49.762 249.167 50.2573 249.778 50.2573Z" fill="white"/>
<path d="M236.888 50.2573C237.499 50.2573 237.994 49.762 237.994 49.151C237.994 48.54 237.499 48.0447 236.888 48.0447C236.277 48.0447 235.781 48.54 235.781 49.151C235.781 49.762 236.277 50.2573 236.888 50.2573Z" fill="white"/>
<path d="M262.669 50.2573C263.28 50.2573 263.775 49.762 263.775 49.151C263.775 48.54 263.28 48.0447 262.669 48.0447C262.058 48.0447 261.562 48.54 261.562 49.151C261.562 49.762 262.058 50.2573 262.669 50.2573Z" fill="white"/>
<path d="M275.559 50.2573C276.17 50.2573 276.666 49.762 276.666 49.151C276.666 48.54 276.17 48.0447 275.559 48.0447C274.948 48.0447 274.453 48.54 274.453 49.151C274.453 49.762 274.948 50.2573 275.559 50.2573Z" fill="white"/>
<path d="M288.442 50.2573C289.053 50.2573 289.549 49.762 289.549 49.151C289.549 48.54 289.053 48.0447 288.442 48.0447C287.831 48.0447 287.336 48.54 287.336 49.151C287.336 49.762 287.831 50.2573 288.442 50.2573Z" fill="white"/>
<path d="M301.337 50.2573C301.948 50.2573 302.443 49.762 302.443 49.151C302.443 48.54 301.948 48.0447 301.337 48.0447C300.726 48.0447 300.23 48.54 300.23 49.151C300.23 49.762 300.726 50.2573 301.337 50.2573Z" fill="white"/>
<path d="M314.224 50.2573C314.835 50.2573 315.33 49.762 315.33 49.151C315.33 48.54 314.835 48.0447 314.224 48.0447C313.613 48.0447 313.117 48.54 313.117 49.151C313.117 49.762 313.613 50.2573 314.224 50.2573Z" fill="white"/>
<path d="M327.118 50.2573C327.729 50.2573 328.224 49.762 328.224 49.151C328.224 48.54 327.729 48.0447 327.118 48.0447C326.507 48.0447 326.012 48.54 326.012 49.151C326.012 49.762 326.507 50.2573 327.118 50.2573Z" fill="white"/>
<path d="M236.88 38.2453C237.491 38.2453 237.986 37.75 237.986 37.139C237.986 36.528 237.491 36.0327 236.88 36.0327C236.269 36.0327 235.773 36.528 235.773 37.139C235.773 37.75 236.269 38.2453 236.88 38.2453Z" fill="white"/>
<path d="M223.989 38.2453C224.6 38.2453 225.095 37.75 225.095 37.139C225.095 36.528 224.6 36.0327 223.989 36.0327C223.378 36.0327 222.883 36.528 222.883 37.139C222.883 37.75 223.378 38.2453 223.989 38.2453Z" fill="white"/>
<path d="M249.77 38.2453C250.381 38.2453 250.877 37.75 250.877 37.139C250.877 36.528 250.381 36.0327 249.77 36.0327C249.159 36.0327 248.664 36.528 248.664 37.139C248.664 37.75 249.159 38.2453 249.77 38.2453Z" fill="white"/>
<path d="M262.661 38.2453C263.272 38.2453 263.767 37.75 263.767 37.139C263.767 36.528 263.272 36.0327 262.661 36.0327C262.05 36.0327 261.555 36.528 261.555 37.139C261.555 37.75 262.05 38.2453 262.661 38.2453Z" fill="white"/>
<path d="M275.552 38.2453C276.163 38.2453 276.658 37.75 276.658 37.139C276.658 36.528 276.163 36.0327 275.552 36.0327C274.941 36.0327 274.445 36.528 274.445 37.139C274.445 37.75 274.941 38.2453 275.552 38.2453Z" fill="white"/>
<path d="M288.438 38.2453C289.049 38.2453 289.545 37.75 289.545 37.139C289.545 36.528 289.049 36.0327 288.438 36.0327C287.827 36.0327 287.332 36.528 287.332 37.139C287.332 37.75 287.827 38.2453 288.438 38.2453Z" fill="white"/>
<path d="M301.325 38.2453C301.936 38.2453 302.431 37.75 302.431 37.139C302.431 36.528 301.936 36.0327 301.325 36.0327C300.714 36.0327 300.219 36.528 300.219 37.139C300.219 37.75 300.714 38.2453 301.325 38.2453Z" fill="white"/>
<path d="M314.22 38.2453C314.831 38.2453 315.326 37.75 315.326 37.139C315.326 36.528 314.831 36.0327 314.22 36.0327C313.609 36.0327 313.113 36.528 313.113 37.139C313.113 37.75 313.609 38.2453 314.22 38.2453Z" fill="white"/>
<path d="M327.106 38.2453C327.717 38.2453 328.213 37.75 328.213 37.139C328.213 36.528 327.717 36.0327 327.106 36.0327C326.495 36.0327 326 36.528 326 37.139C326 37.75 326.495 38.2453 327.106 38.2453Z" fill="white"/>
<path d="M339.997 38.2453C340.608 38.2453 341.103 37.75 341.103 37.139C341.103 36.528 340.608 36.0327 339.997 36.0327C339.386 36.0327 338.891 36.528 338.891 37.139C338.891 37.75 339.386 38.2453 339.997 38.2453Z" fill="white"/>
<path d="M223.989 26.2341C224.6 26.2341 225.095 25.7388 225.095 25.1278C225.095 24.5168 224.6 24.0215 223.989 24.0215C223.378 24.0215 222.883 24.5168 222.883 25.1278C222.883 25.7388 223.378 26.2341 223.989 26.2341Z" fill="white"/>
<path d="M236.88 26.2341C237.491 26.2341 237.986 25.7388 237.986 25.1278C237.986 24.5168 237.491 24.0215 236.88 24.0215C236.269 24.0215 235.773 24.5168 235.773 25.1278C235.773 25.7388 236.269 26.2341 236.88 26.2341Z" fill="white"/>
<path d="M249.77 26.2341C250.381 26.2341 250.877 25.7388 250.877 25.1278C250.877 24.5168 250.381 24.0215 249.77 24.0215C249.159 24.0215 248.664 24.5168 248.664 25.1278C248.664 25.7388 249.159 26.2341 249.77 26.2341Z" fill="white"/>
<path d="M262.661 26.2341C263.272 26.2341 263.767 25.7388 263.767 25.1278C263.767 24.5168 263.272 24.0215 262.661 24.0215C262.05 24.0215 261.555 24.5168 261.555 25.1278C261.555 25.7388 262.05 26.2341 262.661 26.2341Z" fill="white"/>
<path d="M275.552 26.2341C276.163 26.2341 276.658 25.7388 276.658 25.1278C276.658 24.5168 276.163 24.0215 275.552 24.0215C274.941 24.0215 274.445 24.5168 274.445 25.1278C274.445 25.7388 274.941 26.2341 275.552 26.2341Z" fill="white"/>
<path d="M288.438 26.2341C289.049 26.2341 289.545 25.7388 289.545 25.1278C289.545 24.5168 289.049 24.0215 288.438 24.0215C287.827 24.0215 287.332 24.5168 287.332 25.1278C287.332 25.7388 287.827 26.2341 288.438 26.2341Z" fill="white"/>
<path d="M301.325 26.2341C301.936 26.2341 302.431 25.7388 302.431 25.1278C302.431 24.5168 301.936 24.0215 301.325 24.0215C300.714 24.0215 300.219 24.5168 300.219 25.1278C300.219 25.7388 300.714 26.2341 301.325 26.2341Z" fill="white"/>
<path d="M314.22 26.2341C314.831 26.2341 315.326 25.7388 315.326 25.1278C315.326 24.5168 314.831 24.0215 314.22 24.0215C313.609 24.0215 313.113 24.5168 313.113 25.1278C313.113 25.7388 313.609 26.2341 314.22 26.2341Z" fill="white"/>
<path d="M327.106 26.2341C327.717 26.2341 328.213 25.7388 328.213 25.1278C328.213 24.5168 327.717 24.0215 327.106 24.0215C326.495 24.0215 326 24.5168 326 25.1278C326 25.7388 326.495 26.2341 327.106 26.2341Z" fill="white"/>
<path d="M339.997 26.2341C340.608 26.2341 341.103 25.7388 341.103 25.1278C341.103 24.5168 340.608 24.0215 339.997 24.0215C339.386 24.0215 338.891 24.5168 338.891 25.1278C338.891 25.7388 339.386 26.2341 339.997 26.2341Z" fill="white"/>
<path d="M211.106 14.2239C211.717 14.2239 212.213 13.7285 212.213 13.1175C212.213 12.5065 211.717 12.0112 211.106 12.0112C210.495 12.0112 210 12.5065 210 13.1175C210 13.7285 210.495 14.2239 211.106 14.2239Z" fill="white"/>
<path d="M223.997 14.2239C224.608 14.2239 225.103 13.7285 225.103 13.1175C225.103 12.5065 224.608 12.0112 223.997 12.0112C223.386 12.0112 222.891 12.5065 222.891 13.1175C222.891 13.7285 223.386 14.2239 223.997 14.2239Z" fill="white"/>
<path d="M236.888 14.2239C237.499 14.2239 237.994 13.7285 237.994 13.1175C237.994 12.5065 237.499 12.0112 236.888 12.0112C236.277 12.0112 235.781 12.5065 235.781 13.1175C235.781 13.7285 236.277 14.2239 236.888 14.2239Z" fill="white"/>
<path d="M249.778 14.2239C250.389 14.2239 250.884 13.7285 250.884 13.1175C250.884 12.5065 250.389 12.0112 249.778 12.0112C249.167 12.0112 248.672 12.5065 248.672 13.1175C248.672 13.7285 249.167 14.2239 249.778 14.2239Z" fill="white"/>
<path d="M262.669 14.2239C263.28 14.2239 263.775 13.7285 263.775 13.1175C263.775 12.5065 263.28 12.0112 262.669 12.0112C262.058 12.0112 261.562 12.5065 261.562 13.1175C261.562 13.7285 262.058 14.2239 262.669 14.2239Z" fill="white"/>
<path d="M275.556 14.2239C276.167 14.2239 276.662 13.7285 276.662 13.1175C276.662 12.5065 276.167 12.0112 275.556 12.0112C274.945 12.0112 274.449 12.5065 274.449 13.1175C274.449 13.7285 274.945 14.2239 275.556 14.2239Z" fill="white"/>
<path d="M288.442 14.2239C289.053 14.2239 289.549 13.7285 289.549 13.1175C289.549 12.5065 289.053 12.0112 288.442 12.0112C287.831 12.0112 287.336 12.5065 287.336 13.1175C287.336 13.7285 287.831 14.2239 288.442 14.2239Z" fill="white"/>
<path d="M301.337 14.2239C301.948 14.2239 302.443 13.7285 302.443 13.1175C302.443 12.5065 301.948 12.0112 301.337 12.0112C300.726 12.0112 300.23 12.5065 300.23 13.1175C300.23 13.7285 300.726 14.2239 301.337 14.2239Z" fill="white"/>
<path d="M314.224 14.2239C314.835 14.2239 315.33 13.7285 315.33 13.1175C315.33 12.5065 314.835 12.0112 314.224 12.0112C313.613 12.0112 313.117 12.5065 313.117 13.1175C313.117 13.7285 313.613 14.2239 314.224 14.2239Z" fill="white"/>
<path d="M327.114 14.2239C327.725 14.2239 328.22 13.7285 328.22 13.1175C328.22 12.5065 327.725 12.0112 327.114 12.0112C326.503 12.0112 326.008 12.5065 326.008 13.1175C326.008 13.7285 326.503 14.2239 327.114 14.2239Z" fill="white"/>
<path d="M340.009 14.2239C340.62 14.2239 341.115 13.7285 341.115 13.1175C341.115 12.5065 340.62 12.0112 340.009 12.0112C339.398 12.0112 338.902 12.5065 338.902 13.1175C338.902 13.7285 339.398 14.2239 340.009 14.2239Z" fill="white"/>
<path d="M352.891 14.2239C353.502 14.2239 353.998 13.7285 353.998 13.1175C353.998 12.5065 353.502 12.0112 352.891 12.0112C352.28 12.0112 351.785 12.5065 351.785 13.1175C351.785 13.7285 352.28 14.2239 352.891 14.2239Z" fill="white"/>
<path d="M211.106 2.21262C211.717 2.21262 212.213 1.71731 212.213 1.10631C212.213 0.495313 211.717 0 211.106 0C210.495 0 210 0.495313 210 1.10631C210 1.71731 210.495 2.21262 211.106 2.21262Z" fill="white"/>
<path d="M223.997 2.21262C224.608 2.21262 225.103 1.71731 225.103 1.10631C225.103 0.495313 224.608 0 223.997 0C223.386 0 222.891 0.495313 222.891 1.10631C222.891 1.71731 223.386 2.21262 223.997 2.21262Z" fill="white"/>
<path d="M236.888 2.21262C237.499 2.21262 237.994 1.71731 237.994 1.10631C237.994 0.495313 237.499 0 236.888 0C236.277 0 235.781 0.495313 235.781 1.10631C235.781 1.71731 236.277 2.21262 236.888 2.21262Z" fill="white"/>
<path d="M249.778 2.21262C250.389 2.21262 250.884 1.71731 250.884 1.10631C250.884 0.495313 250.389 0 249.778 0C249.167 0 248.672 0.495313 248.672 1.10631C248.672 1.71731 249.167 2.21262 249.778 2.21262Z" fill="white"/>
<path d="M262.669 2.21262C263.28 2.21262 263.775 1.71731 263.775 1.10631C263.775 0.495313 263.28 0 262.669 0C262.058 0 261.562 0.495313 261.562 1.10631C261.562 1.71731 262.058 2.21262 262.669 2.21262Z" fill="white"/>
<path d="M275.556 2.21262C276.167 2.21262 276.662 1.71731 276.662 1.10631C276.662 0.495313 276.167 0 275.556 0C274.945 0 274.449 0.495313 274.449 1.10631C274.449 1.71731 274.945 2.21262 275.556 2.21262Z" fill="white"/>
<path d="M288.442 2.21262C289.053 2.21262 289.549 1.71731 289.549 1.10631C289.549 0.495313 289.053 0 288.442 0C287.831 0 287.336 0.495313 287.336 1.10631C287.336 1.71731 287.831 2.21262 288.442 2.21262Z" fill="white"/>
<path d="M301.337 2.21262C301.948 2.21262 302.443 1.71731 302.443 1.10631C302.443 0.495313 301.948 0 301.337 0C300.726 0 300.23 0.495313 300.23 1.10631C300.23 1.71731 300.726 2.21262 301.337 2.21262Z" fill="white"/>
<path d="M314.224 2.21262C314.835 2.21262 315.33 1.71731 315.33 1.10631C315.33 0.495313 314.835 0 314.224 0C313.613 0 313.117 0.495313 313.117 1.10631C313.117 1.71731 313.613 2.21262 314.224 2.21262Z" fill="white"/>
<path d="M327.114 2.21262C327.725 2.21262 328.22 1.71731 328.22 1.10631C328.22 0.495313 327.725 0 327.114 0C326.503 0 326.008 0.495313 326.008 1.10631C326.008 1.71731 326.503 2.21262 327.114 2.21262Z" fill="white"/>
<path d="M340.009 2.21262C340.62 2.21262 341.115 1.71731 341.115 1.10631C341.115 0.495313 340.62 0 340.009 0C339.398 0 338.902 0.495313 338.902 1.10631C338.902 1.71731 339.398 2.21262 340.009 2.21262Z" fill="white"/>
<path d="M352.891 2.21262C353.502 2.21262 353.998 1.71731 353.998 1.10631C353.998 0.495313 353.502 0 352.891 0C352.28 0 351.785 0.495313 351.785 1.10631C351.785 1.71731 352.28 2.21262 352.891 2.21262Z" fill="white"/>
<path d="M295.444 297.732C294.833 297.732 294.338 298.227 294.338 298.838C294.338 299.449 294.833 299.944 295.444 299.944C296.055 299.944 296.551 299.449 296.551 298.838C296.551 298.227 296.055 297.732 295.444 297.732Z" fill="white"/>
<path d="M308.335 297.732C307.724 297.732 307.229 298.227 307.229 298.838C307.229 299.449 307.724 299.944 308.335 299.944C308.946 299.944 309.441 299.449 309.441 298.838C309.441 298.227 308.946 297.732 308.335 297.732Z" fill="white"/>
<path d="M269.663 297.732C269.052 297.732 268.557 298.227 268.557 298.838C268.557 299.449 269.052 299.944 269.663 299.944C270.274 299.944 270.77 299.449 270.77 298.838C270.77 298.227 270.274 297.732 269.663 297.732Z" fill="white"/>
<path d="M282.554 297.732C281.943 297.732 281.448 298.227 281.448 298.838C281.448 299.449 281.943 299.944 282.554 299.944C283.165 299.944 283.66 299.449 283.66 298.838C283.66 298.227 283.165 297.732 282.554 297.732Z" fill="white"/>
<path d="M321.222 309.743C320.611 309.743 320.116 310.238 320.116 310.849C320.116 311.46 320.611 311.955 321.222 311.955C321.833 311.955 322.328 311.46 322.328 310.849C322.328 310.238 321.833 309.743 321.222 309.743Z" fill="white"/>
<path d="M334.112 309.743C333.501 309.743 333.006 310.238 333.006 310.849C333.006 311.46 333.501 311.955 334.112 311.955C334.723 311.955 335.219 311.46 335.219 310.849C335.219 310.238 334.723 309.743 334.112 309.743Z" fill="white"/>
<path d="M308.331 309.743C307.72 309.743 307.225 310.238 307.225 310.849C307.225 311.46 307.72 311.955 308.331 311.955C308.942 311.955 309.438 311.46 309.438 310.849C309.438 310.238 308.942 309.743 308.331 309.743Z" fill="white"/>
<path d="M295.441 309.743C294.83 309.743 294.334 310.238 294.334 310.849C294.334 311.46 294.83 311.955 295.441 311.955C296.052 311.955 296.547 311.46 296.547 310.849C296.547 310.238 296.052 309.743 295.441 309.743Z" fill="white"/>
<path d="M282.558 309.743C281.947 309.743 281.451 310.238 281.451 310.849C281.451 311.46 281.947 311.955 282.558 311.955C283.169 311.955 283.664 311.46 283.664 310.849C283.664 310.238 283.169 309.743 282.558 309.743Z" fill="white"/>
<path d="M269.663 309.743C269.052 309.743 268.557 310.238 268.557 310.849C268.557 311.46 269.052 311.955 269.663 311.955C270.274 311.955 270.77 311.46 270.77 310.849C270.77 310.238 270.274 309.743 269.663 309.743Z" fill="white"/>
<path d="M256.776 309.743C256.165 309.743 255.67 310.238 255.67 310.849C255.67 311.46 256.165 311.955 256.776 311.955C257.387 311.955 257.883 311.46 257.883 310.849C257.883 310.238 257.387 309.743 256.776 309.743Z" fill="white"/>
<path d="M243.882 309.743C243.271 309.743 242.776 310.238 242.776 310.849C242.776 311.46 243.271 311.955 243.882 311.955C244.493 311.955 244.988 311.46 244.988 310.849C244.988 310.238 244.493 309.743 243.882 309.743Z" fill="white"/>
<path d="M334.12 321.755C333.509 321.755 333.014 322.25 333.014 322.861C333.014 323.472 333.509 323.967 334.12 323.967C334.731 323.967 335.227 323.472 335.227 322.861C335.227 322.25 334.731 321.755 334.12 321.755Z" fill="white"/>
<path d="M347.011 321.755C346.4 321.755 345.905 322.25 345.905 322.861C345.905 323.472 346.4 323.967 347.011 323.967C347.622 323.967 348.117 323.472 348.117 322.861C348.117 322.25 347.622 321.755 347.011 321.755Z" fill="white"/>
<path d="M321.23 321.755C320.619 321.755 320.123 322.25 320.123 322.861C320.123 323.472 320.619 323.967 321.23 323.967C321.841 323.967 322.336 323.472 322.336 322.861C322.336 322.25 321.841 321.755 321.23 321.755Z" fill="white"/>
<path d="M308.339 321.755C307.728 321.755 307.233 322.25 307.233 322.861C307.233 323.472 307.728 323.967 308.339 323.967C308.95 323.967 309.445 323.472 309.445 322.861C309.445 322.25 308.95 321.755 308.339 321.755Z" fill="white"/>
<path d="M295.448 321.755C294.837 321.755 294.342 322.25 294.342 322.861C294.342 323.472 294.837 323.967 295.448 323.967C296.059 323.967 296.555 323.472 296.555 322.861C296.555 322.25 296.059 321.755 295.448 321.755Z" fill="white"/>
<path d="M282.562 321.755C281.951 321.755 281.455 322.25 281.455 322.861C281.455 323.472 281.951 323.967 282.562 323.967C283.173 323.967 283.668 323.472 283.668 322.861C283.668 322.25 283.173 321.755 282.562 321.755Z" fill="white"/>
<path d="M269.675 321.755C269.064 321.755 268.569 322.25 268.569 322.861C268.569 323.472 269.064 323.967 269.675 323.967C270.286 323.967 270.781 323.472 270.781 322.861C270.781 322.25 270.286 321.755 269.675 321.755Z" fill="white"/>
<path d="M256.78 321.755C256.169 321.755 255.674 322.25 255.674 322.861C255.674 323.472 256.169 323.967 256.78 323.967C257.391 323.967 257.887 323.472 257.887 322.861C257.887 322.25 257.391 321.755 256.78 321.755Z" fill="white"/>
<path d="M243.894 321.755C243.283 321.755 242.787 322.25 242.787 322.861C242.787 323.472 243.283 323.967 243.894 323.967C244.505 323.967 245 323.472 245 322.861C245 322.25 244.505 321.755 243.894 321.755Z" fill="white"/>
<path d="M231.003 321.755C230.392 321.755 229.897 322.25 229.897 322.861C229.897 323.472 230.392 323.967 231.003 323.967C231.614 323.967 232.109 323.472 232.109 322.861C232.109 322.25 231.614 321.755 231.003 321.755Z" fill="white"/>
<path d="M347.011 333.766C346.4 333.766 345.905 334.261 345.905 334.872C345.905 335.483 346.4 335.979 347.011 335.979C347.622 335.979 348.117 335.483 348.117 334.872C348.117 334.261 347.622 333.766 347.011 333.766Z" fill="white"/>
<path d="M334.12 333.766C333.509 333.766 333.014 334.261 333.014 334.872C333.014 335.483 333.509 335.979 334.12 335.979C334.731 335.979 335.227 335.483 335.227 334.872C335.227 334.261 334.731 333.766 334.12 333.766Z" fill="white"/>
<path d="M321.23 333.766C320.619 333.766 320.123 334.261 320.123 334.872C320.123 335.483 320.619 335.979 321.23 335.979C321.841 335.979 322.336 335.483 322.336 334.872C322.336 334.261 321.841 333.766 321.23 333.766Z" fill="white"/>
<path d="M308.339 333.766C307.728 333.766 307.233 334.261 307.233 334.872C307.233 335.483 307.728 335.979 308.339 335.979C308.95 335.979 309.445 335.483 309.445 334.872C309.445 334.261 308.95 333.766 308.339 333.766Z" fill="white"/>
<path d="M295.448 333.766C294.837 333.766 294.342 334.261 294.342 334.872C294.342 335.483 294.837 335.979 295.448 335.979C296.059 335.979 296.555 335.483 296.555 334.872C296.555 334.261 296.059 333.766 295.448 333.766Z" fill="white"/>
<path d="M282.562 333.766C281.951 333.766 281.455 334.261 281.455 334.872C281.455 335.483 281.951 335.979 282.562 335.979C283.173 335.979 283.668 335.483 283.668 334.872C283.668 334.261 283.173 333.766 282.562 333.766Z" fill="white"/>
<path d="M269.675 333.766C269.064 333.766 268.569 334.261 268.569 334.872C268.569 335.483 269.064 335.979 269.675 335.979C270.286 335.979 270.781 335.483 270.781 334.872C270.781 334.261 270.286 333.766 269.675 333.766Z" fill="white"/>
<path d="M256.78 333.766C256.169 333.766 255.674 334.261 255.674 334.872C255.674 335.483 256.169 335.979 256.78 335.979C257.391 335.979 257.887 335.483 257.887 334.872C257.887 334.261 257.391 333.766 256.78 333.766Z" fill="white"/>
<path d="M243.894 333.766C243.283 333.766 242.787 334.261 242.787 334.872C242.787 335.483 243.283 335.979 243.894 335.979C244.505 335.979 245 335.483 245 334.872C245 334.261 244.505 333.766 243.894 333.766Z" fill="white"/>
<path d="M231.003 333.766C230.392 333.766 229.897 334.261 229.897 334.872C229.897 335.483 230.392 335.979 231.003 335.979C231.614 335.979 232.109 335.483 232.109 334.872C232.109 334.261 231.614 333.766 231.003 333.766Z" fill="white"/>
<path d="M359.894 345.776C359.283 345.776 358.787 346.271 358.787 346.882C358.787 347.493 359.283 347.989 359.894 347.989C360.505 347.989 361 347.493 361 346.882C361 346.271 360.505 345.776 359.894 345.776Z" fill="white"/>
<path d="M347.003 345.776C346.392 345.776 345.897 346.271 345.897 346.882C345.897 347.493 346.392 347.989 347.003 347.989C347.614 347.989 348.109 347.493 348.109 346.882C348.109 346.271 347.614 345.776 347.003 345.776Z" fill="white"/>
<path d="M334.112 345.776C333.501 345.776 333.006 346.271 333.006 346.882C333.006 347.493 333.501 347.989 334.112 347.989C334.723 347.989 335.219 347.493 335.219 346.882C335.219 346.271 334.723 345.776 334.112 345.776Z" fill="white"/>
<path d="M321.222 345.776C320.611 345.776 320.116 346.271 320.116 346.882C320.116 347.493 320.611 347.989 321.222 347.989C321.833 347.989 322.328 347.493 322.328 346.882C322.328 346.271 321.833 345.776 321.222 345.776Z" fill="white"/>
<path d="M308.331 345.776C307.72 345.776 307.225 346.271 307.225 346.882C307.225 347.493 307.72 347.989 308.331 347.989C308.942 347.989 309.438 347.493 309.438 346.882C309.438 346.271 308.942 345.776 308.331 345.776Z" fill="white"/>
<path d="M295.444 345.776C294.833 345.776 294.338 346.271 294.338 346.882C294.338 347.493 294.833 347.989 295.444 347.989C296.055 347.989 296.551 347.493 296.551 346.882C296.551 346.271 296.055 345.776 295.444 345.776Z" fill="white"/>
<path d="M282.558 345.776C281.947 345.776 281.451 346.271 281.451 346.882C281.451 347.493 281.947 347.989 282.558 347.989C283.169 347.989 283.664 347.493 283.664 346.882C283.664 346.271 283.169 345.776 282.558 345.776Z" fill="white"/>
<path d="M269.663 345.776C269.052 345.776 268.557 346.271 268.557 346.882C268.557 347.493 269.052 347.989 269.663 347.989C270.274 347.989 270.77 347.493 270.77 346.882C270.77 346.271 270.274 345.776 269.663 345.776Z" fill="white"/>
<path d="M256.776 345.776C256.165 345.776 255.67 346.271 255.67 346.882C255.67 347.493 256.165 347.989 256.776 347.989C257.387 347.989 257.883 347.493 257.883 346.882C257.883 346.271 257.387 345.776 256.776 345.776Z" fill="white"/>
<path d="M243.886 345.776C243.275 345.776 242.78 346.271 242.78 346.882C242.78 347.493 243.275 347.989 243.886 347.989C244.497 347.989 244.992 347.493 244.992 346.882C244.992 346.271 244.497 345.776 243.886 345.776Z" fill="white"/>
<path d="M230.991 345.776C230.38 345.776 229.885 346.271 229.885 346.882C229.885 347.493 230.38 347.989 230.991 347.989C231.602 347.989 232.098 347.493 232.098 346.882C232.098 346.271 231.602 345.776 230.991 345.776Z" fill="white"/>
<path d="M218.109 345.776C217.498 345.776 217.002 346.271 217.002 346.882C217.002 347.493 217.498 347.989 218.109 347.989C218.72 347.989 219.215 347.493 219.215 346.882C219.215 346.271 218.72 345.776 218.109 345.776Z" fill="white"/>
<path d="M359.894 357.787C359.283 357.787 358.787 358.283 358.787 358.894C358.787 359.505 359.283 360 359.894 360C360.505 360 361 359.505 361 358.894C361 358.283 360.505 357.787 359.894 357.787Z" fill="white"/>
<path d="M347.003 357.787C346.392 357.787 345.897 358.283 345.897 358.894C345.897 359.505 346.392 360 347.003 360C347.614 360 348.109 359.505 348.109 358.894C348.109 358.283 347.614 357.787 347.003 357.787Z" fill="white"/>
<path d="M334.112 357.787C333.501 357.787 333.006 358.283 333.006 358.894C333.006 359.505 333.501 360 334.112 360C334.723 360 335.219 359.505 335.219 358.894C335.219 358.283 334.723 357.787 334.112 357.787Z" fill="white"/>
<path d="M321.222 357.787C320.611 357.787 320.116 358.283 320.116 358.894C320.116 359.505 320.611 360 321.222 360C321.833 360 322.328 359.505 322.328 358.894C322.328 358.283 321.833 357.787 321.222 357.787Z" fill="white"/>
<path d="M308.331 357.787C307.72 357.787 307.225 358.283 307.225 358.894C307.225 359.505 307.72 360 308.331 360C308.942 360 309.438 359.505 309.438 358.894C309.438 358.283 308.942 357.787 308.331 357.787Z" fill="white"/>
<path d="M295.444 357.787C294.833 357.787 294.338 358.283 294.338 358.894C294.338 359.505 294.833 360 295.444 360C296.055 360 296.551 359.505 296.551 358.894C296.551 358.283 296.055 357.787 295.444 357.787Z" fill="white"/>
<path d="M282.558 357.787C281.947 357.787 281.451 358.283 281.451 358.894C281.451 359.505 281.947 360 282.558 360C283.169 360 283.664 359.505 283.664 358.894C283.664 358.283 283.169 357.787 282.558 357.787Z" fill="white"/>
<path d="M269.663 357.787C269.052 357.787 268.557 358.283 268.557 358.894C268.557 359.505 269.052 360 269.663 360C270.274 360 270.77 359.505 270.77 358.894C270.77 358.283 270.274 357.787 269.663 357.787Z" fill="white"/>
<path d="M256.776 357.787C256.165 357.787 255.67 358.283 255.67 358.894C255.67 359.505 256.165 360 256.776 360C257.387 360 257.883 359.505 257.883 358.894C257.883 358.283 257.387 357.787 256.776 357.787Z" fill="white"/>
<path d="M243.886 357.787C243.275 357.787 242.78 358.283 242.78 358.894C242.78 359.505 243.275 360 243.886 360C244.497 360 244.992 359.505 244.992 358.894C244.992 358.283 244.497 357.787 243.886 357.787Z" fill="white"/>
<path d="M230.991 357.787C230.38 357.787 229.885 358.283 229.885 358.894C229.885 359.505 230.38 360 230.991 360C231.602 360 232.098 359.505 232.098 358.894C232.098 358.283 231.602 357.787 230.991 357.787Z" fill="white"/>
<path d="M218.109 357.787C217.498 357.787 217.002 358.283 217.002 358.894C217.002 359.505 217.498 360 218.109 360C218.72 360 219.215 359.505 219.215 358.894C219.215 358.283 218.72 357.787 218.109 357.787Z" fill="white"/>
</svg>
