<svg width="574" height="306" viewBox="0 0 574 306" fill="none" xmlns="http://www.w3.org/2000/svg">
<g clip-path="url(#clip0_3603_7275)">
<path d="M66.7683 44.0963C78.8262 44.0963 88.601 34.3446 88.601 22.3152C88.601 10.2859 78.8262 0.53418 66.7683 0.53418C54.7104 0.53418 44.9355 10.2859 44.9355 22.3152C44.9355 34.3446 54.7104 44.0963 66.7683 44.0963Z" stroke="#191B1D" stroke-miterlimit="10"/>
<path d="M69.6452 19.4456H63.8926L64.851 13.7065H68.6868L69.6452 19.4456Z" stroke="#191B1D" stroke-miterlimit="10"/>
<path d="M69.6452 36.6629H63.8926L64.851 30.9238H68.6868L69.6452 36.6629Z" stroke="#191B1D" stroke-miterlimit="10"/>
<path d="M63.8926 7.96753H69.6452L68.6868 13.7066H64.851L63.8926 7.96753Z" stroke="#191B1D" stroke-miterlimit="10"/>
<path d="M63.8926 25.1848H69.6452L68.6868 30.9239H64.851L63.8926 25.1848Z" stroke="#191B1D" stroke-miterlimit="10"/>
<path d="M69.6445 25.1846V19.4456L75.3972 20.4017V24.2274L69.6445 25.1846Z" stroke="#191B1D" stroke-miterlimit="10"/>
<path d="M52.3867 25.1846V19.4456L58.1394 20.4017V24.2274L52.3867 25.1846Z" stroke="#191B1D" stroke-miterlimit="10"/>
<path d="M63.8913 19.4456V25.1846L58.1387 24.2274V20.4017L63.8913 19.4456Z" stroke="#191B1D" stroke-miterlimit="10"/>
<path d="M81.1492 19.4456V25.1846L75.3965 24.2274V20.4017L81.1492 19.4456Z" stroke="#191B1D" stroke-miterlimit="10"/>
<path d="M69.6445 7.96753C69.6445 16.5761 72.5209 19.4456 81.1499 19.4456" stroke="#191B1D" stroke-miterlimit="10"/>
<path d="M81.1499 25.1848C72.5209 25.1848 69.6445 28.0543 69.6445 36.6629" stroke="#191B1D" stroke-miterlimit="10"/>
<path d="M63.8921 36.6629C63.8921 28.0543 61.0157 25.1848 52.3867 25.1848" stroke="#191B1D" stroke-miterlimit="10"/>
<path d="M52.3867 19.4456C61.0157 19.4456 63.8921 16.5761 63.8921 7.96753" stroke="#191B1D" stroke-miterlimit="10"/>
<path d="M56.0059 33.0529L61.1107 27.9602" stroke="#191B1D" stroke-miterlimit="10"/>
<path d="M72.4277 16.6702L77.5325 11.5764" stroke="#191B1D" stroke-miterlimit="10"/>
<path d="M56.0059 11.5764L61.1107 16.6702" stroke="#191B1D" stroke-miterlimit="10"/>
<path d="M72.4277 27.9602L77.5325 33.0529" stroke="#191B1D" stroke-miterlimit="10"/>
<path d="M22.3679 87.6573C34.4258 87.6573 44.2006 77.9056 44.2006 65.8763C44.2006 53.8469 34.4258 44.0952 22.3679 44.0952C10.31 44.0952 0.535156 53.8469 0.535156 65.8763C0.535156 77.9056 10.31 87.6573 22.3679 87.6573Z" stroke="#191B1D" stroke-miterlimit="10"/>
<path d="M25.2449 63.0066H19.4922L20.4506 57.2676H24.2854L25.2449 63.0066Z" stroke="#191B1D" stroke-miterlimit="10"/>
<path d="M25.2449 80.2239H19.4922L20.4506 74.4849H24.2854L25.2449 80.2239Z" stroke="#191B1D" stroke-miterlimit="10"/>
<path d="M19.4922 51.5286H25.2449L24.2854 57.2676H20.4506L19.4922 51.5286Z" stroke="#191B1D" stroke-miterlimit="10"/>
<path d="M19.4922 68.7458H25.2449L24.2854 74.4849H20.4506L19.4922 68.7458Z" stroke="#191B1D" stroke-miterlimit="10"/>
<path d="M25.2441 68.7456V63.0066L30.9968 63.9638V67.7895L25.2441 68.7456Z" stroke="#191B1D" stroke-miterlimit="10"/>
<path d="M7.98633 68.7456V63.0066L13.739 63.9638V67.7895L7.98633 68.7456Z" stroke="#191B1D" stroke-miterlimit="10"/>
<path d="M19.4909 63.0066V68.7456L13.7383 67.7895V63.9638L19.4909 63.0066Z" stroke="#191B1D" stroke-miterlimit="10"/>
<path d="M36.7488 63.0066V68.7456L30.9961 67.7895V63.9638L36.7488 63.0066Z" stroke="#191B1D" stroke-miterlimit="10"/>
<path d="M25.2441 51.5286C25.2441 60.1371 28.1205 63.0067 36.7495 63.0067" stroke="#191B1D" stroke-miterlimit="10"/>
<path d="M36.7495 68.7458C28.1205 68.7458 25.2441 71.6154 25.2441 80.224" stroke="#191B1D" stroke-miterlimit="10"/>
<path d="M19.4917 80.224C19.4917 71.6154 16.6153 68.7458 7.98633 68.7458" stroke="#191B1D" stroke-miterlimit="10"/>
<path d="M7.98633 63.0067C16.6153 63.0067 19.4917 60.1371 19.4917 51.5286" stroke="#191B1D" stroke-miterlimit="10"/>
<path d="M11.6035 76.615L16.7094 71.5212" stroke="#191B1D" stroke-miterlimit="10"/>
<path d="M28.0254 60.2311L33.1302 55.1384" stroke="#191B1D" stroke-miterlimit="10"/>
<path d="M11.6035 55.1384L16.7094 60.2311" stroke="#191B1D" stroke-miterlimit="10"/>
<path d="M28.0254 71.5212L33.1302 76.615" stroke="#191B1D" stroke-miterlimit="10"/>
<path d="M66.7683 131.22C78.8262 131.22 88.601 121.468 88.601 109.439C88.601 97.4092 78.8262 87.6575 66.7683 87.6575C54.7104 87.6575 44.9355 97.4092 44.9355 109.439C44.9355 121.468 54.7104 131.22 66.7683 131.22Z" stroke="#191B1D" stroke-miterlimit="10"/>
<path d="M69.6452 106.569H63.8926L64.851 100.83H68.6868L69.6452 106.569Z" stroke="#191B1D" stroke-miterlimit="10"/>
<path d="M69.6452 123.786H63.8926L64.851 118.047H68.6868L69.6452 123.786Z" stroke="#191B1D" stroke-miterlimit="10"/>
<path d="M63.8926 95.0908H69.6452L68.6868 100.83H64.851L63.8926 95.0908Z" stroke="#191B1D" stroke-miterlimit="10"/>
<path d="M63.8926 112.308H69.6452L68.6868 118.047H64.851L63.8926 112.308Z" stroke="#191B1D" stroke-miterlimit="10"/>
<path d="M69.6445 112.308V106.569L75.3972 107.525V111.351L69.6445 112.308Z" stroke="#191B1D" stroke-miterlimit="10"/>
<path d="M52.3867 112.308V106.569L58.1394 107.525V111.351L52.3867 112.308Z" stroke="#191B1D" stroke-miterlimit="10"/>
<path d="M63.8913 106.569V112.308L58.1387 111.351V107.525L63.8913 106.569Z" stroke="#191B1D" stroke-miterlimit="10"/>
<path d="M81.1492 106.569V112.308L75.3965 111.351V107.525L81.1492 106.569Z" stroke="#191B1D" stroke-miterlimit="10"/>
<path d="M69.6445 95.0908C69.6445 103.699 72.5209 106.569 81.1499 106.569" stroke="#191B1D" stroke-miterlimit="10"/>
<path d="M81.1499 112.308C72.5209 112.308 69.6445 115.178 69.6445 123.786" stroke="#191B1D" stroke-miterlimit="10"/>
<path d="M63.8921 123.786C63.8921 115.178 61.0157 112.308 52.3867 112.308" stroke="#191B1D" stroke-miterlimit="10"/>
<path d="M52.3867 106.569C61.0157 106.569 63.8921 103.699 63.8921 95.0908" stroke="#191B1D" stroke-miterlimit="10"/>
<path d="M56.0059 120.176L61.1107 115.083" stroke="#191B1D" stroke-miterlimit="10"/>
<path d="M72.4277 103.793L77.5325 98.7007" stroke="#191B1D" stroke-miterlimit="10"/>
<path d="M56.0059 98.7007L61.1107 103.793" stroke="#191B1D" stroke-miterlimit="10"/>
<path d="M72.4277 115.083L77.5325 120.176" stroke="#191B1D" stroke-miterlimit="10"/>
<path d="M22.3679 174.781C34.4258 174.781 44.2006 165.029 44.2006 153C44.2006 140.97 34.4258 131.219 22.3679 131.219C10.31 131.219 0.535156 140.97 0.535156 153C0.535156 165.029 10.31 174.781 22.3679 174.781Z" stroke="#191B1D" stroke-miterlimit="10"/>
<path d="M25.2449 150.13H19.4922L20.4506 144.391H24.2854L25.2449 150.13Z" stroke="#191B1D" stroke-miterlimit="10"/>
<path d="M25.2449 167.347H19.4922L20.4506 161.608H24.2854L25.2449 167.347Z" stroke="#191B1D" stroke-miterlimit="10"/>
<path d="M19.4922 138.652H25.2449L24.2854 144.391H20.4506L19.4922 138.652Z" stroke="#191B1D" stroke-miterlimit="10"/>
<path d="M19.4922 155.869H25.2449L24.2854 161.608H20.4506L19.4922 155.869Z" stroke="#191B1D" stroke-miterlimit="10"/>
<path d="M25.2441 155.869V150.13L30.9968 151.087V154.913L25.2441 155.869Z" stroke="#191B1D" stroke-miterlimit="10"/>
<path d="M7.98633 155.869V150.13L13.739 151.087V154.913L7.98633 155.869Z" stroke="#191B1D" stroke-miterlimit="10"/>
<path d="M19.4909 150.13V155.869L13.7383 154.913V151.087L19.4909 150.13Z" stroke="#191B1D" stroke-miterlimit="10"/>
<path d="M36.7488 150.13V155.869L30.9961 154.913V151.087L36.7488 150.13Z" stroke="#191B1D" stroke-miterlimit="10"/>
<path d="M25.2441 138.652C25.2441 147.26 28.1205 150.13 36.7495 150.13" stroke="#191B1D" stroke-miterlimit="10"/>
<path d="M36.7495 155.869C28.1205 155.869 25.2441 158.739 25.2441 167.347" stroke="#191B1D" stroke-miterlimit="10"/>
<path d="M19.4917 167.347C19.4917 158.739 16.6153 155.869 7.98633 155.869" stroke="#191B1D" stroke-miterlimit="10"/>
<path d="M7.98633 150.13C16.6153 150.13 19.4917 147.26 19.4917 138.652" stroke="#191B1D" stroke-miterlimit="10"/>
<path d="M11.6035 163.738L16.7094 158.645" stroke="#191B1D" stroke-miterlimit="10"/>
<path d="M28.0254 147.354L33.1302 142.262" stroke="#191B1D" stroke-miterlimit="10"/>
<path d="M11.6035 142.262L16.7094 147.354" stroke="#191B1D" stroke-miterlimit="10"/>
<path d="M28.0254 158.645L33.1302 163.738" stroke="#191B1D" stroke-miterlimit="10"/>
<path d="M66.7683 218.343C78.8262 218.343 88.601 208.591 88.601 196.562C88.601 184.532 78.8262 174.781 66.7683 174.781C54.7104 174.781 44.9355 184.532 44.9355 196.562C44.9355 208.591 54.7104 218.343 66.7683 218.343Z" stroke="#191B1D" stroke-miterlimit="10"/>
<path d="M69.6452 193.692H63.8926L64.851 187.953H68.6868L69.6452 193.692Z" stroke="#191B1D" stroke-miterlimit="10"/>
<path d="M69.6452 210.909H63.8926L64.851 205.17H68.6868L69.6452 210.909Z" stroke="#191B1D" stroke-miterlimit="10"/>
<path d="M63.8926 182.214H69.6452L68.6868 187.953H64.851L63.8926 182.214Z" stroke="#191B1D" stroke-miterlimit="10"/>
<path d="M63.8926 199.431H69.6452L68.6868 205.17H64.851L63.8926 199.431Z" stroke="#191B1D" stroke-miterlimit="10"/>
<path d="M69.6445 199.431V193.692L75.3972 194.648V198.474L69.6445 199.431Z" stroke="#191B1D" stroke-miterlimit="10"/>
<path d="M52.3867 199.431V193.692L58.1394 194.648V198.474L52.3867 199.431Z" stroke="#191B1D" stroke-miterlimit="10"/>
<path d="M63.8913 193.692V199.431L58.1387 198.474V194.648L63.8913 193.692Z" stroke="#191B1D" stroke-miterlimit="10"/>
<path d="M81.1492 193.692V199.431L75.3965 198.474V194.648L81.1492 193.692Z" stroke="#191B1D" stroke-miterlimit="10"/>
<path d="M69.6445 182.214C69.6445 190.822 72.5209 193.692 81.1499 193.692" stroke="#191B1D" stroke-miterlimit="10"/>
<path d="M81.1499 199.431C72.5209 199.431 69.6445 202.301 69.6445 210.909" stroke="#191B1D" stroke-miterlimit="10"/>
<path d="M63.8921 210.909C63.8921 202.301 61.0157 199.431 52.3867 199.431" stroke="#191B1D" stroke-miterlimit="10"/>
<path d="M52.3867 193.692C61.0157 193.692 63.8921 190.822 63.8921 182.214" stroke="#191B1D" stroke-miterlimit="10"/>
<path d="M56.0059 207.299L61.1107 202.207" stroke="#191B1D" stroke-miterlimit="10"/>
<path d="M72.4277 190.916L77.5325 185.824" stroke="#191B1D" stroke-miterlimit="10"/>
<path d="M56.0059 185.824L61.1107 190.916" stroke="#191B1D" stroke-miterlimit="10"/>
<path d="M72.4277 202.207L77.5325 207.299" stroke="#191B1D" stroke-miterlimit="10"/>
<path d="M22.3679 261.904C34.4258 261.904 44.2006 252.152 44.2006 240.123C44.2006 228.093 34.4258 218.342 22.3679 218.342C10.31 218.342 0.535156 228.093 0.535156 240.123C0.535156 252.152 10.31 261.904 22.3679 261.904Z" stroke="#191B1D" stroke-miterlimit="10"/>
<path d="M25.2449 237.253H19.4922L20.4506 231.514H24.2854L25.2449 237.253Z" stroke="#191B1D" stroke-miterlimit="10"/>
<path d="M25.2449 254.47H19.4922L20.4506 248.731H24.2854L25.2449 254.47Z" stroke="#191B1D" stroke-miterlimit="10"/>
<path d="M19.4922 225.775H25.2449L24.2854 231.514H20.4506L19.4922 225.775Z" stroke="#191B1D" stroke-miterlimit="10"/>
<path d="M19.4922 242.992H25.2449L24.2854 248.731H20.4506L19.4922 242.992Z" stroke="#191B1D" stroke-miterlimit="10"/>
<path d="M25.2441 242.992V237.253L30.9968 238.21V242.036L25.2441 242.992Z" stroke="#191B1D" stroke-miterlimit="10"/>
<path d="M7.98633 242.992V237.253L13.739 238.21V242.036L7.98633 242.992Z" stroke="#191B1D" stroke-miterlimit="10"/>
<path d="M19.4909 237.253V242.992L13.7383 242.036V238.21L19.4909 237.253Z" stroke="#191B1D" stroke-miterlimit="10"/>
<path d="M36.7488 237.253V242.992L30.9961 242.036V238.21L36.7488 237.253Z" stroke="#191B1D" stroke-miterlimit="10"/>
<path d="M25.2441 225.775C25.2441 234.383 28.1205 237.253 36.7495 237.253" stroke="#191B1D" stroke-miterlimit="10"/>
<path d="M36.7495 242.992C28.1205 242.992 25.2441 245.862 25.2441 254.47" stroke="#191B1D" stroke-miterlimit="10"/>
<path d="M19.4917 254.47C19.4917 245.862 16.6153 242.992 7.98633 242.992" stroke="#191B1D" stroke-miterlimit="10"/>
<path d="M7.98633 237.253C16.6153 237.253 19.4917 234.383 19.4917 225.775" stroke="#191B1D" stroke-miterlimit="10"/>
<path d="M11.6035 250.861L16.7094 245.768" stroke="#191B1D" stroke-miterlimit="10"/>
<path d="M28.0254 234.477L33.1302 229.385" stroke="#191B1D" stroke-miterlimit="10"/>
<path d="M11.6035 229.385L16.7094 234.477" stroke="#191B1D" stroke-miterlimit="10"/>
<path d="M28.0254 245.768L33.1302 250.861" stroke="#191B1D" stroke-miterlimit="10"/>
<path d="M66.7683 305.466C78.8262 305.466 88.601 295.714 88.601 283.685C88.601 271.656 78.8262 261.904 66.7683 261.904C54.7104 261.904 44.9355 271.656 44.9355 283.685C44.9355 295.714 54.7104 305.466 66.7683 305.466Z" stroke="#191B1D" stroke-miterlimit="10"/>
<path d="M69.6452 280.815H63.8926L64.851 275.076H68.6868L69.6452 280.815Z" stroke="#191B1D" stroke-miterlimit="10"/>
<path d="M69.6452 298.033H63.8926L64.851 292.293H68.6868L69.6452 298.033Z" stroke="#191B1D" stroke-miterlimit="10"/>
<path d="M63.8926 269.337H69.6452L68.6868 275.076H64.851L63.8926 269.337Z" stroke="#191B1D" stroke-miterlimit="10"/>
<path d="M63.8926 286.554H69.6452L68.6868 292.294H64.851L63.8926 286.554Z" stroke="#191B1D" stroke-miterlimit="10"/>
<path d="M69.6445 286.554V280.815L75.3972 281.771V285.597L69.6445 286.554Z" stroke="#191B1D" stroke-miterlimit="10"/>
<path d="M52.3867 286.554V280.815L58.1394 281.771V285.597L52.3867 286.554Z" stroke="#191B1D" stroke-miterlimit="10"/>
<path d="M63.8913 280.815V286.554L58.1387 285.597V281.771L63.8913 280.815Z" stroke="#191B1D" stroke-miterlimit="10"/>
<path d="M81.1492 280.815V286.554L75.3965 285.597V281.771L81.1492 280.815Z" stroke="#191B1D" stroke-miterlimit="10"/>
<path d="M69.6445 269.337C69.6445 277.946 72.5209 280.815 81.1499 280.815" stroke="#191B1D" stroke-miterlimit="10"/>
<path d="M81.1499 286.554C72.5209 286.554 69.6445 289.424 69.6445 298.033" stroke="#191B1D" stroke-miterlimit="10"/>
<path d="M63.8921 298.033C63.8921 289.424 61.0157 286.554 52.3867 286.554" stroke="#191B1D" stroke-miterlimit="10"/>
<path d="M52.3867 280.815C61.0157 280.815 63.8921 277.946 63.8921 269.337" stroke="#191B1D" stroke-miterlimit="10"/>
<path d="M56.0059 294.423L61.1107 289.33" stroke="#191B1D" stroke-miterlimit="10"/>
<path d="M72.4277 278.04L77.5325 272.947" stroke="#191B1D" stroke-miterlimit="10"/>
<path d="M56.0059 272.947L61.1107 278.04" stroke="#191B1D" stroke-miterlimit="10"/>
<path d="M72.4277 289.33L77.5325 294.423" stroke="#191B1D" stroke-miterlimit="10"/>
<path d="M154.823 44.0963C166.881 44.0963 176.656 34.3446 176.656 22.3152C176.656 10.2859 166.881 0.53418 154.823 0.53418C142.765 0.53418 132.99 10.2859 132.99 22.3152C132.99 34.3446 142.765 44.0963 154.823 44.0963Z" stroke="#191B1D" stroke-miterlimit="10"/>
<path d="M157.7 19.4456H151.947L152.906 13.7065H156.742L157.7 19.4456Z" stroke="#191B1D" stroke-miterlimit="10"/>
<path d="M157.7 36.6629H151.947L152.906 30.9238H156.742L157.7 36.6629Z" stroke="#191B1D" stroke-miterlimit="10"/>
<path d="M151.947 7.96753H157.7L156.742 13.7066H152.906L151.947 7.96753Z" stroke="#191B1D" stroke-miterlimit="10"/>
<path d="M151.947 25.1848H157.7L156.742 30.9239H152.906L151.947 25.1848Z" stroke="#191B1D" stroke-miterlimit="10"/>
<path d="M157.699 25.1846V19.4456L163.452 20.4017V24.2274L157.699 25.1846Z" stroke="#191B1D" stroke-miterlimit="10"/>
<path d="M140.441 25.1846V19.4456L146.194 20.4017V24.2274L140.441 25.1846Z" stroke="#191B1D" stroke-miterlimit="10"/>
<path d="M151.946 19.4456V25.1846L146.193 24.2274V20.4017L151.946 19.4456Z" stroke="#191B1D" stroke-miterlimit="10"/>
<path d="M169.204 19.4456V25.1846L163.451 24.2274V20.4017L169.204 19.4456Z" stroke="#191B1D" stroke-miterlimit="10"/>
<path d="M157.699 7.96753C157.699 16.5761 160.576 19.4456 169.205 19.4456" stroke="#191B1D" stroke-miterlimit="10"/>
<path d="M169.205 25.1848C160.576 25.1848 157.699 28.0543 157.699 36.6629" stroke="#191B1D" stroke-miterlimit="10"/>
<path d="M151.947 36.6629C151.947 28.0543 149.07 25.1848 140.441 25.1848" stroke="#191B1D" stroke-miterlimit="10"/>
<path d="M140.441 19.4456C149.07 19.4456 151.947 16.5761 151.947 7.96753" stroke="#191B1D" stroke-miterlimit="10"/>
<path d="M144.061 33.0529L149.165 27.9602" stroke="#191B1D" stroke-miterlimit="10"/>
<path d="M160.482 16.6702L165.587 11.5764" stroke="#191B1D" stroke-miterlimit="10"/>
<path d="M144.061 11.5764L149.165 16.6702" stroke="#191B1D" stroke-miterlimit="10"/>
<path d="M160.482 27.9602L165.587 33.0529" stroke="#191B1D" stroke-miterlimit="10"/>
<path d="M110.423 87.6573C122.48 87.6573 132.255 77.9056 132.255 65.8763C132.255 53.8469 122.48 44.0952 110.423 44.0952C98.3647 44.0952 88.5898 53.8469 88.5898 65.8763C88.5898 77.9056 98.3647 87.6573 110.423 87.6573Z" stroke="#191B1D" stroke-miterlimit="10"/>
<path d="M113.3 63.0066H107.547L108.505 57.2676H112.341L113.3 63.0066Z" stroke="#191B1D" stroke-miterlimit="10"/>
<path d="M113.3 80.2239H107.547L108.505 74.4849H112.341L113.3 80.2239Z" stroke="#191B1D" stroke-miterlimit="10"/>
<path d="M107.547 51.5286H113.3L112.341 57.2676H108.505L107.547 51.5286Z" stroke="#191B1D" stroke-miterlimit="10"/>
<path d="M107.547 68.7458H113.3L112.341 74.4849H108.505L107.547 68.7458Z" stroke="#191B1D" stroke-miterlimit="10"/>
<path d="M113.299 68.7456V63.0066L119.051 63.9638V67.7895L113.299 68.7456Z" stroke="#191B1D" stroke-miterlimit="10"/>
<path d="M96.041 68.7456V63.0066L101.794 63.9638V67.7895L96.041 68.7456Z" stroke="#191B1D" stroke-miterlimit="10"/>
<path d="M107.546 63.0066V68.7456L101.793 67.7895V63.9638L107.546 63.0066Z" stroke="#191B1D" stroke-miterlimit="10"/>
<path d="M124.803 63.0066V68.7456L119.051 67.7895V63.9638L124.803 63.0066Z" stroke="#191B1D" stroke-miterlimit="10"/>
<path d="M113.299 51.5286C113.299 60.1371 116.175 63.0067 124.804 63.0067" stroke="#191B1D" stroke-miterlimit="10"/>
<path d="M124.804 68.7458C116.175 68.7458 113.299 71.6154 113.299 80.224" stroke="#191B1D" stroke-miterlimit="10"/>
<path d="M107.546 80.224C107.546 71.6154 104.67 68.7458 96.041 68.7458" stroke="#191B1D" stroke-miterlimit="10"/>
<path d="M96.041 63.0067C104.67 63.0067 107.546 60.1371 107.546 51.5286" stroke="#191B1D" stroke-miterlimit="10"/>
<path d="M99.6602 76.615L104.765 71.5212" stroke="#191B1D" stroke-miterlimit="10"/>
<path d="M116.082 60.2311L121.187 55.1384" stroke="#191B1D" stroke-miterlimit="10"/>
<path d="M99.6602 55.1384L104.765 60.2311" stroke="#191B1D" stroke-miterlimit="10"/>
<path d="M116.082 71.5212L121.187 76.615" stroke="#191B1D" stroke-miterlimit="10"/>
<path d="M154.823 131.22C166.881 131.22 176.656 121.468 176.656 109.439C176.656 97.4092 166.881 87.6575 154.823 87.6575C142.765 87.6575 132.99 97.4092 132.99 109.439C132.99 121.468 142.765 131.22 154.823 131.22Z" stroke="#191B1D" stroke-miterlimit="10"/>
<path d="M157.7 106.569H151.947L152.906 100.83H156.742L157.7 106.569Z" stroke="#191B1D" stroke-miterlimit="10"/>
<path d="M157.7 123.786H151.947L152.906 118.047H156.742L157.7 123.786Z" stroke="#191B1D" stroke-miterlimit="10"/>
<path d="M151.947 95.0908H157.7L156.742 100.83H152.906L151.947 95.0908Z" stroke="#191B1D" stroke-miterlimit="10"/>
<path d="M151.947 112.308H157.7L156.742 118.047H152.906L151.947 112.308Z" stroke="#191B1D" stroke-miterlimit="10"/>
<path d="M157.699 112.308V106.569L163.452 107.525V111.351L157.699 112.308Z" stroke="#191B1D" stroke-miterlimit="10"/>
<path d="M140.441 112.308V106.569L146.194 107.525V111.351L140.441 112.308Z" stroke="#191B1D" stroke-miterlimit="10"/>
<path d="M151.946 106.569V112.308L146.193 111.351V107.525L151.946 106.569Z" stroke="#191B1D" stroke-miterlimit="10"/>
<path d="M169.204 106.569V112.308L163.451 111.351V107.525L169.204 106.569Z" stroke="#191B1D" stroke-miterlimit="10"/>
<path d="M157.699 95.0908C157.699 103.699 160.576 106.569 169.205 106.569" stroke="#191B1D" stroke-miterlimit="10"/>
<path d="M169.205 112.308C160.576 112.308 157.699 115.178 157.699 123.786" stroke="#191B1D" stroke-miterlimit="10"/>
<path d="M151.947 123.786C151.947 115.178 149.07 112.308 140.441 112.308" stroke="#191B1D" stroke-miterlimit="10"/>
<path d="M140.441 106.569C149.07 106.569 151.947 103.699 151.947 95.0908" stroke="#191B1D" stroke-miterlimit="10"/>
<path d="M144.061 120.176L149.165 115.083" stroke="#191B1D" stroke-miterlimit="10"/>
<path d="M160.482 103.793L165.587 98.7007" stroke="#191B1D" stroke-miterlimit="10"/>
<path d="M144.061 98.7007L149.165 103.793" stroke="#191B1D" stroke-miterlimit="10"/>
<path d="M160.482 115.083L165.587 120.176" stroke="#191B1D" stroke-miterlimit="10"/>
<path d="M110.423 174.781C122.48 174.781 132.255 165.029 132.255 153C132.255 140.97 122.48 131.219 110.423 131.219C98.3647 131.219 88.5898 140.97 88.5898 153C88.5898 165.029 98.3647 174.781 110.423 174.781Z" stroke="#191B1D" stroke-miterlimit="10"/>
<path d="M113.3 150.13H107.547L108.505 144.391H112.341L113.3 150.13Z" stroke="#191B1D" stroke-miterlimit="10"/>
<path d="M113.3 167.347H107.547L108.505 161.608H112.341L113.3 167.347Z" stroke="#191B1D" stroke-miterlimit="10"/>
<path d="M107.547 138.652H113.3L112.341 144.391H108.505L107.547 138.652Z" stroke="#191B1D" stroke-miterlimit="10"/>
<path d="M107.547 155.869H113.3L112.341 161.608H108.505L107.547 155.869Z" stroke="#191B1D" stroke-miterlimit="10"/>
<path d="M113.299 155.869V150.13L119.051 151.087V154.913L113.299 155.869Z" stroke="#191B1D" stroke-miterlimit="10"/>
<path d="M96.041 155.869V150.13L101.794 151.087V154.913L96.041 155.869Z" stroke="#191B1D" stroke-miterlimit="10"/>
<path d="M107.546 150.13V155.869L101.793 154.913V151.087L107.546 150.13Z" stroke="#191B1D" stroke-miterlimit="10"/>
<path d="M124.803 150.13V155.869L119.051 154.913V151.087L124.803 150.13Z" stroke="#191B1D" stroke-miterlimit="10"/>
<path d="M113.299 138.652C113.299 147.26 116.175 150.13 124.804 150.13" stroke="#191B1D" stroke-miterlimit="10"/>
<path d="M124.804 155.869C116.175 155.869 113.299 158.739 113.299 167.347" stroke="#191B1D" stroke-miterlimit="10"/>
<path d="M107.546 167.347C107.546 158.739 104.67 155.869 96.041 155.869" stroke="#191B1D" stroke-miterlimit="10"/>
<path d="M96.041 150.13C104.67 150.13 107.546 147.26 107.546 138.652" stroke="#191B1D" stroke-miterlimit="10"/>
<path d="M99.6602 163.738L104.765 158.645" stroke="#191B1D" stroke-miterlimit="10"/>
<path d="M116.082 147.354L121.187 142.262" stroke="#191B1D" stroke-miterlimit="10"/>
<path d="M99.6602 142.262L104.765 147.354" stroke="#191B1D" stroke-miterlimit="10"/>
<path d="M116.082 158.645L121.187 163.738" stroke="#191B1D" stroke-miterlimit="10"/>
<path d="M154.823 218.343C166.881 218.343 176.656 208.591 176.656 196.562C176.656 184.532 166.881 174.781 154.823 174.781C142.765 174.781 132.99 184.532 132.99 196.562C132.99 208.591 142.765 218.343 154.823 218.343Z" stroke="#191B1D" stroke-miterlimit="10"/>
<path d="M157.7 193.692H151.947L152.906 187.953H156.742L157.7 193.692Z" stroke="#191B1D" stroke-miterlimit="10"/>
<path d="M157.7 210.909H151.947L152.906 205.17H156.742L157.7 210.909Z" stroke="#191B1D" stroke-miterlimit="10"/>
<path d="M151.947 182.214H157.7L156.742 187.953H152.906L151.947 182.214Z" stroke="#191B1D" stroke-miterlimit="10"/>
<path d="M151.947 199.431H157.7L156.742 205.17H152.906L151.947 199.431Z" stroke="#191B1D" stroke-miterlimit="10"/>
<path d="M157.699 199.431V193.692L163.452 194.648V198.474L157.699 199.431Z" stroke="#191B1D" stroke-miterlimit="10"/>
<path d="M140.441 199.431V193.692L146.194 194.648V198.474L140.441 199.431Z" stroke="#191B1D" stroke-miterlimit="10"/>
<path d="M151.946 193.692V199.431L146.193 198.474V194.648L151.946 193.692Z" stroke="#191B1D" stroke-miterlimit="10"/>
<path d="M169.204 193.692V199.431L163.451 198.474V194.648L169.204 193.692Z" stroke="#191B1D" stroke-miterlimit="10"/>
<path d="M157.699 182.214C157.699 190.822 160.576 193.692 169.205 193.692" stroke="#191B1D" stroke-miterlimit="10"/>
<path d="M169.205 199.431C160.576 199.431 157.699 202.301 157.699 210.909" stroke="#191B1D" stroke-miterlimit="10"/>
<path d="M151.947 210.909C151.947 202.301 149.07 199.431 140.441 199.431" stroke="#191B1D" stroke-miterlimit="10"/>
<path d="M140.441 193.692C149.07 193.692 151.947 190.822 151.947 182.214" stroke="#191B1D" stroke-miterlimit="10"/>
<path d="M144.061 207.299L149.165 202.207" stroke="#191B1D" stroke-miterlimit="10"/>
<path d="M160.482 190.916L165.587 185.824" stroke="#191B1D" stroke-miterlimit="10"/>
<path d="M144.061 185.824L149.165 190.916" stroke="#191B1D" stroke-miterlimit="10"/>
<path d="M160.482 202.207L165.587 207.299" stroke="#191B1D" stroke-miterlimit="10"/>
<path d="M110.423 261.904C122.48 261.904 132.255 252.152 132.255 240.123C132.255 228.093 122.48 218.342 110.423 218.342C98.3647 218.342 88.5898 228.093 88.5898 240.123C88.5898 252.152 98.3647 261.904 110.423 261.904Z" stroke="#191B1D" stroke-miterlimit="10"/>
<path d="M113.3 237.253H107.547L108.505 231.514H112.341L113.3 237.253Z" stroke="#191B1D" stroke-miterlimit="10"/>
<path d="M113.3 254.47H107.547L108.505 248.731H112.341L113.3 254.47Z" stroke="#191B1D" stroke-miterlimit="10"/>
<path d="M107.547 225.775H113.3L112.341 231.514H108.505L107.547 225.775Z" stroke="#191B1D" stroke-miterlimit="10"/>
<path d="M107.547 242.992H113.3L112.341 248.731H108.505L107.547 242.992Z" stroke="#191B1D" stroke-miterlimit="10"/>
<path d="M113.299 242.992V237.253L119.051 238.21V242.036L113.299 242.992Z" stroke="#191B1D" stroke-miterlimit="10"/>
<path d="M96.041 242.992V237.253L101.794 238.21V242.036L96.041 242.992Z" stroke="#191B1D" stroke-miterlimit="10"/>
<path d="M107.546 237.253V242.992L101.793 242.036V238.21L107.546 237.253Z" stroke="#191B1D" stroke-miterlimit="10"/>
<path d="M124.803 237.253V242.992L119.051 242.036V238.21L124.803 237.253Z" stroke="#191B1D" stroke-miterlimit="10"/>
<path d="M113.299 225.775C113.299 234.383 116.175 237.253 124.804 237.253" stroke="#191B1D" stroke-miterlimit="10"/>
<path d="M124.804 242.992C116.175 242.992 113.299 245.862 113.299 254.47" stroke="#191B1D" stroke-miterlimit="10"/>
<path d="M107.546 254.47C107.546 245.862 104.67 242.992 96.041 242.992" stroke="#191B1D" stroke-miterlimit="10"/>
<path d="M96.041 237.253C104.67 237.253 107.546 234.383 107.546 225.775" stroke="#191B1D" stroke-miterlimit="10"/>
<path d="M99.6602 250.861L104.765 245.768" stroke="#191B1D" stroke-miterlimit="10"/>
<path d="M116.082 234.477L121.187 229.385" stroke="#191B1D" stroke-miterlimit="10"/>
<path d="M99.6602 229.385L104.765 234.477" stroke="#191B1D" stroke-miterlimit="10"/>
<path d="M116.082 245.768L121.187 250.861" stroke="#191B1D" stroke-miterlimit="10"/>
<path d="M154.823 305.466C166.881 305.466 176.656 295.714 176.656 283.685C176.656 271.656 166.881 261.904 154.823 261.904C142.765 261.904 132.99 271.656 132.99 283.685C132.99 295.714 142.765 305.466 154.823 305.466Z" stroke="#191B1D" stroke-miterlimit="10"/>
<path d="M157.7 280.815H151.947L152.906 275.076H156.742L157.7 280.815Z" stroke="#191B1D" stroke-miterlimit="10"/>
<path d="M157.7 298.033H151.947L152.906 292.293H156.742L157.7 298.033Z" stroke="#191B1D" stroke-miterlimit="10"/>
<path d="M151.947 269.337H157.7L156.742 275.076H152.906L151.947 269.337Z" stroke="#191B1D" stroke-miterlimit="10"/>
<path d="M151.947 286.554H157.7L156.742 292.294H152.906L151.947 286.554Z" stroke="#191B1D" stroke-miterlimit="10"/>
<path d="M157.699 286.554V280.815L163.452 281.771V285.597L157.699 286.554Z" stroke="#191B1D" stroke-miterlimit="10"/>
<path d="M140.441 286.554V280.815L146.194 281.771V285.597L140.441 286.554Z" stroke="#191B1D" stroke-miterlimit="10"/>
<path d="M151.946 280.815V286.554L146.193 285.597V281.771L151.946 280.815Z" stroke="#191B1D" stroke-miterlimit="10"/>
<path d="M169.204 280.815V286.554L163.451 285.597V281.771L169.204 280.815Z" stroke="#191B1D" stroke-miterlimit="10"/>
<path d="M157.699 269.337C157.699 277.946 160.576 280.815 169.205 280.815" stroke="#191B1D" stroke-miterlimit="10"/>
<path d="M169.205 286.554C160.576 286.554 157.699 289.424 157.699 298.033" stroke="#191B1D" stroke-miterlimit="10"/>
<path d="M151.947 298.033C151.947 289.424 149.07 286.554 140.441 286.554" stroke="#191B1D" stroke-miterlimit="10"/>
<path d="M140.441 280.815C149.07 280.815 151.947 277.946 151.947 269.337" stroke="#191B1D" stroke-miterlimit="10"/>
<path d="M144.061 294.423L149.165 289.33" stroke="#191B1D" stroke-miterlimit="10"/>
<path d="M160.482 278.04L165.587 272.947" stroke="#191B1D" stroke-miterlimit="10"/>
<path d="M144.061 272.947L149.165 278.04" stroke="#191B1D" stroke-miterlimit="10"/>
<path d="M160.482 289.33L165.587 294.423" stroke="#191B1D" stroke-miterlimit="10"/>
<path d="M243.503 44.0963C255.561 44.0963 265.335 34.3446 265.335 22.3152C265.335 10.2859 255.561 0.53418 243.503 0.53418C231.445 0.53418 221.67 10.2859 221.67 22.3152C221.67 34.3446 231.445 44.0963 243.503 44.0963Z" stroke="#191B1D" stroke-miterlimit="10"/>
<path d="M246.38 19.4456H240.627L241.585 13.7065H245.42L246.38 19.4456Z" stroke="#191B1D" stroke-miterlimit="10"/>
<path d="M246.38 36.6629H240.627L241.585 30.9238H245.42L246.38 36.6629Z" stroke="#191B1D" stroke-miterlimit="10"/>
<path d="M240.627 7.96753H246.38L245.42 13.7066H241.585L240.627 7.96753Z" stroke="#191B1D" stroke-miterlimit="10"/>
<path d="M240.627 25.1848H246.38L245.42 30.9239H241.585L240.627 25.1848Z" stroke="#191B1D" stroke-miterlimit="10"/>
<path d="M246.379 25.1846V19.4456L252.132 20.4017V24.2274L246.379 25.1846Z" stroke="#191B1D" stroke-miterlimit="10"/>
<path d="M229.121 25.1846V19.4456L234.874 20.4017V24.2274L229.121 25.1846Z" stroke="#191B1D" stroke-miterlimit="10"/>
<path d="M240.626 19.4456V25.1846L234.873 24.2274V20.4017L240.626 19.4456Z" stroke="#191B1D" stroke-miterlimit="10"/>
<path d="M257.884 19.4456V25.1846L252.131 24.2274V20.4017L257.884 19.4456Z" stroke="#191B1D" stroke-miterlimit="10"/>
<path d="M246.379 7.96753C246.379 16.5761 249.255 19.4456 257.884 19.4456" stroke="#191B1D" stroke-miterlimit="10"/>
<path d="M257.884 25.1848C249.255 25.1848 246.379 28.0543 246.379 36.6629" stroke="#191B1D" stroke-miterlimit="10"/>
<path d="M240.626 36.6629C240.626 28.0543 237.75 25.1848 229.121 25.1848" stroke="#191B1D" stroke-miterlimit="10"/>
<path d="M229.121 19.4456C237.75 19.4456 240.626 16.5761 240.626 7.96753" stroke="#191B1D" stroke-miterlimit="10"/>
<path d="M232.74 33.0529L237.845 27.9602" stroke="#191B1D" stroke-miterlimit="10"/>
<path d="M249.162 16.6702L254.267 11.5764" stroke="#191B1D" stroke-miterlimit="10"/>
<path d="M232.74 11.5764L237.845 16.6702" stroke="#191B1D" stroke-miterlimit="10"/>
<path d="M249.162 27.9602L254.267 33.0529" stroke="#191B1D" stroke-miterlimit="10"/>
<path d="M199.102 87.6573C211.16 87.6573 220.935 77.9056 220.935 65.8763C220.935 53.8469 211.16 44.0952 199.102 44.0952C187.044 44.0952 177.27 53.8469 177.27 65.8763C177.27 77.9056 187.044 87.6573 199.102 87.6573Z" stroke="#191B1D" stroke-miterlimit="10"/>
<path d="M201.979 63.0066H196.227L197.185 57.2676H201.02L201.979 63.0066Z" stroke="#191B1D" stroke-miterlimit="10"/>
<path d="M201.979 80.2239H196.227L197.185 74.4849H201.02L201.979 80.2239Z" stroke="#191B1D" stroke-miterlimit="10"/>
<path d="M196.227 51.5286H201.979L201.02 57.2676H197.185L196.227 51.5286Z" stroke="#191B1D" stroke-miterlimit="10"/>
<path d="M196.227 68.7458H201.979L201.02 74.4849H197.185L196.227 68.7458Z" stroke="#191B1D" stroke-miterlimit="10"/>
<path d="M201.979 68.7456V63.0066L207.731 63.9638V67.7895L201.979 68.7456Z" stroke="#191B1D" stroke-miterlimit="10"/>
<path d="M184.721 68.7456V63.0066L190.473 63.9638V67.7895L184.721 68.7456Z" stroke="#191B1D" stroke-miterlimit="10"/>
<path d="M196.225 63.0066V68.7456L190.473 67.7895V63.9638L196.225 63.0066Z" stroke="#191B1D" stroke-miterlimit="10"/>
<path d="M213.483 63.0066V68.7456L207.73 67.7895V63.9638L213.483 63.0066Z" stroke="#191B1D" stroke-miterlimit="10"/>
<path d="M201.979 51.5286C201.979 60.1371 204.855 63.0067 213.484 63.0067" stroke="#191B1D" stroke-miterlimit="10"/>
<path d="M213.484 68.7458C204.855 68.7458 201.979 71.6154 201.979 80.224" stroke="#191B1D" stroke-miterlimit="10"/>
<path d="M196.226 80.224C196.226 71.6154 193.35 68.7458 184.721 68.7458" stroke="#191B1D" stroke-miterlimit="10"/>
<path d="M184.721 63.0067C193.35 63.0067 196.226 60.1371 196.226 51.5286" stroke="#191B1D" stroke-miterlimit="10"/>
<path d="M188.338 76.615L193.443 71.5212" stroke="#191B1D" stroke-miterlimit="10"/>
<path d="M204.76 60.2311L209.865 55.1384" stroke="#191B1D" stroke-miterlimit="10"/>
<path d="M188.338 55.1384L193.443 60.2311" stroke="#191B1D" stroke-miterlimit="10"/>
<path d="M204.76 71.5212L209.865 76.615" stroke="#191B1D" stroke-miterlimit="10"/>
<path d="M243.503 131.22C255.561 131.22 265.335 121.468 265.335 109.439C265.335 97.4092 255.561 87.6575 243.503 87.6575C231.445 87.6575 221.67 97.4092 221.67 109.439C221.67 121.468 231.445 131.22 243.503 131.22Z" stroke="#191B1D" stroke-miterlimit="10"/>
<path d="M246.38 106.569H240.627L241.585 100.83H245.42L246.38 106.569Z" stroke="#191B1D" stroke-miterlimit="10"/>
<path d="M246.38 123.786H240.627L241.585 118.047H245.42L246.38 123.786Z" stroke="#191B1D" stroke-miterlimit="10"/>
<path d="M240.627 95.0908H246.38L245.42 100.83H241.585L240.627 95.0908Z" stroke="#191B1D" stroke-miterlimit="10"/>
<path d="M240.627 112.308H246.38L245.42 118.047H241.585L240.627 112.308Z" stroke="#191B1D" stroke-miterlimit="10"/>
<path d="M246.379 112.308V106.569L252.132 107.525V111.351L246.379 112.308Z" stroke="#191B1D" stroke-miterlimit="10"/>
<path d="M229.121 112.308V106.569L234.874 107.525V111.351L229.121 112.308Z" stroke="#191B1D" stroke-miterlimit="10"/>
<path d="M240.626 106.569V112.308L234.873 111.351V107.525L240.626 106.569Z" stroke="#191B1D" stroke-miterlimit="10"/>
<path d="M257.884 106.569V112.308L252.131 111.351V107.525L257.884 106.569Z" stroke="#191B1D" stroke-miterlimit="10"/>
<path d="M246.379 95.0908C246.379 103.699 249.255 106.569 257.884 106.569" stroke="#191B1D" stroke-miterlimit="10"/>
<path d="M257.884 112.308C249.255 112.308 246.379 115.178 246.379 123.786" stroke="#191B1D" stroke-miterlimit="10"/>
<path d="M240.626 123.786C240.626 115.178 237.75 112.308 229.121 112.308" stroke="#191B1D" stroke-miterlimit="10"/>
<path d="M229.121 106.569C237.75 106.569 240.626 103.699 240.626 95.0908" stroke="#191B1D" stroke-miterlimit="10"/>
<path d="M232.74 120.176L237.845 115.083" stroke="#191B1D" stroke-miterlimit="10"/>
<path d="M249.162 103.793L254.267 98.7007" stroke="#191B1D" stroke-miterlimit="10"/>
<path d="M232.74 98.7007L237.845 103.793" stroke="#191B1D" stroke-miterlimit="10"/>
<path d="M249.162 115.083L254.267 120.176" stroke="#191B1D" stroke-miterlimit="10"/>
<path d="M199.102 174.781C211.16 174.781 220.935 165.029 220.935 153C220.935 140.97 211.16 131.219 199.102 131.219C187.044 131.219 177.27 140.97 177.27 153C177.27 165.029 187.044 174.781 199.102 174.781Z" stroke="#191B1D" stroke-miterlimit="10"/>
<path d="M201.979 150.13H196.227L197.185 144.391H201.02L201.979 150.13Z" stroke="#191B1D" stroke-miterlimit="10"/>
<path d="M201.979 167.347H196.227L197.185 161.608H201.02L201.979 167.347Z" stroke="#191B1D" stroke-miterlimit="10"/>
<path d="M196.227 138.652H201.979L201.02 144.391H197.185L196.227 138.652Z" stroke="#191B1D" stroke-miterlimit="10"/>
<path d="M196.227 155.869H201.979L201.02 161.608H197.185L196.227 155.869Z" stroke="#191B1D" stroke-miterlimit="10"/>
<path d="M201.979 155.869V150.13L207.731 151.087V154.913L201.979 155.869Z" stroke="#191B1D" stroke-miterlimit="10"/>
<path d="M184.721 155.869V150.13L190.473 151.087V154.913L184.721 155.869Z" stroke="#191B1D" stroke-miterlimit="10"/>
<path d="M196.225 150.13V155.869L190.473 154.913V151.087L196.225 150.13Z" stroke="#191B1D" stroke-miterlimit="10"/>
<path d="M213.483 150.13V155.869L207.73 154.913V151.087L213.483 150.13Z" stroke="#191B1D" stroke-miterlimit="10"/>
<path d="M201.979 138.652C201.979 147.26 204.855 150.13 213.484 150.13" stroke="#191B1D" stroke-miterlimit="10"/>
<path d="M213.484 155.869C204.855 155.869 201.979 158.739 201.979 167.347" stroke="#191B1D" stroke-miterlimit="10"/>
<path d="M196.226 167.347C196.226 158.739 193.35 155.869 184.721 155.869" stroke="#191B1D" stroke-miterlimit="10"/>
<path d="M184.721 150.13C193.35 150.13 196.226 147.26 196.226 138.652" stroke="#191B1D" stroke-miterlimit="10"/>
<path d="M188.338 163.738L193.443 158.645" stroke="#191B1D" stroke-miterlimit="10"/>
<path d="M204.76 147.354L209.865 142.262" stroke="#191B1D" stroke-miterlimit="10"/>
<path d="M188.338 142.262L193.443 147.354" stroke="#191B1D" stroke-miterlimit="10"/>
<path d="M204.76 158.645L209.865 163.738" stroke="#191B1D" stroke-miterlimit="10"/>
<path d="M243.503 218.343C255.561 218.343 265.335 208.591 265.335 196.562C265.335 184.532 255.561 174.781 243.503 174.781C231.445 174.781 221.67 184.532 221.67 196.562C221.67 208.591 231.445 218.343 243.503 218.343Z" stroke="#191B1D" stroke-miterlimit="10"/>
<path d="M246.38 193.692H240.627L241.585 187.953H245.42L246.38 193.692Z" stroke="#191B1D" stroke-miterlimit="10"/>
<path d="M246.38 210.909H240.627L241.585 205.17H245.42L246.38 210.909Z" stroke="#191B1D" stroke-miterlimit="10"/>
<path d="M240.627 182.214H246.38L245.42 187.953H241.585L240.627 182.214Z" stroke="#191B1D" stroke-miterlimit="10"/>
<path d="M240.627 199.431H246.38L245.42 205.17H241.585L240.627 199.431Z" stroke="#191B1D" stroke-miterlimit="10"/>
<path d="M246.379 199.431V193.692L252.132 194.648V198.474L246.379 199.431Z" stroke="#191B1D" stroke-miterlimit="10"/>
<path d="M229.121 199.431V193.692L234.874 194.648V198.474L229.121 199.431Z" stroke="#191B1D" stroke-miterlimit="10"/>
<path d="M240.626 193.692V199.431L234.873 198.474V194.648L240.626 193.692Z" stroke="#191B1D" stroke-miterlimit="10"/>
<path d="M257.884 193.692V199.431L252.131 198.474V194.648L257.884 193.692Z" stroke="#191B1D" stroke-miterlimit="10"/>
<path d="M246.379 182.214C246.379 190.822 249.255 193.692 257.884 193.692" stroke="#191B1D" stroke-miterlimit="10"/>
<path d="M257.884 199.431C249.255 199.431 246.379 202.301 246.379 210.909" stroke="#191B1D" stroke-miterlimit="10"/>
<path d="M240.626 210.909C240.626 202.301 237.75 199.431 229.121 199.431" stroke="#191B1D" stroke-miterlimit="10"/>
<path d="M229.121 193.692C237.75 193.692 240.626 190.822 240.626 182.214" stroke="#191B1D" stroke-miterlimit="10"/>
<path d="M232.74 207.299L237.845 202.207" stroke="#191B1D" stroke-miterlimit="10"/>
<path d="M249.162 190.916L254.267 185.824" stroke="#191B1D" stroke-miterlimit="10"/>
<path d="M232.74 185.824L237.845 190.916" stroke="#191B1D" stroke-miterlimit="10"/>
<path d="M249.162 202.207L254.267 207.299" stroke="#191B1D" stroke-miterlimit="10"/>
<path d="M199.102 261.904C211.16 261.904 220.935 252.152 220.935 240.123C220.935 228.093 211.16 218.342 199.102 218.342C187.044 218.342 177.27 228.093 177.27 240.123C177.27 252.152 187.044 261.904 199.102 261.904Z" stroke="#191B1D" stroke-miterlimit="10"/>
<path d="M201.979 237.253H196.227L197.185 231.514H201.02L201.979 237.253Z" stroke="#191B1D" stroke-miterlimit="10"/>
<path d="M201.979 254.47H196.227L197.185 248.731H201.02L201.979 254.47Z" stroke="#191B1D" stroke-miterlimit="10"/>
<path d="M196.227 225.775H201.979L201.02 231.514H197.185L196.227 225.775Z" stroke="#191B1D" stroke-miterlimit="10"/>
<path d="M196.227 242.992H201.979L201.02 248.731H197.185L196.227 242.992Z" stroke="#191B1D" stroke-miterlimit="10"/>
<path d="M201.979 242.992V237.253L207.731 238.21V242.036L201.979 242.992Z" stroke="#191B1D" stroke-miterlimit="10"/>
<path d="M184.721 242.992V237.253L190.473 238.21V242.036L184.721 242.992Z" stroke="#191B1D" stroke-miterlimit="10"/>
<path d="M196.225 237.253V242.992L190.473 242.036V238.21L196.225 237.253Z" stroke="#191B1D" stroke-miterlimit="10"/>
<path d="M213.483 237.253V242.992L207.73 242.036V238.21L213.483 237.253Z" stroke="#191B1D" stroke-miterlimit="10"/>
<path d="M201.979 225.775C201.979 234.383 204.855 237.253 213.484 237.253" stroke="#191B1D" stroke-miterlimit="10"/>
<path d="M213.484 242.992C204.855 242.992 201.979 245.862 201.979 254.47" stroke="#191B1D" stroke-miterlimit="10"/>
<path d="M196.226 254.47C196.226 245.862 193.35 242.992 184.721 242.992" stroke="#191B1D" stroke-miterlimit="10"/>
<path d="M184.721 237.253C193.35 237.253 196.226 234.383 196.226 225.775" stroke="#191B1D" stroke-miterlimit="10"/>
<path d="M188.338 250.861L193.443 245.768" stroke="#191B1D" stroke-miterlimit="10"/>
<path d="M204.76 234.477L209.865 229.385" stroke="#191B1D" stroke-miterlimit="10"/>
<path d="M188.338 229.385L193.443 234.477" stroke="#191B1D" stroke-miterlimit="10"/>
<path d="M204.76 245.768L209.865 250.861" stroke="#191B1D" stroke-miterlimit="10"/>
<path d="M243.503 305.466C255.561 305.466 265.335 295.714 265.335 283.685C265.335 271.656 255.561 261.904 243.503 261.904C231.445 261.904 221.67 271.656 221.67 283.685C221.67 295.714 231.445 305.466 243.503 305.466Z" stroke="#191B1D" stroke-miterlimit="10"/>
<path d="M246.38 280.815H240.627L241.585 275.076H245.42L246.38 280.815Z" stroke="#191B1D" stroke-miterlimit="10"/>
<path d="M246.38 298.033H240.627L241.585 292.293H245.42L246.38 298.033Z" stroke="#191B1D" stroke-miterlimit="10"/>
<path d="M240.627 269.337H246.38L245.42 275.076H241.585L240.627 269.337Z" stroke="#191B1D" stroke-miterlimit="10"/>
<path d="M240.627 286.554H246.38L245.42 292.294H241.585L240.627 286.554Z" stroke="#191B1D" stroke-miterlimit="10"/>
<path d="M246.379 286.554V280.815L252.132 281.771V285.597L246.379 286.554Z" stroke="#191B1D" stroke-miterlimit="10"/>
<path d="M229.121 286.554V280.815L234.874 281.771V285.597L229.121 286.554Z" stroke="#191B1D" stroke-miterlimit="10"/>
<path d="M240.626 280.815V286.554L234.873 285.597V281.771L240.626 280.815Z" stroke="#191B1D" stroke-miterlimit="10"/>
<path d="M257.884 280.815V286.554L252.131 285.597V281.771L257.884 280.815Z" stroke="#191B1D" stroke-miterlimit="10"/>
<path d="M246.379 269.337C246.379 277.946 249.255 280.815 257.884 280.815" stroke="#191B1D" stroke-miterlimit="10"/>
<path d="M257.884 286.554C249.255 286.554 246.379 289.424 246.379 298.033" stroke="#191B1D" stroke-miterlimit="10"/>
<path d="M240.626 298.033C240.626 289.424 237.75 286.554 229.121 286.554" stroke="#191B1D" stroke-miterlimit="10"/>
<path d="M229.121 280.815C237.75 280.815 240.626 277.946 240.626 269.337" stroke="#191B1D" stroke-miterlimit="10"/>
<path d="M232.74 294.423L237.845 289.33" stroke="#191B1D" stroke-miterlimit="10"/>
<path d="M249.162 278.04L254.267 272.947" stroke="#191B1D" stroke-miterlimit="10"/>
<path d="M232.74 272.947L237.845 278.04" stroke="#191B1D" stroke-miterlimit="10"/>
<path d="M249.162 289.33L254.267 294.423" stroke="#191B1D" stroke-miterlimit="10"/>
<path d="M331.569 44.0963C343.627 44.0963 353.402 34.3446 353.402 22.3152C353.402 10.2859 343.627 0.53418 331.569 0.53418C319.511 0.53418 309.736 10.2859 309.736 22.3152C309.736 34.3446 319.511 44.0963 331.569 44.0963Z" stroke="#191B1D" stroke-miterlimit="10"/>
<path d="M334.446 19.4456H328.693L329.653 13.7065H333.488L334.446 19.4456Z" stroke="#191B1D" stroke-miterlimit="10"/>
<path d="M334.446 36.6629H328.693L329.653 30.9238H333.488L334.446 36.6629Z" stroke="#191B1D" stroke-miterlimit="10"/>
<path d="M328.693 7.96753H334.446L333.488 13.7066H329.653L328.693 7.96753Z" stroke="#191B1D" stroke-miterlimit="10"/>
<path d="M328.693 25.1848H334.446L333.488 30.9239H329.653L328.693 25.1848Z" stroke="#191B1D" stroke-miterlimit="10"/>
<path d="M334.445 25.1846V19.4456L340.198 20.4017V24.2274L334.445 25.1846Z" stroke="#191B1D" stroke-miterlimit="10"/>
<path d="M317.188 25.1846V19.4456L322.94 20.4017V24.2274L317.188 25.1846Z" stroke="#191B1D" stroke-miterlimit="10"/>
<path d="M328.692 19.4456V25.1846L322.939 24.2274V20.4017L328.692 19.4456Z" stroke="#191B1D" stroke-miterlimit="10"/>
<path d="M345.95 19.4456V25.1846L340.197 24.2274V20.4017L345.95 19.4456Z" stroke="#191B1D" stroke-miterlimit="10"/>
<path d="M334.445 7.96753C334.445 16.5761 337.322 19.4456 345.951 19.4456" stroke="#191B1D" stroke-miterlimit="10"/>
<path d="M345.951 25.1848C337.322 25.1848 334.445 28.0543 334.445 36.6629" stroke="#191B1D" stroke-miterlimit="10"/>
<path d="M328.693 36.6629C328.693 28.0543 325.817 25.1848 317.188 25.1848" stroke="#191B1D" stroke-miterlimit="10"/>
<path d="M317.188 19.4456C325.817 19.4456 328.693 16.5761 328.693 7.96753" stroke="#191B1D" stroke-miterlimit="10"/>
<path d="M320.807 33.0529L325.911 27.9602" stroke="#191B1D" stroke-miterlimit="10"/>
<path d="M337.229 16.6702L342.333 11.5764" stroke="#191B1D" stroke-miterlimit="10"/>
<path d="M320.807 11.5764L325.911 16.6702" stroke="#191B1D" stroke-miterlimit="10"/>
<path d="M337.229 27.9602L342.333 33.0529" stroke="#191B1D" stroke-miterlimit="10"/>
<path d="M287.167 87.6573C299.225 87.6573 308.999 77.9056 308.999 65.8763C308.999 53.8469 299.225 44.0952 287.167 44.0952C275.109 44.0952 265.334 53.8469 265.334 65.8763C265.334 77.9056 275.109 87.6573 287.167 87.6573Z" stroke="#191B1D" stroke-miterlimit="10"/>
<path d="M290.044 63.0066H284.291L285.251 57.2676H289.085L290.044 63.0066Z" stroke="#191B1D" stroke-miterlimit="10"/>
<path d="M290.044 80.2239H284.291L285.251 74.4849H289.085L290.044 80.2239Z" stroke="#191B1D" stroke-miterlimit="10"/>
<path d="M284.291 51.5286H290.044L289.085 57.2676H285.251L284.291 51.5286Z" stroke="#191B1D" stroke-miterlimit="10"/>
<path d="M284.291 68.7458H290.044L289.085 74.4849H285.251L284.291 68.7458Z" stroke="#191B1D" stroke-miterlimit="10"/>
<path d="M290.043 68.7456V63.0066L295.796 63.9638V67.7895L290.043 68.7456Z" stroke="#191B1D" stroke-miterlimit="10"/>
<path d="M272.785 68.7456V63.0066L278.538 63.9638V67.7895L272.785 68.7456Z" stroke="#191B1D" stroke-miterlimit="10"/>
<path d="M284.29 63.0066V68.7456L278.537 67.7895V63.9638L284.29 63.0066Z" stroke="#191B1D" stroke-miterlimit="10"/>
<path d="M301.548 63.0066V68.7456L295.795 67.7895V63.9638L301.548 63.0066Z" stroke="#191B1D" stroke-miterlimit="10"/>
<path d="M290.043 51.5286C290.043 60.1371 292.919 63.0067 301.548 63.0067" stroke="#191B1D" stroke-miterlimit="10"/>
<path d="M301.548 68.7458C292.919 68.7458 290.043 71.6154 290.043 80.224" stroke="#191B1D" stroke-miterlimit="10"/>
<path d="M284.29 80.224C284.29 71.6154 281.414 68.7458 272.785 68.7458" stroke="#191B1D" stroke-miterlimit="10"/>
<path d="M272.785 63.0067C281.414 63.0067 284.29 60.1371 284.29 51.5286" stroke="#191B1D" stroke-miterlimit="10"/>
<path d="M276.404 76.615L281.509 71.5212" stroke="#191B1D" stroke-miterlimit="10"/>
<path d="M292.826 60.2311L297.932 55.1384" stroke="#191B1D" stroke-miterlimit="10"/>
<path d="M276.404 55.1384L281.509 60.2311" stroke="#191B1D" stroke-miterlimit="10"/>
<path d="M292.826 71.5212L297.932 76.615" stroke="#191B1D" stroke-miterlimit="10"/>
<path d="M331.569 131.22C343.627 131.22 353.402 121.468 353.402 109.439C353.402 97.4092 343.627 87.6575 331.569 87.6575C319.511 87.6575 309.736 97.4092 309.736 109.439C309.736 121.468 319.511 131.22 331.569 131.22Z" stroke="#191B1D" stroke-miterlimit="10"/>
<path d="M334.446 106.569H328.693L329.653 100.83H333.488L334.446 106.569Z" stroke="#191B1D" stroke-miterlimit="10"/>
<path d="M334.446 123.786H328.693L329.653 118.047H333.488L334.446 123.786Z" stroke="#191B1D" stroke-miterlimit="10"/>
<path d="M328.693 95.0908H334.446L333.488 100.83H329.653L328.693 95.0908Z" stroke="#191B1D" stroke-miterlimit="10"/>
<path d="M328.693 112.308H334.446L333.488 118.047H329.653L328.693 112.308Z" stroke="#191B1D" stroke-miterlimit="10"/>
<path d="M334.445 112.308V106.569L340.198 107.525V111.351L334.445 112.308Z" stroke="#191B1D" stroke-miterlimit="10"/>
<path d="M317.188 112.308V106.569L322.94 107.525V111.351L317.188 112.308Z" stroke="#191B1D" stroke-miterlimit="10"/>
<path d="M328.692 106.569V112.308L322.939 111.351V107.525L328.692 106.569Z" stroke="#191B1D" stroke-miterlimit="10"/>
<path d="M345.95 106.569V112.308L340.197 111.351V107.525L345.95 106.569Z" stroke="#191B1D" stroke-miterlimit="10"/>
<path d="M334.445 95.0908C334.445 103.699 337.322 106.569 345.951 106.569" stroke="#191B1D" stroke-miterlimit="10"/>
<path d="M345.951 112.308C337.322 112.308 334.445 115.178 334.445 123.786" stroke="#191B1D" stroke-miterlimit="10"/>
<path d="M328.693 123.786C328.693 115.178 325.817 112.308 317.188 112.308" stroke="#191B1D" stroke-miterlimit="10"/>
<path d="M317.188 106.569C325.817 106.569 328.693 103.699 328.693 95.0908" stroke="#191B1D" stroke-miterlimit="10"/>
<path d="M320.807 120.176L325.911 115.083" stroke="#191B1D" stroke-miterlimit="10"/>
<path d="M337.229 103.793L342.333 98.7007" stroke="#191B1D" stroke-miterlimit="10"/>
<path d="M320.807 98.7007L325.911 103.793" stroke="#191B1D" stroke-miterlimit="10"/>
<path d="M337.229 115.083L342.333 120.176" stroke="#191B1D" stroke-miterlimit="10"/>
<path d="M287.167 174.781C299.225 174.781 308.999 165.029 308.999 153C308.999 140.97 299.225 131.219 287.167 131.219C275.109 131.219 265.334 140.97 265.334 153C265.334 165.029 275.109 174.781 287.167 174.781Z" stroke="#191B1D" stroke-miterlimit="10"/>
<path d="M290.044 150.13H284.291L285.251 144.391H289.085L290.044 150.13Z" stroke="#191B1D" stroke-miterlimit="10"/>
<path d="M290.044 167.347H284.291L285.251 161.608H289.085L290.044 167.347Z" stroke="#191B1D" stroke-miterlimit="10"/>
<path d="M284.291 138.652H290.044L289.085 144.391H285.251L284.291 138.652Z" stroke="#191B1D" stroke-miterlimit="10"/>
<path d="M284.291 155.869H290.044L289.085 161.608H285.251L284.291 155.869Z" stroke="#191B1D" stroke-miterlimit="10"/>
<path d="M290.043 155.869V150.13L295.796 151.087V154.913L290.043 155.869Z" stroke="#191B1D" stroke-miterlimit="10"/>
<path d="M272.785 155.869V150.13L278.538 151.087V154.913L272.785 155.869Z" stroke="#191B1D" stroke-miterlimit="10"/>
<path d="M284.29 150.13V155.869L278.537 154.913V151.087L284.29 150.13Z" stroke="#191B1D" stroke-miterlimit="10"/>
<path d="M301.548 150.13V155.869L295.795 154.913V151.087L301.548 150.13Z" stroke="#191B1D" stroke-miterlimit="10"/>
<path d="M290.043 138.652C290.043 147.26 292.919 150.13 301.548 150.13" stroke="#191B1D" stroke-miterlimit="10"/>
<path d="M301.548 155.869C292.919 155.869 290.043 158.739 290.043 167.347" stroke="#191B1D" stroke-miterlimit="10"/>
<path d="M284.29 167.347C284.29 158.739 281.414 155.869 272.785 155.869" stroke="#191B1D" stroke-miterlimit="10"/>
<path d="M272.785 150.13C281.414 150.13 284.29 147.26 284.29 138.652" stroke="#191B1D" stroke-miterlimit="10"/>
<path d="M276.404 163.738L281.509 158.645" stroke="#191B1D" stroke-miterlimit="10"/>
<path d="M292.826 147.354L297.932 142.262" stroke="#191B1D" stroke-miterlimit="10"/>
<path d="M276.404 142.262L281.509 147.354" stroke="#191B1D" stroke-miterlimit="10"/>
<path d="M292.826 158.645L297.932 163.738" stroke="#191B1D" stroke-miterlimit="10"/>
<path d="M331.569 218.343C343.627 218.343 353.402 208.591 353.402 196.562C353.402 184.532 343.627 174.781 331.569 174.781C319.511 174.781 309.736 184.532 309.736 196.562C309.736 208.591 319.511 218.343 331.569 218.343Z" stroke="#191B1D" stroke-miterlimit="10"/>
<path d="M334.446 193.692H328.693L329.653 187.953H333.488L334.446 193.692Z" stroke="#191B1D" stroke-miterlimit="10"/>
<path d="M334.446 210.909H328.693L329.653 205.17H333.488L334.446 210.909Z" stroke="#191B1D" stroke-miterlimit="10"/>
<path d="M328.693 182.214H334.446L333.488 187.953H329.653L328.693 182.214Z" stroke="#191B1D" stroke-miterlimit="10"/>
<path d="M328.693 199.431H334.446L333.488 205.17H329.653L328.693 199.431Z" stroke="#191B1D" stroke-miterlimit="10"/>
<path d="M334.445 199.431V193.692L340.198 194.648V198.474L334.445 199.431Z" stroke="#191B1D" stroke-miterlimit="10"/>
<path d="M317.188 199.431V193.692L322.94 194.648V198.474L317.188 199.431Z" stroke="#191B1D" stroke-miterlimit="10"/>
<path d="M328.692 193.692V199.431L322.939 198.474V194.648L328.692 193.692Z" stroke="#191B1D" stroke-miterlimit="10"/>
<path d="M345.95 193.692V199.431L340.197 198.474V194.648L345.95 193.692Z" stroke="#191B1D" stroke-miterlimit="10"/>
<path d="M334.445 182.214C334.445 190.822 337.322 193.692 345.951 193.692" stroke="#191B1D" stroke-miterlimit="10"/>
<path d="M345.951 199.431C337.322 199.431 334.445 202.301 334.445 210.909" stroke="#191B1D" stroke-miterlimit="10"/>
<path d="M328.693 210.909C328.693 202.301 325.817 199.431 317.188 199.431" stroke="#191B1D" stroke-miterlimit="10"/>
<path d="M317.188 193.692C325.817 193.692 328.693 190.822 328.693 182.214" stroke="#191B1D" stroke-miterlimit="10"/>
<path d="M320.807 207.299L325.911 202.207" stroke="#191B1D" stroke-miterlimit="10"/>
<path d="M337.229 190.916L342.333 185.824" stroke="#191B1D" stroke-miterlimit="10"/>
<path d="M320.807 185.824L325.911 190.916" stroke="#191B1D" stroke-miterlimit="10"/>
<path d="M337.229 202.207L342.333 207.299" stroke="#191B1D" stroke-miterlimit="10"/>
<path d="M287.167 261.904C299.225 261.904 308.999 252.152 308.999 240.123C308.999 228.093 299.225 218.342 287.167 218.342C275.109 218.342 265.334 228.093 265.334 240.123C265.334 252.152 275.109 261.904 287.167 261.904Z" stroke="#191B1D" stroke-miterlimit="10"/>
<path d="M290.044 237.253H284.291L285.251 231.514H289.085L290.044 237.253Z" stroke="#191B1D" stroke-miterlimit="10"/>
<path d="M290.044 254.47H284.291L285.251 248.731H289.085L290.044 254.47Z" stroke="#191B1D" stroke-miterlimit="10"/>
<path d="M284.291 225.775H290.044L289.085 231.514H285.251L284.291 225.775Z" stroke="#191B1D" stroke-miterlimit="10"/>
<path d="M284.291 242.992H290.044L289.085 248.731H285.251L284.291 242.992Z" stroke="#191B1D" stroke-miterlimit="10"/>
<path d="M290.043 242.992V237.253L295.796 238.21V242.036L290.043 242.992Z" stroke="#191B1D" stroke-miterlimit="10"/>
<path d="M272.785 242.992V237.253L278.538 238.21V242.036L272.785 242.992Z" stroke="#191B1D" stroke-miterlimit="10"/>
<path d="M284.29 237.253V242.992L278.537 242.036V238.21L284.29 237.253Z" stroke="#191B1D" stroke-miterlimit="10"/>
<path d="M301.548 237.253V242.992L295.795 242.036V238.21L301.548 237.253Z" stroke="#191B1D" stroke-miterlimit="10"/>
<path d="M290.043 225.775C290.043 234.383 292.919 237.253 301.548 237.253" stroke="#191B1D" stroke-miterlimit="10"/>
<path d="M301.548 242.992C292.919 242.992 290.043 245.862 290.043 254.47" stroke="#191B1D" stroke-miterlimit="10"/>
<path d="M284.29 254.47C284.29 245.862 281.414 242.992 272.785 242.992" stroke="#191B1D" stroke-miterlimit="10"/>
<path d="M272.785 237.253C281.414 237.253 284.29 234.383 284.29 225.775" stroke="#191B1D" stroke-miterlimit="10"/>
<path d="M276.404 250.861L281.509 245.768" stroke="#191B1D" stroke-miterlimit="10"/>
<path d="M292.826 234.477L297.932 229.385" stroke="#191B1D" stroke-miterlimit="10"/>
<path d="M276.404 229.385L281.509 234.477" stroke="#191B1D" stroke-miterlimit="10"/>
<path d="M292.826 245.768L297.932 250.861" stroke="#191B1D" stroke-miterlimit="10"/>
<path d="M331.569 305.466C343.627 305.466 353.402 295.714 353.402 283.685C353.402 271.656 343.627 261.904 331.569 261.904C319.511 261.904 309.736 271.656 309.736 283.685C309.736 295.714 319.511 305.466 331.569 305.466Z" stroke="#191B1D" stroke-miterlimit="10"/>
<path d="M334.446 280.815H328.693L329.653 275.076H333.488L334.446 280.815Z" stroke="#191B1D" stroke-miterlimit="10"/>
<path d="M334.446 298.033H328.693L329.653 292.293H333.488L334.446 298.033Z" stroke="#191B1D" stroke-miterlimit="10"/>
<path d="M328.693 269.337H334.446L333.488 275.076H329.653L328.693 269.337Z" stroke="#191B1D" stroke-miterlimit="10"/>
<path d="M328.693 286.554H334.446L333.488 292.294H329.653L328.693 286.554Z" stroke="#191B1D" stroke-miterlimit="10"/>
<path d="M334.445 286.554V280.815L340.198 281.771V285.597L334.445 286.554Z" stroke="#191B1D" stroke-miterlimit="10"/>
<path d="M317.188 286.554V280.815L322.94 281.771V285.597L317.188 286.554Z" stroke="#191B1D" stroke-miterlimit="10"/>
<path d="M328.692 280.815V286.554L322.939 285.597V281.771L328.692 280.815Z" stroke="#191B1D" stroke-miterlimit="10"/>
<path d="M345.95 280.815V286.554L340.197 285.597V281.771L345.95 280.815Z" stroke="#191B1D" stroke-miterlimit="10"/>
<path d="M334.445 269.337C334.445 277.946 337.322 280.815 345.951 280.815" stroke="#191B1D" stroke-miterlimit="10"/>
<path d="M345.951 286.554C337.322 286.554 334.445 289.424 334.445 298.033" stroke="#191B1D" stroke-miterlimit="10"/>
<path d="M328.693 298.033C328.693 289.424 325.817 286.554 317.188 286.554" stroke="#191B1D" stroke-miterlimit="10"/>
<path d="M317.188 280.815C325.817 280.815 328.693 277.946 328.693 269.337" stroke="#191B1D" stroke-miterlimit="10"/>
<path d="M320.807 294.423L325.911 289.33" stroke="#191B1D" stroke-miterlimit="10"/>
<path d="M337.229 278.04L342.333 272.947" stroke="#191B1D" stroke-miterlimit="10"/>
<path d="M320.807 272.947L325.911 278.04" stroke="#191B1D" stroke-miterlimit="10"/>
<path d="M337.229 289.33L342.333 294.423" stroke="#191B1D" stroke-miterlimit="10"/>
<path d="M419.635 44.0963C431.693 44.0963 441.468 34.3446 441.468 22.3152C441.468 10.2859 431.693 0.53418 419.635 0.53418C407.578 0.53418 397.803 10.2859 397.803 22.3152C397.803 34.3446 407.578 44.0963 419.635 44.0963Z" stroke="#191B1D" stroke-miterlimit="10"/>
<path d="M422.512 19.4456H416.76L417.718 13.7065H421.554L422.512 19.4456Z" stroke="#191B1D" stroke-miterlimit="10"/>
<path d="M422.512 36.6629H416.76L417.718 30.9238H421.554L422.512 36.6629Z" stroke="#191B1D" stroke-miterlimit="10"/>
<path d="M416.76 7.96753H422.512L421.554 13.7066H417.718L416.76 7.96753Z" stroke="#191B1D" stroke-miterlimit="10"/>
<path d="M416.76 25.1848H422.512L421.554 30.9239H417.718L416.76 25.1848Z" stroke="#191B1D" stroke-miterlimit="10"/>
<path d="M422.512 25.1846V19.4456L428.264 20.4017V24.2274L422.512 25.1846Z" stroke="#191B1D" stroke-miterlimit="10"/>
<path d="M405.254 25.1846V19.4456L411.007 20.4017V24.2274L405.254 25.1846Z" stroke="#191B1D" stroke-miterlimit="10"/>
<path d="M416.759 19.4456V25.1846L411.006 24.2274V20.4017L416.759 19.4456Z" stroke="#191B1D" stroke-miterlimit="10"/>
<path d="M434.016 19.4456V25.1846L428.264 24.2274V20.4017L434.016 19.4456Z" stroke="#191B1D" stroke-miterlimit="10"/>
<path d="M422.512 7.96753C422.512 16.5761 425.388 19.4456 434.017 19.4456" stroke="#191B1D" stroke-miterlimit="10"/>
<path d="M434.017 25.1848C425.388 25.1848 422.512 28.0543 422.512 36.6629" stroke="#191B1D" stroke-miterlimit="10"/>
<path d="M416.759 36.6629C416.759 28.0543 413.883 25.1848 405.254 25.1848" stroke="#191B1D" stroke-miterlimit="10"/>
<path d="M405.254 19.4456C413.883 19.4456 416.759 16.5761 416.759 7.96753" stroke="#191B1D" stroke-miterlimit="10"/>
<path d="M408.873 33.0529L413.978 27.9602" stroke="#191B1D" stroke-miterlimit="10"/>
<path d="M425.295 16.6702L430.4 11.5764" stroke="#191B1D" stroke-miterlimit="10"/>
<path d="M408.873 11.5764L413.978 16.6702" stroke="#191B1D" stroke-miterlimit="10"/>
<path d="M425.295 27.9602L430.4 33.0529" stroke="#191B1D" stroke-miterlimit="10"/>
<path d="M375.233 87.6573C387.291 87.6573 397.066 77.9056 397.066 65.8763C397.066 53.8469 387.291 44.0952 375.233 44.0952C363.175 44.0952 353.4 53.8469 353.4 65.8763C353.4 77.9056 363.175 87.6573 375.233 87.6573Z" stroke="#191B1D" stroke-miterlimit="10"/>
<path d="M378.11 63.0066H372.357L373.316 57.2676H377.152L378.11 63.0066Z" stroke="#191B1D" stroke-miterlimit="10"/>
<path d="M378.11 80.2239H372.357L373.316 74.4849H377.152L378.11 80.2239Z" stroke="#191B1D" stroke-miterlimit="10"/>
<path d="M372.357 51.5286H378.11L377.152 57.2676H373.316L372.357 51.5286Z" stroke="#191B1D" stroke-miterlimit="10"/>
<path d="M372.357 68.7458H378.11L377.152 74.4849H373.316L372.357 68.7458Z" stroke="#191B1D" stroke-miterlimit="10"/>
<path d="M378.109 68.7456V63.0066L383.862 63.9638V67.7895L378.109 68.7456Z" stroke="#191B1D" stroke-miterlimit="10"/>
<path d="M360.852 68.7456V63.0066L366.604 63.9638V67.7895L360.852 68.7456Z" stroke="#191B1D" stroke-miterlimit="10"/>
<path d="M372.356 63.0066V68.7456L366.604 67.7895V63.9638L372.356 63.0066Z" stroke="#191B1D" stroke-miterlimit="10"/>
<path d="M389.614 63.0066V68.7456L383.861 67.7895V63.9638L389.614 63.0066Z" stroke="#191B1D" stroke-miterlimit="10"/>
<path d="M378.109 51.5286C378.109 60.1371 380.986 63.0067 389.615 63.0067" stroke="#191B1D" stroke-miterlimit="10"/>
<path d="M389.615 68.7458C380.986 68.7458 378.109 71.6154 378.109 80.224" stroke="#191B1D" stroke-miterlimit="10"/>
<path d="M372.357 80.224C372.357 71.6154 369.481 68.7458 360.852 68.7458" stroke="#191B1D" stroke-miterlimit="10"/>
<path d="M360.852 63.0067C369.481 63.0067 372.357 60.1371 372.357 51.5286" stroke="#191B1D" stroke-miterlimit="10"/>
<path d="M364.471 76.615L369.575 71.5212" stroke="#191B1D" stroke-miterlimit="10"/>
<path d="M380.893 60.2311L385.997 55.1384" stroke="#191B1D" stroke-miterlimit="10"/>
<path d="M364.471 55.1384L369.575 60.2311" stroke="#191B1D" stroke-miterlimit="10"/>
<path d="M380.893 71.5212L385.997 76.615" stroke="#191B1D" stroke-miterlimit="10"/>
<path d="M419.635 131.22C431.693 131.22 441.468 121.468 441.468 109.439C441.468 97.4092 431.693 87.6575 419.635 87.6575C407.578 87.6575 397.803 97.4092 397.803 109.439C397.803 121.468 407.578 131.22 419.635 131.22Z" stroke="#191B1D" stroke-miterlimit="10"/>
<path d="M422.512 106.569H416.76L417.718 100.83H421.554L422.512 106.569Z" stroke="#191B1D" stroke-miterlimit="10"/>
<path d="M422.512 123.786H416.76L417.718 118.047H421.554L422.512 123.786Z" stroke="#191B1D" stroke-miterlimit="10"/>
<path d="M416.76 95.0908H422.512L421.554 100.83H417.718L416.76 95.0908Z" stroke="#191B1D" stroke-miterlimit="10"/>
<path d="M416.76 112.308H422.512L421.554 118.047H417.718L416.76 112.308Z" stroke="#191B1D" stroke-miterlimit="10"/>
<path d="M422.512 112.308V106.569L428.264 107.525V111.351L422.512 112.308Z" stroke="#191B1D" stroke-miterlimit="10"/>
<path d="M405.254 112.308V106.569L411.007 107.525V111.351L405.254 112.308Z" stroke="#191B1D" stroke-miterlimit="10"/>
<path d="M416.759 106.569V112.308L411.006 111.351V107.525L416.759 106.569Z" stroke="#191B1D" stroke-miterlimit="10"/>
<path d="M434.016 106.569V112.308L428.264 111.351V107.525L434.016 106.569Z" stroke="#191B1D" stroke-miterlimit="10"/>
<path d="M422.512 95.0908C422.512 103.699 425.388 106.569 434.017 106.569" stroke="#191B1D" stroke-miterlimit="10"/>
<path d="M434.017 112.308C425.388 112.308 422.512 115.178 422.512 123.786" stroke="#191B1D" stroke-miterlimit="10"/>
<path d="M416.759 123.786C416.759 115.178 413.883 112.308 405.254 112.308" stroke="#191B1D" stroke-miterlimit="10"/>
<path d="M405.254 106.569C413.883 106.569 416.759 103.699 416.759 95.0908" stroke="#191B1D" stroke-miterlimit="10"/>
<path d="M408.873 120.176L413.978 115.083" stroke="#191B1D" stroke-miterlimit="10"/>
<path d="M425.295 103.793L430.4 98.7007" stroke="#191B1D" stroke-miterlimit="10"/>
<path d="M408.873 98.7007L413.978 103.793" stroke="#191B1D" stroke-miterlimit="10"/>
<path d="M425.295 115.083L430.4 120.176" stroke="#191B1D" stroke-miterlimit="10"/>
<path d="M375.233 174.781C387.291 174.781 397.066 165.029 397.066 153C397.066 140.97 387.291 131.219 375.233 131.219C363.175 131.219 353.4 140.97 353.4 153C353.4 165.029 363.175 174.781 375.233 174.781Z" stroke="#191B1D" stroke-miterlimit="10"/>
<path d="M378.11 150.13H372.357L373.316 144.391H377.152L378.11 150.13Z" stroke="#191B1D" stroke-miterlimit="10"/>
<path d="M378.11 167.347H372.357L373.316 161.608H377.152L378.11 167.347Z" stroke="#191B1D" stroke-miterlimit="10"/>
<path d="M372.357 138.652H378.11L377.152 144.391H373.316L372.357 138.652Z" stroke="#191B1D" stroke-miterlimit="10"/>
<path d="M372.357 155.869H378.11L377.152 161.608H373.316L372.357 155.869Z" stroke="#191B1D" stroke-miterlimit="10"/>
<path d="M378.109 155.869V150.13L383.862 151.087V154.913L378.109 155.869Z" stroke="#191B1D" stroke-miterlimit="10"/>
<path d="M360.852 155.869V150.13L366.604 151.087V154.913L360.852 155.869Z" stroke="#191B1D" stroke-miterlimit="10"/>
<path d="M372.356 150.13V155.869L366.604 154.913V151.087L372.356 150.13Z" stroke="#191B1D" stroke-miterlimit="10"/>
<path d="M389.614 150.13V155.869L383.861 154.913V151.087L389.614 150.13Z" stroke="#191B1D" stroke-miterlimit="10"/>
<path d="M378.109 138.652C378.109 147.26 380.986 150.13 389.615 150.13" stroke="#191B1D" stroke-miterlimit="10"/>
<path d="M389.615 155.869C380.986 155.869 378.109 158.739 378.109 167.347" stroke="#191B1D" stroke-miterlimit="10"/>
<path d="M372.357 167.347C372.357 158.739 369.481 155.869 360.852 155.869" stroke="#191B1D" stroke-miterlimit="10"/>
<path d="M360.852 150.13C369.481 150.13 372.357 147.26 372.357 138.652" stroke="#191B1D" stroke-miterlimit="10"/>
<path d="M364.471 163.738L369.575 158.645" stroke="#191B1D" stroke-miterlimit="10"/>
<path d="M380.893 147.354L385.997 142.262" stroke="#191B1D" stroke-miterlimit="10"/>
<path d="M364.471 142.262L369.575 147.354" stroke="#191B1D" stroke-miterlimit="10"/>
<path d="M380.893 158.645L385.997 163.738" stroke="#191B1D" stroke-miterlimit="10"/>
<path d="M419.635 218.343C431.693 218.343 441.468 208.591 441.468 196.562C441.468 184.532 431.693 174.781 419.635 174.781C407.578 174.781 397.803 184.532 397.803 196.562C397.803 208.591 407.578 218.343 419.635 218.343Z" stroke="#191B1D" stroke-miterlimit="10"/>
<path d="M422.512 193.692H416.76L417.718 187.953H421.554L422.512 193.692Z" stroke="#191B1D" stroke-miterlimit="10"/>
<path d="M422.512 210.909H416.76L417.718 205.17H421.554L422.512 210.909Z" stroke="#191B1D" stroke-miterlimit="10"/>
<path d="M416.76 182.214H422.512L421.554 187.953H417.718L416.76 182.214Z" stroke="#191B1D" stroke-miterlimit="10"/>
<path d="M416.76 199.431H422.512L421.554 205.17H417.718L416.76 199.431Z" stroke="#191B1D" stroke-miterlimit="10"/>
<path d="M422.512 199.431V193.692L428.264 194.648V198.474L422.512 199.431Z" stroke="#191B1D" stroke-miterlimit="10"/>
<path d="M405.254 199.431V193.692L411.007 194.648V198.474L405.254 199.431Z" stroke="#191B1D" stroke-miterlimit="10"/>
<path d="M416.759 193.692V199.431L411.006 198.474V194.648L416.759 193.692Z" stroke="#191B1D" stroke-miterlimit="10"/>
<path d="M434.016 193.692V199.431L428.264 198.474V194.648L434.016 193.692Z" stroke="#191B1D" stroke-miterlimit="10"/>
<path d="M422.512 182.214C422.512 190.822 425.388 193.692 434.017 193.692" stroke="#191B1D" stroke-miterlimit="10"/>
<path d="M434.017 199.431C425.388 199.431 422.512 202.301 422.512 210.909" stroke="#191B1D" stroke-miterlimit="10"/>
<path d="M416.759 210.909C416.759 202.301 413.883 199.431 405.254 199.431" stroke="#191B1D" stroke-miterlimit="10"/>
<path d="M405.254 193.692C413.883 193.692 416.759 190.822 416.759 182.214" stroke="#191B1D" stroke-miterlimit="10"/>
<path d="M408.873 207.299L413.978 202.207" stroke="#191B1D" stroke-miterlimit="10"/>
<path d="M425.295 190.916L430.4 185.824" stroke="#191B1D" stroke-miterlimit="10"/>
<path d="M408.873 185.824L413.978 190.916" stroke="#191B1D" stroke-miterlimit="10"/>
<path d="M425.295 202.207L430.4 207.299" stroke="#191B1D" stroke-miterlimit="10"/>
<path d="M375.233 261.904C387.291 261.904 397.066 252.152 397.066 240.123C397.066 228.093 387.291 218.342 375.233 218.342C363.175 218.342 353.4 228.093 353.4 240.123C353.4 252.152 363.175 261.904 375.233 261.904Z" stroke="#191B1D" stroke-miterlimit="10"/>
<path d="M378.11 237.253H372.357L373.316 231.514H377.152L378.11 237.253Z" stroke="#191B1D" stroke-miterlimit="10"/>
<path d="M378.11 254.47H372.357L373.316 248.731H377.152L378.11 254.47Z" stroke="#191B1D" stroke-miterlimit="10"/>
<path d="M372.357 225.775H378.11L377.152 231.514H373.316L372.357 225.775Z" stroke="#191B1D" stroke-miterlimit="10"/>
<path d="M372.357 242.992H378.11L377.152 248.731H373.316L372.357 242.992Z" stroke="#191B1D" stroke-miterlimit="10"/>
<path d="M378.109 242.992V237.253L383.862 238.21V242.036L378.109 242.992Z" stroke="#191B1D" stroke-miterlimit="10"/>
<path d="M360.852 242.992V237.253L366.604 238.21V242.036L360.852 242.992Z" stroke="#191B1D" stroke-miterlimit="10"/>
<path d="M372.356 237.253V242.992L366.604 242.036V238.21L372.356 237.253Z" stroke="#191B1D" stroke-miterlimit="10"/>
<path d="M389.614 237.253V242.992L383.861 242.036V238.21L389.614 237.253Z" stroke="#191B1D" stroke-miterlimit="10"/>
<path d="M378.109 225.775C378.109 234.383 380.986 237.253 389.615 237.253" stroke="#191B1D" stroke-miterlimit="10"/>
<path d="M389.615 242.992C380.986 242.992 378.109 245.862 378.109 254.47" stroke="#191B1D" stroke-miterlimit="10"/>
<path d="M372.357 254.47C372.357 245.862 369.481 242.992 360.852 242.992" stroke="#191B1D" stroke-miterlimit="10"/>
<path d="M360.852 237.253C369.481 237.253 372.357 234.383 372.357 225.775" stroke="#191B1D" stroke-miterlimit="10"/>
<path d="M364.471 250.861L369.575 245.768" stroke="#191B1D" stroke-miterlimit="10"/>
<path d="M380.893 234.477L385.997 229.385" stroke="#191B1D" stroke-miterlimit="10"/>
<path d="M364.471 229.385L369.575 234.477" stroke="#191B1D" stroke-miterlimit="10"/>
<path d="M380.893 245.768L385.997 250.861" stroke="#191B1D" stroke-miterlimit="10"/>
<path d="M419.635 305.466C431.693 305.466 441.468 295.714 441.468 283.685C441.468 271.656 431.693 261.904 419.635 261.904C407.578 261.904 397.803 271.656 397.803 283.685C397.803 295.714 407.578 305.466 419.635 305.466Z" stroke="#191B1D" stroke-miterlimit="10"/>
<path d="M422.512 280.815H416.76L417.718 275.076H421.554L422.512 280.815Z" stroke="#191B1D" stroke-miterlimit="10"/>
<path d="M422.512 298.033H416.76L417.718 292.293H421.554L422.512 298.033Z" stroke="#191B1D" stroke-miterlimit="10"/>
<path d="M416.76 269.337H422.512L421.554 275.076H417.718L416.76 269.337Z" stroke="#191B1D" stroke-miterlimit="10"/>
<path d="M416.76 286.554H422.512L421.554 292.294H417.718L416.76 286.554Z" stroke="#191B1D" stroke-miterlimit="10"/>
<path d="M422.512 286.554V280.815L428.264 281.771V285.597L422.512 286.554Z" stroke="#191B1D" stroke-miterlimit="10"/>
<path d="M405.254 286.554V280.815L411.007 281.771V285.597L405.254 286.554Z" stroke="#191B1D" stroke-miterlimit="10"/>
<path d="M416.759 280.815V286.554L411.006 285.597V281.771L416.759 280.815Z" stroke="#191B1D" stroke-miterlimit="10"/>
<path d="M434.016 280.815V286.554L428.264 285.597V281.771L434.016 280.815Z" stroke="#191B1D" stroke-miterlimit="10"/>
<path d="M422.512 269.337C422.512 277.946 425.388 280.815 434.017 280.815" stroke="#191B1D" stroke-miterlimit="10"/>
<path d="M434.017 286.554C425.388 286.554 422.512 289.424 422.512 298.033" stroke="#191B1D" stroke-miterlimit="10"/>
<path d="M416.759 298.033C416.759 289.424 413.883 286.554 405.254 286.554" stroke="#191B1D" stroke-miterlimit="10"/>
<path d="M405.254 280.815C413.883 280.815 416.759 277.946 416.759 269.337" stroke="#191B1D" stroke-miterlimit="10"/>
<path d="M408.873 294.423L413.978 289.33" stroke="#191B1D" stroke-miterlimit="10"/>
<path d="M425.295 278.04L430.4 272.947" stroke="#191B1D" stroke-miterlimit="10"/>
<path d="M408.873 272.947L413.978 278.04" stroke="#191B1D" stroke-miterlimit="10"/>
<path d="M425.295 289.33L430.4 294.423" stroke="#191B1D" stroke-miterlimit="10"/>
<path d="M507.702 44.0963C519.76 44.0963 529.535 34.3446 529.535 22.3152C529.535 10.2859 519.76 0.53418 507.702 0.53418C495.644 0.53418 485.869 10.2859 485.869 22.3152C485.869 34.3446 495.644 44.0963 507.702 44.0963Z" stroke="#191B1D" stroke-miterlimit="10"/>
<path d="M510.579 19.4456H504.826L505.785 13.7065H509.619L510.579 19.4456Z" stroke="#191B1D" stroke-miterlimit="10"/>
<path d="M510.579 36.6629H504.826L505.785 30.9238H509.619L510.579 36.6629Z" stroke="#191B1D" stroke-miterlimit="10"/>
<path d="M504.826 7.96753H510.579L509.619 13.7066H505.785L504.826 7.96753Z" stroke="#191B1D" stroke-miterlimit="10"/>
<path d="M504.826 25.1848H510.579L509.619 30.9239H505.785L504.826 25.1848Z" stroke="#191B1D" stroke-miterlimit="10"/>
<path d="M510.578 25.1846V19.4456L516.331 20.4017V24.2274L510.578 25.1846Z" stroke="#191B1D" stroke-miterlimit="10"/>
<path d="M493.32 25.1846V19.4456L499.073 20.4017V24.2274L493.32 25.1846Z" stroke="#191B1D" stroke-miterlimit="10"/>
<path d="M504.825 19.4456V25.1846L499.072 24.2274V20.4017L504.825 19.4456Z" stroke="#191B1D" stroke-miterlimit="10"/>
<path d="M522.083 19.4456V25.1846L516.33 24.2274V20.4017L522.083 19.4456Z" stroke="#191B1D" stroke-miterlimit="10"/>
<path d="M510.578 7.96753C510.578 16.5761 513.454 19.4456 522.083 19.4456" stroke="#191B1D" stroke-miterlimit="10"/>
<path d="M522.083 25.1848C513.454 25.1848 510.578 28.0543 510.578 36.6629" stroke="#191B1D" stroke-miterlimit="10"/>
<path d="M504.826 36.6629C504.826 28.0543 501.949 25.1848 493.32 25.1848" stroke="#191B1D" stroke-miterlimit="10"/>
<path d="M493.32 19.4456C501.949 19.4456 504.826 16.5761 504.826 7.96753" stroke="#191B1D" stroke-miterlimit="10"/>
<path d="M496.939 33.0529L502.044 27.9602" stroke="#191B1D" stroke-miterlimit="10"/>
<path d="M513.361 16.6702L518.466 11.5764" stroke="#191B1D" stroke-miterlimit="10"/>
<path d="M496.939 11.5764L502.044 16.6702" stroke="#191B1D" stroke-miterlimit="10"/>
<path d="M513.361 27.9602L518.466 33.0529" stroke="#191B1D" stroke-miterlimit="10"/>
<path d="M463.3 87.6573C475.357 87.6573 485.132 77.9056 485.132 65.8763C485.132 53.8469 475.357 44.0952 463.3 44.0952C451.242 44.0952 441.467 53.8469 441.467 65.8763C441.467 77.9056 451.242 87.6573 463.3 87.6573Z" stroke="#191B1D" stroke-miterlimit="10"/>
<path d="M466.177 63.0066H460.424L461.382 57.2676H465.217L466.177 63.0066Z" stroke="#191B1D" stroke-miterlimit="10"/>
<path d="M466.177 80.2239H460.424L461.382 74.4849H465.217L466.177 80.2239Z" stroke="#191B1D" stroke-miterlimit="10"/>
<path d="M460.424 51.5286H466.177L465.217 57.2676H461.382L460.424 51.5286Z" stroke="#191B1D" stroke-miterlimit="10"/>
<path d="M460.424 68.7458H466.177L465.217 74.4849H461.382L460.424 68.7458Z" stroke="#191B1D" stroke-miterlimit="10"/>
<path d="M466.176 68.7456V63.0066L471.928 63.9638V67.7895L466.176 68.7456Z" stroke="#191B1D" stroke-miterlimit="10"/>
<path d="M448.918 68.7456V63.0066L454.671 63.9638V67.7895L448.918 68.7456Z" stroke="#191B1D" stroke-miterlimit="10"/>
<path d="M460.423 63.0066V68.7456L454.67 67.7895V63.9638L460.423 63.0066Z" stroke="#191B1D" stroke-miterlimit="10"/>
<path d="M477.68 63.0066V68.7456L471.928 67.7895V63.9638L477.68 63.0066Z" stroke="#191B1D" stroke-miterlimit="10"/>
<path d="M466.176 51.5286C466.176 60.1371 469.052 63.0067 477.681 63.0067" stroke="#191B1D" stroke-miterlimit="10"/>
<path d="M477.681 68.7458C469.052 68.7458 466.176 71.6154 466.176 80.224" stroke="#191B1D" stroke-miterlimit="10"/>
<path d="M460.423 80.224C460.423 71.6154 457.547 68.7458 448.918 68.7458" stroke="#191B1D" stroke-miterlimit="10"/>
<path d="M448.918 63.0067C457.547 63.0067 460.423 60.1371 460.423 51.5286" stroke="#191B1D" stroke-miterlimit="10"/>
<path d="M452.535 76.615L457.64 71.5212" stroke="#191B1D" stroke-miterlimit="10"/>
<path d="M468.957 60.2311L474.062 55.1384" stroke="#191B1D" stroke-miterlimit="10"/>
<path d="M452.535 55.1384L457.64 60.2311" stroke="#191B1D" stroke-miterlimit="10"/>
<path d="M468.957 71.5212L474.062 76.615" stroke="#191B1D" stroke-miterlimit="10"/>
<path d="M507.702 131.22C519.76 131.22 529.535 121.468 529.535 109.439C529.535 97.4092 519.76 87.6575 507.702 87.6575C495.644 87.6575 485.869 97.4092 485.869 109.439C485.869 121.468 495.644 131.22 507.702 131.22Z" stroke="#191B1D" stroke-miterlimit="10"/>
<path d="M510.579 106.569H504.826L505.785 100.83H509.619L510.579 106.569Z" stroke="#191B1D" stroke-miterlimit="10"/>
<path d="M510.579 123.786H504.826L505.785 118.047H509.619L510.579 123.786Z" stroke="#191B1D" stroke-miterlimit="10"/>
<path d="M504.826 95.0908H510.579L509.619 100.83H505.785L504.826 95.0908Z" stroke="#191B1D" stroke-miterlimit="10"/>
<path d="M504.826 112.308H510.579L509.619 118.047H505.785L504.826 112.308Z" stroke="#191B1D" stroke-miterlimit="10"/>
<path d="M510.578 112.308V106.569L516.331 107.525V111.351L510.578 112.308Z" stroke="#191B1D" stroke-miterlimit="10"/>
<path d="M493.32 112.308V106.569L499.073 107.525V111.351L493.32 112.308Z" stroke="#191B1D" stroke-miterlimit="10"/>
<path d="M504.825 106.569V112.308L499.072 111.351V107.525L504.825 106.569Z" stroke="#191B1D" stroke-miterlimit="10"/>
<path d="M522.083 106.569V112.308L516.33 111.351V107.525L522.083 106.569Z" stroke="#191B1D" stroke-miterlimit="10"/>
<path d="M510.578 95.0908C510.578 103.699 513.454 106.569 522.083 106.569" stroke="#191B1D" stroke-miterlimit="10"/>
<path d="M522.083 112.308C513.454 112.308 510.578 115.178 510.578 123.786" stroke="#191B1D" stroke-miterlimit="10"/>
<path d="M504.826 123.786C504.826 115.178 501.949 112.308 493.32 112.308" stroke="#191B1D" stroke-miterlimit="10"/>
<path d="M493.32 106.569C501.949 106.569 504.826 103.699 504.826 95.0908" stroke="#191B1D" stroke-miterlimit="10"/>
<path d="M496.939 120.176L502.044 115.083" stroke="#191B1D" stroke-miterlimit="10"/>
<path d="M513.361 103.793L518.466 98.7007" stroke="#191B1D" stroke-miterlimit="10"/>
<path d="M496.939 98.7007L502.044 103.793" stroke="#191B1D" stroke-miterlimit="10"/>
<path d="M513.361 115.083L518.466 120.176" stroke="#191B1D" stroke-miterlimit="10"/>
<path d="M463.3 174.781C475.357 174.781 485.132 165.029 485.132 153C485.132 140.97 475.357 131.219 463.3 131.219C451.242 131.219 441.467 140.97 441.467 153C441.467 165.029 451.242 174.781 463.3 174.781Z" stroke="#191B1D" stroke-miterlimit="10"/>
<path d="M466.177 150.13H460.424L461.382 144.391H465.217L466.177 150.13Z" stroke="#191B1D" stroke-miterlimit="10"/>
<path d="M466.177 167.347H460.424L461.382 161.608H465.217L466.177 167.347Z" stroke="#191B1D" stroke-miterlimit="10"/>
<path d="M460.424 138.652H466.177L465.217 144.391H461.382L460.424 138.652Z" stroke="#191B1D" stroke-miterlimit="10"/>
<path d="M460.424 155.869H466.177L465.217 161.608H461.382L460.424 155.869Z" stroke="#191B1D" stroke-miterlimit="10"/>
<path d="M466.176 155.869V150.13L471.928 151.087V154.913L466.176 155.869Z" stroke="#191B1D" stroke-miterlimit="10"/>
<path d="M448.918 155.869V150.13L454.671 151.087V154.913L448.918 155.869Z" stroke="#191B1D" stroke-miterlimit="10"/>
<path d="M460.423 150.13V155.869L454.67 154.913V151.087L460.423 150.13Z" stroke="#191B1D" stroke-miterlimit="10"/>
<path d="M477.68 150.13V155.869L471.928 154.913V151.087L477.68 150.13Z" stroke="#191B1D" stroke-miterlimit="10"/>
<path d="M466.176 138.652C466.176 147.26 469.052 150.13 477.681 150.13" stroke="#191B1D" stroke-miterlimit="10"/>
<path d="M477.681 155.869C469.052 155.869 466.176 158.739 466.176 167.347" stroke="#191B1D" stroke-miterlimit="10"/>
<path d="M460.423 167.347C460.423 158.739 457.547 155.869 448.918 155.869" stroke="#191B1D" stroke-miterlimit="10"/>
<path d="M448.918 150.13C457.547 150.13 460.423 147.26 460.423 138.652" stroke="#191B1D" stroke-miterlimit="10"/>
<path d="M452.535 163.738L457.64 158.645" stroke="#191B1D" stroke-miterlimit="10"/>
<path d="M468.957 147.354L474.062 142.262" stroke="#191B1D" stroke-miterlimit="10"/>
<path d="M452.535 142.262L457.64 147.354" stroke="#191B1D" stroke-miterlimit="10"/>
<path d="M468.957 158.645L474.062 163.738" stroke="#191B1D" stroke-miterlimit="10"/>
<path d="M507.702 218.343C519.76 218.343 529.535 208.591 529.535 196.562C529.535 184.532 519.76 174.781 507.702 174.781C495.644 174.781 485.869 184.532 485.869 196.562C485.869 208.591 495.644 218.343 507.702 218.343Z" stroke="#191B1D" stroke-miterlimit="10"/>
<path d="M510.579 193.692H504.826L505.785 187.953H509.619L510.579 193.692Z" stroke="#191B1D" stroke-miterlimit="10"/>
<path d="M510.579 210.909H504.826L505.785 205.17H509.619L510.579 210.909Z" stroke="#191B1D" stroke-miterlimit="10"/>
<path d="M504.826 182.214H510.579L509.619 187.953H505.785L504.826 182.214Z" stroke="#191B1D" stroke-miterlimit="10"/>
<path d="M504.826 199.431H510.579L509.619 205.17H505.785L504.826 199.431Z" stroke="#191B1D" stroke-miterlimit="10"/>
<path d="M510.578 199.431V193.692L516.331 194.648V198.474L510.578 199.431Z" stroke="#191B1D" stroke-miterlimit="10"/>
<path d="M493.32 199.431V193.692L499.073 194.648V198.474L493.32 199.431Z" stroke="#191B1D" stroke-miterlimit="10"/>
<path d="M504.825 193.692V199.431L499.072 198.474V194.648L504.825 193.692Z" stroke="#191B1D" stroke-miterlimit="10"/>
<path d="M522.083 193.692V199.431L516.33 198.474V194.648L522.083 193.692Z" stroke="#191B1D" stroke-miterlimit="10"/>
<path d="M510.578 182.214C510.578 190.822 513.454 193.692 522.083 193.692" stroke="#191B1D" stroke-miterlimit="10"/>
<path d="M522.083 199.431C513.454 199.431 510.578 202.301 510.578 210.909" stroke="#191B1D" stroke-miterlimit="10"/>
<path d="M504.826 210.909C504.826 202.301 501.949 199.431 493.32 199.431" stroke="#191B1D" stroke-miterlimit="10"/>
<path d="M493.32 193.692C501.949 193.692 504.826 190.822 504.826 182.214" stroke="#191B1D" stroke-miterlimit="10"/>
<path d="M496.939 207.299L502.044 202.207" stroke="#191B1D" stroke-miterlimit="10"/>
<path d="M513.361 190.916L518.466 185.824" stroke="#191B1D" stroke-miterlimit="10"/>
<path d="M496.939 185.824L502.044 190.916" stroke="#191B1D" stroke-miterlimit="10"/>
<path d="M513.361 202.207L518.466 207.299" stroke="#191B1D" stroke-miterlimit="10"/>
<path d="M463.3 261.904C475.357 261.904 485.132 252.152 485.132 240.123C485.132 228.093 475.357 218.342 463.3 218.342C451.242 218.342 441.467 228.093 441.467 240.123C441.467 252.152 451.242 261.904 463.3 261.904Z" stroke="#191B1D" stroke-miterlimit="10"/>
<path d="M466.177 237.253H460.424L461.382 231.514H465.217L466.177 237.253Z" stroke="#191B1D" stroke-miterlimit="10"/>
<path d="M466.177 254.47H460.424L461.382 248.731H465.217L466.177 254.47Z" stroke="#191B1D" stroke-miterlimit="10"/>
<path d="M460.424 225.775H466.177L465.217 231.514H461.382L460.424 225.775Z" stroke="#191B1D" stroke-miterlimit="10"/>
<path d="M460.424 242.992H466.177L465.217 248.731H461.382L460.424 242.992Z" stroke="#191B1D" stroke-miterlimit="10"/>
<path d="M466.176 242.992V237.253L471.928 238.21V242.036L466.176 242.992Z" stroke="#191B1D" stroke-miterlimit="10"/>
<path d="M448.918 242.992V237.253L454.671 238.21V242.036L448.918 242.992Z" stroke="#191B1D" stroke-miterlimit="10"/>
<path d="M460.423 237.253V242.992L454.67 242.036V238.21L460.423 237.253Z" stroke="#191B1D" stroke-miterlimit="10"/>
<path d="M477.68 237.253V242.992L471.928 242.036V238.21L477.68 237.253Z" stroke="#191B1D" stroke-miterlimit="10"/>
<path d="M466.176 225.775C466.176 234.383 469.052 237.253 477.681 237.253" stroke="#191B1D" stroke-miterlimit="10"/>
<path d="M477.681 242.992C469.052 242.992 466.176 245.862 466.176 254.47" stroke="#191B1D" stroke-miterlimit="10"/>
<path d="M460.423 254.47C460.423 245.862 457.547 242.992 448.918 242.992" stroke="#191B1D" stroke-miterlimit="10"/>
<path d="M448.918 237.253C457.547 237.253 460.423 234.383 460.423 225.775" stroke="#191B1D" stroke-miterlimit="10"/>
<path d="M452.535 250.861L457.64 245.768" stroke="#191B1D" stroke-miterlimit="10"/>
<path d="M468.957 234.477L474.062 229.385" stroke="#191B1D" stroke-miterlimit="10"/>
<path d="M452.535 229.385L457.64 234.477" stroke="#191B1D" stroke-miterlimit="10"/>
<path d="M468.957 245.768L474.062 250.861" stroke="#191B1D" stroke-miterlimit="10"/>
<path d="M507.702 305.466C519.76 305.466 529.535 295.714 529.535 283.685C529.535 271.656 519.76 261.904 507.702 261.904C495.644 261.904 485.869 271.656 485.869 283.685C485.869 295.714 495.644 305.466 507.702 305.466Z" stroke="#191B1D" stroke-miterlimit="10"/>
<path d="M510.579 280.815H504.826L505.785 275.076H509.619L510.579 280.815Z" stroke="#191B1D" stroke-miterlimit="10"/>
<path d="M510.579 298.033H504.826L505.785 292.293H509.619L510.579 298.033Z" stroke="#191B1D" stroke-miterlimit="10"/>
<path d="M504.826 269.337H510.579L509.619 275.076H505.785L504.826 269.337Z" stroke="#191B1D" stroke-miterlimit="10"/>
<path d="M504.826 286.554H510.579L509.619 292.294H505.785L504.826 286.554Z" stroke="#191B1D" stroke-miterlimit="10"/>
<path d="M510.578 286.554V280.815L516.331 281.771V285.597L510.578 286.554Z" stroke="#191B1D" stroke-miterlimit="10"/>
<path d="M493.32 286.554V280.815L499.073 281.771V285.597L493.32 286.554Z" stroke="#191B1D" stroke-miterlimit="10"/>
<path d="M504.825 280.815V286.554L499.072 285.597V281.771L504.825 280.815Z" stroke="#191B1D" stroke-miterlimit="10"/>
<path d="M522.083 280.815V286.554L516.33 285.597V281.771L522.083 280.815Z" stroke="#191B1D" stroke-miterlimit="10"/>
<path d="M510.578 269.337C510.578 277.946 513.454 280.815 522.083 280.815" stroke="#191B1D" stroke-miterlimit="10"/>
<path d="M522.083 286.554C513.454 286.554 510.578 289.424 510.578 298.033" stroke="#191B1D" stroke-miterlimit="10"/>
<path d="M504.826 298.033C504.826 289.424 501.949 286.554 493.32 286.554" stroke="#191B1D" stroke-miterlimit="10"/>
<path d="M493.32 280.815C501.949 280.815 504.826 277.946 504.826 269.337" stroke="#191B1D" stroke-miterlimit="10"/>
<path d="M496.939 294.423L502.044 289.33" stroke="#191B1D" stroke-miterlimit="10"/>
<path d="M513.361 278.04L518.466 272.947" stroke="#191B1D" stroke-miterlimit="10"/>
<path d="M496.939 272.947L502.044 278.04" stroke="#191B1D" stroke-miterlimit="10"/>
<path d="M513.361 289.33L518.466 294.423" stroke="#191B1D" stroke-miterlimit="10"/>
<path d="M551.632 87.6573C563.689 87.6573 573.464 77.9056 573.464 65.8763C573.464 53.8469 563.689 44.0952 551.632 44.0952C539.574 44.0952 529.799 53.8469 529.799 65.8763C529.799 77.9056 539.574 87.6573 551.632 87.6573Z" stroke="#191B1D" stroke-miterlimit="10"/>
<path d="M554.509 63.0066H548.756L549.715 57.2676H553.55L554.509 63.0066Z" stroke="#191B1D" stroke-miterlimit="10"/>
<path d="M554.509 80.2239H548.756L549.715 74.4849H553.55L554.509 80.2239Z" stroke="#191B1D" stroke-miterlimit="10"/>
<path d="M548.756 51.5286H554.509L553.55 57.2676H549.715L548.756 51.5286Z" stroke="#191B1D" stroke-miterlimit="10"/>
<path d="M548.756 68.7458H554.509L553.55 74.4849H549.715L548.756 68.7458Z" stroke="#191B1D" stroke-miterlimit="10"/>
<path d="M554.508 68.7456V63.0066L560.26 63.9638V67.7895L554.508 68.7456Z" stroke="#191B1D" stroke-miterlimit="10"/>
<path d="M537.25 68.7456V63.0066L543.003 63.9638V67.7895L537.25 68.7456Z" stroke="#191B1D" stroke-miterlimit="10"/>
<path d="M548.755 63.0066V68.7456L543.002 67.7895V63.9638L548.755 63.0066Z" stroke="#191B1D" stroke-miterlimit="10"/>
<path d="M566.012 63.0066V68.7456L560.26 67.7895V63.9638L566.012 63.0066Z" stroke="#191B1D" stroke-miterlimit="10"/>
<path d="M554.508 51.5286C554.508 60.1371 557.384 63.0067 566.013 63.0067" stroke="#191B1D" stroke-miterlimit="10"/>
<path d="M566.013 68.7458C557.384 68.7458 554.508 71.6154 554.508 80.224" stroke="#191B1D" stroke-miterlimit="10"/>
<path d="M548.755 80.224C548.755 71.6154 545.879 68.7458 537.25 68.7458" stroke="#191B1D" stroke-miterlimit="10"/>
<path d="M537.25 63.0067C545.879 63.0067 548.755 60.1371 548.755 51.5286" stroke="#191B1D" stroke-miterlimit="10"/>
<path d="M540.869 76.615L545.974 71.5212" stroke="#191B1D" stroke-miterlimit="10"/>
<path d="M557.291 60.2311L562.396 55.1384" stroke="#191B1D" stroke-miterlimit="10"/>
<path d="M540.869 55.1384L545.974 60.2311" stroke="#191B1D" stroke-miterlimit="10"/>
<path d="M557.291 71.5212L562.396 76.615" stroke="#191B1D" stroke-miterlimit="10"/>
<path d="M551.632 174.781C563.689 174.781 573.464 165.029 573.464 153C573.464 140.97 563.689 131.219 551.632 131.219C539.574 131.219 529.799 140.97 529.799 153C529.799 165.029 539.574 174.781 551.632 174.781Z" stroke="#191B1D" stroke-miterlimit="10"/>
<path d="M554.509 150.13H548.756L549.715 144.391H553.55L554.509 150.13Z" stroke="#191B1D" stroke-miterlimit="10"/>
<path d="M554.509 167.347H548.756L549.715 161.608H553.55L554.509 167.347Z" stroke="#191B1D" stroke-miterlimit="10"/>
<path d="M548.756 138.652H554.509L553.55 144.391H549.715L548.756 138.652Z" stroke="#191B1D" stroke-miterlimit="10"/>
<path d="M548.756 155.869H554.509L553.55 161.608H549.715L548.756 155.869Z" stroke="#191B1D" stroke-miterlimit="10"/>
<path d="M554.508 155.869V150.13L560.26 151.087V154.913L554.508 155.869Z" stroke="#191B1D" stroke-miterlimit="10"/>
<path d="M537.25 155.869V150.13L543.003 151.087V154.913L537.25 155.869Z" stroke="#191B1D" stroke-miterlimit="10"/>
<path d="M548.755 150.13V155.869L543.002 154.913V151.087L548.755 150.13Z" stroke="#191B1D" stroke-miterlimit="10"/>
<path d="M566.012 150.13V155.869L560.26 154.913V151.087L566.012 150.13Z" stroke="#191B1D" stroke-miterlimit="10"/>
<path d="M554.508 138.652C554.508 147.26 557.384 150.13 566.013 150.13" stroke="#191B1D" stroke-miterlimit="10"/>
<path d="M566.013 155.869C557.384 155.869 554.508 158.739 554.508 167.347" stroke="#191B1D" stroke-miterlimit="10"/>
<path d="M548.755 167.347C548.755 158.739 545.879 155.869 537.25 155.869" stroke="#191B1D" stroke-miterlimit="10"/>
<path d="M537.25 150.13C545.879 150.13 548.755 147.26 548.755 138.652" stroke="#191B1D" stroke-miterlimit="10"/>
<path d="M540.869 163.738L545.974 158.645" stroke="#191B1D" stroke-miterlimit="10"/>
<path d="M557.291 147.354L562.396 142.262" stroke="#191B1D" stroke-miterlimit="10"/>
<path d="M540.869 142.262L545.974 147.354" stroke="#191B1D" stroke-miterlimit="10"/>
<path d="M557.291 158.645L562.396 163.738" stroke="#191B1D" stroke-miterlimit="10"/>
<path d="M551.632 261.904C563.689 261.904 573.464 252.152 573.464 240.123C573.464 228.093 563.689 218.342 551.632 218.342C539.574 218.342 529.799 228.093 529.799 240.123C529.799 252.152 539.574 261.904 551.632 261.904Z" stroke="#191B1D" stroke-miterlimit="10"/>
<path d="M554.509 237.253H548.756L549.715 231.514H553.55L554.509 237.253Z" stroke="#191B1D" stroke-miterlimit="10"/>
<path d="M554.509 254.47H548.756L549.715 248.731H553.55L554.509 254.47Z" stroke="#191B1D" stroke-miterlimit="10"/>
<path d="M548.756 225.775H554.509L553.55 231.514H549.715L548.756 225.775Z" stroke="#191B1D" stroke-miterlimit="10"/>
<path d="M548.756 242.992H554.509L553.55 248.731H549.715L548.756 242.992Z" stroke="#191B1D" stroke-miterlimit="10"/>
<path d="M554.508 242.992V237.253L560.26 238.21V242.036L554.508 242.992Z" stroke="#191B1D" stroke-miterlimit="10"/>
<path d="M537.25 242.992V237.253L543.003 238.21V242.036L537.25 242.992Z" stroke="#191B1D" stroke-miterlimit="10"/>
<path d="M548.755 237.253V242.992L543.002 242.036V238.21L548.755 237.253Z" stroke="#191B1D" stroke-miterlimit="10"/>
<path d="M566.012 237.253V242.992L560.26 242.036V238.21L566.012 237.253Z" stroke="#191B1D" stroke-miterlimit="10"/>
<path d="M554.508 225.775C554.508 234.383 557.384 237.253 566.013 237.253" stroke="#191B1D" stroke-miterlimit="10"/>
<path d="M566.013 242.992C557.384 242.992 554.508 245.862 554.508 254.47" stroke="#191B1D" stroke-miterlimit="10"/>
<path d="M548.755 254.47C548.755 245.862 545.879 242.992 537.25 242.992" stroke="#191B1D" stroke-miterlimit="10"/>
<path d="M537.25 237.253C545.879 237.253 548.755 234.383 548.755 225.775" stroke="#191B1D" stroke-miterlimit="10"/>
<path d="M540.869 250.861L545.974 245.768" stroke="#191B1D" stroke-miterlimit="10"/>
<path d="M557.291 234.477L562.396 229.385" stroke="#191B1D" stroke-miterlimit="10"/>
<path d="M540.869 229.385L545.974 234.477" stroke="#191B1D" stroke-miterlimit="10"/>
<path d="M557.291 245.768L562.396 250.861" stroke="#191B1D" stroke-miterlimit="10"/>
</g>
<defs>
<clipPath id="clip0_3603_7275">
<rect width="574" height="306" fill="white"/>
</clipPath>
</defs>
</svg>
