<svg width="474" height="323" viewBox="0 0 474 323" fill="none" xmlns="http://www.w3.org/2000/svg">
<g clip-path="url(#clip0_4213_11808)">
<path d="M155.878 217.057C155.45 217.799 154.502 218.399 153.76 218.399C153.017 218.399 152.765 217.798 153.193 217.057C153.621 216.316 154.568 215.714 155.311 215.714C156.053 215.714 156.306 216.315 155.878 217.057Z" fill="white"/>
<path d="M151.014 232.809C150.586 233.551 149.638 234.151 148.896 234.151C148.154 234.151 147.901 233.55 148.329 232.809C148.757 232.067 149.705 231.466 150.447 231.466C151.189 231.466 151.442 232.068 151.014 232.809Z" fill="white"/>
<path d="M156.725 247.546C156.297 248.288 155.349 248.889 154.607 248.889C153.865 248.889 153.612 248.287 154.04 247.546C154.468 246.804 155.416 246.204 156.158 246.204C156.9 246.204 157.153 246.804 156.725 247.546Z" fill="white"/>
<path d="M142.698 255.529C142.27 256.272 141.322 256.872 140.58 256.872C139.838 256.872 139.585 256.27 140.013 255.529C140.441 254.787 141.389 254.187 142.131 254.187C142.873 254.186 143.126 254.787 142.698 255.529Z" fill="white"/>
<path d="M11.5434 223.898C6.93895 226.556 3.20703 232.444 3.20703 237.049C3.20703 241.653 6.93895 243.23 11.5434 240.572C16.1479 237.914 19.8798 232.026 19.8798 227.422C19.8798 222.817 16.1479 221.239 11.5434 223.898Z" stroke="white" stroke-width="0.667187" stroke-linecap="round" stroke-linejoin="round"/>
<path d="M15.9704 222.606C13.0679 221.591 11.741 220.336 10.4253 219.622C8.89834 218.792 6.67669 218.999 4.20357 220.426C-0.400893 223.084 -4.13281 228.973 -4.13281 233.577C-4.13281 235.7 -3.33944 237.178 -2.03341 237.897C-0.506464 238.736 2.54463 238.768 5.11362 241.255" stroke="white" stroke-width="0.667187" stroke-linecap="round" stroke-linejoin="round"/>
<path d="M219.528 100.729C214.923 103.387 211.191 109.275 211.191 113.88C211.191 118.484 214.923 120.061 219.528 117.403C224.132 114.746 227.864 108.857 227.864 104.253C227.864 99.6484 224.132 98.07 219.528 100.729Z" stroke="white" stroke-width="0.667187" stroke-linecap="round" stroke-linejoin="round"/>
<path d="M223.955 99.4374C221.052 98.4218 219.725 97.1671 218.41 96.453C216.883 95.6235 214.661 95.8305 212.188 97.2575C207.583 99.9154 203.852 105.804 203.852 110.408C203.852 112.531 204.645 114.009 205.951 114.728C207.478 115.567 210.529 115.599 213.098 118.086" stroke="white" stroke-width="0.667187" stroke-linecap="round" stroke-linejoin="round"/>
<path d="M26.8002 353.437L-71.4219 409.756V223.509L26.8002 167.19V353.437Z" stroke="white" stroke-width="0.667187" stroke-linecap="round" stroke-linejoin="round"/>
<path d="M-10.2148 146.057L15.9128 161.057" stroke="white" stroke-width="0.667187" stroke-linecap="round" stroke-linejoin="round"/>
<path d="M23.9023 165.411L26.8056 167.19" stroke="white" stroke-width="0.667187" stroke-linecap="round" stroke-linejoin="round"/>
<path d="M-24 151.863L7.69354 133.236L37.692 151.259L5.99987 169.887L-24 151.863Z" stroke="white" stroke-width="0.667187" stroke-linecap="round" stroke-linejoin="round"/>
<path d="M12.0234 130.689L43.7156 112.06L73.7155 130.083L42.0233 148.712L12.0234 130.689Z" stroke="white" stroke-width="0.667187" stroke-linecap="round" stroke-linejoin="round"/>
<path d="M48.0547 109.513L79.7468 90.8857L109.747 108.909L78.0532 127.538L48.0547 109.513Z" stroke="white" stroke-width="0.667187" stroke-linecap="round" stroke-linejoin="round"/>
<path d="M84.0781 88.3391L115.77 69.7114L145.769 87.7347L114.077 106.362L84.0781 88.3391Z" stroke="white" stroke-width="0.667187" stroke-linecap="round" stroke-linejoin="round"/>
<path d="M138.331 52.1899L141.834 54.3935L120.106 67.1649L150.105 85.1881L172.846 71.8207L177.281 74.2063L-5.61483 180.895L-10.211 178.476L0.433207 172.185L-28.5982 154.766L-38.8742 160.705L-43.1133 158.395L138.331 52.1899Z" stroke="white" stroke-width="0.667187" stroke-linecap="round" stroke-linejoin="round"/>
<path d="M100.348 72.1887V45.7388L122.604 58.9644" stroke="white" stroke-width="0.667187" stroke-linecap="round" stroke-linejoin="round"/>
<path d="M114.922 102.907V76.457L137.965 90.1732" stroke="white" stroke-width="0.667187" stroke-linecap="round" stroke-linejoin="round"/>
<path d="M130.512 62.9966L156.963 78.48" stroke="white" stroke-width="0.667187" stroke-linecap="round" stroke-linejoin="round"/>
<path d="M165.179 83.4785L186.952 97.0265L187.596 267.826L159.695 249.763V199.119L121.47 177.668L112.438 183.636V198.958L105.341 203.756V220.57L97.2773 225.408V243.634L134.835 263.813L159.695 249.763" stroke="white" stroke-width="0.667187" stroke-linecap="round" stroke-linejoin="round"/>
<path d="M100.348 81.3818V95.5745" stroke="white" stroke-width="0.667187" stroke-linecap="round" stroke-linejoin="round"/>
<path d="M100.348 105.413V112.06" stroke="white" stroke-width="0.667187" stroke-linecap="round" stroke-linejoin="round"/>
<path d="M100.348 121.38V215.087L105.347 218.399" stroke="white" stroke-width="0.667187" stroke-linecap="round" stroke-linejoin="round"/>
<path d="M159.699 199.12L150.304 205.087V220.434L142.904 225.219V241.592L134.84 246.936V263.813" stroke="white" stroke-width="0.667187" stroke-linecap="round" stroke-linejoin="round"/>
<path d="M112.75 183.93L150.307 205.087" stroke="white" stroke-width="0.667187" stroke-linecap="round" stroke-linejoin="round"/>
<path d="M112.75 199.277L150.307 220.435" stroke="white" stroke-width="0.667187" stroke-linecap="round" stroke-linejoin="round"/>
<path d="M105.348 204.062L142.906 225.22" stroke="white" stroke-width="0.667187" stroke-linecap="round" stroke-linejoin="round"/>
<path d="M105.348 220.435L142.906 241.592" stroke="white" stroke-width="0.667187" stroke-linecap="round" stroke-linejoin="round"/>
<path d="M97.2773 225.778L134.835 246.936" stroke="white" stroke-width="0.667187" stroke-linecap="round" stroke-linejoin="round"/>
<path d="M145.767 94.769L170.827 109.212V188.798L114.922 156.218V113.316" stroke="white" stroke-width="0.667187" stroke-linecap="round" stroke-linejoin="round"/>
<path d="M186.715 96.5434L236.673 67.6731L150.305 15.9014L100.348 45.7387L186.715 96.5434Z" stroke="white" stroke-width="0.667187" stroke-linecap="round" stroke-linejoin="round"/>
<path d="M236.672 114.59L304.834 153.922L236.672 193.313V67.6729" stroke="white" stroke-width="0.667187" stroke-linecap="round" stroke-linejoin="round"/>
<path d="M304.839 153.922V199.119L187.605 267.826" stroke="white" stroke-width="0.667187" stroke-linecap="round" stroke-linejoin="round"/>
<path d="M218.476 101.397L14.6797 222.549" stroke="white" stroke-width="0.667187" stroke-linecap="round" stroke-linejoin="round"/>
<path d="M216.776 118.522L12.7227 239.797" stroke="white" stroke-width="0.667187" stroke-linecap="round" stroke-linejoin="round"/>
<path d="M219.528 205.008C214.923 207.666 211.191 213.554 211.191 218.158C211.191 222.763 214.923 224.34 219.528 221.682C224.132 219.024 227.864 213.136 227.864 208.531C227.864 203.927 224.132 202.348 219.528 205.008Z" stroke="white" stroke-width="0.667187" stroke-linecap="round" stroke-linejoin="round"/>
<path d="M223.955 203.716C221.052 202.7 219.725 201.445 218.41 200.731C216.883 199.902 214.661 200.109 212.188 201.536C207.583 204.194 203.852 210.082 203.852 214.686C203.852 216.809 204.645 218.288 205.951 219.006C207.478 219.845 210.529 219.877 213.098 222.364" stroke="white" stroke-width="0.667187" stroke-linecap="round" stroke-linejoin="round"/>
<path d="M218.475 205.676L-35.3398 356.405" stroke="white" stroke-width="0.667187" stroke-linecap="round" stroke-linejoin="round"/>
<path d="M216.775 222.799L-37.2969 373.652" stroke="white" stroke-width="0.667187" stroke-linecap="round" stroke-linejoin="round"/>
<path d="M267.138 22.7778L278.32 29.7637L265.426 37.8194L252.531 29.7637L263.676 22.8014" stroke="white" stroke-width="0.667187" stroke-linecap="round" stroke-linejoin="round"/>
<path d="M267.137 28.3325C267.575 28.6396 267.846 29.062 267.846 29.5302C267.846 30.4652 266.762 31.2239 265.427 31.2239C264.09 31.2239 263.008 30.4652 263.008 29.5302C263.008 29.062 263.279 28.6396 263.716 28.3325" stroke="white" stroke-width="0.667187" stroke-linecap="round" stroke-linejoin="round"/>
<path d="M267.138 147.648L278.32 154.634L265.426 162.69L252.531 154.634L263.676 147.672" stroke="white" stroke-width="0.667187" stroke-linecap="round" stroke-linejoin="round"/>
<path d="M267.137 153.204C267.575 153.511 267.846 153.934 267.846 154.402C267.846 155.337 266.762 156.095 265.427 156.095C264.09 156.095 263.008 155.337 263.008 154.402C263.008 153.934 263.279 153.511 263.716 153.204" stroke="white" stroke-width="0.667187" stroke-linecap="round" stroke-linejoin="round"/>
<path d="M268.078 79.167L285.415 89.9987L265.424 102.488L245.434 89.9987L262.711 79.2045" stroke="white" stroke-width="0.667187" stroke-linecap="round" stroke-linejoin="round"/>
<path d="M268.079 87.7803C268.759 88.2554 269.179 88.9112 269.179 89.6365C269.179 91.087 267.499 92.2625 265.427 92.2625C263.356 92.2625 261.676 91.087 261.676 89.6365C261.676 88.9112 262.095 88.2554 262.775 87.7803" stroke="white" stroke-width="0.667187" stroke-linecap="round" stroke-linejoin="round"/>
<path d="M265.426 -48.5889V29.4494" stroke="white" stroke-width="0.667187" stroke-linecap="round" stroke-linejoin="round"/>
<path d="M265.426 39.7544V90.0214" stroke="white" stroke-width="0.667187" stroke-linecap="round" stroke-linejoin="round"/>
<path d="M265.424 56.0618C266.493 56.0618 267.36 55.195 267.36 54.1259C267.36 53.0567 266.493 52.1899 265.424 52.1899C264.355 52.1899 263.488 53.0567 263.488 54.1259C263.488 55.195 264.355 56.0618 265.424 56.0618Z" fill="white"/>
<path d="M265.426 104.228V154.495" stroke="white" stroke-width="0.667187" stroke-linecap="round" stroke-linejoin="round"/>
<path d="M265.426 164.237V196.62" stroke="white" stroke-width="0.667187" stroke-linecap="round" stroke-linejoin="round"/>
<path d="M265.424 121.504C266.493 121.504 267.36 120.637 267.36 119.568C267.36 118.499 266.493 117.632 265.424 117.632C264.355 117.632 263.488 118.499 263.488 119.568C263.488 120.637 264.355 121.504 265.424 121.504Z" fill="white"/>
<path d="M265.431 208.233C268.638 208.233 271.238 205.634 271.238 202.427C271.238 199.22 268.638 196.621 265.431 196.621C262.225 196.621 259.625 199.22 259.625 202.427C259.625 205.634 262.225 208.233 265.431 208.233Z" stroke="white" stroke-width="0.667187" stroke-linecap="round" stroke-linejoin="round"/>
<path d="M325.598 206.482L387.276 242.093C404.472 252.021 419.658 263.93 432.816 277.774C445.983 291.622 456.205 306.463 463.484 322.28C470.763 338.097 474.398 353.874 474.398 369.599C474.398 385.342 470.763 396.922 463.484 404.333C456.205 411.744 445.982 414.781 432.816 413.426C419.658 412.076 404.472 406.432 387.276 396.503L325.598 360.893V206.482ZM385.068 354.641C396.242 361.092 405.173 363.054 411.868 360.511C418.555 357.981 421.902 350.903 421.902 339.289C421.902 327.675 418.554 316.731 411.868 306.48C405.173 296.224 396.242 287.855 385.068 281.403L377.654 277.122V350.36L385.068 354.641Z" stroke="white" stroke-width="0.667187" stroke-linecap="round" stroke-linejoin="round"/>
<path d="M295.371 224.549L357.049 260.159C374.246 270.088 389.432 281.996 402.589 295.84C415.757 309.688 425.979 324.53 433.258 340.347C440.537 356.164 444.171 371.94 444.171 387.665C444.171 403.409 440.537 414.988 433.258 422.399C425.979 429.81 415.755 432.847 402.589 431.493C389.432 430.142 374.246 424.498 357.049 414.57L295.371 378.959V224.549ZM354.84 372.709C366.014 379.16 374.945 381.121 381.64 378.579C388.327 376.049 391.674 368.971 391.674 357.357C391.674 345.743 388.326 334.799 381.64 324.548C374.945 314.291 366.014 305.923 354.84 299.471L347.426 295.19V368.428L354.84 372.709Z" stroke="white" stroke-width="0.667187" stroke-linecap="round" stroke-linejoin="round" stroke-dasharray="0.67 2"/>
<path d="M268.512 240.9L330.19 276.511C347.386 286.439 362.573 298.348 375.73 312.192C388.897 326.04 399.119 340.881 406.398 356.698C413.677 372.515 417.312 388.292 417.312 404.017C417.312 419.76 413.677 431.339 406.398 438.751C399.119 446.162 388.896 449.199 375.73 447.844C362.573 446.494 347.386 440.85 330.19 430.921L268.512 395.311V240.9ZM327.982 389.059C339.156 395.51 348.087 397.472 354.782 394.929C361.469 392.399 364.816 385.321 364.816 373.707C364.816 362.093 361.469 351.149 354.782 340.898C348.087 330.642 339.156 322.273 327.982 315.821L320.568 311.54V384.778L327.982 389.059Z" stroke="white" stroke-width="0.667187" stroke-linecap="round" stroke-linejoin="round"/>
<path d="M241.508 257.166L303.186 292.776C320.382 302.705 335.569 314.613 348.726 328.457C361.894 342.305 372.115 357.147 379.394 372.964C386.673 388.781 390.308 404.557 390.308 420.283C390.308 436.026 386.673 447.605 379.394 455.016C372.115 462.427 361.892 465.464 348.726 464.11C335.569 462.759 320.382 457.116 303.186 447.187L241.508 411.577V257.166ZM300.977 405.326C312.15 411.777 321.081 413.739 327.777 411.196C334.464 408.666 337.811 401.588 337.811 389.974C337.811 378.36 334.463 367.416 327.777 357.165C321.081 346.909 312.15 338.54 300.977 332.088L293.563 327.807V401.045L300.977 405.326Z" stroke="white" stroke-width="0.667187" stroke-linecap="round" stroke-linejoin="round" stroke-dasharray="0.67 2"/>
<path d="M353.143 240.385C353.885 240.813 354.486 241.761 354.486 242.503C354.486 243.245 353.884 243.498 353.143 243.07C352.401 242.642 351.801 241.694 351.801 240.952C351.799 240.211 352.401 239.957 353.143 240.385Z" fill="white"/>
<path d="M335.319 240.188C336.061 240.616 336.662 241.564 336.662 242.306C336.662 243.048 336.06 243.301 335.319 242.873C334.577 242.445 333.977 241.497 333.977 240.755C333.977 240.013 334.578 239.76 335.319 240.188Z" fill="white"/>
<path d="M349.737 224.407C350.479 224.835 351.08 225.783 351.08 226.525C351.08 227.267 350.478 227.52 349.737 227.092C348.995 226.664 348.395 225.717 348.395 224.974C348.395 224.232 348.995 223.979 349.737 224.407Z" fill="white"/>
<path d="M331.952 225.598C332.694 226.026 333.294 226.974 333.294 227.716C333.294 228.458 332.693 228.711 331.952 228.283C331.21 227.855 330.609 226.907 330.609 226.165C330.609 225.423 331.21 225.17 331.952 225.598Z" fill="white"/>
<path d="M360.327 270.036C361.069 270.464 361.669 271.412 361.669 272.154C361.669 272.896 361.068 273.149 360.327 272.721C359.585 272.293 358.984 271.345 358.984 270.603C358.984 269.862 359.586 269.608 360.327 270.036Z" fill="white"/>
<path d="M342.507 269.84C343.249 270.268 343.849 271.216 343.849 271.958C343.849 272.7 343.247 272.953 342.507 272.525C341.764 272.097 341.164 271.149 341.164 270.407C341.164 269.665 341.764 269.411 342.507 269.84Z" fill="white"/>
<path d="M356.925 254.058C357.667 254.487 358.267 255.434 358.267 256.176C358.267 256.919 357.665 257.171 356.925 256.743C356.182 256.315 355.582 255.368 355.582 254.625C355.582 253.885 356.182 253.63 356.925 254.058Z" fill="white"/>
<path d="M339.135 255.249C339.878 255.677 340.478 256.625 340.478 257.367C340.478 258.109 339.876 258.362 339.135 257.934C338.393 257.506 337.793 256.558 337.793 255.816C337.792 255.075 338.393 254.821 339.135 255.249Z" fill="white"/>
<path d="M370.928 301.932C371.671 302.36 372.271 303.307 372.271 304.049C372.271 304.792 371.669 305.045 370.928 304.617C370.186 304.188 369.586 303.241 369.586 302.499C369.586 301.758 370.186 301.503 370.928 301.932Z" fill="white"/>
<path d="M367.522 285.952C368.264 286.38 368.865 287.328 368.865 288.07C368.865 288.812 368.263 289.065 367.522 288.637C366.78 288.209 366.18 287.261 366.18 286.519C366.18 285.778 366.781 285.524 367.522 285.952Z" fill="white"/>
<path d="M334.35 291.091C335.092 291.519 335.693 292.467 335.693 293.209C335.693 293.951 335.091 294.204 334.35 293.776C333.608 293.348 333.008 292.4 333.008 291.658C333.008 290.917 333.608 290.663 334.35 291.091Z" fill="white"/>
<path d="M341.073 308.767C341.815 309.195 342.415 310.143 342.415 310.885C342.415 311.628 341.814 311.88 341.073 311.452C340.332 311.024 339.73 310.077 339.73 309.334C339.729 308.594 340.331 308.339 341.073 308.767Z" fill="white"/>
<path d="M394.565 256.001C395.307 256.429 395.908 257.377 395.908 258.119C395.908 258.861 395.306 259.114 394.565 258.686C393.823 258.258 393.223 257.31 393.223 256.568C393.223 255.826 393.823 255.573 394.565 256.001Z" fill="white"/>
<path d="M376.741 255.803C377.483 256.231 378.083 257.179 378.083 257.921C378.083 258.663 377.482 258.916 376.741 258.488C375.999 258.06 375.398 257.113 375.398 256.37C375.398 255.628 376 255.375 376.741 255.803Z" fill="white"/>
<path d="M373.366 241.213C374.108 241.641 374.708 242.589 374.708 243.331C374.708 244.073 374.107 244.326 373.366 243.898C372.624 243.47 372.023 242.522 372.023 241.78C372.023 241.04 372.624 240.785 373.366 241.213Z" fill="white"/>
<path d="M401.757 285.652C402.499 286.08 403.099 287.028 403.099 287.77C403.099 288.512 402.497 288.765 401.757 288.337C401.014 287.909 400.414 286.961 400.414 286.219C400.414 285.477 401.014 285.224 401.757 285.652Z" fill="white"/>
<path d="M398.346 269.674C399.089 270.102 399.689 271.049 399.689 271.792C399.689 272.534 399.087 272.787 398.346 272.359C397.604 271.931 397.004 270.983 397.004 270.241C397.004 269.499 397.604 269.244 398.346 269.674Z" fill="white"/>
<path d="M380.565 270.865C381.307 271.293 381.908 272.24 381.908 272.983C381.908 273.725 381.306 273.978 380.565 273.55C379.823 273.122 379.223 272.174 379.223 271.432C379.221 270.691 379.823 270.437 380.565 270.865Z" fill="white"/>
<path d="M438.882 288.092C439.624 288.52 440.224 289.468 440.224 290.21C440.224 290.952 439.622 291.205 438.882 290.777C438.139 290.349 437.539 289.401 437.539 288.659C437.539 287.918 438.141 287.664 438.882 288.092Z" fill="white"/>
<path d="M421.061 287.894C421.803 288.322 422.404 289.27 422.404 290.012C422.404 290.754 421.802 291.007 421.061 290.579C420.319 290.151 419.719 289.203 419.719 288.461C419.719 287.719 420.319 287.466 421.061 287.894Z" fill="white"/>
<path d="M417.69 273.305C418.432 273.733 419.033 274.68 419.033 275.423C419.033 276.165 418.431 276.418 417.69 275.99C416.948 275.562 416.348 274.614 416.348 273.872C416.348 273.131 416.949 272.877 417.69 273.305Z" fill="white"/>
<path d="M447.042 317.743C447.784 318.171 448.384 319.118 448.384 319.861C448.384 320.603 447.782 320.856 447.042 320.428C446.3 319.999 445.699 319.052 445.699 318.31C445.698 317.569 446.3 317.314 447.042 317.743Z" fill="white"/>
<path d="M429.221 317.546C429.964 317.974 430.564 318.921 430.564 319.664C430.564 320.406 429.962 320.659 429.221 320.231C428.479 319.802 427.879 318.855 427.879 318.113C427.879 317.372 428.481 317.117 429.221 317.546Z" fill="white"/>
<path d="M442.663 301.765C443.405 302.193 444.005 303.14 444.005 303.883C444.005 304.625 443.404 304.878 442.663 304.45C441.921 304.022 441.32 303.074 441.32 302.332C441.32 301.589 441.922 301.337 442.663 301.765Z" fill="white"/>
<path d="M424.882 302.955C425.624 303.383 426.224 304.331 426.224 305.073C426.224 305.815 425.622 306.068 424.882 305.64C424.139 305.212 423.539 304.264 423.539 303.522C423.539 302.781 424.141 302.527 424.882 302.955Z" fill="white"/>
<path d="M359.823 316.795C360.565 317.223 361.165 318.171 361.165 318.913C361.165 319.655 360.564 319.908 359.823 319.48C359.082 319.052 358.48 318.104 358.48 317.362C358.48 316.62 359.082 316.367 359.823 316.795Z" fill="white"/>
<path d="M325.595 206.482L136.012 319.243V333.883" stroke="white" stroke-width="0.667187" stroke-linecap="round" stroke-linejoin="round"/>
<path d="M221.073 289.369L234.136 298.079L221.073 318.239L207.848 310.175L221.073 289.369Z" stroke="white" stroke-width="0.667187" stroke-linecap="round" stroke-linejoin="round"/>
<path d="M221.036 296.304L227.823 300.829L221.036 311.304L214.164 307.114L221.036 296.304Z" stroke="white" stroke-width="0.667187" stroke-linecap="round" stroke-linejoin="round"/>
<path d="M220.992 268.695V289.368" stroke="white" stroke-width="0.667187" stroke-linecap="round" stroke-linejoin="round"/>
<path d="M28.102 30.7841C29.0126 30.7841 29.7509 30.0459 29.7509 29.1352C29.7509 28.2246 29.0126 27.4863 28.102 27.4863C27.1913 27.4863 26.4531 28.2246 26.4531 29.1352C26.4531 30.0459 27.1913 30.7841 28.102 30.7841Z" fill="white"/>
<path d="M8.89885 30.7841C9.8095 30.7841 10.5478 30.0459 10.5478 29.1352C10.5478 28.2246 9.8095 27.4863 8.89885 27.4863C7.9882 27.4863 7.25 28.2246 7.25 29.1352C7.25 30.0459 7.9882 30.7841 8.89885 30.7841Z" fill="white"/>
<path d="M66.5239 30.7841C67.4346 30.7841 68.1728 30.0459 68.1728 29.1352C68.1728 28.2246 67.4346 27.4863 66.5239 27.4863C65.6133 27.4863 64.875 28.2246 64.875 29.1352C64.875 30.0459 65.6133 30.7841 66.5239 30.7841Z" fill="white"/>
<path d="M47.313 30.7841C48.2236 30.7841 48.9618 30.0459 48.9618 29.1352C48.9618 28.2246 48.2236 27.4863 47.313 27.4863C46.4023 27.4863 45.6641 28.2246 45.6641 29.1352C45.6641 30.0459 46.4023 30.7841 47.313 30.7841Z" fill="white"/>
<path d="M8.90275 12.8871C9.8134 12.8871 10.5517 12.1489 10.5517 11.2382C10.5517 10.3276 9.8134 9.58936 8.90275 9.58936C7.99211 9.58936 7.25391 10.3276 7.25391 11.2382C7.25391 12.1489 7.99211 12.8871 8.90275 12.8871Z" fill="white"/>
<path d="M28.1137 12.8871C29.0243 12.8871 29.7626 12.1489 29.7626 11.2382C29.7626 10.3276 29.0243 9.58936 28.1137 9.58936C27.203 9.58936 26.4648 10.3276 26.4648 11.2382C26.4648 12.1489 27.203 12.8871 28.1137 12.8871Z" fill="white"/>
<path d="M47.3052 12.8871C48.2158 12.8871 48.954 12.1489 48.954 11.2382C48.954 10.3276 48.2158 9.58936 47.3052 9.58936C46.3945 9.58936 45.6562 10.3276 45.6562 11.2382C45.6562 12.1489 46.3945 12.8871 47.3052 12.8871Z" fill="white"/>
<path d="M66.52 12.8871C67.4306 12.8871 68.1688 12.1489 68.1688 11.2382C68.1688 10.3276 67.4306 9.58936 66.52 9.58936C65.6093 9.58936 64.8711 10.3276 64.8711 11.2382C64.8711 12.1489 65.6093 12.8871 66.52 12.8871Z" fill="white"/>
<path d="M85.7231 12.8871C86.6338 12.8871 87.372 12.1489 87.372 11.2382C87.372 10.3276 86.6338 9.58936 85.7231 9.58936C84.8125 9.58936 84.0742 10.3276 84.0742 11.2382C84.0742 12.1489 84.8125 12.8871 85.7231 12.8871Z" fill="white"/>
<path d="M104.938 12.8871C105.849 12.8871 106.587 12.1489 106.587 11.2382C106.587 10.3276 105.849 9.58936 104.938 9.58936C104.027 9.58936 103.289 10.3276 103.289 11.2382C103.289 12.1489 104.027 12.8871 104.938 12.8871Z" fill="white"/>
</g>
<defs>
<clipPath id="clip0_4213_11808">
<rect width="474" height="323" fill="white"/>
</clipPath>
</defs>
</svg>
