<svg width="575" height="358" viewBox="0 0 575 358" fill="none" xmlns="http://www.w3.org/2000/svg">
<g clip-path="url(#clip0_3553_38928)">
<path d="M523.738 354.806C523.738 354.806 514.002 138.362 512.143 118.685C510.285 99.0077 507.632 86.4149 507.632 86.4149C507.632 86.4149 515.065 57.293 523.738 38.4032C532.411 19.5135 536.747 15.5783 536.747 15.5783C536.747 15.5783 538.915 14.791 541.083 14.791C543.251 14.791 545.419 15.5783 545.419 15.5783C545.419 15.5783 549.756 19.5135 558.428 38.4032C567.099 57.293 574.533 86.4149 574.533 86.4149C574.533 86.4149 571.88 99.0077 570.022 118.685C568.163 138.362 558.427 354.806 558.427 354.806" stroke="white" stroke-width="0.687568" stroke-miterlimit="10"/>
<path d="M574.533 86.4148C574.533 86.4148 558.398 84.053 541.083 84.053C523.768 84.053 507.633 86.4148 507.633 86.4148" stroke="white" stroke-width="0.687568" stroke-miterlimit="10"/>
<path d="M572.166 77.7458C572.166 77.7458 558.399 75.8584 541.083 75.8584C523.768 75.8584 510.001 77.7458 510.001 77.7458" stroke="white" stroke-width="0.687568" stroke-miterlimit="10"/>
<path d="M561.9 46.6309C561.9 46.6309 552.991 45.187 541.083 45.187C529.176 45.187 520.265 46.6309 520.265 46.6309" stroke="white" stroke-width="0.687568" stroke-miterlimit="10"/>
<path d="M543.553 11.8836L542.382 5.57861H539.905L538.689 11.8836" stroke="white" stroke-width="0.687568" stroke-miterlimit="10" stroke-linecap="round" stroke-linejoin="round"/>
<path d="M533.156 195.661C533.156 199.443 536.25 202.537 540.032 202.537H542.132C545.914 202.537 549.008 199.443 549.008 195.661V120.549C549.008 116.767 545.914 113.673 542.132 113.673H540.032C536.25 113.673 533.156 116.767 533.156 120.549V195.661Z" stroke="white" stroke-width="0.687568" stroke-miterlimit="10" stroke-linecap="round" stroke-linejoin="round"/>
<path d="M536.24 195.034C536.24 197.345 538.129 199.234 540.44 199.234H541.722C544.032 199.234 545.922 197.345 545.922 195.034V121.175C545.922 118.865 544.032 116.975 541.722 116.975H540.44C538.129 116.975 536.24 118.865 536.24 121.175V195.034Z" stroke="white" stroke-width="0.687568" stroke-miterlimit="10" stroke-linecap="round" stroke-linejoin="round"/>
<path d="M545.922 147.297H536.24" stroke="white" stroke-width="0.687568" stroke-miterlimit="10" stroke-linecap="round" stroke-linejoin="round"/>
<path d="M461.039 354.805V96.1069C461.039 93.7966 459.149 91.907 456.839 91.907H456.162C453.852 91.907 451.962 93.7966 451.962 96.1069V354.805" stroke="white" stroke-width="0.687568" stroke-miterlimit="10" stroke-linecap="round" stroke-linejoin="round"/>
<path d="M445.729 354.806V96.8589C445.729 94.1361 443.686 91.9072 441.191 91.9072" stroke="white" stroke-width="0.687568" stroke-miterlimit="10" stroke-linecap="round" stroke-linejoin="round"/>
<path d="M467.275 354.806V96.8589C467.275 94.1361 469.317 91.9072 471.812 91.9072" stroke="white" stroke-width="0.687568" stroke-miterlimit="10" stroke-linecap="round" stroke-linejoin="round"/>
<path d="M471.812 354.806V75.2451H441.191V354.806" stroke="white" stroke-width="0.687568" stroke-miterlimit="10" stroke-linecap="round" stroke-linejoin="round"/>
<path d="M441.191 31.4995H471.812V70.8238H441.191V31.4995Z" stroke="white" stroke-width="0.687568" stroke-miterlimit="10" stroke-linecap="round" stroke-linejoin="round"/>
<path d="M469.787 27.6961C469.787 27.6961 469.787 22.7869 469.787 16.7294C469.787 10.6719 463.839 5.7627 456.501 5.7627C449.164 5.7627 443.215 10.6719 443.215 16.7294C443.215 22.7869 443.459 27.6961 443.459 27.6961" stroke="white" stroke-width="0.687568" stroke-miterlimit="10" stroke-linecap="round" stroke-linejoin="round"/>
<path d="M468.002 35.4897V66.8325" stroke="white" stroke-width="0.687568" stroke-miterlimit="10" stroke-linecap="round" stroke-linejoin="round"/>
<path d="M463.4 35.4897V66.8325" stroke="white" stroke-width="0.687568" stroke-miterlimit="10" stroke-linecap="round" stroke-linejoin="round"/>
<path d="M458.801 35.4897V66.8325" stroke="white" stroke-width="0.687568" stroke-miterlimit="10" stroke-linecap="round" stroke-linejoin="round"/>
<path d="M454.199 35.4897V66.8325" stroke="white" stroke-width="0.687568" stroke-miterlimit="10" stroke-linecap="round" stroke-linejoin="round"/>
<path d="M449.6 35.4897V66.8325" stroke="white" stroke-width="0.687568" stroke-miterlimit="10" stroke-linecap="round" stroke-linejoin="round"/>
<path d="M445 35.4897V66.8325" stroke="white" stroke-width="0.687568" stroke-miterlimit="10" stroke-linecap="round" stroke-linejoin="round"/>
<path d="M415.252 318.124C415.252 318.124 400.349 315.762 384.356 315.762C368.363 315.762 353.46 318.124 353.46 318.124" stroke="white" stroke-width="0.687568" stroke-miterlimit="10"/>
<path d="M352.678 354.805C352.678 354.805 356.561 331.58 353.192 315.13C349.823 298.68 364.141 288.036 364.141 274.488C364.141 260.941 368.518 255.134 384.356 255.134C400.194 255.134 404.57 260.941 404.57 274.488C404.57 288.036 418.889 298.68 415.52 315.13C412.151 331.58 416.033 354.805 416.033 354.805" stroke="white" stroke-width="0.687568" stroke-miterlimit="10" stroke-linecap="round" stroke-linejoin="round"/>
<path d="M391.924 250.741V31.2061L387.6 9.59131H381.116L376.793 31.2061V250.741" stroke="white" stroke-width="0.687568" stroke-miterlimit="10" stroke-linecap="round" stroke-linejoin="round"/>
<path d="M381.955 10.0898C381.955 13.452 381.955 20.8973 381.955 23.8996C381.955 27.5907 381.314 29.3922 376.791 31.2062" stroke="white" stroke-width="0.687568" stroke-miterlimit="10" stroke-linecap="round" stroke-linejoin="round"/>
<path d="M386.76 10.0898C386.76 13.452 386.76 20.8973 386.76 23.8996C386.76 27.5907 387.401 29.3922 391.924 31.2062" stroke="white" stroke-width="0.687568" stroke-miterlimit="10" stroke-linecap="round" stroke-linejoin="round"/>
<path d="M338.205 354.806C343.969 347.12 348.292 333.91 338.205 312.535C329.954 295.05 314.668 272.186 314.668 215.986C314.668 159.785 314.668 92.8675 314.668 92.8675L307.462 87.375V229.436" stroke="white" stroke-width="0.687568" stroke-miterlimit="10" stroke-linecap="round" stroke-linejoin="round"/>
<path d="M273.838 229.435V70.3425L267.594 65.1582V317.819" stroke="white" stroke-width="0.687568" stroke-miterlimit="10" stroke-linecap="round" stroke-linejoin="round"/>
<path d="M307.463 234.205C307.463 231.053 304.885 228.475 301.733 228.475H279.568C276.417 228.475 273.839 231.053 273.839 234.205V302.963C273.839 306.114 276.417 308.692 279.568 308.692H301.733C304.885 308.692 307.463 306.114 307.463 302.963V234.205Z" stroke="white" stroke-width="0.687568" stroke-miterlimit="10" stroke-linecap="round" stroke-linejoin="round"/>
<path d="M278.639 238.376C278.639 239.007 279.155 239.522 279.785 239.522H301.751C302.381 239.522 302.896 239.007 302.896 238.376V236.826C302.896 236.196 302.381 235.68 301.751 235.68H279.785C279.155 235.68 278.639 236.196 278.639 236.826V238.376Z" stroke="white" stroke-width="0.687568" stroke-miterlimit="10" stroke-linecap="round" stroke-linejoin="round"/>
<path d="M278.639 248.705C278.639 249.335 279.155 249.851 279.785 249.851H301.751C302.381 249.851 302.896 249.335 302.896 248.705V247.154C302.896 246.524 302.381 246.008 301.751 246.008H279.785C279.155 246.008 278.639 246.524 278.639 247.154V248.705Z" stroke="white" stroke-width="0.687568" stroke-miterlimit="10" stroke-linecap="round" stroke-linejoin="round"/>
<path d="M278.639 259.032C278.639 259.662 279.155 260.178 279.785 260.178H301.751C302.381 260.178 302.896 259.662 302.896 259.032V257.481C302.896 256.851 302.381 256.335 301.751 256.335H279.785C279.155 256.335 278.639 256.851 278.639 257.481V259.032Z" stroke="white" stroke-width="0.687568" stroke-miterlimit="10" stroke-linecap="round" stroke-linejoin="round"/>
<path d="M278.639 269.359C278.639 269.99 279.155 270.505 279.785 270.505H301.751C302.381 270.505 302.896 269.99 302.896 269.359V267.809C302.896 267.179 302.381 266.663 301.751 266.663H279.785C279.155 266.663 278.639 267.179 278.639 267.809V269.359Z" stroke="white" stroke-width="0.687568" stroke-miterlimit="10" stroke-linecap="round" stroke-linejoin="round"/>
<path d="M278.639 279.687C278.639 280.317 279.155 280.833 279.785 280.833H301.751C302.381 280.833 302.896 280.317 302.896 279.687V278.136C302.896 277.506 302.381 276.99 301.751 276.99H279.785C279.155 276.99 278.639 277.506 278.639 278.136V279.687Z" stroke="white" stroke-width="0.687568" stroke-miterlimit="10" stroke-linecap="round" stroke-linejoin="round"/>
<path d="M278.639 290.014C278.639 290.644 279.155 291.16 279.785 291.16H301.751C302.381 291.16 302.896 290.644 302.896 290.014V288.463C302.896 287.833 302.381 287.317 301.751 287.317H279.785C279.155 287.317 278.639 287.833 278.639 288.463V290.014Z" stroke="white" stroke-width="0.687568" stroke-miterlimit="10" stroke-linecap="round" stroke-linejoin="round"/>
<path d="M278.639 300.341C278.639 300.971 279.155 301.487 279.785 301.487H301.751C302.381 301.487 302.896 300.971 302.896 300.341V298.79C302.896 298.16 302.381 297.645 301.751 297.645H279.785C279.155 297.645 278.639 298.16 278.639 298.79V300.341Z" stroke="white" stroke-width="0.687568" stroke-miterlimit="10" stroke-linecap="round" stroke-linejoin="round"/>
<path d="M333.16 339.674C329.976 339.674 327.396 337.094 327.396 333.91C327.396 330.727 329.976 328.146 333.16 328.146C336.343 328.146 338.924 330.727 338.924 333.91C338.924 337.094 336.343 339.674 333.16 339.674Z" stroke="white" stroke-width="0.687568" stroke-miterlimit="10" stroke-linecap="round" stroke-linejoin="round"/>
<path d="M329.559 354.805L307.462 319.926H266.393C266.393 319.926 264.471 341.596 272.878 354.805" stroke="white" stroke-width="0.687568" stroke-miterlimit="10" stroke-linecap="round" stroke-linejoin="round"/>
<path d="M306.021 226.433V43.0624L300.287 38.3789V224.993" stroke="white" stroke-width="0.687568" stroke-miterlimit="10" stroke-linecap="round" stroke-linejoin="round"/>
<path d="M275.176 225.836V42.4652L280.91 37.7817V224.396" stroke="white" stroke-width="0.687568" stroke-miterlimit="10" stroke-linecap="round" stroke-linejoin="round"/>
<path d="M306.021 38.3788V6.31641L276.6 22.347V37.7818" stroke="white" stroke-width="0.687568" stroke-miterlimit="10" stroke-linecap="round" stroke-linejoin="round"/>
<path d="M128.775 354.805C132.874 350.76 136.6 346.178 139.813 340.981C164.311 301.353 143.236 240.048 140.354 234.885C137.472 229.721 133.688 226.599 125.599 225.895C117.63 225.201 56.2336 218.493 31.0147 247.673C8.20811 274.063 8.97362 331.979 9.86173 354.541" stroke="white" stroke-width="0.687568" stroke-miterlimit="10" stroke-linecap="round"/>
<path d="M126.845 254.399C121.141 254.399 116.517 249.775 116.517 244.071C116.517 238.368 121.141 233.744 126.845 233.744C132.548 233.744 137.172 238.368 137.172 244.071C137.172 249.775 132.548 254.399 126.845 254.399Z" stroke="white" stroke-width="0.687568" stroke-miterlimit="10" stroke-linecap="round"/>
<path d="M126.845 251.512C122.735 251.512 119.404 248.181 119.404 244.071C119.404 239.962 122.735 236.631 126.845 236.631C130.954 236.631 134.285 239.962 134.285 244.071C134.285 248.181 130.954 251.512 126.845 251.512Z" stroke="white" stroke-width="0.687568" stroke-miterlimit="10" stroke-linecap="round"/>
<path d="M26.3036 349.987C20.6 349.987 15.9763 345.363 15.9763 339.66C15.9763 333.956 20.6 329.332 26.3036 329.332C32.0072 329.332 36.6309 333.956 36.6309 339.66C36.6309 345.363 32.0072 349.987 26.3036 349.987Z" stroke="white" stroke-width="0.687568" stroke-miterlimit="10" stroke-linecap="round"/>
<path d="M82.3818 341.031C58.9048 341.031 39.8729 321.999 39.8729 298.522C39.8729 275.045 58.9048 256.013 82.3818 256.013C105.859 256.013 124.891 275.045 124.891 298.522C124.891 321.999 105.859 341.031 82.3818 341.031Z" stroke="white" stroke-width="0.687568" stroke-miterlimit="10" stroke-linecap="round"/>
<path d="M82.3829 344.274C57.1148 344.274 36.631 323.79 36.631 298.522C36.631 273.254 57.1148 252.771 82.3829 252.771C107.651 252.771 128.135 273.254 128.135 298.522C128.135 323.79 107.651 344.274 82.3829 344.274Z" stroke="white" stroke-width="0.687568" stroke-miterlimit="10" stroke-linecap="round"/>
<path d="M82.3819 350.273C53.8007 350.273 30.631 327.104 30.631 298.522C30.631 269.941 53.8007 246.771 82.3819 246.771C110.963 246.771 134.133 269.941 134.133 298.522C134.133 327.104 110.963 350.273 82.3819 350.273Z" stroke="white" stroke-width="0.687568" stroke-miterlimit="10" stroke-linecap="round"/>
<path d="M26.3035 347.1C22.1942 347.1 18.8629 343.769 18.8629 339.66C18.8629 335.55 22.1942 332.219 26.3035 332.219C30.4128 332.219 33.7441 335.55 33.7441 339.66C33.7441 343.769 30.4128 347.1 26.3035 347.1Z" stroke="white" stroke-width="0.687568" stroke-miterlimit="10" stroke-linecap="round"/>
<path d="M140.172 244.072C150.491 276.233 153.738 316.043 134.132 341.032C130.252 345.977 125.466 350.473 120.013 354.495" stroke="white" stroke-width="0.687568" stroke-miterlimit="10" stroke-linecap="round"/>
<path d="M102.344 13.6873V221.255" stroke="white" stroke-width="0.687568" stroke-miterlimit="10" stroke-linecap="round"/>
<path d="M130.205 13.6873V222.696" stroke="white" stroke-width="0.687568" stroke-miterlimit="10" stroke-linecap="round"/>
<path d="M102.347 5.10059H130.207C130.207 12.7933 123.971 19.0307 116.277 19.0307C108.583 19.0307 102.347 12.7933 102.347 5.10059Z" stroke="white" stroke-width="0.687568" stroke-miterlimit="10" stroke-linecap="round"/>
<path d="M105.708 22.8733H115.314" stroke="white" stroke-width="0.687568" stroke-miterlimit="10" stroke-linecap="round"/>
<path d="M105.707 26.9092H110.99" stroke="white" stroke-width="0.687568" stroke-miterlimit="10" stroke-linecap="round"/>
<path d="M105.707 30.9463H110.99" stroke="white" stroke-width="0.687568" stroke-miterlimit="10" stroke-linecap="round"/>
<path d="M105.707 34.9824H110.99" stroke="white" stroke-width="0.687568" stroke-miterlimit="10" stroke-linecap="round"/>
<path d="M105.707 39.0186H110.99" stroke="white" stroke-width="0.687568" stroke-miterlimit="10" stroke-linecap="round"/>
<path d="M105.708 43.0557H115.314" stroke="white" stroke-width="0.687568" stroke-miterlimit="10" stroke-linecap="round"/>
<path d="M105.707 47.0918H110.99" stroke="white" stroke-width="0.687568" stroke-miterlimit="10" stroke-linecap="round"/>
<path d="M105.707 51.1277H110.99" stroke="white" stroke-width="0.687568" stroke-miterlimit="10" stroke-linecap="round"/>
<path d="M105.707 55.1648H110.99" stroke="white" stroke-width="0.687568" stroke-miterlimit="10" stroke-linecap="round"/>
<path d="M105.707 59.2009H110.99" stroke="white" stroke-width="0.687568" stroke-miterlimit="10" stroke-linecap="round"/>
<path d="M105.708 63.2368H115.314" stroke="white" stroke-width="0.687568" stroke-miterlimit="10" stroke-linecap="round"/>
<path d="M105.707 67.2732H110.99" stroke="white" stroke-width="0.687568" stroke-miterlimit="10" stroke-linecap="round"/>
<path d="M105.707 71.3103H110.99" stroke="white" stroke-width="0.687568" stroke-miterlimit="10" stroke-linecap="round"/>
<path d="M105.707 75.3462H110.99" stroke="white" stroke-width="0.687568" stroke-miterlimit="10" stroke-linecap="round"/>
<path d="M105.707 79.3821H110.99" stroke="white" stroke-width="0.687568" stroke-miterlimit="10" stroke-linecap="round"/>
<path d="M105.708 83.4192H115.314" stroke="white" stroke-width="0.687568" stroke-miterlimit="10" stroke-linecap="round"/>
<path d="M105.707 87.4553H110.99" stroke="white" stroke-width="0.687568" stroke-miterlimit="10" stroke-linecap="round"/>
<path d="M105.707 91.4912H110.99" stroke="white" stroke-width="0.687568" stroke-miterlimit="10" stroke-linecap="round"/>
<path d="M105.707 95.5273H110.99" stroke="white" stroke-width="0.687568" stroke-miterlimit="10" stroke-linecap="round"/>
<path d="M105.707 99.5647H110.99" stroke="white" stroke-width="0.687568" stroke-miterlimit="10" stroke-linecap="round"/>
<path d="M105.708 103.601H115.314" stroke="white" stroke-width="0.687568" stroke-miterlimit="10" stroke-linecap="round"/>
<path d="M105.707 107.637H110.99" stroke="white" stroke-width="0.687568" stroke-miterlimit="10" stroke-linecap="round"/>
<path d="M105.707 111.674H110.99" stroke="white" stroke-width="0.687568" stroke-miterlimit="10" stroke-linecap="round"/>
<path d="M105.707 115.71H110.99" stroke="white" stroke-width="0.687568" stroke-miterlimit="10" stroke-linecap="round"/>
<path d="M105.707 119.746H110.99" stroke="white" stroke-width="0.687568" stroke-miterlimit="10" stroke-linecap="round"/>
<path d="M105.708 123.782H115.314" stroke="white" stroke-width="0.687568" stroke-miterlimit="10" stroke-linecap="round"/>
<path d="M105.707 127.819H110.99" stroke="white" stroke-width="0.687568" stroke-miterlimit="10" stroke-linecap="round"/>
<path d="M105.707 131.855H110.99" stroke="white" stroke-width="0.687568" stroke-miterlimit="10" stroke-linecap="round"/>
<path d="M105.707 135.891H110.99" stroke="white" stroke-width="0.687568" stroke-miterlimit="10" stroke-linecap="round"/>
<path d="M105.707 139.928H110.99" stroke="white" stroke-width="0.687568" stroke-miterlimit="10" stroke-linecap="round"/>
<path d="M105.708 143.964H115.314" stroke="white" stroke-width="0.687568" stroke-miterlimit="10" stroke-linecap="round"/>
<path d="M105.707 148H110.99" stroke="white" stroke-width="0.687568" stroke-miterlimit="10" stroke-linecap="round"/>
<path d="M105.707 152.038H110.99" stroke="white" stroke-width="0.687568" stroke-miterlimit="10" stroke-linecap="round"/>
<path d="M105.707 156.073H110.99" stroke="white" stroke-width="0.687568" stroke-miterlimit="10" stroke-linecap="round"/>
<path d="M105.707 160.11H110.99" stroke="white" stroke-width="0.687568" stroke-miterlimit="10" stroke-linecap="round"/>
<path d="M105.708 164.146H115.314" stroke="white" stroke-width="0.687568" stroke-miterlimit="10" stroke-linecap="round"/>
<path d="M105.707 168.183H110.99" stroke="white" stroke-width="0.687568" stroke-miterlimit="10" stroke-linecap="round"/>
<path d="M105.707 172.219H110.99" stroke="white" stroke-width="0.687568" stroke-miterlimit="10" stroke-linecap="round"/>
<path d="M105.707 176.255H110.99" stroke="white" stroke-width="0.687568" stroke-miterlimit="10" stroke-linecap="round"/>
<path d="M105.707 180.292H110.99" stroke="white" stroke-width="0.687568" stroke-miterlimit="10" stroke-linecap="round"/>
<path d="M105.708 184.328H115.314" stroke="white" stroke-width="0.687568" stroke-miterlimit="10" stroke-linecap="round"/>
<path d="M105.707 188.364H110.99" stroke="white" stroke-width="0.687568" stroke-miterlimit="10" stroke-linecap="round"/>
<path d="M105.707 192.4H110.99" stroke="white" stroke-width="0.687568" stroke-miterlimit="10" stroke-linecap="round"/>
<path d="M105.707 196.437H110.99" stroke="white" stroke-width="0.687568" stroke-miterlimit="10" stroke-linecap="round"/>
<path d="M105.707 200.473H110.99" stroke="white" stroke-width="0.687568" stroke-miterlimit="10" stroke-linecap="round"/>
<path d="M105.708 204.509H115.314" stroke="white" stroke-width="0.687568" stroke-miterlimit="10" stroke-linecap="round"/>
<path d="M105.707 208.546H110.99" stroke="white" stroke-width="0.687568" stroke-miterlimit="10" stroke-linecap="round"/>
<path d="M105.707 212.583H110.99" stroke="white" stroke-width="0.687568" stroke-miterlimit="10" stroke-linecap="round"/>
<path d="M105.707 216.618H110.99" stroke="white" stroke-width="0.687568" stroke-miterlimit="10" stroke-linecap="round"/>
<path d="M105.707 220.655H110.99" stroke="white" stroke-width="0.687568" stroke-miterlimit="10" stroke-linecap="round"/>
<path d="M192.99 291.955C192.99 295.737 196.084 298.831 199.866 298.831H201.966C205.748 298.831 208.842 295.737 208.842 291.955V216.843C208.842 213.061 205.748 209.967 201.966 209.967H199.866C196.084 209.967 192.99 213.061 192.99 216.843V291.955Z" stroke="white" stroke-width="0.687568" stroke-miterlimit="10" stroke-linecap="round" stroke-linejoin="round"/>
<path d="M222.708 354.495C222.708 354.495 222.708 296.43 222.708 222.696C222.708 148.963 223.429 115.158 227.03 103.6C230.632 92.0424 252.969 73.4712 241.441 47.0915C232.249 26.0588 212.523 17.3302 204.903 14.6555C202.967 13.976 202.316 14.9031 203.133 16.8741C206.338 24.6138 214.353 43.9975 215.502 47.0927C216.944 50.9751 216.403 60.7019 200.416 67.8996C185.904 74.4338 174.974 70.4287 172.271 65.1448C170.626 61.9281 163.622 45.2935 160.647 38.1978C159.818 36.2211 158.569 35.8647 157.489 37.4576C153.21 43.7614 143.469 61.2245 152.097 79.3843C162.904 102.132 180.197 102.852 180.197 132.393C180.197 161.935 178.755 354.807 178.755 354.807" stroke="white" stroke-width="0.687568" stroke-miterlimit="10" stroke-linecap="round"/>
<path d="M207.217 19.0308C219.826 25.3953 233.876 37.9526 238.199 51.1276C242.523 64.3025 239.04 84.4184 215.357 95.5272C193.021 106.005 175.368 101.409 162.038 87.454" stroke="white" stroke-width="0.687568" stroke-miterlimit="10" stroke-linecap="round"/>
</g>
<defs>
<clipPath id="clip0_3553_38928">
<rect width="565.701" height="350.392" fill="white" transform="matrix(-1 0 0 1 574.885 4.75684)"/>
</clipPath>
</defs>
</svg>
