<svg width="63" height="83" viewBox="0 0 63 83" fill="none" xmlns="http://www.w3.org/2000/svg">
<mask id="mask0_385_68" style="mask-type:luminance" maskUnits="userSpaceOnUse" x="0" y="0" width="63" height="83">
<path d="M62.6622 0H0V82.4928H62.6622V0Z" fill="white"/>
</mask>
<g mask="url(#mask0_385_68)">
<path d="M41.4892 17.7319C39.0425 17.7319 37.2812 19.7795 37.2812 22.2156C37.2812 24.6519 39.0425 26.697 41.4892 26.697C43.9402 26.697 45.6968 24.6519 45.6968 22.2156C45.6968 19.7795 43.9402 17.7319 41.4892 17.7319Z" fill="white"/>
<path d="M0 0V25.8181L13.136 39.2648V34.4444H16.8975V43.1182L19.5694 45.8528V34.4444H22.44L29.7397 43.1613V34.4444H33.5012V49.9227H30.584L23.3287 41.4319V49.7037H23.3305V49.9004L22.6591 49.9047L1.27928 27.9358L1.28179 64.0793H62.6622V0H0ZM16.8975 29.9536H13.136V14.4754H16.8975V29.9536ZM25.355 26.0148H23.3287V29.9536H19.5694V14.4754H25.6667C29.607 14.4754 32.0756 16.663 32.0756 20.1457C32.0756 23.7614 29.4966 26.0148 25.355 26.0148ZM48.5689 37.8818H43.7577V49.9227H40.0009V37.8818H35.1739V34.4444H48.5689V37.8818ZM41.4904 30.2723C36.9266 30.2723 33.479 26.7222 33.479 22.2156C33.479 17.7092 36.9266 14.1567 41.4904 14.1567C46.0759 14.1567 49.5258 17.7092 49.5258 22.2156C49.5258 26.7222 46.0759 30.2723 41.4904 30.2723Z" fill="white"/>
<path d="M25.5767 17.8677H23.3291V22.6475H25.5767C27.2498 22.6475 28.315 21.669 28.315 20.1457C28.315 18.756 27.2498 17.8677 25.5767 17.8677Z" fill="white"/>
<path d="M12.1244 79.0437C12.1244 81.0569 10.4618 82.2284 7.34731 82.2284H0.98999V70.6772H7.02488C10.1393 70.6772 11.5922 71.9474 11.5922 73.6969C11.5922 74.7693 11.0596 75.6605 10.0267 76.1884C11.3497 76.6838 12.1244 77.6737 12.1244 79.0437ZM4.73315 73.3996V75.116H6.50843C7.36344 75.116 7.75114 74.8192 7.75114 74.2582C7.75114 73.6969 7.36344 73.3996 6.50843 73.3996H4.73315ZM8.28372 78.5983C8.28372 78.0039 7.86375 77.6906 7.02488 77.6906H4.73315V79.5053H7.02488C7.86375 79.5053 8.28372 79.1919 8.28372 78.5983Z" fill="white"/>
<path d="M14.1572 77.0305V70.6772H17.966V76.915C17.966 78.6805 18.627 79.3405 19.6929 79.3405C20.7577 79.3405 21.419 78.6805 21.419 76.915V70.6772H25.1633V77.0305C25.1633 80.496 23.1297 82.4926 19.6595 82.4926C16.1907 82.4926 14.1572 80.496 14.1572 77.0305Z" fill="white"/>
<path d="M31.5033 70.6777H27.6956V82.229H31.5033V70.6777Z" fill="white"/>
<path d="M34.1353 70.6772H37.943V79.2084H43.0425V82.2284H34.1353V70.6772Z" fill="white"/>
<path d="M44.8799 70.6777H50.4468C54.2233 70.6777 56.8213 72.8723 56.8213 76.4529C56.8213 80.0339 54.2233 82.229 50.4468 82.229H44.8799V70.6777ZM50.2861 79.1925C51.8835 79.1925 52.9806 78.2191 52.9806 76.4529C52.9806 74.6877 51.8835 73.7136 50.2861 73.7136H48.6876V79.1925H50.2861Z" fill="white"/>
<path d="M58.4001 80.2485C58.4001 78.9776 59.3204 78.1362 60.5312 78.1362C61.7405 78.1362 62.6608 78.9776 62.6608 80.2485C62.6608 81.5029 61.7405 82.3938 60.5312 82.3938C59.3204 82.3938 58.4001 81.5029 58.4001 80.2485Z" fill="white"/>
</g>
</svg>
