<?xml version="1.0" encoding="utf-8"?>
<!-- Generator: Adobe Illustrator 17.0.0, SVG Export Plug-In . SVG Version: 6.00 Build 0)  -->
<!DOCTYPE svg PUBLIC "-//W3C//DTD SVG 1.1//EN" "http://www.w3.org/Graphics/SVG/1.1/DTD/svg11.dtd">
<svg version="1.1" id="Layer_1" xmlns="http://www.w3.org/2000/svg" xmlns:xlink="http://www.w3.org/1999/xlink" x="0px" y="0px"
	 width="107.557px" height="19.192px" viewBox="0 0 107.557 19.192" enable-background="new 0 0 107.557 19.192"
	 xml:space="preserve">
<g>
	<path fill="#FFFFFF" d="M14.72,12.122c0,3.993-3.031,6.975-6.638,6.975c-1.29,0.017-2.559-0.333-3.656-1.011
		C2.986,18.499,1.498,18.726,0,18.76V0.673C1.498,0.639,2.986,0.413,4.426,0v6.206c1.084-0.713,2.358-1.082,3.656-1.058
		C11.689,5.147,14.72,8.129,14.72,12.122 M10.342,12.122c0.08-1.751-1.276-3.236-3.026-3.316c-0.034-0.001-0.067-0.002-0.1-0.003
		c-1.071-0.024-2.096,0.436-2.79,1.251v4.137c0.694,0.816,1.718,1.276,2.79,1.252C9.044,15.441,10.342,13.998,10.342,12.122"/>
	<path fill="#FFFFFF" d="M68.45,12.122c0,3.993-3.031,6.975-6.638,6.975c-1.29,0.017-2.559-0.333-3.657-1.011
		c-1.44,0.413-2.927,0.639-4.425,0.673V0.673c1.498-0.034,2.986-0.26,4.425-0.673v6.206c1.085-0.713,2.359-1.082,3.657-1.058
		C65.419,5.147,68.45,8.129,68.45,12.122 M64.072,12.122c0.08-1.751-1.276-3.236-3.026-3.316c-0.034-0.001-0.067-0.002-0.1-0.003
		c-1.073-0.031-2.101,0.43-2.791,1.251v4.137c0.69,0.822,1.718,1.282,2.791,1.252C62.774,15.441,64.072,13.998,64.072,12.122"/>
	<path fill="#FFFFFF" d="M83.313,12.074c0,4.088-3.03,7.118-7.264,7.118c-4.233,0-7.215-3.03-7.215-7.118
		c0-4.089,3.031-6.975,7.215-6.975C80.235,5.099,83.313,8.081,83.313,12.074 M79.08,12.122c0-1.732-1.203-3.175-2.982-3.175
		c-1.674-0.002-3.032,1.354-3.034,3.026c0,0.05,0.001,0.098,0.005,0.148c0,1.78,1.202,3.223,3.03,3.223
		C77.926,15.345,79.08,13.902,79.08,12.122"/>
	<path fill="#FFFFFF" d="M88.316,5.436v1.396c1.285-1.098,2.929-1.681,4.618-1.635v4.233c-2.165,0.096-3.559,0.673-4.618,1.732v7.6
		H83.89V6.109C85.389,6.075,86.876,5.849,88.316,5.436"/>
	<path fill="#FFFFFF" d="M35.211,6.205c-1.513-0.036-3.016-0.263-4.474-0.673V18.76h4.474v-8.514
		c0.673-0.866,1.347-1.202,2.02-1.202c1.443,0,2.405,0.913,2.405,2.79v6.927h4.425v-7.6c0.008-0.337-0.008-0.675-0.048-1.011
		c0.474-0.677,1.242-1.088,2.068-1.106c1.443,0,2.358,0.913,2.358,2.79v6.927h4.522v-7.6c0-3.801-2.405-6.157-5.58-6.157
		c-1.749-0.077-3.453,0.567-4.714,1.779c-1.049-1.174-2.564-1.824-4.137-1.779C37.31,4.953,36.118,5.385,35.211,6.205"/>
	<path fill="#FFFFFF" d="M29.872,18.76c-1.518-0.034-3.023-0.276-4.474-0.722c-1.098,0.678-2.365,1.029-3.656,1.011
		c-3.608,0-6.638-3.031-6.638-6.975s3.03-6.974,6.638-6.974c1.29-0.018,2.558,0.333,3.656,1.01c1.513-0.036,3.016-0.263,4.474-0.673
		V18.76z M25.398,14.142v-4.137c-0.681-0.833-1.715-1.297-2.79-1.251c-1.753,0.025-3.154,1.466-3.129,3.219
		c0,0.034,0.001,0.067,0.002,0.1c-0.079,1.752,1.276,3.237,3.028,3.316c0.033,0.002,0.067,0.003,0.1,0.003
		C23.684,15.438,24.717,14.975,25.398,14.142"/>
	<path fill="#FFFFFF" d="M107.557,18.76c-1.518-0.034-3.023-0.276-4.474-0.722c-1.096,0.684-2.365,1.034-3.656,1.011
		c-3.608,0-6.638-3.031-6.638-6.975s3.03-6.974,6.638-6.974c1.29-0.024,2.56,0.327,3.656,1.01c1.513-0.036,3.016-0.263,4.474-0.673
		V18.76z M103.083,14.142v-4.137c-0.681-0.833-1.715-1.297-2.79-1.251c-1.834,0-3.318,1.487-3.317,3.321
		c0,1.831,1.485,3.316,3.317,3.317C101.368,15.438,102.402,14.975,103.083,14.142"/>
</g>
</svg>
