<?xml version="1.0" encoding="utf-8"?>
<!-- Generator: Adobe Illustrator 17.0.0, SVG Export Plug-In . SVG Version: 6.00 Build 0)  -->
<!DOCTYPE svg PUBLIC "-//W3C//DTD SVG 1.1//EN" "http://www.w3.org/Graphics/SVG/1.1/DTD/svg11.dtd">
<svg version="1.1" id="Layer_1" xmlns="http://www.w3.org/2000/svg" xmlns:xlink="http://www.w3.org/1999/xlink" x="0px" y="0px"
	 width="103.067px" height="33.373px" viewBox="0 0 103.067 33.373" enable-background="new 0 0 103.067 33.373"
	 xml:space="preserve">
<g>
	<path fill="#FFFFFF" d="M92.782,20.569c-5.67,0-10.285-4.613-10.285-10.283c0-5.671,4.614-10.285,10.285-10.285
		c5.67,0,10.285,4.613,10.285,10.285C103.067,15.956,98.453,20.569,92.782,20.569 M92.782,4.546c-3.165,0-5.739,2.575-5.739,5.739
		c0,3.163,2.575,5.738,5.739,5.738c3.164,0,5.739-2.575,5.739-5.738C98.522,7.121,95.947,4.546,92.782,4.546"/>
	<path fill="#B2B2B2" d="M26.916,29.995v-0.019c0-1.838,1.407-3.397,3.387-3.397c0.985,0,1.641,0.234,2.242,0.667
		c0.113,0.085,0.235,0.243,0.235,0.47c0,0.309-0.255,0.572-0.573,0.572c-0.151,0-0.264-0.066-0.357-0.131
		c-0.422-0.309-0.883-0.516-1.596-0.516c-1.21,0-2.13,1.06-2.13,2.318v0.018c0,1.351,0.892,2.346,2.233,2.346
		c0.619,0,1.183-0.197,1.586-0.497v-1.229h-1.294c-0.282,0-0.516-0.216-0.516-0.498c0-0.281,0.234-0.506,0.516-0.506h1.829
		c0.329,0,0.582,0.254,0.582,0.582v1.754c0,0.328-0.131,0.562-0.403,0.732c-0.564,0.375-1.351,0.713-2.337,0.713
		C28.266,33.373,26.916,31.908,26.916,29.995"/>
	<path fill="#B2B2B2" d="M42.378,32.51l-2.44-5.443c-0.131-0.291-0.357-0.47-0.685-0.47h-0.057c-0.328,0-0.563,0.179-0.694,0.47
		l-2.44,5.443c-0.046,0.094-0.075,0.178-0.075,0.263c0,0.3,0.234,0.534,0.534,0.534c0.244,0,0.441-0.131,0.535-0.366l0.553-1.266
		h3.191l0.534,1.229c0.104,0.243,0.292,0.403,0.564,0.403c0.31,0,0.544-0.243,0.544-0.553C42.444,32.678,42.425,32.594,42.378,32.51
		 M38.052,30.651l1.153-2.655l1.154,2.655H38.052z"/>
	<path fill="#B2B2B2" d="M45.567,27.236c0-0.319,0.254-0.582,0.582-0.582h0.122c0.252,0,0.422,0.131,0.534,0.31l1.99,3.115
		l1.998-3.125c0.123-0.197,0.292-0.3,0.526-0.3h0.122c0.328,0,0.582,0.263,0.582,0.582v5.499c0,0.318-0.254,0.572-0.582,0.572
		c-0.31,0-0.573-0.263-0.573-0.572v-3.942l-1.605,2.412c-0.121,0.188-0.272,0.3-0.488,0.3c-0.206,0-0.357-0.112-0.479-0.3
		l-1.595-2.393v3.932c0,0.319-0.254,0.563-0.573,0.563c-0.319,0-0.562-0.243-0.562-0.563V27.236z"/>
	<path fill="#B2B2B2" d="M55.652,27.217c0-0.319,0.254-0.573,0.582-0.573c0.319,0,0.573,0.254,0.573,0.573v5.518
		c0,0.319-0.254,0.573-0.573,0.573c-0.328,0-0.582-0.254-0.582-0.573V27.217z"/>
	<path fill="#B2B2B2" d="M60.437,27.236c0-0.319,0.254-0.582,0.582-0.582h0.122c0.281,0,0.44,0.14,0.6,0.337l3.284,4.251v-4.035
		c0-0.309,0.254-0.562,0.564-0.562c0.318,0,0.572,0.254,0.572,0.562v5.518c0,0.319-0.243,0.573-0.562,0.573h-0.046
		c-0.273,0-0.443-0.14-0.601-0.347l-3.378-4.372v4.166c0,0.309-0.254,0.563-0.564,0.563c-0.318,0-0.572-0.254-0.572-0.563V27.236z"
		/>
	<path fill="#B2B2B2" d="M69.435,29.995v-0.019c0-1.838,1.407-3.397,3.387-3.397c0.985,0,1.641,0.234,2.242,0.667
		c0.113,0.085,0.235,0.243,0.235,0.47c0,0.309-0.255,0.572-0.573,0.572c-0.151,0-0.264-0.066-0.357-0.131
		c-0.422-0.309-0.883-0.516-1.596-0.516c-1.21,0-2.13,1.06-2.13,2.318v0.018c0,1.351,0.892,2.346,2.233,2.346
		c0.619,0,1.183-0.197,1.586-0.497v-1.229H73.17c-0.282,0-0.516-0.216-0.516-0.498c0-0.281,0.234-0.506,0.516-0.506h1.829
		c0.329,0,0.582,0.254,0.582,0.582v1.754c0,0.328-0.131,0.562-0.403,0.732c-0.564,0.375-1.351,0.713-2.337,0.713
		C70.785,33.373,69.435,31.908,69.435,29.995"/>
	<path fill="#FFFFFF" d="M76.478,18.297V2.274C76.478,1.019,75.46,0,74.205,0c-1.255,0-2.273,1.019-2.273,2.274v16.023
		c0,1.255,1.017,2.273,2.273,2.273C75.46,20.569,76.478,19.552,76.478,18.297 M17.725,0c-1.255,0-2.273,1.019-2.273,2.274v5.738
		H4.545V2.274C4.545,1.019,3.528,0,2.273,0S0,1.019,0,2.274v16.023c0,1.255,1.017,2.273,2.273,2.273s2.273-1.017,2.273-2.273v-5.739
		h10.907v5.739c0,1.255,1.018,2.273,2.273,2.273c1.255,0,2.273-1.017,2.273-2.273V2.274C19.998,1.019,18.98,0,17.725,0
		 M46.017,2.273C46.017,1.017,44.999,0,43.744,0H28.29c-1.255,0-2.273,1.017-2.273,2.273c0,1.255,1.018,2.273,2.273,2.273h15.454
		C44.999,4.545,46.017,3.528,46.017,2.273 M46.017,18.3c0-1.255-1.017-2.273-2.273-2.273H28.29c-1.255,0-2.273,1.017-2.273,2.273
		c0,1.255,1.018,2.273,2.273,2.273h15.454C44.999,20.573,46.017,19.555,46.017,18.3 M42.397,10.287c0-1.255-1.017-2.273-2.273-2.273
		H28.29c-1.255,0-2.273,1.017-2.273,2.273c0,1.255,1.018,2.273,2.273,2.273h11.834C41.38,12.56,42.397,11.542,42.397,10.287
		 M63.64,16.027h-7.058V2.273C56.582,1.017,55.564,0,54.309,0c-1.255,0-2.273,1.017-2.273,2.273v16.024v0.001V18.3
		c0,1.255,1.017,2.273,2.273,2.273h9.331c1.255,0,2.273-1.017,2.273-2.273C65.912,17.045,64.895,16.027,63.64,16.027"/>
</g>
</svg>
