<svg width="68" height="90" viewBox="0 0 68 90" fill="none" xmlns="http://www.w3.org/2000/svg">
<g clip-path="url(#clip0_1244_12171)">
<mask id="mask0_1244_12171" style="mask-type:luminance" maskUnits="userSpaceOnUse" x="0" y="0" width="68" height="90">
<path d="M68 0H0V89.45H68V0Z" fill="white"/>
</mask>
<g mask="url(#mask0_1244_12171)">
<path d="M45.0234 19.2275C42.3683 19.2275 40.457 21.4478 40.457 24.0893C40.457 26.7311 42.3683 28.9487 45.0234 28.9487C47.6832 28.9487 49.5894 26.7311 49.5894 24.0893C49.5894 21.4478 47.6832 19.2275 45.0234 19.2275Z" fill="white"/>
<path d="M0 0V27.9955L14.255 42.5763V37.3494H18.3369V46.7547L21.2364 49.7199V37.3494H24.3515L32.2731 46.8014V37.3494H36.355V54.133H33.1893L25.3159 44.9262V53.8956H25.3179V54.1089L24.5893 54.1135L1.38826 30.2918L1.39098 69.4836H68V0H0ZM18.3369 32.4798H14.255V15.6962H18.3369V32.4798ZM27.5149 28.2088H25.3159V32.4798H21.2364V15.6962H27.8531C32.1291 15.6962 34.808 18.0683 34.808 21.8447C34.808 25.7654 32.0093 28.2088 27.5149 28.2088ZM52.7062 41.0767H47.4852V54.133H43.4084V41.0767H38.1702V37.3494H52.7062V41.0767ZM45.0247 32.8254C40.0722 32.8254 36.3309 28.9759 36.3309 24.0892C36.3309 19.2028 40.0722 15.3506 45.0247 15.3506C50.0009 15.3506 53.7446 19.2028 53.7446 24.0892C53.7446 28.9759 50.0009 32.8254 45.0247 32.8254Z" fill="white"/>
<path d="M27.7555 19.3745H25.3164V24.5574H27.7555C29.5711 24.5574 30.727 23.4964 30.727 21.8447C30.727 20.3377 29.5711 19.3745 27.7555 19.3745Z" fill="white"/>
<path d="M13.1571 85.7103C13.1571 87.8933 11.3528 89.1636 7.97308 89.1636H1.07422V76.6382H7.62319C11.0029 76.6382 12.5795 78.0155 12.5795 79.9125C12.5795 81.0754 12.0016 82.0417 10.8807 82.6142C12.3164 83.1513 13.1571 84.2247 13.1571 85.7103ZM5.13624 79.5902V81.4513H7.06275C7.99059 81.4513 8.41131 81.1295 8.41131 80.5212C8.41131 79.9125 7.99059 79.5902 7.06275 79.5902H5.13624ZM8.98926 85.2273C8.98926 84.5828 8.53352 84.243 7.62319 84.243H5.13624V86.2108H7.62319C8.53352 86.2108 8.98926 85.871 8.98926 85.2273Z" fill="white"/>
<path d="M15.3633 83.5273V76.6382H19.4965V83.402C19.4965 85.3164 20.2138 86.0321 21.3705 86.0321C22.526 86.0321 23.2437 85.3164 23.2437 83.402V76.6382H27.3069V83.5273C27.3069 87.285 25.1001 89.45 21.3343 89.45C17.57 89.45 15.3633 87.285 15.3633 83.5273Z" fill="white"/>
<path d="M34.1868 76.6384H30.0547V89.1639H34.1868V76.6384Z" fill="white"/>
<path d="M37.043 76.6382H41.1751V85.8889H46.709V89.1636H37.043V76.6382Z" fill="white"/>
<path d="M48.7031 76.6384H54.7442C58.8424 76.6384 61.6617 79.018 61.6617 82.9006C61.6617 86.7836 58.8424 89.1639 54.7442 89.1639H48.7031V76.6384ZM54.5698 85.8713C56.3033 85.8713 57.4939 84.8158 57.4939 82.9006C57.4939 80.9865 56.3033 79.9303 54.5698 79.9303H52.8352V85.8713H54.5698Z" fill="white"/>
<path d="M63.375 87.0165C63.375 85.6384 64.3736 84.7261 65.6876 84.7261C66.9999 84.7261 67.9986 85.6384 67.9986 87.0165C67.9986 88.3767 66.9999 89.3427 65.6876 89.3427C64.3736 89.3427 63.375 88.3767 63.375 87.0165Z" fill="white"/>
</g>
</g>
<defs>
<clipPath id="clip0_1244_12171">
<rect width="68" height="90" fill="white"/>
</clipPath>
</defs>
</svg>
