<?xml version="1.0" encoding="utf-8"?>
<!-- Generator: Adobe Illustrator 17.0.0, SVG Export Plug-In . SVG Version: 6.00 Build 0)  -->
<!DOCTYPE svg PUBLIC "-//W3C//DTD SVG 1.1//EN" "http://www.w3.org/Graphics/SVG/1.1/DTD/svg11.dtd">
<svg version="1.1" id="Layer_1" xmlns="http://www.w3.org/2000/svg" xmlns:xlink="http://www.w3.org/1999/xlink" x="0px" y="0px"
	 width="134.759px" height="37.059px" viewBox="0 0 134.759 37.059" enable-background="new 0 0 134.759 37.059"
	 xml:space="preserve">
<path fill="#B2B2B2" d="M12.218,30.393c0,0,1.658,6.897,4.738,6.659c3.08-0.238,7.582-8.562,16.11-9.989
	c7.333-1.227,15.612-2.388,17.937-2.69H9.269L12.218,30.393z"/>
<path fill="#B2B2B2" d="M0,24.373c0.931,0.765,8.112,6.528,13.639,6.972c5.923,0.475,18.594-6.958,19.779-6.958L0,24.373z"/>
<path fill="#FFFFFF" d="M14.406,31.794c-0.126-0.041-0.251-0.085-0.379-0.12c-0.858-0.235-1.486-0.771-1.941-1.519
	c-0.293-0.483-0.569-0.977-0.838-1.474c-0.986-1.829-2.533-2.942-4.476-3.552c-1.15-0.36-2.327-0.578-3.524-0.692
	c-0.156-0.015-0.314-0.037-0.497-0.059h4.02c0.759,0,1.519,0.001,2.277-0.001c0.098,0,0.214,0.036,0.25-0.118
	c0.007-0.029,0.087-0.054,0.135-0.06c1.016-0.113,1.866-0.592,2.644-1.219c1.165-0.939,2.046-2.121,2.828-3.382
	c1.236-1.993,2.166-4.132,2.98-6.326c1.039-2.803,1.858-5.675,2.584-8.574c0.309-1.23,0.714-2.431,1.422-3.5
	c0.206-0.31,0.462-0.6,0.744-0.841c0.525-0.452,1.118-0.467,1.708-0.103c0.476,0.295,0.835,0.712,1.154,1.163
	c0.841,1.191,1.414,2.518,1.94,3.866c0.888,2.274,1.538,4.623,2.221,6.964c0.221,0.759,0.601,1.477,0.939,2.198
	c1.05,2.233,2.204,4.411,3.677,6.396c0.524,0.704,1.14,1.34,1.717,2.004c0.055,0.065,0.14,0.105,0.21,0.156v1.269
	c-0.796-0.005-1.592-0.014-2.388-0.008c-0.128,0-0.267,0.038-0.38,0.101c-0.797,0.437-1.583,0.895-2.381,1.328
	c-2.932,1.591-5.911,3.088-9.005,4.342c-1.537,0.624-3.094,1.185-4.718,1.543c-0.342,0.076-0.685,0.144-1.028,0.216
	C15.671,31.92,15.023,31.962,14.406,31.794"/>
<path fill="#FFFFFF" d="M51.003,24.373c-1.34-0.32-7.489-5.298-14.018-12.769c-1.826-2.087-7.471-9.513-13.868-0.237
	c-5.932,8.602-8.604,12.322-10.472,13.007h38.359V24.373z"/>
<path fill="#B2B2B2" d="M35.814,24.373c-2.806-1.676-7.172-15.884-7.71-17.293c-1.877,0.372-4.302,2.447-5.935,4.763
	C15.675,21.05,10.323,24.358,8.458,24.358c-0.231,0,0.362,0.006,1.553,0.015H35.814z"/>
<path fill="#FFFFFF" d="M54.753,18.286c0-4.979,1.373-6.963,5.343-6.963c1.647,0,2.8,0.405,3.678,0.974l-1.117,1.745
	c-0.603-0.35-1.39-0.68-2.653-0.68c-2.104,0-3.129,0.955-3.129,4.961c0,3.821,0.732,5.089,3.056,5.089
	c2.012,0,2.453-0.901,2.453-3.858v-0.422h-3.02v-1.856h5.051v1.929c0,4.539-0.898,6.027-4.666,6.027
	C55.814,25.231,54.753,22.787,54.753,18.286"/>
<path fill="#FFFFFF" d="M69.227,25.101c-1.83,0-2.489-0.607-2.489-2.59V10.956h2.05v11.298c0,0.809,0.055,1.029,1.171,1.029v1.801
	C69.849,25.101,69.648,25.101,69.227,25.101"/>
<path fill="#FFFFFF" d="M71.88,19.921c0-3.086,0.714-5.29,4.227-5.29c3.531,0,4.226,2.241,4.226,5.29
	c0,3.16-0.695,5.309-4.226,5.309C72.631,25.23,71.88,23.045,71.88,19.921 M78.267,19.995c0-2.02-0.202-3.436-2.159-3.436
	c-1.94,0-2.159,1.415-2.159,3.436c0,2.002,0.22,3.436,2.159,3.436C78.066,23.43,78.267,21.997,78.267,19.995"/>
<path fill="#FFFFFF" d="M82.622,10.955h2.03v4.759c0.475-0.716,1.317-1.084,2.891-1.084c3.038,0,3.403,2.498,3.403,5.29
	c0,2.848-0.421,5.291-3.476,5.291c-1.977,0-2.489-0.404-3.038-1.047l-0.311,0.991l-1.501-0.129V10.955H82.622z M88.88,20.013
	c0-2.076-0.22-3.454-1.994-3.454c-2.012,0-2.215,1.397-2.215,3.454c0,2.058,0.183,3.399,2.215,3.399
	C88.623,23.412,88.88,22.107,88.88,20.013"/>
<path fill="#FFFFFF" d="M93.29,11.452h2.068v2.223H93.29V11.452z M93.29,14.814h2.05v10.27h-2.05V14.814z"/>
<path fill="#FFFFFF" d="M97.664,21.997c0-2.939,1.683-3.767,5.252-3.767h0.403c-0.037-1.176-0.349-1.745-1.665-1.745
	c-1.099,0-1.959,0.258-2.544,0.551l-0.841-1.672c0.823-0.44,2.012-0.753,3.605-0.753c2.745,0,3.439,1.065,3.439,3.582v4.153
	c0,0.753,0.054,0.936,0.769,0.936v1.801c-0.201,0.018-0.403,0.018-0.585,0.018c-1.099,0-1.647-0.165-1.866-0.918
	c-0.586,0.753-1.483,1.011-2.874,1.011C98.339,25.193,97.664,23.945,97.664,21.997 M103.317,21.133v-1.249h-0.384
	c-2.379,0-3.313,0.258-3.313,1.892c0,1.305,0.512,1.709,1.574,1.709C102.383,23.485,103.317,23.008,103.317,21.133"/>
<path fill="#FFFFFF" d="M108.349,14.943l1.629-0.147l0.164,0.937c0.457-0.662,1.263-1.102,3.093-1.102
	c2.579,0,2.964,1.562,2.964,3.765v6.687h-2.05v-6.209c0-1.506-0.164-2.278-1.665-2.278c-1.812,0-2.086,0.993-2.086,3.014v5.475
	h-2.05V14.943z"/>
<path fill="#FFFFFF" d="M118.413,19.921c0-3.252,0.732-5.291,4.19-5.291c1.135,0,1.94,0.203,2.618,0.533l-0.897,1.783
	c-0.475-0.257-0.988-0.386-1.629-0.386c-1.738,0-2.196,1.102-2.196,3.417s0.421,3.454,2.232,3.454c0.752,0,1.317-0.221,1.83-0.461
	l0.788,1.581c-0.952,0.46-1.702,0.679-2.874,0.679C119.164,25.231,118.413,23.191,118.413,19.921"/>
<path fill="#FFFFFF" d="M126.977,19.921c0-3.214,0.823-5.29,4.154-5.29c3.641,0,3.659,2.296,3.623,6.283h-5.8
	c0.092,1.69,0.512,2.536,2.232,2.536c1.336,0,2.013-0.312,2.617-0.607l0.787,1.58c-0.841,0.46-1.884,0.79-3.513,0.79
	C127.636,25.212,126.977,23.192,126.977,19.921 M128.953,19.113h3.916c-0.018-1.672-0.074-2.663-1.793-2.663
	C129.429,16.449,129.027,17.404,128.953,19.113"/>
</svg>
