<svg width="81" height="90" viewBox="0 0 81 90" fill="none" xmlns="http://www.w3.org/2000/svg">
<g id="Frame 1000004630" clip-path="url(#clip0_4046_23417)">
<g id="Group 575">
<g id="Group 402">
<g id="nE9QzD_3_">
<path id="Vector 2" d="M32.7851 41.1056L29.6514 36.5642C29.5522 36.4203 29.499 36.2497 29.499 36.0749V31.0047C29.499 30.529 29.8847 30.1433 30.3604 30.1433H32.1915" stroke="#191B1D" stroke-width="2.19246" stroke-linecap="round"/>
<path id="Vector 7" d="M49.2156 41.1056L52.3373 36.8078C52.4441 36.6606 52.5017 36.4834 52.5017 36.3016V31.5528C52.5017 31.0771 52.1161 30.6914 51.6403 30.6914H49.8092" stroke="#191B1D" stroke-width="2.19246" stroke-linecap="round"/>
<path id="Vector 4" d="M33.2144 27.2977H38.7819C39.2566 27.2977 39.712 27.4864 40.0475 27.8223V27.8223C40.7464 28.5217 41.88 28.5217 42.5789 27.8223V27.8223C42.9145 27.4864 43.3698 27.2977 43.8445 27.2977H48.5619" stroke="#191B1D" stroke-width="2.19246" stroke-linecap="round"/>
<path id="Vector 5" d="M36.1229 39.7806V39.7806C36.1229 42.5666 34.353 45.0449 31.7177 45.9488L29.1482 46.8302C26.6081 47.7014 24.7488 49.8933 24.3034 52.5415L21.8978 66.8446C21.1467 71.3106 24.5894 75.3807 29.1182 75.3807H41.5371" stroke="#191B1D" stroke-width="2.19246" stroke-linecap="round"/>
<path id="Vector 6" d="M46.0563 39.7806V39.7806C46.0563 42.5666 47.8262 45.0449 50.4615 45.9488L53.031 46.8302C55.5711 47.7014 57.4304 49.8933 57.8758 52.5415L60.2814 66.8446C61.0325 71.3106 57.5898 75.3807 53.061 75.3807H40.6421" stroke="#191B1D" stroke-width="2.19246" stroke-linecap="round"/>
</g>
<rect id="Rectangle 40" x="32.8564" y="20.0774" width="16.4662" height="20.957" rx="8.23308" stroke="#191B1D" stroke-width="2.19246"/>
<rect id="Rectangle 41" x="7.53076" y="75.4255" width="66.9385" height="12.2697" rx="6.13486" stroke="#191B1D" stroke-width="2.19246"/>
<g id="Group 401">
<rect id="Rectangle 42" x="38.6733" y="16.0472" width="5.3694" height="7.16479" rx="2.6847" fill="#FCFEFF" stroke="#191B1D" stroke-width="2.19246"/>
<path id="Line 59" d="M41.3582 15.5994L41.3582 11.0319" stroke="#191B1D" stroke-width="2.19246" stroke-linecap="round"/>
</g>
<path id="Vector 8" d="M57.3329 57.2975H43.4735C36.4668 57.2975 30.7867 62.9775 30.7867 69.9842V69.9842C30.7867 76.991 25.1067 82.671 18.1 82.671H8.9646" stroke="#191B1D" stroke-width="2.19246" stroke-linecap="round"/>
</g>
<path id="Ellipse 57" d="M21.7237 44.9881C12.4875 34.4218 13.5656 18.3687 24.1319 9.13247C34.6981 -0.103795 50.7512 0.974372 59.9875 11.5406C68.5167 21.298 68.2502 35.7343 59.8388 45.1608" stroke="#FF135A" stroke-width="2.19246" stroke-linecap="round"/>
</g>
</g>
<defs>
<clipPath id="clip0_4046_23417">
<rect width="81" height="90" fill="white"/>
</clipPath>
</defs>
</svg>
