<svg width="95" height="29" viewBox="0 0 95 29" fill="none" xmlns="http://www.w3.org/2000/svg">
<path d="M66.2702 18.8582C65.9322 18.8582 65.6042 18.8582 65.2492 18.8582C65.2492 17.4292 65.2492 16.0042 65.2492 14.6042C64.7632 14.7792 64.2932 14.9482 63.8232 15.1172C63.1662 15.3542 62.9772 15.6212 62.9772 16.3172C62.9762 17.0642 62.9772 17.8112 62.9772 18.5582C62.9772 18.6462 62.9772 18.7332 62.9772 18.8392C62.6352 18.8392 62.3102 18.8392 61.9552 18.8392C61.9502 18.7592 61.9412 18.6752 61.9412 18.5912C61.9402 16.2052 61.9402 13.8192 61.9412 11.4342C61.9412 11.2902 61.9442 11.1442 61.9622 11.0012C62.0712 10.1452 62.5022 9.68318 63.3512 9.49918C63.8282 9.39518 64.3092 9.39118 64.7872 9.47818C65.7592 9.65418 66.2712 10.2182 66.2802 11.2222C66.3012 13.7442 66.2902 16.2662 66.2912 18.7892C66.2912 18.8042 66.2822 18.8192 66.2702 18.8582ZM62.9772 14.3002C63.1942 14.2052 63.3722 14.1152 63.5592 14.0472C63.9202 13.9152 64.2882 13.8012 64.6492 13.6702C65.0132 13.5382 65.2082 13.2552 65.2212 12.8832C65.2422 12.2902 65.2382 11.6962 65.2222 11.1032C65.2122 10.7342 65.0272 10.5162 64.6552 10.4662C64.3252 10.4222 63.9832 10.4152 63.6522 10.4482C63.2272 10.4912 63.0332 10.6932 63.0152 11.1252C62.9832 11.9022 62.9872 12.6802 62.9782 13.4572C62.9742 13.7362 62.9772 14.0142 62.9772 14.3002Z" fill="white"/>
<path d="M57.6934 14.8631C57.3704 14.9721 57.0574 15.0641 56.7544 15.1841C56.4654 15.2991 56.3184 15.5391 56.3124 15.8451C56.2984 16.4631 56.2984 17.0811 56.2954 17.7001C56.2934 18.1001 56.2954 18.5011 56.2954 18.9211C55.9424 18.9211 55.6124 18.9211 55.2574 18.9211C55.2574 18.8141 55.2574 18.7281 55.2574 18.6411C55.2574 16.2711 55.2514 13.9021 55.2634 11.5321C55.2654 11.1831 55.3224 10.8281 55.4014 10.4871C55.4974 10.0751 55.7634 9.76614 56.1524 9.59914C56.9734 9.24814 57.8114 9.24814 58.6354 9.57614C59.1844 9.79414 59.4924 10.2461 59.5274 10.8211C59.5754 11.5971 59.5744 12.3781 59.5584 13.1551C59.5464 13.7651 59.2854 14.2561 58.6814 14.5461C59.1494 15.9961 59.6154 17.4411 60.0964 18.9311C59.7444 18.9311 59.4204 18.9401 59.0974 18.9221C59.0464 18.9191 58.9814 18.8011 58.9574 18.7251C58.5674 17.5371 58.1834 16.3461 57.7974 15.1571C57.7674 15.0661 57.7334 14.9771 57.6934 14.8631ZM56.3114 14.2901C56.5384 14.1791 56.7514 14.0541 56.9794 13.9681C57.3154 13.8401 57.6614 13.7361 58.0054 13.6281C58.3174 13.5301 58.5074 13.3131 58.5174 13.0001C58.5384 12.3441 58.5424 11.6851 58.5154 11.0301C58.4984 10.6281 58.2724 10.4241 57.8694 10.3841C57.6084 10.3581 57.3414 10.3481 57.0804 10.3711C56.5304 10.4191 56.3254 10.6271 56.3144 11.1841C56.2944 12.1941 56.3014 13.2051 56.2974 14.2151C56.2954 14.2431 56.3074 14.2721 56.3114 14.2901Z" fill="white"/>
<path d="M37.3977 18.9111C37.0397 18.9111 36.7127 18.9111 36.3577 18.9111C36.3527 18.8241 36.3447 18.7391 36.3447 18.6541C36.3467 16.2201 36.3487 13.7871 36.3557 11.3531C36.3567 11.1381 36.3867 10.9201 36.4257 10.7081C36.5487 10.0441 36.9727 9.64714 37.6037 9.47914C38.2347 9.31014 38.8747 9.30314 39.5067 9.48914C40.2207 9.70014 40.6227 10.1881 40.6947 10.9301C40.7207 11.1931 40.7357 11.4581 40.7357 11.7231C40.7387 14.0201 40.7377 16.3171 40.7377 18.6141C40.7377 18.7081 40.7377 18.8021 40.7377 18.9091C40.3747 18.9091 40.0417 18.9091 39.6787 18.9091C39.6787 18.8081 39.6787 18.7141 39.6787 18.6211C39.6787 16.2361 39.6797 13.8501 39.6767 11.4651C39.6767 11.3131 39.6667 11.1601 39.6407 11.0101C39.5767 10.6371 39.4227 10.4461 39.0557 10.4121C38.6857 10.3771 38.3057 10.4001 37.9337 10.4331C37.6787 10.4561 37.5157 10.6411 37.4657 10.8891C37.4227 11.1001 37.4007 11.3181 37.4007 11.5331C37.3967 13.8861 37.3977 16.2401 37.3977 18.5931C37.3977 18.6951 37.3977 18.7971 37.3977 18.9111Z" fill="white"/>
<path d="M84.2693 9.52014C84.6033 9.52014 84.9133 9.52014 85.2663 9.52014C85.2663 9.62014 85.2663 9.72014 85.2663 9.81914C85.2663 12.1481 85.2663 14.4781 85.2663 16.8071C85.2663 17.1931 85.2653 17.1971 85.6253 17.3221C86.1633 17.5091 86.7023 17.6921 87.2413 17.8731C87.5863 17.9891 87.6443 17.9391 87.6443 17.5651C87.6433 14.9311 87.6433 12.2961 87.6443 9.66214C87.6443 9.62314 87.6483 9.58314 87.6513 9.52514C87.9793 9.52514 88.3033 9.52514 88.6613 9.52514C88.6613 9.61514 88.6613 9.70714 88.6613 9.80014C88.6593 12.2741 88.6563 14.7481 88.6543 17.2221C88.6543 17.4311 88.6633 17.6401 88.6603 17.8481C88.6463 18.6921 88.0133 19.2371 87.1993 19.0271C86.4493 18.8331 85.7123 18.5691 84.9923 18.2801C84.4653 18.0691 84.2823 17.5821 84.2723 17.0441C84.2593 16.3371 84.2693 15.6301 84.2693 14.9231C84.2693 13.2121 84.2693 11.5011 84.2693 9.79014C84.2693 9.70514 84.2693 9.61814 84.2693 9.52014Z" fill="white"/>
<path d="M72.9905 11.5981C72.6475 11.5981 72.3216 11.5981 71.9666 11.5981C71.9546 11.4661 71.9405 11.3341 71.9315 11.2011C71.8985 10.7291 71.7336 10.5171 71.2726 10.4631C70.9576 10.4261 70.6305 10.4271 70.3155 10.4651C69.8755 10.5171 69.7035 10.7231 69.6715 11.1651C69.6525 11.4291 69.6495 11.6941 69.6485 11.9591C69.6465 13.2361 69.6465 14.5131 69.6485 15.7901C69.6495 16.2151 69.6535 16.6411 69.6645 17.0661C69.6685 17.2091 69.6875 17.3541 69.7185 17.4951C69.7705 17.7351 69.9176 17.8911 70.1606 17.9521C70.5566 18.0511 70.9555 18.0591 71.3535 17.9751C71.7225 17.8971 71.8985 17.6791 71.9305 17.2781C71.9685 16.8071 71.9685 16.8071 72.4435 16.8071C72.6185 16.8071 72.7945 16.8071 72.9635 16.8071C73.1775 17.7251 72.6735 18.6101 71.8055 18.8711C71.0995 19.0831 70.3955 19.0681 69.6975 18.8411C69.0015 18.6141 68.6106 18.0221 68.6046 17.1741C68.5976 16.1701 68.6015 15.1661 68.6035 14.1621C68.6045 13.1741 68.5995 12.1861 68.6135 11.1991C68.6205 10.6931 68.7715 10.2341 69.1645 9.88414C69.4395 9.63914 69.7825 9.55314 70.1295 9.48014C70.6655 9.36714 71.1985 9.39014 71.7245 9.54414C72.5295 9.78014 72.9375 10.2891 72.9905 11.1301C72.9985 11.2801 72.9905 11.4321 72.9905 11.5981Z" fill="white"/>
<path d="M94.8681 17.8861C94.8681 18.2231 94.8681 18.5311 94.8681 18.8551C94.8101 18.8591 94.7641 18.8651 94.7181 18.8651C94.0991 18.8661 93.4811 18.8741 92.8621 18.8641C91.6181 18.8441 90.9631 18.2151 90.9491 16.9741C90.9291 15.1591 90.9431 13.3431 90.9451 11.5271C90.9451 11.3751 90.9611 11.2221 90.9801 11.0711C91.0931 10.1741 91.6381 9.62513 92.5511 9.57113C93.2961 9.52713 94.0441 9.55513 94.7911 9.55213C94.8131 9.55213 94.8351 9.56613 94.8681 9.57713C94.8681 9.88013 94.8681 10.1821 94.8681 10.5271C94.7721 10.5271 94.6801 10.5251 94.5881 10.5271C93.9141 10.5411 93.2401 10.5421 92.5671 10.5761C92.2191 10.5931 92.0581 10.7701 91.9831 11.1131C91.9691 11.1761 91.9511 11.2391 91.9501 11.3021C91.9451 11.9691 91.9431 12.6351 91.9401 13.3021C91.9401 13.3811 91.9401 13.4601 91.9401 13.5771C92.7461 13.5771 93.5341 13.5771 94.3331 13.5771C94.3331 13.9181 94.3331 14.2211 94.3331 14.5601C93.5411 14.5601 92.7521 14.5601 91.9401 14.5601C91.9401 15.1231 91.9351 15.6511 91.9421 16.1791C91.9471 16.5401 91.9511 16.9021 91.9871 17.2601C92.0231 17.6191 92.1521 17.7561 92.5091 17.8221C92.7601 17.8681 93.0191 17.8801 93.2751 17.8851C93.7961 17.8931 94.3181 17.8861 94.8681 17.8861Z" fill="white"/>
<path d="M50.0491 13.5832C50.8621 13.5832 51.6451 13.5832 52.4371 13.5832C52.4371 13.9202 52.4371 14.2292 52.4371 14.5642C51.6401 14.5642 50.8581 14.5642 50.0601 14.5642C50.0551 14.6682 50.0491 14.7462 50.0491 14.8242C50.0481 15.4832 50.0481 16.1412 50.0491 16.8002C50.0491 16.8882 50.0511 16.9772 50.0601 17.0652C50.1271 17.6712 50.3071 17.8472 50.9231 17.8652C51.5171 17.8832 52.1111 17.8802 52.7051 17.8862C52.7911 17.8872 52.8771 17.8862 52.9761 17.8862C52.9761 18.2202 52.9761 18.5292 52.9761 18.8532C52.9051 18.8572 52.8431 18.8642 52.7811 18.8642C52.1951 18.8652 51.6081 18.8682 51.0221 18.8642C49.7591 18.8542 49.0891 18.2752 49.0661 17.0242C49.0301 15.0732 49.0611 13.1212 49.0871 11.1702C49.0941 10.6382 49.2811 10.1412 49.7801 9.87017C50.0611 9.71717 50.3911 9.59317 50.7061 9.57317C51.4261 9.52717 52.1511 9.55217 52.8741 9.55017C52.9041 9.55017 52.9341 9.56117 52.9771 9.56817C52.9771 9.87717 52.9771 10.1792 52.9771 10.5262C52.8851 10.5262 52.7941 10.5242 52.7021 10.5262C52.0361 10.5392 51.3691 10.5372 50.7051 10.5722C50.3171 10.5922 50.1571 10.7702 50.0851 11.1562C50.0661 11.2582 50.0531 11.3632 50.0521 11.4672C50.0471 12.1562 50.0491 12.8462 50.0491 13.5832Z" fill="white"/>
<path d="M34.0987 9.56814C34.0987 9.87714 34.0987 10.1851 34.0987 10.5251C33.9917 10.5251 33.8987 10.5231 33.8047 10.5251C33.1307 10.5391 32.4567 10.5411 31.7837 10.5751C31.4517 10.5921 31.2347 10.7751 31.2157 11.0971C31.1667 11.9111 31.1617 12.7281 31.1387 13.5761C31.9707 13.5761 32.7537 13.5761 33.5487 13.5761C33.5487 13.9161 33.5487 14.2251 33.5487 14.5631C32.7597 14.5631 31.9767 14.5631 31.2117 14.5631C31.1857 14.6041 31.1697 14.6171 31.1697 14.6311C31.1767 15.4661 31.1677 16.3011 31.1987 17.1351C31.2177 17.6441 31.4057 17.8241 31.9207 17.8511C32.5537 17.8851 33.1887 17.8771 33.8227 17.8871C33.9017 17.8881 33.9817 17.8871 34.0807 17.8871C34.0807 18.2101 34.0807 18.5191 34.0807 18.8341C34.0757 18.8381 34.0627 18.8581 34.0507 18.8581C33.2647 18.8481 32.4727 18.8901 31.6937 18.8121C30.7197 18.7131 30.2057 18.1061 30.1857 17.1281C30.1637 16.0601 30.1727 14.9911 30.1727 13.9231C30.1727 13.0711 30.1687 12.2201 30.1847 11.3691C30.1937 10.9061 30.2787 10.4561 30.6137 10.0981C30.9457 9.74314 31.3747 9.58314 31.8417 9.56614C32.5557 9.54014 33.2717 9.55314 33.9867 9.55114C34.0177 9.54814 34.0487 9.55914 34.0987 9.56814Z" fill="white"/>
<path d="M45.4489 18.8541C45.0989 18.8541 44.7879 18.8541 44.4589 18.8541C44.4589 16.0831 44.4589 13.3231 44.4589 10.5341C43.8839 10.5341 43.3269 10.5341 42.7529 10.5341C42.7529 10.1961 42.7529 9.88713 42.7529 9.56213C44.2199 9.56213 45.6769 9.56213 47.1499 9.56213C47.1499 9.87913 47.1499 10.1871 47.1499 10.5251C46.5879 10.5251 46.0299 10.5251 45.4489 10.5251C45.4489 13.3131 45.4489 16.0731 45.4489 18.8541Z" fill="white"/>
<path d="M76.3222 18.8502C76.3222 16.0812 76.3222 13.3212 76.3222 10.5312C75.7482 10.5312 75.1912 10.5312 74.6182 10.5312C74.6182 10.1922 74.6182 9.88318 74.6182 9.56018C76.0872 9.56018 77.5442 9.56018 79.0162 9.56018C79.0162 9.88118 79.0162 10.1892 79.0162 10.5192C78.4562 10.5192 77.9052 10.5192 77.3222 10.5192C77.3222 13.3052 77.3222 16.0702 77.3222 18.8492C76.9722 18.8502 76.6562 18.8502 76.3222 18.8502Z" fill="white"/>
<path d="M81.9239 18.8652C81.6329 18.8652 81.3609 18.8662 81.0889 18.8642C81.0509 18.8642 81.0129 18.8562 80.9639 18.8502C80.9639 15.7522 80.9639 12.6672 80.9639 9.56915C81.2869 9.56915 81.5969 9.56915 81.9239 9.56915C81.9239 12.6582 81.9239 15.7442 81.9239 18.8652Z" fill="white"/>
<path d="M13.6215 13.2582C12.9055 13.2582 12.3575 12.7132 12.3545 11.9992C12.3525 11.2752 12.9055 10.7252 13.6335 10.7272C14.3405 10.7292 14.8925 11.2872 14.8905 11.9992C14.8895 12.7102 14.3355 13.2592 13.6215 13.2582Z" fill="white"/>
<path d="M9.14309 12.7941C9.85709 12.7961 10.4081 13.3461 10.4081 14.0561C10.4071 14.7701 9.83509 15.3341 9.11909 15.3281C8.41909 15.3221 7.86809 14.7551 7.87209 14.0431C7.87409 13.3281 8.42009 12.7921 9.14309 12.7941Z" fill="white"/>
<path d="M14.5225 16.2662C14.5235 15.5432 15.0595 15.0312 15.7845 15.0052C16.3695 14.9842 17.0495 15.4672 17.0575 16.2642C17.0645 16.9742 16.4855 17.5492 15.7745 17.5452C15.0745 17.5422 14.5215 16.9772 14.5225 16.2662Z" fill="white"/>
<path d="M18.3345 15.0001C17.8925 15.0031 17.5695 14.6931 17.5645 14.2601C17.5595 13.8201 17.8945 13.4761 18.3275 13.4761C18.7505 13.4771 19.0835 13.8121 19.0855 14.2401C19.0865 14.6791 18.7725 14.9971 18.3345 15.0001Z" fill="white"/>
<path d="M9.51176 6.91513C9.50776 6.47913 9.83175 6.14813 10.2628 6.14813C10.6768 6.14813 11.0138 6.47613 11.0268 6.89013C11.0398 7.29913 10.6818 7.66113 10.2638 7.66213C9.85076 7.66413 9.51576 7.33113 9.51176 6.91513Z" fill="white"/>
<path d="M12.1972 9.32113C12.1942 9.73813 11.8632 10.0721 11.4522 10.0731C11.0282 10.0741 10.6982 9.73513 10.7032 9.30213C10.7072 8.86613 11.0342 8.55013 11.4712 8.55813C11.8892 8.56613 12.2002 8.89413 12.1972 9.32113Z" fill="white"/>
<path d="M21.3563 12.9232C21.3543 13.3672 21.0443 13.6692 20.5953 13.6622C20.1663 13.6562 19.8593 13.3412 19.8633 12.9122C19.8673 12.4862 20.1843 12.1692 20.6063 12.1682C21.0503 12.1672 21.3573 12.4772 21.3563 12.9232Z" fill="white"/>
<path d="M8.9664 10.9392C8.9624 11.3692 8.6474 11.6752 8.2134 11.6732C7.7864 11.6702 7.4814 11.3542 7.4844 10.9182C7.4874 10.4842 7.7994 10.1802 8.2344 10.1852C8.6654 10.1902 8.9704 10.5052 8.9664 10.9392Z" fill="white"/>
<path d="M16.4935 12.1202C16.0685 12.1252 15.7405 11.8102 15.7345 11.3922C15.7285 10.9762 16.0535 10.6392 16.4665 10.6322C16.8945 10.6242 17.2445 10.9592 17.2455 11.3772C17.2465 11.7902 16.9175 12.1152 16.4935 12.1202Z" fill="white"/>
<path d="M6.08692 16.1282C6.08792 15.6932 6.39692 15.3852 6.82992 15.3872C7.25692 15.3892 7.57092 15.7072 7.56892 16.1372C7.56692 16.5652 7.24892 16.8802 6.82092 16.8782C6.39092 16.8752 6.08592 16.5652 6.08692 16.1282Z" fill="white"/>
<path d="M4.76651 16.4962C5.18551 16.4932 5.51851 16.8122 5.53151 17.2282C5.54351 17.6272 5.19951 17.9782 4.79051 17.9842C4.35951 17.9902 4.02251 17.6642 4.02051 17.2382C4.01951 16.8212 4.34251 16.4992 4.76651 16.4962Z" fill="white"/>
<path d="M23.6156 11.6962C23.6186 12.1182 23.3136 12.4352 22.9016 12.4382C22.4856 12.4422 22.1416 12.1022 22.1506 11.6942C22.1586 11.3082 22.4906 10.9792 22.8796 10.9712C23.2866 10.9642 23.6136 11.2862 23.6156 11.6962Z" fill="white"/>
<path d="M9.13923 5.55117C8.72123 5.55217 8.40823 5.24517 8.40723 4.83117C8.40623 4.41417 8.71323 4.10717 9.13323 4.10517C9.54623 4.10317 9.87323 4.42117 9.87323 4.82417C9.87323 5.23017 9.55123 5.54917 9.13923 5.55117Z" fill="white"/>
<path d="M18.043 10.4182C18.042 10.0142 18.336 9.71415 18.733 9.71515C19.128 9.71715 19.425 10.0212 19.423 10.4222C19.421 10.8152 19.136 11.1012 18.741 11.1052C18.331 11.1122 18.044 10.8292 18.043 10.4182Z" fill="white"/>
<path d="M2.68275 17.8142C3.00775 17.8162 3.24075 18.0512 3.24175 18.3782C3.24275 18.7172 3.00375 18.9552 2.66575 18.9522C2.35175 18.9492 2.09875 18.6992 2.09475 18.3862C2.09175 18.0692 2.35675 17.8122 2.68275 17.8142Z" fill="white"/>
<path d="M15.874 19.5142C15.876 19.1862 16.106 18.9572 16.435 18.9562C16.757 18.9552 17.004 19.1962 17.009 19.5132C17.014 19.8252 16.734 20.1042 16.424 20.0952C16.107 20.0852 15.872 19.8382 15.874 19.5142Z" fill="white"/>
<path d="M20.8235 9.75715C20.5135 9.75515 20.2695 9.51715 20.2695 9.21515C20.2695 8.92315 20.5285 8.66215 20.8205 8.65815C21.1265 8.65315 21.3895 8.91915 21.3825 9.22515C21.3755 9.53915 21.1445 9.75915 20.8235 9.75715Z" fill="white"/>
<path d="M5.73686 6.41319C5.45186 6.41019 5.25686 6.21119 5.25586 5.92419C5.25486 5.62719 5.45786 5.42319 5.75186 5.42519C6.04186 5.42719 6.23886 5.63919 6.23086 5.93919C6.22286 6.22619 6.02486 6.41619 5.73686 6.41319Z" fill="white"/>
<path d="M7.03732 9.03415C6.74132 9.03815 6.52832 8.83415 6.52832 8.54615C6.52832 8.27215 6.73632 8.06515 7.01732 8.05915C7.31532 8.05315 7.52032 8.25315 7.52032 8.55015C7.51932 8.83715 7.32732 9.03015 7.03732 9.03415Z" fill="white"/>
<path d="M22.823 8.73216C22.551 8.73016 22.376 8.54916 22.382 8.27416C22.387 8.02516 22.582 7.83316 22.827 7.83616C23.082 7.83916 23.284 8.04815 23.277 8.30115C23.27 8.54515 23.071 8.73416 22.823 8.73216Z" fill="white"/>
<path d="M1.00071 19.8192C0.754715 19.8172 0.552715 19.6182 0.553715 19.3782C0.554715 19.1422 0.762715 18.9312 0.998715 18.9272C1.25171 18.9222 1.45071 19.1272 1.44571 19.3882C1.44171 19.6462 1.26071 19.8212 1.00071 19.8192Z" fill="white"/>
<path d="M18.6428 22.8471C18.6408 23.0841 18.4338 23.2861 18.1938 23.2841C17.9468 23.2821 17.7578 23.0891 17.7598 22.8411C17.7608 22.5971 17.9628 22.3941 18.1998 22.3981C18.4328 22.4011 18.6448 22.6161 18.6428 22.8471Z" fill="white"/>
<path d="M17.452 20.9461C17.705 20.9491 17.884 21.1361 17.88 21.3921C17.876 21.6401 17.704 21.8061 17.45 21.8081C17.193 21.8101 17 21.6241 17.001 21.3771C17.002 21.1341 17.202 20.9431 17.452 20.9461Z" fill="white"/>
<path d="M18.6592 24.5001C18.6622 24.3151 18.7752 24.2071 18.9642 24.2101C19.1392 24.2121 19.2722 24.3411 19.2722 24.5071C19.2722 24.6711 19.1062 24.8301 18.9442 24.8221C18.7772 24.8131 18.6562 24.6761 18.6592 24.5001Z" fill="white"/>
<path d="M4.69468 4.00019C4.52768 4.00519 4.39368 3.87219 4.39068 3.69819C4.38768 3.51319 4.50068 3.39719 4.68568 3.39619C4.86268 3.39519 4.99768 3.52019 5.00168 3.68819C5.00468 3.84219 4.85468 3.99519 4.69468 4.00019Z" fill="white"/>
<path d="M24.7691 7.43014C24.7701 7.59814 24.6381 7.72614 24.4631 7.72614C24.2861 7.72614 24.1641 7.60114 24.1681 7.42514C24.1731 7.25314 24.2791 7.14914 24.4561 7.14414C24.6371 7.14014 24.7681 7.25914 24.7691 7.43014Z" fill="white"/>
<path d="M20.6795 28.1812C20.5815 28.0572 20.4765 27.9832 20.4785 27.9102C20.4795 27.8392 20.5755 27.7292 20.6505 27.7082C20.7745 27.6722 20.8765 27.7622 20.8585 27.8942C20.8475 27.9762 20.7655 28.0492 20.6795 28.1812Z" fill="white"/>
<path d="M19.7846 25.7471C19.8796 25.8711 19.9726 25.9391 19.9856 26.0211C20.0046 26.1441 19.9126 26.2481 19.7846 26.2171C19.7096 26.1991 19.6106 26.0951 19.6056 26.0251C19.6016 25.9521 19.6986 25.8731 19.7846 25.7471Z" fill="white"/>
<path d="M27.2301 5.87213C27.3201 5.99913 27.4191 6.08213 27.4051 6.13413C27.3851 6.20813 27.2861 6.29713 27.2111 6.30713C27.1571 6.31413 27.0371 6.20013 27.0391 6.14313C27.0401 6.06813 27.1351 5.99713 27.2301 5.87213Z" fill="white"/>
<path d="M25.8271 7.06115C25.7281 6.94015 25.6261 6.87015 25.6321 6.81015C25.6401 6.73215 25.7341 6.66315 25.7901 6.59015C25.8541 6.64715 25.9631 6.69815 25.9701 6.76115C25.9781 6.83515 25.8991 6.92015 25.8271 7.06115Z" fill="white"/>
<path d="M3.11354 0.209156C3.04654 0.255156 2.97854 0.337156 2.91354 0.335156C2.85054 0.333156 2.78954 0.244156 2.72754 0.193156C2.78354 0.125156 2.82954 0.0201556 2.89854 0.00215562C2.95454 -0.0128444 3.03854 0.0771556 3.10954 0.120156C3.11054 0.149156 3.11254 0.179156 3.11354 0.209156Z" fill="white"/>
<path d="M3.98441 2.00013C3.91441 2.04013 3.84041 2.11513 3.77441 2.10813C3.71841 2.10213 3.62441 1.99413 3.63341 1.94613C3.64541 1.87813 3.73141 1.78113 3.79341 1.77613C3.85441 1.77113 3.92341 1.86413 3.98941 1.91413C3.98641 1.94313 3.98541 1.97213 3.98441 2.00013Z" fill="white"/>
</svg>
