<svg width="57" height="17" viewBox="0 0 57 17" fill="none" xmlns="http://www.w3.org/2000/svg">
<path d="M12.6961 5.896C11.1661 5.896 9.84306 6.49999 8.97006 7.62399H8.92807C8.30307 6.45799 7.23105 5.897 5.82605 5.897C4.62905 5.897 3.43206 6.44799 2.57806 7.48899H2.54807V5.89799H1.52808C0.769076 5.93599 0.164062 6.56499 0.164062 7.33399V16.451H1.11707C1.86807 16.451 2.48307 15.877 2.54807 15.142V11.267C2.54807 9.22599 3.63007 8.06099 5.04507 8.06099C6.46107 8.06099 7.11707 9.15499 7.11707 11.039V16.451H9.50107V11.267C9.50107 9.22599 10.5841 8.06099 11.9261 8.06099C13.3521 8.06099 13.9661 9.15499 13.9661 11.039V16.451H14.912C15.706 16.451 16.3491 15.808 16.3491 15.014V10.434C16.3491 7.33399 14.9851 5.896 12.6961 5.896Z" fill="white"/>
<path d="M23.2654 5.89899C20.4164 5.89899 18.2744 8.02999 18.2744 11.165C18.2744 14.363 20.5284 16.452 23.5104 16.452C25.4514 16.452 26.8534 15.688 27.7324 14.629L25.4694 13.777C24.9904 14.102 24.3804 14.32 23.6344 14.32C22.1274 14.32 21.0224 13.439 20.7144 11.984H28.1734C28.2034 11.8 28.2344 11.411 28.2344 11.053C28.2344 8.07099 26.2874 5.89899 23.2654 5.89899ZM20.7544 10.089C21.0924 8.75698 22.1064 8.02898 23.3874 8.02898C24.7294 8.02898 25.5804 8.84798 25.8774 10.089H20.7544Z" fill="white"/>
<path d="M31.5845 0.521973C30.7905 0.521973 30.1475 1.16497 30.1475 1.95897V16.451H31.1295C31.9235 16.451 32.5665 15.808 32.5665 15.014V0.521973H31.5845Z" fill="white"/>
<path d="M36.529 5.89899C35.77 5.93699 35.165 6.56498 35.165 7.33398V16.453H36.147C36.941 16.453 37.584 15.81 37.584 15.016V5.89999L36.529 5.89899Z" fill="white"/>
<path d="M36.606 0.521973C35.812 0.521973 35.167 1.16497 35.167 1.95897V4.00197H36.149C36.943 4.00197 37.586 3.35897 37.586 2.56497V0.521973H36.606Z" fill="white"/>
<path d="M42.5557 8.31495V12.7229C42.5557 13.7999 42.8937 14.1909 43.5697 14.1909H45.1297V16.4509H43.0787C42.1727 16.4499 41.4387 16.1619 40.9287 15.5809C40.4187 14.9979 40.1367 14.1219 40.1367 12.9429V1.95995C40.1367 1.16595 40.7807 0.522949 41.5737 0.522949H42.5557V5.89895H45.1297V6.88094C45.1297 7.64994 44.5267 8.27695 43.7667 8.31595L42.5557 8.31495Z" fill="white"/>
<path d="M55.3741 5.89899C54.6581 5.93499 54.0791 6.49599 54.0161 7.20499V7.27899C54.0161 7.27899 54.0141 7.27499 54.0121 7.27399C53.2441 6.36499 52.1072 5.896 50.8082 5.896C47.9902 5.896 45.8682 8.11899 45.8682 11.215C45.8682 14.381 47.9902 16.452 50.8292 16.452C52.2432 16.452 53.3412 15.898 54.0882 14.915H54.1191V16.452H54.9251C55.7191 16.452 56.3622 15.809 56.3622 15.015V5.89899H55.3741ZM50.9291 14.32C49.1971 14.32 47.9882 13.039 47.9882 11.224C47.9882 9.25699 49.2991 8.02799 50.9391 8.02799C52.6191 8.02799 53.8391 9.41099 53.8391 11.224C53.8401 13.08 52.5181 14.32 50.9291 14.32Z" fill="white"/>
</svg>
