<svg width="55" height="26" viewBox="0 0 55 26" fill="none" xmlns="http://www.w3.org/2000/svg">
<path d="M44.8156 0.101135C45.6606 0.101135 46.5056 0.0981118 47.3506 0.102112C47.8876 0.105112 48.2956 0.535125 48.2436 1.06512C48.2236 1.27012 48.1456 1.47111 48.0826 1.67111C46.3436 7.17111 44.6036 12.6701 42.8656 18.1701C42.8296 18.2831 42.7776 18.3161 42.6626 18.3161C40.9816 18.3121 39.3006 18.3151 37.6186 18.3131C36.9526 18.3121 36.5416 17.7501 36.7426 17.1111C37.5236 14.6331 38.3076 12.1561 39.0906 9.67911C40.0876 6.52811 41.0856 3.37713 42.0806 0.225128C42.1116 0.127128 42.1526 0.0991211 42.2526 0.0991211C43.1086 0.102121 43.9626 0.100135 44.8156 0.101135Z" fill="white"/>
<path d="M9.35742 18.3021C9.46942 17.9471 9.57642 17.6101 9.68242 17.2731C11.1834 12.5181 12.6854 7.7631 14.1844 3.0061C14.2244 2.8791 14.2814 2.84009 14.4134 2.84009C16.4494 2.84409 18.4854 2.84308 20.5214 2.84308C20.5724 2.84308 20.6244 2.8481 20.6914 2.8511C20.5974 3.1521 20.5094 3.4381 20.4184 3.7251C19.0194 8.1551 17.6194 12.5861 16.2204 17.0161C16.0964 17.4071 15.9704 17.7981 15.8504 18.1911C15.8224 18.2821 15.7784 18.3141 15.6834 18.3141C13.6164 18.3121 11.5504 18.3121 9.48342 18.3121C9.44942 18.3121 9.41542 18.3071 9.35742 18.3021Z" fill="white"/>
<path d="M11.6874 2.85917C11.5784 3.20317 11.4754 3.53117 11.3714 3.85917C9.92344 8.44217 8.47544 13.0262 7.02844 17.6092C6.96944 17.7962 6.90144 17.9812 6.85344 18.1722C6.82344 18.2912 6.76444 18.3162 6.65144 18.3152C5.56144 18.3112 4.47144 18.3131 3.38144 18.3131C2.79944 18.3131 2.21644 18.2991 1.63444 18.3171C0.967444 18.3371 0.530443 17.7271 0.730443 17.0981C1.59944 14.3691 2.40844 11.6202 3.33244 8.91016C4.40444 5.76316 6.62244 3.81916 9.85744 3.04316C10.4254 2.90716 11.0044 2.86014 11.5864 2.84714C11.6124 2.84614 11.6384 2.85317 11.6874 2.85917Z" fill="white"/>
<path d="M18.3604 18.3031C18.4824 17.9151 18.6003 17.5401 18.7183 17.1661C20.1673 12.5771 21.6164 7.98908 23.0664 3.40008C23.1154 3.24608 23.1694 3.09307 23.2124 2.93807C23.2334 2.86307 23.2724 2.84507 23.3444 2.84707C25.5854 2.91907 27.4324 4.45908 27.8794 6.64108C28.0434 7.44008 27.9924 8.23308 27.7474 9.01208C26.8764 11.7731 26.0034 14.5331 25.1314 17.2941C24.9354 17.9131 24.4044 18.3101 23.7544 18.3111C22.0034 18.3141 20.2514 18.3121 18.5004 18.3121C18.4594 18.3121 18.4164 18.3071 18.3604 18.3031Z" fill="white"/>
<path d="M37.8357 5.58618C37.7507 5.86018 37.6757 6.10119 37.6007 6.34119C36.4477 9.98819 35.2947 13.6352 34.1417 17.2832C33.9387 17.9232 33.4087 18.3132 32.7337 18.3132C31.3717 18.3142 30.0097 18.3012 28.6487 18.3192C27.9907 18.3282 27.5317 17.7442 27.7437 17.0782C28.6477 14.2412 29.5397 11.3992 30.4357 8.55917C30.5187 8.29717 30.6047 8.03518 30.6817 7.77118C30.7057 7.68718 30.7457 7.66617 30.8287 7.66617C31.3537 7.66217 31.8797 7.66518 32.4037 7.64218C34.0697 7.56818 35.6057 7.07919 37.0027 6.16519C37.2407 6.00919 37.4707 5.84117 37.7037 5.67917C37.7367 5.65417 37.7717 5.63018 37.8357 5.58618Z" fill="white"/>
<path d="M45.3662 18.3132C45.5242 17.8122 45.6722 17.3372 45.8222 16.8632C47.0012 13.1422 48.1812 9.42119 49.3562 5.69919C49.3912 5.58819 49.4402 5.56118 49.5472 5.56418C51.6402 5.62618 53.3512 6.9622 53.8722 9.0152C54.1552 10.1282 54.0812 11.2332 53.7172 12.3102C52.7142 15.2792 50.6432 17.1292 47.6672 18.0072C46.9762 18.2112 46.2642 18.2942 45.5452 18.3142C45.4942 18.3142 45.4422 18.3132 45.3662 18.3132Z" fill="white"/>
<path d="M31.4502 5.30109C31.5752 4.91109 31.6912 4.5511 31.8072 4.1901C32.1512 3.1181 32.4932 2.0451 32.8412 0.974099C33.0142 0.440099 33.4772 0.103096 34.0392 0.103096C35.8472 0.100096 37.6542 0.102089 39.4622 0.102089C39.4922 0.102089 39.5222 0.105101 39.5812 0.108101C39.0482 1.3421 38.2862 2.38708 37.2632 3.23508C35.5862 4.62208 33.6332 5.24309 31.4502 5.30109Z" fill="white"/>
<path d="M32.3576 23.5041C32.5946 23.6621 32.7526 23.8441 32.8246 24.0901C32.9856 24.6351 32.6376 25.2021 32.0586 25.3361C31.9826 25.3541 31.9036 25.3661 31.8256 25.3671C31.3616 25.3701 30.8976 25.3691 30.4336 25.3691C30.4086 25.3691 30.3826 25.3631 30.3506 25.3591C30.3506 24.2001 30.3506 23.0481 30.3506 21.8881C30.3756 21.8841 30.3966 21.8771 30.4166 21.8771C30.8766 21.8771 31.3356 21.8681 31.7956 21.8801C32.3176 21.8931 32.7306 22.3391 32.7236 22.8601C32.7206 23.0821 32.6286 23.2661 32.4736 23.4191C32.4426 23.4501 32.4036 23.4711 32.3576 23.5041ZM30.8626 24.8781C31.1906 24.8781 31.5086 24.8881 31.8266 24.8751C32.1016 24.8641 32.3286 24.6281 32.3406 24.3711C32.3556 24.0671 32.1666 23.7981 31.8726 23.7741C31.5396 23.7471 31.2036 23.7681 30.8626 23.7681C30.8626 24.1391 30.8626 24.5001 30.8626 24.8781ZM30.8616 23.3211C31.1806 23.3211 31.4866 23.3381 31.7906 23.3161C32.0616 23.2971 32.2536 23.0531 32.2336 22.8051C32.2136 22.5601 31.9876 22.3701 31.7136 22.3691C31.5126 22.3681 31.3116 22.3691 31.1096 22.3691C31.0286 22.3691 30.9466 22.3691 30.8616 22.3691C30.8616 22.6931 30.8616 22.9981 30.8616 23.3211Z" fill="white"/>
<path d="M27.6133 24.3431C27.0243 24.3431 26.4393 24.3431 25.8553 24.3431C25.8413 24.6121 26.1033 24.8891 26.3993 24.9301C26.6403 24.9631 26.8483 24.9001 27.0203 24.7241C27.0473 24.6961 27.0913 24.6711 27.1283 24.6691C27.2723 24.6631 27.4163 24.6661 27.5833 24.6661C27.5583 24.7231 27.5433 24.7661 27.5223 24.8061C27.2793 25.2571 26.8283 25.4731 26.3083 25.3881C25.8333 25.3101 25.4433 24.9291 25.3523 24.4451C25.2743 24.0331 25.3223 23.6411 25.5843 23.3001C25.8583 22.9431 26.2303 22.7941 26.6713 22.8691C27.1603 22.9521 27.4573 23.2642 27.5943 23.7302C27.6503 23.9212 27.6833 24.1221 27.6133 24.3431ZM25.8483 23.9211C26.2953 23.9211 26.7343 23.9211 27.1743 23.9211C27.1313 23.5481 26.8573 23.3131 26.4823 23.3141C26.1503 23.3161 25.8883 23.5631 25.8483 23.9211Z" fill="white"/>
<path d="M42.3177 24.3412C42.3647 24.6102 42.4957 24.7842 42.7217 24.8802C42.9657 24.9842 43.2147 24.9741 43.4107 24.7961C43.5367 24.6821 43.6597 24.6572 43.8107 24.6652C43.8887 24.6702 43.9677 24.6661 44.0657 24.6661C43.9517 24.9681 43.7677 25.1942 43.4787 25.3072C42.7307 25.6012 41.9427 25.1881 41.8227 24.3571C41.7517 23.8661 41.8647 23.4292 42.2557 23.1052C42.9237 22.5522 43.9257 22.9331 44.0957 23.8011C44.1227 23.9371 44.1167 24.0791 44.1257 24.2181C44.1317 24.3141 44.0867 24.3441 43.9917 24.3431C43.4887 24.3391 42.9857 24.3412 42.4827 24.3412C42.4347 24.3412 42.3877 24.3412 42.3177 24.3412ZM43.6577 23.9261C43.6197 23.5381 43.3177 23.2952 42.9147 23.3152C42.6147 23.3302 42.3387 23.6201 42.3407 23.9261C42.7757 23.9261 43.2117 23.9261 43.6577 23.9261Z" fill="white"/>
<path d="M17.5432 25.1232C17.2222 25.4062 16.8702 25.4462 16.5002 25.3642C16.1732 25.2912 15.9752 25.0542 15.9472 24.7302C15.9172 24.3852 16.0622 24.1352 16.3782 23.9942C16.6632 23.8672 16.9692 23.8472 17.2752 23.8282C17.3442 23.8242 17.4142 23.8272 17.4802 23.8272C17.5372 23.6232 17.4632 23.4522 17.2912 23.3662C17.0212 23.2322 16.7032 23.3182 16.5352 23.5682C16.5202 23.5902 16.4892 23.6142 16.4652 23.6152C16.3312 23.6202 16.1962 23.6172 16.0512 23.6172C16.0352 23.4282 16.1102 23.2892 16.2152 23.1642C16.3342 23.0222 16.4912 22.9362 16.6692 22.8932C16.9112 22.8342 17.1532 22.8282 17.3932 22.9052C17.7652 23.0252 17.9922 23.3272 17.9982 23.7342C18.0052 24.2372 17.9982 24.7402 18.0012 25.2432C18.0022 25.3402 17.9662 25.3612 17.8722 25.3732C17.6862 25.3972 17.5812 25.3292 17.5432 25.1232ZM17.4892 24.2722C17.3542 24.2722 17.2262 24.2572 17.1032 24.2762C16.9372 24.3012 16.7702 24.3382 16.6122 24.3942C16.4872 24.4382 16.4272 24.5552 16.4372 24.6882C16.4482 24.8262 16.5402 24.9142 16.6682 24.9402C16.7772 24.9622 16.8942 24.9672 17.0042 24.9512C17.3522 24.9012 17.5532 24.6142 17.4892 24.2722Z" fill="white"/>
<path d="M39.6627 24.2211C39.6627 24.5961 39.6627 24.9721 39.6627 25.3681C39.5187 25.3681 39.3847 25.3711 39.2517 25.3651C39.2287 25.3641 39.1977 25.3291 39.1877 25.3031C39.1757 25.2721 39.1827 25.2341 39.1827 25.1991C39.1827 24.1481 39.1827 23.0981 39.1827 22.0471C39.1827 21.8771 39.1837 21.8771 39.3577 21.8761C39.4527 21.8761 39.5487 21.8761 39.6597 21.8761C39.6597 22.5651 39.6597 23.2411 39.6597 23.9571C39.7097 23.9101 39.7347 23.8911 39.7537 23.8671C39.9907 23.5691 40.2297 23.2731 40.4627 22.9721C40.5167 22.9031 40.5737 22.8731 40.6607 22.8771C40.7997 22.8841 40.9387 22.8791 41.1117 22.8791C40.7797 23.2791 40.4657 23.6571 40.1447 24.0421C40.5087 24.4801 40.8677 24.9121 41.2477 25.3691C41.0397 25.3691 40.8667 25.3751 40.6937 25.3651C40.6517 25.3631 40.6057 25.3151 40.5747 25.2771C40.3077 24.9531 40.0437 24.6261 39.7787 24.3001C39.7527 24.2681 39.7237 24.2381 39.6957 24.2071C39.6847 24.2121 39.6737 24.2171 39.6627 24.2211Z" fill="white"/>
<path d="M36.9938 25.3961C36.3528 25.3951 35.8458 24.9101 35.8098 24.2521C35.7808 23.7111 35.9458 23.2541 36.4488 22.9851C37.1558 22.6081 38.0118 23.0291 38.1598 23.8171C38.2128 24.1021 38.2008 24.3821 38.0928 24.6541C37.9048 25.1231 37.4998 25.3971 36.9938 25.3961ZM37.7028 24.1481C37.6998 23.9081 37.6368 23.7171 37.4978 23.5531C37.2408 23.2501 36.8188 23.2321 36.5368 23.5111C36.1878 23.8571 36.2208 24.4901 36.6028 24.7971C36.8328 24.9821 37.1428 24.9881 37.3798 24.8071C37.6048 24.6351 37.6958 24.3981 37.7028 24.1481Z" fill="white"/>
<path d="M4.70801 22.8881C4.90901 22.8731 5.12201 22.8111 5.15701 23.1291C5.38501 22.9331 5.62401 22.8491 5.89701 22.8511C6.37701 22.8551 6.77501 23.1781 6.86601 23.6491C6.88501 23.7471 6.89401 23.8481 6.89501 23.9481C6.89801 24.3681 6.89601 24.7881 6.89601 25.2081C6.89601 25.2551 6.89601 25.3021 6.89601 25.3591C6.72901 25.3591 6.57501 25.3591 6.40601 25.3591C6.40601 25.1861 6.40601 25.0211 6.40601 24.8561C6.40601 24.5581 6.40601 24.2611 6.40601 23.9631C6.40601 23.6031 6.14901 23.3171 5.82401 23.3131C5.47101 23.3091 5.19601 23.5891 5.19301 23.9611C5.19001 24.3851 5.19301 24.8101 5.19201 25.2341C5.19201 25.2721 5.18701 25.3111 5.18401 25.3591C5.02301 25.3591 4.86901 25.3591 4.70801 25.3591C4.70801 24.5361 4.70801 23.7191 4.70801 22.8881Z" fill="white"/>
<path d="M21.2661 25.3631C21.0981 25.3631 20.9471 25.3631 20.7821 25.3631C20.7791 25.3071 20.7751 25.2561 20.7751 25.2051C20.7741 24.7851 20.7781 24.3641 20.7741 23.9441C20.7711 23.6021 20.5071 23.3201 20.1951 23.3141C19.8491 23.3081 19.5641 23.5821 19.5621 23.9291C19.5591 24.3541 19.5611 24.7781 19.5611 25.2031C19.5611 25.2511 19.5611 25.2981 19.5611 25.3581C19.3981 25.3581 19.2431 25.3581 19.0801 25.3581C19.0801 24.5351 19.0801 23.7151 19.0801 22.8911C19.2841 22.8611 19.4831 22.8271 19.5281 23.1261C19.7491 22.9321 19.9851 22.8501 20.2531 22.8521C20.7681 22.8551 21.1911 23.2071 21.2371 23.7201C21.2731 24.1241 21.2591 24.5331 21.2661 24.9391C21.2681 25.0751 21.2661 25.2101 21.2661 25.3631Z" fill="white"/>
<path d="M12.8285 22.8882C12.8285 23.7132 12.8285 24.5302 12.8285 25.3462C12.5805 25.4202 12.5015 25.3862 12.3725 25.1412C12.3335 25.1682 12.2965 25.1952 12.2595 25.2212C11.8585 25.5062 11.2605 25.4482 10.9285 25.0902C10.7345 24.8812 10.6525 24.6262 10.6505 24.3462C10.6465 23.9002 10.6515 23.4531 10.6475 23.0071C10.6465 22.9151 10.6695 22.8702 10.7725 22.8772C10.8845 22.8852 10.9985 22.8792 11.1235 22.8792C11.1265 22.9422 11.1305 22.9922 11.1305 23.0432C11.1315 23.4462 11.1305 23.8482 11.1315 24.2512C11.1315 24.4512 11.1855 24.6322 11.3355 24.7722C11.5155 24.9402 11.7275 24.9872 11.9545 24.8932C12.1965 24.7922 12.3405 24.6042 12.3445 24.3372C12.3515 23.9042 12.3465 23.4701 12.3465 23.0371C12.3465 22.9901 12.3465 22.9432 12.3465 22.8872C12.5095 22.8882 12.6615 22.8882 12.8285 22.8882Z" fill="white"/>
<path d="M47.0902 24.5941C47.1092 24.5911 47.1302 24.5841 47.1512 24.5841C47.2822 24.5831 47.4132 24.5841 47.5402 24.5841C47.7072 24.9201 47.9212 25.0171 48.2362 24.9071C48.3762 24.8581 48.4702 24.7521 48.4662 24.6361C48.4622 24.4991 48.3632 24.4371 48.2522 24.4011C48.0952 24.3501 47.9332 24.3121 47.7732 24.2671C47.7182 24.2521 47.6642 24.2351 47.6112 24.2161C47.2692 24.0891 47.1282 23.9061 47.1292 23.5941C47.1302 23.2771 47.3122 23.0171 47.6252 22.9101C47.9042 22.8151 48.1862 22.8251 48.4582 22.9381C48.7312 23.0521 48.8942 23.3151 48.8812 23.6181C48.7442 23.6181 48.6052 23.6221 48.4672 23.6151C48.4392 23.6141 48.4042 23.5751 48.3882 23.5451C48.2592 23.3151 47.9482 23.2291 47.7322 23.3821C47.6662 23.4291 47.5992 23.5291 47.6022 23.6011C47.6062 23.6711 47.6862 23.7651 47.7562 23.7981C47.8882 23.8611 48.0372 23.8881 48.1792 23.9301C48.2712 23.9571 48.3652 23.9801 48.4552 24.0121C48.7342 24.1111 48.9162 24.2911 48.9292 24.6041C48.9422 24.9071 48.7742 25.1901 48.4932 25.3071C48.1732 25.4401 47.8432 25.4411 47.5222 25.3111C47.2392 25.1941 47.0602 24.8871 47.0902 24.5941Z" fill="white"/>
<path d="M24.486 23.7871C24.335 23.7871 24.191 23.7911 24.048 23.7841C24.016 23.7821 23.97 23.7491 23.957 23.7191C23.846 23.4711 23.674 23.3111 23.387 23.3151C23.092 23.3191 22.897 23.4821 22.772 23.7341C22.595 24.0921 22.689 24.5481 22.979 24.7871C23.31 25.0591 23.753 24.9641 23.931 24.5771C23.971 24.4891 24.021 24.4631 24.109 24.4671C24.23 24.4721 24.351 24.4681 24.472 24.4681C24.461 24.8161 24.133 25.2121 23.767 25.3391C23.091 25.5731 22.362 25.1541 22.228 24.4451C22.135 23.9581 22.22 23.5111 22.594 23.1551C23.212 22.5661 24.258 22.8651 24.471 23.6891C24.478 23.7181 24.48 23.7481 24.486 23.7871Z" fill="white"/>
<path d="M9.65598 23.6171C9.50098 23.6171 9.35798 23.6211 9.21598 23.6131C9.18998 23.6121 9.15698 23.5671 9.14298 23.5351C9.02598 23.2651 8.60698 23.2601 8.43898 23.4121C8.30598 23.5321 8.31598 23.7021 8.47698 23.7781C8.61698 23.8441 8.77299 23.8781 8.92299 23.9251C9.03499 23.9601 9.14998 23.9871 9.25998 24.0301C9.49098 24.1201 9.65598 24.2711 9.68098 24.5331C9.70898 24.8351 9.62198 25.0981 9.35098 25.2521C8.97998 25.4631 8.58698 25.4601 8.20898 25.2711C7.94398 25.1381 7.86098 24.8841 7.83398 24.5861C7.98498 24.5861 8.13099 24.5821 8.27699 24.5901C8.30099 24.5911 8.33099 24.6381 8.34299 24.6701C8.45999 24.9611 8.95498 25.0431 9.15998 24.8051C9.27098 24.6761 9.24498 24.5061 9.08398 24.4361C8.93698 24.3721 8.77698 24.3381 8.62298 24.2911C8.51898 24.2591 8.41199 24.2331 8.31199 24.1921C8.07699 24.0981 7.91498 23.9421 7.89398 23.6721C7.87198 23.3861 7.96698 23.1461 8.21298 22.9981C8.58098 22.7771 8.96698 22.7921 9.33398 23.0031C9.55098 23.1291 9.63698 23.3481 9.65598 23.6171Z" fill="white"/>
<path d="M3.52288 23.6371C3.52288 24.1621 3.51888 24.6871 3.52588 25.2121C3.52788 25.3411 3.48588 25.3751 3.36188 25.3721C3.00488 25.3661 3.00488 25.3711 3.00488 25.0131C3.00488 24.0241 3.00488 23.0351 3.00488 22.0461C3.00488 21.8761 3.00588 21.8761 3.17988 21.8751C3.52388 21.8741 3.52388 21.8741 3.52388 22.2181C3.52288 22.6921 3.52288 23.1641 3.52288 23.6371Z" fill="white"/>
<path d="M13.9434 22.8932C14.2664 22.8502 14.2664 22.8501 14.4044 23.1101C14.4424 23.0821 14.4794 23.0552 14.5154 23.0272C14.6894 22.8942 14.8864 22.8341 15.1034 22.8561C15.1384 22.8601 15.1954 22.9101 15.1974 22.9431C15.2084 23.0721 15.2014 23.2031 15.2014 23.3301C15.0844 23.3431 14.9744 23.3411 14.8724 23.3691C14.6194 23.4391 14.4434 23.6511 14.4354 23.9131C14.4224 24.3451 14.4224 24.7781 14.4274 25.2111C14.4284 25.3391 14.3884 25.3752 14.2634 25.3722C13.9424 25.3652 13.9424 25.3711 13.9424 25.0481C13.9424 24.3841 13.9424 23.7191 13.9424 23.0551C13.9434 23.0031 13.9434 22.9522 13.9434 22.8932Z" fill="white"/>
<path d="M33.8428 22.8891C34.0448 22.8671 34.2428 22.8281 34.2748 23.1171C34.3678 23.0551 34.4368 22.9841 34.5198 22.9581C34.6748 22.9101 34.8378 22.8831 34.9998 22.8581C35.0258 22.8541 35.0858 22.9061 35.0888 22.9361C35.0988 23.0701 35.0928 23.2051 35.0928 23.3391C34.9898 23.3441 34.8968 23.3361 34.8088 23.3551C34.5118 23.4191 34.3208 23.6631 34.3168 23.9821C34.3128 24.3931 34.3128 24.8041 34.3168 25.2151C34.3178 25.3291 34.2918 25.3861 34.1648 25.3731C34.0618 25.3621 33.9568 25.3711 33.8428 25.3711C33.8428 24.5361 33.8428 23.7171 33.8428 22.8891Z" fill="white"/>
<path d="M46.3589 23.3471C45.9839 23.3281 45.7499 23.4432 45.6409 23.7122C45.5979 23.8182 45.5809 23.9412 45.5779 24.0562C45.5699 24.4372 45.5749 24.8182 45.5749 25.1992C45.5749 25.2502 45.5749 25.3022 45.5749 25.3682C45.4279 25.3682 45.2979 25.3721 45.1679 25.3651C45.1419 25.3641 45.1079 25.3242 45.0969 25.2952C45.0839 25.2602 45.0919 25.2172 45.0919 25.1782C45.0919 24.4642 45.0949 23.7511 45.0889 23.0371C45.0879 22.9101 45.1289 22.8882 45.2499 22.8722C45.4469 22.8452 45.4979 22.9662 45.5499 23.1132C45.6289 23.0582 45.6959 23.0041 45.7699 22.9611C45.9209 22.8721 46.0879 22.8361 46.2609 22.8571C46.2959 22.8611 46.3499 22.9132 46.3529 22.9462C46.3659 23.0762 46.3589 23.2071 46.3589 23.3471Z" fill="white"/>
</svg>
