<svg width="71" height="11" viewBox="0 0 71 11" fill="none" xmlns="http://www.w3.org/2000/svg">
<path d="M4.59816 0.217945C4.88991 -0.0729398 5.3627 -0.0725025 5.65402 0.218383L7.47704 2.0375C7.7688 2.32839 7.76879 2.80032 7.47661 3.0912L6.77718 3.78845C6.48543 4.07934 6.01306 4.0789 5.72131 3.78845L5.20857 3.27745L3.36862 5.11046L5.12434 6.86054L7.79963 4.19395L9.63915 6.0274L5.65228 10.0012C5.36053 10.2917 4.88817 10.2917 4.59642 10.0012L0.218815 5.63753C-0.0729383 5.34664 -0.0729383 4.87471 0.218815 4.58383L4.59816 0.217945Z" fill="white"/>
<path d="M11.7871 10.0003C12.0788 10.2912 12.5516 10.2912 12.8429 10.0007L17.2218 5.63615C17.5136 5.34527 17.5136 4.87334 17.2218 4.58245L12.8438 0.218733C12.552 -0.0721516 12.0797 -0.0717175 11.7879 0.218733L7.80106 4.19258C7.79976 4.19388 7.79845 4.19518 7.79715 4.19605C7.28962 4.70228 7.28962 5.52326 7.79715 6.02949C8.30468 6.53572 9.12741 6.53572 9.63494 6.02949C9.63624 6.02819 9.63798 6.02646 9.63928 6.02516L9.64016 6.02602L12.3154 3.35899L14.0712 5.10908L12.2312 6.9421L11.7185 6.43109C11.4267 6.14021 10.9543 6.14021 10.6626 6.43109L9.96317 7.12834C9.67141 7.41923 9.67141 7.89116 9.96273 8.18204L11.7871 10.0003Z" fill="white"/>
<path d="M22.5633 6.6098C22.5633 6.33774 22.2459 6.05053 21.611 5.74823C21.4262 5.66801 21.2634 5.59362 21.1216 5.52619C20.9855 5.45178 20.832 5.35294 20.6588 5.2297C20.4925 5.09948 20.3542 4.96691 20.2426 4.83088C20.1379 4.69485 20.0449 4.52511 19.9647 4.32164C19.8903 4.11818 19.8566 3.89842 19.8635 3.66356C19.8635 3.14501 20.0542 2.70322 20.4368 2.3393C20.8193 1.97539 21.3239 1.79285 21.9529 1.79285C22.6981 1.79285 23.2876 1.98584 23.7213 2.37301C23.8038 2.44626 23.8108 2.57068 23.7469 2.6602L23.1388 3.5101C23.0981 3.56707 23.0167 3.5752 22.9644 3.52869C22.826 3.40894 22.7005 3.32407 22.5912 3.27408C22.4621 3.21245 22.2924 3.18108 22.0831 3.18108C21.8796 3.18108 21.7192 3.2241 21.6029 3.3113C21.4925 3.39733 21.4366 3.51474 21.4366 3.66356C21.4366 3.82982 21.5017 3.97867 21.6308 4.10772C21.7668 4.23794 21.9331 4.3449 22.1296 4.4321C22.3331 4.51232 22.5517 4.61464 22.7865 4.73788C23.0202 4.86113 23.2364 4.99366 23.4341 5.13667C23.6376 5.2727 23.8038 5.46688 23.9329 5.72034C24.0689 5.96683 24.1364 6.25749 24.1364 6.59118C24.1364 7.14693 23.9236 7.60388 23.4981 7.96199C23.0853 8.32009 22.5586 8.49915 21.9168 8.49915C21.4483 8.49915 21.0041 8.4038 20.5856 8.21196C20.2182 8.04686 19.9531 7.82945 19.7926 7.56203C19.7473 7.4853 19.7612 7.38996 19.8182 7.32136L20.4739 6.53423C20.5216 6.47726 20.6088 6.47958 20.6588 6.53423C20.8088 6.69816 20.9867 6.83186 21.1948 6.93301C21.4471 7.05044 21.7006 7.10857 21.9529 7.10857C22.1435 7.10857 22.2924 7.06556 22.397 6.97836C22.5074 6.88767 22.5633 6.76444 22.5633 6.6098ZM24.963 5.14713C24.963 4.19025 25.2804 3.39383 25.9152 2.75785C26.5559 2.11605 27.3849 1.79515 28.4022 1.79515C29.4126 1.79515 30.2358 2.10094 30.8706 2.7125C31.5182 3.32407 31.8414 4.13562 31.8414 5.1483C31.8414 6.12379 31.5147 6.92605 30.8612 7.55621C30.2136 8.18638 29.394 8.50145 28.4022 8.50145C27.3977 8.50145 26.5722 8.19567 25.9246 7.5841C25.2839 6.97138 24.963 6.15982 24.963 5.14713ZM26.535 5.14713C26.535 5.69708 26.7163 6.16331 27.0803 6.54583C27.4372 6.92254 27.8778 7.11092 28.4022 7.11092C28.994 7.11092 29.4533 6.92838 29.78 6.56446C30.1067 6.18775 30.2695 5.71568 30.2695 5.14713C30.2695 4.55998 30.0904 4.08794 29.7335 3.72984C29.3695 3.36593 28.9266 3.18338 28.4022 3.18338C27.8604 3.18338 27.4128 3.36593 27.0617 3.72984C26.7105 4.09376 26.535 4.5658 26.535 5.14713ZM46.1899 6.6098C46.1899 6.33774 45.8725 6.05053 45.2377 5.74823C45.0528 5.66801 44.8889 5.59362 44.7482 5.52619C44.6122 5.45178 44.4587 5.35294 44.2855 5.2297C44.1192 5.09948 43.9809 4.96691 43.8692 4.83088C43.7646 4.69485 43.6716 4.52511 43.5914 4.32164C43.5169 4.11818 43.4832 3.89842 43.4902 3.66356C43.4902 3.14501 43.6809 2.70322 44.0634 2.3393C44.4459 1.97539 44.9505 1.79285 45.5795 1.79285C46.3248 1.79285 46.9143 1.98584 47.348 2.37301C47.4305 2.44626 47.4375 2.57068 47.3735 2.6602L46.8422 3.40312C46.7608 3.51707 46.5992 3.53104 46.4899 3.44616C46.3911 3.36943 46.3004 3.31245 46.2178 3.27525C46.0888 3.21363 45.919 3.18221 45.7098 3.18221C45.5063 3.18221 45.3458 3.22523 45.2296 3.31243C45.1191 3.39847 45.0633 3.51591 45.0633 3.66473C45.0633 3.83099 45.1284 3.97984 45.2575 4.1089C45.3935 4.23911 45.5598 4.34607 45.7562 4.43327C45.9597 4.5135 46.1783 4.61581 46.4132 4.73905C46.6469 4.8623 46.8631 4.99483 47.0608 5.13784C47.2642 5.27387 47.4305 5.46805 47.5595 5.72151C47.6956 5.968 47.763 6.25866 47.763 6.59235C47.763 7.1481 47.5503 7.60502 47.1247 7.96312C46.712 8.32122 46.1853 8.50028 45.5435 8.50028C45.0749 8.50028 44.6308 8.40497 44.2122 8.21313C43.8448 8.04803 43.5797 7.83058 43.4193 7.56317C43.374 7.48643 43.3879 7.39109 43.4448 7.3225L44.0088 6.64582C44.1029 6.53188 44.2785 6.53654 44.3866 6.63769C44.5134 6.75629 44.6587 6.85512 44.8215 6.93418C45.0738 7.05161 45.3272 7.10975 45.5795 7.10975C45.7702 7.10975 45.919 7.06673 46.0237 6.97953C46.1341 6.88768 46.1899 6.76444 46.1899 6.6098ZM54.9321 5.99824L55.9947 2.07535C56.0215 1.9742 56.1134 1.90444 56.218 1.90444H57.1598C57.3132 1.90444 57.4237 2.05096 57.3818 2.19862L55.6901 8.21891C55.6622 8.3189 55.5715 8.38752 55.468 8.38752H54.3961C54.2961 8.38752 54.2077 8.32241 54.1763 8.22707L52.8788 4.21935L51.5987 8.2259C51.5684 8.32124 51.4789 8.38635 51.3789 8.38635H50.3058C50.2035 8.38635 50.1128 8.31891 50.0837 8.22008L48.3072 2.19979C48.263 2.05097 48.3746 1.90213 48.5292 1.90213H49.7151C49.8198 1.90213 49.9117 1.97307 49.9384 2.07422L50.9836 5.9959L52.1451 2.0684C52.1742 1.96957 52.2649 1.90213 52.3672 1.90213H53.5125C53.6136 1.90213 53.7043 1.96839 53.7334 2.06606L54.9321 5.99824ZM63.2382 5.74823C63.873 6.05053 64.1904 6.33774 64.1904 6.6098C64.1904 6.76444 64.1346 6.88768 64.0242 6.9807C63.9195 7.06674 63.7719 7.11092 63.58 7.11092C63.3277 7.11092 63.0743 7.05278 62.822 6.93535C62.6592 6.85629 62.5139 6.75746 62.3871 6.63886C62.279 6.53771 62.1034 6.53421 62.0092 6.64699L61.4454 7.32367C61.3884 7.39226 61.3744 7.4876 61.4198 7.56434C61.5802 7.83175 61.8442 8.048 62.2127 8.21426C62.6325 8.4061 63.0754 8.50145 63.544 8.50145C64.1846 8.50145 64.7125 8.3224 65.1252 7.96429C65.5507 7.60619 65.7635 7.14928 65.7635 6.59352C65.7635 6.25983 65.6961 5.97033 65.5601 5.72269C65.431 5.46922 65.2647 5.27504 65.0613 5.13901C64.8636 4.99716 64.6485 4.86463 64.4136 4.74023C64.1799 4.61698 63.9602 4.51467 63.7567 4.43444C63.5591 4.3484 63.3928 4.24025 63.258 4.11003C63.1289 3.97981 63.0638 3.83217 63.0638 3.6659C63.0638 3.51824 63.1196 3.4008 63.2301 3.3136C63.3475 3.22757 63.5079 3.18338 63.7102 3.18338C63.9195 3.18338 64.0893 3.2148 64.2183 3.27642C64.3009 3.31362 64.3916 3.37176 64.4904 3.44733C64.6008 3.53337 64.7613 3.51824 64.8427 3.40429L65.374 2.66134C65.438 2.57181 65.431 2.44743 65.3485 2.37418C64.9148 1.98701 64.3253 1.79398 63.58 1.79398C62.951 1.79398 62.4464 1.97652 62.0639 2.34044C61.6814 2.70436 61.4907 3.14618 61.4907 3.66473C61.4849 3.89959 61.5186 4.11819 61.5918 4.32282C61.6721 4.52628 61.7639 4.69602 61.8697 4.83205C61.9802 4.96809 62.1197 5.10065 62.286 5.23087C62.458 5.35411 62.6127 5.45295 62.7487 5.52736C62.8894 5.59479 63.0533 5.66801 63.2382 5.74823ZM68.476 5.74823C69.1109 6.05053 69.4283 6.33774 69.4283 6.6098C69.4283 6.76444 69.3725 6.88768 69.262 6.9807C69.1574 7.06674 69.0097 7.11092 68.8179 7.11092C68.5656 7.11092 68.3121 7.05278 68.0598 6.93535C67.897 6.85629 67.7517 6.75629 67.625 6.63886C67.5168 6.53771 67.3413 6.53421 67.2459 6.64699L66.682 7.32367C66.6251 7.39226 66.6111 7.4876 66.6565 7.56434C66.8169 7.83175 67.0808 8.048 67.4494 8.21426C67.868 8.4061 68.3121 8.50145 68.7807 8.50145C69.4213 8.50145 69.9491 8.3224 70.3619 7.96429C70.7874 7.60619 71.0002 7.14928 71.0002 6.59352C71.0002 6.25983 70.9328 5.97033 70.7967 5.72269C70.6677 5.46922 70.5014 5.27504 70.2979 5.13901C70.1003 4.99716 69.8852 4.86463 69.6503 4.74023C69.4166 4.61698 69.1969 4.51467 68.9934 4.43444C68.7958 4.3484 68.6295 4.24025 68.4946 4.11003C68.3656 3.97981 68.3005 3.83217 68.3005 3.6659C68.3005 3.51824 68.3563 3.4008 68.4667 3.3136C68.5842 3.22757 68.7446 3.18338 68.9481 3.18338C69.1574 3.18338 69.3271 3.2148 69.4562 3.27642C69.5387 3.31362 69.6294 3.37176 69.7282 3.44733C69.8387 3.53337 69.9991 3.51824 70.0805 3.40429L70.6119 2.66134C70.6758 2.57181 70.6688 2.44743 70.5863 2.37418C70.1526 1.98701 69.5631 1.79398 68.8179 1.79398C68.1889 1.79398 67.6843 1.97652 67.3017 2.34044C66.9192 2.70436 66.7285 3.14618 66.7285 3.66473C66.7227 3.89959 66.7564 4.11819 66.8297 4.32282C66.9099 4.52628 67.0018 4.69602 67.1076 4.83205C67.218 4.96809 67.3576 5.10065 67.5238 5.23087C67.6959 5.35411 67.8505 5.45295 67.9865 5.52736C68.1284 5.59479 68.2912 5.66801 68.476 5.74823ZM36.6514 3.29384C36.7793 3.29384 36.8827 3.19036 36.8827 3.06246V2.13582C36.8827 2.00792 36.7793 1.90444 36.6514 1.90444H33.3691C33.2413 1.90444 33.1378 2.00792 33.1378 2.13582V8.15614C33.1378 8.28404 33.2413 8.38752 33.3691 8.38752H34.3865C34.5144 8.38752 34.6179 8.28404 34.6179 8.15614V6.05402H36.3746C36.5025 6.05402 36.606 5.95057 36.606 5.82267V4.89599C36.606 4.7681 36.5025 4.66465 36.3746 4.66465H34.6179V3.29384H36.6514ZM39.6115 8.38869C39.4836 8.38869 39.3802 8.28521 39.3802 8.15731V3.29501H37.6699C37.542 3.29501 37.4385 3.19153 37.4385 3.06363V2.13699C37.4385 2.00909 37.542 1.90561 37.6699 1.90561H42.5694C42.6973 1.90561 42.8007 2.00909 42.8007 2.13699V3.06363C42.8007 3.19153 42.6973 3.29501 42.5694 3.29501H40.8591V8.15731C40.8591 8.28521 40.7556 8.38869 40.6277 8.38869H39.6115ZM59.9618 2.13699C59.9618 2.00909 59.8583 1.90561 59.7304 1.90561H58.7131C58.5852 1.90561 58.4817 2.00909 58.4817 2.13699V8.15731C58.4817 8.28521 58.5852 8.38869 58.7131 8.38869H59.7304C59.8583 8.38869 59.9618 8.28521 59.9618 8.15731V2.13699Z" fill="white"/>
</svg>
