<svg width="45" height="34" viewBox="0 0 45 34" fill="none" xmlns="http://www.w3.org/2000/svg">
<path d="M12.6437 0.926801C13.3157 0.256801 14.4047 0.257809 15.0757 0.927809L19.2747 5.11781C19.9467 5.78781 19.9467 6.87481 19.2737 7.54481L17.6627 9.1508C16.9907 9.8208 15.9027 9.8198 15.2307 9.1508L14.0497 7.9738L9.81174 12.1958L13.8557 16.2268L20.0177 10.0848L24.2547 14.3078L15.0717 23.4608C14.3997 24.1298 13.3117 24.1298 12.6397 23.4608L2.55673 13.4098C1.88473 12.7398 1.88473 11.6528 2.55673 10.9828L12.6437 0.926801Z" fill="white"/>
<path d="M29.2005 23.4588C29.8725 24.1288 30.9615 24.1288 31.6325 23.4598L41.7185 13.4068C42.3905 12.7368 42.3905 11.6498 41.7185 10.9798L31.6346 0.928761C30.9626 0.258761 29.8746 0.259761 29.2026 0.928761L20.0195 10.0818C20.0165 10.0848 20.0135 10.0878 20.0105 10.0898C18.8415 11.2558 18.8415 13.1468 20.0105 14.3128C21.1795 15.4788 23.0745 15.4788 24.2435 14.3128C24.2465 14.3098 24.2506 14.3058 24.2536 14.3028L24.2556 14.3048L30.4176 8.16176L34.4616 12.1928L30.2236 16.4148L29.0426 15.2378C28.3706 14.5678 27.2825 14.5678 26.6105 15.2378L24.9996 16.8438C24.3276 17.5138 24.3275 18.6008 24.9985 19.2708L29.2005 23.4588Z" fill="white"/>
<path d="M2.51168 31.6957C2.51168 31.4617 2.23868 31.2147 1.69268 30.9547C1.53368 30.8857 1.39369 30.8217 1.27169 30.7637C1.15469 30.6997 1.02268 30.6147 0.873682 30.5087C0.730682 30.3967 0.61168 30.2827 0.51568 30.1657C0.42568 30.0487 0.345697 29.9027 0.276697 29.7277C0.212697 29.5527 0.183691 29.3637 0.189691 29.1617C0.189691 28.7157 0.353703 28.3357 0.682703 28.0227C1.0117 27.7097 1.44569 27.5527 1.98669 27.5527C2.62769 27.5527 3.13468 27.7187 3.50768 28.0517C3.57868 28.1147 3.58469 28.2217 3.52969 28.2987L3.00668 29.0297C2.97168 29.0787 2.90168 29.0857 2.85668 29.0457C2.73768 28.9427 2.6297 28.8697 2.5357 28.8267C2.4247 28.7737 2.27869 28.7467 2.09869 28.7467C1.92369 28.7467 1.78569 28.7837 1.68569 28.8587C1.59069 28.9327 1.54269 29.0337 1.54269 29.1617C1.54269 29.3047 1.59868 29.4327 1.70968 29.5437C1.82668 29.6557 1.9697 29.7477 2.1387 29.8227C2.3137 29.8917 2.5017 29.9797 2.7037 30.0857C2.9047 30.1917 3.09068 30.3057 3.26068 30.4287C3.43568 30.5457 3.57869 30.7127 3.68969 30.9307C3.80669 31.1427 3.86468 31.3927 3.86468 31.6797C3.86468 32.1577 3.6817 32.5507 3.3157 32.8587C2.9607 33.1667 2.50768 33.3207 1.95568 33.3207C1.55268 33.3207 1.17069 33.2387 0.810694 33.0737C0.494694 32.9317 0.266687 32.7447 0.128687 32.5147C0.0896868 32.4487 0.10169 32.3667 0.15069 32.3077L0.714685 31.6307C0.755685 31.5817 0.830682 31.5837 0.873682 31.6307C1.00268 31.7717 1.15568 31.8867 1.33468 31.9737C1.55168 32.0747 1.76969 32.1247 1.98669 32.1247C2.15069 32.1247 2.27868 32.0877 2.36868 32.0127C2.46368 31.9347 2.51168 31.8287 2.51168 31.6957ZM4.57568 30.4377C4.57568 29.6147 4.84868 28.9297 5.39468 28.3827C5.94568 27.8307 6.65869 27.5547 7.53369 27.5547C8.40269 27.5547 9.1107 27.8177 9.6567 28.3437C10.2137 28.8697 10.4917 29.5677 10.4917 30.4387C10.4917 31.2777 10.2107 31.9677 9.64868 32.5097C9.09168 33.0517 8.38669 33.3227 7.53369 33.3227C6.66969 33.3227 5.9597 33.0597 5.4027 32.5337C4.8517 32.0067 4.57568 31.3087 4.57568 30.4377ZM5.9277 30.4377C5.9277 30.9107 6.08369 31.3117 6.39669 31.6407C6.70369 31.9647 7.08269 32.1267 7.53369 32.1267C8.04269 32.1267 8.43768 31.9697 8.71868 31.6567C8.99968 31.3327 9.1397 30.9267 9.1397 30.4377C9.1397 29.9327 8.98567 29.5267 8.67867 29.2187C8.36567 28.9057 7.98469 28.7487 7.53369 28.7487C7.06769 28.7487 6.6827 28.9057 6.3807 29.2187C6.0787 29.5317 5.9277 29.9377 5.9277 30.4377ZM22.8327 31.6957C22.8327 31.4617 22.5597 31.2147 22.0137 30.9547C21.8547 30.8857 21.7137 30.8217 21.5927 30.7637C21.4757 30.6997 21.3437 30.6147 21.1947 30.5087C21.0517 30.3967 20.9327 30.2827 20.8367 30.1657C20.7467 30.0487 20.6667 29.9027 20.5977 29.7277C20.5337 29.5527 20.5047 29.3637 20.5107 29.1617C20.5107 28.7157 20.6747 28.3357 21.0037 28.0227C21.3327 27.7097 21.7667 27.5527 22.3077 27.5527C22.9487 27.5527 23.4557 27.7187 23.8287 28.0517C23.8997 28.1147 23.9057 28.2217 23.8507 28.2987L23.3937 28.9377C23.3237 29.0357 23.1847 29.0477 23.0907 28.9747C23.0057 28.9087 22.9277 28.8597 22.8567 28.8277C22.7457 28.7747 22.5997 28.7477 22.4197 28.7477C22.2447 28.7477 22.1067 28.7847 22.0067 28.8597C21.9117 28.9337 21.8637 29.0347 21.8637 29.1627C21.8637 29.3057 21.9197 29.4337 22.0307 29.5447C22.1477 29.6567 22.2907 29.7487 22.4597 29.8237C22.6347 29.8927 22.8227 29.9807 23.0247 30.0867C23.2257 30.1927 23.4117 30.3067 23.5817 30.4297C23.7567 30.5467 23.8997 30.7137 24.0107 30.9317C24.1277 31.1437 24.1857 31.3937 24.1857 31.6807C24.1857 32.1587 24.0027 32.5517 23.6367 32.8597C23.2817 33.1677 22.8287 33.3217 22.2767 33.3217C21.8737 33.3217 21.4917 33.2397 21.1317 33.0747C20.8157 32.9327 20.5877 32.7457 20.4497 32.5157C20.4107 32.4497 20.4227 32.3677 20.4717 32.3087L20.9567 31.7267C21.0377 31.6287 21.1887 31.6327 21.2817 31.7197C21.3907 31.8217 21.5157 31.9067 21.6557 31.9747C21.8727 32.0757 22.0907 32.1257 22.3077 32.1257C22.4717 32.1257 22.5997 32.0887 22.6897 32.0137C22.7847 31.9347 22.8327 31.8287 22.8327 31.6957ZM30.3517 31.1697L31.2657 27.7957C31.2887 27.7087 31.3677 27.6487 31.4577 27.6487H32.2677C32.3997 27.6487 32.4947 27.7747 32.4587 27.9017L31.0037 33.0797C30.9797 33.1657 30.9017 33.2247 30.8127 33.2247H29.8907C29.8047 33.2247 29.7287 33.1687 29.7017 33.0867L28.5857 29.6397L27.4847 33.0857C27.4587 33.1677 27.3817 33.2237 27.2957 33.2237H26.3727C26.2847 33.2237 26.2067 33.1657 26.1817 33.0807L24.6537 27.9027C24.6157 27.7747 24.7117 27.6467 24.8447 27.6467H25.8647C25.9547 27.6467 26.0337 27.7077 26.0567 27.7947L26.9557 31.1677L27.9547 27.7897C27.9797 27.7047 28.0577 27.6467 28.1457 27.6467H29.1307C29.2177 27.6467 29.2957 27.7037 29.3207 27.7877L30.3517 31.1697ZM37.4957 30.9547C38.0417 31.2147 38.3147 31.4617 38.3147 31.6957C38.3147 31.8287 38.2667 31.9347 38.1717 32.0147C38.0817 32.0887 37.9547 32.1267 37.7897 32.1267C37.5727 32.1267 37.3547 32.0767 37.1377 31.9757C36.9977 31.9077 36.8727 31.8227 36.7637 31.7207C36.6707 31.6337 36.5197 31.6307 36.4387 31.7277L35.9537 32.3097C35.9047 32.3687 35.8927 32.4507 35.9317 32.5167C36.0697 32.7467 36.2967 32.9327 36.6137 33.0757C36.9747 33.2407 37.3557 33.3227 37.7587 33.3227C38.3097 33.3227 38.7637 33.1687 39.1187 32.8607C39.4847 32.5527 39.6677 32.1597 39.6677 31.6817C39.6677 31.3947 39.6097 31.1457 39.4927 30.9327C39.3817 30.7147 39.2387 30.5477 39.0637 30.4307C38.8937 30.3087 38.7087 30.1947 38.5067 30.0877C38.3057 29.9817 38.1167 29.8937 37.9417 29.8247C37.7717 29.7507 37.6287 29.6577 37.5127 29.5457C37.4017 29.4337 37.3457 29.3067 37.3457 29.1637C37.3457 29.0367 37.3937 28.9357 37.4887 28.8607C37.5897 28.7867 37.7277 28.7487 37.9017 28.7487C38.0817 28.7487 38.2277 28.7757 38.3387 28.8287C38.4097 28.8607 38.4877 28.9107 38.5727 28.9757C38.6677 29.0497 38.8057 29.0367 38.8757 28.9387L39.3327 28.2997C39.3877 28.2227 39.3817 28.1157 39.3107 28.0527C38.9377 27.7197 38.4307 27.5537 37.7897 27.5537C37.2487 27.5537 36.8147 27.7107 36.4857 28.0237C36.1567 28.3367 35.9927 28.7167 35.9927 29.1627C35.9877 29.3647 36.0167 29.5527 36.0797 29.7287C36.1487 29.9037 36.2277 30.0497 36.3187 30.1667C36.4137 30.2837 36.5337 30.3977 36.6767 30.5097C36.8247 30.6157 36.9577 30.7007 37.0747 30.7647C37.1957 30.8227 37.3367 30.8857 37.4957 30.9547ZM42.0007 30.9547C42.5467 31.2147 42.8197 31.4617 42.8197 31.6957C42.8197 31.8287 42.7717 31.9347 42.6767 32.0147C42.5867 32.0887 42.4597 32.1267 42.2947 32.1267C42.0777 32.1267 41.8597 32.0767 41.6427 31.9757C41.5027 31.9077 41.3777 31.8217 41.2687 31.7207C41.1757 31.6337 41.0247 31.6307 40.9427 31.7277L40.4577 32.3097C40.4087 32.3687 40.3967 32.4507 40.4357 32.5167C40.5737 32.7467 40.8007 32.9327 41.1177 33.0757C41.4777 33.2407 41.8597 33.3227 42.2627 33.3227C42.8137 33.3227 43.2677 33.1687 43.6227 32.8607C43.9887 32.5527 44.1717 32.1597 44.1717 31.6817C44.1717 31.3947 44.1137 31.1457 43.9967 30.9327C43.8857 30.7147 43.7427 30.5477 43.5677 30.4307C43.3977 30.3087 43.2127 30.1947 43.0107 30.0877C42.8097 29.9817 42.6207 29.8937 42.4457 29.8247C42.2757 29.7507 42.1327 29.6577 42.0167 29.5457C41.9057 29.4337 41.8497 29.3067 41.8497 29.1637C41.8497 29.0367 41.8977 28.9357 41.9927 28.8607C42.0937 28.7867 42.2317 28.7487 42.4067 28.7487C42.5867 28.7487 42.7327 28.7757 42.8437 28.8287C42.9147 28.8607 42.9927 28.9107 43.0777 28.9757C43.1727 29.0497 43.3107 29.0367 43.3807 28.9387L43.8377 28.2997C43.8927 28.2227 43.8867 28.1157 43.8157 28.0527C43.4427 27.7197 42.9357 27.5537 42.2947 27.5537C41.7537 27.5537 41.3197 27.7107 40.9907 28.0237C40.6617 28.3367 40.4977 28.7167 40.4977 29.1627C40.4927 29.3647 40.5217 29.5527 40.5847 29.7287C40.6537 29.9037 40.7327 30.0497 40.8237 30.1667C40.9187 30.2837 41.0387 30.3977 41.1817 30.5097C41.3297 30.6157 41.4627 30.7007 41.5797 30.7647C41.7017 30.8227 41.8417 30.8857 42.0007 30.9547ZM14.6287 28.8437C14.7387 28.8437 14.8277 28.7547 14.8277 28.6447V27.8477C14.8277 27.7377 14.7387 27.6487 14.6287 27.6487H11.8057C11.6957 27.6487 11.6067 27.7377 11.6067 27.8477V33.0257C11.6067 33.1357 11.6957 33.2247 11.8057 33.2247H12.6807C12.7907 33.2247 12.8797 33.1357 12.8797 33.0257V31.2177H14.3907C14.5007 31.2177 14.5897 31.1287 14.5897 31.0187V30.2217C14.5897 30.1117 14.5007 30.0227 14.3907 30.0227H12.8797V28.8437H14.6287ZM17.1747 33.2257C17.0647 33.2257 16.9757 33.1367 16.9757 33.0267V28.8447H15.5047C15.3947 28.8447 15.3057 28.7557 15.3057 28.6457V27.8487C15.3057 27.7387 15.3947 27.6497 15.5047 27.6497H19.7187C19.8287 27.6497 19.9177 27.7387 19.9177 27.8487V28.6457C19.9177 28.7557 19.8287 28.8447 19.7187 28.8447H18.2477V33.0267C18.2477 33.1367 18.1587 33.2257 18.0487 33.2257H17.1747ZM34.6777 27.8487C34.6777 27.7387 34.5887 27.6497 34.4787 27.6497H33.6037C33.4937 27.6497 33.4047 27.7387 33.4047 27.8487V33.0267C33.4047 33.1367 33.4937 33.2257 33.6037 33.2257H34.4787C34.5887 33.2257 34.6777 33.1367 34.6777 33.0267V27.8487Z" fill="white"/>
</svg>
